  0
SECTION
  2
HEADER
  9
$MEASUREMENT
 70
     1
  0
ENDSEC
  0
SECTION
  2
TABLES
  0
TABLE
  2
LTYPE
 70
     1
  0
LTYPE
  2
Continuous
  3
_
 70
     0
 72
    65
 73
     0
 40
0.0
  0
ENDTAB
  0
TABLE
  2
LAYER
 70
     2
  0
LAYER
  2
1
 70
     0
 62
     7
  6
Continuous
  0
LAYER
  2
NOTES
 70
     0
 62
     1
  6
Continuous
  0
ENDTAB
  0
TABLE
  2
STYLE
 70
     1
  0
STYLE
  2
ARIAL
  3
Arial.ttf
 70
     0
 40
0.0
 41
1.0
 50
0.0
 71
     0
 42
1.0
  0
ENDTAB
  0
ENDSEC
  0
SECTION
  2
ENTITIES
  0
POLYLINE
  8
1
 66
     1
 10
0.0
 20
0.0
 70
     1
  0
VERTEX
  8
1
 10
6.16764641106129
 20
-0.632547634094954
 30
0.0
 70
     0
  0
VERTEX
  8
1
 10
6.73048186302185
 20
-0.690269458293915
 30
0.0
 70
     0
  0
VERTEX
  8
1
 10
6.78841346502304
 20
-0.691134590655565
 30
0.0
 70
     0
  0
VERTEX
  8
1
 10
6.84396512508392
 20
-0.688001927733421
 30
0.0
 70
     0
  0
VERTEX
  8
1
 10
6.90417599081993
 20
-0.681738588958979
 30
0.0
 70
     0
  0
VERTEX
  8
1
 10
6.96129459738731
 20
-0.673540080711245
 30
0.0
 70
     0
  0
VERTEX
  8
1
 10
7.0262078166008
 20
-0.66190124489367
 30
0.0
 70
     0
  0
VERTEX
  8
1
 10
7.07989957928658
 20
-0.650581854209304
 30
0.0
 70
     0
  0
VERTEX
  8
1
 10
7.13778803348541
 20
-0.636786669120192
 30
0.0
 70
     0
  0
VERTEX
  8
1
 10
7.19977628588676
 20
-0.620289021730423
 30
0.0
 70
     0
  0
VERTEX
  8
1
 10
7.2657598733902
 20
-0.600865508615971
 30
0.0
 70
     0
  0
VERTEX
  8
1
 10
7.33562524914742
 20
-0.578296700492501
 30
0.0
 70
     0
  0
VERTEX
  8
1
 10
7.38429824113846
 20
-0.561396766081452
 30
0.0
 70
     0
  0
VERTEX
  8
1
 10
7.434604793787
 20
-0.542940151691437
 30
0.0
 70
     0
  0
VERTEX
  8
1
 10
7.48650251626968
 20
-0.522864926978946
 30
0.0
 70
     0
  0
VERTEX
  8
1
 10
7.5399512887001
 20
-0.501110249757767
 30
0.0
 70
     0
  0
VERTEX
  8
1
 10
7.59490720629692
 20
-0.477615940198302
 30
0.0
 70
     0
  0
VERTEX
  8
1
 10
7.6513256072998
 20
-0.452323095872998
 30
0.0
 70
     0
  0
VERTEX
  8
1
 10
7.70916031599045
 20
-0.425173807889223
 30
0.0
 70
     0
  0
VERTEX
  8
1
 10
7.7683613717556
 20
-0.396111137233675
 30
0.0
 70
     0
  0
VERTEX
  8
1
 10
7.82888032793999
 20
-0.365079564228654
 30
0.0
 70
     0
  0
VERTEX
  8
1
 10
7.89066646695137
 20
-0.332024184241891
 30
0.0
 70
     0
  0
VERTEX
  8
1
 10
7.99535136222839
 20
-0.272682850807905
 30
0.0
 70
     0
  0
VERTEX
  8
1
 10
7.99534984827042
 20
0.272682377696037
 30
0.0
 70
     0
  0
VERTEX
  8
1
 10
7.89066495299339
 20
0.33202375844121
 30
0.0
 70
     0
  0
VERTEX
  8
1
 10
7.82888032793999
 20
0.365079043805599
 30
0.0
 70
     0
  0
VERTEX
  8
1
 10
7.76836061477661
 20
0.396110782399774
 30
0.0
 70
     0
  0
VERTEX
  8
1
 10
7.70915955901146
 20
0.425173524022102
 30
0.0
 70
     0
  0
VERTEX
  8
1
 10
7.65132409334183
 20
0.452322670072317
 30
0.0
 70
     0
  0
VERTEX
  8
1
 10
7.59490644931793
 20
0.477615609019995
 30
0.0
 70
     0
  0
VERTEX
  8
1
 10
7.53995053172111
 20
0.501109965890646
 30
0.0
 70
     0
  0
VERTEX
  8
1
 10
7.48650100231171
 20
0.522864643111825
 30
0.0
 70
     0
  0
VERTEX
  8
1
 10
7.43460252285004
 20
0.542939915135503
 30
0.0
 70
     0
  0
VERTEX
  8
1
 10
7.38429748415947
 20
0.561396340280771
 30
0.0
 70
     0
  0
VERTEX
  8
1
 10
7.33562373518944
 20
0.578296463936567
 30
0.0
 70
     0
  0
VERTEX
  8
1
 10
7.26575835943222
 20
0.600865272060037
 30
0.0
 70
     0
  0
VERTEX
  8
1
 10
7.19977477192879
 20
0.620288690552115
 30
0.0
 70
     0
  0
VERTEX
  8
1
 10
7.13778727650642
 20
0.636786432564258
 30
0.0
 70
     0
  0
VERTEX
  8
1
 10
7.0798980653286
 20
0.65058161765337
 30
0.0
 70
     0
  0
VERTEX
  8
1
 10
7.02620705962181
 20
0.661900913715363
 30
0.0
 70
     0
  0
VERTEX
  8
1
 10
6.96129384040832
 20
0.673539796844125
 30
0.0
 70
     0
  0
VERTEX
  8
1
 10
6.90417447686195
 20
0.681738210469484
 30
0.0
 70
     0
  0
VERTEX
  8
1
 10
6.84396436810493
 20
0.688001549243927
 30
0.0
 70
     0
  0
VERTEX
  8
1
 10
6.78841270804405
 20
0.691134164854884
 30
0.0
 70
     0
  0
VERTEX
  8
1
 10
6.73048110604286
 20
0.690269174426794
 30
0.0
 70
     0
  0
VERTEX
  8
1
 10
6.16764754652977
 20
0.632545599713922
 30
0.0
 42
-0.000043633227892
 70
     0
  0
VERTEX
  8
1
 10
6.0120361328125
 20
1.51506080105901
 30
0.0
 70
     0
  0
VERTEX
  8
1
 10
6.56066952347755
 20
1.6533189445734
 30
0.0
 70
     0
  0
VERTEX
  8
1
 10
6.6154036462307
 20
1.67231987416744
 30
0.0
 70
     0
  0
VERTEX
  8
1
 10
6.6665330350399
 20
1.6942633703351
 30
0.0
 70
     0
  0
VERTEX
  8
1
 10
6.7209704220295
 20
1.7207421168685
 30
0.0
 70
     0
  0
VERTEX
  8
1
 10
6.77184092402458
 20
1.74798200577497
 30
0.0
 70
     0
  0
VERTEX
  8
1
 10
6.82885809540749
 20
1.78112046420574
 30
0.0
 70
     0
  0
VERTEX
  8
1
 10
6.87544031143188
 20
1.81012108623981
 30
0.0
 70
     0
  0
VERTEX
  8
1
 10
6.92512008547783
 20
1.84288332611322
 30
0.0
 70
     0
  0
VERTEX
  8
1
 10
6.97772709727287
 20
1.87958715558052
 30
0.0
 70
     0
  0
VERTEX
  8
1
 10
7.03308799862862
 20
1.92040705829859
 30
0.0
 70
     0
  0
VERTEX
  8
1
 10
7.09102111458778
 20
1.96551013737917
 30
0.0
 70
     0
  0
VERTEX
  8
1
 10
7.13097900748253
 20
1.99803790301085
 30
0.0
 70
     0
  0
VERTEX
  8
1
 10
7.17193914055824
 20
2.03258737027645
 30
0.0
 70
     0
  0
VERTEX
  8
1
 10
7.21384095549583
 20
2.06920206546783
 30
0.0
 70
     0
  0
VERTEX
  8
1
 10
7.25662540793419
 20
2.10792513638735
 30
0.0
 70
     0
  0
VERTEX
  8
1
 10
7.30023193955421
 20
2.14879878461361
 30
0.0
 70
     0
  0
VERTEX
  8
1
 10
7.34459696412086
 20
2.19186237305403
 30
0.0
 70
     0
  0
VERTEX
  8
1
 10
7.38965840935707
 20
2.23715507537127
 30
0.0
 70
     0
  0
VERTEX
  8
1
 10
7.43534890413284
 20
2.28471303731203
 30
0.0
 70
     0
  0
VERTEX
  8
1
 10
7.48160486221313
 20
2.33457183688879
 30
0.0
 70
     0
  0
VERTEX
  8
1
 10
7.52835891246796
 20
2.38676572740078
 30
0.0
 70
     0
  0
VERTEX
  8
1
 10
7.60643523931503
 20
2.47833274453878
 30
0.0
 70
     0
  0
VERTEX
  8
1
 10
7.41990728974342
 20
2.99080808758736
 30
0.0
 70
     0
  0
VERTEX
  8
1
 10
7.30124023556709
 20
3.01076640635729
 30
0.0
 70
     0
  0
VERTEX
  8
1
 10
7.23187597990036
 20
3.02069645673037
 30
0.0
 70
     0
  0
VERTEX
  8
1
 10
7.16439281702042
 20
3.02915777862072
 30
0.0
 70
     0
  0
VERTEX
  8
1
 10
7.0988217830658
 20
3.03622001409531
 30
0.0
 70
     0
  0
VERTEX
  8
1
 10
7.03518861532211
 20
3.04195091277361
 30
0.0
 70
     0
  0
VERTEX
  8
1
 10
6.97352283596992
 20
3.04642238765955
 30
0.0
 70
     0
  0
VERTEX
  8
1
 10
6.91384564042091
 20
3.04970389157534
 30
0.0
 70
     0
  0
VERTEX
  8
1
 10
6.85617898106575
 20
3.05186582356691
 30
0.0
 70
     0
  0
VERTEX
  8
1
 10
6.80054405331612
 20
3.0529800966382
 30
0.0
 70
     0
  0
VERTEX
  8
1
 10
6.74696053862572
 20
3.05311824530363
 30
0.0
 70
     0
  0
VERTEX
  8
1
 10
6.69544130563736
 20
3.05235161483288
 30
0.0
 70
     0
  0
VERTEX
  8
1
 10
6.62207036018372
 20
3.04966396093369
 30
0.0
 70
     0
  0
VERTEX
  8
1
 10
6.55342296361923
 20
3.04534842371941
 30
0.0
 70
     0
  0
VERTEX
  8
1
 10
6.48953166604042
 20
3.03965026438236
 30
0.0
 70
     0
  0
VERTEX
  8
1
 10
6.430415391922
 20
3.03281417638063
 30
0.0
 70
     0
  0
VERTEX
  8
1
 10
6.37609079480171
 20
3.02508750259876
 30
0.0
 70
     0
  0
VERTEX
  8
1
 10
6.31111209690571
 20
3.0138228982687
 30
0.0
 70
     0
  0
VERTEX
  8
1
 10
6.25463275909424
 20
3.0019907489419
 30
0.0
 70
     0
  0
VERTEX
  8
1
 10
6.19591162800789
 20
2.98728321492672
 30
0.0
 70
     0
  0
VERTEX
  8
1
 10
6.14263923168182
 20
2.97122712284327
 30
0.0
 70
     0
  0
VERTEX
  8
1
 10
6.0884970664978
 20
2.95060058087111
 30
0.0
 70
     0
  0
VERTEX
  8
1
 10
5.57934921383858
 20
2.7038577914238
 30
0.0
 42
-0.000043633231014
 70
     0
  0
VERTEX
  8
1
 10
5.13128426671028
 20
3.47992854714394
 30
0.0
 70
     0
  0
VERTEX
  8
1
 10
5.59954389929771
 20
3.79749258756638
 30
0.0
 70
     0
  0
VERTEX
  8
1
 10
5.64447817206383
 20
3.83406754136085
 30
0.0
 70
     0
  0
VERTEX
  8
1
 10
5.68501969575882
 20
3.87217499911785
 30
0.0
 70
     0
  0
VERTEX
  8
1
 10
5.72711794674396
 20
3.91567593216896
 30
0.0
 70
     0
  0
VERTEX
  8
1
 10
5.76560351550579
 20
3.95867120325565
 30
0.0
 70
     0
  0
VERTEX
  8
1
 10
5.80784824192524
 20
4.00931234061718
 30
0.0
 70
     0
  0
VERTEX
  8
1
 10
5.84170299172401
 20
4.05249609947205
 30
0.0
 70
     0
  0
VERTEX
  8
1
 10
5.87718032598495
 20
4.10027358531952
 30
0.0
 70
     0
  0
VERTEX
  8
1
 10
5.91406147778034
 20
4.15275720953941
 30
0.0
 70
     0
  0
VERTEX
  8
1
 10
5.95212313830852
 20
4.21004992127418
 30
0.0
 70
     0
  0
VERTEX
  8
1
 10
5.99113594293594
 20
4.2722470998764
 30
0.0
 70
     0
  0
VERTEX
  8
1
 10
6.01755867302418
 20
4.31647965312004
 30
0.0
 70
     0
  0
VERTEX
  8
1
 10
6.04423196315765
 20
4.36295437812805
 30
0.0
 70
     0
  0
VERTEX
  8
1
 10
6.07108352184296
 20
4.41169209182262
 30
0.0
 70
     0
  0
VERTEX
  8
1
 10
6.09804446399212
 20
4.46271361112595
 30
0.0
 70
     0
  0
VERTEX
  8
1
 10
6.12504098415375
 20
4.51603596806526
 30
0.0
 70
     0
  0
VERTEX
  8
1
 10
6.15200192630291
 20
4.57167657315731
 30
0.0
 70
     0
  0
VERTEX
  8
1
 10
6.17885499894619
 20
4.62964943051338
 30
0.0
 70
     0
  0
VERTEX
  8
1
 10
6.20552450418472
 20
4.68996665179729
 30
0.0
 70
     0
  0
VERTEX
  8
1
 10
6.23193815052509
 20
4.75263883471489
 30
0.0
 70
     0
  0
VERTEX
  8
1
 10
6.25802137553692
 20
4.81767657697201
 30
0.0
 70
     0
  0
VERTEX
  8
1
 10
6.3000708013773
 20
4.9304248124361
 30
0.0
 70
     0
  0
VERTEX
  8
1
 10
5.94951572418213
 20
5.3481973528862
 30
0.0
 70
     0
  0
VERTEX
  8
1
 10
5.83117871284485
 20
5.32636532187462
 30
0.0
 70
     0
  0
VERTEX
  8
1
 10
5.76260133683681
 20
5.31197288036346
 30
0.0
 70
     0
  0
VERTEX
  8
1
 10
5.69629376232624
 20
5.29684351980686
 30
0.0
 70
     0
  0
VERTEX
  8
1
 10
5.63226204514503
 20
5.28105293810368
 30
0.0
 70
     0
  0
VERTEX
  8
1
 10
5.5705058068037
 20
5.2646745622158
 30
0.0
 70
     0
  0
VERTEX
  8
1
 10
5.51102958917618
 20
5.2477852255106
 30
0.0
 70
     0
  0
VERTEX
  8
1
 10
5.45382922887802
 20
5.23045835494995
 30
0.0
 70
     0
  0
VERTEX
  8
1
 10
5.3989005625248
 20
5.21276662051678
 30
0.0
 70
     0
  0
VERTEX
  8
1
 10
5.34623980522156
 20
5.19478572010994
 30
0.0
 70
     0
  0
VERTEX
  8
1
 10
5.2958405226469
 20
5.17658832371235
 30
0.0
 70
     0
  0
VERTEX
  8
1
 10
5.24769098162651
 20
5.15824747979641
 30
0.0
 70
     0
  0
VERTEX
  8
1
 10
5.17966430783272
 20
5.13062796592712
 30
0.0
 70
     0
  0
VERTEX
  8
1
 10
5.11663255989551
 20
5.10309361219406
 30
0.0
 70
     0
  0
VERTEX
  8
1
 10
5.05854312777519
 20
5.07588665187359
 30
0.0
 70
     0
  0
VERTEX
  8
1
 10
5.00533015429974
 20
5.04924401938915
 30
0.0
 70
     0
  0
VERTEX
  8
1
 10
4.95692437589168
 20
5.02340340614319
 30
0.0
 70
     0
  0
VERTEX
  8
1
 10
4.89971682429314
 20
4.99059366583824
 30
0.0
 70
     0
  0
VERTEX
  8
1
 10
4.85069108009338
 20
4.96015856862068
 30
0.0
 70
     0
  0
VERTEX
  8
1
 10
4.80054122209549
 20
4.92625423669815
 30
0.0
 70
     0
  0
VERTEX
  8
1
 10
4.75597257018089
 20
4.89294602572918
 30
0.0
 70
     0
  0
VERTEX
  8
1
 10
4.7121502995491
 20
4.85504560172558
 30
0.0
 70
     0
  0
VERTEX
  8
1
 10
4.31809883117676
 20
4.44904446303844
 30
0.0
 42
-0.000043633240943
 70
     0
  0
VERTEX
  8
1
 10
3.63162373006344
 20
5.02506535351276
 30
0.0
 70
     0
  0
VERTEX
  8
1
 10
3.96303026676178
 20
5.48363262712955
 30
0.0
 70
     0
  0
VERTEX
  8
1
 10
3.99274547696114
 20
5.53336993157864
 30
0.0
 70
     0
  0
VERTEX
  8
1
 10
4.01780829429626
 20
5.58304554224014
 30
0.0
 70
     0
  0
VERTEX
  8
1
 10
4.04248959422111
 20
5.63832128345966
 30
0.0
 70
     0
  0
VERTEX
  8
1
 10
4.06394881308079
 20
5.69188663065433
 30
0.0
 70
     0
  0
VERTEX
  8
1
 10
4.0863258689642
 20
5.75392257273197
 30
0.0
 70
     0
  0
VERTEX
  8
1
 10
4.1033688724041
 20
5.80608069598675
 30
0.0
 70
     0
  0
VERTEX
  8
1
 10
4.12036607861519
 20
5.86311111450195
 30
0.0
 70
     0
  0
VERTEX
  8
1
 10
4.13707298338413
 20
5.92504335045814
 30
0.0
 70
     0
  0
VERTEX
  8
1
 10
4.15324319005012
 20
5.99189859926701
 30
0.0
 70
     0
  0
VERTEX
  8
1
 10
4.16863105893135
 20
6.06368783712387
 30
0.0
 70
     0
  0
VERTEX
  8
1
 10
4.17833174467087
 20
6.11429036855698
 30
0.0
 70
     0
  0
VERTEX
  8
1
 10
4.18750103116035
 20
6.1670851111412
 30
0.0
 70
     0
  0
VERTEX
  8
1
 10
4.19606435596943
 20
6.22206752300262
 30
0.0
 70
     0
  0
VERTEX
  8
1
 10
4.20394867062569
 20
6.27923268377781
 30
0.0
 70
     0
  0
VERTEX
  8
1
 10
4.21107979118824
 20
6.33857340216637
 30
0.0
 70
     0
  0
VERTEX
  8
1
 10
4.21738466918468
 20
6.40007945895195
 30
0.0
 70
     0
  0
VERTEX
  8
1
 10
4.22279025614262
 20
6.46374063491821
 30
0.0
 70
     0
  0
VERTEX
  8
1
 10
4.22722161114216
 20
6.52954103350639
 30
0.0
 70
     0
  0
VERTEX
  8
1
 10
4.23060682117939
 20
6.59746778607368
 30
0.0
 70
     0
  0
VERTEX
  8
1
 10
4.2328732162714
 20
6.66750423908234
 30
0.0
 70
     0
  0
VERTEX
  8
1
 10
4.23382473886013
 20
6.78783437609673
 30
0.0
 70
     0
  0
VERTEX
  8
1
 10
3.76152359545231
 20
7.06051561832428
 30
0.0
 70
     0
  0
VERTEX
  8
1
 10
3.65779022276402
 20
6.99952657818794
 30
0.0
 70
     0
  0
VERTEX
  8
1
 10
3.59827123582363
 20
6.96254739761353
 30
0.0
 70
     0
  0
VERTEX
  8
1
 10
3.54113711118698
 20
6.92565148472786
 30
0.0
 70
     0
  0
VERTEX
  8
1
 10
3.48636741042137
 20
6.88891302347183
 30
0.0
 70
     0
  0
VERTEX
  8
1
 10
3.43393791019917
 20
6.85240089893341
 30
0.0
 70
     0
  0
VERTEX
  8
1
 10
3.38382476568222
 20
6.8161877810955
 30
0.0
 70
     0
  0
VERTEX
  8
1
 10
3.33599996864796
 20
6.78034179806709
 30
0.0
 70
     0
  0
VERTEX
  8
1
 10
3.2904351323843
 20
6.74493032097816
 30
0.0
 70
     0
  0
VERTEX
  8
1
 10
3.2471003562212
 20
6.71002223491669
 30
0.0
 70
     0
  0
VERTEX
  8
1
 10
3.20596384704113
 20
6.67568566799164
 30
0.0
 70
     0
  0
VERTEX
  8
1
 10
3.16699116230011
 20
6.64198269248009
 30
0.0
 70
     0
  0
VERTEX
  8
1
 10
3.11251346617937
 20
6.59276240468025
 30
0.0
 70
     0
  0
VERTEX
  8
1
 10
3.06270046383142
 20
6.54533085823059
 30
0.0
 70
     0
  0
VERTEX
  8
1
 10
3.01741930544376
 20
6.49989697933197
 30
0.0
 70
     0
  0
VERTEX
  8
1
 10
2.97652767896652
 20
6.45666061043739
 30
0.0
 70
     0
  0
VERTEX
  8
1
 10
2.93987929821014
 20
6.41582235097885
 30
0.0
 70
     0
  0
VERTEX
  8
1
 10
2.89734313488007
 20
6.36542571783066
 30
0.0
 70
     0
  0
VERTEX
  8
1
 10
2.86168336868286
 20
6.32005807459354
 30
0.0
 70
     0
  0
VERTEX
  8
1
 10
2.8261541813612
 20
6.27104633450508
 30
0.0
 70
     0
  0
VERTEX
  8
1
 10
2.79566533863544
 20
6.22450385987759
 30
0.0
 70
     0
  0
VERTEX
  8
1
 10
2.76744875758886
 20
6.17390094995499
 30
0.0
 70
     0
  0
VERTEX
  8
1
 10
2.5360224917531
 20
5.65761100053787
 30
0.0
 42
-0.000043633237725
 70
     0
  0
VERTEX
  8
1
 10
1.69393616616726
 20
5.96410498023033
 30
0.0
 70
     0
  0
VERTEX
  8
1
 10
1.84851789921522
 20
6.50836454629898
 30
0.0
 70
     0
  0
VERTEX
  8
1
 10
1.85942956209183
 20
6.56526589989662
 30
0.0
 70
     0
  0
VERTEX
  8
1
 10
1.86599086672068
 20
6.62051703929901
 30
0.0
 70
     0
  0
VERTEX
  8
1
 10
1.87027820646763
 20
6.68090125322342
 30
0.0
 70
     0
  0
VERTEX
  8
1
 10
1.87212277501822
 20
6.73857548236847
 30
0.0
 70
     0
  0
VERTEX
  8
1
 10
1.87193277329206
 20
6.80452424883842
 30
0.0
 70
     0
  0
VERTEX
  8
1
 10
1.87010883241892
 20
6.85936510562897
 30
0.0
 70
     0
  0
VERTEX
  8
1
 10
1.86657544374466
 20
6.91876978874206
 30
0.0
 70
     0
  0
VERTEX
  8
1
 10
1.86109264492989
 20
6.98268152475357
 30
0.0
 70
     0
  0
VERTEX
  8
1
 10
1.85342217683792
 20
7.05103521347046
 30
0.0
 70
     0
  0
VERTEX
  8
1
 10
1.8433282405138
 20
7.12375818490982
 30
0.0
 70
     0
  0
VERTEX
  8
1
 10
1.83513697087765
 20
7.17462641596794
 30
0.0
 70
     0
  0
VERTEX
  8
1
 10
1.82569630742073
 20
7.22737346887588
 30
0.0
 70
     0
  0
VERTEX
  8
1
 10
1.81493812203407
 20
7.28196906447411
 30
0.0
 70
     0
  0
VERTEX
  8
1
 10
1.80279523283243
 20
7.33838368058205
 30
0.0
 70
     0
  0
VERTEX
  8
1
 10
1.78920083642006
 20
7.39658401012421
 30
0.0
 70
     0
  0
VERTEX
  8
1
 10
1.77408907562494
 20
7.45653750300407
 30
0.0
 70
     0
  0
VERTEX
  8
1
 10
1.75739522874355
 20
7.51820782423019
 30
0.0
 70
     0
  0
VERTEX
  8
1
 10
1.73905419558287
 20
7.58155636787415
 30
0.0
 70
     0
  0
VERTEX
  8
1
 10
1.71900314688683
 20
7.64654452800751
 30
0.0
 70
     0
  0
VERTEX
  8
1
 10
1.69717906415462
 20
7.71313142776489
 30
0.0
 70
     0
  0
VERTEX
  8
1
 10
1.65691743344069
 20
7.82653066515923
 30
0.0
 70
     0
  0
VERTEX
  8
1
 10
1.11983743458986
 20
7.92123100757599
 30
0.0
 70
     0
  0
VERTEX
  8
1
 10
1.04321923851967
 20
7.82844128012657
 30
0.0
 70
     0
  0
VERTEX
  8
1
 10
0.999937356263399
 20
7.77333472371101
 30
0.0
 70
     0
  0
VERTEX
  8
1
 10
0.958868028968573
 20
7.71912367343903
 30
0.0
 70
     0
  0
VERTEX
  8
1
 10
0.919966594874859
 20
7.6658686876297
 30
0.0
 70
     0
  0
VERTEX
  8
1
 10
0.88318687826395
 20
7.61362653970718
 30
0.0
 70
     0
  0
VERTEX
  8
1
 10
0.848481378704309
 20
7.56245778799057
 30
0.0
 70
     0
  0
VERTEX
  8
1
 10
0.815800892561674
 20
7.51241617798805
 30
0.0
 70
     0
  0
VERTEX
  8
1
 10
0.78509536460042
 20
7.4635569691658
 30
0.0
 70
     0
  0
VERTEX
  8
1
 10
0.756313083693385
 20
7.41593239307404
 30
0.0
 70
     0
  0
VERTEX
  8
1
 10
0.729401676356792
 20
7.36959695219994
 30
0.0
 70
     0
  0
VERTEX
  8
1
 10
0.704306166991591
 20
7.3245975792408
 30
0.0
 70
     0
  0
VERTEX
  8
1
 10
0.669948215410113
 20
7.25971236824989
 30
0.0
 70
     0
  0
VERTEX
  8
1
 10
0.639361958950758
 20
7.19810336232185
 30
0.0
 70
     0
  0
VERTEX
  8
1
 10
0.612350914254785
 20
7.1399227142334
 30
0.0
 70
     0
  0
VERTEX
  8
1
 10
0.588712920621037
 20
7.08530819416046
 30
0.0
 70
     0
  0
VERTEX
  8
1
 10
0.568242269009352
 20
7.03439908623695
 30
0.0
 70
     0
  0
VERTEX
  8
1
 10
0.54550810828805
 20
6.97249258756638
 30
0.0
 70
     0
  0
VERTEX
  8
1
 10
0.527515663951635
 20
6.91766535639763
 30
0.0
 70
     0
  0
VERTEX
  8
1
 10
0.51089207418263
 20
6.85945670008659
 30
0.0
 70
     0
  0
VERTEX
  8
1
 10
0.498160586506128
 20
6.80529333949089
 30
0.0
 70
     0
  0
VERTEX
  8
1
 10
0.488952741399407
 20
6.74809222221374
 30
0.0
 70
     0
  0
VERTEX
  8
1
 10
0.448064379394054
 20
6.18378596007824
 30
0.0
 42
-0.000043633231908
 70
     0
  0
VERTEX
  8
1
 10
-0.448064947128296
 20
6.18378558158874
 30
0.0
 70
     0
  0
VERTEX
  8
1
 10
-0.48895373493433
 20
6.74809222221374
 30
0.0
 70
     0
  0
VERTEX
  8
1
 10
-0.498161438107491
 20
6.80529409646988
 30
0.0
 70
     0
  0
VERTEX
  8
1
 10
-0.510892973095179
 20
6.85945821404457
 30
0.0
 70
     0
  0
VERTEX
  8
1
 10
-0.527516657486558
 20
6.91766611337662
 30
0.0
 70
     0
  0
VERTEX
  8
1
 10
-0.545509196445346
 20
6.97249334454536
 30
0.0
 70
     0
  0
VERTEX
  8
1
 10
-0.568243215233088
 20
7.03439908623695
 30
0.0
 70
     0
  0
VERTEX
  8
1
 10
-0.588714150711894
 20
7.08530970811844
 30
0.0
 70
     0
  0
VERTEX
  8
1
 10
-0.612351955100894
 20
7.13992347121239
 30
0.0
 70
     0
  0
VERTEX
  8
1
 10
-0.639363141730428
 20
7.19810487627983
 30
0.0
 70
     0
  0
VERTEX
  8
1
 10
-0.66994944550097
 20
7.25971312522888
 30
0.0
 70
     0
  0
VERTEX
  8
1
 10
-0.704307397082448
 20
7.32459833621979
 30
0.0
 70
     0
  0
VERTEX
  8
1
 10
-0.729402622580528
 20
7.36959695219994
 30
0.0
 70
     0
  0
VERTEX
  8
1
 10
-0.756314503028989
 20
7.415934664011
 30
0.0
 70
     0
  0
VERTEX
  8
1
 10
-0.785096642002463
 20
7.46355772614479
 30
0.0
 70
     0
  0
VERTEX
  8
1
 10
-0.815802122652531
 20
7.51241617798805
 30
0.0
 70
     0
  0
VERTEX
  8
1
 10
-0.848482514172792
 20
7.56245778799057
 30
0.0
 70
     0
  0
VERTEX
  8
1
 10
-0.883188108354807
 20
7.61362729668617
 30
0.0
 70
     0
  0
VERTEX
  8
1
 10
-0.919967730343342
 20
7.6658686876297
 30
0.0
 70
     0
  0
VERTEX
  8
1
 10
-0.958869069814682
 20
7.71912367343903
 30
0.0
 70
     0
  0
VERTEX
  8
1
 10
-0.999938207864761
 20
7.77333396673203
 30
0.0
 70
     0
  0
VERTEX
  8
1
 10
-1.04322046861053
 20
7.82844203710556
 30
0.0
 70
     0
  0
VERTEX
  8
1
 10
-1.11983866468072
 20
7.92123176455498
 30
0.0
 70
     0
  0
VERTEX
  8
1
 10
-1.65691819041967
 20
7.82652839422226
 30
0.0
 70
     0
  0
VERTEX
  8
1
 10
-1.69717982113361
 20
7.71312991380691
 30
0.0
 70
     0
  0
VERTEX
  8
1
 10
-1.71900409311056
 20
7.64654377102852
 30
0.0
 70
     0
  0
VERTEX
  8
1
 10
-1.7390551418066
 20
7.58155485391617
 30
0.0
 70
     0
  0
VERTEX
  8
1
 10
-1.75739636421204
 20
7.51820631027222
 30
0.0
 70
     0
  0
VERTEX
  8
1
 10
-1.77409002184868
 20
7.45653523206711
 30
0.0
 70
     0
  0
VERTEX
  8
1
 10
-1.78920178264379
 20
7.39658249616623
 30
0.0
 70
     0
  0
VERTEX
  8
1
 10
-1.80279617905617
 20
7.33838216662407
 30
0.0
 70
     0
  0
VERTEX
  8
1
 10
-1.81493887901306
 20
7.28196679353714
 30
0.0
 70
     0
  0
VERTEX
  8
1
 10
-1.82569725364447
 20
7.22737119793892
 30
0.0
 70
     0
  0
VERTEX
  8
1
 10
-1.83513772785664
 20
7.17462490200996
 30
0.0
 70
     0
  0
VERTEX
  8
1
 10
-1.84332918673754
 20
7.12375591397285
 30
0.0
 70
     0
  0
VERTEX
  8
1
 10
-1.85342312306166
 20
7.05103294253349
 30
0.0
 70
     0
  0
VERTEX
  8
1
 10
-1.86109340190887
 20
6.98268001079559
 30
0.0
 70
     0
  0
VERTEX
  8
1
 10
-1.86657657921314
 20
6.91876903176308
 30
0.0
 70
     0
  0
VERTEX
  8
1
 10
-1.87010977864265
 20
6.85936434864998
 30
0.0
 70
     0
  0
VERTEX
  8
1
 10
-1.8719337195158
 20
6.80452273488045
 30
0.0
 70
     0
  0
VERTEX
  8
1
 10
-1.87212372124195
 20
6.73857472538948
 30
0.0
 70
     0
  0
VERTEX
  8
1
 10
-1.87027877420187
 20
6.68089898228645
 30
0.0
 70
     0
  0
VERTEX
  8
1
 10
-1.86599181294441
 20
6.62051703929901
 30
0.0
 70
     0
  0
VERTEX
  8
1
 10
-1.85943031907082
 20
6.56526514291763
 30
0.0
 70
     0
  0
VERTEX
  8
1
 10
-1.84851865619421
 20
6.508363032341
 30
0.0
 70
     0
  0
VERTEX
  8
1
 10
-1.693937112391
 20
5.96410460174084
 30
0.0
 42
-0.000043633226709
 70
     0
  0
VERTEX
  8
1
 10
-2.53602305948734
 20
5.65761024355888
 30
0.0
 70
     0
  0
VERTEX
  8
1
 10
-2.76745083928108
 20
6.173900192976
 30
0.0
 70
     0
  0
VERTEX
  8
1
 10
-2.79566742032766
 20
6.2245031028986
 30
0.0
 70
     0
  0
VERTEX
  8
1
 10
-2.82615626305342
 20
6.27104595601559
 30
0.0
 70
     0
  0
VERTEX
  8
1
 10
-2.86168582886457
 20
6.32005845308304
 30
0.0
 70
     0
  0
VERTEX
  8
1
 10
-2.89734540581703
 20
6.36542496085167
 30
0.0
 70
     0
  0
VERTEX
  8
1
 10
-2.93988156914711
 20
6.41582235097885
 30
0.0
 70
     0
  0
VERTEX
  8
1
 10
-2.97653032839298
 20
6.45666061043739
 30
0.0
 70
     0
  0
VERTEX
  8
1
 10
-3.01742138713598
 20
6.49989622235298
 30
0.0
 70
     0
  0
VERTEX
  8
1
 10
-3.06270292401314
 20
6.54533085823059
 30
0.0
 70
     0
  0
VERTEX
  8
1
 10
-3.11251592636108
 20
6.59276240468025
 30
0.0
 70
     0
  0
VERTEX
  8
1
 10
-3.16699381172657
 20
6.64198269248009
 30
0.0
 70
     0
  0
VERTEX
  8
1
 10
-3.2059661179781
 20
6.67568491101265
 30
0.0
 70
     0
  0
VERTEX
  8
1
 10
-3.24710338413715
 20
6.71002299189568
 30
0.0
 70
     0
  0
VERTEX
  8
1
 10
-3.29043778181076
 20
6.74493032097816
 30
0.0
 70
     0
  0
VERTEX
  8
1
 10
-3.33600223958492
 20
6.7803410410881
 30
0.0
 70
     0
  0
VERTEX
  8
1
 10
-3.38382703661919
 20
6.81618702411652
 30
0.0
 70
     0
  0
VERTEX
  8
1
 10
-3.43394055962563
 20
6.85240089893341
 30
0.0
 70
     0
  0
VERTEX
  8
1
 10
-3.48636968135834
 20
6.88891226649284
 30
0.0
 70
     0
  0
VERTEX
  8
1
 10
-3.54113938212395
 20
6.92565072774887
 30
0.0
 70
     0
  0
VERTEX
  8
1
 10
-3.59827274978161
 20
6.96254588365555
 30
0.0
 70
     0
  0
VERTEX
  8
1
 10
-3.65779287219048
 20
6.99952657818794
 30
0.0
 70
     0
  0
VERTEX
  8
1
 10
-3.76152624487877
 20
7.06051561832428
 30
0.0
 70
     0
  0
VERTEX
  8
1
 10
-4.23382587432861
 20
6.78783134818077
 30
0.0
 70
     0
  0
VERTEX
  8
1
 10
-4.23287435173988
 20
6.66750121116638
 30
0.0
 70
     0
  0
VERTEX
  8
1
 10
-4.23060871362686
 20
6.59746627211571
 30
0.0
 70
     0
  0
VERTEX
  8
1
 10
-4.22722312510014
 20
6.52953876256943
 30
0.0
 70
     0
  0
VERTEX
  8
1
 10
-4.22279177010059
 20
6.46373836398125
 30
0.0
 70
     0
  0
VERTEX
  8
1
 10
-4.21738580465317
 20
6.40007643103599
 30
0.0
 70
     0
  0
VERTEX
  8
1
 10
-4.21108130514622
 20
6.3385711312294
 30
0.0
 70
     0
  0
VERTEX
  8
1
 10
-4.20395018458366
 20
6.27923116981983
 30
0.0
 70
     0
  0
VERTEX
  8
1
 10
-4.19606549143791
 20
6.22206449508667
 30
0.0
 70
     0
  0
VERTEX
  8
1
 10
-4.18750178813934
 20
6.16708208322525
 30
0.0
 70
     0
  0
VERTEX
  8
1
 10
-4.17833325862884
 20
6.11428809762001
 30
0.0
 70
     0
  0
VERTEX
  8
1
 10
-4.16863219439983
 20
6.0636859446764
 30
0.0
 70
     0
  0
VERTEX
  8
1
 10
-4.1532447040081
 20
5.99189594984055
 30
0.0
 70
     0
  0
VERTEX
  8
1
 10
-4.13707411885262
 20
5.92504107952118
 30
0.0
 70
     0
  0
VERTEX
  8
1
 10
-4.12036797106266
 20
5.86310922205448
 30
0.0
 70
     0
  0
VERTEX
  8
1
 10
-4.10337000787258
 20
5.80607842504978
 30
0.0
 70
     0
  0
VERTEX
  8
1
 10
-4.08632738292217
 20
5.75392105877399
 30
0.0
 70
     0
  0
VERTEX
  8
1
 10
-4.06395032703877
 20
5.69188473820686
 30
0.0
 70
     0
  0
VERTEX
  8
1
 10
-4.0424907296896
 20
5.6383190125227
 30
0.0
 70
     0
  0
VERTEX
  8
1
 10
-4.01780980825424
 20
5.58304402828217
 30
0.0
 70
     0
  0
VERTEX
  8
1
 10
-3.99274699091911
 20
5.53336803913116
 30
0.0
 70
     0
  0
VERTEX
  8
1
 10
-3.96303215920925
 20
5.48363073468208
 30
0.0
 70
     0
  0
VERTEX
  8
1
 10
-3.63162486553192
 20
5.02506421804428
 30
0.0
 42
-0.000043633227229
 70
     0
  0
VERTEX
  8
1
 10
-4.31809958815575
 20
4.44904332756996
 30
0.0
 70
     0
  0
VERTEX
  8
1
 10
-4.71215219199657
 20
4.85504484474659
 30
0.0
 70
     0
  0
VERTEX
  8
1
 10
-4.75597446262836
 20
4.89294526875019
 30
0.0
 70
     0
  0
VERTEX
  8
1
 10
-4.80054311454296
 20
4.92625385820866
 30
0.0
 70
     0
  0
VERTEX
  8
1
 10
-4.85069335103035
 20
4.96015856862068
 30
0.0
 70
     0
  0
VERTEX
  8
1
 10
-4.89971833825111
 20
4.99059328734875
 30
0.0
 70
     0
  0
VERTEX
  8
1
 10
-4.95692626833916
 20
5.0234026491642
 30
0.0
 70
     0
  0
VERTEX
  8
1
 10
-5.0053324252367
 20
5.04924364089966
 30
0.0
 70
     0
  0
VERTEX
  8
1
 10
-5.05854539871216
 20
5.07588627338409
 30
0.0
 70
     0
  0
VERTEX
  8
1
 10
-5.11663520932198
 20
5.10309323370457
 30
0.0
 70
     0
  0
VERTEX
  8
1
 10
-5.17966657876968
 20
5.13062758743763
 30
0.0
 70
     0
  0
VERTEX
  8
1
 10
-5.24769400954246
 20
5.15824747979641
 30
0.0
 70
     0
  0
VERTEX
  8
1
 10
-5.29584241509438
 20
5.17658756673336
 30
0.0
 70
     0
  0
VERTEX
  8
1
 10
-5.34624321162701
 20
5.19478572010994
 30
0.0
 70
     0
  0
VERTEX
  8
1
 10
-5.39890321195126
 20
5.21276662051678
 30
0.0
 70
     0
  0
VERTEX
  8
1
 10
-5.45383112132549
 20
5.23045721948147
 30
0.0
 70
     0
  0
VERTEX
  8
1
 10
-5.51103186011314
 20
5.2477848470211
 30
0.0
 70
     0
  0
VERTEX
  8
1
 10
-5.57050845623016
 20
5.26467418372631
 30
0.0
 70
     0
  0
VERTEX
  8
1
 10
-5.63226355910301
 20
5.28105218112469
 30
0.0
 70
     0
  0
VERTEX
  8
1
 10
-5.69629565477371
 20
5.29684238433838
 30
0.0
 70
     0
  0
VERTEX
  8
1
 10
-5.7626024723053
 20
5.31197212338448
 30
0.0
 70
     0
  0
VERTEX
  8
1
 10
-5.83118098378181
 20
5.32636532187462
 30
0.0
 70
     0
  0
VERTEX
  8
1
 10
-5.94951799511909
 20
5.3481973528862
 30
0.0
 70
     0
  0
VERTEX
  8
1
 10
-6.3000708013773
 20
4.93042254149914
 30
0.0
 70
     0
  0
VERTEX
  8
1
 10
-6.25802175402641
 20
4.81767430603504
 30
0.0
 70
     0
  0
VERTEX
  8
1
 10
-6.23193928599358
 20
4.7526380777359
 30
0.0
 70
     0
  0
VERTEX
  8
1
 10
-6.20552526116371
 20
4.68996513783932
 30
0.0
 70
     0
  0
VERTEX
  8
1
 10
-6.17885575592518
 20
4.6296479165554
 30
0.0
 70
     0
  0
VERTEX
  8
1
 10
-6.1520026832819
 20
4.57167468070984
 30
0.0
 70
     0
  0
VERTEX
  8
1
 10
-6.12504211962223
 20
4.51603483259678
 30
0.0
 70
     0
  0
VERTEX
  8
1
 10
-6.09804522097111
 20
4.46271171867847
 30
0.0
 70
     0
  0
VERTEX
  8
1
 10
-6.07108427882195
 20
4.41169019937515
 30
0.0
 70
     0
  0
VERTEX
  8
1
 10
-6.04423196315765
 20
4.36295210719109
 30
0.0
 70
     0
  0
VERTEX
  8
1
 10
-6.01755943000317
 20
4.31647813916206
 30
0.0
 70
     0
  0
VERTEX
  8
1
 10
-5.99113632142544
 20
4.27224520742893
 30
0.0
 70
     0
  0
VERTEX
  8
1
 10
-5.95212313830852
 20
4.21004802882671
 30
0.0
 70
     0
  0
VERTEX
  8
1
 10
-5.91406223475933
 20
4.15275531709194
 30
0.0
 70
     0
  0
VERTEX
  8
1
 10
-5.87718146145344
 20
4.10027244985104
 30
0.0
 70
     0
  0
VERTEX
  8
1
 10
-5.84170299172401
 20
4.05249420702457
 30
0.0
 70
     0
  0
VERTEX
  8
1
 10
-5.80784937739372
 20
4.0093112051487
 30
0.0
 70
     0
  0
VERTEX
  8
1
 10
-5.76560427248478
 20
3.95867006778717
 30
0.0
 70
     0
  0
VERTEX
  8
1
 10
-5.72711832523346
 20
3.91567403972149
 30
0.0
 70
     0
  0
VERTEX
  8
1
 10
-5.6850208312273
 20
3.87217348515987
 30
0.0
 70
     0
  0
VERTEX
  8
1
 10
-5.64447930753231
 20
3.83406602740288
 30
0.0
 70
     0
  0
VERTEX
  8
1
 10
-5.5995450347662
 20
3.7974906951189
 30
0.0
 70
     0
  0
VERTEX
  8
1
 10
-5.13128540217876
 20
3.47992741167545
 30
0.0
 42
-0.000043633206666
 70
     0
  0
VERTEX
  8
1
 10
-5.57934997081757
 20
2.70385703444481
 30
0.0
 70
     0
  0
VERTEX
  8
1
 10
-6.08849895894527
 20
2.95059982389212
 30
0.0
 70
     0
  0
VERTEX
  8
1
 10
-6.1426407456398
 20
2.97122636586428
 30
0.0
 70
     0
  0
VERTEX
  8
1
 10
-6.19591427743435
 20
2.98728245794773
 30
0.0
 70
     0
  0
VERTEX
  8
1
 10
-6.25463616549969
 20
3.0019903704524
 30
0.0
 70
     0
  0
VERTEX
  8
1
 10
-6.31111361086369
 20
3.01382176280022
 30
0.0
 70
     0
  0
VERTEX
  8
1
 10
-6.37609382271767
 20
3.02508655637503
 30
0.0
 70
     0
  0
VERTEX
  8
1
 10
-6.43041841983795
 20
3.03281341940165
 30
0.0
 70
     0
  0
VERTEX
  8
1
 10
-6.48953393697739
 20
3.03964931815863
 30
0.0
 70
     0
  0
VERTEX
  8
1
 10
-6.55342674851418
 20
3.04534785598516
 30
0.0
 70
     0
  0
VERTEX
  8
1
 10
-6.62207414507866
 20
3.04966339319944
 30
0.0
 70
     0
  0
VERTEX
  8
1
 10
-6.6954450905323
 20
3.05235085785389
 30
0.0
 70
     0
  0
VERTEX
  8
1
 10
-6.74696280956268
 20
3.05311729907989
 30
0.0
 70
     0
  0
VERTEX
  8
1
 10
-6.80054783821106
 20
3.05297971814871
 30
0.0
 70
     0
  0
VERTEX
  8
1
 10
-6.8561820089817
 20
3.05186525583267
 30
0.0
 70
     0
  0
VERTEX
  8
1
 10
-6.91384791135788
 20
3.0497029453516
 30
0.0
 70
     0
  0
VERTEX
  8
1
 10
-6.97352510690689
 20
3.04642163068056
 30
0.0
 70
     0
  0
VERTEX
  8
1
 10
-7.03519164323807
 20
3.04195034503937
 30
0.0
 70
     0
  0
VERTEX
  8
1
 10
-7.09882405400276
 20
3.03621906787157
 30
0.0
 70
     0
  0
VERTEX
  8
1
 10
-7.16439508795738
 20
3.02915683239698
 30
0.0
 70
     0
  0
VERTEX
  8
1
 10
-7.23187749385834
 20
3.02069551050663
 30
0.0
 70
     0
  0
VERTEX
  8
1
 10
-7.30124326348305
 20
3.0107656493783
 30
0.0
 70
     0
  0
VERTEX
  8
1
 10
-7.41991031765938
 20
2.99080751985312
 30
0.0
 70
     0
  0
VERTEX
  8
1
 10
-7.60643599629402
 20
2.47833141982555
 30
0.0
 70
     0
  0
VERTEX
  8
1
 10
-7.52835966944695
 20
2.38676440268755
 30
0.0
 70
     0
  0
VERTEX
  8
1
 10
-7.48160637617111
 20
2.3345710799098
 30
0.0
 70
     0
  0
VERTEX
  8
1
 10
-7.43534966111183
 20
2.2847117125988
 30
0.0
 70
     0
  0
VERTEX
  8
1
 10
-7.38965916633606
 20
2.23715393990278
 30
0.0
 70
     0
  0
VERTEX
  8
1
 10
-7.34459772109985
 20
2.1918610483408
 30
0.0
 70
     0
  0
VERTEX
  8
1
 10
-7.3002326965332
 20
2.14879745990038
 30
0.0
 70
     0
  0
VERTEX
  8
1
 10
-7.25662692189217
 20
2.10792400091887
 30
0.0
 70
     0
  0
VERTEX
  8
1
 10
-7.21384171247482
 20
2.06920055150986
 30
0.0
 70
     0
  0
VERTEX
  8
1
 10
-7.17193838357925
 20
2.03258566707373
 30
0.0
 70
     0
  0
VERTEX
  8
1
 10
-7.13097976446152
 20
1.99803695678711
 30
0.0
 70
     0
  0
VERTEX
  8
1
 10
-7.09102187156677
 20
1.96550862342119
 30
0.0
 70
     0
  0
VERTEX
  8
1
 10
-7.0330887556076
 20
1.92040554434061
 30
0.0
 70
     0
  0
VERTEX
  8
1
 10
-6.97772785425186
 20
1.87958583086729
 30
0.0
 70
     0
  0
VERTEX
  8
1
 10
-6.92512084245682
 20
1.84288219064474
 30
0.0
 70
     0
  0
VERTEX
  8
1
 10
-6.87544106841087
 20
1.81011957228184
 30
0.0
 70
     0
  0
VERTEX
  8
1
 10
-6.82885960936546
 20
1.78111951798201
 30
0.0
 70
     0
  0
VERTEX
  8
1
 10
-6.77184168100357
 20
1.74798087030649
 30
0.0
 70
     0
  0
VERTEX
  8
1
 10
-6.72097117900848
 20
1.72074098140001
 30
0.0
 70
     0
  0
VERTEX
  8
1
 10
-6.66653454899788
 20
1.69426242411137
 30
0.0
 70
     0
  0
VERTEX
  8
1
 10
-6.6154036462307
 20
1.67231892794371
 30
0.0
 70
     0
  0
VERTEX
  8
1
 10
-6.56067028045654
 20
1.65331799834967
 30
0.0
 70
     0
  0
VERTEX
  8
1
 10
-6.01203688979149
 20
1.51506004408002
 30
0.0
 42
-0.000043633214319
 70
     0
  0
VERTEX
  8
1
 10
-6.16764830350876
 20
0.632544984668493
 30
0.0
 70
     0
  0
VERTEX
  8
1
 10
-6.73048337697983
 20
0.690269269049168
 30
0.0
 70
     0
  0
VERTEX
  8
1
 10
-6.78841497898102
 20
0.691134401410818
 30
0.0
 70
     0
  0
VERTEX
  8
1
 10
-6.8439666390419
 20
0.688001738488674
 30
0.0
 70
     0
  0
VERTEX
  8
1
 10
-6.90417750477791
 20
0.681738399714231
 30
0.0
 70
     0
  0
VERTEX
  8
1
 10
-6.96129611134529
 20
0.673539891466498
 30
0.0
 70
     0
  0
VERTEX
  8
1
 10
-7.02620933055878
 20
0.661901055648923
 30
0.0
 70
     0
  0
VERTEX
  8
1
 10
-7.07990109324455
 20
0.650581664964557
 30
0.0
 70
     0
  0
VERTEX
  8
1
 10
-7.13778954744339
 20
0.636786479875445
 30
0.0
 70
     0
  0
VERTEX
  8
1
 10
-7.19977779984474
 20
0.620288832485676
 30
0.0
 70
     0
  0
VERTEX
  8
1
 10
-7.26576138734817
 20
0.600865319371223
 30
0.0
 70
     0
  0
VERTEX
  8
1
 10
-7.33562676310539
 20
0.578296558558941
 30
0.0
 70
     0
  0
VERTEX
  8
1
 10
-7.38429975509644
 20
0.561396624147892
 30
0.0
 70
     0
  0
VERTEX
  8
1
 10
-7.43460630774498
 20
0.542940009757876
 30
0.0
 70
     0
  0
VERTEX
  8
1
 10
-7.48650403022766
 20
0.522864785045385
 30
0.0
 70
     0
  0
VERTEX
  8
1
 10
-7.53995280265808
 20
0.501110107824206
 30
0.0
 70
     0
  0
VERTEX
  8
1
 10
-7.5949087202549
 20
0.477615798264742
 30
0.0
 70
     0
  0
VERTEX
  8
1
 10
-7.65132712125778
 20
0.452322953939438
 30
0.0
 70
     0
  0
VERTEX
  8
1
 10
-7.70916182994842
 20
0.425173665955663
 30
0.0
 70
     0
  0
VERTEX
  8
1
 10
-7.76836288571358
 20
0.396111042611301
 30
0.0
 70
     0
  0
VERTEX
  8
1
 10
-7.82888184189796
 20
0.36507946960628
 30
0.0
 70
     0
  0
VERTEX
  8
1
 10
-7.89066798090935
 20
0.332024089619517
 30
0.0
 70
     0
  0
VERTEX
  8
1
 10
-7.99535287618637
 20
0.272682779841125
 30
0.0
 70
     0
  0
VERTEX
  8
1
 10
-7.99535136222839
 20
-0.272682330384851
 30
0.0
 70
     0
  0
VERTEX
  8
1
 10
-7.89066646695137
 20
-0.33202368747443
 30
0.0
 70
     0
  0
VERTEX
  8
1
 10
-7.82888184189796
 20
-0.365078972838819
 30
0.0
 70
     0
  0
VERTEX
  8
1
 10
-7.76836212873459
 20
-0.396110711432993
 30
0.0
 70
     0
  0
VERTEX
  8
1
 10
-7.70916107296944
 20
-0.425173429399729
 30
0.0
 70
     0
  0
VERTEX
  8
1
 10
-7.6513256072998
 20
-0.452322575449944
 30
0.0
 70
     0
  0
VERTEX
  8
1
 10
-7.59490796327591
 20
-0.477615514397621
 30
0.0
 70
     0
  0
VERTEX
  8
1
 10
-7.53995204567909
 20
-0.501109871268272
 30
0.0
 70
     0
  0
VERTEX
  8
1
 10
-7.48650251626968
 20
-0.522864548489451
 30
0.0
 70
     0
  0
VERTEX
  8
1
 10
-7.43460403680801
 20
-0.542939820513129
 30
0.0
 70
     0
  0
VERTEX
  8
1
 10
-7.38429899811745
 20
-0.561396245658398
 30
0.0
 70
     0
  0
VERTEX
  8
1
 10
-7.33562524914742
 20
-0.578296369314194
 30
0.0
 70
     0
  0
VERTEX
  8
1
 10
-7.2657598733902
 20
-0.600865130126476
 30
0.0
 70
     0
  0
VERTEX
  8
1
 10
-7.19977628588676
 20
-0.620288548618555
 30
0.0
 70
     0
  0
VERTEX
  8
1
 10
-7.1377887904644
 20
-0.636786290630698
 30
0.0
 70
     0
  0
VERTEX
  8
1
 10
-7.07989957928658
 20
-0.65058147571981
 30
0.0
 70
     0
  0
VERTEX
  8
1
 10
-7.02620857357979
 20
-0.661900771781802
 30
0.0
 70
     0
  0
VERTEX
  8
1
 10
-6.9612953543663
 20
-0.673539654910564
 30
0.0
 70
     0
  0
VERTEX
  8
1
 10
-6.90417599081993
 20
-0.681738068535924
 30
0.0
 70
     0
  0
VERTEX
  8
1
 10
-6.84396588206291
 20
-0.688001407310367
 30
0.0
 70
     0
  0
VERTEX
  8
1
 10
-6.78841422200203
 20
-0.691134022921324
 30
0.0
 70
     0
  0
VERTEX
  8
1
 10
-6.73048262000084
 20
-0.690269032493234
 30
0.0
 70
     0
  0
VERTEX
  8
1
 10
-6.16764830350876
 20
-0.632545457780361
 30
0.0
 42
-0.000043633214891
 70
     0
  0
VERTEX
  8
1
 10
-6.01203688979149
 20
-1.51506051719189
 30
0.0
 70
     0
  0
VERTEX
  8
1
 10
-6.56067179441452
 20
-1.65331989079714
 30
0.0
 70
     0
  0
VERTEX
  8
1
 10
-6.61540591716766
 20
-1.67232063114643
 30
0.0
 70
     0
  0
VERTEX
  8
1
 10
-6.66653530597687
 20
-1.69426412731409
 30
0.0
 70
     0
  0
VERTEX
  8
1
 10
-6.72097269296646
 20
-1.72074306309223
 30
0.0
 70
     0
  0
VERTEX
  8
1
 10
-6.77184319496155
 20
-1.74798295199871
 30
0.0
 70
     0
  0
VERTEX
  8
1
 10
-6.82886036634445
 20
-1.78112141042948
 30
0.0
 70
     0
  0
VERTEX
  8
1
 10
-6.87544333934784
 20
-1.8101218432188
 30
0.0
 70
     0
  0
VERTEX
  8
1
 10
-6.92512235641479
 20
-1.84288408309221
 30
0.0
 70
     0
  0
VERTEX
  8
1
 10
-6.97772936820984
 20
-1.87958810180426
 30
0.0
 70
     0
  0
VERTEX
  8
1
 10
-7.03309026956558
 20
-1.92040781527758
 30
0.0
 70
     0
  0
VERTEX
  8
1
 10
-7.09102338552475
 20
-1.96551089435816
 30
0.0
 70
     0
  0
VERTEX
  8
1
 10
-7.13098127841949
 20
-1.99803903847933
 30
0.0
 70
     0
  0
VERTEX
  8
1
 10
-7.17194141149521
 20
-2.03258831650019
 30
0.0
 70
     0
  0
VERTEX
  8
1
 10
-7.2138432264328
 20
-2.06920282244682
 30
0.0
 70
     0
  0
VERTEX
  8
1
 10
-7.25662767887115
 20
-2.10792627185583
 30
0.0
 70
     0
  0
VERTEX
  8
1
 10
-7.30023421049118
 20
-2.1487995415926
 30
0.0
 70
     0
  0
VERTEX
  8
1
 10
-7.34459923505783
 20
-2.19186350852251
 30
0.0
 70
     0
  0
VERTEX
  8
1
 10
-7.38966068029404
 20
-2.237156021595
 30
0.0
 70
     0
  0
VERTEX
  8
1
 10
-7.43535117506981
 20
-2.28471398353577
 30
0.0
 70
     0
  0
VERTEX
  8
1
 10
-7.48160789012909
 20
-2.33457259386778
 30
0.0
 70
     0
  0
VERTEX
  8
1
 10
-7.52836194038391
 20
-2.38676686286926
 30
0.0
 70
     0
  0
VERTEX
  8
1
 10
-7.606437510252
 20
-2.47833369076252
 30
0.0
 70
     0
  0
VERTEX
  8
1
 10
-7.41990956068039
 20
-2.9908086553216
 30
0.0
 70
     0
  0
VERTEX
  8
1
 10
-7.30124250650406
 20
-3.01076697409153
 30
0.0
 70
     0
  0
VERTEX
  8
1
 10
-7.23187900781631
 20
-3.02069721370935
 30
0.0
 70
     0
  0
VERTEX
  8
1
 10
-7.16439508795738
 20
-3.02915872484446
 30
0.0
 70
     0
  0
VERTEX
  8
1
 10
-7.09882481098175
 20
-3.03622058182955
 30
0.0
 70
     0
  0
VERTEX
  8
1
 10
-7.03519088625908
 20
-3.0419516697526
 30
0.0
 70
     0
  0
VERTEX
  8
1
 10
-6.97352510690689
 20
-3.04642333388329
 30
0.0
 70
     0
  0
VERTEX
  8
1
 10
-6.91384791135788
 20
-3.04970464855433
 30
0.0
 70
     0
  0
VERTEX
  8
1
 10
-6.85618049502373
 20
-3.0518665805459
 30
0.0
 70
     0
  0
VERTEX
  8
1
 10
-6.80054632425308
 20
-3.05298085361719
 30
0.0
 70
     0
  0
VERTEX
  8
1
 10
-6.74696280956268
 20
-3.05311881303787
 30
0.0
 70
     0
  0
VERTEX
  8
1
 10
-6.69544357657433
 20
-3.05235237181187
 30
0.0
 70
     0
  0
VERTEX
  8
1
 10
-6.62207338809967
 20
-3.04966490715742
 30
0.0
 70
     0
  0
VERTEX
  8
1
 10
-6.5534252345562
 20
-3.04534899145365
 30
0.0
 70
     0
  0
VERTEX
  8
1
 10
-6.48953393697739
 20
-3.03965102136135
 30
0.0
 70
     0
  0
VERTEX
  8
1
 10
-6.43041766285896
 20
-3.03281474411488
 30
0.0
 70
     0
  0
VERTEX
  8
1
 10
-6.37609306573868
 20
-3.025088070333
 30
0.0
 70
     0
  0
VERTEX
  8
1
 10
-6.31111398935318
 20
-3.01382346600294
 30
0.0
 70
     0
  0
VERTEX
  8
1
 10
-6.25463465154171
 20
-3.00199150592089
 30
0.0
 70
     0
  0
VERTEX
  8
1
 10
-6.19591352045536
 20
-2.98728397190571
 30
0.0
 70
     0
  0
VERTEX
  8
1
 10
-6.1426407456398
 20
-2.971228069067
 30
0.0
 70
     0
  0
VERTEX
  8
1
 10
-6.08849858045578
 20
-2.95060114860535
 30
0.0
 70
     0
  0
VERTEX
  8
1
 10
-5.57935072779655
 20
-2.70385854840279
 30
0.0
 42
-0.000043633223677
 70
     0
  0
VERTEX
  8
1
 10
-5.13128578066826
 20
-3.47992930412292
 30
0.0
 70
     0
  0
VERTEX
  8
1
 10
-5.59954654872417
 20
-3.79749372303486
 30
0.0
 70
     0
  0
VERTEX
  8
1
 10
-5.64448044300079
 20
-3.83406867682934
 30
0.0
 70
     0
  0
VERTEX
  8
1
 10
-5.68502196669579
 20
-3.87217613458633
 30
0.0
 70
     0
  0
VERTEX
  8
1
 10
-5.72712021768093
 20
-3.91567706763744
 30
0.0
 70
     0
  0
VERTEX
  8
1
 10
-5.76560578644276
 20
-3.95867233872414
 30
0.0
 70
     0
  0
VERTEX
  8
1
 10
-5.80785126984119
 20
-4.00931385457516
 30
0.0
 70
     0
  0
VERTEX
  8
1
 10
-5.84170526266098
 20
-4.05249723494053
 30
0.0
 70
     0
  0
VERTEX
  8
1
 10
-5.87718297541142
 20
-4.1002750992775
 30
0.0
 70
     0
  0
VERTEX
  8
1
 10
-5.9140645056963
 20
-4.1527583450079
 30
0.0
 70
     0
  0
VERTEX
  8
1
 10
-5.95212578773499
 20
-4.21005105674267
 30
0.0
 70
     0
  0
VERTEX
  8
1
 10
-5.9911385923624
 20
-4.27224823534489
 30
0.0
 70
     0
  0
VERTEX
  8
1
 10
-6.01756132245064
 20
-4.31648078858852
 30
0.0
 70
     0
  0
VERTEX
  8
1
 10
-6.04423461258411
 20
-4.36295589208603
 30
0.0
 70
     0
  0
VERTEX
  8
1
 10
-6.07108654975891
 20
-4.41169322729111
 30
0.0
 70
     0
  0
VERTEX
  8
1
 10
-6.09804711341858
 20
-4.46271474659443
 30
0.0
 70
     0
  0
VERTEX
  8
1
 10
-6.12504363358021
 20
-4.51603748202324
 30
0.0
 70
     0
  0
VERTEX
  8
1
 10
-6.15200495421886
 20
-4.57167808711529
 30
0.0
 70
     0
  0
VERTEX
  8
1
 10
-6.17885764837265
 20
-4.62965056598186
 30
0.0
 70
     0
  0
VERTEX
  8
1
 10
-6.20552715361118
 20
-4.68996778726578
 30
0.0
 70
     0
  0
VERTEX
  8
1
 10
-6.23194042146206
 20
-4.75264034867287
 30
0.0
 70
     0
  0
VERTEX
  8
1
 10
-6.25802402496338
 20
-4.81767771244049
 30
0.0
 70
     0
  0
VERTEX
  8
1
 10
-6.30007345080376
 20
-4.93042594790459
 30
0.0
 70
     0
  0
VERTEX
  8
1
 10
-5.94951837360859
 20
-5.34819848835468
 30
0.0
 70
     0
  0
VERTEX
  8
1
 10
-5.83118098378181
 20
-5.3263664573431
 30
0.0
 70
     0
  0
VERTEX
  8
1
 10
-5.76260360777378
 20
-5.31197439432144
 30
0.0
 70
     0
  0
VERTEX
  8
1
 10
-5.69629603326321
 20
-5.29684427678585
 30
0.0
 70
     0
  0
VERTEX
  8
1
 10
-5.632264316082
 20
-5.28105407357216
 30
0.0
 70
     0
  0
VERTEX
  8
1
 10
-5.57050845623016
 20
-5.26467569768429
 30
0.0
 70
     0
  0
VERTEX
  8
1
 10
-5.51103223860264
 20
-5.24778636097908
 30
0.0
 70
     0
  0
VERTEX
  8
1
 10
-5.45383149981499
 20
-5.23045949041843
 30
0.0
 70
     0
  0
VERTEX
  8
1
 10
-5.39890321195126
 20
-5.21276775598526
 30
0.0
 70
     0
  0
VERTEX
  8
1
 10
-5.34624245464802
 20
-5.19478647708893
 30
0.0
 70
     0
  0
VERTEX
  8
1
 10
-5.29584317207336
 20
-5.17658945918083
 30
0.0
 70
     0
  0
VERTEX
  8
1
 10
-5.24769363105297
 20
-5.15824861526489
 30
0.0
 70
     0
  0
VERTEX
  8
1
 10
-5.17966695725918
 20
-5.13062910139561
 30
0.0
 70
     0
  0
VERTEX
  8
1
 10
-5.11663520932198
 20
-5.10309474766254
 30
0.0
 70
     0
  0
VERTEX
  8
1
 10
-5.05854539871216
 20
-5.07588778734207
 30
0.0
 70
     0
  0
VERTEX
  8
1
 10
-5.0053324252367
 20
-5.04924515485764
 30
0.0
 70
     0
  0
VERTEX
  8
1
 10
-4.95692664682865
 20
-5.02340454161167
 30
0.0
 70
     0
  0
VERTEX
  8
1
 10
-4.8997190952301
 20
-4.99059480130672
 30
0.0
 70
     0
  0
VERTEX
  8
1
 10
-4.85069297254086
 20
-4.96015932559967
 30
0.0
 70
     0
  0
VERTEX
  8
1
 10
-4.80054349303246
 20
-4.92625537216663
 30
0.0
 70
     0
  0
VERTEX
  8
1
 10
-4.75597484111786
 20
-4.89294678270817
 30
0.0
 70
     0
  0
VERTEX
  8
1
 10
-4.71215257048607
 20
-4.85504673719406
 30
0.0
 70
     0
  0
VERTEX
  8
1
 10
-4.31810110211372
 20
-4.44904559850693
 30
0.0
 42
-0.000043633213484
 70
     0
  0
VERTEX
  8
1
 10
-3.6316260010004
 20
-5.02506611049175
 30
0.0
 70
     0
  0
VERTEX
  8
1
 10
-3.96303405165672
 20
-5.48363376259804
 30
0.0
 70
     0
  0
VERTEX
  8
1
 10
-3.99274888336658
 20
-5.53337106704712
 30
0.0
 70
     0
  0
VERTEX
  8
1
 10
-4.01781170070171
 20
-5.58304667770863
 30
0.0
 70
     0
  0
VERTEX
  8
1
 10
-4.04249300062656
 20
-5.63832241892815
 30
0.0
 70
     0
  0
VERTEX
  8
1
 10
-4.06395221948624
 20
-5.69188776612282
 30
0.0
 70
     0
  0
VERTEX
  8
1
 10
-4.08632927536964
 20
-5.75392370820045
 30
0.0
 70
     0
  0
VERTEX
  8
1
 10
-4.10337227880955
 20
-5.80608183145523
 30
0.0
 70
     0
  0
VERTEX
  8
1
 10
-4.12036948502064
 20
-5.86311224997044
 30
0.0
 70
     0
  0
VERTEX
  8
1
 10
-4.13707638978958
 20
-5.92504486441612
 30
0.0
 70
     0
  0
VERTEX
  8
1
 10
-4.15324697494507
 20
-5.99189973473549
 30
0.0
 70
     0
  0
VERTEX
  8
1
 10
-4.1686344653368
 20
-6.06368972957134
 30
0.0
 70
     0
  0
VERTEX
  8
1
 10
-4.17833515107632
 20
-6.11429150402546
 30
0.0
 70
     0
  0
VERTEX
  8
1
 10
-4.1875044375658
 20
-6.16708700358868
 30
0.0
 70
     0
  0
VERTEX
  8
1
 10
-4.19606776237488
 20
-6.22206865847111
 30
0.0
 70
     0
  0
VERTEX
  8
1
 10
-4.20395207703114
 20
-6.27923457622528
 30
0.0
 70
     0
  0
VERTEX
  8
1
 10
-4.21108319759369
 20
-6.33857415914536
 30
0.0
 70
     0
  0
VERTEX
  8
1
 10
-4.21738807559013
 20
-6.40008097290993
 30
0.0
 70
     0
  0
VERTEX
  8
1
 10
-4.22279366254806
 20
-6.46374214887619
 30
0.0
 70
     0
  0
VERTEX
  8
1
 10
-4.22722501754761
 20
-6.52954254746437
 30
0.0
 70
     0
  0
VERTEX
  8
1
 10
-4.23061060607433
 20
-6.59746930003166
 30
0.0
 70
     0
  0
VERTEX
  8
1
 10
-4.23287662267685
 20
-6.66750575304031
 30
0.0
 70
     0
  0
VERTEX
  8
1
 10
-4.23382852375507
 20
-6.7878358900547
 30
0.0
 70
     0
  0
VERTEX
  8
1
 10
-3.76152738034725
 20
-7.06051788926125
 30
0.0
 70
     0
  0
VERTEX
  8
1
 10
-3.65779362916946
 20
-6.99952809214592
 30
0.0
 70
     0
  0
VERTEX
  8
1
 10
-3.59827464222908
 20
-6.9625489115715
 30
0.0
 70
     0
  0
VERTEX
  8
1
 10
-3.54114051759243
 20
-6.92565375566483
 30
0.0
 70
     0
  0
VERTEX
  8
1
 10
-3.48637081682682
 20
-6.88891453742981
 30
0.0
 70
     0
  0
VERTEX
  8
1
 10
-3.43394131660461
 20
-6.85240241289139
 30
0.0
 70
     0
  0
VERTEX
  8
1
 10
-3.38382817208767
 20
-6.81619005203247
 30
0.0
 70
     0
  0
VERTEX
  8
1
 10
-3.33600337505341
 20
-6.78034406900406
 30
0.0
 70
     0
  0
VERTEX
  8
1
 10
-3.29043853878975
 20
-6.74493259191513
 30
0.0
 70
     0
  0
VERTEX
  8
1
 10
-3.24710376262665
 20
-6.71002450585365
 30
0.0
 70
     0
  0
VERTEX
  8
1
 10
-3.20596725344658
 20
-6.67568718194962
 30
0.0
 70
     0
  0
VERTEX
  8
1
 10
-3.16699437946081
 20
-6.64198496341705
 30
0.0
 70
     0
  0
VERTEX
  8
1
 10
-3.11251649409533
 20
-6.59276391863823
 30
0.0
 70
     0
  0
VERTEX
  8
1
 10
-3.06270368099213
 20
-6.54533237218857
 30
0.0
 70
     0
  0
VERTEX
  8
1
 10
-3.01742233335972
 20
-6.49989849328995
 30
0.0
 70
     0
  0
VERTEX
  8
1
 10
-2.97653089612722
 20
-6.45666212439537
 30
0.0
 70
     0
  0
VERTEX
  8
1
 10
-2.93988251537085
 20
-6.41582386493683
 30
0.0
 70
     0
  0
VERTEX
  8
1
 10
-2.89734635204077
 20
-6.36542723178863
 30
0.0
 70
     0
  0
VERTEX
  8
1
 10
-2.86168658584356
 20
-6.32005921006203
 30
0.0
 70
     0
  0
VERTEX
  8
1
 10
-2.8261573985219
 20
-6.27104746997356
 30
0.0
 70
     0
  0
VERTEX
  8
1
 10
-2.79566855579615
 20
-6.22450499534607
 30
0.0
 70
     0
  0
VERTEX
  8
1
 10
-2.76745197474956
 20
-6.17390208542347
 30
0.0
 70
     0
  0
VERTEX
  8
1
 10
-2.53602476269007
 20
-5.65761213600635
 30
0.0
 42
-0.000043633213038
 70
     0
  0
VERTEX
  8
1
 10
-1.69393862634897
 20
-5.96410611569881
 30
0.0
 70
     0
  0
VERTEX
  8
1
 10
-1.84852054864168
 20
-6.50836681723595
 30
0.0
 70
     0
  0
VERTEX
  8
1
 10
-1.85943240076303
 20
-6.56526892781258
 30
0.0
 70
     0
  0
VERTEX
  8
1
 10
-1.86599370539188
 20
-6.62052006721497
 30
0.0
 70
     0
  0
VERTEX
  8
1
 10
-1.87028104513884
 20
-6.68090352416039
 30
0.0
 70
     0
  0
VERTEX
  8
1
 10
-1.87212561368942
 20
-6.73857851028442
 30
0.0
 70
     0
  0
VERTEX
  8
1
 10
-1.87193580120802
 20
-6.80452651977539
 30
0.0
 70
     0
  0
VERTEX
  8
1
 10
-1.87011186033487
 20
-6.85936813354492
 30
0.0
 70
     0
  0
VERTEX
  8
1
 10
-1.86657847166061
 20
-6.91877281665802
 30
0.0
 70
     0
  0
VERTEX
  8
1
 10
-1.86109548360109
 20
-6.98268379569054
 30
0.0
 70
     0
  0
VERTEX
  8
1
 10
-1.85342520475388
 20
-7.05103824138641
 30
0.0
 70
     0
  0
VERTEX
  8
1
 10
-1.84333126842976
 20
-7.12376045584679
 30
0.0
 70
     0
  0
VERTEX
  8
1
 10
-1.8351399987936
 20
-7.1746294438839
 30
0.0
 70
     0
  0
VERTEX
  8
1
 10
-1.82569933533669
 20
-7.22737649679184
 30
0.0
 70
     0
  0
VERTEX
  8
1
 10
-1.81494114995003
 20
-7.28197133541107
 30
0.0
 70
     0
  0
VERTEX
  8
1
 10
-1.80279826074839
 20
-7.338386708498
 30
0.0
 70
     0
  0
VERTEX
  8
1
 10
-1.78920386433601
 20
-7.39658703804016
 30
0.0
 70
     0
  0
VERTEX
  8
1
 10
-1.77409229278564
 20
-7.45653977394104
 30
0.0
 70
     0
  0
VERTEX
  8
1
 10
-1.75739825665951
 20
-7.51821085214615
 30
0.0
 70
     0
  0
VERTEX
  8
1
 10
-1.73905741274357
 20
-7.5815593957901
 30
0.0
 70
     0
  0
VERTEX
  8
1
 10
-1.71900617480278
 20
-7.64654755592346
 30
0.0
 70
     0
  0
VERTEX
  8
1
 10
-1.69718209207058
 20
-7.71313445568085
 30
0.0
 70
     0
  0
VERTEX
  8
1
 10
-1.65692065060139
 20
-7.82653369307518
 30
0.0
 70
     0
  0
VERTEX
  8
1
 10
-1.11984036788344
 20
-7.92123403549194
 30
0.0
 70
     0
  0
VERTEX
  8
1
 10
-1.04322226643562
 20
-7.82844430804253
 30
0.0
 70
     0
  0
VERTEX
  8
1
 10
-0.99994028955698
 20
-7.77333775162697
 30
0.0
 70
     0
  0
VERTEX
  8
1
 10
-0.95887086763978
 20
-7.71912670135498
 30
0.0
 70
     0
  0
VERTEX
  8
1
 10
-0.91996952816844
 20
-7.66587171554565
 30
0.0
 70
     0
  0
VERTEX
  8
1
 10
-0.883189811557531
 20
-7.61362881064415
 30
0.0
 70
     0
  0
VERTEX
  8
1
 10
-0.848484217375517
 20
-7.56246081590652
 30
0.0
 70
     0
  0
VERTEX
  8
1
 10
-0.815803825855255
 20
-7.51241920590401
 30
0.0
 70
     0
  0
VERTEX
  8
1
 10
-0.785098203271627
 20
-7.46355924010277
 30
0.0
 70
     0
  0
VERTEX
  8
1
 10
-0.756315780431032
 20
-7.41593542098999
 30
0.0
 70
     0
  0
VERTEX
  8
1
 10
-0.729404420405626
 20
-7.36959998011589
 30
0.0
 70
     0
  0
VERTEX
  8
1
 10
-0.704308911040425
 20
-7.32459985017776
 30
0.0
 70
     0
  0
VERTEX
  8
1
 10
-0.669950959458947
 20
-7.25971539616585
 30
0.0
 70
     0
  0
VERTEX
  8
1
 10
-0.639364608377218
 20
-7.19810639023781
 30
0.0
 70
     0
  0
VERTEX
  8
1
 10
-0.612353563681245
 20
-7.13992574214935
 30
0.0
 70
     0
  0
VERTEX
  8
1
 10
-0.588715522736311
 20
-7.0853119790554
 30
0.0
 70
     0
  0
VERTEX
  8
1
 10
-0.568244871124625
 20
-7.03440135717392
 30
0.0
 70
     0
  0
VERTEX
  8
1
 10
-0.54551075771451
 20
-6.97249561548233
 30
0.0
 70
     0
  0
VERTEX
  8
1
 10
-0.527518171444535
 20
-6.91766762733459
 30
0.0
 70
     0
  0
VERTEX
  8
1
 10
-0.510894581675529
 20
-6.85946048498154
 30
0.0
 70
     0
  0
VERTEX
  8
1
 10
-0.498163093999028
 20
-6.80529636740684
 30
0.0
 70
     0
  0
VERTEX
  8
1
 10
-0.48895520158112
 20
-6.74809449315071
 30
0.0
 70
     0
  0
VERTEX
  8
1
 10
-0.44806665033102
 20
-6.18378785252571
 30
0.0
 42
-0.000043633227964
 70
     0
  0
VERTEX
  8
1
 10
0.448062865436077
 20
-6.18378747403622
 30
0.0
 70
     0
  0
VERTEX
  8
1
 10
0.488951132819057
 20
-6.74809600710869
 30
0.0
 70
     0
  0
VERTEX
  8
1
 10
0.498158930614591
 20
-6.80529712438583
 30
0.0
 70
     0
  0
VERTEX
  8
1
 10
0.510890370979905
 20
-6.85946124196053
 30
0.0
 70
     0
  0
VERTEX
  8
1
 10
0.527514008060098
 20
-6.91766989827156
 30
0.0
 70
     0
  0
VERTEX
  8
1
 10
0.545506499707699
 20
-6.97249712944031
 30
0.0
 70
     0
  0
VERTEX
  8
1
 10
0.568240565806627
 20
-7.0344028711319
 30
0.0
 70
     0
  0
VERTEX
  8
1
 10
0.588711453974247
 20
-7.08531349301338
 30
0.0
 70
     0
  0
VERTEX
  8
1
 10
0.612349258363247
 20
-7.13992649912834
 30
0.0
 70
     0
  0
VERTEX
  8
1
 10
0.639360397681594
 20
-7.19810790419579
 30
0.0
 70
     0
  0
VERTEX
  8
1
 10
0.669946748763323
 20
-7.25971691012382
 30
0.0
 70
     0
  0
VERTEX
  8
1
 10
0.704304700344801
 20
-7.32460212111473
 30
0.0
 70
     0
  0
VERTEX
  8
1
 10
0.729399831220508
 20
-7.36960073709488
 30
0.0
 70
     0
  0
VERTEX
  8
1
 10
0.756311711668968
 20
-7.41593769192696
 30
0.0
 70
     0
  0
VERTEX
  8
1
 10
0.785093850642443
 20
-7.46356151103973
 30
0.0
 70
     0
  0
VERTEX
  8
1
 10
0.815799283981323
 20
-7.512419962883
 30
0.0
 70
     0
  0
VERTEX
  8
1
 10
0.848479675501585
 20
-7.56246157288551
 30
0.0
 70
     0
  0
VERTEX
  8
1
 10
0.883185175061226
 20
-7.61363108158112
 30
0.0
 70
     0
  0
VERTEX
  8
1
 10
0.919964891672134
 20
-7.66587247252464
 30
0.0
 70
     0
  0
VERTEX
  8
1
 10
0.958866136521101
 20
-7.71912745833397
 30
0.0
 70
     0
  0
VERTEX
  8
1
 10
0.99993527457118
 20
-7.77333850860596
 30
0.0
 70
     0
  0
VERTEX
  8
1
 10
1.04321744069457
 20
-7.82844657897949
 30
0.0
 70
     0
  0
VERTEX
  8
1
 10
1.11983563676476
 20
-7.92123630642891
 30
0.0
 70
     0
  0
VERTEX
  8
1
 10
1.65691535174847
 20
-7.82653293609619
 30
0.0
 70
     0
  0
VERTEX
  8
1
 10
1.69717679321766
 20
-7.71313369870186
 30
0.0
 70
     0
  0
VERTEX
  8
1
 10
1.71900106519461
 20
-7.64654831290245
 30
0.0
 70
     0
  0
VERTEX
  8
1
 10
1.7390523031354
 20
-7.58155863881111
 30
0.0
 70
     0
  0
VERTEX
  8
1
 10
1.75739352554083
 20
-7.51821009516716
 30
0.0
 70
     0
  0
VERTEX
  8
1
 10
1.77408718317747
 20
-7.45653901696205
 30
0.0
 70
     0
  0
VERTEX
  8
1
 10
1.78919894397259
 20
-7.39658628106117
 30
0.0
 70
     0
  0
VERTEX
  8
1
 10
1.80279334038496
 20
-7.33838595151901
 30
0.0
 70
     0
  0
VERTEX
  8
1
 10
1.8149362295866
 20
-7.28197057843208
 30
0.0
 70
     0
  0
VERTEX
  8
1
 10
1.82569441497326
 20
-7.22737498283386
 30
0.0
 70
     0
  0
VERTEX
  8
1
 10
1.83513507843018
 20
-7.17462868690491
 30
0.0
 70
     0
  0
VERTEX
  8
1
 10
1.84332634806633
 20
-7.1237596988678
 30
0.0
 70
     0
  0
VERTEX
  8
1
 10
1.85342028439045
 20
-7.05103672742844
 30
0.0
 70
     0
  0
VERTEX
  8
1
 10
1.86109075248241
 20
-6.98268303871155
 30
0.0
 70
     0
  0
VERTEX
  8
1
 10
1.86657392978668
 20
-6.91877205967903
 30
0.0
 70
     0
  0
VERTEX
  8
1
 10
1.87010712921619
 20
-6.85936737656593
 30
0.0
 70
     0
  0
VERTEX
  8
1
 10
1.87193125933409
 20
-6.80452651977539
 30
0.0
 70
     0
  0
VERTEX
  8
1
 10
1.87212107181549
 20
-6.73857851028442
 30
0.0
 70
     0
  0
VERTEX
  8
1
 10
1.87027631402016
 20
-6.6809027671814
 30
0.0
 70
     0
  0
VERTEX
  8
1
 10
1.86598916351795
 20
-6.62052006721497
 30
0.0
 70
     0
  0
VERTEX
  8
1
 10
1.8594278588891
 20
-6.56526817083359
 30
0.0
 70
     0
  0
VERTEX
  8
1
 10
1.8485161960125
 20
-6.50836681723595
 30
0.0
 70
     0
  0
VERTEX
  8
1
 10
1.69393465220928
 20
-5.9641072511673
 30
0.0
 42
-0.000043633233635
 70
     0
  0
VERTEX
  8
1
 10
2.53602097779512
 20
-5.65761289298534
 30
0.0
 70
     0
  0
VERTEX
  8
1
 10
2.76744800060987
 20
-6.17390397787094
 30
0.0
 70
     0
  0
VERTEX
  8
1
 10
2.79566458165646
 20
-6.22450688779354
 30
0.0
 70
     0
  0
VERTEX
  8
1
 10
2.82615323513746
 20
-6.27104974091053
 30
0.0
 70
     0
  0
VERTEX
  8
1
 10
2.86168299019337
 20
-6.32006223797798
 30
0.0
 70
     0
  0
VERTEX
  8
1
 10
2.89734237790108
 20
-6.3654295027256
 30
0.0
 70
     0
  0
VERTEX
  8
1
 10
2.93987854123116
 20
-6.41582613587379
 30
0.0
 70
     0
  0
VERTEX
  8
1
 10
2.97652692198753
 20
-6.45666515231132
 30
0.0
 70
     0
  0
VERTEX
  8
1
 10
3.01741816997528
 20
-6.49990076422691
 30
0.0
 70
     0
  0
VERTEX
  8
1
 10
3.06269970685244
 20
-6.54533464312553
 30
0.0
 70
     0
  0
VERTEX
  8
1
 10
3.11251270920038
 20
-6.59276694655418
 30
0.0
 70
     0
  0
VERTEX
  8
1
 10
3.16699059456587
 20
-6.64198723435402
 30
0.0
 70
     0
  0
VERTEX
  8
1
 10
3.20596271157265
 20
-6.67568945288658
 30
0.0
 70
     0
  0
VERTEX
  8
1
 10
3.2470999777317
 20
-6.71002753376961
 30
0.0
 70
     0
  0
VERTEX
  8
1
 10
3.29043437540531
 20
-6.7449348628521
 30
0.0
 70
     0
  0
VERTEX
  8
1
 10
3.33599883317947
 20
-6.78034633994102
 30
0.0
 70
     0
  0
VERTEX
  8
1
 10
3.38382363021374
 20
-6.81619232296944
 30
0.0
 70
     0
  0
VERTEX
  8
1
 10
3.43393715322018
 20
-6.85240544080734
 30
0.0
 70
     0
  0
VERTEX
  8
1
 10
3.48636627495289
 20
-6.88891680836678
 30
0.0
 70
     0
  0
VERTEX
  8
1
 10
3.5411359757185
 20
-6.9256552696228
 30
0.0
 70
     0
  0
VERTEX
  8
1
 10
3.59826934337616
 20
-6.96255042552948
 30
0.0
 70
     0
  0
VERTEX
  8
1
 10
3.65778946578503
 20
-6.99953112006187
 30
0.0
 70
     0
  0
VERTEX
  8
1
 10
3.76152283847332
 20
-7.06052016019821
 30
0.0
 70
     0
  0
VERTEX
  8
1
 10
4.23382246792316
 20
-6.78783664703369
 30
0.0
 70
     0
  0
VERTEX
  8
1
 10
4.23287094533443
 20
-6.66750575304031
 30
0.0
 70
     0
  0
VERTEX
  8
1
 10
4.23060530722141
 20
-6.59747081398964
 30
0.0
 70
     0
  0
VERTEX
  8
1
 10
4.22722009718418
 20
-6.52954330444336
 30
0.0
 70
     0
  0
VERTEX
  8
1
 10
4.22278836369514
 20
-6.46374290585518
 30
0.0
 70
     0
  0
VERTEX
  8
1
 10
4.21738239824772
 20
-6.40008097290993
 30
0.0
 70
     0
  0
VERTEX
  8
1
 10
4.21107827723026
 20
-6.33857529461384
 30
0.0
 70
     0
  0
VERTEX
  8
1
 10
4.20394677817821
 20
-6.27923533320427
 30
0.0
 70
     0
  0
VERTEX
  8
1
 10
4.19606208503246
 20
-6.2220694154501
 30
0.0
 70
     0
  0
VERTEX
  8
1
 10
4.18749876022339
 20
-6.16708624660969
 30
0.0
 70
     0
  0
VERTEX
  8
1
 10
4.1783298522234
 20
-6.11429226100445
 30
0.0
 70
     0
  0
VERTEX
  8
1
 10
4.16862878799438
 20
-6.06368972957134
 30
0.0
 70
     0
  0
VERTEX
  8
1
 10
4.15324129760265
 20
-5.99189973473549
 30
0.0
 70
     0
  0
VERTEX
  8
1
 10
4.13707071244717
 20
-5.92504448592663
 30
0.0
 70
     0
  0
VERTEX
  8
1
 10
4.12036456465721
 20
-5.86311300694942
 30
0.0
 70
     0
  0
VERTEX
  8
1
 10
4.10336697995663
 20
-5.80608183145523
 30
0.0
 70
     0
  0
VERTEX
  8
1
 10
4.08632473349571
 20
-5.75392446517944
 30
0.0
 70
     0
  0
VERTEX
  8
1
 10
4.0639476776123
 20
-5.69188852310181
 30
0.0
 70
     0
  0
VERTEX
  8
1
 10
4.04248770177364
 20
-5.63832279741764
 30
0.0
 70
     0
  0
VERTEX
  8
1
 10
4.01780715882778
 20
-5.58304743468761
 30
0.0
 70
     0
  0
VERTEX
  8
1
 10
3.99274396300316
 20
-5.53337182402611
 30
0.0
 70
     0
  0
VERTEX
  8
1
 10
3.9630291312933
 20
-5.48363414108753
 30
0.0
 70
     0
  0
VERTEX
  8
1
 10
3.63162259459496
 20
-5.02506762444973
 30
0.0
 42
-0.000043633233876
 70
     0
  0
VERTEX
  8
1
 10
4.31809769570827
 20
-4.44904673397541
 30
0.0
 70
     0
  0
VERTEX
  8
1
 10
4.71214954257011
 20
-4.85504938662052
 30
0.0
 70
     0
  0
VERTEX
  8
1
 10
4.75597143471241
 20
-4.89294943213463
 30
0.0
 70
     0
  0
VERTEX
  8
1
 10
4.80054008662701
 20
-4.9262576431036
 30
0.0
 70
     0
  0
VERTEX
  8
1
 10
4.8506903231144
 20
-4.96016235351562
 30
0.0
 70
     0
  0
VERTEX
  8
1
 10
4.89971568882465
 20
-4.99059745073318
 30
0.0
 70
     0
  0
VERTEX
  8
1
 10
4.9569232404232
 20
-5.02340719103813
 30
0.0
 70
     0
  0
VERTEX
  8
1
 10
5.00532977581024
 20
-5.04924818277359
 30
0.0
 70
     0
  0
VERTEX
  8
1
 10
5.05854199230671
 20
-5.07589043676853
 30
0.0
 70
     0
  0
VERTEX
  8
1
 10
5.11663218140602
 20
-5.1030977755785
 30
0.0
 70
     0
  0
VERTEX
  8
1
 10
5.17966392934322
 20
-5.13063175082207
 30
0.0
 70
     0
  0
VERTEX
  8
1
 10
5.24769098162651
 20
-5.15825202167034
 30
0.0
 70
     0
  0
VERTEX
  8
1
 10
5.29583938717842
 20
-5.17659210860729
 30
0.0
 70
     0
  0
VERTEX
  8
1
 10
5.34624018371105
 20
-5.19478988349438
 30
0.0
 70
     0
  0
VERTEX
  8
1
 10
5.3989001840353
 20
-5.21277078390121
 30
0.0
 70
     0
  0
VERTEX
  8
1
 10
5.45382809340954
 20
-5.2304617613554
 30
0.0
 70
     0
  0
VERTEX
  8
1
 10
5.5110284537077
 20
-5.24778901040554
 30
0.0
 70
     0
  0
VERTEX
  8
1
 10
5.57050542831421
 20
-5.26467910408974
 30
0.0
 70
     0
  0
VERTEX
  8
1
 10
5.63226053118706
 20
-5.28105672299862
 30
0.0
 70
     0
  0
VERTEX
  8
1
 10
5.69629224836826
 20
-5.29684692621231
 30
0.0
 70
     0
  0
VERTEX
  8
1
 10
5.76259944438934
 20
-5.31197628676891
 30
0.0
 70
     0
  0
VERTEX
  8
1
 10
5.83117795586586
 20
-5.32636986374855
 30
0.0
 70
     0
  0
VERTEX
  8
1
 10
5.94951496720314
 20
-5.34820189476013
 30
0.0
 70
     0
  0
VERTEX
  8
1
 10
6.30006777346134
 20
-4.93042708337307
 30
0.0
 70
     0
  0
VERTEX
  8
1
 10
6.25801872611046
 20
-4.81767846941948
 30
0.0
 70
     0
  0
VERTEX
  8
1
 10
6.23193625807762
 20
-4.75264224112034
 30
0.0
 70
     0
  0
VERTEX
  8
1
 10
6.20552261173725
 20
-4.68996930122375
 30
0.0
 70
     0
  0
VERTEX
  8
1
 10
6.17885310649872
 20
-4.62965245842934
 30
0.0
 70
     0
  0
VERTEX
  8
1
 10
6.15199965536594
 20
-4.57167884409428
 30
0.0
 70
     0
  0
VERTEX
  8
1
 10
6.12503909170628
 20
-4.51603899598122
 30
0.0
 70
     0
  0
VERTEX
  8
1
 10
6.09804219305515
 20
-4.46271626055241
 30
0.0
 70
     0
  0
VERTEX
  8
1
 10
6.07108125090599
 20
-4.41169436275959
 30
0.0
 70
     0
  0
VERTEX
  8
1
 10
6.0442289352417
 20
-4.36295589208603
 30
0.0
 70
     0
  0
VERTEX
  8
1
 10
6.01755678057671
 20
-4.31648192405701
 30
0.0
 70
     0
  0
VERTEX
  8
1
 10
5.99113367199898
 20
-4.27224899232387
 30
0.0
 70
     0
  0
VERTEX
  8
1
 10
5.95212086737156
 20
-4.21005181372166
 30
0.0
 70
     0
  0
VERTEX
  8
1
 10
5.91405920684338
 20
-4.15275910198689
 30
0.0
 70
     0
  0
VERTEX
  8
1
 10
5.87717843353748
 20
-4.10027661323547
 30
0.0
 70
     0
  0
VERTEX
  8
1
 10
5.84170034229755
 20
-4.05249837040901
 30
0.0
 70
     0
  0
VERTEX
  8
1
 10
5.80784634947777
 20
-4.00931499004364
 30
0.0
 70
     0
  0
VERTEX
  8
1
 10
5.76560162305832
 20
-3.95867385268211
 30
0.0
 70
     0
  0
VERTEX
  8
1
 10
5.7271152973175
 20
-3.91567782461643
 30
0.0
 70
     0
  0
VERTEX
  8
1
 10
5.68501780331135
 20
-3.87217764854431
 30
0.0
 70
     0
  0
VERTEX
  8
1
 10
5.64447627961636
 20
-3.83406981229782
 30
0.0
 70
     0
  0
VERTEX
  8
1
 10
5.59954238533974
 20
-3.79749485850334
 30
0.0
 70
     0
  0
VERTEX
  8
1
 10
5.1312827527523
 20
-3.4799311965704
 30
0.0
 42
-0.000043633255658
 70
     0
  0
VERTEX
  8
1
 10
5.5793476998806
 20
-2.70385987311602
 30
0.0
 70
     0
  0
VERTEX
  8
1
 10
6.08849593102932
 20
-2.95060341954231
 30
0.0
 70
     0
  0
VERTEX
  8
1
 10
6.14263809621334
 20
-2.97122996151447
 30
0.0
 70
     0
  0
VERTEX
  8
1
 10
6.1959108710289
 20
-2.98728605359793
 30
0.0
 70
     0
  0
VERTEX
  8
1
 10
6.25463238060474
 20
-3.0019939661026
 30
0.0
 70
     0
  0
VERTEX
  8
1
 10
6.31111096143723
 20
-3.01382554769516
 30
0.0
 70
     0
  0
VERTEX
  8
1
 10
6.37608928084373
 20
-3.02509034126997
 30
0.0
 70
     0
  0
VERTEX
  8
1
 10
6.430415391922
 20
-3.03281720429659
 30
0.0
 70
     0
  0
VERTEX
  8
1
 10
6.48953090906143
 20
-3.03965291380882
 30
0.0
 70
     0
  0
VERTEX
  8
1
 10
6.55342296361923
 20
-3.04535164088011
 30
0.0
 70
     0
  0
VERTEX
  8
1
 10
6.6220711171627
 20
-3.04966698884964
 30
0.0
 70
     0
  0
VERTEX
  8
1
 10
6.69544130563736
 20
-3.05235464274883
 30
0.0
 70
     0
  0
VERTEX
  8
1
 10
6.74695978164673
 20
-3.05312127321959
 30
0.0
 70
     0
  0
VERTEX
  8
1
 10
6.8005448102951
 20
-3.05298350304365
 30
0.0
 70
     0
  0
VERTEX
  8
1
 10
6.85617822408676
 20
-3.05186904072762
 30
0.0
 70
     0
  0
VERTEX
  8
1
 10
6.91384412646294
 20
-3.04970691949129
 30
0.0
 70
     0
  0
VERTEX
  8
1
 10
6.97352207899094
 20
-3.04642560482025
 30
0.0
 70
     0
  0
VERTEX
  8
1
 10
7.03518861532211
 20
-3.04195431917906
 30
0.0
 70
     0
  0
VERTEX
  8
1
 10
7.09882026910782
 20
-3.03622285276651
 30
0.0
 70
     0
  0
VERTEX
  8
1
 10
7.16439130306244
 20
-3.02916099578142
 30
0.0
 70
     0
  0
VERTEX
  8
1
 10
7.23187370896339
 20
-3.02069948464632
 30
0.0
 70
     0
  0
VERTEX
  8
1
 10
7.3012394785881
 20
-3.01076981276274
 30
0.0
 70
     0
  0
VERTEX
  8
1
 10
7.41990728974342
 20
-2.99081149399281
 30
0.0
 70
     0
  0
VERTEX
  8
1
 10
7.60643221139908
 20
-2.4783352047205
 30
0.0
 70
     0
  0
VERTEX
  8
1
 10
7.528355884552
 20
-2.38676818758249
 30
0.0
 70
     0
  0
VERTEX
  8
1
 10
7.48160334825516
 20
-2.33457486480474
 30
0.0
 70
     0
  0
VERTEX
  8
1
 10
7.43534663319588
 20
-2.28471549749374
 30
0.0
 70
     0
  0
VERTEX
  8
1
 10
7.3896561384201
 20
-2.23715753555298
 30
0.0
 70
     0
  0
VERTEX
  8
1
 10
7.34459393620491
 20
-2.19186464399099
 30
0.0
 70
     0
  0
VERTEX
  8
1
 10
7.30022966861725
 20
-2.14880124479532
 30
0.0
 70
     0
  0
VERTEX
  8
1
 10
7.25662313699722
 20
-2.10792778581381
 30
0.0
 70
     0
  0
VERTEX
  8
1
 10
7.21383792757988
 20
-2.06920414716005
 30
0.0
 70
     0
  0
VERTEX
  8
1
 10
7.1719353556633
 20
-2.03258926272392
 30
0.0
 70
     0
  0
VERTEX
  8
1
 10
7.13097673654556
 20
-1.99804036319256
 30
0.0
 70
     0
  0
VERTEX
  8
1
 10
7.09101884365082
 20
-1.96551221907139
 30
0.0
 70
     0
  0
VERTEX
  8
1
 10
7.03308572769165
 20
-1.92040913999081
 30
0.0
 70
     0
  0
VERTEX
  8
1
 10
6.97772482633591
 20
-1.87958923727274
 30
0.0
 70
     0
  0
VERTEX
  8
1
 10
6.92511781454086
 20
-1.84288559705019
 30
0.0
 70
     0
  0
VERTEX
  8
1
 10
6.87543804049492
 20
-1.81012297868729
 30
0.0
 70
     0
  0
VERTEX
  8
1
 10
6.82885582447052
 20
-1.78112292438745
 30
0.0
 70
     0
  0
VERTEX
  8
1
 10
6.77183865308762
 20
-1.74798427671194
 30
0.0
 70
     0
  0
VERTEX
  8
1
 10
6.72096815109253
 20
-1.72074419856071
 30
0.0
 70
     0
  0
VERTEX
  8
1
 10
6.66653076410294
 20
-1.69426564127207
 30
0.0
 70
     0
  0
VERTEX
  8
1
 10
6.61540137529373
 20
-1.67232214510441
 30
0.0
 70
     0
  0
VERTEX
  8
1
 10
6.56066800951958
 20
-1.65332121551037
 30
0.0
 70
     0
  0
VERTEX
  8
1
 10
6.01203499734402
 20
-1.51506288275123
 30
0.0
 42
-0.000043633236025
 70
     0
  0
SEQEND
  0
TEXT
  8
NOTES
 10
-8.0
 20
-8.80000114440918
 30
0.0
 11
-8.0
 21
-8.80000114440918
 31
0.0
 40
0.320000648498535
  1
Diametral Pitch: 31.74999995174
 41
1.0
  7
ARIAL
  0
TEXT
  8
NOTES
 10
-8.0
 20
-9.44000053405762
 30
0.0
 11
-8.0
 21
-9.44000053405762
 31
0.0
 40
0.319999694824219
  1
Number Of Teeth: 18
 41
1.0
  7
ARIAL
  0
TEXT
  8
NOTES
 10
-8.0
 20
-10.0800008773804
 30
0.0
 11
-8.0
 21
-10.0800008773804
 31
0.0
 40
0.320000648498535
  1
Pressure Angle: 20
 41
1.0
  7
ARIAL
  0
ENDSEC
  0
EOF
