  0
SECTION
  2
HEADER
  9
$MEASUREMENT
 70
     1
  0
ENDSEC
  0
SECTION
  2
TABLES
  0
TABLE
  2
LTYPE
 70
     1
  0
LTYPE
  2
Continuous
  3
_
 70
     0
 72
    65
 73
     0
 40
0.0
  0
ENDTAB
  0
TABLE
  2
LAYER
 70
     2
  0
LAYER
  2
1
 70
     0
 62
     7
  6
Continuous
  0
LAYER
  2
NOTES
 70
     0
 62
     1
  6
Continuous
  0
ENDTAB
  0
TABLE
  2
STYLE
 70
     1
  0
STYLE
  2
ARIAL
  3
Arial.ttf
 70
     0
 40
0.0
 41
1.0
 50
0.0
 71
     0
 42
1.0
  0
ENDTAB
  0
ENDSEC
  0
SECTION
  2
ENTITIES
  0
POLYLINE
  8
1
 66
     1
 10
0.0
 20
0.0
 70
     1
  0
VERTEX
  8
1
 10
11.4090344071388
 20
-0.301133622229099
 30
0.0
 70
     0
  0
VERTEX
  8
1
 10
11.4759566485882
 20
-0.284473460912704
 30
0.0
 70
     0
  0
VERTEX
  8
1
 10
11.5310957551003
 20
-0.269544013775885
 30
0.0
 70
     0
  0
VERTEX
  8
1
 10
11.5891938924789
 20
-0.252720132097602
 30
0.0
 70
     0
  0
VERTEX
  8
1
 10
11.650199586153
 20
-0.233894301205873
 30
0.0
 70
     0
  0
VERTEX
  8
1
 10
11.7140606045723
 20
-0.212960189208388
 30
0.0
 70
     0
  0
VERTEX
  8
1
 10
11.7807216882706
 20
-0.189812658820301
 30
0.0
 70
     0
  0
VERTEX
  8
1
 10
11.8501222789288
 20
-0.164348015747964
 30
0.0
 70
     0
  0
VERTEX
  8
1
 10
11.9222018182278
 20
-0.136463843099773
 30
0.0
 70
     0
  0
VERTEX
  8
1
 10
11.9995393335819
 20
-0.104943261668086
 30
0.0
 70
     0
  0
VERTEX
  8
1
 10
11.9995385766029
 20
0.104942954145372
 30
0.0
 70
     0
  0
VERTEX
  8
1
 10
11.9222003042698
 20
0.136463606543839
 30
0.0
 70
     0
  0
VERTEX
  8
1
 10
11.8501215219498
 20
0.164347755536437
 30
0.0
 70
     0
  0
VERTEX
  8
1
 10
11.7807201743126
 20
0.189812386780977
 30
0.0
 70
     0
  0
VERTEX
  8
1
 10
11.7140590906143
 20
0.212959928996861
 30
0.0
 70
     0
  0
VERTEX
  8
1
 10
11.650198829174
 20
0.23389406464994
 30
0.0
 70
     0
  0
VERTEX
  8
1
 10
11.589192378521
 20
0.252719895541668
 30
0.0
 70
     0
  0
VERTEX
  8
1
 10
11.5310949981213
 20
0.269543753564358
 30
0.0
 70
     0
  0
VERTEX
  8
1
 10
11.4759558916092
 20
0.284473200701177
 30
0.0
 70
     0
  0
VERTEX
  8
1
 10
11.4090677142143
 20
0.301131280325353
 30
0.0
 42
-0.000043633225973
 70
     0
  0
VERTEX
  8
1
 10
11.4022821545601
 20
0.49545826613903
 30
0.0
 70
     0
  0
VERTEX
  8
1
 10
11.4678448617458
 20
0.516741723939776
 30
0.0
 70
     0
  0
VERTEX
  8
1
 10
11.5218076229095
 20
0.535481069982052
 30
0.0
 70
     0
  0
VERTEX
  8
1
 10
11.578590887785
 20
0.556316680088639
 30
0.0
 70
     0
  0
VERTEX
  8
1
 10
11.638134855032
 20
0.57935216575861
 30
0.0
 70
     0
  0
VERTEX
  8
1
 10
11.7003797233105
 20
0.604690050333738
 30
0.0
 70
     0
  0
VERTEX
  8
1
 10
11.7652641773224
 20
0.632431201264262
 30
0.0
 70
     0
  0
VERTEX
  8
1
 10
11.8327185750008
 20
0.662674972042441
 30
0.0
 70
     0
  0
VERTEX
  8
1
 10
11.9026778161526
 20
0.695519249513745
 30
0.0
 70
     0
  0
VERTEX
  8
1
 10
11.9776285767555
 20
0.732357868552208
 30
0.0
 70
     0
  0
VERTEX
  8
1
 10
11.9629870891571
 20
0.941732674092054
 30
0.0
 70
     0
  0
VERTEX
  8
1
 10
11.8836375236511
 20
0.967781740427017
 30
0.0
 70
     0
  0
VERTEX
  8
1
 10
11.8097896814346
 20
0.990569930523634
 30
0.0
 70
     0
  0
VERTEX
  8
1
 10
11.7387812674046
 20
1.01113137230277
 30
0.0
 70
     0
  0
VERTEX
  8
1
 10
11.6706675410271
 20
1.02957251593471
 30
0.0
 70
     0
  0
VERTEX
  8
1
 10
11.6055030047894
 20
1.04600104168057
 30
0.0
 70
     0
  0
VERTEX
  8
1
 10
11.5433315634727
 20
1.06052529215813
 30
0.0
 70
     0
  0
VERTEX
  8
1
 10
11.4842024207115
 20
1.07325550243258
 30
0.0
 70
     0
  0
VERTEX
  8
1
 10
11.428156453371
 20
1.08430228605866
 30
0.0
 70
     0
  0
VERTEX
  8
1
 10
11.3602690637112
 20
1.0962539434433
 30
0.0
 42
-0.000043633224341
 70
     0
  0
VERTEX
  8
1
 10
11.339944177866
 20
1.28963416144252
 30
0.0
 70
     0
  0
VERTEX
  8
1
 10
11.4038619697094
 20
1.31543910205364
 30
0.0
 70
     0
  0
VERTEX
  8
1
 10
11.4563864707947
 20
1.33789715468884
 30
0.0
 70
     0
  0
VERTEX
  8
1
 10
11.511578565836
 20
1.36264298707247
 30
0.0
 70
     0
  0
VERTEX
  8
1
 10
11.5693701267242
 20
1.38977585807443
 30
0.0
 70
     0
  0
VERTEX
  8
1
 10
11.6296960532665
 20
1.41939408034086
 30
0.0
 70
     0
  0
VERTEX
  8
1
 10
11.6924867033958
 20
1.45159369558096
 30
0.0
 70
     0
  0
VERTEX
  8
1
 10
11.7576678931713
 20
1.48646923154593
 30
0.0
 70
     0
  0
VERTEX
  8
1
 10
11.825165438652
 20
1.52411351278424
 30
0.0
 70
     0
  0
VERTEX
  8
1
 10
11.8973638236523
 20
1.56609083637595
 30
0.0
 70
     0
  0
VERTEX
  8
1
 10
11.8681520044804
 20
1.77393408417702
 30
0.0
 70
     0
  0
VERTEX
  8
1
 10
11.7871794760227
 20
1.79438462853432
 30
0.0
 70
     0
  0
VERTEX
  8
1
 10
11.7119221389294
 20
1.8119660332799
 30
0.0
 70
     0
  0
VERTEX
  8
1
 10
11.6396518409252
 20
1.82752403318882
 30
0.0
 70
     0
  0
VERTEX
  8
1
 10
11.5704177856445
 20
1.84116895794868
 30
0.0
 70
     0
  0
VERTEX
  8
1
 10
11.5042653918266
 20
1.85301170498133
 30
0.0
 70
     0
  0
VERTEX
  8
1
 10
11.4412332653999
 20
1.86316373944283
 30
0.0
 70
     0
  0
VERTEX
  8
1
 10
11.3813592553139
 20
1.87173822969198
 30
0.0
 70
     0
  0
VERTEX
  8
1
 10
11.3246789395809
 20
1.87884853333235
 30
0.0
 70
     0
  0
VERTEX
  8
1
 10
11.256123894453
 20
1.88603548109531
 30
0.0
 42
-0.000043633226015
 70
     0
  0
VERTEX
  8
1
 10
11.2223596036434
 20
2.07752694189548
 30
0.0
 70
     0
  0
VERTEX
  8
1
 10
11.2843213617802
 20
2.10772756487131
 30
0.0
 70
     0
  0
VERTEX
  8
1
 10
11.3351517438889
 20
2.13379489332437
 30
0.0
 70
     0
  0
VERTEX
  8
1
 10
11.388482427597
 20
2.16233054101467
 30
0.0
 70
     0
  0
VERTEX
  8
1
 10
11.4442407429218
 20
2.19342856258154
 30
0.0
 70
     0
  0
VERTEX
  8
1
 10
11.5023540198803
 20
2.22718263417482
 30
0.0
 70
     0
  0
VERTEX
  8
1
 10
11.5627450466156
 20
2.2636841610074
 30
0.0
 70
     0
  0
VERTEX
  8
1
 10
11.6253350973129
 20
2.30302152037621
 30
0.0
 70
     0
  0
VERTEX
  8
1
 10
11.6900424182415
 20
2.34528233259916
 30
0.0
 70
     0
  0
VERTEX
  8
1
 10
11.7591364324093
 20
2.39219345599413
 30
0.0
 70
     0
  0
VERTEX
  8
1
 10
11.7154981076717
 20
2.59749297052622
 30
0.0
 70
     0
  0
VERTEX
  8
1
 10
11.6332954883575
 20
2.61224554479122
 30
0.0
 70
     0
  0
VERTEX
  8
1
 10
11.5569950342178
 20
2.62453415244818
 30
0.0
 70
     0
  0
VERTEX
  8
1
 10
11.4838156044483
 20
2.63501301258802
 30
0.0
 70
     0
  0
VERTEX
  8
1
 10
11.4137988328934
 20
2.64379510432482
 30
0.0
 70
     0
  0
VERTEX
  8
1
 10
11.3469810545444
 20
2.65099435299635
 30
0.0
 70
     0
  0
VERTEX
  8
1
 10
11.2833948194981
 20
2.65672487318516
 30
0.0
 70
     0
  0
VERTEX
  8
1
 10
11.2230688929558
 20
2.66110210418701
 30
0.0
 70
     0
  0
VERTEX
  8
1
 10
11.1660297691822
 20
2.66424110680819
 30
0.0
 70
     0
  0
VERTEX
  8
1
 10
11.0971401393414
 20
2.66662842929363
 30
0.0
 42
-0.000043633235729
 70
     0
  0
VERTEX
  8
1
 10
11.0500999510288
 20
2.85529806166887
 30
0.0
 70
     0
  0
VERTEX
  8
1
 10
11.1098043978214
 20
2.88974741846323
 30
0.0
 70
     0
  0
VERTEX
  8
1
 10
11.1586923718452
 20
2.91929685026407
 30
0.0
 70
     0
  0
VERTEX
  8
1
 10
11.2099027574062
 20
2.95148283988237
 30
0.0
 70
     0
  0
VERTEX
  8
1
 10
11.2633560717106
 20
2.98639490008354
 30
0.0
 70
     0
  0
VERTEX
  8
1
 10
11.3189728319645
 20
3.02412046194077
 30
0.0
 70
     0
  0
VERTEX
  8
1
 10
11.3766720414162
 20
3.06474582105875
 30
0.0
 70
     0
  0
VERTEX
  8
1
 10
11.436364376545
 20
3.10835329890251
 30
0.0
 70
     0
  0
VERTEX
  8
1
 10
11.4979665696621
 20
3.15502502769232
 30
0.0
 70
     0
  0
VERTEX
  8
1
 10
11.5636193573475
 20
3.20664172172546
 30
0.0
 70
     0
  0
VERTEX
  8
1
 10
11.5057664811611
 20
3.40839668214321
 30
0.0
 70
     0
  0
VERTEX
  8
1
 10
11.4227357268333
 20
3.4173789948225
 30
0.0
 70
     0
  0
VERTEX
  8
1
 10
11.3457630753517
 20
3.42431557178497
 30
0.0
 70
     0
  0
VERTEX
  8
1
 10
11.2720310509205
 20
3.42966400682926
 30
0.0
 70
     0
  0
VERTEX
  8
1
 10
11.2015722036362
 20
3.43354049623013
 30
0.0
 70
     0
  0
VERTEX
  8
1
 10
11.1344152987003
 20
3.43606161475182
 30
0.0
 70
     0
  0
VERTEX
  8
1
 10
11.0705830454826
 20
3.43734242320061
 30
0.0
 70
     0
  0
VERTEX
  8
1
 10
11.0100996673107
 20
3.43750063180923
 30
0.0
 70
     0
  0
VERTEX
  8
1
 10
10.9529810607433
 20
3.43665357232094
 30
0.0
 70
     0
  0
VERTEX
  8
1
 10
10.8840921878815
 20
3.43422934710979
 30
0.0
 42
-0.000043633230451
 70
     0
  0
VERTEX
  8
1
 10
10.8240062236786
 20
3.61915817856789
 30
0.0
 70
     0
  0
VERTEX
  8
1
 10
10.8811626791954
 20
3.65768803060055
 30
0.0
 70
     0
  0
VERTEX
  8
1
 10
10.9278705537319
 20
3.69057611823082
 30
0.0
 70
     0
  0
VERTEX
  8
1
 10
10.9767100811005
 20
3.72625594437122
 30
0.0
 70
     0
  0
VERTEX
  8
1
 10
11.0275979936123
 20
3.7648115336895
 30
0.0
 70
     0
  0
VERTEX
  8
1
 10
11.0804479956627
 20
3.80632501840591
 30
0.0
 70
     0
  0
VERTEX
  8
1
 10
11.13517152071
 20
3.85087588131428
 30
0.0
 70
     0
  0
VERTEX
  8
1
 10
11.1916777312756
 20
3.89854133427143
 30
0.0
 70
     0
  0
VERTEX
  8
1
 10
11.2498735189438
 20
3.94939631819725
 30
0.0
 70
     0
  0
VERTEX
  8
1
 10
11.3117656350136
 20
4.00546688735485
 30
0.0
 70
     0
  0
VERTEX
  8
1
 10
11.2399805605412
 20
4.20269511342049
 30
0.0
 70
     0
  0
VERTEX
  8
1
 10
11.1565251410007
 20
4.20586382746696
 30
0.0
 70
     0
  0
VERTEX
  8
1
 10
11.0792557537556
 20
4.20741374194622
 30
0.0
 70
     0
  0
VERTEX
  8
1
 10
11.0053314566612
 20
4.20760601460934
 30
0.0
 70
     0
  0
VERTEX
  8
1
 10
10.9347726881504
 20
4.20655797719955
 30
0.0
 70
     0
  0
VERTEX
  8
1
 10
10.8676044285297
 20
4.2043880969286
 30
0.0
 70
     0
  0
VERTEX
  8
1
 10
10.8038380324841
 20
4.20121332705021
 30
0.0
 70
     0
  0
VERTEX
  8
1
 10
10.7434909105301
 20
4.19715213477612
 30
0.0
 70
     0
  0
VERTEX
  8
1
 10
10.6865706324577
 20
4.19232260882854
 30
0.0
 70
     0
  0
VERTEX
  8
1
 10
10.6180193722248
 20
4.18509913682938
 30
0.0
 42
-0.000043633290645
 70
     0
  0
VERTEX
  8
1
 10
10.5451783120632
 20
4.36538579463959
 30
0.0
 70
     0
  0
VERTEX
  8
1
 10
10.5995082080364
 20
4.40780916810036
 30
0.0
 70
     0
  0
VERTEX
  8
1
 10
10.64380813241
 20
4.44387505352497
 30
0.0
 70
     0
  0
VERTEX
  8
1
 10
10.6900398671627
 20
4.48287498950958
 30
0.0
 70
     0
  0
VERTEX
  8
1
 10
10.7381148457527
 20
4.52488656640053
 30
0.0
 70
     0
  0
VERTEX
  8
1
 10
10.7879392027855
 20
4.56998548209667
 30
0.0
 70
     0
  0
VERTEX
  8
1
 10
10.8394228577614
 20
4.61824516355991
 30
0.0
 70
     0
  0
VERTEX
  8
1
 10
10.8924658894539
 20
4.6697360098362
 30
0.0
 70
     0
  0
VERTEX
  8
1
 10
10.9469721615314
 20
4.72452690601349
 30
0.0
 70
     0
  0
VERTEX
  8
1
 10
11.0048023283482
 20
4.78477827012539
 30
0.0
 70
     0
  0
VERTEX
  8
1
 10
10.9194340229034
 20
4.97651839852333
 30
0.0
 70
     0
  0
VERTEX
  8
1
 10
10.8359604358673
 20
4.97385761737823
 30
0.0
 70
     0
  0
VERTEX
  8
1
 10
10.7587728023529
 20
4.97001405656338
 30
0.0
 70
     0
  0
VERTEX
  8
1
 10
10.6850135266781
 20
4.96504903137684
 30
0.0
 70
     0
  0
VERTEX
  8
1
 10
10.6147007763386
 20
4.95908176600933
 30
0.0
 70
     0
  0
VERTEX
  8
1
 10
10.5478474199772
 20
4.95223186314106
 30
0.0
 70
     0
  0
VERTEX
  8
1
 10
10.4844572424889
 20
4.94461665451527
 30
0.0
 70
     0
  0
VERTEX
  8
1
 10
10.4245400846004
 20
4.93635574281216
 30
0.0
 70
     0
  0
VERTEX
  8
1
 10
10.368095946312
 20
4.92756721675396
 30
0.0
 70
     0
  0
VERTEX
  8
1
 10
10.300215369463
 20
4.91557931900024
 30
0.0
 42
-0.000043633212782
 70
     0
  0
VERTEX
  8
1
 10
10.2149765074253
 20
5.09034570753574
 30
0.0
 70
     0
  0
VERTEX
  8
1
 10
10.2662133872509
 20
5.13645594716072
 30
0.0
 70
     0
  0
VERTEX
  8
1
 10
10.3078896224499
 20
5.17552401125431
 30
0.0
 70
     0
  0
VERTEX
  8
1
 10
10.351288741827
 20
5.21765405535698
 30
0.0
 70
     0
  0
VERTEX
  8
1
 10
10.3963161230087
 20
5.26291685700417
 30
0.0
 70
     0
  0
VERTEX
  8
1
 10
10.4428733587265
 20
5.31138130128384
 30
0.0
 70
     0
  0
VERTEX
  8
1
 10
10.4908650696278
 20
5.36311475932598
 30
0.0
 70
     0
  0
VERTEX
  8
1
 10
10.5401867926121
 20
5.41818006038666
 30
0.0
 70
     0
  0
VERTEX
  8
1
 10
10.5907386064529
 20
5.47663965523243
 30
0.0
 70
     0
  0
VERTEX
  8
1
 10
10.6442252278328
 20
5.54077848494053
 30
0.0
 70
     0
  0
VERTEX
  8
1
 10
10.5456892728806
 20
5.72609640359878
 30
0.0
 70
     0
  0
VERTEX
  8
1
 10
10.4626055300236
 20
5.71761937439442
 30
0.0
 70
     0
  0
VERTEX
  8
1
 10
10.3858735978603
 20
5.70840088427067
 30
0.0
 70
     0
  0
VERTEX
  8
1
 10
10.3126404225826
 20
5.69830278456211
 30
0.0
 70
     0
  0
VERTEX
  8
1
 10
10.2429150879383
 20
5.68744543492794
 30
0.0
 70
     0
  0
VERTEX
  8
1
 10
10.1767021358013
 20
5.67594881653786
 30
0.0
 70
     0
  0
VERTEX
  8
1
 10
10.1139985382557
 20
5.6639302611351
 30
0.0
 70
     0
  0
VERTEX
  8
1
 10
10.0548027813435
 20
5.65150974988937
 30
0.0
 70
     0
  0
VERTEX
  8
1
 10
9.99910880923271
 20
5.6388053715229
 30
0.0
 70
     0
  0
VERTEX
  8
1
 10
9.93222971558571
 20
5.62211133539677
 30
0.0
 42
-0.000043633275292
 70
     0
  0
VERTEX
  8
1
 10
9.83500787615776
 20
5.79050661027431
 30
0.0
 70
     0
  0
VERTEX
  8
1
 10
9.88290345072746
 20
5.84007813632488
 30
0.0
 70
     0
  0
VERTEX
  8
1
 10
9.92175236940384
 20
5.8819583773613
 30
0.0
 70
     0
  0
VERTEX
  8
1
 10
9.96210767626762
 20
5.92701300978661
 30
0.0
 70
     0
  0
VERTEX
  8
1
 10
10.0038671791554
 20
5.97530637681484
 30
0.0
 70
     0
  0
VERTEX
  8
1
 10
10.0469301998615
 20
6.02690092921257
 30
0.0
 70
     0
  0
VERTEX
  8
1
 10
10.0911960601807
 20
6.0818557113409
 30
0.0
 70
     0
  0
VERTEX
  8
1
 10
10.1365565121174
 20
6.14022787511349
 30
0.0
 70
     0
  0
VERTEX
  8
1
 10
10.1829070925713
 20
6.20207116603851
 30
0.0
 70
     0
  0
VERTEX
  8
1
 10
10.2317897677422
 20
6.2697848290205
 30
0.0
 70
     0
  0
VERTEX
  8
1
 10
10.1205668449402
 20
6.44777746200561
 30
0.0
 70
     0
  0
VERTEX
  8
1
 10
10.0382764160633
 20
6.43352581858635
 30
0.0
 70
     0
  0
VERTEX
  8
1
 10
9.96237413287163
 20
6.41897668242455
 30
0.0
 70
     0
  0
VERTEX
  8
1
 10
9.89002435207367
 20
6.40379471182823
 30
0.0
 70
     0
  0
VERTEX
  8
1
 10
9.82122631669044
 20
6.3881002664566
 30
0.0
 70
     0
  0
VERTEX
  8
1
 10
9.75597624182701
 20
6.37201294898987
 30
0.0
 70
     0
  0
VERTEX
  8
1
 10
9.69426352977753
 20
6.35564933419228
 30
0.0
 70
     0
  0
VERTEX
  8
1
 10
9.63607909679413
 20
6.33913016021252
 30
0.0
 70
     0
  0
VERTEX
  8
1
 10
9.58140780329704
 20
6.32257162332535
 30
0.0
 70
     0
  0
VERTEX
  8
1
 10
9.51585493683815
 20
6.30125320255756
 30
0.0
 42
-0.000043633214549
 70
     0
  0
VERTEX
  8
1
 10
9.40712323188782
 20
6.46245604157448
 30
0.0
 70
     0
  0
VERTEX
  8
1
 10
9.45144510865211
 20
6.51524699926376
 30
0.0
 70
     0
  0
VERTEX
  8
1
 10
9.48727822303772
 20
6.55973541140556
 30
0.0
 70
     0
  0
VERTEX
  8
1
 10
9.52439214587212
 20
6.60749472975731
 30
0.0
 70
     0
  0
VERTEX
  8
1
 10
9.56268090009689
 20
6.65858399868011
 30
0.0
 70
     0
  0
VERTEX
  8
1
 10
9.60204077959061
 20
6.71305696368217
 30
0.0
 70
     0
  0
VERTEX
  8
1
 10
9.64236505031586
 20
6.77096509933472
 30
0.0
 70
     0
  0
VERTEX
  8
1
 10
9.6835431933403
 20
6.83235988020897
 30
0.0
 70
     0
  0
VERTEX
  8
1
 10
9.72546696066856
 20
6.89728596806526
 30
0.0
 70
     0
  0
VERTEX
  8
1
 10
9.76950724124908
 20
6.96824442148209
 30
0.0
 70
     0
  0
VERTEX
  8
1
 10
9.64613859057426
 20
7.13804540634155
 30
0.0
 70
     0
  0
VERTEX
  8
1
 10
9.56504267454147
 20
7.11808765530586
 30
0.0
 70
     0
  0
VERTEX
  8
1
 10
9.49033944606781
 20
7.09827978610992
 30
0.0
 70
     0
  0
VERTEX
  8
1
 10
9.41922505497932
 20
7.07808737158775
 30
0.0
 70
     0
  0
VERTEX
  8
1
 10
9.35169041752815
 20
7.05763228535652
 30
0.0
 70
     0
  0
VERTEX
  8
1
 10
9.28772115111351
 20
7.03703185915947
 30
0.0
 70
     0
  0
VERTEX
  8
1
 10
9.22730060219765
 20
7.01640342473984
 30
0.0
 70
     0
  0
VERTEX
  8
1
 10
9.17040984630585
 20
6.99586582779884
 30
0.0
 70
     0
  0
VERTEX
  8
1
 10
9.11702541708946
 20
6.97553412914276
 30
0.0
 70
     0
  0
VERTEX
  8
1
 10
9.05312125086784
 20
6.94969540834427
 30
0.0
 42
-0.000043633177397
 70
     0
  0
VERTEX
  8
1
 10
8.93340880870819
 20
7.10292006731033
 30
0.0
 70
     0
  0
VERTEX
  8
1
 10
8.97393973469734
 20
7.15867459774017
 30
0.0
 70
     0
  0
VERTEX
  8
1
 10
9.0065821826458
 20
7.20555430650711
 30
0.0
 70
     0
  0
VERTEX
  8
1
 10
9.04027380347252
 20
7.25578667521477
 30
0.0
 70
     0
  0
VERTEX
  8
1
 10
9.07490559220314
 20
7.30942166447639
 30
0.0
 70
     0
  0
VERTEX
  8
1
 10
9.11037005782127
 20
7.36650696396828
 30
0.0
 70
     0
  0
VERTEX
  8
1
 10
9.14655668139458
 20
7.42708799242973
 30
0.0
 70
     0
  0
VERTEX
  8
1
 10
9.18335191607475
 20
7.49120486974716
 30
0.0
 70
     0
  0
VERTEX
  8
1
 10
9.22064448595047
 20
7.55889695882797
 30
0.0
 70
     0
  0
VERTEX
  8
1
 10
9.25962738990784
 20
7.63275539875031
 30
0.0
 70
     0
  0
VERTEX
  8
1
 10
9.12471405267715
 20
7.79353622198105
 30
0.0
 70
     0
  0
VERTEX
  8
1
 10
9.0452093064785
 20
7.76797077059746
 30
0.0
 70
     0
  0
VERTEX
  8
1
 10
8.97206999659538
 20
7.74299954771995
 30
0.0
 70
     0
  0
VERTEX
  8
1
 10
8.90253693461418
 20
7.71789661049843
 30
0.0
 70
     0
  0
VERTEX
  8
1
 10
8.83659271001816
 20
7.69278004765511
 30
0.0
 70
     0
  0
VERTEX
  8
1
 10
8.77421688437462
 20
7.66776719093323
 30
0.0
 70
     0
  0
VERTEX
  8
1
 10
8.71538220643997
 20
7.64297537207603
 30
0.0
 70
     0
  0
VERTEX
  8
1
 10
8.6600629389286
 20
7.61851889491081
 30
0.0
 70
     0
  0
VERTEX
  8
1
 10
8.60822804570198
 20
7.59451206326485
 30
0.0
 70
     0
  0
VERTEX
  8
1
 10
8.54627991318703
 20
7.56427832245827
 30
0.0
 42
-0.000043633092383
 70
     0
  0
VERTEX
  8
1
 10
8.41617187857628
 20
7.70877955555916
 30
0.0
 70
     0
  0
VERTEX
  8
1
 10
8.45271428227425
 20
7.76722590327263
 30
0.0
 70
     0
  0
VERTEX
  8
1
 10
8.48200709819794
 20
7.81626754403114
 30
0.0
 70
     0
  0
VERTEX
  8
1
 10
8.51211290955544
 20
7.86872845888138
 30
0.0
 70
     0
  0
VERTEX
  8
1
 10
8.54291892647743
 20
7.92464801073074
 30
0.0
 70
     0
  0
VERTEX
  8
1
 10
8.57431463003159
 20
7.9840685904026
 30
0.0
 70
     0
  0
VERTEX
  8
1
 10
8.6061864733696
 20
8.04702653288841
 30
0.0
 70
     0
  0
VERTEX
  8
1
 10
8.63842015266418
 20
8.11355363130569
 30
0.0
 70
     0
  0
VERTEX
  8
1
 10
8.67090060710907
 20
8.18368243575096
 30
0.0
 70
     0
  0
VERTEX
  8
1
 10
8.70463537573814
 20
8.26007902622223
 30
0.0
 70
     0
  0
VERTEX
  8
1
 10
8.55883592367172
 20
8.41105848550797
 30
0.0
 70
     0
  0
VERTEX
  8
1
 10
8.48130764961243
 20
8.38000872135162
 30
0.0
 70
     0
  0
VERTEX
  8
1
 10
8.41008803844452
 20
8.34999677538872
 30
0.0
 70
     0
  0
VERTEX
  8
1
 10
8.34247618913651
 20
8.32010443210602
 30
0.0
 70
     0
  0
VERTEX
  8
1
 10
8.2784440934658
 20
8.29044826626778
 30
0.0
 70
     0
  0
VERTEX
  8
1
 10
8.21796601414681
 20
8.26114636659622
 30
0.0
 70
     0
  0
VERTEX
  8
1
 10
8.16100410223007
 20
8.23231000900268
 30
0.0
 70
     0
  0
VERTEX
  8
1
 10
8.10752505064011
 20
8.20405501127243
 30
0.0
 70
     0
  0
VERTEX
  8
1
 10
8.05749101042747
 20
8.17649113535881
 30
0.0
 70
     0
  0
VERTEX
  8
1
 10
7.99780321717262
 20
8.14200922846794
 30
0.0
 42
-0.000043633382545
 70
     0
  0
VERTEX
  8
1
 10
7.85793091058731
 20
8.27708304524422
 30
0.0
 70
     0
  0
VERTEX
  8
1
 10
7.89030841588974
 20
8.33793658614159
 30
0.0
 70
     0
  0
VERTEX
  8
1
 10
7.91610853075981
 20
8.38890246748924
 30
0.0
 70
     0
  0
VERTEX
  8
1
 10
7.94248167872429
 20
8.44333455562592
 30
0.0
 70
     0
  0
VERTEX
  8
1
 10
7.96931204199791
 20
8.50126767158508
 30
0.0
 70
     0
  0
VERTEX
  8
1
 10
7.99648683071136
 20
8.56273360848427
 30
0.0
 70
     0
  0
VERTEX
  8
1
 10
8.0238894701004
 20
8.62776113152504
 30
0.0
 70
     0
  0
VERTEX
  8
1
 10
8.05140338540077
 20
8.69637446403503
 30
0.0
 70
     0
  0
VERTEX
  8
1
 10
8.07891200184822
 20
8.76859858632088
 30
0.0
 70
     0
  0
VERTEX
  8
1
 10
8.10723664164543
 20
8.84716240763664
 30
0.0
 70
     0
  0
VERTEX
  8
1
 10
7.95125960707664
 20
8.98760320544243
 30
0.0
 70
     0
  0
VERTEX
  8
1
 10
7.87608629465103
 20
8.95122052431107
 30
0.0
 70
     0
  0
VERTEX
  8
1
 10
7.80713383555412
 20
8.91631395220757
 30
0.0
 70
     0
  0
VERTEX
  8
1
 10
7.74177172780037
 20
8.8817782998085
 30
0.0
 70
     0
  0
VERTEX
  8
1
 10
7.67996515035629
 20
8.84772787094116
 30
0.0
 70
     0
  0
VERTEX
  8
1
 10
7.62167701125145
 20
8.81427848339081
 30
0.0
 70
     0
  0
VERTEX
  8
1
 10
7.56686567664146
 20
8.78153914213181
 30
0.0
 70
     0
  0
VERTEX
  8
1
 10
7.51548875570297
 20
8.74962112307549
 30
0.0
 70
     0
  0
VERTEX
  8
1
 10
7.46749855875969
 20
8.71863494515419
 30
0.0
 70
     0
  0
VERTEX
  8
1
 10
7.41036254167557
 20
8.6800736784935
 30
0.0
 42
-0.000043633379691
 70
     0
  0
VERTEX
  8
1
 10
7.26140875816345
 20
8.80506150722504
 30
0.0
 70
     0
  0
VERTEX
  8
1
 10
7.28946239948273
 20
8.86802474856377
 30
0.0
 70
     0
  0
VERTEX
  8
1
 10
7.31164415478706
 20
8.92066658139229
 30
0.0
 70
     0
  0
VERTEX
  8
1
 10
7.33415595293045
 20
8.97680565714836
 30
0.0
 70
     0
  0
VERTEX
  8
1
 10
7.35687970519066
 20
9.03646922707558
 30
0.0
 70
     0
  0
VERTEX
  8
1
 10
7.37969959378242
 20
9.09968075752258
 30
0.0
 70
     0
  0
VERTEX
  8
1
 10
7.40249980092049
 20
9.16646068692207
 30
0.0
 70
     0
  0
VERTEX
  8
1
 10
7.42516072392464
 20
9.23682718276977
 30
0.0
 70
     0
  0
VERTEX
  8
1
 10
7.44756427407265
 20
9.31079387068749
 30
0.0
 70
     0
  0
VERTEX
  8
1
 10
7.47033950090408
 20
9.39114264845848
 30
0.0
 70
     0
  0
VERTEX
  8
1
 10
7.30494640469551
 20
9.52036047577858
 30
0.0
 70
     0
  0
VERTEX
  8
1
 10
7.2324936747551
 20
9.47882352471352
 30
0.0
 70
     0
  0
VERTEX
  8
1
 10
7.16614446640015
 20
9.43919188976288
 30
0.0
 70
     0
  0
VERTEX
  8
1
 10
7.10335078835487
 20
9.40018022060394
 30
0.0
 70
     0
  0
VERTEX
  8
1
 10
7.04406949281692
 20
9.36190206408501
 30
0.0
 70
     0
  0
VERTEX
  8
1
 10
6.98825667500496
 20
9.32446793913841
 30
0.0
 70
     0
  0
VERTEX
  8
1
 10
6.93586313128471
 20
9.28798457980156
 30
0.0
 70
     0
  0
VERTEX
  8
1
 10
6.88683663010597
 20
9.25256099104881
 30
0.0
 70
     0
  0
VERTEX
  8
1
 10
6.84112569689751
 20
9.21830163598061
 30
0.0
 70
     0
  0
VERTEX
  8
1
 10
6.78681851029396
 20
9.17584874033928
 30
0.0
 42
-0.000043633510352
 70
     0
  0
VERTEX
  8
1
 10
6.62950843572617
 20
9.2901419699192
 30
0.0
 70
     0
  0
VERTEX
  8
1
 10
6.65310195684433
 20
9.35490833520889
 30
0.0
 70
     0
  0
VERTEX
  8
1
 10
6.67155786156654
 20
9.40896950364113
 30
0.0
 70
     0
  0
VERTEX
  8
1
 10
6.69009854793549
 20
9.4665422976017
 30
0.0
 70
     0
  0
VERTEX
  8
1
 10
6.70860517024994
 20
9.52764564156532
 30
0.0
 70
     0
  0
VERTEX
  8
1
 10
6.72696039676666
 20
9.59229467511177
 30
0.0
 70
     0
  0
VERTEX
  8
1
 10
6.74504613876343
 20
9.66050378084183
 30
0.0
 70
     0
  0
VERTEX
  8
1
 10
6.76274355053902
 20
9.73227825760841
 30
0.0
 70
     0
  0
VERTEX
  8
1
 10
6.77993302941322
 20
9.80762794613838
 30
0.0
 70
     0
  0
VERTEX
  8
1
 10
6.79704756736755
 20
9.88936956524849
 30
0.0
 70
     0
  0
VERTEX
  8
1
 10
6.62304383516312
 20
10.0067361295223
 30
0.0
 70
     0
  0
VERTEX
  8
1
 10
6.5536651968956
 20
9.96024550795555
 30
0.0
 70
     0
  0
VERTEX
  8
1
 10
6.49024171233177
 20
9.91608259677887
 30
0.0
 70
     0
  0
VERTEX
  8
1
 10
6.4303215265274
 20
9.8727856695652
 30
0.0
 70
     0
  0
VERTEX
  8
1
 10
6.37385543584824
 20
9.8304644882679
 30
0.0
 70
     0
  0
VERTEX
  8
1
 10
6.32079045176506
 20
9.78922881484032
 30
0.0
 70
     0
  0
VERTEX
  8
1
 10
6.27106904387474
 20
9.74917932748794
 30
0.0
 70
     0
  0
VERTEX
  8
1
 10
6.22463330328464
 20
9.71042276024818
 30
0.0
 70
     0
  0
VERTEX
  8
1
 10
6.18142305016518
 20
9.67305827736855
 30
0.0
 70
     0
  0
VERTEX
  8
1
 10
6.13020963668823
 20
9.62692116498947
 30
0.0
 42
-0.000043633198909
 70
     0
  0
VERTEX
  8
1
 10
5.96531084775925
 20
9.72996114492416
 30
0.0
 70
     0
  0
VERTEX
  8
1
 10
5.98432843089104
 20
9.79621648788452
 30
0.0
 70
     0
  0
VERTEX
  8
1
 10
5.99896878302097
 20
9.85143280625343
 30
0.0
 70
     0
  0
VERTEX
  8
1
 10
6.01344789862633
 20
9.91015999317169
 30
0.0
 70
     0
  0
VERTEX
  8
1
 10
6.02764693200588
 20
9.97240486145019
 30
0.0
 70
     0
  0
VERTEX
  8
1
 10
6.0414481729269
 20
10.0381772518158
 30
0.0
 70
     0
  0
VERTEX
  8
1
 10
6.05473239719868
 20
10.1074809491634
 30
0.0
 70
     0
  0
VERTEX
  8
1
 10
6.0673796236515
 20
10.1803151965141
 30
0.0
 70
     0
  0
VERTEX
  8
1
 10
6.07927062809467
 20
10.2566799938679
 30
0.0
 70
     0
  0
VERTEX
  8
1
 10
6.09064158797264
 20
10.3394162833691
 30
0.0
 70
     0
  0
VERTEX
  8
1
 10
5.90887465775013
 20
10.4443593084812
 30
0.0
 70
     0
  0
VERTEX
  8
1
 10
5.84290772378445
 20
10.3931421101093
 30
0.0
 70
     0
  0
VERTEX
  8
1
 10
5.78272032439709
 20
10.3446629047394
 30
0.0
 70
     0
  0
VERTEX
  8
1
 10
5.72596658170223
 20
10.2972919166088
 30
0.0
 70
     0
  0
VERTEX
  8
1
 10
5.67258972227573
 20
10.251135879755
 30
0.0
 70
     0
  0
VERTEX
  8
1
 10
5.62252994477749
 20
10.2062977433205
 30
0.0
 70
     0
  0
VERTEX
  8
1
 10
5.57572328448296
 20
10.1628781855106
 30
0.0
 70
     0
  0
VERTEX
  8
1
 10
5.53210464119911
 20
10.1209756135941
 30
0.0
 70
     0
  0
VERTEX
  8
1
 10
5.49160588681698
 20
10.0806891918182
 30
0.0
 70
     0
  0
VERTEX
  8
1
 10
5.4437356710434
 20
10.0310919284821
 30
0.0
 42
-0.000043633202076
 70
     0
  0
VERTEX
  8
1
 10
5.27205094397068
 20
10.12237829566
 30
0.0
 70
     0
  0
VERTEX
  8
1
 10
5.28640023767948
 20
10.1897986292839
 30
0.0
 70
     0
  0
VERTEX
  8
1
 10
5.29715274572372
 20
10.2459021270275
 30
0.0
 70
     0
  0
VERTEX
  8
1
 10
5.30749989151955
 20
10.3054952979088
 30
0.0
 70
     0
  0
VERTEX
  8
1
 10
5.31732245087624
 20
10.3685796558857
 30
0.0
 70
     0
  0
VERTEX
  8
1
 10
5.32650195658207
 20
10.4351544439793
 30
0.0
 70
     0
  0
VERTEX
  8
1
 10
5.33491918444633
 20
10.5052158772945
 30
0.0
 70
     0
  0
VERTEX
  8
1
 10
5.34245491027832
 20
10.5787556290627
 30
0.0
 70
     0
  0
VERTEX
  8
1
 10
5.34899028837681
 20
10.6557638585567
 30
0.0
 70
     0
  0
VERTEX
  8
1
 10
5.35456241071224
 20
10.7390913486481
 30
0.0
 70
     0
  0
VERTEX
  8
1
 10
5.16591756939888
 20
10.8310998737812
 30
0.0
 70
     0
  0
VERTEX
  8
1
 10
5.10368405580521
 20
10.7754059016705
 30
0.0
 70
     0
  0
VERTEX
  8
1
 10
5.04702493548393
 20
10.7228458225727
 30
0.0
 70
     0
  0
VERTEX
  8
1
 10
4.99371431171894
 20
10.6716308951378
 30
0.0
 70
     0
  0
VERTEX
  8
1
 10
4.94368708431721
 20
10.6218640685081
 30
0.0
 70
     0
  0
VERTEX
  8
1
 10
4.89687739610672
 20
10.5736437499523
 30
0.0
 70
     0
  0
VERTEX
  8
1
 10
4.85321295559406
 20
10.5270645618439
 30
0.0
 70
     0
  0
VERTEX
  8
1
 10
4.81262374222279
 20
10.4822218835354
 30
0.0
 70
     0
  0
VERTEX
  8
1
 10
4.77503405809402
 20
10.4392073094845
 30
0.0
 70
     0
  0
VERTEX
  8
1
 10
4.73073981106281
 20
10.3863913714886
 30
0.0
 42
-0.000043633228686
 70
     0
  0
VERTEX
  8
1
 10
4.55310560762882
 20
10.4654797792435
 30
0.0
 70
     0
  0
VERTEX
  8
1
 10
4.56271696984768
 20
10.5337373316288
 30
0.0
 70
     0
  0
VERTEX
  8
1
 10
4.56952978074551
 20
10.5904532253742
 30
0.0
 70
     0
  0
VERTEX
  8
1
 10
4.57569499611855
 20
10.6506239712238
 30
0.0
 70
     0
  0
VERTEX
  8
1
 10
4.58109301328659
 20
10.7142389714718
 30
0.0
 70
     0
  0
VERTEX
  8
1
 10
4.58560574352741
 20
10.7812921702862
 30
0.0
 70
     0
  0
VERTEX
  8
1
 10
4.58911509811878
 20
10.8517706990242
 30
0.0
 70
     0
  0
VERTEX
  8
1
 10
4.59150298833847
 20
10.9256571471691
 30
0.0
 70
     0
  0
VERTEX
  8
1
 10
4.59265056848526
 20
11.0029333472252
 30
0.0
 70
     0
  0
VERTEX
  8
1
 10
4.59239622354507
 20
11.0864462971687
 30
0.0
 70
     0
  0
VERTEX
  8
1
 10
4.39779282212257
 20
11.1650714337826
 30
0.0
 70
     0
  0
VERTEX
  8
1
 10
4.33959589898586
 20
11.1051716864109
 30
0.0
 70
     0
  0
VERTEX
  8
1
 10
4.28674135506153
 20
11.0487873494625
 30
0.0
 70
     0
  0
VERTEX
  8
1
 10
4.23713273704052
 20
10.9939790427685
 30
0.0
 70
     0
  0
VERTEX
  8
1
 10
4.19069926738739
 20
10.9408429026604
 30
0.0
 70
     0
  0
VERTEX
  8
1
 10
4.14736714065075
 20
10.8894750654697
 30
0.0
 70
     0
  0
VERTEX
  8
1
 10
4.10705838799477
 20
10.8399633407593
 30
0.0
 70
     0
  0
VERTEX
  8
1
 10
4.06969617605209
 20
10.7923993229866
 30
0.0
 70
     0
  0
VERTEX
  8
1
 10
4.03519837260246
 20
10.7468677937984
 30
0.0
 70
     0
  0
VERTEX
  8
1
 10
3.99469659030437
 20
10.69108979702
 30
0.0
 42
-0.000043633357839
 70
     0
  0
VERTEX
  8
1
 10
3.81197775900364
 20
10.7575949430466
 30
0.0
 70
     0
  0
VERTEX
  8
1
 10
3.81680425703526
 20
10.8263558864594
 30
0.0
 70
     0
  0
VERTEX
  8
1
 10
3.81964444220066
 20
10.8834086358547
 30
0.0
 70
     0
  0
VERTEX
  8
1
 10
3.82159706950188
 20
10.9438624918461
 30
0.0
 70
     0
  0
VERTEX
  8
1
 10
3.82254480719566
 20
11.0076992869377
 30
0.0
 70
     0
  0
VERTEX
  8
1
 10
3.8223691880703
 20
11.0749038815498
 30
0.0
 70
     0
  0
VERTEX
  8
1
 10
3.82095401585102
 20
11.1454558372498
 30
0.0
 70
     0
  0
VERTEX
  8
1
 10
3.8181815803051
 20
11.2193279027939
 30
0.0
 70
     0
  0
VERTEX
  8
1
 10
3.81393568515778
 20
11.2964966118336
 30
0.0
 70
     0
  0
VERTEX
  8
1
 10
3.80785676538944
 20
11.3797885239124
 30
0.0
 70
     0
  0
VERTEX
  8
1
 10
3.60824254155159
 20
11.4446464836597
 30
0.0
 70
     0
  0
VERTEX
  8
1
 10
3.55436569750309
 20
11.3808339118958
 30
0.0
 70
     0
  0
VERTEX
  8
1
 10
3.50557310283184
 20
11.3209001004696
 30
0.0
 70
     0
  0
VERTEX
  8
1
 10
3.45990872383118
 20
11.2627641141415
 30
0.0
 70
     0
  0
VERTEX
  8
1
 10
3.41729497015476
 20
11.206519061327
 30
0.0
 70
     0
  0
VERTEX
  8
1
 10
3.37765122354031
 20
11.1522535085678
 30
0.0
 70
     0
  0
VERTEX
  8
1
 10
3.34089497327805
 20
11.1000507235527
 30
0.0
 70
     0
  0
VERTEX
  8
1
 10
3.30694143772125
 20
11.0499954879284
 30
0.0
 70
     0
  0
VERTEX
  8
1
 10
3.27570356428623
 20
11.0021687984467
 30
0.0
 70
     0
  0
VERTEX
  8
1
 10
3.2391918182373
 20
10.9437012553215
 30
0.0
 42
-0.000043633344418
 70
     0
  0
VERTEX
  8
1
 10
3.05227894484997
 20
10.9972983956337
 30
0.0
 70
     0
  0
VERTEX
  8
1
 10
3.05229692310095
 20
11.0662296593189
 30
0.0
 70
     0
  0
VERTEX
  8
1
 10
3.05115028917789
 20
11.1233422100544
 30
0.0
 70
     0
  0
VERTEX
  8
1
 10
3.04888143390417
 20
11.1837847113609
 30
0.0
 70
     0
  0
VERTEX
  8
1
 10
3.04537340402603
 20
11.2475329399109
 30
0.0
 70
     0
  0
VERTEX
  8
1
 10
3.04051038175821
 20
11.3145611584187
 30
0.0
 70
     0
  0
VERTEX
  8
1
 10
3.03417730629444
 20
11.3848421156406
 30
0.0
 70
     0
  0
VERTEX
  8
1
 10
3.02625835984945
 20
11.4583409905434
 30
0.0
 70
     0
  0
VERTEX
  8
1
 10
3.0166401848197
 20
11.5350252330303
 30
0.0
 70
     0
  0
VERTEX
  8
1
 10
3.00476526618004
 20
11.6176911234856
 30
0.0
 70
     0
  0
VERTEX
  8
1
 10
2.80111350566149
 20
11.6684662461281
 30
0.0
 70
     0
  0
VERTEX
  8
1
 10
2.75181960165501
 20
11.6010512113571
 30
0.0
 70
     0
  0
VERTEX
  8
1
 10
2.70732626914978
 20
11.5378586053848
 30
0.0
 70
     0
  0
VERTEX
  8
1
 10
2.66582849174738
 20
11.4766795635223
 30
0.0
 70
     0
  0
VERTEX
  8
1
 10
2.62724167704582
 20
11.4175988674164
 30
0.0
 70
     0
  0
VERTEX
  8
1
 10
2.59148028641939
 20
11.3606997847557
 30
0.0
 70
     0
  0
VERTEX
  8
1
 10
2.55845480710268
 20
11.3060602843761
 30
0.0
 70
     0
  0
VERTEX
  8
1
 10
2.52807572633028
 20
11.2537590920925
 30
0.0
 70
     0
  0
VERTEX
  8
1
 10
2.50025050342083
 20
11.2038696348667
 30
0.0
 70
     0
  0
VERTEX
  8
1
 10
2.46790573745966
 20
11.1429986834526
 30
0.0
 42
-0.000043633255259
 70
     0
  0
VERTEX
  8
1
 10
2.27770965695381
 20
11.1834259033203
 30
0.0
 70
     0
  0
VERTEX
  8
1
 10
2.2729193046689
 20
11.252189874649
 30
0.0
 70
     0
  0
VERTEX
  8
1
 10
2.26779133975506
 20
11.3090836584568
 30
0.0
 70
     0
  0
VERTEX
  8
1
 10
2.26131159961224
 20
11.3692203402519
 30
0.0
 70
     0
  0
VERTEX
  8
1
 10
2.25336540192366
 20
11.4325681269169
 30
0.0
 70
     0
  0
VERTEX
  8
1
 10
2.24383844286203
 20
11.4990937113762
 30
0.0
 70
     0
  0
VERTEX
  8
1
 10
2.23261812180281
 20
11.5687615156174
 30
0.0
 70
     0
  0
VERTEX
  8
1
 10
2.21959164887667
 20
11.6415299057961
 30
0.0
 70
     0
  0
VERTEX
  8
1
 10
2.20464736968279
 20
11.7173564910889
 30
0.0
 70
     0
  0
VERTEX
  8
1
 10
2.18703530728817
 20
11.7989921331406
 30
0.0
 70
     0
  0
VERTEX
  8
1
 10
1.98033765256405
 20
11.835437643528
 30
0.0
 70
     0
  0
VERTEX
  8
1
 10
1.93586627244949
 20
11.7647486746311
 30
0.0
 70
     0
  0
VERTEX
  8
1
 10
1.89588945508003
 20
11.6986061215401
 30
0.0
 70
     0
  0
VERTEX
  8
1
 10
1.85876039266586
 20
11.6346815168858
 30
0.0
 70
     0
  0
VERTEX
  8
1
 10
1.82438900470734
 20
11.573052829504
 30
0.0
 70
     0
  0
VERTEX
  8
1
 10
1.79268369674683
 20
11.5137980282307
 30
0.0
 70
     0
  0
VERTEX
  8
1
 10
1.76355041414499
 20
11.4569875121117
 30
0.0
 70
     0
  0
VERTEX
  8
1
 10
1.73689377754927
 20
11.4026947081089
 30
0.0
 70
     0
  0
VERTEX
  8
1
 10
1.71261632591486
 20
11.3509862303734
 30
0.0
 70
     0
  0
VERTEX
  8
1
 10
1.68459637016058
 20
11.2880063354969
 30
0.0
 42
-0.000043633319341
 70
     0
  0
VERTEX
  8
1
 10
1.4920433409512
 20
11.315068334341
 30
0.0
 70
     0
  0
VERTEX
  8
1
 10
1.48246802985668
 20
11.3833304286003
 30
0.0
 70
     0
  0
VERTEX
  8
1
 10
1.47338399812579
 20
11.4397276341915
 30
0.0
 70
     0
  0
VERTEX
  8
1
 10
1.46272507160902
 20
11.4992655456066
 30
0.0
 70
     0
  0
VERTEX
  8
1
 10
1.45037912279367
 20
11.5619055569172
 30
0.0
 70
     0
  0
VERTEX
  8
1
 10
1.4362349703908
 20
11.6276045203209
 30
0.0
 70
     0
  0
VERTEX
  8
1
 10
1.42018209546804
 20
11.6963200449944
 30
0.0
 70
     0
  0
VERTEX
  8
1
 10
1.4021113038063
 20
11.7680014133453
 30
0.0
 70
     0
  0
VERTEX
  8
1
 10
1.38191425278783
 20
11.8426009356976
 30
0.0
 70
     0
  0
VERTEX
  8
1
 10
1.35865020677447
 20
11.9228096723557
 30
0.0
 70
     0
  0
VERTEX
  8
1
 10
1.1499137237668
 20
11.9447484374046
 30
0.0
 70
     0
  0
VERTEX
  8
1
 10
1.1104818366468
 20
11.8711276888847
 30
0.0
 70
     0
  0
VERTEX
  8
1
 10
1.07521626725793
 20
11.8023591756821
 30
0.0
 70
     0
  0
VERTEX
  8
1
 10
1.04263683781028
 20
11.7360001266003
 30
0.0
 70
     0
  0
VERTEX
  8
1
 10
1.01264816895127
 20
11.6721232116222
 30
0.0
 70
     0
  0
VERTEX
  8
1
 10
0.985153461992741
 20
11.6108018577099
 30
0.0
 70
     0
  0
VERTEX
  8
1
 10
0.960054025799036
 20
11.5520973801613
 30
0.0
 70
     0
  0
VERTEX
  8
1
 10
0.937249560654163
 20
11.4960771501064
 30
0.0
 70
     0
  0
VERTEX
  8
1
 10
0.916638347506523
 20
11.4428002119064
 30
0.0
 70
     0
  0
VERTEX
  8
1
 10
0.893079931288958
 20
11.3780202209949
 30
0.0
 42
-0.000043633307726
 70
     0
  0
VERTEX
  8
1
 10
0.69910827614367
 20
11.3915845274925
 30
0.0
 70
     0
  0
VERTEX
  8
1
 10
0.684794465824962
 20
11.4590116739273
 30
0.0
 70
     0
  0
VERTEX
  8
1
 10
0.671798366680741
 20
11.5146382749081
 30
0.0
 70
     0
  0
VERTEX
  8
1
 10
0.65701229609549
 20
11.5732882499695
 30
0.0
 70
     0
  0
VERTEX
  8
1
 10
0.640326965227723
 20
11.6349131524563
 30
0.0
 70
     0
  0
VERTEX
  8
1
 10
0.621634268015623
 20
11.6994660496712
 30
0.0
 70
     0
  0
VERTEX
  8
1
 10
0.600827233865857
 20
11.7668939530849
 30
0.0
 70
     0
  0
VERTEX
  8
1
 10
0.577800122275948
 20
11.8371408462524
 30
0.0
 70
     0
  0
VERTEX
  8
1
 10
0.55244837552309
 20
11.9101499557495
 30
0.0
 70
     0
  0
VERTEX
  8
1
 10
0.52364598736167
 20
11.9885396718979
 30
0.0
 70
     0
  0
VERTEX
  8
1
 10
0.313887771964073
 20
11.995864200592
 30
0.0
 70
     0
  0
VERTEX
  8
1
 10
0.279687319323421
 20
11.9196735084057
 30
0.0
 70
     0
  0
VERTEX
  8
1
 10
0.249304737523198
 20
11.8486121058464
 30
0.0
 70
     0
  0
VERTEX
  8
1
 10
0.221433622762561
 20
11.7801418423653
 30
0.0
 70
     0
  0
VERTEX
  8
1
 10
0.195973817259073
 20
11.7143293321133
 30
0.0
 70
     0
  0
VERTEX
  8
1
 10
0.172823791205883
 20
11.6512381613255
 30
0.0
 70
     0
  0
VERTEX
  8
1
 10
0.151880453526974
 20
11.590926617384
 30
0.0
 70
     0
  0
VERTEX
  8
1
 10
0.133039317466319
 20
11.5334522306919
 30
0.0
 70
     0
  0
VERTEX
  8
1
 10
0.116194689832628
 20
11.4788672327995
 30
0.0
 70
     0
  0
VERTEX
  8
1
 10
0.097212495468557
 20
11.4126012921333
 30
0.0
 42
-0.000043633311479
 70
     0
  0
VERTEX
  8
1
 10
-0.09723286293447
 20
11.4126020491123
 30
0.0
 70
     0
  0
VERTEX
  8
1
 10
-0.116215388476849
 20
11.4788664758205
 30
0.0
 70
     0
  0
VERTEX
  8
1
 10
-0.133060063421726
 20
11.5334507167339
 30
0.0
 70
     0
  0
VERTEX
  8
1
 10
-0.151901341415942
 20
11.590926617384
 30
0.0
 70
     0
  0
VERTEX
  8
1
 10
-0.172844844684005
 20
11.6512381613255
 30
0.0
 70
     0
  0
VERTEX
  8
1
 10
-0.195994918048382
 20
11.7143293321133
 30
0.0
 70
     0
  0
VERTEX
  8
1
 10
-0.22145486548543
 20
11.7801410853863
 30
0.0
 70
     0
  0
VERTEX
  8
1
 10
-0.249326074868441
 20
11.8486105918884
 30
0.0
 70
     0
  0
VERTEX
  8
1
 10
-0.279708822257817
 20
11.9196735084057
 30
0.0
 70
     0
  0
VERTEX
  8
1
 10
-0.31390934586525
 20
11.9958634436131
 30
0.0
 70
     0
  0
VERTEX
  8
1
 10
-0.523667513951659
 20
11.9885374009609
 30
0.0
 70
     0
  0
VERTEX
  8
1
 10
-0.552469807490706
 20
11.9101469278336
 30
0.0
 70
     0
  0
VERTEX
  8
1
 10
-0.577821364998817
 20
11.8371393322945
 30
0.0
 70
     0
  0
VERTEX
  8
1
 10
-0.600848381966352
 20
11.766891682148
 30
0.0
 70
     0
  0
VERTEX
  8
1
 10
-0.621655274182558
 20
11.6994630217552
 30
0.0
 70
     0
  0
VERTEX
  8
1
 10
-0.640347924083471
 20
11.6349116384983
 30
0.0
 70
     0
  0
VERTEX
  8
1
 10
-0.657033113017678
 20
11.5732852220535
 30
0.0
 70
     0
  0
VERTEX
  8
1
 10
-0.671819088980556
 20
11.5146367609501
 30
0.0
 70
     0
  0
VERTEX
  8
1
 10
-0.684815046191215
 20
11.4590094029903
 30
0.0
 70
     0
  0
VERTEX
  8
1
 10
-0.699128572642803
 20
11.3915807425976
 30
0.0
 42
-0.000043633299155
 70
     0
  0
VERTEX
  8
1
 10
-0.893100275099277
 20
11.378017950058
 30
0.0
 70
     0
  0
VERTEX
  8
1
 10
-0.916658975183964
 20
11.4427971839905
 30
0.0
 70
     0
  0
VERTEX
  8
1
 10
-0.937270282953978
 20
11.4960733652115
 30
0.0
 70
     0
  0
VERTEX
  8
1
 10
-0.960074937343597
 20
11.5520951092243
 30
0.0
 70
     0
  0
VERTEX
  8
1
 10
-0.985174468159676
 20
11.6107980728149
 30
0.0
 70
     0
  0
VERTEX
  8
1
 10
-1.01266936436296
 20
11.6721209406853
 30
0.0
 70
     0
  0
VERTEX
  8
1
 10
-1.04265803322196
 20
11.7359970986843
 30
0.0
 70
     0
  0
VERTEX
  8
1
 10
-1.07523755729198
 20
11.8023561477661
 30
0.0
 70
     0
  0
VERTEX
  8
1
 10
-1.11050341054797
 20
11.8711254179478
 30
0.0
 70
     0
  0
VERTEX
  8
1
 10
-1.14993529766798
 20
11.9447446525097
 30
0.0
 70
     0
  0
VERTEX
  8
1
 10
-1.35867149680853
 20
11.9228043735027
 30
0.0
 70
     0
  0
VERTEX
  8
1
 10
-1.38193535357714
 20
11.8425956368446
 30
0.0
 70
     0
  0
VERTEX
  8
1
 10
-1.40213240459561
 20
11.7679968714714
 30
0.0
 70
     0
  0
VERTEX
  8
1
 10
-1.42020300701261
 20
11.6963139891624
 30
0.0
 70
     0
  0
VERTEX
  8
1
 10
-1.43625578731298
 20
11.627599221468
 30
0.0
 70
     0
  0
VERTEX
  8
1
 10
-1.45039984509349
 20
11.5619002580643
 30
0.0
 70
     0
  0
VERTEX
  8
1
 10
-1.46274569928646
 20
11.4992602467537
 30
0.0
 70
     0
  0
VERTEX
  8
1
 10
-1.47340443655848
 20
11.4397223353386
 30
0.0
 70
     0
  0
VERTEX
  8
1
 10
-1.482488373667
 20
11.3833258867264
 30
0.0
 70
     0
  0
VERTEX
  8
1
 10
-1.49206349551678
 20
11.3150630354881
 30
0.0
 42
-0.000043633325889
 70
     0
  0
VERTEX
  8
1
 10
-1.68461661934853
 20
11.288001793623
 30
0.0
 70
     0
  0
VERTEX
  8
1
 10
-1.71263676434755
 20
11.3509794175625
 30
0.0
 70
     0
  0
VERTEX
  8
1
 10
-1.73691421598196
 20
11.402688652277
 30
0.0
 70
     0
  0
VERTEX
  8
1
 10
-1.76357123106718
 20
11.4569822132587
 30
0.0
 70
     0
  0
VERTEX
  8
1
 10
-1.79270470291376
 20
11.5137919723988
 30
0.0
 70
     0
  0
VERTEX
  8
1
 10
-1.82441001087427
 20
11.5730475306511
 30
0.0
 70
     0
  0
VERTEX
  8
1
 10
-1.8587813988328
 20
11.6346762180328
 30
0.0
 70
     0
  0
VERTEX
  8
1
 10
-1.89591065049171
 20
11.6986000657082
 30
0.0
 70
     0
  0
VERTEX
  8
1
 10
-1.93588765710592
 20
11.7647426187992
 30
0.0
 70
     0
  0
VERTEX
  8
1
 10
-1.98035884797573
 20
11.8354315876961
 30
0.0
 70
     0
  0
VERTEX
  8
1
 10
-2.1870563134551
 20
11.7989845633507
 30
0.0
 70
     0
  0
VERTEX
  8
1
 10
-2.20466837584972
 20
11.717347407341
 30
0.0
 70
     0
  0
VERTEX
  8
1
 10
-2.21961246579885
 20
11.6415223360062
 30
0.0
 70
     0
  0
VERTEX
  8
1
 10
-2.2326385602355
 20
11.5687531888485
 30
0.0
 70
     0
  0
VERTEX
  8
1
 10
-2.24385888129473
 20
11.4990853846073
 30
0.0
 70
     0
  0
VERTEX
  8
1
 10
-2.2533856511116
 20
11.432560557127
 30
0.0
 70
     0
  0
VERTEX
  8
1
 10
-2.26133184880018
 20
11.369212770462
 30
0.0
 70
     0
  0
VERTEX
  8
1
 10
-2.267811588943
 20
11.3090760886669
 30
0.0
 70
     0
  0
VERTEX
  8
1
 10
-2.2729393646121
 20
11.2521830618381
 30
0.0
 70
     0
  0
VERTEX
  8
1
 10
-2.27772933840752
 20
11.1834175765514
 30
0.0
 42
-0.000043633229696
 70
     0
  0
VERTEX
  8
1
 10
-2.46792541891336
 20
11.1429911136627
 30
0.0
 70
     0
  0
VERTEX
  8
1
 10
-2.50027056336403
 20
11.2038613080978
 30
0.0
 70
     0
  0
VERTEX
  8
1
 10
-2.52809597551823
 20
11.2537500083447
 30
0.0
 70
     0
  0
VERTEX
  8
1
 10
-2.55847543478012
 20
11.3060527145863
 30
0.0
 70
     0
  0
VERTEX
  8
1
 10
-2.59150072485208
 20
11.3606914579868
 30
0.0
 70
     0
  0
VERTEX
  8
1
 10
-2.62726230472326
 20
11.4175912976265
 30
0.0
 70
     0
  0
VERTEX
  8
1
 10
-2.66584911942482
 20
11.4766719937325
 30
0.0
 70
     0
  0
VERTEX
  8
1
 10
-2.70734689682722
 20
11.537850278616
 30
0.0
 70
     0
  0
VERTEX
  8
1
 10
-2.75184060782194
 20
11.6010428845882
 30
0.0
 70
     0
  0
VERTEX
  8
1
 10
-2.80113451182842
 20
11.6684571623802
 30
0.0
 70
     0
  0
VERTEX
  8
1
 10
-3.00478589385748
 20
11.6176805257797
 30
0.0
 70
     0
  0
VERTEX
  8
1
 10
-3.0166602447629
 20
11.5350138783455
 30
0.0
 70
     0
  0
VERTEX
  8
1
 10
-3.0262786090374
 20
11.4583311498165
 30
0.0
 70
     0
  0
VERTEX
  8
1
 10
-3.03419698774815
 20
11.3848315179348
 30
0.0
 70
     0
  0
VERTEX
  8
1
 10
-3.04053025245666
 20
11.3145505607128
 30
0.0
 70
     0
  0
VERTEX
  8
1
 10
-3.04539308547974
 20
11.247523099184
 30
0.0
 70
     0
  0
VERTEX
  8
1
 10
-3.04890092611313
 20
11.1837741136551
 30
0.0
 70
     0
  0
VERTEX
  8
1
 10
-3.0511699706316
 20
11.1233331263065
 30
0.0
 70
     0
  0
VERTEX
  8
1
 10
-3.05231641530991
 20
11.0662198185921
 30
0.0
 70
     0
  0
VERTEX
  8
1
 10
-3.05229805856943
 20
10.9972893118858
 30
0.0
 42
-0.000043633356079
 70
     0
  0
VERTEX
  8
1
 10
-3.23921112120152
 20
10.9436929285526
 30
0.0
 70
     0
  0
VERTEX
  8
1
 10
-3.27572362422943
 20
11.0021597146988
 30
0.0
 70
     0
  0
VERTEX
  8
1
 10
-3.30696149766445
 20
11.0499864041805
 30
0.0
 70
     0
  0
VERTEX
  8
1
 10
-3.34091541171074
 20
11.1000423967838
 30
0.0
 70
     0
  0
VERTEX
  8
1
 10
-3.377671661973
 20
11.152243667841
 30
0.0
 70
     0
  0
VERTEX
  8
1
 10
-3.41731503009796
 20
11.2065107345581
 30
0.0
 70
     0
  0
VERTEX
  8
1
 10
-3.45992954075336
 20
11.2627557873726
 30
0.0
 70
     0
  0
VERTEX
  8
1
 10
-3.50559354126453
 20
11.3208902597427
 30
0.0
 70
     0
  0
VERTEX
  8
1
 10
-3.55438689291477
 20
11.3808255851269
 30
0.0
 70
     0
  0
VERTEX
  8
1
 10
-3.60826335847378
 20
11.4446373999119
 30
0.0
 70
     0
  0
VERTEX
  8
1
 10
-3.80787682533264
 20
11.3797779262066
 30
0.0
 70
     0
  0
VERTEX
  8
1
 10
-3.81395574510097
 20
11.2964852571487
 30
0.0
 70
     0
  0
VERTEX
  8
1
 10
-3.8182012617588
 20
11.219317305088
 30
0.0
 70
     0
  0
VERTEX
  8
1
 10
-3.82097369730473
 20
11.1454444825649
 30
0.0
 70
     0
  0
VERTEX
  8
1
 10
-3.82238849103451
 20
11.074892526865
 30
0.0
 70
     0
  0
VERTEX
  8
1
 10
-3.82256411015987
 20
11.0076894462109
 30
0.0
 70
     0
  0
VERTEX
  8
1
 10
-3.82161675095558
 20
10.9438511371613
 30
0.0
 70
     0
  0
VERTEX
  8
1
 10
-3.81966374516487
 20
10.8833995521069
 30
0.0
 70
     0
  0
VERTEX
  8
1
 10
-3.81682355999947
 20
10.8263452887535
 30
0.0
 70
     0
  0
VERTEX
  8
1
 10
-3.81199668347836
 20
10.7575835883617
 30
0.0
 42
-0.000043633256116
 70
     0
  0
VERTEX
  8
1
 10
-3.99471551477909
 20
10.6910799562931
 30
0.0
 70
     0
  0
VERTEX
  8
1
 10
-4.03521767556667
 20
10.7468564391136
 30
0.0
 70
     0
  0
VERTEX
  8
1
 10
-4.0697154790163
 20
10.7923872113228
 30
0.0
 70
     0
  0
VERTEX
  8
1
 10
-4.10707844793797
 20
10.8399527430534
 30
0.0
 70
     0
  0
VERTEX
  8
1
 10
-4.14738644361496
 20
10.8894644677639
 30
0.0
 70
     0
  0
VERTEX
  8
1
 10
-4.1907189488411
 20
10.9408323049545
 30
0.0
 70
     0
  0
VERTEX
  8
1
 10
-4.23715279698372
 20
10.9939684450626
 30
0.0
 70
     0
  0
VERTEX
  8
1
 10
-4.28676103651524
 20
11.0487759947777
 30
0.0
 70
     0
  0
VERTEX
  8
1
 10
-4.33961633741856
 20
11.1051610887051
 30
0.0
 70
     0
  0
VERTEX
  8
1
 10
-4.39781326055527
 20
11.1650593221188
 30
0.0
 70
     0
  0
VERTEX
  8
1
 10
-4.59241590499878
 20
11.0864334285259
 30
0.0
 70
     0
  0
VERTEX
  8
1
 10
-4.59266949295998
 20
11.0029197216034
 30
0.0
 70
     0
  0
VERTEX
  8
1
 10
-4.59152191281319
 20
10.9256442785263
 30
0.0
 70
     0
  0
VERTEX
  8
1
 10
-4.58913440108299
 20
10.8517570734024
 30
0.0
 70
     0
  0
VERTEX
  8
1
 10
-4.58562466800213
 20
10.7812793016434
 30
0.0
 70
     0
  0
VERTEX
  8
1
 10
-4.58111155927181
 20
10.714227616787
 30
0.0
 70
     0
  0
VERTEX
  8
1
 10
-4.57571354210377
 20
10.650610345602
 30
0.0
 70
     0
  0
VERTEX
  8
1
 10
-4.56954832673073
 20
10.5904418706894
 30
0.0
 70
     0
  0
VERTEX
  8
1
 10
-4.5627355158329
 20
10.533725219965
 30
0.0
 70
     0
  0
VERTEX
  8
1
 10
-4.55312377512455
 20
10.4654676675797
 30
0.0
 42
-0.000043633251353
 70
     0
  0
VERTEX
  8
1
 10
-4.73075835704803
 20
10.3863800168037
 30
0.0
 70
     0
  0
VERTEX
  8
1
 10
-4.77505298256874
 20
10.4391951978207
 30
0.0
 70
     0
  0
VERTEX
  8
1
 10
-4.81264228820801
 20
10.4822097718716
 30
0.0
 70
     0
  0
VERTEX
  8
1
 10
-4.85323263704777
 20
10.5270524501801
 30
0.0
 70
     0
  0
VERTEX
  8
1
 10
-4.89689594209194
 20
10.5736308813095
 30
0.0
 70
     0
  0
VERTEX
  8
1
 10
-4.94370638728142
 20
10.6218519568443
 30
0.0
 70
     0
  0
VERTEX
  8
1
 10
-4.99373361468315
 20
10.671619540453
 30
0.0
 70
     0
  0
VERTEX
  8
1
 10
-5.04704423844814
 20
10.7228329539299
 30
0.0
 70
     0
  0
VERTEX
  8
1
 10
-5.10370411574841
 20
10.7753937900066
 30
0.0
 70
     0
  0
VERTEX
  8
1
 10
-5.16593687236309
 20
10.8310870051384
 30
0.0
 70
     0
  0
VERTEX
  8
1
 10
-5.35458095669746
 20
10.7390784800053
 30
0.0
 70
     0
  0
VERTEX
  8
1
 10
-5.34900883436203
 20
10.655749475956
 30
0.0
 70
     0
  0
VERTEX
  8
1
 10
-5.34247383475304
 20
10.5787420034409
 30
0.0
 70
     0
  0
VERTEX
  8
1
 10
-5.33493735194206
 20
10.5052014946938
 30
0.0
 70
     0
  0
VERTEX
  8
1
 10
-5.3265197455883
 20
10.4351393043995
 30
0.0
 70
     0
  0
VERTEX
  8
1
 10
-5.31734061837196
 20
10.3685660302639
 30
0.0
 70
     0
  0
VERTEX
  8
1
 10
-5.30751805901527
 20
10.305480915308
 30
0.0
 70
     0
  0
VERTEX
  8
1
 10
-5.29717091321945
 20
10.2458892583847
 30
0.0
 70
     0
  0
VERTEX
  8
1
 10
-5.28641802668571
 20
10.1897857606411
 30
0.0
 70
     0
  0
VERTEX
  8
1
 10
-5.27206797599792
 20
10.1223646700382
 30
0.0
 42
-0.000043633363659
 70
     0
  0
VERTEX
  8
1
 10
-5.44375346004963
 20
10.0310783028603
 30
0.0
 70
     0
  0
VERTEX
  8
1
 10
-5.49162481129169
 20
10.0806755661964
 30
0.0
 70
     0
  0
VERTEX
  8
1
 10
-5.53212356567383
 20
10.1209627449512
 30
0.0
 70
     0
  0
VERTEX
  8
1
 10
-5.57574258744717
 20
10.1628653168678
 30
0.0
 70
     0
  0
VERTEX
  8
1
 10
-5.6225488692522
 20
10.2062848746777
 30
0.0
 70
     0
  0
VERTEX
  8
1
 10
-5.67260902523994
 20
10.2511230111122
 30
0.0
 70
     0
  0
VERTEX
  8
1
 10
-5.72598588466644
 20
10.297279047966
 30
0.0
 70
     0
  0
VERTEX
  8
1
 10
-5.7827392488718
 20
10.3446492791176
 30
0.0
 70
     0
  0
VERTEX
  8
1
 10
-5.84292740523815
 20
10.3931292414665
 30
0.0
 70
     0
  0
VERTEX
  8
1
 10
-5.90889358222485
 20
10.4443456828594
 30
0.0
 70
     0
  0
VERTEX
  8
1
 10
-6.09065975546837
 20
10.3394026577473
 30
0.0
 70
     0
  0
VERTEX
  8
1
 10
-6.07928841710091
 20
10.2566656112671
 30
0.0
 70
     0
  0
VERTEX
  8
1
 10
-6.06739741265774
 20
10.1803015708923
 30
0.0
 70
     0
  0
VERTEX
  8
1
 10
-6.05474980771542
 20
10.1074658095837
 30
0.0
 70
     0
  0
VERTEX
  8
1
 10
-6.04146558344364
 20
10.038162112236
 30
0.0
 70
     0
  0
VERTEX
  8
1
 10
-6.02766472101212
 20
9.97239047884941
 30
0.0
 70
     0
  0
VERTEX
  8
1
 10
-6.01346530914307
 20
9.91014485359192
 30
0.0
 70
     0
  0
VERTEX
  8
1
 10
-5.99898657202721
 20
9.85141918063164
 30
0.0
 70
     0
  0
VERTEX
  8
1
 10
-5.98434621989727
 20
9.79620286226272
 30
0.0
 70
     0
  0
VERTEX
  8
1
 10
-5.96532787978649
 20
9.72994751930237
 30
0.0
 42
-0.000043633281696
 70
     0
  0
VERTEX
  8
1
 10
-6.13022704720497
 20
9.62690753936768
 30
0.0
 70
     0
  0
VERTEX
  8
1
 10
-6.1814415961504
 20
9.67304465174675
 30
0.0
 70
     0
  0
VERTEX
  8
1
 10
-6.22465184926987
 20
9.7104083776474
 30
0.0
 70
     0
  0
VERTEX
  8
1
 10
-6.27108758985996
 20
9.74916645884514
 30
0.0
 70
     0
  0
VERTEX
  8
1
 10
-6.32080899775028
 20
9.78921518921852
 30
0.0
 70
     0
  0
VERTEX
  8
1
 10
-6.37387436032295
 20
9.83045161962509
 30
0.0
 70
     0
  0
VERTEX
  8
1
 10
-6.43034120798111
 20
9.8727720439434
 30
0.0
 70
     0
  0
VERTEX
  8
1
 10
-6.49026063680649
 20
9.91606821417808
 30
0.0
 70
     0
  0
VERTEX
  8
1
 10
-6.55368412137032
 20
9.96023188233375
 30
0.0
 70
     0
  0
VERTEX
  8
1
 10
-6.62306275963783
 20
10.0067217469215
 30
0.0
 70
     0
  0
VERTEX
  8
1
 10
-6.79706573486328
 20
9.88935442566872
 30
0.0
 70
     0
  0
VERTEX
  8
1
 10
-6.77994968295097
 20
9.80761204957962
 30
0.0
 70
     0
  0
VERTEX
  8
1
 10
-6.76276171803474
 20
9.73226311802864
 30
0.0
 70
     0
  0
VERTEX
  8
1
 10
-6.74506354928017
 20
9.66048712730408
 30
0.0
 70
     0
  0
VERTEX
  8
1
 10
-6.72697705030441
 20
9.592279535532
 30
0.0
 70
     0
  0
VERTEX
  8
1
 10
-6.70862182378769
 20
9.52763125896454
 30
0.0
 70
     0
  0
VERTEX
  8
1
 10
-6.69011520147324
 20
9.46652715802193
 30
0.0
 70
     0
  0
VERTEX
  8
1
 10
-6.67157451510429
 20
9.40895512104034
 30
0.0
 70
     0
  0
VERTEX
  8
1
 10
-6.65311861038208
 20
9.35489395260811
 30
0.0
 70
     0
  0
VERTEX
  8
1
 10
-6.6295258462429
 20
9.29012607336044
 30
0.0
 42
-0.000043633187075
 70
     0
  0
VERTEX
  8
1
 10
-6.78683516383171
 20
9.17583435773849
 30
0.0
 70
     0
  0
VERTEX
  8
1
 10
-6.84114310741425
 20
9.21828649640083
 30
0.0
 70
     0
  0
VERTEX
  8
1
 10
-6.8868547976017
 20
9.25254585146904
 30
0.0
 70
     0
  0
VERTEX
  8
1
 10
-6.93588129878044
 20
9.28796944022179
 30
0.0
 70
     0
  0
VERTEX
  8
1
 10
-6.98827484250069
 20
9.32445204257965
 30
0.0
 70
     0
  0
VERTEX
  8
1
 10
-7.04408766031265
 20
9.36188692450523
 30
0.0
 70
     0
  0
VERTEX
  8
1
 10
-7.1033689558506
 20
9.40016508102417
 30
0.0
 70
     0
  0
VERTEX
  8
1
 10
-7.16616263389587
 20
9.43917599320412
 30
0.0
 70
     0
  0
VERTEX
  8
1
 10
-7.23251259922981
 20
9.47880838513374
 30
0.0
 70
     0
  0
VERTEX
  8
1
 10
-7.30496457219124
 20
9.52034457921982
 30
0.0
 70
     0
  0
VERTEX
  8
1
 10
-7.47035615444183
 20
9.39112599492073
 30
0.0
 70
     0
  0
VERTEX
  8
1
 10
-7.4475809276104
 20
9.31077646017074
 30
0.0
 70
     0
  0
VERTEX
  8
1
 10
-7.42517737746239
 20
9.23681128621101
 30
0.0
 70
     0
  0
VERTEX
  8
1
 10
-7.40251645445824
 20
9.16644479036331
 30
0.0
 70
     0
  0
VERTEX
  8
1
 10
-7.37971549034119
 20
9.09966410398483
 30
0.0
 70
     0
  0
VERTEX
  8
1
 10
-7.35689635872841
 20
9.03645333051682
 30
0.0
 70
     0
  0
VERTEX
  8
1
 10
-7.33417184948921
 20
8.9767897605896
 30
0.0
 70
     0
  0
VERTEX
  8
1
 10
-7.31166080832481
 20
8.92064992785454
 30
0.0
 70
     0
  0
VERTEX
  8
1
 10
-7.28947829604149
 20
8.868008852005
 30
0.0
 70
     0
  0
VERTEX
  8
1
 10
-7.26142465472221
 20
8.80504485368729
 30
0.0
 42
-0.000043633170914
 70
     0
  0
VERTEX
  8
1
 10
-7.41037843823433
 20
8.68005853891373
 30
0.0
 70
     0
  0
VERTEX
  8
1
 10
-7.46751521229744
 20
8.71861829161644
 30
0.0
 70
     0
  0
VERTEX
  8
1
 10
-7.51550540924072
 20
8.74960446953773
 30
0.0
 70
     0
  0
VERTEX
  8
1
 10
-7.5668830871582
 20
8.78152324557304
 30
0.0
 70
     0
  0
VERTEX
  8
1
 10
-7.62169442176819
 20
8.81426107287407
 30
0.0
 70
     0
  0
VERTEX
  8
1
 10
-7.67998256087303
 20
8.8477119743824
 30
0.0
 70
     0
  0
VERTEX
  8
1
 10
-7.7417898952961
 20
8.88176164627075
 30
0.0
 70
     0
  0
VERTEX
  8
1
 10
-7.80715200304985
 20
8.91629654169083
 30
0.0
 70
     0
  0
VERTEX
  8
1
 10
-7.87610446214676
 20
8.95120387077331
 30
0.0
 70
     0
  0
VERTEX
  8
1
 10
-7.95127777457237
 20
8.98758579492569
 30
0.0
 70
     0
  0
VERTEX
  8
1
 10
-8.10725253820419
 20
8.8471449971199
 30
0.0
 70
     0
  0
VERTEX
  8
1
 10
-8.07892789840698
 20
8.76857966184616
 30
0.0
 70
     0
  0
VERTEX
  8
1
 10
-8.05142003893852
 20
8.69635705351829
 30
0.0
 70
     0
  0
VERTEX
  8
1
 10
-8.02390536665916
 20
8.62774296402931
 30
0.0
 70
     0
  0
VERTEX
  8
1
 10
-7.99650197029114
 20
8.56271468400955
 30
0.0
 70
     0
  0
VERTEX
  8
1
 10
-7.96932793855667
 20
8.50125026106834
 30
0.0
 70
     0
  0
VERTEX
  8
1
 10
-7.94249757528305
 20
8.44331714510918
 30
0.0
 70
     0
  0
VERTEX
  8
1
 10
-7.91612518429756
 20
8.3888850569725
 30
0.0
 70
     0
  0
VERTEX
  8
1
 10
-7.8903243124485
 20
8.33791841864586
 30
0.0
 70
     0
  0
VERTEX
  8
1
 10
-7.85794680714607
 20
8.27706563472748
 30
0.0
 42
-0.000043633395131
 70
     0
  0
VERTEX
  8
1
 10
-7.99781987071037
 20
8.14199257493019
 30
0.0
 70
     0
  0
VERTEX
  8
1
 10
-8.05750615000725
 20
8.17647296786308
 30
0.0
 70
     0
  0
VERTEX
  8
1
 10
-8.10754170417786
 20
8.2040368437767
 30
0.0
 70
     0
  0
VERTEX
  8
1
 10
-8.16102075576782
 20
8.23229259848595
 30
0.0
 70
     0
  0
VERTEX
  8
1
 10
-8.21798266768455
 20
8.26112819910049
 30
0.0
 70
     0
  0
VERTEX
  8
1
 10
-8.27846150398254
 20
8.29043161273003
 30
0.0
 70
     0
  0
VERTEX
  8
1
 10
-8.34249359965324
 20
8.32008777856827
 30
0.0
 70
     0
  0
VERTEX
  8
1
 10
-8.41010544896126
 20
8.34997860789299
 30
0.0
 70
     0
  0
VERTEX
  8
1
 10
-8.48132506012917
 20
8.37999131083488
 30
0.0
 70
     0
  0
VERTEX
  8
1
 10
-8.55885257720947
 20
8.41104031801224
 30
0.0
 70
     0
  0
VERTEX
  8
1
 10
-8.70465202927589
 20
8.2600608587265
 30
0.0
 70
     0
  0
VERTEX
  8
1
 10
-8.67091498970985
 20
8.18366351127625
 30
0.0
 70
     0
  0
VERTEX
  8
1
 10
-8.63843604922295
 20
8.11353546380997
 30
0.0
 70
     0
  0
VERTEX
  8
1
 10
-8.60620161294937
 20
8.0470076084137
 30
0.0
 70
     0
  0
VERTEX
  8
1
 10
-8.57432976961136
 20
7.98404966592789
 30
0.0
 70
     0
  0
VERTEX
  8
1
 10
-8.5429340660572
 20
7.924630600214
 30
0.0
 70
     0
  0
VERTEX
  8
1
 10
-8.51212729215622
 20
7.86870953440666
 30
0.0
 70
     0
  0
VERTEX
  8
1
 10
-8.48202223777771
 20
7.8162501335144
 30
0.0
 70
     0
  0
VERTEX
  8
1
 10
-8.45272942185402
 20
7.7672077357769
 30
0.0
 70
     0
  0
VERTEX
  8
1
 10
-8.41618550419807
 20
7.70876063108444
 30
0.0
 42
-0.000043633197483
 70
     0
  0
VERTEX
  8
1
 10
-8.5462950527668
 20
7.56426015496254
 30
0.0
 70
     0
  0
VERTEX
  8
1
 10
-8.60824318528175
 20
7.59449465274811
 30
0.0
 70
     0
  0
VERTEX
  8
1
 10
-8.66007883548737
 20
7.61850072741508
 30
0.0
 70
     0
  0
VERTEX
  8
1
 10
-8.71539885997772
 20
7.64295644760132
 30
0.0
 70
     0
  0
VERTEX
  8
1
 10
-8.77423278093338
 20
7.6677490234375
 30
0.0
 70
     0
  0
VERTEX
  8
1
 10
-8.83660936355591
 20
7.69276112318039
 30
0.0
 70
     0
  0
VERTEX
  8
1
 10
-8.90255358815193
 20
7.7178784430027
 30
0.0
 70
     0
  0
VERTEX
  8
1
 10
-8.97208589315414
 20
7.74298138022423
 30
0.0
 70
     0
  0
VERTEX
  8
1
 10
-9.04522596001625
 20
7.76795260310173
 30
0.0
 70
     0
  0
VERTEX
  8
1
 10
-9.1247307062149
 20
7.79351729750633
 30
0.0
 70
     0
  0
VERTEX
  8
1
 10
-9.25964252948761
 20
7.6327357172966
 30
0.0
 70
     0
  0
VERTEX
  8
1
 10
-9.22065886855125
 20
7.55887727737427
 30
0.0
 70
     0
  0
VERTEX
  8
1
 10
-9.18336629867554
 20
7.49118594527245
 30
0.0
 70
     0
  0
VERTEX
  8
1
 10
-9.14657030701637
 20
7.42706831097603
 30
0.0
 70
     0
  0
VERTEX
  8
1
 10
-9.11038444042206
 20
7.36648803949356
 30
0.0
 70
     0
  0
VERTEX
  8
1
 10
-9.07491997480392
 20
7.30940349698067
 30
0.0
 70
     0
  0
VERTEX
  8
1
 10
-9.04028742909431
 20
7.25576775074005
 30
0.0
 70
     0
  0
VERTEX
  8
1
 10
-9.00659656524658
 20
7.20553613901138
 30
0.0
 70
     0
  0
VERTEX
  8
1
 10
-8.97395411729813
 20
7.15865643024445
 30
0.0
 70
     0
  0
VERTEX
  8
1
 10
-8.933421677351
 20
7.10290114283562
 30
0.0
 42
-0.000043633386565
 70
     0
  0
VERTEX
  8
1
 10
-9.05313563346863
 20
6.94967648386955
 30
0.0
 70
     0
  0
VERTEX
  8
1
 10
-9.11704055666923
 20
6.97551520466804
 30
0.0
 70
     0
  0
VERTEX
  8
1
 10
-9.17042422890663
 20
6.99584690332413
 30
0.0
 70
     0
  0
VERTEX
  8
1
 10
-9.22731574177742
 20
7.01638525724411
 30
0.0
 70
     0
  0
VERTEX
  8
1
 10
-9.28773629069328
 20
7.03701293468475
 30
0.0
 70
     0
  0
VERTEX
  8
1
 10
-9.35170555710793
 20
7.05761336088181
 30
0.0
 70
     0
  0
VERTEX
  8
1
 10
-9.41924095153809
 20
7.07806844711304
 30
0.0
 70
     0
  0
VERTEX
  8
1
 10
-9.49035458564758
 20
7.09826010465622
 30
0.0
 70
     0
  0
VERTEX
  8
1
 10
-9.56505857110023
 20
7.11806873083115
 30
0.0
 70
     0
  0
VERTEX
  8
1
 10
-9.64615297317505
 20
7.13802572488785
 30
0.0
 70
     0
  0
VERTEX
  8
1
 10
-9.76952010989189
 20
6.96822474002838
 30
0.0
 70
     0
  0
VERTEX
  8
1
 10
-9.72547982931137
 20
6.89726477265358
 30
0.0
 70
     0
  0
VERTEX
  8
1
 10
-9.68355606198311
 20
6.83233944177628
 30
0.0
 70
     0
  0
VERTEX
  8
1
 10
-9.64237716197967
 20
6.77094541788101
 30
0.0
 70
     0
  0
VERTEX
  8
1
 10
-9.60205289125442
 20
6.71303652524948
 30
0.0
 70
     0
  0
VERTEX
  8
1
 10
-9.5626937687397
 20
6.65856431722641
 30
0.0
 70
     0
  0
VERTEX
  8
1
 10
-9.52440425753593
 20
6.60747580528259
 30
0.0
 70
     0
  0
VERTEX
  8
1
 10
-9.48729109168053
 20
6.55971648693085
 30
0.0
 70
     0
  0
VERTEX
  8
1
 10
-9.45145797729492
 20
6.51522807478905
 30
0.0
 70
     0
  0
VERTEX
  8
1
 10
-9.40713534355164
 20
6.46243636012077
 30
0.0
 42
-0.00004363309799
 70
     0
  0
VERTEX
  8
1
 10
-9.51586780548096
 20
6.30123465657234
 30
0.0
 70
     0
  0
VERTEX
  8
1
 10
-9.58142142891884
 20
6.32255194187164
 30
0.0
 70
     0
  0
VERTEX
  8
1
 10
-9.63609272241592
 20
6.33911010026932
 30
0.0
 70
     0
  0
VERTEX
  8
1
 10
-9.69427791237831
 20
6.35563040971756
 30
0.0
 70
     0
  0
VERTEX
  8
1
 10
-9.75598986744881
 20
6.37199251055717
 30
0.0
 70
     0
  0
VERTEX
  8
1
 10
-9.82124069929123
 20
6.3880805850029
 30
0.0
 70
     0
  0
VERTEX
  8
1
 10
-9.89003873467445
 20
6.40377578735352
 30
0.0
 70
     0
  0
VERTEX
  8
1
 10
-9.96238851547241
 20
6.41895700097084
 30
0.0
 70
     0
  0
VERTEX
  8
1
 10
-10.0382915556431
 20
6.43350613713264
 30
0.0
 70
     0
  0
VERTEX
  8
1
 10
-10.120581227541
 20
6.44775778055191
 30
0.0
 70
     0
  0
VERTEX
  8
1
 10
-10.231802636385
 20
6.26976401209831
 30
0.0
 70
     0
  0
VERTEX
  8
1
 10
-10.1829192042351
 20
6.20205034911633
 30
0.0
 70
     0
  0
VERTEX
  8
1
 10
-10.1365693807602
 20
6.14020743668079
 30
0.0
 70
     0
  0
VERTEX
  8
1
 10
-10.0912074148655
 20
6.08183527290821
 30
0.0
 70
     0
  0
VERTEX
  8
1
 10
-10.0469423115253
 20
6.02688011229038
 30
0.0
 70
     0
  0
VERTEX
  8
1
 10
-10.0038792908192
 20
5.97528669536114
 30
0.0
 70
     0
  0
VERTEX
  8
1
 10
-9.96211903095245
 20
5.92699294984341
 30
0.0
 70
     0
  0
VERTEX
  8
1
 10
-9.92176523804665
 20
5.88193869590759
 30
0.0
 70
     0
  0
VERTEX
  8
1
 10
-9.88291556239128
 20
5.84005883336067
 30
0.0
 70
     0
  0
VERTEX
  8
1
 10
-9.83501923084259
 20
5.79048692882061
 30
0.0
 42
-0.000043633140263
 70
     0
  0
VERTEX
  8
1
 10
-9.93224182724953
 20
5.62209278941154
 30
0.0
 70
     0
  0
VERTEX
  8
1
 10
-9.99912167787552
 20
5.63878606855869
 30
0.0
 70
     0
  0
VERTEX
  8
1
 10
-10.0548156499863
 20
5.65149006843567
 30
0.0
 70
     0
  0
VERTEX
  8
1
 10
-10.1140114068985
 20
5.66391095817089
 30
0.0
 70
     0
  0
VERTEX
  8
1
 10
-10.1767150044441
 20
5.67592913508415
 30
0.0
 70
     0
  0
VERTEX
  8
1
 10
-10.2429287135601
 20
5.68742613196373
 30
0.0
 70
     0
  0
VERTEX
  8
1
 10
-10.3126540482044
 20
5.6982834815979
 30
0.0
 70
     0
  0
VERTEX
  8
1
 10
-10.3858857095242
 20
5.70838120281696
 30
0.0
 70
     0
  0
VERTEX
  8
1
 10
-10.4626191556454
 20
5.71760007143021
 30
0.0
 70
     0
  0
VERTEX
  8
1
 10
-10.5457021415234
 20
5.72607634365559
 30
0.0
 70
     0
  0
VERTEX
  8
1
 10
-10.6442365825176
 20
5.54075842499733
 30
0.0
 70
     0
  0
VERTEX
  8
1
 10
-10.5907492041588
 20
5.47661921679974
 30
0.0
 70
     0
  0
VERTEX
  8
1
 10
-10.5401981472969
 20
5.41816037893295
 30
0.0
 70
     0
  0
VERTEX
  8
1
 10
-10.4908749103546
 20
5.36309469938278
 30
0.0
 70
     0
  0
VERTEX
  8
1
 10
-10.4428839564323
 20
5.31136124134064
 30
0.0
 70
     0
  0
VERTEX
  8
1
 10
-10.3963267207146
 20
5.26289717555046
 30
0.0
 70
     0
  0
VERTEX
  8
1
 10
-10.3512993395329
 20
5.21763437390327
 30
0.0
 70
     0
  0
VERTEX
  8
1
 10
-10.3079009771347
 20
5.1755047082901
 30
0.0
 70
     0
  0
VERTEX
  8
1
 10
-10.2662247419357
 20
5.136437022686
 30
0.0
 70
     0
  0
VERTEX
  8
1
 10
-10.2149863481522
 20
5.09032678306103
 30
0.0
 42
-0.000043633129294
 70
     0
  0
VERTEX
  8
1
 10
-10.3002259671688
 20
4.91556115150452
 30
0.0
 70
     0
  0
VERTEX
  8
1
 10
-10.3681073009968
 20
4.92754829227924
 30
0.0
 70
     0
  0
VERTEX
  8
1
 10
-10.4245521962643
 20
4.93633681833744
 30
0.0
 70
     0
  0
VERTEX
  8
1
 10
-10.4844693541527
 20
4.94459810853004
 30
0.0
 70
     0
  0
VERTEX
  8
1
 10
-10.547858774662
 20
4.95221293866634
 30
0.0
 70
     0
  0
VERTEX
  8
1
 10
-10.6147128880024
 20
4.95906322002411
 30
0.0
 70
     0
  0
VERTEX
  8
1
 10
-10.6850256383419
 20
4.96503048539162
 30
0.0
 70
     0
  0
VERTEX
  8
1
 10
-10.7587841570377
 20
4.96999513208866
 30
0.0
 70
     0
  0
VERTEX
  8
1
 10
-10.8359725475311
 20
4.97383869290352
 30
0.0
 70
     0
  0
VERTEX
  8
1
 10
-10.9194453775883
 20
4.97649909555912
 30
0.0
 70
     0
  0
VERTEX
  8
1
 10
-11.004812926054
 20
4.78475858867168
 30
0.0
 70
     0
  0
VERTEX
  8
1
 10
-10.9469812452793
 20
4.72450760304928
 30
0.0
 70
     0
  0
VERTEX
  8
1
 10
-10.8924757301807
 20
4.66971708536148
 30
0.0
 70
     0
  0
VERTEX
  8
1
 10
-10.8394311845303
 20
4.6182258605957
 30
0.0
 70
     0
  0
VERTEX
  8
1
 10
-10.7879482865334
 20
4.56996655762196
 30
0.0
 70
     0
  0
VERTEX
  8
1
 10
-10.7381239295006
 20
4.52486802041531
 30
0.0
 70
     0
  0
VERTEX
  8
1
 10
-10.6900489509106
 20
4.48285644352436
 30
0.0
 70
     0
  0
VERTEX
  8
1
 10
-10.6438172161579
 20
4.44385688602924
 30
0.0
 70
     0
  0
VERTEX
  8
1
 10
-10.5995172917843
 20
4.40779100060463
 30
0.0
 70
     0
  0
VERTEX
  8
1
 10
-10.5451873958111
 20
4.36536762714386
 30
0.0
 42
-0.000043633142454
 70
     0
  0
VERTEX
  8
1
 10
-10.6180276989937
 20
4.18508134782314
 30
0.0
 70
     0
  0
VERTEX
  8
1
 10
-10.6865804731846
 20
4.19230444133282
 30
0.0
 70
     0
  0
VERTEX
  8
1
 10
-10.7435007512569
 20
4.19713396728039
 30
0.0
 70
     0
  0
VERTEX
  8
1
 10
-10.8038486301899
 20
4.20119553804398
 30
0.0
 70
     0
  0
VERTEX
  8
1
 10
-10.8676142692566
 20
4.20437030792236
 30
0.0
 70
     0
  0
VERTEX
  8
1
 10
-10.9347840428352
 20
4.20654056668282
 30
0.0
 70
     0
  0
VERTEX
  8
1
 10
-11.0053420543671
 20
4.20758784711361
 30
0.0
 70
     0
  0
VERTEX
  8
1
 10
-11.0792671084404
 20
4.20739557445049
 30
0.0
 70
     0
  0
VERTEX
  8
1
 10
-11.1565357387066
 20
4.20584565997124
 30
0.0
 70
     0
  0
VERTEX
  8
1
 10
-11.239990401268
 20
4.20267694592476
 30
0.0
 70
     0
  0
VERTEX
  8
1
 10
-11.3117747187614
 20
4.00544871985912
 30
0.0
 70
     0
  0
VERTEX
  8
1
 10
-11.2498810887337
 20
3.94937777221203
 30
0.0
 70
     0
  0
VERTEX
  8
1
 10
-11.1916860580444
 20
3.8985231667757
 30
0.0
 70
     0
  0
VERTEX
  8
1
 10
-11.1351798474789
 20
3.85085771381855
 30
0.0
 70
     0
  0
VERTEX
  8
1
 10
-11.0804555654526
 20
3.80630685091019
 30
0.0
 70
     0
  0
VERTEX
  8
1
 10
-11.0276063203812
 20
3.76479412317276
 30
0.0
 70
     0
  0
VERTEX
  8
1
 10
-10.9767176508904
 20
3.72623815536499
 30
0.0
 70
     0
  0
VERTEX
  8
1
 10
-10.9278781235218
 20
3.69055870771408
 30
0.0
 70
     0
  0
VERTEX
  8
1
 10
-10.8811710059643
 20
3.6576709985733
 30
0.0
 70
     0
  0
VERTEX
  8
1
 10
-10.8240137934685
 20
3.61914076805115
 30
0.0
 42
-0.000043633110027
 70
     0
  0
VERTEX
  8
1
 10
-10.8841005146503
 20
3.43421269357204
 30
0.0
 70
     0
  0
VERTEX
  8
1
 10
-10.9529893875122
 20
3.43663654029369
 30
0.0
 70
     0
  0
VERTEX
  8
1
 10
-11.0101079940796
 20
3.43748359978199
 30
0.0
 70
     0
  0
VERTEX
  8
1
 10
-11.0705928862095
 20
3.43732576966286
 30
0.0
 70
     0
  0
VERTEX
  8
1
 10
-11.1344243824482
 20
3.43604420423508
 30
0.0
 70
     0
  0
VERTEX
  8
1
 10
-11.201582044363
 20
3.43352384269238
 30
0.0
 70
     0
  0
VERTEX
  8
1
 10
-11.2720408916473
 20
3.42964697480202
 30
0.0
 70
     0
  0
VERTEX
  8
1
 10
-11.3457721590996
 20
3.42429816126823
 30
0.0
 70
     0
  0
VERTEX
  8
1
 10
-11.4227448105812
 20
3.41736196279526
 30
0.0
 70
     0
  0
VERTEX
  8
1
 10
-11.50577480793
 20
3.40837965011597
 30
0.0
 70
     0
  0
VERTEX
  8
1
 10
-11.5636261701584
 20
3.20662431120872
 30
0.0
 70
     0
  0
VERTEX
  8
1
 10
-11.497972625494
 20
3.15500780642033
 30
0.0
 70
     0
  0
VERTEX
  8
1
 10
-11.4363719463348
 20
3.10833664536476
 30
0.0
 70
     0
  0
VERTEX
  8
1
 10
-11.3766773402691
 20
3.06472878903151
 30
0.0
 70
     0
  0
VERTEX
  8
1
 10
-11.3189796447754
 20
3.02410399764776
 30
0.0
 70
     0
  0
VERTEX
  8
1
 10
-11.2633636415005
 20
2.98637881428003
 30
0.0
 70
     0
  0
VERTEX
  8
1
 10
-11.2099095702171
 20
2.95146637558937
 30
0.0
 70
     0
  0
VERTEX
  8
1
 10
-11.1586999416351
 20
2.91928076446056
 30
0.0
 70
     0
  0
VERTEX
  8
1
 10
-11.1098112106323
 20
2.88973152190447
 30
0.0
 70
     0
  0
VERTEX
  8
1
 10
-11.0501060068607
 20
2.85528197586536
 30
0.0
 42
-0.000043633100185
 70
     0
  0
VERTEX
  8
1
 10
-11.0971469521523
 20
2.66661310046911
 30
0.0
 70
     0
  0
VERTEX
  8
1
 10
-11.1660373389721
 20
2.66422577798367
 30
0.0
 70
     0
  0
VERTEX
  8
1
 10
-11.2230757057667
 20
2.661086396873
 30
0.0
 70
     0
  0
VERTEX
  8
1
 10
-11.2834023892879
 20
2.65670954436064
 30
0.0
 70
     0
  0
VERTEX
  8
1
 10
-11.3469886243343
 20
2.65097864568233
 30
0.0
 70
     0
  0
VERTEX
  8
1
 10
-11.4138064026833
 20
2.64377958625555
 30
0.0
 70
     0
  0
VERTEX
  8
1
 10
-11.4838239312172
 20
2.63499749451876
 30
0.0
 70
     0
  0
VERTEX
  8
1
 10
-11.5570018470287
 20
2.62451844513416
 30
0.0
 70
     0
  0
VERTEX
  8
1
 10
-11.6333045721054
 20
2.61222983747721
 30
0.0
 70
     0
  0
VERTEX
  8
1
 10
-11.7155049204826
 20
2.5974772632122
 30
0.0
 70
     0
  0
VERTEX
  8
1
 10
-11.7591417312622
 20
2.39217793792486
 30
0.0
 70
     0
  0
VERTEX
  8
1
 10
-11.6900469601154
 20
2.3452668145299
 30
0.0
 70
     0
  0
VERTEX
  8
1
 10
-11.6253403961658
 20
2.30300619155169
 30
0.0
 70
     0
  0
VERTEX
  8
1
 10
-11.5627503454685
 20
2.26366883218288
 30
0.0
 70
     0
  0
VERTEX
  8
1
 10
-11.5023585617542
 20
2.2271676838398
 30
0.0
 70
     0
  0
VERTEX
  8
1
 10
-11.4442467987537
 20
2.19341399073601
 30
0.0
 70
     0
  0
VERTEX
  8
1
 10
-11.388486969471
 20
2.16231559067965
 30
0.0
 70
     0
  0
VERTEX
  8
1
 10
-11.3351570427418
 20
2.13378032147884
 30
0.0
 70
     0
  0
VERTEX
  8
1
 10
-11.2843274176121
 20
2.10771337151527
 30
0.0
 70
     0
  0
VERTEX
  8
1
 10
-11.2223641455173
 20
2.0775125592947
 30
0.0
 42
-0.000043633122213
 70
     0
  0
VERTEX
  8
1
 10
-11.256129193306
 20
1.88602166622877
 30
0.0
 70
     0
  0
VERTEX
  8
1
 10
-11.3246857523918
 20
1.87883471846581
 30
0.0
 70
     0
  0
VERTEX
  8
1
 10
-11.3813660681248
 20
1.87172422558069
 30
0.0
 70
     0
  0
VERTEX
  8
1
 10
-11.4412400782108
 20
1.86314992457628
 30
0.0
 70
     0
  0
VERTEX
  8
1
 10
-11.5042722046375
 20
1.85299751162529
 30
0.0
 70
     0
  0
VERTEX
  8
1
 10
-11.5704253554344
 20
1.84115495383739
 30
0.0
 70
     0
  0
VERTEX
  8
1
 10
-11.6396594107151
 20
1.82751002907753
 30
0.0
 70
     0
  0
VERTEX
  8
1
 10
-11.7119289517403
 20
1.81195202916861
 30
0.0
 70
     0
  0
VERTEX
  8
1
 10
-11.7871870458126
 20
1.79437062442303
 30
0.0
 70
     0
  0
VERTEX
  8
1
 10
-11.8681588172913
 20
1.77392008006573
 30
0.0
 70
     0
  0
VERTEX
  8
1
 10
-11.8973691225052
 20
1.56607702150941
 30
0.0
 70
     0
  0
VERTEX
  8
1
 10
-11.825169980526
 20
1.52409988716245
 30
0.0
 70
     0
  0
VERTEX
  8
1
 10
-11.7576731920242
 20
1.48645588979125
 30
0.0
 70
     0
  0
VERTEX
  8
1
 10
-11.6924912452698
 20
1.45158054307103
 30
0.0
 70
     0
  0
VERTEX
  8
1
 10
-11.6297005951405
 20
1.41938092783093
 30
0.0
 70
     0
  0
VERTEX
  8
1
 10
-11.5693746685982
 20
1.38976289480925
 30
0.0
 70
     0
  0
VERTEX
  8
1
 10
-11.5115823507309
 20
1.36263011842966
 30
0.0
 70
     0
  0
VERTEX
  8
1
 10
-11.4563917696476
 20
1.33788456991315
 30
0.0
 70
     0
  0
VERTEX
  8
1
 10
-11.4038672685623
 20
1.31542651727796
 30
0.0
 70
     0
  0
VERTEX
  8
1
 10
-11.3399479627609
 20
1.28962167128921
 30
0.0
 42
-0.000043633080454
 70
     0
  0
VERTEX
  8
1
 10
-11.3602736055851
 20
1.0962421156466
 30
0.0
 70
     0
  0
VERTEX
  8
1
 10
-11.428160995245
 20
1.08429026901722
 30
0.0
 70
     0
  0
VERTEX
  8
1
 10
-11.4842077195644
 20
1.07324348539114
 30
0.0
 70
     0
  0
VERTEX
  8
1
 10
-11.5433376193047
 20
1.06051327511668
 30
0.0
 70
     0
  0
VERTEX
  8
1
 10
-11.6055075466633
 20
1.04598883539438
 30
0.0
 70
     0
  0
VERTEX
  8
1
 10
-11.670673596859
 20
1.02956049889326
 30
0.0
 70
     0
  0
VERTEX
  8
1
 10
-11.7387865662575
 20
1.01111935526133
 30
0.0
 70
     0
  0
VERTEX
  8
1
 10
-11.8097949802876
 20
0.990557913482189
 30
0.0
 70
     0
  0
VERTEX
  8
1
 10
-11.883643579483
 20
0.967769628763199
 30
0.0
 70
     0
  0
VERTEX
  8
1
 10
-11.962991631031
 20
0.94172065705061
 30
0.0
 70
     0
  0
VERTEX
  8
1
 10
-11.9776316046715
 20
0.732346277311444
 30
0.0
 70
     0
  0
VERTEX
  8
1
 10
-11.9026808440685
 20
0.695507800206542
 30
0.0
 70
     0
  0
VERTEX
  8
1
 10
-11.8327223598957
 20
0.662663711979985
 30
0.0
 70
     0
  0
VERTEX
  8
1
 10
-11.7652664482594
 20
0.632420130446553
 30
0.0
 70
     0
  0
VERTEX
  8
1
 10
-11.7003827512264
 20
0.604678979516029
 30
0.0
 70
     0
  0
VERTEX
  8
1
 10
-11.6381378829479
 20
0.579341378808022
 30
0.0
 70
     0
  0
VERTEX
  8
1
 10
-11.5785939157009
 20
0.556305940449238
 30
0.0
 70
     0
  0
VERTEX
  8
1
 10
-11.5218114078045
 20
0.535470519587398
 30
0.0
 70
     0
  0
VERTEX
  8
1
 10
-11.4678478896618
 20
0.516731173545122
 30
0.0
 70
     0
  0
VERTEX
  8
1
 10
-11.4022844254971
 20
0.495447904989123
 30
0.0
 42
-0.000043633081258
 70
     0
  0
VERTEX
  8
1
 10
-11.4090707421303
 20
0.301121557876468
 30
0.0
 70
     0
  0
VERTEX
  8
1
 10
-11.4759596765041
 20
0.284472585655749
 30
0.0
 70
     0
  0
VERTEX
  8
1
 10
-11.5310987830162
 20
0.269543185830116
 30
0.0
 70
     0
  0
VERTEX
  8
1
 10
-11.5891969203949
 20
0.25271935146302
 30
0.0
 70
     0
  0
VERTEX
  8
1
 10
-11.650202614069
 20
0.233893567882478
 30
0.0
 70
     0
  0
VERTEX
  8
1
 10
-11.7140636324883
 20
0.212959526851773
 30
0.0
 70
     0
  0
VERTEX
  8
1
 10
-11.7807247161865
 20
0.189812079258263
 30
0.0
 70
     0
  0
VERTEX
  8
1
 10
-11.8501253068447
 20
0.164347507152706
 30
0.0
 70
     0
  0
VERTEX
  8
1
 10
-11.9222048461437
 20
0.136463417299092
 30
0.0
 70
     0
  0
VERTEX
  8
1
 10
-11.9995423614979
 20
0.104942942317575
 30
0.0
 70
     0
  0
VERTEX
  8
1
 10
-11.9995416045189
 20
-0.104942646622658
 30
0.0
 70
     0
  0
VERTEX
  8
1
 10
-11.9222033321857
 20
-0.136463192570955
 30
0.0
 70
     0
  0
VERTEX
  8
1
 10
-11.8501245498657
 20
-0.164347258768976
 30
0.0
 70
     0
  0
VERTEX
  8
1
 10
-11.7807232022285
 20
-0.189811819046736
 30
0.0
 70
     0
  0
VERTEX
  8
1
 10
-11.7140621185303
 20
-0.212959290295839
 30
0.0
 70
     0
  0
VERTEX
  8
1
 10
-11.65020185709
 20
-0.233893354982138
 30
0.0
 70
     0
  0
VERTEX
  8
1
 10
-11.5891954064369
 20
-0.252719138562679
 30
0.0
 70
     0
  0
VERTEX
  8
1
 10
-11.5310980260372
 20
-0.269542949274182
 30
0.0
 70
     0
  0
VERTEX
  8
1
 10
-11.4759589195251
 20
-0.284472349099815
 30
0.0
 70
     0
  0
VERTEX
  8
1
 10
-11.4090707421303
 20
-0.301130381412804
 30
0.0
 42
-0.000043633087552
 70
     0
  0
VERTEX
  8
1
 10
-11.402285182476
 20
-0.49545679949224
 30
0.0
 70
     0
  0
VERTEX
  8
1
 10
-11.4678486466408
 20
-0.516749530285597
 30
0.0
 70
     0
  0
VERTEX
  8
1
 10
-11.5218129217625
 20
-0.535488829016685
 30
0.0
 70
     0
  0
VERTEX
  8
1
 10
-11.5785954296589
 20
-0.55632448643446
 30
0.0
 70
     0
  0
VERTEX
  8
1
 10
-11.6381386399269
 20
-0.579360019415617
 30
0.0
 70
     0
  0
VERTEX
  8
1
 10
-11.7003842651844
 20
-0.604697809368372
 30
0.0
 70
     0
  0
VERTEX
  8
1
 10
-11.7652679622173
 20
-0.632438912987709
 30
0.0
 70
     0
  0
VERTEX
  8
1
 10
-11.8327238738537
 20
-0.662682683765888
 30
0.0
 70
     0
  0
VERTEX
  8
1
 10
-11.9026823580265
 20
-0.695526913926005
 30
0.0
 70
     0
  0
VERTEX
  8
1
 10
-11.9776323616505
 20
-0.732365391030908
 30
0.0
 70
     0
  0
VERTEX
  8
1
 10
-11.962990874052
 20
-0.941739770770073
 30
0.0
 70
     0
  0
VERTEX
  8
1
 10
-11.8836420655251
 20
-0.967788647860289
 30
0.0
 70
     0
  0
VERTEX
  8
1
 10
-11.8097934663296
 20
-0.990576743334532
 30
0.0
 70
     0
  0
VERTEX
  8
1
 10
-11.7387850522995
 20
-1.01113799586892
 30
0.0
 70
     0
  0
VERTEX
  8
1
 10
-11.670672082901
 20
-1.02957904487848
 30
0.0
 70
     0
  0
VERTEX
  8
1
 10
-11.6055067896843
 20
-1.0460073813796
 30
0.0
 70
     0
  0
VERTEX
  8
1
 10
-11.5433361053467
 20
-1.06053163185716
 30
0.0
 70
     0
  0
VERTEX
  8
1
 10
-11.4842062056065
 20
-1.07326184213161
 30
0.0
 70
     0
  0
VERTEX
  8
1
 10
-11.428160238266
 20
-1.08430843651295
 30
0.0
 70
     0
  0
VERTEX
  8
1
 10
-11.3602728486061
 20
-1.09625999927521
 30
0.0
 42
-0.000043633101452
 70
     0
  0
VERTEX
  8
1
 10
-11.3399479627609
 20
-1.28963974416256
 30
0.0
 70
     0
  0
VERTEX
  8
1
 10
-11.4038672685623
 20
-1.3154449686408
 30
0.0
 70
     0
  0
VERTEX
  8
1
 10
-11.4563917696476
 20
-1.33790292665362
 30
0.0
 70
     0
  0
VERTEX
  8
1
 10
-11.5115831077099
 20
-1.36264885365963
 30
0.0
 70
     0
  0
VERTEX
  8
1
 10
-11.5693754255772
 20
-1.38978172466159
 30
0.0
 70
     0
  0
VERTEX
  8
1
 10
-11.6297013521194
 20
-1.41939994692802
 30
0.0
 70
     0
  0
VERTEX
  8
1
 10
-11.6924920022488
 20
-1.45159946754575
 30
0.0
 70
     0
  0
VERTEX
  8
1
 10
-11.7576739490032
 20
-1.48647490888834
 30
0.0
 70
     0
  0
VERTEX
  8
1
 10
-11.825170737505
 20
-1.52411928474903
 30
0.0
 70
     0
  0
VERTEX
  8
1
 10
-11.8973691225052
 20
-1.56609632447362
 30
0.0
 70
     0
  0
VERTEX
  8
1
 10
-11.8681573033333
 20
-1.77393919378519
 30
0.0
 70
     0
  0
VERTEX
  8
1
 10
-11.7871847748756
 20
-1.79438973814249
 30
0.0
 70
     0
  0
VERTEX
  8
1
 10
-11.7119266808033
 20
-1.81197076439857
 30
0.0
 70
     0
  0
VERTEX
  8
1
 10
-11.6396571397781
 20
-1.8275287643075
 30
0.0
 70
     0
  0
VERTEX
  8
1
 10
-11.5704230844975
 20
-1.84117331057787
 30
0.0
 70
     0
  0
VERTEX
  8
1
 10
-11.5042706906795
 20
-1.85301624685526
 30
0.0
 70
     0
  0
VERTEX
  8
1
 10
-11.4412378072739
 20
-1.86316828131676
 30
0.0
 70
     0
  0
VERTEX
  8
1
 10
-11.3813645541668
 20
-1.87174277156591
 30
0.0
 70
     0
  0
VERTEX
  8
1
 10
-11.3246842384338
 20
-1.87885288596153
 30
0.0
 70
     0
  0
VERTEX
  8
1
 10
-11.256128436327
 20
-1.8860398337245
 30
0.0
 42
-0.000043633067093
 70
     0
  0
VERTEX
  8
1
 10
-11.2223633885384
 20
-2.07753053754568
 30
0.0
 70
     0
  0
VERTEX
  8
1
 10
-11.2843274176121
 20
-2.10773172825575
 30
0.0
 70
     0
  0
VERTEX
  8
1
 10
-11.3351577997208
 20
-2.13379886746407
 30
0.0
 70
     0
  0
VERTEX
  8
1
 10
-11.388488483429
 20
-2.16233432590961
 30
0.0
 70
     0
  0
VERTEX
  8
1
 10
-11.4442467987537
 20
-2.19343272596598
 30
0.0
 70
     0
  0
VERTEX
  8
1
 10
-11.5023593187332
 20
-2.22718679755926
 30
0.0
 70
     0
  0
VERTEX
  8
1
 10
-11.5627518594265
 20
-2.26368794590235
 30
0.0
 70
     0
  0
VERTEX
  8
1
 10
-11.6253411531448
 20
-2.30302530527115
 30
0.0
 70
     0
  0
VERTEX
  8
1
 10
-11.6900484740734
 20
-2.34528611749411
 30
0.0
 70
     0
  0
VERTEX
  8
1
 10
-11.7591417312622
 20
-2.39219724088907
 30
0.0
 70
     0
  0
VERTEX
  8
1
 10
-11.7155034065247
 20
-2.59749599844217
 30
0.0
 70
     0
  0
VERTEX
  8
1
 10
-11.6333015441895
 20
-2.61224838346243
 30
0.0
 70
     0
  0
VERTEX
  8
1
 10
-11.5570010900497
 20
-2.62453718036413
 30
0.0
 70
     0
  0
VERTEX
  8
1
 10
-11.4838209033012
 20
-2.63501585125923
 30
0.0
 70
     0
  0
VERTEX
  8
1
 10
-11.4138041317463
 20
-2.64379775375128
 30
0.0
 70
     0
  0
VERTEX
  8
1
 10
-11.3469871103764
 20
-2.65099719166756
 30
0.0
 70
     0
  0
VERTEX
  8
1
 10
-11.283399361372
 20
-2.65672752261162
 30
0.0
 70
     0
  0
VERTEX
  8
1
 10
-11.2230734348297
 20
-2.66110456436872
 30
0.0
 70
     0
  0
VERTEX
  8
1
 10
-11.1660358250141
 20
-2.6642435669899
 30
0.0
 70
     0
  0
VERTEX
  8
1
 10
-11.0971461951733
 20
-2.6666307002306
 30
0.0
 42
-0.000043633125729
 70
     0
  0
VERTEX
  8
1
 10
-11.0501060068607
 20
-2.85529995411634
 30
0.0
 70
     0
  0
VERTEX
  8
1
 10
-11.1098119676113
 20
-2.8897496894002
 30
0.0
 70
     0
  0
VERTEX
  8
1
 10
-11.1586991846561
 20
-2.91929931044579
 30
0.0
 70
     0
  0
VERTEX
  8
1
 10
-11.2099095702171
 20
-2.95148530006409
 30
0.0
 70
     0
  0
VERTEX
  8
1
 10
-11.2633628845215
 20
-2.98639736026525
 30
0.0
 70
     0
  0
VERTEX
  8
1
 10
-11.3189804017544
 20
-3.02412292212248
 30
0.0
 70
     0
  0
VERTEX
  8
1
 10
-11.3766780972481
 20
-3.06474771350622
 30
0.0
 70
     0
  0
VERTEX
  8
1
 10
-11.4363711893559
 20
-3.10835538059473
 30
0.0
 70
     0
  0
VERTEX
  8
1
 10
-11.497972625494
 20
-3.15502710938454
 30
0.0
 70
     0
  0
VERTEX
  8
1
 10
-11.5636254131794
 20
-3.20664399266243
 30
0.0
 70
     0
  0
VERTEX
  8
1
 10
-11.505772536993
 20
-3.40839857459068
 30
0.0
 70
     0
  0
VERTEX
  8
1
 10
-11.4227417826653
 20
-3.41738050878048
 30
0.0
 70
     0
  0
VERTEX
  8
1
 10
-11.3457698881626
 20
-3.42431670725346
 30
0.0
 70
     0
  0
VERTEX
  8
1
 10
-11.2720371067524
 20
-3.42966514229774
 30
0.0
 70
     0
  0
VERTEX
  8
1
 10
-11.2015790164471
 20
-3.4335420101881
 30
0.0
 70
     0
  0
VERTEX
  8
1
 10
-11.1344221115112
 20
-3.4360627502203
 30
0.0
 70
     0
  0
VERTEX
  8
1
 10
-11.0705898582935
 20
-3.43734355866909
 30
0.0
 70
     0
  0
VERTEX
  8
1
 10
-11.0101057231426
 20
-3.43750176727772
 30
0.0
 70
     0
  0
VERTEX
  8
1
 10
-10.9529878735542
 20
-3.43665432929993
 30
0.0
 70
     0
  0
VERTEX
  8
1
 10
-10.8840990006924
 20
-3.43423048257828
 30
0.0
 42
-0.000043633015305
 70
     0
  0
VERTEX
  8
1
 10
-10.8240122795105
 20
-3.61915817856789
 30
0.0
 70
     0
  0
VERTEX
  8
1
 10
-10.8811694920063
 20
-3.65768954455852
 30
0.0
 70
     0
  0
VERTEX
  8
1
 10
-10.9278773665428
 20
-3.6905772536993
 30
0.0
 70
     0
  0
VERTEX
  8
1
 10
-10.9767176508904
 20
-3.72625707983971
 30
0.0
 70
     0
  0
VERTEX
  8
1
 10
-11.0276048064232
 20
-3.76481266915798
 30
0.0
 70
     0
  0
VERTEX
  8
1
 10
-11.0804555654526
 20
-3.8063257753849
 30
0.0
 70
     0
  0
VERTEX
  8
1
 10
-11.1351790904999
 20
-3.85087701678276
 30
0.0
 70
     0
  0
VERTEX
  8
1
 10
-11.1916853010654
 20
-3.89854209125042
 30
0.0
 70
     0
  0
VERTEX
  8
1
 10
-11.2498803317547
 20
-3.94939745366573
 30
0.0
 70
     0
  0
VERTEX
  8
1
 10
-11.3117732048035
 20
-4.00546764433384
 30
0.0
 70
     0
  0
VERTEX
  8
1
 10
-11.2399873733521
 20
-4.20269511342049
 30
0.0
 70
     0
  0
VERTEX
  8
1
 10
-11.1565327107906
 20
-4.20586382746696
 30
0.0
 70
     0
  0
VERTEX
  8
1
 10
-11.0792633235455
 20
-4.20741412043571
 30
0.0
 70
     0
  0
VERTEX
  8
1
 10
-11.0053382694721
 20
-4.20760601460934
 30
0.0
 70
     0
  0
VERTEX
  8
1
 10
-10.9347802579403
 20
-4.20655835568905
 30
0.0
 70
     0
  0
VERTEX
  8
1
 10
-10.8676112413406
 20
-4.20438847541809
 30
0.0
 70
     0
  0
VERTEX
  8
1
 10
-10.8038456022739
 20
-4.20121294856071
 30
0.0
 70
     0
  0
VERTEX
  8
1
 10
-10.743496966362
 20
-4.19715213477612
 30
0.0
 70
     0
  0
VERTEX
  8
1
 10
-10.6865774452686
 20
-4.19232223033905
 30
0.0
 70
     0
  0
VERTEX
  8
1
 10
-10.6180254280567
 20
-4.18509875833988
 30
0.0
 42
-0.000043633060953
 70
     0
  0
VERTEX
  8
1
 10
-10.5451858818531
 20
-4.3653850376606
 30
0.0
 70
     0
  0
VERTEX
  8
1
 10
-10.5995157778263
 20
-4.40780878961086
 30
0.0
 70
     0
  0
VERTEX
  8
1
 10
-10.6438157021999
 20
-4.44387467503548
 30
0.0
 70
     0
  0
VERTEX
  8
1
 10
-10.6900474369526
 20
-4.48287461102009
 30
0.0
 70
     0
  0
VERTEX
  8
1
 10
-10.7381224155426
 20
-4.52488580942154
 30
0.0
 70
     0
  0
VERTEX
  8
1
 10
-10.7879475295544
 20
-4.56998434662819
 30
0.0
 70
     0
  0
VERTEX
  8
1
 10
-10.8394304275513
 20
-4.61824440658093
 30
0.0
 70
     0
  0
VERTEX
  8
1
 10
-10.8924734592438
 20
-4.66973487436771
 30
0.0
 70
     0
  0
VERTEX
  8
1
 10
-10.9469804883003
 20
-4.72452577054501
 30
0.0
 70
     0
  0
VERTEX
  8
1
 10
-11.004810655117
 20
-4.78477713465691
 30
0.0
 70
     0
  0
VERTEX
  8
1
 10
-10.9194415926933
 20
-4.97651688456535
 30
0.0
 70
     0
  0
VERTEX
  8
1
 10
-10.8359687626362
 20
-4.97385610342026
 30
0.0
 70
     0
  0
VERTEX
  8
1
 10
-10.7587803721428
 20
-4.9700125426054
 30
0.0
 70
     0
  0
VERTEX
  8
1
 10
-10.685021096468
 20
-4.96504751741886
 30
0.0
 70
     0
  0
VERTEX
  8
1
 10
-10.6147091031075
 20
-4.95908025205135
 30
0.0
 70
     0
  0
VERTEX
  8
1
 10
-10.5478542327881
 20
-4.95223034918308
 30
0.0
 70
     0
  0
VERTEX
  8
1
 10
-10.4844655692577
 20
-4.94461476206779
 30
0.0
 70
     0
  0
VERTEX
  8
1
 10
-10.4245476543903
 20
-4.93635385036468
 30
0.0
 70
     0
  0
VERTEX
  8
1
 10
-10.3681027591228
 20
-4.92756532430649
 30
0.0
 70
     0
  0
VERTEX
  8
1
 10
-10.3002229392529
 20
-4.91557742655277
 30
0.0
 42
-0.000043633116128
 70
     0
  0
VERTEX
  8
1
 10
-10.2149840772152
 20
-5.09034343659878
 30
0.0
 70
     0
  0
VERTEX
  8
1
 10
-10.2662224709988
 20
-5.13645367622375
 30
0.0
 70
     0
  0
VERTEX
  8
1
 10
-10.3078987061977
 20
-5.17552211880684
 30
0.0
 70
     0
  0
VERTEX
  8
1
 10
-10.3512970685959
 20
-5.21765178442001
 30
0.0
 70
     0
  0
VERTEX
  8
1
 10
-10.3963244497776
 20
-5.2629145860672
 30
0.0
 70
     0
  0
VERTEX
  8
1
 10
-10.4428824424744
 20
-5.31137903034687
 30
0.0
 70
     0
  0
VERTEX
  8
1
 10
-10.4908733963966
 20
-5.36311248838901
 30
0.0
 70
     0
  0
VERTEX
  8
1
 10
-10.5401958763599
 20
-5.41817816793919
 30
0.0
 70
     0
  0
VERTEX
  8
1
 10
-10.5907469332218
 20
-5.47663738429546
 30
0.0
 70
     0
  0
VERTEX
  8
1
 10
-10.6442335546017
 20
-5.54077621400356
 30
0.0
 70
     0
  0
VERTEX
  8
1
 10
-10.5456975996494
 20
-5.72609375417233
 30
0.0
 70
     0
  0
VERTEX
  8
1
 10
-10.4626138567925
 20
-5.71761634647846
 30
0.0
 70
     0
  0
VERTEX
  8
1
 10
-10.3858811676502
 20
-5.70839785635471
 30
0.0
 70
     0
  0
VERTEX
  8
1
 10
-10.3126487493515
 20
-5.69829975664616
 30
0.0
 70
     0
  0
VERTEX
  8
1
 10
-10.2429226577282
 20
-5.68744240701199
 30
0.0
 70
     0
  0
VERTEX
  8
1
 10
-10.1767097055912
 20
-5.67594541013241
 30
0.0
 70
     0
  0
VERTEX
  8
1
 10
-10.1140068650246
 20
-5.66392685472965
 30
0.0
 70
     0
  0
VERTEX
  8
1
 10
-10.0548111081123
 20
-5.65150634348392
 30
0.0
 70
     0
  0
VERTEX
  8
1
 10
-9.99911789298057
 20
-5.63880196511745
 30
0.0
 70
     0
  0
VERTEX
  8
1
 10
-9.93223728537559
 20
-5.62210830748081
 30
0.0
 42
-0.000043633031881
 70
     0
  0
VERTEX
  8
1
 10
-9.83501544594765
 20
-5.79050244688988
 30
0.0
 70
     0
  0
VERTEX
  8
1
 10
-9.88291253447533
 20
-5.84007510840893
 30
0.0
 70
     0
  0
VERTEX
  8
1
 10
-9.92176221013069
 20
-5.88195497095585
 30
0.0
 70
     0
  0
VERTEX
  8
1
 10
-9.96211676001549
 20
-5.92700998187065
 30
0.0
 70
     0
  0
VERTEX
  8
1
 10
-10.0038762629032
 20
-5.97530297040939
 30
0.0
 70
     0
  0
VERTEX
  8
1
 10
-10.0469400405884
 20
-6.02689714431763
 30
0.0
 70
     0
  0
VERTEX
  8
1
 10
-10.0912051439285
 20
-6.08185192644596
 30
0.0
 70
     0
  0
VERTEX
  8
1
 10
-10.1365663528442
 20
-6.14022409021854
 30
0.0
 70
     0
  0
VERTEX
  8
1
 10
-10.1829161763191
 20
-6.20206738114357
 30
0.0
 70
     0
  0
VERTEX
  8
1
 10
-10.231799608469
 20
-6.26978066563606
 30
0.0
 70
     0
  0
VERTEX
  8
1
 10
-10.120575928688
 20
-6.44777367711067
 30
0.0
 70
     0
  0
VERTEX
  8
1
 10
-10.0382862567902
 20
-6.43352127671242
 30
0.0
 70
     0
  0
VERTEX
  8
1
 10
-9.96238321661949
 20
-6.4189728975296
 30
0.0
 70
     0
  0
VERTEX
  8
1
 10
-9.89003343582153
 20
-6.40379092693329
 30
0.0
 70
     0
  0
VERTEX
  8
1
 10
-9.82123540043831
 20
-6.38809572458267
 30
0.0
 70
     0
  0
VERTEX
  8
1
 10
-9.75598532557487
 20
-6.37200840711594
 30
0.0
 70
     0
  0
VERTEX
  8
1
 10
-9.69427261352539
 20
-6.35564554929733
 30
0.0
 70
     0
  0
VERTEX
  8
1
 10
-9.63608818054199
 20
-6.33912523984909
 30
0.0
 70
     0
  0
VERTEX
  8
1
 10
-9.58141537308693
 20
-6.32256708145142
 30
0.0
 70
     0
  0
VERTEX
  8
1
 10
-9.51586402058601
 20
-6.30124866068363
 30
0.0
 42
-0.000043633292015
 70
     0
  0
VERTEX
  8
1
 10
-9.40713155865669
 20
-6.46245149970055
 30
0.0
 70
     0
  0
VERTEX
  8
1
 10
-9.45145494937897
 20
-6.51524397134781
 30
0.0
 70
     0
  0
VERTEX
  8
1
 10
-9.48728806376457
 20
-6.55973238348961
 30
0.0
 70
     0
  0
VERTEX
  8
1
 10
-9.52440198659897
 20
-6.60749170184135
 30
0.0
 70
     0
  0
VERTEX
  8
1
 10
-9.56269074082375
 20
-6.65858021378517
 30
0.0
 70
     0
  0
VERTEX
  8
1
 10
-9.60205062031746
 20
-6.71305317878723
 30
0.0
 70
     0
  0
VERTEX
  8
1
 10
-9.64237489104271
 20
-6.77096207141876
 30
0.0
 70
     0
  0
VERTEX
  8
1
 10
-9.68355303406715
 20
-6.83235609531403
 30
0.0
 70
     0
  0
VERTEX
  8
1
 10
-9.72547680139542
 20
-6.89728142619133
 30
0.0
 70
     0
  0
VERTEX
  8
1
 10
-9.76951708197594
 20
-6.96823987960815
 30
0.0
 70
     0
  0
VERTEX
  8
1
 10
-9.64614767432213
 20
-7.13804010748863
 30
0.0
 70
     0
  0
VERTEX
  8
1
 10
-9.56505251526833
 20
-7.11808311343193
 30
0.0
 70
     0
  0
VERTEX
  8
1
 10
-9.49035004377365
 20
-7.09827524423599
 30
0.0
 70
     0
  0
VERTEX
  8
1
 10
-9.41923489570618
 20
-7.07808358669281
 30
0.0
 70
     0
  0
VERTEX
  8
1
 10
-9.35169950127602
 20
-7.0576269865036
 30
0.0
 70
     0
  0
VERTEX
  8
1
 10
-9.28773023486137
 20
-7.03702807426453
 30
0.0
 70
     0
  0
VERTEX
  8
1
 10
-9.22730968594551
 20
-7.01639963984489
 30
0.0
 70
     0
  0
VERTEX
  8
1
 10
-9.1704196870327
 20
-6.99586128592491
 30
0.0
 70
     0
  0
VERTEX
  8
1
 10
-9.11703525781631
 20
-6.97552958726883
 30
0.0
 70
     0
  0
VERTEX
  8
1
 10
-9.05313033461571
 20
-6.94969086647034
 30
0.0
 42
-0.000043633055946
 70
     0
  0
VERTEX
  8
1
 10
-8.93341864943504
 20
-7.1029155254364
 30
0.0
 70
     0
  0
VERTEX
  8
1
 10
-8.97395033240318
 20
-7.15867156982422
 30
0.0
 70
     0
  0
VERTEX
  8
1
 10
-9.00659353733063
 20
-7.20555052161217
 30
0.0
 70
     0
  0
VERTEX
  8
1
 10
-9.04028440117836
 20
-7.25578364729881
 30
0.0
 70
     0
  0
VERTEX
  8
1
 10
-9.07491694688797
 20
-7.30941863656044
 30
0.0
 70
     0
  0
VERTEX
  8
1
 10
-9.11038065552711
 20
-7.36650393605232
 30
0.0
 70
     0
  0
VERTEX
  8
1
 10
-9.14656727910042
 20
-7.42708420753479
 30
0.0
 70
     0
  0
VERTEX
  8
1
 10
-9.18336251378059
 20
-7.49120108485222
 30
0.0
 70
     0
  0
VERTEX
  8
1
 10
-9.22065508365631
 20
-7.55889393091202
 30
0.0
 70
     0
  0
VERTEX
  8
1
 10
-9.25963798761368
 20
-7.63275085687637
 30
0.0
 70
     0
  0
VERTEX
  8
1
 10
-9.124724650383
 20
-7.79353243708611
 30
0.0
 70
     0
  0
VERTEX
  8
1
 10
-9.04521990418434
 20
-7.76796622872353
 30
0.0
 70
     0
  0
VERTEX
  8
1
 10
-8.97208059430122
 20
-7.74299576282501
 30
0.0
 70
     0
  0
VERTEX
  8
1
 10
-8.90254677534103
 20
-7.7178920686245
 30
0.0
 70
     0
  0
VERTEX
  8
1
 10
-8.836603307724
 20
-7.69277550578117
 30
0.0
 70
     0
  0
VERTEX
  8
1
 10
-8.77422748208046
 20
-7.66776340603828
 30
0.0
 70
     0
  0
VERTEX
  8
1
 10
-8.71539280414581
 20
-7.6429708302021
 30
0.0
 70
     0
  0
VERTEX
  8
1
 10
-8.66007353663444
 20
-7.61851359605789
 30
0.0
 70
     0
  0
VERTEX
  8
1
 10
-8.60823712944984
 20
-7.5945082783699
 30
0.0
 70
     0
  0
VERTEX
  8
1
 10
-8.54629051089287
 20
-7.56427378058434
 30
0.0
 42
-0.000043633189168
 70
     0
  0
VERTEX
  8
1
 10
-8.41618171930313
 20
-7.70877501368523
 30
0.0
 70
     0
  0
VERTEX
  8
1
 10
-8.45272563695907
 20
-7.76722211837768
 30
0.0
 70
     0
  0
VERTEX
  8
1
 10
-8.48201845288277
 20
-7.81626451611519
 30
0.0
 70
     0
  0
VERTEX
  8
1
 10
-8.51212426424027
 20
-7.86872467398643
 30
0.0
 70
     0
  0
VERTEX
  8
1
 10
-8.54293028116226
 20
-7.92464498281479
 30
0.0
 70
     0
  0
VERTEX
  8
1
 10
-8.57432598471642
 20
-7.98406480550766
 30
0.0
 70
     0
  0
VERTEX
  8
1
 10
-8.60619782805443
 20
-8.04702199101448
 30
0.0
 70
     0
  0
VERTEX
  8
1
 10
-8.63843150734901
 20
-8.11354984641075
 30
0.0
 70
     0
  0
VERTEX
  8
1
 10
-8.6709119617939
 20
-8.18367789387703
 30
0.0
 70
     0
  0
VERTEX
  8
1
 10
-8.70464748740196
 20
-8.26007599830627
 30
0.0
 70
     0
  0
VERTEX
  8
1
 10
-8.55884727835655
 20
-8.41105394363403
 30
0.0
 70
     0
  0
VERTEX
  8
1
 10
-8.48131900429726
 20
-8.38000417947769
 30
0.0
 70
     0
  0
VERTEX
  8
1
 10
-8.41009939312935
 20
-8.34999223351478
 30
0.0
 70
     0
  0
VERTEX
  8
1
 10
-8.34248754382133
 20
-8.32009989023209
 30
0.0
 70
     0
  0
VERTEX
  8
1
 10
-8.27845544815063
 20
-8.29044448137283
 30
0.0
 70
     0
  0
VERTEX
  8
1
 10
-8.21797585487366
 20
-8.26114182472229
 30
0.0
 70
     0
  0
VERTEX
  8
1
 10
-8.16101394295692
 20
-8.23230546712875
 30
0.0
 70
     0
  0
VERTEX
  8
1
 10
-8.10753640532494
 20
-8.20404971241951
 30
0.0
 70
     0
  0
VERTEX
  8
1
 10
-8.05750085115433
 20
-8.17648659348488
 30
0.0
 70
     0
  0
VERTEX
  8
1
 10
-7.99781457185745
 20
-8.14200468659401
 30
0.0
 42
-0.000043633368696
 70
     0
  0
VERTEX
  8
1
 10
-7.85794226527214
 20
-8.27707850337029
 30
0.0
 70
     0
  0
VERTEX
  8
1
 10
-7.89032052755356
 20
-8.33793204426765
 30
0.0
 70
     0
  0
VERTEX
  8
1
 10
-7.91612139940262
 20
-8.3888986825943
 30
0.0
 70
     0
  0
VERTEX
  8
1
 10
-7.94249379038811
 20
-8.44333152770996
 30
0.0
 70
     0
  0
VERTEX
  8
1
 10
-7.96932415366173
 20
-8.50126464366913
 30
0.0
 70
     0
  0
VERTEX
  8
1
 10
-7.99649894237518
 20
-8.56272982358932
 30
0.0
 70
     0
  0
VERTEX
  8
1
 10
-8.02390158176422
 20
-8.62775658965111
 30
0.0
 70
     0
  0
VERTEX
  8
1
 10
-8.05141549706459
 20
-8.69637067914009
 30
0.0
 70
     0
  0
VERTEX
  8
1
 10
-8.07892411351204
 20
-8.76859404444694
 30
0.0
 70
     0
  0
VERTEX
  8
1
 10
-8.10724875330925
 20
-8.84715786576271
 30
0.0
 70
     0
  0
VERTEX
  8
1
 10
-7.95127171874046
 20
-8.9875986635685
 30
0.0
 70
     0
  0
VERTEX
  8
1
 10
-7.87609840631485
 20
-8.95121673941612
 30
0.0
 70
     0
  0
VERTEX
  8
1
 10
-7.80714594721794
 20
-8.91631016731262
 30
0.0
 70
     0
  0
VERTEX
  8
1
 10
-7.74178383946419
 20
-8.88177375793457
 30
0.0
 70
     0
  0
VERTEX
  8
1
 10
-7.67997650504112
 20
-8.84772408604622
 30
0.0
 70
     0
  0
VERTEX
  8
1
 10
-7.62168912291527
 20
-8.81427394151688
 30
0.0
 70
     0
  0
VERTEX
  8
1
 10
-7.56687703132629
 20
-8.78153460025787
 30
0.0
 70
     0
  0
VERTEX
  8
1
 10
-7.5155001103878
 20
-8.74961733818054
 30
0.0
 70
     0
  0
VERTEX
  8
1
 10
-7.46750991344452
 20
-8.71863040328026
 30
0.0
 70
     0
  0
VERTEX
  8
1
 10
-7.41037313938141
 20
-8.68006913661957
 30
0.0
 42
-0.00004363323741
 70
     0
  0
VERTEX
  8
1
 10
-7.26142011284828
 20
-8.8050569653511
 30
0.0
 70
     0
  0
VERTEX
  8
1
 10
-7.28947451114654
 20
-8.86802096366882
 30
0.0
 70
     0
  0
VERTEX
  8
1
 10
-7.31165626645088
 20
-8.92066203951836
 30
0.0
 70
     0
  0
VERTEX
  8
1
 10
-7.33416806459427
 20
-8.97680187225342
 30
0.0
 70
     0
  0
VERTEX
  8
1
 10
-7.35689181685448
 20
-9.03646619915962
 30
0.0
 70
     0
  0
VERTEX
  8
1
 10
-7.37971246242523
 20
-9.09967697262764
 30
0.0
 70
     0
  0
VERTEX
  8
1
 10
-7.40251266956329
 20
-9.16645765900612
 30
0.0
 70
     0
  0
VERTEX
  8
1
 10
-7.42517359256744
 20
-9.23682264089584
 30
0.0
 70
     0
  0
VERTEX
  8
1
 10
-7.44757714271545
 20
-9.31079008579254
 30
0.0
 70
     0
  0
VERTEX
  8
1
 10
-7.47035236954689
 20
-9.39113810658455
 30
0.0
 70
     0
  0
VERTEX
  8
1
 10
-7.30495851635933
 20
-9.52035669088364
 30
0.0
 70
     0
  0
VERTEX
  8
1
 10
-7.2325065433979
 20
-9.47881898283958
 30
0.0
 70
     0
  0
VERTEX
  8
1
 10
-7.16615657806396
 20
-9.43918734788895
 30
0.0
 70
     0
  0
VERTEX
  8
1
 10
-7.10336290001869
 20
-9.40017567873001
 30
0.0
 70
     0
  0
VERTEX
  8
1
 10
-7.04408160448074
 20
-9.36189752221108
 30
0.0
 70
     0
  0
VERTEX
  8
1
 10
-6.98826954364777
 20
-9.32446339726448
 30
0.0
 70
     0
  0
VERTEX
  8
1
 10
-6.93587524294853
 20
-9.28798003792763
 30
0.0
 70
     0
  0
VERTEX
  8
1
 10
-6.88684949874878
 20
-9.25255644917488
 30
0.0
 70
     0
  0
VERTEX
  8
1
 10
-6.84113705158234
 20
-9.21829785108566
 30
0.0
 70
     0
  0
VERTEX
  8
1
 10
-6.78683062195778
 20
-9.17584495544433
 30
0.0
 42
-0.000043633299382
 70
     0
  0
VERTEX
  8
1
 10
-6.62952054738998
 20
-9.29013667106628
 30
0.0
 70
     0
  0
VERTEX
  8
1
 10
-6.65311482548714
 20
-9.35490530729294
 30
0.0
 70
     0
  0
VERTEX
  8
1
 10
-6.67157073020935
 20
-9.40896647572517
 30
0.0
 70
     0
  0
VERTEX
  8
1
 10
-6.69011141657829
 20
-9.46654002666473
 30
0.0
 70
     0
  0
VERTEX
  8
1
 10
-6.70861803889275
 20
-9.52764337062836
 30
0.0
 70
     0
  0
VERTEX
  8
1
 10
-6.72697402238846
 20
-9.59229164719581
 30
0.0
 70
     0
  0
VERTEX
  8
1
 10
-6.74505976438522
 20
-9.66049999594688
 30
0.0
 70
     0
  0
VERTEX
  8
1
 10
-6.76275717616081
 20
-9.73227522969246
 30
0.0
 70
     0
  0
VERTEX
  8
1
 10
-6.77994665503502
 20
-9.80762491822243
 30
0.0
 70
     0
  0
VERTEX
  8
1
 10
-6.79706194996834
 20
-9.88936578035355
 30
0.0
 70
     0
  0
VERTEX
  8
1
 10
-6.62305746078491
 20
-10.0067315876484
 30
0.0
 70
     0
  0
VERTEX
  8
1
 10
-6.55367882251739
 20
-9.96024172306061
 30
0.0
 70
     0
  0
VERTEX
  8
1
 10
-6.49025533795357
 20
-9.91607805490494
 30
0.0
 70
     0
  0
VERTEX
  8
1
 10
-6.4303351521492
 20
-9.87278188467026
 30
0.0
 70
     0
  0
VERTEX
  8
1
 10
-6.37386830449104
 20
-9.83046146035194
 30
0.0
 70
     0
  0
VERTEX
  8
1
 10
-6.32080369889736
 20
-9.78922502994537
 30
0.0
 70
     0
  0
VERTEX
  8
1
 10
-6.27108153402805
 20
-9.749175542593
 30
0.0
 70
     0
  0
VERTEX
  8
1
 10
-6.22464655041695
 20
-9.71041821837425
 30
0.0
 70
     0
  0
VERTEX
  8
1
 10
-6.18143629729748
 20
-9.67305524945259
 30
0.0
 70
     0
  0
VERTEX
  8
1
 10
-6.13022212684155
 20
-9.62691662311554
 30
0.0
 42
-0.000043633201539
 70
     0
  0
VERTEX
  8
1
 10
-5.96532371640205
 20
-9.72995736002922
 30
0.0
 70
     0
  0
VERTEX
  8
1
 10
-5.98434205651283
 20
-9.79621421694755
 30
0.0
 70
     0
  0
VERTEX
  8
1
 10
-5.99898240864277
 20
-9.85143053531647
 30
0.0
 70
     0
  0
VERTEX
  8
1
 10
-6.01346152424812
 20
-9.91015620827675
 30
0.0
 70
     0
  0
VERTEX
  8
1
 10
-6.02766055762768
 20
-9.97240183353424
 30
0.0
 70
     0
  0
VERTEX
  8
1
 10
-6.0414617985487
 20
-10.0381734669209
 30
0.0
 70
     0
  0
VERTEX
  8
1
 10
-6.05474602282047
 20
-10.1074779212475
 30
0.0
 70
     0
  0
VERTEX
  8
1
 10
-6.0673932492733
 20
-10.1803129255772
 30
0.0
 70
     0
  0
VERTEX
  8
1
 10
-6.07928463220596
 20
-10.2566777229309
 30
0.0
 70
     0
  0
VERTEX
  8
1
 10
-6.09065559208393
 20
-10.3394140124321
 30
0.0
 70
     0
  0
VERTEX
  8
1
 10
-5.90888866186142
 20
-10.4443555235863
 30
0.0
 70
     0
  0
VERTEX
  8
1
 10
-5.84292172789574
 20
-10.3931390821934
 30
0.0
 70
     0
  0
VERTEX
  8
1
 10
-5.78273395001888
 20
-10.3446591198444
 30
0.0
 70
     0
  0
VERTEX
  8
1
 10
-5.72598020732403
 20
-10.2972881317139
 30
0.0
 70
     0
  0
VERTEX
  8
1
 10
-5.67260334789753
 20
-10.2511313378811
 30
0.0
 70
     0
  0
VERTEX
  8
1
 10
-5.62254357039928
 20
-10.2062947154045
 30
0.0
 70
     0
  0
VERTEX
  8
1
 10
-5.57573691010475
 20
-10.1628736436367
 30
0.0
 70
     0
  0
VERTEX
  8
1
 10
-5.53211826682091
 20
-10.1209725856781
 30
0.0
 70
     0
  0
VERTEX
  8
1
 10
-5.49161951243877
 20
-10.0806854069233
 30
0.0
 70
     0
  0
VERTEX
  8
1
 10
-5.4437489181757
 20
-10.0310873866081
 30
0.0
 42
-0.000043633267923
 70
     0
  0
VERTEX
  8
1
 10
-5.27206419110298
 20
-10.1223745107651
 30
0.0
 70
     0
  0
VERTEX
  8
1
 10
-5.28641386330128
 20
-10.1897963583469
 30
0.0
 70
     0
  0
VERTEX
  8
1
 10
-5.29716674983501
 20
-10.2458998560905
 30
0.0
 70
     0
  0
VERTEX
  8
1
 10
-5.30751427412033
 20
-10.3054922699928
 30
0.0
 70
     0
  0
VERTEX
  8
1
 10
-5.31733645498753
 20
-10.3685758709908
 30
0.0
 70
     0
  0
VERTEX
  8
1
 10
-5.32651596069336
 20
-10.4351506590843
 30
0.0
 70
     0
  0
VERTEX
  8
1
 10
-5.33493356704712
 20
-10.5052128493786
 30
0.0
 70
     0
  0
VERTEX
  8
1
 10
-5.3424692928791
 20
-10.5787526011467
 30
0.0
 70
     0
  0
VERTEX
  8
1
 10
-5.34900467097759
 20
-10.6557608306408
 30
0.0
 70
     0
  0
VERTEX
  8
1
 10
-5.35457679331303
 20
-10.7390883207321
 30
0.0
 70
     0
  0
VERTEX
  8
1
 10
-5.16593195199966
 20
-10.8310953319073
 30
0.0
 70
     0
  0
VERTEX
  8
1
 10
-5.10369843840599
 20
-10.7754021167755
 30
0.0
 70
     0
  0
VERTEX
  8
1
 10
-5.04703893959522
 20
-10.7228420376778
 30
0.0
 70
     0
  0
VERTEX
  8
1
 10
-4.99372831583023
 20
-10.6716278672218
 30
0.0
 70
     0
  0
VERTEX
  8
1
 10
-4.943700709939
 20
-10.6218595266342
 30
0.0
 70
     0
  0
VERTEX
  8
1
 10
-4.89689064323902
 20
-10.5736399650574
 30
0.0
 70
     0
  0
VERTEX
  8
1
 10
-4.85322695970535
 20
-10.5270607769489
 30
0.0
 70
     0
  0
VERTEX
  8
1
 10
-4.81263774633408
 20
-10.4822180986404
 30
0.0
 70
     0
  0
VERTEX
  8
1
 10
-4.77504768371582
 20
-10.4392042815685
 30
0.0
 70
     0
  0
VERTEX
  8
1
 10
-4.73075343668461
 20
-10.3863883435726
 30
0.0
 42
-0.000043633228763
 70
     0
  0
VERTEX
  8
1
 10
-4.55311885476112
 20
-10.4654759943485
 30
0.0
 70
     0
  0
VERTEX
  8
1
 10
-4.56273135244846
 20
-10.5337350606918
 30
0.0
 70
     0
  0
VERTEX
  8
1
 10
-4.56954416334629
 20
-10.5904517114162
 30
0.0
 70
     0
  0
VERTEX
  8
1
 10
-4.57570937871933
 20
-10.6506209433079
 30
0.0
 70
     0
  0
VERTEX
  8
1
 10
-4.58110739588737
 20
-10.7142374575138
 30
0.0
 70
     0
  0
VERTEX
  8
1
 10
-4.58562050461769
 20
-10.7812898993492
 30
0.0
 70
     0
  0
VERTEX
  8
1
 10
-4.58913023769856
 20
-10.8517676711082
 30
0.0
 70
     0
  0
VERTEX
  8
1
 10
-4.59151774942875
 20
-10.9256541192532
 30
0.0
 70
     0
  0
VERTEX
  8
1
 10
-4.59266532957554
 20
-11.0029303193092
 30
0.0
 70
     0
  0
VERTEX
  8
1
 10
-4.59241098463535
 20
-11.0864440262318
 30
0.0
 70
     0
  0
VERTEX
  8
1
 10
-4.39780796170235
 20
-11.1650676488876
 30
0.0
 70
     0
  0
VERTEX
  8
1
 10
-4.33961103856564
 20
-11.1051686584949
 30
0.0
 70
     0
  0
VERTEX
  8
1
 10
-4.28675611615181
 20
-11.0487843215466
 30
0.0
 70
     0
  0
VERTEX
  8
1
 10
-4.2371474981308
 20
-10.9939760148525
 30
0.0
 70
     0
  0
VERTEX
  8
1
 10
-4.19071402847767
 20
-10.9408406317234
 30
0.0
 70
     0
  0
VERTEX
  8
1
 10
-4.14738152325153
 20
-10.8894720375538
 30
0.0
 70
     0
  0
VERTEX
  8
1
 10
-4.10707314908504
 20
-10.8399603128433
 30
0.0
 70
     0
  0
VERTEX
  8
1
 10
-4.06971093714237
 20
-10.7923955380917
 30
0.0
 70
     0
  0
VERTEX
  8
1
 10
-4.03521275520325
 20
-10.7468640089035
 30
0.0
 70
     0
  0
VERTEX
  8
1
 10
-3.99471097290516
 20
-10.691087526083
 30
0.0
 42
-0.000043633233279
 70
     0
  0
VERTEX
  8
1
 10
-3.81199214160442
 20
-10.7575911581516
 30
0.0
 70
     0
  0
VERTEX
  8
1
 10
-3.81681901812553
 20
-10.8263543725014
 30
0.0
 70
     0
  0
VERTEX
  8
1
 10
-3.81965920329094
 20
-10.8834086358547
 30
0.0
 70
     0
  0
VERTEX
  8
1
 10
-3.82161220908165
 20
-10.9438617348671
 30
0.0
 70
     0
  0
VERTEX
  8
1
 10
-3.82255956828594
 20
-11.0076992869377
 30
0.0
 70
     0
  0
VERTEX
  8
1
 10
-3.82238432765007
 20
-11.0749023675919
 30
0.0
 70
     0
  0
VERTEX
  8
1
 10
-3.82096915543079
 20
-11.1454543232918
 30
0.0
 70
     0
  0
VERTEX
  8
1
 10
-3.81819671988487
 20
-11.2193271458149
 30
0.0
 70
     0
  0
VERTEX
  8
1
 10
-3.81395082473755
 20
-11.2964950978756
 30
0.0
 70
     0
  0
VERTEX
  8
1
 10
-3.80787190496922
 20
-11.3797877669334
 30
0.0
 70
     0
  0
VERTEX
  8
1
 10
-3.60825805962086
 20
-11.4446457266808
 30
0.0
 70
     0
  0
VERTEX
  8
1
 10
-3.55438121557236
 20
-11.3808323979378
 30
0.0
 70
     0
  0
VERTEX
  8
1
 10
-3.50558824241161
 20
-11.3208985865116
 30
0.0
 70
     0
  0
VERTEX
  8
1
 10
-3.45992386341095
 20
-11.2627626001835
 30
0.0
 70
     0
  0
VERTEX
  8
1
 10
-3.41730973124504
 20
-11.20651679039
 30
0.0
 70
     0
  0
VERTEX
  8
1
 10
-3.37766636312008
 20
-11.1522519946098
 30
0.0
 70
     0
  0
VERTEX
  8
1
 10
-3.34090973436832
 20
-11.1000484526157
 30
0.0
 70
     0
  0
VERTEX
  8
1
 10
-3.30695657730103
 20
-11.0499939739704
 30
0.0
 70
     0
  0
VERTEX
  8
1
 10
-3.27571832537651
 20
-11.0021672844887
 30
0.0
 70
     0
  0
VERTEX
  8
1
 10
-3.23920620083809
 20
-10.9437004983425
 30
0.0
 42
-0.000043633295591
 70
     0
  0
VERTEX
  8
1
 10
-3.0522935166955
 20
-10.9972976386547
 30
0.0
 70
     0
  0
VERTEX
  8
1
 10
-3.05231168419123
 20
-11.0662281453609
 30
0.0
 70
     0
  0
VERTEX
  8
1
 10
-3.05116523951292
 20
-11.1233414530754
 30
0.0
 70
     0
  0
VERTEX
  8
1
 10
-3.0488963842392
 20
-11.183783197403
 30
0.0
 70
     0
  0
VERTEX
  8
1
 10
-3.04538835436106
 20
-11.2475314259529
 30
0.0
 70
     0
  0
VERTEX
  8
1
 10
-3.04052552133799
 20
-11.3145596444607
 30
0.0
 70
     0
  0
VERTEX
  8
1
 10
-3.03419225662947
 20
-11.3848406016827
 30
0.0
 70
     0
  0
VERTEX
  8
1
 10
-3.02627349942923
 20
-11.4583402335644
 30
0.0
 70
     0
  0
VERTEX
  8
1
 10
-3.01665532439947
 20
-11.5350237190723
 30
0.0
 70
     0
  0
VERTEX
  8
1
 10
-3.00478059500456
 20
-11.6176896095276
 30
0.0
 70
     0
  0
VERTEX
  8
1
 10
-2.80112883448601
 20
-11.6684647321701
 30
0.0
 70
     0
  0
VERTEX
  8
1
 10
-2.75183493047953
 20
-11.6010489404201
 30
0.0
 70
     0
  0
VERTEX
  8
1
 10
-2.70734140872955
 20
-11.5378578484058
 30
0.0
 70
     0
  0
VERTEX
  8
1
 10
-2.66584363132715
 20
-11.4766780495644
 30
0.0
 70
     0
  0
VERTEX
  8
1
 10
-2.62725681662559
 20
-11.4175973534584
 30
0.0
 70
     0
  0
VERTEX
  8
1
 10
-2.59149523675442
 20
-11.3606982707977
 30
0.0
 70
     0
  0
VERTEX
  8
1
 10
-2.55846975743771
 20
-11.3060580134392
 30
0.0
 70
     0
  0
VERTEX
  8
1
 10
-2.52809067666531
 20
-11.2537568211555
 30
0.0
 70
     0
  0
VERTEX
  8
1
 10
-2.50026526451111
 20
-11.2038673639297
 30
0.0
 70
     0
  0
VERTEX
  8
1
 10
-2.46792030930519
 20
-11.1429964125156
 30
0.0
 42
-0.000043633278788
 70
     0
  0
VERTEX
  8
1
 10
-2.27772422879934
 20
-11.1834243893623
 30
0.0
 70
     0
  0
VERTEX
  8
1
 10
-2.27293425500393
 20
-11.252189874649
 30
0.0
 70
     0
  0
VERTEX
  8
1
 10
-2.26780647933483
 20
-11.3090836584568
 30
0.0
 70
     0
  0
VERTEX
  8
1
 10
-2.26132673919201
 20
-11.3692203402519
 30
0.0
 70
     0
  0
VERTEX
  8
1
 10
-2.25338054150343
 20
-11.4325673699379
 30
0.0
 70
     0
  0
VERTEX
  8
1
 10
-2.24385377168655
 20
-11.4990944683552
 30
0.0
 70
     0
  0
VERTEX
  8
1
 10
-2.23263363987207
 20
-11.5687615156174
 30
0.0
 70
     0
  0
VERTEX
  8
1
 10
-2.21960716694593
 20
-11.6415299057961
 30
0.0
 70
     0
  0
VERTEX
  8
1
 10
-2.2046630769968
 20
-11.7173557341099
 30
0.0
 70
     0
  0
VERTEX
  8
1
 10
-2.18705101460218
 20
-11.7989913761616
 30
0.0
 70
     0
  0
VERTEX
  8
1
 10
-1.98035335987806
 20
-11.835436886549
 30
0.0
 70
     0
  0
VERTEX
  8
1
 10
-1.93588197976351
 20
-11.7647479176521
 30
0.0
 70
     0
  0
VERTEX
  8
1
 10
-1.8959049731493
 20
-11.6986061215401
 30
0.0
 70
     0
  0
VERTEX
  8
1
 10
-1.85877572149038
 20
-11.6346807599068
 30
0.0
 70
     0
  0
VERTEX
  8
1
 10
-1.82440433353186
 20
-11.573052072525
 30
0.0
 70
     0
  0
VERTEX
  8
1
 10
-1.79269902557135
 20
-11.5137972712517
 30
0.0
 70
     0
  0
VERTEX
  8
1
 10
-1.76356555372477
 20
-11.4569867551327
 30
0.0
 70
     0
  0
VERTEX
  8
1
 10
-1.73690891712904
 20
-11.4026931941509
 30
0.0
 70
     0
  0
VERTEX
  8
1
 10
-1.71263146549463
 20
-11.3509847164154
 30
0.0
 70
     0
  0
VERTEX
  8
1
 10
-1.68461132049561
 20
-11.2880055785179
 30
0.0
 42
-0.000043633290379
 70
     0
  0
VERTEX
  8
1
 10
-1.4920583859086
 20
-11.3150675773621
 30
0.0
 70
     0
  0
VERTEX
  8
1
 10
-1.48248326405883
 20
-11.3833304286003
 30
0.0
 70
     0
  0
VERTEX
  8
1
 10
-1.47339913770556
 20
-11.4397283911705
 30
0.0
 70
     0
  0
VERTEX
  8
1
 10
-1.46274040043354
 20
-11.4992663025856
 30
0.0
 70
     0
  0
VERTEX
  8
1
 10
-1.45039454624057
 20
-11.5619055569172
 30
0.0
 70
     0
  0
VERTEX
  8
1
 10
-1.43625048846006
 20
-11.6276045203209
 30
0.0
 70
     0
  0
VERTEX
  8
1
 10
-1.42019770815969
 20
-11.6963200449944
 30
0.0
 70
     0
  0
VERTEX
  8
1
 10
-1.40212691649795
 20
-11.7680014133453
 30
0.0
 70
     0
  0
VERTEX
  8
1
 10
-1.38192996010184
 20
-11.8426016926765
 30
0.0
 70
     0
  0
VERTEX
  8
1
 10
-1.35866600871086
 20
-11.9228096723557
 30
0.0
 70
     0
  0
VERTEX
  8
1
 10
-1.14992962032557
 20
-11.9447484374046
 30
0.0
 70
     0
  0
VERTEX
  8
1
 10
-1.11049754396081
 20
-11.8711284458637
 30
0.0
 70
     0
  0
VERTEX
  8
1
 10
-1.07523187994957
 20
-11.8023584187031
 30
0.0
 70
     0
  0
VERTEX
  8
1
 10
-1.04265235587955
 20
-11.7360001266003
 30
0.0
 70
     0
  0
VERTEX
  8
1
 10
-1.01266359239817
 20
-11.6721232116222
 30
0.0
 70
     0
  0
VERTEX
  8
1
 10
-0.985168885439634
 20
-11.6108018577099
 30
0.0
 70
     0
  0
VERTEX
  8
1
 10
-0.960069260001183
 20
-11.5520966231823
 30
0.0
 70
     0
  0
VERTEX
  8
1
 10
-0.93726479485631
 20
-11.4960763931274
 30
0.0
 70
     0
  0
VERTEX
  8
1
 10
-0.916653487086296
 20
-11.4428002119064
 30
0.0
 70
     0
  0
VERTEX
  8
1
 10
-0.893094976246357
 20
-11.378019464016
 30
0.0
 42
-0.000043633322354
 70
     0
  0
VERTEX
  8
1
 10
-0.699123273789883
 20
-11.3915845274925
 30
0.0
 70
     0
  0
VERTEX
  8
1
 10
-0.684809652715921
 20
-11.4590131878853
 30
0.0
 70
     0
  0
VERTEX
  8
1
 10
-0.671813695505261
 20
-11.514639788866
 30
0.0
 70
     0
  0
VERTEX
  8
1
 10
-0.657027672231197
 20
-11.5732890069485
 30
0.0
 70
     0
  0
VERTEX
  8
1
 10
-0.640342435985804
 20
-11.6349139094353
 30
0.0
 70
     0
  0
VERTEX
  8
1
 10
-0.621649833396077
 20
-11.6994668066502
 30
0.0
 70
     0
  0
VERTEX
  8
1
 10
-0.600842846557498
 20
-11.7668954670429
 30
0.0
 70
     0
  0
VERTEX
  8
1
 10
-0.577815829589963
 20
-11.8371423602104
 30
0.0
 70
     0
  0
VERTEX
  8
1
 10
-0.552464224770665
 20
-11.9101507127285
 30
0.0
 70
     0
  0
VERTEX
  8
1
 10
-0.523661931231618
 20
-11.9885404288769
 30
0.0
 70
     0
  0
VERTEX
  8
1
 10
-0.313903644867241
 20
-11.995864957571
 30
0.0
 70
     0
  0
VERTEX
  8
1
 10
-0.279703144915402
 20
-11.9196742653847
 30
0.0
 70
     0
  0
VERTEX
  8
1
 10
-0.249320421181619
 20
-11.8486121058464
 30
0.0
 70
     0
  0
VERTEX
  8
1
 10
-0.221449211798608
 20
-11.7801418423653
 30
0.0
 70
     0
  0
VERTEX
  8
1
 10
-0.195989358983934
 20
-11.7143293321133
 30
0.0
 70
     0
  0
VERTEX
  8
1
 10
-0.17283923830837
 20
-11.6512389183044
 30
0.0
 70
     0
  0
VERTEX
  8
1
 10
-0.151895806007087
 20
-11.5909273743629
 30
0.0
 70
     0
  0
VERTEX
  8
1
 10
-0.133054575324059
 20
-11.5334522306919
 30
0.0
 70
     0
  0
VERTEX
  8
1
 10
-0.116209900379181
 20
-11.4788672327995
 30
0.0
 70
     0
  0
VERTEX
  8
1
 10
-0.097227611392736
 20
-11.4126012921333
 30
0.0
 42
-0.000043633302376
 70
     0
  0
VERTEX
  8
1
 10
0.097217723354697
 20
-11.4126020491123
 30
0.0
 70
     0
  0
VERTEX
  8
1
 10
0.116200083307922
 20
-11.4788679897785
 30
0.0
 70
     0
  0
VERTEX
  8
1
 10
0.133044710941613
 20
-11.5334529876709
 30
0.0
 70
     0
  0
VERTEX
  8
1
 10
0.151885894313455
 20
-11.5909281313419
 30
0.0
 70
     0
  0
VERTEX
  8
1
 10
0.172829302959144
 20
-11.6512396752834
 30
0.0
 70
     0
  0
VERTEX
  8
1
 10
0.195979329012334
 20
-11.7143308460712
 30
0.0
 70
     0
  0
VERTEX
  8
1
 10
0.221439181827009
 20
-11.7801433563232
 30
0.0
 70
     0
  0
VERTEX
  8
1
 10
0.249310296587646
 20
-11.8486128628254
 30
0.0
 70
     0
  0
VERTEX
  8
1
 10
0.279692949354649
 20
-11.9196750223637
 30
0.0
 70
     0
  0
VERTEX
  8
1
 10
0.313893331028521
 20
-11.995864957571
 30
0.0
 70
     0
  0
VERTEX
  8
1
 10
0.523651522770524
 20
-11.9885389149189
 30
0.0
 70
     0
  0
VERTEX
  8
1
 10
0.552453910931945
 20
-11.9101484417915
 30
0.0
 70
     0
  0
VERTEX
  8
1
 10
0.577805563062429
 20
-11.8371400892735
 30
0.0
 70
     0
  0
VERTEX
  8
1
 10
0.600832627341151
 20
-11.766892439127
 30
0.0
 70
     0
  0
VERTEX
  8
1
 10
0.621639661490917
 20
-11.6994645357132
 30
0.0
 70
     0
  0
VERTEX
  8
1
 10
0.640332358703017
 20
-11.6349131524563
 30
0.0
 70
     0
  0
VERTEX
  8
1
 10
0.657017642259598
 20
-11.5732867360115
 30
0.0
 70
     0
  0
VERTEX
  8
1
 10
0.671803712844849
 20
-11.5146375179291
 30
0.0
 70
     0
  0
VERTEX
  8
1
 10
0.684799717366695
 20
-11.4590109169483
 30
0.0
 70
     0
  0
VERTEX
  8
1
 10
0.699113338440657
 20
-11.3915822565556
 30
0.0
 42
-0.000043633274523
 70
     0
  0
VERTEX
  8
1
 10
0.893084946274757
 20
-11.378019464016
 30
0.0
 70
     0
  0
VERTEX
  8
1
 10
0.916643457114696
 20
-11.4427994549274
 30
0.0
 70
     0
  0
VERTEX
  8
1
 10
0.93725476488471
 20
-11.4960756361485
 30
0.0
 70
     0
  0
VERTEX
  8
1
 10
0.960059324651957
 20
-11.5520973801613
 30
0.0
 70
     0
  0
VERTEX
  8
1
 10
0.985158855468035
 20
-11.6108003437519
 30
0.0
 70
     0
  0
VERTEX
  8
1
 10
1.01265346780419
 20
-11.6721239686012
 30
0.0
 70
     0
  0
VERTEX
  8
1
 10
1.0426421366632
 20
-11.7359993696213
 30
0.0
 70
     0
  0
VERTEX
  8
1
 10
1.07522156611085
 20
-11.8023584187031
 30
0.0
 70
     0
  0
VERTEX
  8
1
 10
1.11048732474446
 20
-11.8711276888847
 30
0.0
 70
     0
  0
VERTEX
  8
1
 10
1.1499191172421
 20
-11.9447469234467
 30
0.0
 70
     0
  0
VERTEX
  8
1
 10
1.35865531638265
 20
-11.9228066444397
 30
0.0
 70
     0
  0
VERTEX
  8
1
 10
1.38191926777363
 20
-11.8425979077816
 30
0.0
 70
     0
  0
VERTEX
  8
1
 10
1.40211641341448
 20
-11.7679991424084
 30
0.0
 70
     0
  0
VERTEX
  8
1
 10
1.42018711045384
 20
-11.6963162600994
 30
0.0
 70
     0
  0
VERTEX
  8
1
 10
1.43623989075422
 20
-11.6276007354259
 30
0.0
 70
     0
  0
VERTEX
  8
1
 10
1.45038413777947
 20
-11.5619025290012
 30
0.0
 70
     0
  0
VERTEX
  8
1
 10
1.46272989735007
 20
-11.4992625176907
 30
0.0
 70
     0
  0
VERTEX
  8
1
 10
1.47338882386684
 20
-11.4397246062756
 30
0.0
 70
     0
  0
VERTEX
  8
1
 10
1.48247295022011
 20
-11.3833266437054
 30
0.0
 70
     0
  0
VERTEX
  8
1
 10
1.49204807206988
 20
-11.3150645494461
 30
0.0
 42
-0.000043633259827
 70
     0
  0
VERTEX
  8
1
 10
1.68460091203451
 20
-11.2880033075809
 30
0.0
 70
     0
  0
VERTEX
  8
1
 10
1.71262086778879
 20
-11.3509824454784
 30
0.0
 70
     0
  0
VERTEX
  8
1
 10
1.7368983194232
 20
-11.4026916801929
 30
0.0
 70
     0
  0
VERTEX
  8
1
 10
1.76355514526367
 20
-11.4569852411747
 30
0.0
 70
     0
  0
VERTEX
  8
1
 10
1.79268842786551
 20
-11.5137950003147
 30
0.0
 70
     0
  0
VERTEX
  8
1
 10
1.82439373582602
 20
-11.573050558567
 30
0.0
 70
     0
  0
VERTEX
  8
1
 10
1.85876512378454
 20
-11.6346792459488
 30
0.0
 70
     0
  0
VERTEX
  8
1
 10
1.89589418619871
 20
-11.6986030936241
 30
0.0
 70
     0
  0
VERTEX
  8
1
 10
1.93587119281292
 20
-11.7647456467152
 30
0.0
 70
     0
  0
VERTEX
  8
1
 10
1.98034219443798
 20
-11.835434615612
 30
0.0
 70
     0
  0
VERTEX
  8
1
 10
2.18703965991735
 20
-11.7989875912666
 30
0.0
 70
     0
  0
VERTEX
  8
1
 10
2.20465172231197
 20
-11.717350435257
 30
0.0
 70
     0
  0
VERTEX
  8
1
 10
2.2195958122611
 20
-11.6415253639221
 30
0.0
 70
     0
  0
VERTEX
  8
1
 10
2.23262228518724
 20
-11.5687562167644
 30
0.0
 70
     0
  0
VERTEX
  8
1
 10
2.24384260624647
 20
-11.4990884125233
 30
0.0
 70
     0
  0
VERTEX
  8
1
 10
2.25336956530809
 20
-11.432563585043
 30
0.0
 70
     0
  0
VERTEX
  8
1
 10
2.26131557375193
 20
-11.36921428442
 30
0.0
 70
     0
  0
VERTEX
  8
1
 10
2.2677955031395
 20
-11.3090791165829
 30
0.0
 70
     0
  0
VERTEX
  8
1
 10
2.27292327880859
 20
-11.2521845757961
 30
0.0
 70
     0
  0
VERTEX
  8
1
 10
2.27771325260401
 20
-11.1834206044674
 30
0.0
 42
-0.000043633349747
 70
     0
  0
VERTEX
  8
1
 10
2.46790971159935
 20
-11.1429933845997
 30
0.0
 70
     0
  0
VERTEX
  8
1
 10
2.50025447756052
 20
-11.2038650929928
 30
0.0
 70
     0
  0
VERTEX
  8
1
 10
2.52807970046997
 20
-11.2537545502186
 30
0.0
 70
     0
  0
VERTEX
  8
1
 10
2.55845897048712
 20
-11.3060564994812
 30
0.0
 70
     0
  0
VERTEX
  8
1
 10
2.59148426055908
 20
-11.3606959998608
 30
0.0
 70
     0
  0
VERTEX
  8
1
 10
2.62724584043026
 20
-11.4175943255424
 30
0.0
 70
     0
  0
VERTEX
  8
1
 10
2.66583246588707
 20
-11.4766757786274
 30
0.0
 70
     0
  0
VERTEX
  8
1
 10
2.70733005404472
 20
-11.5378540635109
 30
0.0
 70
     0
  0
VERTEX
  8
1
 10
2.7518235757947
 20
-11.6010466694832
 30
0.0
 70
     0
  0
VERTEX
  8
1
 10
2.80111747980118
 20
-11.6684609472752
 30
0.0
 70
     0
  0
VERTEX
  8
1
 10
3.00476886183023
 20
-11.6176843106747
 30
0.0
 70
     0
  0
VERTEX
  8
1
 10
3.01664321273565
 20
-11.5350176632404
 30
0.0
 70
     0
  0
VERTEX
  8
1
 10
3.0262617662549
 20
-11.4583349347115
 30
0.0
 70
     0
  0
VERTEX
  8
1
 10
3.0341803342104
 20
-11.3848353028297
 30
0.0
 70
     0
  0
VERTEX
  8
1
 10
3.04051359891891
 20
-11.3145543456078
 30
0.0
 70
     0
  0
VERTEX
  8
1
 10
3.04537662118673
 20
-11.247526884079
 30
0.0
 70
     0
  0
VERTEX
  8
1
 10
3.04888446182013
 20
-11.18377789855
 30
0.0
 70
     0
  0
VERTEX
  8
1
 10
3.0511535063386
 20
-11.1233361542225
 30
0.0
 70
     0
  0
VERTEX
  8
1
 10
3.05230014026165
 20
-11.066223603487
 30
0.0
 70
     0
  0
VERTEX
  8
1
 10
3.05228178352118
 20
-10.9972923398018
 30
0.0
 42
-0.000043633230757
 70
     0
  0
VERTEX
  8
1
 10
3.23919446766377
 20
-10.9436967134476
 30
0.0
 70
     0
  0
VERTEX
  8
1
 10
3.27570659220219
 20
-11.0021634995937
 30
0.0
 70
     0
  0
VERTEX
  8
1
 10
3.30694408714771
 20
-11.0499901890755
 30
0.0
 70
     0
  0
VERTEX
  8
1
 10
3.340898001194
 20
-11.1000461816788
 30
0.0
 70
     0
  0
VERTEX
  8
1
 10
3.37765425145626
 20
-11.1522482097149
 30
0.0
 70
     0
  0
VERTEX
  8
1
 10
3.41729761958122
 20
-11.206514519453
 30
0.0
 70
     0
  0
VERTEX
  8
1
 10
3.45991175174713
 20
-11.2627603292465
 30
0.0
 70
     0
  0
VERTEX
  8
1
 10
3.5055757522583
 20
-11.3208940446377
 30
0.0
 70
     0
  0
VERTEX
  8
1
 10
3.55436910390854
 20
-11.3808293700218
 30
0.0
 70
     0
  0
VERTEX
  8
1
 10
3.60824556946754
 20
-11.4446411848068
 30
0.0
 70
     0
  0
VERTEX
  8
1
 10
3.80785903632641
 20
-11.3797817111015
 30
0.0
 70
     0
  0
VERTEX
  8
1
 10
3.81393795609474
 20
-11.2964890420437
 30
0.0
 70
     0
  0
VERTEX
  8
1
 10
3.81818385124207
 20
-11.219321089983
 30
0.0
 70
     0
  0
VERTEX
  8
1
 10
3.82095590829849
 20
-11.1454482674599
 30
0.0
 70
     0
  0
VERTEX
  8
1
 10
3.82237108051777
 20
-11.0748963117599
 30
0.0
 70
     0
  0
VERTEX
  8
1
 10
3.82254669964314
 20
-11.0076924741268
 30
0.0
 70
     0
  0
VERTEX
  8
1
 10
3.82159896194935
 20
-10.9438549220562
 30
0.0
 70
     0
  0
VERTEX
  8
1
 10
3.81964671313763
 20
-10.8834018230438
 30
0.0
 70
     0
  0
VERTEX
  8
1
 10
3.81680652797222
 20
-10.8263490736485
 30
0.0
 70
     0
  0
VERTEX
  8
1
 10
3.81197965145111
 20
-10.7575873732567
 30
0.0
 42
-0.000043633325801
 70
     0
  0
VERTEX
  8
1
 10
3.99469848275185
 20
-10.6910829842091
 30
0.0
 70
     0
  0
VERTEX
  8
1
 10
4.03519988656044
 20
-10.7468609809875
 30
0.0
 70
     0
  0
VERTEX
  8
1
 10
4.06969806849956
 20
-10.7923925101757
 30
0.0
 70
     0
  0
VERTEX
  8
1
 10
4.10706065893173
 20
-10.8399572849274
 30
0.0
 70
     0
  0
VERTEX
  8
1
 10
4.14736827611923
 20
-10.8894682526588
 30
0.0
 70
     0
  0
VERTEX
  8
1
 10
4.19070115983486
 20
-10.9408368468285
 30
0.0
 70
     0
  0
VERTEX
  8
1
 10
4.23713462948799
 20
-10.9939729869366
 30
0.0
 70
     0
  0
VERTEX
  8
1
 10
4.28674286901951
 20
-11.0487805366516
 30
0.0
 70
     0
  0
VERTEX
  8
1
 10
4.33959779143333
 20
-11.105165630579
 30
0.0
 70
     0
  0
VERTEX
  8
1
 10
4.39779433608055
 20
-11.1650638639927
 30
0.0
 70
     0
  0
VERTEX
  8
1
 10
4.59239698052406
 20
-11.0864379703999
 30
0.0
 70
     0
  0
VERTEX
  8
1
 10
4.59265094697475
 20
-11.0029242634773
 30
0.0
 70
     0
  0
VERTEX
  8
1
 10
4.59150374531746
 20
-10.9256488204002
 30
0.0
 70
     0
  0
VERTEX
  8
1
 10
4.58911585509777
 20
-10.8517616152763
 30
0.0
 70
     0
  0
VERTEX
  8
1
 10
4.5856065005064
 20
-10.7812830865383
 30
0.0
 70
     0
  0
VERTEX
  8
1
 10
4.58109377026558
 20
-10.7142306447029
 30
0.0
 70
     0
  0
VERTEX
  8
1
 10
4.57569537460804
 20
-10.650614887476
 30
0.0
 70
     0
  0
VERTEX
  8
1
 10
4.56953053772449
 20
-10.5904456555843
 30
0.0
 70
     0
  0
VERTEX
  8
1
 10
4.56271734833717
 20
-10.5337290048599
 30
0.0
 70
     0
  0
VERTEX
  8
1
 10
4.55310598611832
 20
-10.4654714524746
 30
0.0
 42
-0.000043633265893
 70
     0
  0
VERTEX
  8
1
 10
4.7307405680418
 20
-10.3863838016987
 30
0.0
 70
     0
  0
VERTEX
  8
1
 10
4.77503443658352
 20
-10.4392004966736
 30
0.0
 70
     0
  0
VERTEX
  8
1
 10
4.81262412071228
 20
-10.4822143137455
 30
0.0
 70
     0
  0
VERTEX
  8
1
 10
4.85321371257305
 20
-10.527057749033
 30
0.0
 70
     0
  0
VERTEX
  8
1
 10
4.89687701761722
 20
-10.5736361801624
 30
0.0
 70
     0
  0
VERTEX
  8
1
 10
4.9436874628067
 20
-10.6218572556973
 30
0.0
 70
     0
  0
VERTEX
  8
1
 10
4.99371431171894
 20
-10.6716240823269
 30
0.0
 70
     0
  0
VERTEX
  8
1
 10
5.04702531397343
 20
-10.7228374958038
 30
0.0
 70
     0
  0
VERTEX
  8
1
 10
5.10368481278419
 20
-10.7753983318806
 30
0.0
 70
     0
  0
VERTEX
  8
1
 10
5.16591756939888
 20
-10.8310915470123
 30
0.0
 70
     0
  0
VERTEX
  8
1
 10
5.35456165373325
 20
-10.7390822649002
 30
0.0
 70
     0
  0
VERTEX
  8
1
 10
5.34898915290832
 20
-10.6557547748089
 30
0.0
 70
     0
  0
VERTEX
  8
1
 10
5.34245453178883
 20
-10.5787465453148
 30
0.0
 70
     0
  0
VERTEX
  8
1
 10
5.33491842746735
 20
-10.5052060365677
 30
0.0
 70
     0
  0
VERTEX
  8
1
 10
5.32650082111359
 20
-10.4351446032524
 30
0.0
 70
     0
  0
VERTEX
  8
1
 10
5.31732207238674
 20
-10.3685705721378
 30
0.0
 70
     0
  0
VERTEX
  8
1
 10
5.30749875605106
 20
-10.3054862141609
 30
0.0
 70
     0
  0
VERTEX
  8
1
 10
5.29715198874474
 20
-10.2458930432796
 30
0.0
 70
     0
  0
VERTEX
  8
1
 10
5.286399102211
 20
-10.189790302515
 30
0.0
 70
     0
  0
VERTEX
  8
1
 10
5.2720494300127
 20
-10.1223692119122
 30
0.0
 42
-0.000043633225843
 70
     0
  0
VERTEX
  8
1
 10
5.44373453557491
 20
-10.0310836017132
 30
0.0
 70
     0
  0
VERTEX
  8
1
 10
5.4916047513485
 20
-10.0806816220284
 30
0.0
 70
     0
  0
VERTEX
  8
1
 10
5.53210350573063
 20
-10.1209688007832
 30
0.0
 70
     0
  0
VERTEX
  8
1
 10
5.57572252750397
 20
-10.1628713726997
 30
0.0
 70
     0
  0
VERTEX
  8
1
 10
5.62252843081951
 20
-10.2062901735306
 30
0.0
 70
     0
  0
VERTEX
  8
1
 10
5.67258858680725
 20
-10.2511290669441
 30
0.0
 70
     0
  0
VERTEX
  8
1
 10
5.72596544623375
 20
-10.2972843468189
 30
0.0
 70
     0
  0
VERTEX
  8
1
 10
5.78271881043911
 20
-10.3446553349495
 30
0.0
 70
     0
  0
VERTEX
  8
1
 10
5.84290696680546
 20
-10.3931360542774
 30
0.0
 70
     0
  0
VERTEX
  8
1
 10
5.90887276530266
 20
-10.4443517386913
 30
0.0
 70
     0
  0
VERTEX
  8
1
 10
6.09063893854618
 20
-10.3394079566002
 30
0.0
 70
     0
  0
VERTEX
  8
1
 10
6.07926797866821
 20
-10.25667091012
 30
0.0
 70
     0
  0
VERTEX
  8
1
 10
6.06737697422504
 20
-10.1803068697453
 30
0.0
 70
     0
  0
VERTEX
  8
1
 10
6.05472899079323
 20
-10.1074718654156
 30
0.0
 70
     0
  0
VERTEX
  8
1
 10
6.04144514501095
 20
-10.0381674110889
 30
0.0
 70
     0
  0
VERTEX
  8
1
 10
6.02764428257942
 20
-9.97239653468132
 30
0.0
 70
     0
  0
VERTEX
  8
1
 10
6.01344524919987
 20
-9.91015015244484
 30
0.0
 70
     0
  0
VERTEX
  8
1
 10
5.99896613359451
 20
-9.85142523646355
 30
0.0
 70
     0
  0
VERTEX
  8
1
 10
5.98432615995407
 20
-9.79620816111565
 30
0.0
 70
     0
  0
VERTEX
  8
1
 10
5.96530819833279
 20
-9.7299520611763
 30
0.0
 42
-0.000043633212346
 70
     0
  0
VERTEX
  8
1
 10
6.13020736575127
 20
-9.6269128382206
 30
0.0
 70
     0
  0
VERTEX
  8
1
 10
6.18142002224922
 20
-9.67305070757866
 30
0.0
 70
     0
  0
VERTEX
  8
1
 10
6.22463027536869
 20
-9.7104151904583
 30
0.0
 70
     0
  0
VERTEX
  8
1
 10
6.27106601595879
 20
-9.74917251467705
 30
0.0
 70
     0
  0
VERTEX
  8
1
 10
6.32078742384911
 20
-9.78922124505043
 30
0.0
 70
     0
  0
VERTEX
  8
1
 10
6.37385240793228
 20
-9.830457675457
 30
0.0
 70
     0
  0
VERTEX
  8
1
 10
6.43031925559044
 20
-9.8727788567543
 30
0.0
 70
     0
  0
VERTEX
  8
1
 10
6.49023868441582
 20
-9.91607427000999
 30
0.0
 70
     0
  0
VERTEX
  8
1
 10
6.55366216897964
 20
-9.96023793816566
 30
0.0
 70
     0
  0
VERTEX
  8
1
 10
6.62304080724716
 20
-10.0067278027534
 30
0.0
 70
     0
  0
VERTEX
  8
1
 10
6.79704302549362
 20
-9.88936048150062
 30
0.0
 70
     0
  0
VERTEX
  8
1
 10
6.7799277305603
 20
-9.80761810541153
 30
0.0
 70
     0
  0
VERTEX
  8
1
 10
6.76273976564407
 20
-9.73226917386055
 30
0.0
 70
     0
  0
VERTEX
  8
1
 10
6.7450415968895
 20
-9.66049394011498
 30
0.0
 70
     0
  0
VERTEX
  8
1
 10
6.72695509791374
 20
-9.59228559136391
 30
0.0
 70
     0
  0
VERTEX
  8
1
 10
6.70860062837601
 20
-9.52763655781746
 30
0.0
 70
     0
  0
VERTEX
  8
1
 10
6.69009324908257
 20
-9.46653321385384
 30
0.0
 70
     0
  0
VERTEX
  8
1
 10
6.67155331969261
 20
-9.40896041989326
 30
0.0
 70
     0
  0
VERTEX
  8
1
 10
6.6530974149704
 20
-9.35490000844002
 30
0.0
 70
     0
  0
VERTEX
  8
1
 10
6.62950465083122
 20
-9.29013212919235
 30
0.0
 42
-0.000043633112297
 70
     0
  0
VERTEX
  8
1
 10
6.78681396842003
 20
-9.17584117054939
 30
0.0
 70
     0
  0
VERTEX
  8
1
 10
6.84112039804459
 20
-9.21829406619072
 30
0.0
 70
     0
  0
VERTEX
  8
1
 10
6.88683208823204
 20
-9.25255266427994
 30
0.0
 70
     0
  0
VERTEX
  8
1
 10
6.93585858941078
 20
-9.28797701001167
 30
0.0
 70
     0
  0
VERTEX
  8
1
 10
6.98825137615204
 20
-9.32445961236954
 30
0.0
 70
     0
  0
VERTEX
  8
1
 10
7.044064193964
 20
-9.36189449429512
 30
0.0
 70
     0
  0
VERTEX
  8
1
 10
7.10334548950195
 20
-9.40017265081406
 30
0.0
 70
     0
  0
VERTEX
  8
1
 10
7.16613916754723
 20
-9.439183562994
 30
0.0
 70
     0
  0
VERTEX
  8
1
 10
7.23248913288116
 20
-9.47881519794464
 30
0.0
 70
     0
  0
VERTEX
  8
1
 10
7.3049403488636
 20
-9.5203521490097
 30
0.0
 70
     0
  0
VERTEX
  8
1
 10
7.47033268809319
 20
-9.39113280773163
 30
0.0
 70
     0
  0
VERTEX
  8
1
 10
7.44755746126175
 20
-9.31078402996063
 30
0.0
 70
     0
  0
VERTEX
  8
1
 10
7.42515391111374
 20
-9.23681734204292
 30
0.0
 70
     0
  0
VERTEX
  8
1
 10
7.40249298810959
 20
-9.16645160317421
 30
0.0
 70
     0
  0
VERTEX
  8
1
 10
7.37969278097153
 20
-9.09967091679573
 30
0.0
 70
     0
  0
VERTEX
  8
1
 10
7.35687364935875
 20
-9.03646014332771
 30
0.0
 70
     0
  0
VERTEX
  8
1
 10
7.33414838314056
 20
-8.97679581642151
 30
0.0
 70
     0
  0
VERTEX
  8
1
 10
7.31163809895515
 20
-8.92065674066544
 30
0.0
 70
     0
  0
VERTEX
  8
1
 10
7.28945558667183
 20
-8.8680156648159
 30
0.0
 70
     0
  0
VERTEX
  8
1
 10
7.26140194535255
 20
-8.80505166649818
 30
0.0
 42
-0.000043633317164
 70
     0
  0
VERTEX
  8
1
 10
7.41035572886467
 20
-8.68006459474564
 30
0.0
 70
     0
  0
VERTEX
  8
1
 10
7.4674909889698
 20
-8.71862586140633
 30
0.0
 70
     0
  0
VERTEX
  8
1
 10
7.51548118591309
 20
-8.74961279630661
 30
0.0
 70
     0
  0
VERTEX
  8
1
 10
7.56685886383057
 20
-8.78153081536293
 30
0.0
 70
     0
  0
VERTEX
  8
1
 10
7.62167019844055
 20
-8.81426939964294
 30
0.0
 70
     0
  0
VERTEX
  8
1
 10
7.67995909452438
 20
-8.84771954417229
 30
0.0
 70
     0
  0
VERTEX
  8
1
 10
7.74176491498947
 20
-8.88176997303963
 30
0.0
 70
     0
  0
VERTEX
  8
1
 10
7.80712702274322
 20
-8.9163048684597
 30
0.0
 70
     0
  0
VERTEX
  8
1
 10
7.87607948184013
 20
-8.95121219754219
 30
0.0
 70
     0
  0
VERTEX
  8
1
 10
7.95125279426575
 20
-8.98759412169457
 30
0.0
 70
     0
  0
VERTEX
  8
1
 10
8.10722755789757
 20
-8.8471518099308
 30
0.0
 70
     0
  0
VERTEX
  8
1
 10
8.07890291810036
 20
-8.76858723163605
 30
0.0
 70
     0
  0
VERTEX
  8
1
 10
8.05139430165291
 20
-8.69636462330818
 30
0.0
 70
     0
  0
VERTEX
  8
1
 10
8.02388038635254
 20
-8.62774977684021
 30
0.0
 70
     0
  0
VERTEX
  8
1
 10
7.99647698998451
 20
-8.56272301077843
 30
0.0
 70
     0
  0
VERTEX
  8
1
 10
7.96930371522903
 20
-8.50125858783722
 30
0.0
 70
     0
  0
VERTEX
  8
1
 10
7.94247259497643
 20
-8.44332471489906
 30
0.0
 70
     0
  0
VERTEX
  8
1
 10
7.91610096096992
 20
-8.38889262676239
 30
0.0
 70
     0
  0
VERTEX
  8
1
 10
7.89030008912086
 20
-8.33792674541473
 30
0.0
 70
     0
  0
VERTEX
  8
1
 10
7.85792258381844
 20
-8.27707244753837
 30
0.0
 42
-0.000043633194539
 70
     0
  0
VERTEX
  8
1
 10
7.99779489040375
 20
-8.14200014472008
 30
0.0
 70
     0
  0
VERTEX
  8
1
 10
8.05748192667961
 20
-8.17648280858993
 30
0.0
 70
     0
  0
VERTEX
  8
1
 10
8.10751596689224
 20
-8.20404592752457
 30
0.0
 70
     0
  0
VERTEX
  8
1
 10
8.16099501848221
 20
-8.23230168223381
 30
0.0
 70
     0
  0
VERTEX
  8
1
 10
8.21795617341995
 20
-8.26113803982735
 30
0.0
 70
     0
  0
VERTEX
  8
1
 10
8.27843576669693
 20
-8.29044069647789
 30
0.0
 70
     0
  0
VERTEX
  8
1
 10
8.34246710538864
 20
-8.32009686231613
 30
0.0
 70
     0
  0
VERTEX
  8
1
 10
8.41007895469665
 20
-8.34998844861984
 30
0.0
 70
     0
  0
VERTEX
  8
1
 10
8.48129856586456
 20
-8.38000115156174
 30
0.0
 70
     0
  0
VERTEX
  8
1
 10
8.55882608294487
 20
-8.4110494017601
 30
0.0
 70
     0
  0
VERTEX
  8
1
 10
8.70462553501129
 20
-8.26006994247436
 30
0.0
 70
     0
  0
VERTEX
  8
1
 10
8.67088849544525
 20
-8.18367259502411
 30
0.0
 70
     0
  0
VERTEX
  8
1
 10
8.63840955495834
 20
-8.11354454755783
 30
0.0
 70
     0
  0
VERTEX
  8
1
 10
8.60617587566376
 20
-8.04701669216156
 30
0.0
 70
     0
  0
VERTEX
  8
1
 10
8.57430403232574
 20
-7.98405874967575
 30
0.0
 70
     0
  0
VERTEX
  8
1
 10
8.54290832877159
 20
-7.92463968396187
 30
0.0
 70
     0
  0
VERTEX
  8
1
 10
8.51210155487061
 20
-7.86871861815453
 30
0.0
 70
     0
  0
VERTEX
  8
1
 10
8.4819965004921
 20
-7.81625921726227
 30
0.0
 70
     0
  0
VERTEX
  8
1
 10
8.45270368456841
 20
-7.76721681952476
 30
0.0
 70
     0
  0
VERTEX
  8
1
 10
8.41616052389145
 20
-7.70876971483231
 30
0.0
 42
-0.000043633250003
 70
     0
  0
VERTEX
  8
1
 10
8.54627007246017
 20
-7.5642692387104
 30
0.0
 70
     0
  0
VERTEX
  8
1
 10
8.60821593403816
 20
-7.59450373649597
 30
0.0
 70
     0
  0
VERTEX
  8
1
 10
8.66005082726478
 20
-7.61851056814194
 30
0.0
 70
     0
  0
VERTEX
  8
1
 10
8.71537085175514
 20
-7.64296704530716
 30
0.0
 70
     0
  0
VERTEX
  8
1
 10
8.7742047727108
 20
-7.66775886416435
 30
0.0
 70
     0
  0
VERTEX
  8
1
 10
8.83658135533333
 20
-7.69277247786522
 30
0.0
 70
     0
  0
VERTEX
  8
1
 10
8.90252557992935
 20
-7.71788904070854
 30
0.0
 70
     0
  0
VERTEX
  8
1
 10
8.97205788493156
 20
-7.74299122095108
 30
0.0
 70
     0
  0
VERTEX
  8
1
 10
9.04519719481468
 20
-7.76796244382858
 30
0.0
 70
     0
  0
VERTEX
  8
1
 10
9.12470194101334
 20
-7.79352789521217
 30
0.0
 70
     0
  0
VERTEX
  8
1
 10
9.25961376428604
 20
-7.63274555802345
 30
0.0
 70
     0
  0
VERTEX
  8
1
 10
9.22063010334969
 20
-7.55888787508011
 30
0.0
 70
     0
  0
VERTEX
  8
1
 10
9.18333829045296
 20
-7.4911957859993
 30
0.0
 70
     0
  0
VERTEX
  8
1
 10
9.14654229879379
 20
-7.42707815170288
 30
0.0
 70
     0
  0
VERTEX
  8
1
 10
9.11035567522049
 20
-7.36649788022041
 30
0.0
 70
     0
  0
VERTEX
  8
1
 10
9.07489272356033
 20
-7.30941333770752
 30
0.0
 70
     0
  0
VERTEX
  8
1
 10
9.04026017785072
 20
-7.2557775914669
 30
0.0
 70
     0
  0
VERTEX
  8
1
 10
9.00656931400299
 20
-7.20554522275925
 30
0.0
 70
     0
  0
VERTEX
  8
1
 10
8.97392610907555
 20
-7.1586662709713
 30
0.0
 70
     0
  0
VERTEX
  8
1
 10
8.93339442610741
 20
-7.10291098356247
 30
0.0
 42
-0.000043633345242
 70
     0
  0
VERTEX
  8
1
 10
9.05310762524605
 20
-6.9496863245964
 30
0.0
 70
     0
  0
VERTEX
  8
1
 10
9.11701179146767
 20
-6.97552580237389
 30
0.0
 70
     0
  0
VERTEX
  8
1
 10
9.17039546370506
 20
-6.99585674405098
 30
0.0
 70
     0
  0
VERTEX
  8
1
 10
9.22728697657585
 20
-7.01639585494995
 30
0.0
 70
     0
  0
VERTEX
  8
1
 10
9.28770676851273
 20
-7.03702353239059
 30
0.0
 70
     0
  0
VERTEX
  8
1
 10
9.35167603492737
 20
-7.05762395858765
 30
0.0
 70
     0
  0
VERTEX
  8
1
 10
9.41921067237854
 20
-7.07807904481888
 30
0.0
 70
     0
  0
VERTEX
  8
1
 10
9.49032506346703
 20
-7.09827070236206
 30
0.0
 70
     0
  0
VERTEX
  8
1
 10
9.56502829194069
 20
-7.11807932853699
 30
0.0
 70
     0
  0
VERTEX
  8
1
 10
9.6461226940155
 20
-7.13803632259369
 30
0.0
 70
     0
  0
VERTEX
  8
1
 10
9.76948983073235
 20
-6.96823533773422
 30
0.0
 70
     0
  0
VERTEX
  8
1
 10
9.72545030713081
 20
-6.89727612733841
 30
0.0
 70
     0
  0
VERTEX
  8
1
 10
9.68352653980255
 20
-6.83235079646111
 30
0.0
 70
     0
  0
VERTEX
  8
1
 10
9.64234763979912
 20
-6.77095601558685
 30
0.0
 70
     0
  0
VERTEX
  8
1
 10
9.60202336907387
 20
-6.71304712295532
 30
0.0
 70
     0
  0
VERTEX
  8
1
 10
9.56266424655914
 20
-6.65857491493225
 30
0.0
 70
     0
  0
VERTEX
  8
1
 10
9.52437473535538
 20
-6.60748640298843
 30
0.0
 70
     0
  0
VERTEX
  8
1
 10
9.48726232647896
 20
-6.55972708463669
 30
0.0
 70
     0
  0
VERTEX
  8
1
 10
9.45142845511436
 20
-6.51523867249489
 30
0.0
 70
     0
  0
VERTEX
  8
1
 10
9.40710657835007
 20
-6.46244620084763
 30
0.0
 42
-0.000043633308103
 70
     0
  0
VERTEX
  8
1
 10
9.51583904027939
 20
-6.30124374032021
 30
0.0
 70
     0
  0
VERTEX
  8
1
 10
9.58139114975929
 20
-6.32256253957748
 30
0.0
 70
     0
  0
VERTEX
  8
1
 10
9.63606244325638
 20
-6.33912107646465
 30
0.0
 70
     0
  0
VERTEX
  8
1
 10
9.69424763321877
 20
-6.3556410074234
 30
0.0
 70
     0
  0
VERTEX
  8
1
 10
9.75595958828926
 20
-6.372003865242
 30
0.0
 70
     0
  0
VERTEX
  8
1
 10
9.82120966315269
 20
-6.38809193968773
 30
0.0
 70
     0
  0
VERTEX
  8
1
 10
9.89000769853592
 20
-6.40378638505936
 30
0.0
 70
     0
  0
VERTEX
  8
1
 10
9.96235747933388
 20
-6.41896759867668
 30
0.0
 70
     0
  0
VERTEX
  8
1
 10
10.0382605195045
 20
-6.43351673483849
 30
0.0
 70
     0
  0
VERTEX
  8
1
 10
10.1205494344234
 20
-6.44776913523674
 30
0.0
 70
     0
  0
VERTEX
  8
1
 10
10.2317708432674
 20
-6.26977498829365
 30
0.0
 70
     0
  0
VERTEX
  8
1
 10
10.1828881680965
 20
-6.20206094682217
 30
0.0
 70
     0
  0
VERTEX
  8
1
 10
10.1365383446217
 20
-6.14021803438663
 30
0.0
 70
     0
  0
VERTEX
  8
1
 10
10.091176378727
 20
-6.08184587061405
 30
0.0
 70
     0
  0
VERTEX
  8
1
 10
10.0469120323658
 20
-6.02689070999622
 30
0.0
 70
     0
  0
VERTEX
  8
1
 10
10.0038490116596
 20
-5.97529691457748
 30
0.0
 70
     0
  0
VERTEX
  8
1
 10
9.96208799481392
 20
-5.92700354754925
 30
0.0
 70
     0
  0
VERTEX
  8
1
 10
9.92173420190811
 20
-5.88194929361343
 30
0.0
 70
     0
  0
VERTEX
  8
1
 10
9.88288528323173
 20
-5.84006905257702
 30
0.0
 70
     0
  0
VERTEX
  8
1
 10
9.83498895168304
 20
-5.79049714803696
 30
0.0
 42
-0.000043633221392
 70
     0
  0
VERTEX
  8
1
 10
9.93221154808998
 20
-5.62210300862789
 30
0.0
 70
     0
  0
VERTEX
  8
1
 10
9.99908988475799
 20
-5.63879704475403
 30
0.0
 70
     0
  0
VERTEX
  8
1
 10
10.0547838568687
 20
-5.651501044631
 30
0.0
 70
     0
  0
VERTEX
  8
1
 10
10.113979613781
 20
-5.66392193436623
 30
0.0
 70
     0
  0
VERTEX
  8
1
 10
10.1766824543476
 20
-5.67594011127949
 30
0.0
 70
     0
  0
VERTEX
  8
1
 10
10.2428961634636
 20
-5.68743748664856
 30
0.0
 70
     0
  0
VERTEX
  8
1
 10
10.3126214981079
 20
-5.69829483628273
 30
0.0
 70
     0
  0
VERTEX
  8
1
 10
10.3858531594276
 20
-5.70839255750179
 30
0.0
 70
     0
  0
VERTEX
  8
1
 10
10.4625858485699
 20
-5.71761142611504
 30
0.0
 70
     0
  0
VERTEX
  8
1
 10
10.5456688344479
 20
-5.7260884553194
 30
0.0
 70
     0
  0
VERTEX
  8
1
 10
10.6442040324211
 20
-5.54076977968216
 30
0.0
 70
     0
  0
VERTEX
  8
1
 10
10.5907166540623
 20
-5.47663057148457
 30
0.0
 70
     0
  0
VERTEX
  8
1
 10
10.5401655972004
 20
-5.41817173361778
 30
0.0
 70
     0
  0
VERTEX
  8
1
 10
10.4908423602581
 20
-5.36310605406761
 30
0.0
 70
     0
  0
VERTEX
  8
1
 10
10.4428514063358
 20
-5.31137259602547
 30
0.0
 70
     0
  0
VERTEX
  8
1
 10
10.3962941706181
 20
-5.2629081517458
 30
0.0
 70
     0
  0
VERTEX
  8
1
 10
10.3512675464153
 20
-5.21764535009861
 30
0.0
 70
     0
  0
VERTEX
  8
1
 10
10.3078691840172
 20
-5.17551568448544
 30
0.0
 70
     0
  0
VERTEX
  8
1
 10
10.2661929488182
 20
-5.13644799888134
 30
0.0
 70
     0
  0
VERTEX
  8
1
 10
10.2149545550346
 20
-5.09033738076687
 30
0.0
 42
-0.000043633217346
 70
     0
  0
VERTEX
  8
1
 10
10.3001949310303
 20
-4.91557212769985
 30
0.0
 70
     0
  0
VERTEX
  8
1
 10
10.3680739939213
 20
-4.92755964696407
 30
0.0
 70
     0
  0
VERTEX
  8
1
 10
10.4245188891888
 20
-4.93634817302227
 30
0.0
 70
     0
  0
VERTEX
  8
1
 10
10.4844360470772
 20
-4.94460946321487
 30
0.0
 70
     0
  0
VERTEX
  8
1
 10
10.5478254675865
 20
-4.95222467184067
 30
0.0
 70
     0
  0
VERTEX
  8
1
 10
10.6146795809269
 20
-4.95907495319843
 30
0.0
 70
     0
  0
VERTEX
  8
1
 10
10.6849915742874
 20
-4.96504221856594
 30
0.0
 70
     0
  0
VERTEX
  8
1
 10
10.7587500929832
 20
-4.97000686526298
 30
0.0
 70
     0
  0
VERTEX
  8
1
 10
10.8359384834766
 20
-4.97385042607784
 30
0.0
 70
     0
  0
VERTEX
  8
1
 10
10.9194105565548
 20
-4.97651082873344
 30
0.0
 70
     0
  0
VERTEX
  8
1
 10
11.0047781050205
 20
-4.7847707003355
 30
0.0
 70
     0
  0
VERTEX
  8
1
 10
10.9469464242458
 20
-4.72451895773411
 30
0.0
 70
     0
  0
VERTEX
  8
1
 10
10.8924416661263
 20
-4.6697288185358
 30
0.0
 70
     0
  0
VERTEX
  8
1
 10
10.8393978774548
 20
-4.61823759377003
 30
0.0
 70
     0
  0
VERTEX
  8
1
 10
10.7879149794579
 20
-4.56997791230679
 30
0.0
 70
     0
  0
VERTEX
  8
1
 10
10.7380906224251
 20
-4.52487937510014
 30
0.0
 70
     0
  0
VERTEX
  8
1
 10
10.6900156438351
 20
-4.48286779820919
 30
0.0
 70
     0
  0
VERTEX
  8
1
 10
10.6437839090824
 20
-4.44386824071407
 30
0.0
 70
     0
  0
VERTEX
  8
1
 10
10.5994839847088
 20
-4.40780235528946
 30
0.0
 70
     0
  0
VERTEX
  8
1
 10
10.5451548457146
 20
-4.3653786033392
 30
0.0
 42
-0.000043633228905
 70
     0
  0
VERTEX
  8
1
 10
10.6179959058762
 20
-4.18509270250797
 30
0.0
 70
     0
  0
VERTEX
  8
1
 10
10.6865464091301
 20
-4.19231617450714
 30
0.0
 70
     0
  0
VERTEX
  8
1
 10
10.7434666872025
 20
-4.19714607894421
 30
0.0
 70
     0
  0
VERTEX
  8
1
 10
10.8038145661354
 20
-4.2012072712183
 30
0.0
 70
     0
  0
VERTEX
  8
1
 10
10.8675802052021
 20
-4.20438241958618
 30
0.0
 70
     0
  0
VERTEX
  8
1
 10
10.9347492218018
 20
-4.20655229985714
 30
0.0
 70
     0
  0
VERTEX
  8
1
 10
11.0053072333336
 20
-4.20760033726692
 30
0.0
 70
     0
  0
VERTEX
  8
1
 10
11.0792315304279
 20
-4.20740806460381
 30
0.0
 70
     0
  0
VERTEX
  8
1
 10
11.1565009176731
 20
-4.20585777163506
 30
0.0
 70
     0
  0
VERTEX
  8
1
 10
11.2399548232555
 20
-4.20268905758858
 30
0.0
 70
     0
  0
VERTEX
  8
1
 10
11.311739897728
 20
-4.00546083152294
 30
0.0
 70
     0
  0
VERTEX
  8
1
 10
11.2498462677002
 20
-3.94938988387585
 30
0.0
 70
     0
  0
VERTEX
  8
1
 10
11.191651237011
 20
-3.89853527843952
 30
0.0
 70
     0
  0
VERTEX
  8
1
 10
11.1351450264454
 20
-3.85086982548237
 30
0.0
 70
     0
  0
VERTEX
  8
1
 10
11.0804207444191
 20
-3.80631896257401
 30
0.0
 70
     0
  0
VERTEX
  8
1
 10
11.0275722563267
 20
-3.76480585634708
 30
0.0
 70
     0
  0
VERTEX
  8
1
 10
10.9766843438148
 20
-3.72624988853931
 30
0.0
 70
     0
  0
VERTEX
  8
1
 10
10.9278440594673
 20
-3.6905704408884
 30
0.0
 70
     0
  0
VERTEX
  8
1
 10
10.8811369419098
 20
-3.65768273174763
 30
0.0
 70
     0
  0
VERTEX
  8
1
 10
10.823979729414
 20
-3.61915250122547
 30
0.0
 42
-0.00004363327063
 70
     0
  0
VERTEX
  8
1
 10
10.8840672075748
 20
-3.43422442674637
 30
0.0
 70
     0
  0
VERTEX
  8
1
 10
10.9529553234577
 20
-3.43664865195751
 30
0.0
 70
     0
  0
VERTEX
  8
1
 10
11.0100731730461
 20
-3.43749571144581
 30
0.0
 70
     0
  0
VERTEX
  8
1
 10
11.070558065176
 20
-3.43733788132668
 30
0.0
 70
     0
  0
VERTEX
  8
1
 10
11.1343895614147
 20
-3.43605669438839
 30
0.0
 70
     0
  0
VERTEX
  8
1
 10
11.2015464663506
 20
-3.43353595435619
 30
0.0
 70
     0
  0
VERTEX
  8
1
 10
11.2720053136349
 20
-3.42965946495533
 30
0.0
 70
     0
  0
VERTEX
  8
1
 10
11.3457365810871
 20
-3.42431065142155
 30
0.0
 70
     0
  0
VERTEX
  8
1
 10
11.4227092325687
 20
-3.41737445294857
 30
0.0
 70
     0
  0
VERTEX
  8
1
 10
11.5057392299175
 20
-3.40839214026928
 30
0.0
 70
     0
  0
VERTEX
  8
1
 10
11.5635905921459
 20
-3.20663680136204
 30
0.0
 70
     0
  0
VERTEX
  8
1
 10
11.4979370474815
 20
-3.15502010732889
 30
0.0
 70
     0
  0
VERTEX
  8
1
 10
11.4363363683224
 20
-3.10834837853909
 30
0.0
 70
     0
  0
VERTEX
  8
1
 10
11.3766425192356
 20
-3.06474108994007
 30
0.0
 70
     0
  0
VERTEX
  8
1
 10
11.3189440667629
 20
-3.02411573082209
 30
0.0
 70
     0
  0
VERTEX
  8
1
 10
11.263328820467
 20
-2.9863907366991
 30
0.0
 70
     0
  0
VERTEX
  8
1
 10
11.2098747491837
 20
-2.95147867649794
 30
0.0
 70
     0
  0
VERTEX
  8
1
 10
11.1586651206017
 20
-2.91929268687963
 30
0.0
 70
     0
  0
VERTEX
  8
1
 10
11.1097771465778
 20
-2.88974306583405
 30
0.0
 70
     0
  0
VERTEX
  8
1
 10
11.0500719428062
 20
-2.85529351979494
 30
0.0
 42
-0.000043633257965
 70
     0
  0
VERTEX
  8
1
 10
11.0971136450768
 20
-2.66662464439869
 30
0.0
 70
     0
  0
VERTEX
  8
1
 10
11.1660017609596
 20
-2.66423770040274
 30
0.0
 70
     0
  0
VERTEX
  8
1
 10
11.2230408847332
 20
-2.66109850853682
 30
0.0
 70
     0
  0
VERTEX
  8
1
 10
11.2833668112755
 20
-2.65672165602446
 30
0.0
 70
     0
  0
VERTEX
  8
1
 10
11.3469530463219
 20
-2.6509909465909
 30
0.0
 70
     0
  0
VERTEX
  8
1
 10
11.4137708246708
 20
-2.64379188716412
 30
0.0
 70
     0
  0
VERTEX
  8
1
 10
11.4837875962257
 20
-2.63500979542732
 30
0.0
 70
     0
  0
VERTEX
  8
1
 10
11.5569662690163
 20
-2.62453074604273
 30
0.0
 70
     0
  0
VERTEX
  8
1
 10
11.633267480135
 20
-2.61224232763052
 30
0.0
 70
     0
  0
VERTEX
  8
1
 10
11.7154685854912
 20
-2.59748975336552
 30
0.0
 70
     0
  0
VERTEX
  8
1
 10
11.7591053962708
 20
-2.39219061732292
 30
0.0
 70
     0
  0
VERTEX
  8
1
 10
11.690011382103
 20
-2.34527930468321
 30
0.0
 70
     0
  0
VERTEX
  8
1
 10
11.6253048181534
 20
-2.30301849246025
 30
0.0
 70
     0
  0
VERTEX
  8
1
 10
11.5627140104771
 20
-2.2636813223362
 30
0.0
 70
     0
  0
VERTEX
  8
1
 10
11.5023229837418
 20
-2.22717998474836
 30
0.0
 70
     0
  0
VERTEX
  8
1
 10
11.4442112207413
 20
-2.19342610239983
 30
0.0
 70
     0
  0
VERTEX
  8
1
 10
11.3884513914585
 20
-2.16232770234346
 30
0.0
 70
     0
  0
VERTEX
  8
1
 10
11.3351222217083
 20
-2.13379243314266
 30
0.0
 70
     0
  0
VERTEX
  8
1
 10
11.2842918395996
 20
-2.10772529393435
 30
0.0
 70
     0
  0
VERTEX
  8
1
 10
11.2223293244839
 20
-2.07752429246902
 30
0.0
 42
-0.000043633231452
 70
     0
  0
VERTEX
  8
1
 10
11.2560951292515
 20
-1.88603358864784
 30
0.0
 70
     0
  0
VERTEX
  8
1
 10
11.3246494174004
 20
-1.87884683012962
 30
0.0
 70
     0
  0
VERTEX
  8
1
 10
11.3813297331333
 20
-1.87173652648926
 30
0.0
 70
     0
  0
VERTEX
  8
1
 10
11.4412029862404
 20
-1.86316222548485
 30
0.0
 70
     0
  0
VERTEX
  8
1
 10
11.5042351126671
 20
-1.85300981253386
 30
0.0
 70
     0
  0
VERTEX
  8
1
 10
11.570388263464
 20
-1.84116725474596
 30
0.0
 70
     0
  0
VERTEX
  8
1
 10
11.6396215617657
 20
-1.82752251923084
 30
0.0
 70
     0
  0
VERTEX
  8
1
 10
11.7118911027908
 20
-1.81196451932192
 30
0.0
 70
     0
  0
VERTEX
  8
1
 10
11.7871491968632
 20
-1.79438330382109
 30
0.0
 70
     0
  0
VERTEX
  8
1
 10
11.8681202113628
 20
-1.77393275946379
 30
0.0
 70
     0
  0
VERTEX
  8
1
 10
11.8973305165768
 20
-1.56608979552984
 30
0.0
 70
     0
  0
VERTEX
  8
1
 10
11.8251321315765
 20
-1.52411247193813
 30
0.0
 70
     0
  0
VERTEX
  8
1
 10
11.7576353430748
 20
-1.48646828532219
 30
0.0
 70
     0
  0
VERTEX
  8
1
 10
11.6924533963203
 20
-1.45159293860197
 30
0.0
 70
     0
  0
VERTEX
  8
1
 10
11.62966350317
 20
-1.41939313411713
 30
0.0
 70
     0
  0
VERTEX
  8
1
 10
11.5693383336067
 20
-1.38977529034019
 30
0.0
 70
     0
  0
VERTEX
  8
1
 10
11.5115452587605
 20
-1.36264223009348
 30
0.0
 70
     0
  0
VERTEX
  8
1
 10
11.4563554346561
 20
-1.33789649233222
 30
0.0
 70
     0
  0
VERTEX
  8
1
 10
11.4038309335709
 20
-1.3154385343194
 30
0.0
 70
     0
  0
VERTEX
  8
1
 10
11.3399116277695
 20
-1.28963368833065
 30
0.0
 42
-0.000043633234984
 70
     0
  0
VERTEX
  8
1
 10
11.3602372705936
 20
-1.09625403806567
 30
0.0
 70
     0
  0
VERTEX
  8
1
 10
11.4281231462955
 20
-1.08430238068104
 30
0.0
 70
     0
  0
VERTEX
  8
1
 10
11.484169870615
 20
-1.07325569167733
 30
0.0
 70
     0
  0
VERTEX
  8
1
 10
11.5432990133762
 20
-1.06052557602525
 30
0.0
 70
     0
  0
VERTEX
  8
1
 10
11.6054696977139
 20
-1.04600123092532
 30
0.0
 70
     0
  0
VERTEX
  8
1
 10
11.6706349909306
 20
-1.0295728944242
 30
0.0
 70
     0
  0
VERTEX
  8
1
 10
11.7387479603291
 20
-1.01113184541464
 30
0.0
 70
     0
  0
VERTEX
  8
1
 10
11.8097563743591
 20
-0.990570498257875
 30
0.0
 70
     0
  0
VERTEX
  8
1
 10
11.8836042165756
 20
-0.967782213538885
 30
0.0
 70
     0
  0
VERTEX
  8
1
 10
11.9629522681236
 20
-0.941733336448669
 30
0.0
 70
     0
  0
VERTEX
  8
1
 10
11.9775922417641
 20
-0.732359004020691
 30
0.0
 70
     0
  0
VERTEX
  8
1
 10
11.9026414811611
 20
-0.695520337671041
 30
0.0
 70
     0
  0
VERTEX
  8
1
 10
11.8326837539673
 20
-0.662676249444485
 30
0.0
 70
     0
  0
VERTEX
  8
1
 10
11.7652278423309
 20
-0.632432573288679
 30
0.0
 70
     0
  0
VERTEX
  8
1
 10
11.700344145298
 20
-0.604691422358155
 30
0.0
 70
     0
  0
VERTEX
  8
1
 10
11.6381000339985
 20
-0.5793536324054
 30
0.0
 70
     0
  0
VERTEX
  8
1
 10
11.5785553097725
 20
-0.556318194046617
 30
0.0
 70
     0
  0
VERTEX
  8
1
 10
11.5217735588551
 20
-0.535482678562403
 30
0.0
 70
     0
  0
VERTEX
  8
1
 10
11.4678100407124
 20
-0.516743332520127
 30
0.0
 70
     0
  0
VERTEX
  8
1
 10
11.4022473335266
 20
-0.495459969341755
 30
0.0
 42
-0.00004363322447
 70
     0
  0
SEQEND
  0
TEXT
  8
NOTES
 10
-12.0000009536743
 20
-13.1999998092651
 30
0.0
 11
-12.0000009536743
 21
-13.1999998092651
 31
0.0
 40
0.480000495910645
  1
Diametral Pitch: 97.3666665186693
 41
1.0
  7
ARIAL
  0
TEXT
  8
NOTES
 10
-12.0000009536743
 20
-14.1600008010864
 30
0.0
 11
-12.0000009536743
 21
-14.1600008010864
 31
0.0
 40
0.480000495910645
  1
Number Of Teeth: 90
 41
1.0
  7
ARIAL
  0
TEXT
  8
NOTES
 10
-12.0000009536743
 20
-15.1199998855591
 30
0.0
 11
-12.0000009536743
 21
-15.1199998855591
 31
0.0
 40
0.480000495910645
  1
Pressure Angle: 20
 41
1.0
  7
ARIAL
  0
ENDSEC
  0
EOF
