  0
SECTION
  2
HEADER
  9
$MEASUREMENT
 70
     1
  0
ENDSEC
  0
SECTION
  2
TABLES
  0
TABLE
  2
LTYPE
 70
     1
  0
LTYPE
  2
Continuous
  3
_
 70
     0
 72
    65
 73
     0
 40
0.0
  0
ENDTAB
  0
TABLE
  2
LAYER
 70
     2
  0
LAYER
  2
1
 70
     0
 62
     7
  6
Continuous
  0
LAYER
  2
NOTES
 70
     0
 62
     1
  6
Continuous
  0
ENDTAB
  0
TABLE
  2
STYLE
 70
     1
  0
STYLE
  2
ARIAL
  3
Arial.ttf
 70
     0
 40
0.0
 41
1.0
 50
0.0
 71
     0
 42
1.0
  0
ENDTAB
  0
ENDSEC
  0
SECTION
  2
ENTITIES
  0
POLYLINE
  8
1
 66
     1
 10
0.0
 20
0.0
 70
     1
  0
VERTEX
  8
1
 10
14.7366701364517
 20
-0.388877753540874
 30
0.0
 70
     0
  0
VERTEX
  8
1
 10
14.7889546751976
 20
-0.37612639516592
 30
0.0
 70
     0
  0
VERTEX
  8
1
 10
14.8582424759865
 20
-0.358013047091663
 30
0.0
 70
     0
  0
VERTEX
  8
1
 10
14.9313817858696
 20
-0.337522761337459
 30
0.0
 70
     0
  0
VERTEX
  8
1
 10
15.0083105325699
 20
-0.31451578065753
 30
0.0
 70
     0
  0
VERTEX
  8
1
 10
15.0889636158943
 20
-0.288854051008821
 30
0.0
 70
     0
  0
VERTEX
  8
1
 10
15.17326836586
 20
-0.260401079617441
 30
0.0
 70
     0
  0
VERTEX
  8
1
 10
15.261150598526
 20
-0.22902184035629
 30
0.0
 70
     0
  0
VERTEX
  8
1
 10
15.3525346159935
 20
-0.194583246856928
 30
0.0
 70
     0
  0
VERTEX
  8
1
 10
15.4473356366158
 20
-0.156954105198383
 30
0.0
 70
     0
  0
VERTEX
  8
1
 10
15.4994067072868
 20
-0.135460940562189
 30
0.0
 70
     0
  0
VERTEX
  8
1
 10
15.4994036793709
 20
0.135460585728288
 30
0.0
 70
     0
  0
VERTEX
  8
1
 10
15.4473356366158
 20
0.156953726708889
 30
0.0
 70
     0
  0
VERTEX
  8
1
 10
15.3525331020355
 20
0.19458291567862
 30
0.0
 70
     0
  0
VERTEX
  8
1
 10
15.261149084568
 20
0.229021485522389
 30
0.0
 70
     0
  0
VERTEX
  8
1
 10
15.173266851902
 20
0.26040072478354
 30
0.0
 70
     0
  0
VERTEX
  8
1
 10
15.0889605879784
 20
0.2888537671417
 30
0.0
 70
     0
  0
VERTEX
  8
1
 10
15.0083090186119
 20
0.314515449479222
 30
0.0
 70
     0
  0
VERTEX
  8
1
 10
14.9313802719116
 20
0.337522264569998
 30
0.0
 70
     0
  0
VERTEX
  8
1
 10
14.8582394480705
 20
0.358012692257762
 30
0.0
 70
     0
  0
VERTEX
  8
1
 10
14.7889531612396
 20
0.376125922054052
 30
0.0
 70
     0
  0
VERTEX
  8
1
 10
14.736715555191
 20
0.388874820247292
 30
0.0
 42
-0.000043633228011
 70
     0
  0
VERTEX
  8
1
 10
14.7279436826706
 20
0.640053317323327
 30
0.0
 70
     0
  0
VERTEX
  8
1
 10
14.7791654229164
 20
0.656415086984634
 30
0.0
 70
     0
  0
VERTEX
  8
1
 10
14.8470195055008
 20
0.67931753359735
 30
0.0
 70
     0
  0
VERTEX
  8
1
 10
14.91855250597
 20
0.7048598498106
 30
0.0
 70
     0
  0
VERTEX
  8
1
 10
14.9936887264252
 20
0.733177061751485
 30
0.0
 70
     0
  0
VERTEX
  8
1
 10
15.0723554968834
 20
0.764402350410819
 30
0.0
 70
     0
  0
VERTEX
  8
1
 10
15.1544695496559
 20
0.798666767776012
 30
0.0
 70
     0
  0
VERTEX
  8
1
 10
15.239949131012
 20
0.836099946498871
 30
0.0
 70
     0
  0
VERTEX
  8
1
 10
15.3287079453468
 20
0.876829295605421
 30
0.0
 70
     0
  0
VERTEX
  8
1
 10
15.4206521272659
 20
0.92097971662879
 30
0.0
 70
     0
  0
VERTEX
  8
1
 10
15.4710987210274
 20
0.946052847802639
 30
0.0
 70
     0
  0
VERTEX
  8
1
 10
15.4521969556808
 20
1.21631421744823
 30
0.0
 70
     0
  0
VERTEX
  8
1
 10
15.3987557530403
 20
1.23412290513515
 30
0.0
 70
     0
  0
VERTEX
  8
1
 10
15.301559650898
 20
1.26504738926887
 30
0.0
 70
     0
  0
VERTEX
  8
1
 10
15.2079955339432
 20
1.2930274143815
 30
0.0
 70
     0
  0
VERTEX
  8
1
 10
15.1181375861168
 20
1.31819980442524
 30
0.0
 70
     0
  0
VERTEX
  8
1
 10
15.0320524215698
 20
1.34070270806551
 30
0.0
 70
     0
  0
VERTEX
  8
1
 10
14.9498081684113
 20
1.36067588254809
 30
0.0
 70
     0
  0
VERTEX
  8
1
 10
14.8714623570442
 20
1.37826031520963
 30
0.0
 70
     0
  0
VERTEX
  8
1
 10
14.7970694899559
 20
1.39359879121184
 30
0.0
 70
     0
  0
VERTEX
  8
1
 10
14.7266886115074
 20
1.40683475807309
 30
0.0
 70
     0
  0
VERTEX
  8
1
 10
14.6736894845963
 20
1.41590875983238
 30
0.0
 42
-0.000043633214577
 70
     0
  0
VERTEX
  8
1
 10
14.6474177718163
 20
1.66586341112852
 30
0.0
 70
     0
  0
VERTEX
  8
1
 10
14.6973738431931
 20
1.68575814366341
 30
0.0
 70
     0
  0
VERTEX
  8
1
 10
14.7634641647339
 20
1.71333810538054
 30
0.0
 70
     0
  0
VERTEX
  8
1
 10
14.8330411314964
 20
1.74380821287632
 30
0.0
 70
     0
  0
VERTEX
  8
1
 10
14.906019961834
 20
1.77729753106833
 30
0.0
 70
     0
  0
VERTEX
  8
1
 10
14.9823158740997
 20
1.81393436789513
 30
0.0
 70
     0
  0
VERTEX
  8
1
 10
15.0618395447731
 20
1.8538434356451
 30
0.0
 70
     0
  0
VERTEX
  8
1
 10
15.1445001363754
 20
1.89714812189341
 30
0.0
 70
     0
  0
VERTEX
  8
1
 10
15.2302022695541
 20
1.94396973252296
 30
0.0
 70
     0
  0
VERTEX
  8
1
 10
15.3188429951668
 20
1.99442635625601
 30
0.0
 70
     0
  0
VERTEX
  8
1
 10
15.3674168229103
 20
2.02295727282763
 30
0.0
 70
     0
  0
VERTEX
  8
1
 10
15.3297086715698
 20
2.29124179184437
 30
0.0
 70
     0
  0
VERTEX
  8
1
 10
15.275154709816
 20
2.30527921020985
 30
0.0
 70
     0
  0
VERTEX
  8
1
 10
15.1760389089584
 20
2.32934830337763
 30
0.0
 70
     0
  0
VERTEX
  8
1
 10
15.0807503938675
 20
2.35073352754116
 30
0.0
 70
     0
  0
VERTEX
  8
1
 10
14.9893572926521
 20
2.36957643777132
 30
0.0
 70
     0
  0
VERTEX
  8
1
 10
14.9019110798836
 20
2.38601953536272
 30
0.0
 70
     0
  0
VERTEX
  8
1
 10
14.8184738278389
 20
2.40020683556795
 30
0.0
 70
     0
  0
VERTEX
  8
1
 10
14.7390909552574
 20
2.41228348910809
 30
0.0
 70
     0
  0
VERTEX
  8
1
 10
14.6638109087944
 20
2.42239521443844
 30
0.0
 70
     0
  0
VERTEX
  8
1
 10
14.5926791071892
 20
2.4306892439723
 30
0.0
 70
     0
  0
VERTEX
  8
1
 10
14.5391758322716
 20
2.43604411333799
 30
0.0
 42
-0.000043633251429
 70
     0
  0
VERTEX
  8
1
 10
14.4955314517021
 20
2.683557318151
 30
0.0
 70
     0
  0
VERTEX
  8
1
 10
14.5439765930176
 20
2.70688835680485
 30
0.0
 70
     0
  0
VERTEX
  8
1
 10
14.6079837083817
 20
2.73901151716709
 30
0.0
 70
     0
  0
VERTEX
  8
1
 10
14.6752655148506
 20
2.77426062226295
 30
0.0
 70
     0
  0
VERTEX
  8
1
 10
14.7457296609879
 20
2.81275924891233
 30
0.0
 70
     0
  0
VERTEX
  8
1
 10
14.8192853093147
 20
2.85462908148766
 30
0.0
 70
     0
  0
VERTEX
  8
1
 10
14.8958310246468
 20
2.8999880194664
 30
0.0
 70
     0
  0
VERTEX
  8
1
 10
14.9752699136734
 20
2.94895339459181
 30
0.0
 70
     0
  0
VERTEX
  8
1
 10
15.0574975132942
 20
3.00163913220167
 30
0.0
 70
     0
  0
VERTEX
  8
1
 10
15.1424017906189
 20
3.05815612971783
 30
0.0
 70
     0
  0
VERTEX
  8
1
 10
15.1888666749001
 20
3.09000564217567
 30
0.0
 70
     0
  0
VERTEX
  8
1
 10
15.1325368404388
 20
3.35500619709492
 30
0.0
 70
     0
  0
VERTEX
  8
1
 10
15.0771365761757
 20
3.36520421802998
 30
0.0
 70
     0
  0
VERTEX
  8
1
 10
14.9765825152397
 20
3.38230058848858
 30
0.0
 70
     0
  0
VERTEX
  8
1
 10
14.8800359010696
 20
3.39698673784733
 30
0.0
 70
     0
  0
VERTEX
  8
1
 10
14.7875497221947
 20
3.40940838456154
 30
0.0
 70
     0
  0
VERTEX
  8
1
 10
14.6991693973541
 20
3.41971162557602
 30
0.0
 70
     0
  0
VERTEX
  8
1
 10
14.6149448871613
 20
3.42804407179356
 30
0.0
 70
     0
  0
VERTEX
  8
1
 10
14.5349155545235
 20
3.43455371260643
 30
0.0
 70
     0
  0
VERTEX
  8
1
 10
14.4591116786003
 20
3.4393896728754
 30
0.0
 70
     0
  0
VERTEX
  8
1
 10
14.3875726222992
 20
3.44270183444023
 30
0.0
 70
     0
  0
VERTEX
  8
1
 10
14.3338256001472
 20
3.4443111717701
 30
0.0
 42
-0.000043633167517
 70
     0
  0
VERTEX
  8
1
 10
14.2730235338211
 20
3.6881768733263
 30
0.0
 70
     0
  0
VERTEX
  8
1
 10
14.3197245955467
 20
3.71483048200607
 30
0.0
 70
     0
  0
VERTEX
  8
1
 10
14.3813351154327
 20
3.75134033560753
 30
0.0
 70
     0
  0
VERTEX
  8
1
 10
14.4459932327271
 20
3.79119717180729
 30
0.0
 70
     0
  0
VERTEX
  8
1
 10
14.5136005401611
 20
3.83451680839062
 30
0.0
 70
     0
  0
VERTEX
  8
1
 10
14.5840556025505
 20
3.88141582012176
 30
0.0
 70
     0
  0
VERTEX
  8
1
 10
14.6572509288788
 20
3.93200396895409
 30
0.0
 70
     0
  0
VERTEX
  8
1
 10
14.7330805420876
 20
3.98639139533043
 30
0.0
 70
     0
  0
VERTEX
  8
1
 10
14.8114308953285
 20
4.0446844547987
 30
0.0
 70
     0
  0
VERTEX
  8
1
 10
14.8921884417534
 20
4.10698647499084
 30
0.0
 70
     0
  0
VERTEX
  8
1
 10
14.9363172888756
 20
4.14199978113174
 30
0.0
 70
     0
  0
VERTEX
  8
1
 10
14.8616382837296
 20
4.4024255335331
 30
0.0
 70
     0
  0
VERTEX
  8
1
 10
14.805664229393
 20
4.40873419642448
 30
0.0
 70
     0
  0
VERTEX
  8
1
 10
14.7041609168053
 20
4.4187747657299
 30
0.0
 70
     0
  0
VERTEX
  8
1
 10
14.606825530529
 20
4.4266901165247
 30
0.0
 70
     0
  0
VERTEX
  8
1
 10
14.5136974334717
 20
4.43263013064861
 30
0.0
 70
     0
  0
VERTEX
  8
1
 10
14.4248159885406
 20
4.43674279749393
 30
0.0
 70
     0
  0
VERTEX
  8
1
 10
14.3402145028114
 20
4.43917989134788
 30
0.0
 70
     0
  0
VERTEX
  8
1
 10
14.2599247694016
 20
4.44009129405022
 30
0.0
 70
     0
  0
VERTEX
  8
1
 10
14.1839679837227
 20
4.43962726593018
 30
0.0
 70
     0
  0
VERTEX
  8
1
 10
14.1123729109764
 20
4.43794109523296
 30
0.0
 70
     0
  0
VERTEX
  8
1
 10
14.0586455702782
 20
4.43579770922661
 30
0.0
 42
-0.000043633247917
 70
     0
  0
VERTEX
  8
1
 10
13.9809795260429
 20
4.67482820749283
 30
0.0
 70
     0
  0
VERTEX
  8
1
 10
14.0257079005241
 20
4.70467399656773
 30
0.0
 70
     0
  0
VERTEX
  8
1
 10
14.0846220612526
 20
4.74539265334606
 30
0.0
 70
     0
  0
VERTEX
  8
1
 10
14.146343100071
 20
4.78966229856014
 30
0.0
 70
     0
  0
VERTEX
  8
1
 10
14.2107620120049
 20
4.83759345114231
 30
0.0
 70
     0
  0
VERTEX
  8
1
 10
14.2777743339539
 20
4.88929208815098
 30
0.0
 70
     0
  0
VERTEX
  8
1
 10
14.3472634911537
 20
4.94486305117607
 30
0.0
 70
     0
  0
VERTEX
  8
1
 10
14.4191129088402
 20
5.00440739691257
 30
0.0
 70
     0
  0
VERTEX
  8
1
 10
14.493207526207
 20
5.068024289608
 30
0.0
 70
     0
  0
VERTEX
  8
1
 10
14.569421684742
 20
5.13580797314644
 30
0.0
 70
     0
  0
VERTEX
  8
1
 10
14.6110025405884
 20
5.17381437420845
 30
0.0
 70
     0
  0
VERTEX
  8
1
 10
14.5183377146721
 20
5.42839587032795
 30
0.0
 70
     0
  0
VERTEX
  8
1
 10
14.4620593547821
 20
5.43078451752663
 30
0.0
 70
     0
  0
VERTEX
  8
1
 10
14.3601033687592
 20
5.4337200820446
 30
0.0
 70
     0
  0
VERTEX
  8
1
 10
14.2624515652657
 20
5.434826785326
 30
0.0
 70
     0
  0
VERTEX
  8
1
 10
14.1691372513771
 20
5.43425602316856
 30
0.0
 70
     0
  0
VERTEX
  8
1
 10
14.0801831364632
 20
5.43215881288052
 30
0.0
 70
     0
  0
VERTEX
  8
1
 10
13.9956194996834
 20
5.42868844270706
 30
0.0
 70
     0
  0
VERTEX
  8
1
 10
13.9154614806175
 20
5.42399668693542
 30
0.0
 70
     0
  0
VERTEX
  8
1
 10
13.8397227048874
 20
5.41823569834232
 30
0.0
 70
     0
  0
VERTEX
  8
1
 10
13.7684198260307
 20
5.41155952215195
 30
0.0
 70
     0
  0
VERTEX
  8
1
 10
13.7149725675583
 20
5.40567287504673
 30
0.0
 42
-0.000043633327215
 70
     0
  0
VERTEX
  8
1
 10
13.6208210349083
 20
5.63870355784893
 30
0.0
 70
     0
  0
VERTEX
  8
1
 10
13.6633587121963
 20
5.67159694433212
 30
0.0
 70
     0
  0
VERTEX
  8
1
 10
13.7192873477936
 20
5.71632645428181
 30
0.0
 70
     0
  0
VERTEX
  8
1
 10
13.7777715444565
 20
5.76479354798794
 30
0.0
 70
     0
  0
VERTEX
  8
1
 10
13.8386916995049
 20
5.81710117459297
 30
0.0
 70
     0
  0
VERTEX
  8
1
 10
13.9019327521324
 20
5.87334887683392
 30
0.0
 70
     0
  0
VERTEX
  8
1
 10
13.9673766136169
 20
5.93363165557384
 30
0.0
 70
     0
  0
VERTEX
  8
1
 10
14.0348976254463
 20
5.99804299771786
 30
0.0
 70
     0
  0
VERTEX
  8
1
 10
14.1043746709824
 20
6.0666733622551
 30
0.0
 70
     0
  0
VERTEX
  8
1
 10
14.1756730079651
 20
6.13960828781128
 30
0.0
 70
     0
  0
VERTEX
  8
1
 10
14.2145014882088
 20
6.18042232394218
 30
0.0
 70
     0
  0
VERTEX
  8
1
 10
14.1043050289154
 20
6.42791963219643
 30
0.0
 70
     0
  0
VERTEX
  8
1
 10
14.0479963898659
 20
6.42637690901756
 30
0.0
 70
     0
  0
VERTEX
  8
1
 10
13.9460843086243
 20
6.4221938431263
 30
0.0
 70
     0
  0
VERTEX
  8
1
 10
13.8485929846764
 20
6.41648546457291
 30
0.0
 70
     0
  0
VERTEX
  8
1
 10
13.7555466413498
 20
6.40940695405006
 30
0.0
 70
     0
  0
VERTEX
  8
1
 10
13.6669558763504
 20
6.4011097073555
 30
0.0
 70
     0
  0
VERTEX
  8
1
 10
13.5828388571739
 20
6.39174890518188
 30
0.0
 70
     0
  0
VERTEX
  8
1
 10
13.5032046675682
 20
6.38147670030594
 30
0.0
 70
     0
  0
VERTEX
  8
1
 10
13.4280533075333
 20
6.37044675946236
 30
0.0
 70
     0
  0
VERTEX
  8
1
 10
13.357387804985
 20
6.35881274938583
 30
0.0
 70
     0
  0
VERTEX
  8
1
 10
13.3044810295105
 20
6.34921236336231
 30
0.0
 42
-0.000043633218534
 70
     0
  0
VERTEX
  8
1
 10
13.1943042516708
 20
6.57510738372803
 30
0.0
 70
     0
  0
VERTEX
  8
1
 10
13.2344438195229
 20
6.61088750958443
 30
0.0
 70
     0
  0
VERTEX
  8
1
 10
13.2871174454689
 20
6.65940986275673
 30
0.0
 70
     0
  0
VERTEX
  8
1
 10
13.3420756340027
 20
6.71183822751045
 30
0.0
 70
     0
  0
VERTEX
  8
1
 10
13.399198782444
 20
6.76826798319817
 30
0.0
 70
     0
  0
VERTEX
  8
1
 10
13.4583642601967
 20
6.8287907242775
 30
0.0
 70
     0
  0
VERTEX
  8
1
 10
13.5194433808327
 20
6.89349123239517
 30
0.0
 70
     0
  0
VERTEX
  8
1
 10
13.5823059439659
 20
6.9624558031559
 30
0.0
 70
     0
  0
VERTEX
  8
1
 10
13.6468262910843
 20
7.03576543331146
 30
0.0
 70
     0
  0
VERTEX
  8
1
 10
13.7128636240959
 20
7.11349657773972
 30
0.0
 70
     0
  0
VERTEX
  8
1
 10
13.7487489700317
 20
7.15691992044449
 30
0.0
 70
     0
  0
VERTEX
  8
1
 10
13.6215568184853
 20
7.39612755179405
 30
0.0
 70
     0
  0
VERTEX
  8
1
 10
13.5654934406281
 20
7.39066064953804
 30
0.0
 70
     0
  0
VERTEX
  8
1
 10
13.4641218423843
 20
7.37937787771225
 30
0.0
 70
     0
  0
VERTEX
  8
1
 10
13.3672663807869
 20
7.36688318252563
 30
0.0
 70
     0
  0
VERTEX
  8
1
 10
13.2749391674995
 20
7.35333098769188
 30
0.0
 70
     0
  0
VERTEX
  8
1
 10
13.1871432304382
 20
7.33887420296669
 30
0.0
 70
     0
  0
VERTEX
  8
1
 10
13.1038861393929
 20
7.32366876602173
 30
0.0
 70
     0
  0
VERTEX
  8
1
 10
13.0251588106155
 20
7.30786682963371
 30
0.0
 70
     0
  0
VERTEX
  8
1
 10
12.9509597301483
 20
7.29162130355835
 30
0.0
 70
     0
  0
VERTEX
  8
1
 10
12.8812813282013
 20
7.27508661150932
 30
0.0
 70
     0
  0
VERTEX
  8
1
 10
12.8291724085808
 20
7.2618190407753
 30
0.0
 42
-0.000043633150484
 70
     0
  0
VERTEX
  8
1
 10
12.7035063266754
 20
7.47947775125504
 30
0.0
 70
     0
  0
VERTEX
  8
1
 10
12.7410509705544
 20
7.51797164678574
 30
0.0
 70
     0
  0
VERTEX
  8
1
 10
12.7902122139931
 20
7.5700502872467
 30
0.0
 70
     0
  0
VERTEX
  8
1
 10
12.8413794517517
 20
7.62618482112885
 30
0.0
 70
     0
  0
VERTEX
  8
1
 10
12.8944270253181
 20
7.68646154403686
 30
0.0
 70
     0
  0
VERTEX
  8
1
 10
12.9492262482643
 20
7.75096372365952
 30
0.0
 70
     0
  0
VERTEX
  8
1
 10
13.0056423783302
 20
7.81976781487465
 30
0.0
 70
     0
  0
VERTEX
  8
1
 10
13.0635421872139
 20
7.89294875860214
 30
0.0
 70
     0
  0
VERTEX
  8
1
 10
13.1227909326553
 20
7.97058073878288
 30
0.0
 70
     0
  0
VERTEX
  8
1
 10
13.1832463026047
 20
8.05272885560989
 30
0.0
 70
     0
  0
VERTEX
  8
1
 10
13.2160144090652
 20
8.09854955077171
 30
0.0
 70
     0
  0
VERTEX
  8
1
 10
13.0724457740784
 20
8.32830251455307
 30
0.0
 70
     0
  0
VERTEX
  8
1
 10
13.0169001698494
 20
8.31893792748451
 30
0.0
 70
     0
  0
VERTEX
  8
1
 10
12.9165626049042
 20
8.30061146616936
 30
0.0
 70
     0
  0
VERTEX
  8
1
 10
12.8208153605461
 20
8.28139025568962
 30
0.0
 70
     0
  0
VERTEX
  8
1
 10
12.7296569228172
 20
8.26143174767494
 30
0.0
 70
     0
  0
VERTEX
  8
1
 10
12.6430850207806
 20
8.24088582396507
 30
0.0
 70
     0
  0
VERTEX
  8
1
 10
12.5610905706882
 20
8.21990917921066
 30
0.0
 70
     0
  0
VERTEX
  8
1
 10
12.4836591899395
 20
8.19865396618843
 30
0.0
 70
     0
  0
VERTEX
  8
1
 10
12.4107742249966
 20
8.17727233767509
 30
0.0
 70
     0
  0
VERTEX
  8
1
 10
12.3424182653427
 20
8.15591644644737
 30
0.0
 70
     0
  0
VERTEX
  8
1
 10
12.2913623034954
 20
8.13904716968536
 30
0.0
 42
-0.000043633299522
 70
     0
  0
VERTEX
  8
1
 10
12.1508185565472
 20
8.34741017818451
 30
0.0
 70
     0
  0
VERTEX
  8
1
 10
12.1855866014957
 20
8.38842859864235
 30
0.0
 70
     0
  0
VERTEX
  8
1
 10
12.2309947431087
 20
8.44380842447281
 30
0.0
 70
     0
  0
VERTEX
  8
1
 10
12.278121984005
 20
8.50337585806847
 30
0.0
 70
     0
  0
VERTEX
  8
1
 10
12.3268350958824
 20
8.56720659732819
 30
0.0
 70
     0
  0
VERTEX
  8
1
 10
12.3770016074181
 20
8.63537406921387
 30
0.0
 70
     0
  0
VERTEX
  8
1
 10
12.428481477499
 20
8.7079456448555
 30
0.0
 70
     0
  0
VERTEX
  8
1
 10
12.4811346650124
 20
8.78498793840408
 30
0.0
 70
     0
  0
VERTEX
  8
1
 10
12.5348241567612
 20
8.86656302213669
 30
0.0
 70
     0
  0
VERTEX
  8
1
 10
12.5894015848637
 20
8.95272842645645
 30
0.0
 70
     0
  0
VERTEX
  8
1
 10
12.6188942432404
 20
9.00072316527367
 30
0.0
 70
     0
  0
VERTEX
  8
1
 10
12.4596485733986
 20
9.21990113258362
 30
0.0
 70
     0
  0
VERTEX
  8
1
 10
12.4048917412758
 20
9.20668503642082
 30
0.0
 70
     0
  0
VERTEX
  8
1
 10
12.3060764610767
 20
9.18140420913696
 30
0.0
 70
     0
  0
VERTEX
  8
1
 10
12.2119029760361
 20
9.15555186271667
 30
0.0
 70
     0
  0
VERTEX
  8
1
 10
12.122359931469
 20
9.12928166389465
 30
0.0
 70
     0
  0
VERTEX
  8
1
 10
12.0374314308167
 20
9.1027465224266
 30
0.0
 70
     0
  0
VERTEX
  8
1
 10
11.9570993065834
 20
9.07610237598419
 30
0.0
 70
     0
  0
VERTEX
  8
1
 10
11.8813400924206
 20
9.0494968354702
 30
0.0
 70
     0
  0
VERTEX
  8
1
 10
11.8101235091686
 20
9.02308281064033
 30
0.0
 70
     0
  0
VERTEX
  8
1
 10
11.7434230625629
 20
8.99701169729233
 30
0.0
 70
     0
  0
VERTEX
  8
1
 10
11.6936683475971
 20
8.97662171125412
 30
0.0
 42
-0.000043633128714
 70
     0
  0
VERTEX
  8
1
 10
11.5389327585697
 20
9.17467239499092
 30
0.0
 70
     0
  0
VERTEX
  8
1
 10
11.5707546412945
 20
9.21801625490188
 30
0.0
 70
     0
  0
VERTEX
  8
1
 10
11.6121894001961
 20
9.27642929553986
 30
0.0
 70
     0
  0
VERTEX
  8
1
 10
11.6550457656384
 20
9.33913894891739
 30
0.0
 70
     0
  0
VERTEX
  8
1
 10
11.6991882383823
 20
9.40621182918549
 30
0.0
 70
     0
  0
VERTEX
  8
1
 10
11.7444767773151
 20
9.47771227955818
 30
0.0
 70
     0
  0
VERTEX
  8
1
 10
11.7907690703869
 20
9.5536985874176
 30
0.0
 70
     0
  0
VERTEX
  8
1
 10
11.8379205346107
 20
9.63422601222992
 30
0.0
 70
     0
  0
VERTEX
  8
1
 10
11.8857881009579
 20
9.71934829950333
 30
0.0
 70
     0
  0
VERTEX
  8
1
 10
11.9342218875885
 20
9.80911086797714
 30
0.0
 70
     0
  0
VERTEX
  8
1
 10
11.9602952718735
 20
9.85904574394226
 30
0.0
 70
     0
  0
VERTEX
  8
1
 10
11.7861477136612
 20
10.0665821313858
 30
0.0
 70
     0
  0
VERTEX
  8
1
 10
11.7324461102486
 20
10.0495781123638
 30
0.0
 70
     0
  0
VERTEX
  8
1
 10
11.6356353104115
 20
10.0174663066864
 30
0.0
 70
     0
  0
VERTEX
  8
1
 10
11.5434943139553
 20
9.9851069688797
 30
0.0
 70
     0
  0
VERTEX
  8
1
 10
11.4560026824474
 20
9.95265527963638
 30
0.0
 70
     0
  0
VERTEX
  8
1
 10
11.3731316506863
 20
9.92026036381721
 30
0.0
 70
     0
  0
VERTEX
  8
1
 10
11.2948532104492
 20
9.88807664513588
 30
0.0
 70
     0
  0
VERTEX
  8
1
 10
11.2211340546608
 20
9.85625249147415
 30
0.0
 70
     0
  0
VERTEX
  8
1
 10
11.1519348204136
 20
9.82493399977684
 30
0.0
 70
     0
  0
VERTEX
  8
1
 10
11.0872153878212
 20
9.79427407979965
 30
0.0
 70
     0
  0
VERTEX
  8
1
 10
11.0390033960342
 20
9.77046254873276
 30
0.0
 42
-0.000043633113837
 70
     0
  0
VERTEX
  8
1
 10
10.8708299160004
 20
9.95723727345467
 30
0.0
 70
     0
  0
VERTEX
  8
1
 10
10.8995504558086
 20
10.0026953756809
 30
0.0
 70
     0
  0
VERTEX
  8
1
 10
10.9368097186089
 20
10.0638562500477
 30
0.0
 70
     0
  0
VERTEX
  8
1
 10
10.9751877963543
 20
10.1294023036957
 30
0.0
 70
     0
  0
VERTEX
  8
1
 10
11.0145438909531
 20
10.199391824007
 30
0.0
 70
     0
  0
VERTEX
  8
1
 10
11.0547341763973
 20
10.273877042532
 30
0.0
 70
     0
  0
VERTEX
  8
1
 10
11.0956125557423
 20
10.3529079198837
 30
0.0
 70
     0
  0
VERTEX
  8
1
 10
11.1370321750641
 20
10.4365276038647
 30
0.0
 70
     0
  0
VERTEX
  8
1
 10
11.17884542346
 20
10.5247815132141
 30
0.0
 70
     0
  0
VERTEX
  8
1
 10
11.2209001481533
 20
10.6177037119865
 30
0.0
 70
     0
  0
VERTEX
  8
1
 10
11.2434263288975
 20
10.6693357348442
 30
0.0
 70
     0
  0
VERTEX
  8
1
 10
11.0552262127399
 20
10.8642177045345
 30
0.0
 70
     0
  0
VERTEX
  8
1
 10
11.0028417527676
 20
10.8435097873211
 30
0.0
 70
     0
  0
VERTEX
  8
1
 10
10.9085062742233
 20
10.8047229409218
 30
0.0
 70
     0
  0
VERTEX
  8
1
 10
10.818847411871
 20
10.7660148203373
 30
0.0
 70
     0
  0
VERTEX
  8
1
 10
10.7338326156139
 20
10.7275390923023
 30
0.0
 70
     0
  0
VERTEX
  8
1
 10
10.6534232795238
 20
10.6894426107407
 30
0.0
 70
     0
  0
VERTEX
  8
1
 10
10.5775807976723
 20
10.65187677145
 30
0.0
 70
     0
  0
VERTEX
  8
1
 10
10.5062612652779
 20
10.6149876713753
 30
0.0
 70
     0
  0
VERTEX
  8
1
 10
10.4394139647484
 20
10.5789191365242
 30
0.0
 70
     0
  0
VERTEX
  8
1
 10
10.3769912064075
 20
10.5438187777996
 30
0.0
 70
     0
  0
VERTEX
  8
1
 10
10.3305588722229
 20
10.5167022764683
 30
0.0
 42
-0.000043633225505
 70
     0
  0
VERTEX
  8
1
 10
10.1497657954693
 20
10.6912911534309
 30
0.0
 70
     0
  0
VERTEX
  8
1
 10
10.1752457082272
 20
10.7386424601078
 30
0.0
 70
     0
  0
VERTEX
  8
1
 10
10.2081477999687
 20
10.8022536754608
 30
0.0
 70
     0
  0
VERTEX
  8
1
 10
10.2418598592281
 20
10.8703174412251
 30
0.0
 70
     0
  0
VERTEX
  8
1
 10
10.2762373030186
 20
10.9428814470768
 30
0.0
 70
     0
  0
VERTEX
  8
1
 10
10.3111347913742
 20
11.0199895977974
 30
0.0
 70
     0
  0
VERTEX
  8
1
 10
10.3464009284973
 20
11.1016789853573
 30
0.0
 70
     0
  0
VERTEX
  8
1
 10
10.3818865895271
 20
11.1879844307899
 30
0.0
 70
     0
  0
VERTEX
  8
1
 10
10.4174411356449
 20
11.2789392411709
 30
0.0
 70
     0
  0
VERTEX
  8
1
 10
10.452910900116
 20
11.3745691537857
 30
0.0
 70
     0
  0
VERTEX
  8
1
 10
10.471780872345
 20
11.4276470065117
 30
0.0
 70
     0
  0
VERTEX
  8
1
 10
10.2704456567764
 20
11.608926820755
 30
0.0
 70
     0
  0
VERTEX
  8
1
 10
10.2196319282055
 20
11.5846141695976
 30
0.0
 70
     0
  0
VERTEX
  8
1
 10
10.1282335281372
 20
11.5393415272236
 30
0.0
 70
     0
  0
VERTEX
  8
1
 10
10.0414928197861
 20
11.4944738686085
 30
0.0
 70
     0
  0
VERTEX
  8
1
 10
9.9593689262867
 20
11.450161075592
 30
0.0
 70
     0
  0
VERTEX
  8
1
 10
9.88181264400482
 20
11.4065484881401
 30
0.0
 70
     0
  0
VERTEX
  8
1
 10
9.80877552628517
 20
11.3637837171555
 30
0.0
 70
     0
  0
VERTEX
  8
1
 10
9.74020307064056
 20
11.322009074688
 30
0.0
 70
     0
  0
VERTEX
  8
1
 10
9.67603471875191
 20
11.2813653588295
 30
0.0
 70
     0
  0
VERTEX
  8
1
 10
9.61621294021606
 20
11.2419956386089
 30
0.0
 70
     0
  0
VERTEX
  8
1
 10
9.57178432941437
 20
11.2117066383362
 30
0.0
 42
-0.000043633162757
 70
     0
  0
VERTEX
  8
1
 10
9.37925353646278
 20
11.3732588231564
 30
0.0
 70
     0
  0
VERTEX
  8
1
 10
9.40136792063713
 20
11.4222716987133
 30
0.0
 70
     0
  0
VERTEX
  8
1
 10
9.42975160479546
 20
11.4880228936672
 30
0.0
 70
     0
  0
VERTEX
  8
1
 10
9.45863489508629
 20
11.5582728147507
 30
0.0
 70
     0
  0
VERTEX
  8
1
 10
9.48786715269089
 20
11.6330577969551
 30
0.0
 70
     0
  0
VERTEX
  8
1
 10
9.51730000972748
 20
11.712411904335
 30
0.0
 70
     0
  0
VERTEX
  8
1
 10
9.54678131341934
 20
11.796362388134
 30
0.0
 70
     0
  0
VERTEX
  8
1
 10
9.57616042494774
 20
11.8849334716797
 30
0.0
 70
     0
  0
VERTEX
  8
1
 10
9.60528367757797
 20
11.9781471073627
 30
0.0
 70
     0
  0
VERTEX
  8
1
 10
9.63399664759636
 20
12.076018434763
 30
0.0
 70
     0
  0
VERTEX
  8
1
 10
9.64911805987358
 20
12.1302832305431
 30
0.0
 70
     0
  0
VERTEX
  8
1
 10
9.43562727570534
 20
12.2970759809017
 30
0.0
 70
     0
  0
VERTEX
  8
1
 10
9.3866340816021
 20
12.2692789554596
 30
0.0
 70
     0
  0
VERTEX
  8
1
 10
9.29861559271812
 20
12.2177400410175
 30
0.0
 70
     0
  0
VERTEX
  8
1
 10
9.21521694660187
 20
12.1669316112995
 30
0.0
 70
     0
  0
VERTEX
  8
1
 10
9.13638364076614
 20
12.1169982492924
 30
0.0
 70
     0
  0
VERTEX
  8
1
 10
9.06205738782883
 20
12.068081510067
 30
0.0
 70
     0
  0
VERTEX
  8
1
 10
8.99218217134476
 20
12.0203259766102
 30
0.0
 70
     0
  0
VERTEX
  8
1
 10
8.92669062018394
 20
11.9738701760769
 30
0.0
 70
     0
  0
VERTEX
  8
1
 10
8.86551384925842
 20
11.9288496077061
 30
0.0
 70
     0
  0
VERTEX
  8
1
 10
8.8085844874382
 20
11.8854035556316
 30
0.0
 70
     0
  0
VERTEX
  8
1
 10
8.7663768529892
 20
11.8520881533623
 30
0.0
 42
-0.000043633190027
 70
     0
  0
VERTEX
  8
1
 10
8.56304548382759
 20
11.9998163878918
 30
0.0
 70
     0
  0
VERTEX
  8
1
 10
8.58168684840202
 20
12.0502523839474
 30
0.0
 70
     0
  0
VERTEX
  8
1
 10
8.60541586875915
 20
12.11782335639
 30
0.0
 70
     0
  0
VERTEX
  8
1
 10
8.62932732105255
 20
12.1899165213108
 30
0.0
 70
     0
  0
VERTEX
  8
1
 10
8.65327208042145
 20
12.2665591299534
 30
0.0
 70
     0
  0
VERTEX
  8
1
 10
8.67709799408913
 20
12.3477723777294
 30
0.0
 70
     0
  0
VERTEX
  8
1
 10
8.70065215229988
 20
12.4335751891136
 30
0.0
 70
     0
  0
VERTEX
  8
1
 10
8.72378013134003
 20
12.5239796757698
 30
0.0
 70
     0
  0
VERTEX
  8
1
 10
8.74633129239082
 20
12.6189987063408
 30
0.0
 70
     0
  0
VERTEX
  8
1
 10
8.76814666986465
 20
12.7186322808266
 30
0.0
 70
     0
  0
VERTEX
  8
1
 10
8.77944533824921
 20
12.7738205909729
 30
0.0
 70
     0
  0
VERTEX
  8
1
 10
8.55483983159065
 20
12.9253147959709
 30
0.0
 70
     0
  0
VERTEX
  8
1
 10
8.50790562033653
 20
12.894168138504
 30
0.0
 70
     0
  0
VERTEX
  8
1
 10
8.42369624972343
 20
12.8366150259972
 30
0.0
 70
     0
  0
VERTEX
  8
1
 10
8.34404464960098
 20
12.7801126003265
 30
0.0
 70
     0
  0
VERTEX
  8
1
 10
8.26888723373413
 20
12.724801659584
 30
0.0
 70
     0
  0
VERTEX
  8
1
 10
8.19815436005592
 20
12.6708199739456
 30
0.0
 70
     0
  0
VERTEX
  8
1
 10
8.13178092837334
 20
12.6183068275452
 30
0.0
 70
     0
  0
VERTEX
  8
1
 10
8.06968896985054
 20
12.5673954486847
 30
0.0
 70
     0
  0
VERTEX
  8
1
 10
8.01180202960968
 20
12.5182167947292
 30
0.0
 70
     0
  0
VERTEX
  8
1
 10
7.95804062485695
 20
12.4709048509598
 30
0.0
 70
     0
  0
VERTEX
  8
1
 10
7.91826137900352
 20
12.4347265541553
 30
0.0
 42
-0.000043633347344
 70
     0
  0
VERTEX
  8
1
 10
7.70511956214905
 20
12.5679117083549
 30
0.0
 70
     0
  0
VERTEX
  8
1
 10
7.72019782662392
 20
12.6195263206959
 30
0.0
 70
     0
  0
VERTEX
  8
1
 10
7.73915485143661
 20
12.6885870277882
 30
0.0
 70
     0
  0
VERTEX
  8
1
 10
7.7579794049263
 20
12.7621721982956
 30
0.0
 70
     0
  0
VERTEX
  8
1
 10
7.77651933431625
 20
12.8402984857559
 30
0.0
 70
     0
  0
VERTEX
  8
1
 10
7.79462172985077
 20
12.922977244854
 30
0.0
 70
     0
  0
VERTEX
  8
1
 10
7.81213368177414
 20
13.0102115035057
 30
0.0
 70
     0
  0
VERTEX
  8
1
 10
7.8288992524147
 20
13.102010345459
 30
0.0
 70
     0
  0
VERTEX
  8
1
 10
7.84476628899574
 20
13.1983692288399
 30
0.0
 70
     0
  0
VERTEX
  8
1
 10
7.85957961082458
 20
13.2992851257324
 30
0.0
 70
     0
  0
VERTEX
  8
1
 10
7.86700103282928
 20
13.355125951767
 30
0.0
 70
     0
  0
VERTEX
  8
1
 10
7.63237463831902
 20
13.4905843138695
 30
0.0
 70
     0
  0
VERTEX
  8
1
 10
7.5877272605896
 20
13.4562386631966
 30
0.0
 70
     0
  0
VERTEX
  8
1
 10
7.50773804783821
 20
13.3929521918297
 30
0.0
 70
     0
  0
VERTEX
  8
1
 10
7.43222106695175
 20
13.3310313105583
 30
0.0
 70
     0
  0
VERTEX
  8
1
 10
7.36110516190529
 20
13.2706122756004
 30
0.0
 70
     0
  0
VERTEX
  8
1
 10
7.29431084990501
 20
13.2118268013
 30
0.0
 70
     0
  0
VERTEX
  8
1
 10
7.23176167607307
 20
13.1548111438751
 30
0.0
 70
     0
  0
VERTEX
  8
1
 10
7.17337285876274
 20
13.0996939897537
 30
0.0
 70
     0
  0
VERTEX
  8
1
 10
7.11905734539032
 20
13.046597969532
 30
0.0
 70
     0
  0
VERTEX
  8
1
 10
7.06872732639313
 20
12.9956502556801
 30
0.0
 70
     0
  0
VERTEX
  8
1
 10
7.0315687417984
 20
12.9567854404449
 30
0.0
 42
-0.000043633247122
 70
     0
  0
VERTEX
  8
1
 10
6.80965580940247
 20
13.0747772693634
 30
0.0
 70
     0
  0
VERTEX
  8
1
 10
6.82109678983688
 20
13.1273176670074
 30
0.0
 70
     0
  0
VERTEX
  8
1
 10
6.83519022464752
 20
13.1975335240364
 30
0.0
 70
     0
  0
VERTEX
  8
1
 10
6.84883552789688
 20
13.2722534060478
 30
0.0
 70
     0
  0
VERTEX
  8
1
 10
6.86188054680824
 20
13.3514818549156
 30
0.0
 70
     0
  0
VERTEX
  8
1
 10
6.87417085766792
 20
13.4352218985558
 30
0.0
 70
     0
  0
VERTEX
  8
1
 10
6.88555506467819
 20
13.5234674811363
 30
0.0
 70
     0
  0
VERTEX
  8
1
 10
6.8958764731884
 20
13.6162110328674
 30
0.0
 70
     0
  0
VERTEX
  8
1
 10
6.90498368740082
 20
13.7134419560432
 30
0.0
 70
     0
  0
VERTEX
  8
1
 10
6.91272001266479
 20
13.815145111084
 30
0.0
 70
     0
  0
VERTEX
  8
1
 10
6.91622861027718
 20
13.8713674545288
 30
0.0
 70
     0
  0
VERTEX
  8
1
 10
6.67272436618805
 20
13.9901283740997
 30
0.0
 70
     0
  0
VERTEX
  8
1
 10
6.63058183193207
 20
13.9527532935143
 30
0.0
 70
     0
  0
VERTEX
  8
1
 10
6.55520262122154
 20
13.8840407967567
 30
0.0
 70
     0
  0
VERTEX
  8
1
 10
6.48418890833855
 20
13.8170012235641
 30
0.0
 70
     0
  0
VERTEX
  8
1
 10
6.41746121048927
 20
13.7517693161964
 30
0.0
 70
     0
  0
VERTEX
  8
1
 10
6.35493020415306
 20
13.6884692192078
 30
0.0
 70
     0
  0
VERTEX
  8
1
 10
6.29651035070419
 20
13.6272296190262
 30
0.0
 70
     0
  0
VERTEX
  8
1
 10
6.24210854172707
 20
13.5681716322899
 30
0.0
 70
     0
  0
VERTEX
  8
1
 10
6.19162939786911
 20
13.5114163756371
 30
0.0
 70
     0
  0
VERTEX
  8
1
 10
6.14497602581978
 20
13.4570819377899
 30
0.0
 70
     0
  0
VERTEX
  8
1
 10
6.11061826348305
 20
13.4157190918922
 30
0.0
 42
-0.0000436334283
 70
     0
  0
VERTEX
  8
1
 10
5.88101518154144
 20
13.5179460763931
 30
0.0
 70
     0
  0
VERTEX
  8
1
 10
5.88876323997974
 20
13.5711556434631
 30
0.0
 70
     0
  0
VERTEX
  8
1
 10
5.89792457818985
 20
13.6421844959259
 30
0.0
 70
     0
  0
VERTEX
  8
1
 10
5.90632477402687
 20
13.7176734685898
 30
0.0
 70
     0
  0
VERTEX
  8
1
 10
5.9138109177351
 20
13.7976180195808
 30
0.0
 70
     0
  0
VERTEX
  8
1
 10
5.92023123502731
 20
13.8820120930672
 30
0.0
 70
     0
  0
VERTEX
  8
1
 10
5.92543092370033
 20
13.9708360075951
 30
0.0
 70
     0
  0
VERTEX
  8
1
 10
5.92925783097744
 20
14.0640731096268
 30
0.0
 70
     0
  0
VERTEX
  8
1
 10
5.93155980408192
 20
14.1617037177086
 30
0.0
 70
     0
  0
VERTEX
  8
1
 10
5.93218355476856
 20
14.2636990666389
 30
0.0
 70
     0
  0
VERTEX
  8
1
 10
5.93176153898239
 20
14.3200289011002
 30
0.0
 70
     0
  0
VERTEX
  8
1
 10
5.68056638836861
 20
14.4215140461922
 30
0.0
 70
     0
  0
VERTEX
  8
1
 10
5.64113346040249
 20
14.3812896966934
 30
0.0
 70
     0
  0
VERTEX
  8
1
 10
5.57073100805283
 20
14.3074872732162
 30
0.0
 70
     0
  0
VERTEX
  8
1
 10
5.5045668810606
 20
14.2356575369835
 30
0.0
 70
     0
  0
VERTEX
  8
1
 10
5.44255137741566
 20
14.1659306883812
 30
0.0
 70
     0
  0
VERTEX
  8
1
 10
5.38458873927593
 20
14.0984217882156
 30
0.0
 70
     0
  0
VERTEX
  8
1
 10
5.33058320879936
 20
14.0332564949989
 30
0.0
 70
     0
  0
VERTEX
  8
1
 10
5.28043335080147
 20
13.9705468416214
 30
0.0
 70
     0
  0
VERTEX
  8
1
 10
5.23403621613979
 20
13.9104078888893
 30
0.0
 70
     0
  0
VERTEX
  8
1
 10
5.19128696322441
 20
13.852951669693
 30
0.0
 70
     0
  0
VERTEX
  8
1
 10
5.15989769399166
 20
13.8092951774597
 30
0.0
 42
-0.000043633245682
 70
     0
  0
VERTEX
  8
1
 10
4.92372327744961
 20
13.8952546834946
 30
0.0
 70
     0
  0
VERTEX
  8
1
 10
4.92774094343185
 20
13.9488745331764
 30
0.0
 70
     0
  0
VERTEX
  8
1
 10
4.9319251447916
 20
14.0203681707382
 30
0.0
 70
     0
  0
VERTEX
  8
1
 10
4.9350389778614
 20
14.0962598562241
 30
0.0
 70
     0
  0
VERTEX
  8
1
 10
4.93693028986454
 20
14.1765329360962
 30
0.0
 70
     0
  0
VERTEX
  8
1
 10
4.93744768500328
 20
14.2611677289009
 30
0.0
 70
     0
  0
VERTEX
  8
1
 10
4.93643863201141
 20
14.3501400113106
 30
0.0
 70
     0
  0
VERTEX
  8
1
 10
4.9337521135807
 20
14.4434164762497
 30
0.0
 70
     0
  0
VERTEX
  8
1
 10
4.9292382478714
 20
14.5409698724747
 30
0.0
 70
     0
  0
VERTEX
  8
1
 10
4.92274601757526
 20
14.6427578091621
 30
0.0
 70
     0
  0
VERTEX
  8
1
 10
4.91839528083801
 20
14.6989226222038
 30
0.0
 70
     0
  0
VERTEX
  8
1
 10
4.66073325872421
 20
14.7826399564743
 30
0.0
 70
     0
  0
VERTEX
  8
1
 10
4.62420183122158
 20
14.7397616386414
 30
0.0
 70
     0
  0
VERTEX
  8
1
 10
4.55911904871464
 20
14.6612265825272
 30
0.0
 70
     0
  0
VERTEX
  8
1
 10
4.49812698066235
 20
14.584957921505
 30
0.0
 70
     0
  0
VERTEX
  8
1
 10
4.44112646281719
 20
14.511073744297
 30
0.0
 70
     0
  0
VERTEX
  8
1
 10
4.38801378905773
 20
14.4396875977516
 30
0.0
 70
     0
  0
VERTEX
  8
1
 10
4.33868563175201
 20
14.370913028717
 30
0.0
 70
     0
  0
VERTEX
  8
1
 10
4.29303260743618
 20
14.3048590421677
 30
0.0
 70
     0
  0
VERTEX
  8
1
 10
4.2509434401989
 20
14.2416301012039
 30
0.0
 70
     0
  0
VERTEX
  8
1
 10
4.21230609714985
 20
14.1813321828842
 30
0.0
 70
     0
  0
VERTEX
  8
1
 10
4.18403898775578
 20
14.1355894565582
 30
0.0
 42
-0.000043633364574
 70
     0
  0
VERTEX
  8
1
 10
3.94244346618652
 20
14.2048666596413
 30
0.0
 70
     0
  0
VERTEX
  8
1
 10
3.94271105825901
 20
14.2586379051209
 30
0.0
 70
     0
  0
VERTEX
  8
1
 10
3.94189768433571
 20
14.3302496314049
 30
0.0
 70
     0
  0
VERTEX
  8
1
 10
3.93971001505852
 20
14.4061715960503
 30
0.0
 70
     0
  0
VERTEX
  8
1
 10
3.9359970331192
 20
14.4863826036453
 30
0.0
 70
     0
  0
VERTEX
  8
1
 10
3.930609613657
 20
14.5708463191986
 30
0.0
 70
     0
  0
VERTEX
  8
1
 10
3.92339673936367
 20
14.6595309495926
 30
0.0
 70
     0
  0
VERTEX
  8
1
 10
3.91421004235744
 20
14.7523941040039
 30
0.0
 70
     0
  0
VERTEX
  8
1
 10
3.90290229022503
 20
14.8493949055672
 30
0.0
 70
     0
  0
VERTEX
  8
1
 10
3.88932511508465
 20
14.9504833936691
 30
0.0
 70
     0
  0
VERTEX
  8
1
 10
3.88106760978699
 20
15.0062076449394
 30
0.0
 70
     0
  0
VERTEX
  8
1
 10
3.61819303035736
 20
15.0717453718185
 30
0.0
 70
     0
  0
VERTEX
  8
1
 10
3.58474175035954
 20
15.0264250397682
 30
0.0
 70
     0
  0
VERTEX
  8
1
 10
3.52529581189156
 20
14.9435418963432
 30
0.0
 70
     0
  0
VERTEX
  8
1
 10
3.46977216005325
 20
14.8632037162781
 30
0.0
 70
     0
  0
VERTEX
  8
1
 10
3.41806443929672
 20
14.7855225324631
 30
0.0
 70
     0
  0
VERTEX
  8
1
 10
3.37006137371063
 20
14.7106058359146
 30
0.0
 70
     0
  0
VERTEX
  8
1
 10
3.32565055191517
 20
14.6385565757751
 30
0.0
 70
     0
  0
VERTEX
  8
1
 10
3.28471653461456
 20
14.5694792151451
 30
0.0
 70
     0
  0
VERTEX
  8
1
 10
3.2471404761076
 20
14.5034691333771
 30
0.0
 70
     0
  0
VERTEX
  8
1
 10
3.21280353069305
 20
14.4406217098236
 30
0.0
 70
     0
  0
VERTEX
  8
1
 10
3.1877959728241
 20
14.3930198431015
 30
0.0
 42
-0.000043633285228
 70
     0
  0
VERTEX
  8
1
 10
2.94195663779974
 20
14.4452741026878
 30
0.0
 70
     0
  0
VERTEX
  8
1
 10
2.93847264200449
 20
14.4989348292351
 30
0.0
 70
     0
  0
VERTEX
  8
1
 10
2.93266604542732
 20
14.5703134059906
 30
0.0
 70
     0
  0
VERTEX
  8
1
 10
2.92518747150898
 20
14.645899271965
 30
0.0
 70
     0
  0
VERTEX
  8
1
 10
2.91588836312294
 20
14.7256545782089
 30
0.0
 70
     0
  0
VERTEX
  8
1
 10
2.90462186634541
 20
14.8095399618149
 30
0.0
 70
     0
  0
VERTEX
  8
1
 10
2.89124037027359
 20
14.8975039482117
 30
0.0
 70
     0
  0
VERTEX
  8
1
 10
2.87559834569693
 20
14.989499604702
 30
0.0
 70
     0
  0
VERTEX
  8
1
 10
2.85755158811808
 20
15.0854739427567
 30
0.0
 70
     0
  0
VERTEX
  8
1
 10
2.83695608228445
 20
15.1853694319725
 30
0.0
 70
     0
  0
VERTEX
  8
1
 10
2.82483136057854
 20
15.2403806090355
 30
0.0
 70
     0
  0
VERTEX
  8
1
 10
2.55802560001612
 20
15.287425339222
 30
0.0
 70
     0
  0
VERTEX
  8
1
 10
2.5278174072504
 20
15.239879488945
 30
0.0
 70
     0
  0
VERTEX
  8
1
 10
2.4742976680398
 20
15.1530524849892
 30
0.0
 70
     0
  0
VERTEX
  8
1
 10
2.42451380938292
 20
15.0690369009972
 30
0.0
 70
     0
  0
VERTEX
  8
1
 10
2.37835077047348
 20
14.9879387140274
 30
0.0
 70
     0
  0
VERTEX
  8
1
 10
2.33569046258926
 20
14.9098533034325
 30
0.0
 70
     0
  0
VERTEX
  8
1
 10
2.29641366153955
 20
14.8348836183548
 30
0.0
 70
     0
  0
VERTEX
  8
1
 10
2.26039811521769
 20
14.7631189823151
 30
0.0
 70
     0
  0
VERTEX
  8
1
 10
2.22751816511154
 20
14.6946472048759
 30
0.0
 70
     0
  0
VERTEX
  8
1
 10
2.19764872044325
 20
14.6295591235161
 30
0.0
 70
     0
  0
VERTEX
  8
1
 10
2.17602258771658
 20
14.5803297519684
 30
0.0
 42
-0.000043633268654
 70
     0
  0
VERTEX
  8
1
 10
1.92713697999716
 20
14.6153067231178
 30
0.0
 70
     0
  0
VERTEX
  8
1
 10
1.91991823911667
 20
14.6685919880867
 30
0.0
 70
     0
  0
VERTEX
  8
1
 10
1.90914661735296
 20
14.7393922328949
 30
0.0
 70
     0
  0
VERTEX
  8
1
 10
1.89641366302967
 20
14.8142725944519
 30
0.0
 70
     0
  0
VERTEX
  8
1
 10
1.88157384693623
 20
14.8931846261024
 30
0.0
 70
     0
  0
VERTEX
  8
1
 10
1.86448315382004
 20
14.9760783672333
 30
0.0
 70
     0
  0
VERTEX
  8
1
 10
1.8449983254075
 20
15.0628962874413
 30
0.0
 70
     0
  0
VERTEX
  8
1
 10
1.82297704964876
 20
15.1535763144493
 30
0.0
 70
     0
  0
VERTEX
  8
1
 10
1.79827928543091
 20
15.2480594038963
 30
0.0
 70
     0
  0
VERTEX
  8
1
 10
1.77076555937529
 20
15.3462743997574
 30
0.0
 70
     0
  0
VERTEX
  8
1
 10
1.75483304411173
 20
15.4003060460091
 30
0.0
 70
     0
  0
VERTEX
  8
1
 10
1.4853955514729
 20
15.4286216020584
 30
0.0
 70
     0
  0
VERTEX
  8
1
 10
1.45857748910785
 20
15.3790864109993
 30
0.0
 70
     0
  0
VERTEX
  8
1
 10
1.41124501228333
 20
15.2887364268303
 30
0.0
 70
     0
  0
VERTEX
  8
1
 10
1.36744299083948
 20
15.2014537215233
 30
0.0
 70
     0
  0
VERTEX
  8
1
 10
1.32704964578152
 20
15.1173321604729
 30
0.0
 70
     0
  0
VERTEX
  8
1
 10
1.28994017019868
 20
15.0364625811577
 30
0.0
 70
     0
  0
VERTEX
  8
1
 10
1.2559887163341
 20
14.9589358210564
 30
0.0
 70
     0
  0
VERTEX
  8
1
 10
1.22506678700447
 20
14.8848321199417
 30
0.0
 70
     0
  0
VERTEX
  8
1
 10
1.19704342484474
 20
14.8142347455025
 30
0.0
 70
     0
  0
VERTEX
  8
1
 10
1.17178710475564
 20
14.7472209095955
 30
0.0
 70
     0
  0
VERTEX
  8
1
 10
1.15364780649543
 20
14.6966032385826
 30
0.0
 42
-0.000043633302196
 70
     0
  0
VERTEX
  8
1
 10
0.902928511798382
 20
14.7141348719597
 30
0.0
 70
     0
  0
VERTEX
  8
1
 10
0.892010414600372
 20
14.7667842745781
 30
0.0
 70
     0
  0
VERTEX
  8
1
 10
0.876326093822718
 20
14.8366625189781
 30
0.0
 70
     0
  0
VERTEX
  8
1
 10
0.858400831371546
 20
14.9104725122452
 30
0.0
 70
     0
  0
VERTEX
  8
1
 10
0.838092504441738
 20
14.9881567239761
 30
0.0
 70
     0
  0
VERTEX
  8
1
 10
0.815261166542768
 20
15.0696561098099
 30
0.0
 70
     0
  0
VERTEX
  8
1
 10
0.789767628163099
 20
15.1549025416374
 30
0.0
 70
     0
  0
VERTEX
  8
1
 10
0.761474497616291
 20
15.2438263773918
 30
0.0
 70
     0
  0
VERTEX
  8
1
 10
0.730246086418629
 20
15.3363564610481
 30
0.0
 70
     0
  0
VERTEX
  8
1
 10
0.695948314666748
 20
15.4324125528336
 30
0.0
 70
     0
  0
VERTEX
  8
1
 10
0.676285454258323
 20
15.4852027535439
 30
0.0
 70
     0
  0
VERTEX
  8
1
 10
0.405529020354152
 20
15.4946543931961
 30
0.0
 70
     0
  0
VERTEX
  8
1
 10
0.382231880165637
 20
15.4433690667152
 30
0.0
 70
     0
  0
VERTEX
  8
1
 10
0.341317165829241
 20
15.3499366641045
 30
0.0
 70
     0
  0
VERTEX
  8
1
 10
0.303710449673235
 20
15.2598107457161
 30
0.0
 70
     0
  0
VERTEX
  8
1
 10
0.269283352792263
 20
15.1730760931969
 30
0.0
 70
     0
  0
VERTEX
  8
1
 10
0.237905509211123
 20
15.0898144602776
 30
0.0
 70
     0
  0
VERTEX
  8
1
 10
0.20944484975189
 20
15.0101091146469
 30
0.0
 70
     0
  0
VERTEX
  8
1
 10
0.183767341822386
 20
14.9340296983719
 30
0.0
 70
     0
  0
VERTEX
  8
1
 10
0.160736918449402
 20
14.8616473674774
 30
0.0
 70
     0
  0
VERTEX
  8
1
 10
0.14021675568074
 20
14.7930363059044
 30
0.0
 70
     0
  0
VERTEX
  8
1
 10
0.125652574561536
 20
14.7412771105766
 30
0.0
 42
-0.000043633292703
 70
     0
  0
VERTEX
  8
1
 10
-0.125678855925798
 20
14.7412755966187
 30
0.0
 70
     0
  0
VERTEX
  8
1
 10
-0.140243249945343
 20
14.7930363059044
 30
0.0
 70
     0
  0
VERTEX
  8
1
 10
-0.160763720236719
 20
14.8616488814354
 30
0.0
 70
     0
  0
VERTEX
  8
1
 10
-0.183794072642922
 20
14.9340296983719
 30
0.0
 70
     0
  0
VERTEX
  8
1
 10
-0.20947188809514
 20
15.0101091146469
 30
0.0
 70
     0
  0
VERTEX
  8
1
 10
-0.237932807765901
 20
15.0898159742355
 30
0.0
 70
     0
  0
VERTEX
  8
1
 10
-0.269310651347041
 20
15.1730760931969
 30
0.0
 70
     0
  0
VERTEX
  8
1
 10
-0.303737890161574
 20
15.2598107457161
 30
0.0
 70
     0
  0
VERTEX
  8
1
 10
-0.341344842873514
 20
15.3499366641045
 30
0.0
 70
     0
  0
VERTEX
  8
1
 10
-0.382259604521096
 20
15.4433660387993
 30
0.0
 70
     0
  0
VERTEX
  8
1
 10
-0.405556981265545
 20
15.4946543931961
 30
0.0
 70
     0
  0
VERTEX
  8
1
 10
-0.676313178613782
 20
15.4851966977119
 30
0.0
 70
     0
  0
VERTEX
  8
1
 10
-0.69597599171102
 20
15.4324095249176
 30
0.0
 70
     0
  0
VERTEX
  8
1
 10
-0.730273621529341
 20
15.3363534331322
 30
0.0
 70
     0
  0
VERTEX
  8
1
 10
-0.761501890793443
 20
15.2438233494759
 30
0.0
 70
     0
  0
VERTEX
  8
1
 10
-0.789794832095504
 20
15.1548995137215
 30
0.0
 70
     0
  0
VERTEX
  8
1
 10
-0.815288228541613
 20
15.0696515679359
 30
0.0
 70
     0
  0
VERTEX
  8
1
 10
-0.838119566440582
 20
14.9881536960602
 30
0.0
 70
     0
  0
VERTEX
  8
1
 10
-0.858427420258522
 20
14.9104694843292
 30
0.0
 70
     0
  0
VERTEX
  8
1
 10
-0.876352777332067
 20
14.8366579771042
 30
0.0
 70
     0
  0
VERTEX
  8
1
 10
-0.892036814242601
 20
14.7667812466621
 30
0.0
 70
     0
  0
VERTEX
  8
1
 10
-0.902954816818237
 20
14.7141303300858
 30
0.0
 42
-0.000043633293117
 70
     0
  0
VERTEX
  8
1
 10
-1.15367401689291
 20
14.6965986967087
 30
0.0
 70
     0
  0
VERTEX
  8
1
 10
-1.17181359902024
 20
14.7472163677216
 30
0.0
 70
     0
  0
VERTEX
  8
1
 10
-1.19707029759884
 20
14.8142332315445
 30
0.0
 70
     0
  0
VERTEX
  8
1
 10
-1.22509347051382
 20
14.8848290920258
 30
0.0
 70
     0
  0
VERTEX
  8
1
 10
-1.25601577833295
 20
14.9589312791824
 30
0.0
 70
     0
  0
VERTEX
  8
1
 10
-1.28996751606464
 20
15.0364595532417
 30
0.0
 70
     0
  0
VERTEX
  8
1
 10
-1.32707689702511
 20
15.1173276185989
 30
0.0
 70
     0
  0
VERTEX
  8
1
 10
-1.36747062057257
 20
15.2014491796494
 30
0.0
 70
     0
  0
VERTEX
  8
1
 10
-1.41127283126116
 20
15.2887318849564
 30
0.0
 70
     0
  0
VERTEX
  8
1
 10
-1.45860521346331
 20
15.3790803551674
 30
0.0
 70
     0
  0
VERTEX
  8
1
 10
-1.48542355969548
 20
15.4286200881004
 30
0.0
 70
     0
  0
VERTEX
  8
1
 10
-1.75486067384481
 20
15.4002984762192
 30
0.0
 70
     0
  0
VERTEX
  8
1
 10
-1.77079337835312
 20
15.3462683439255
 30
0.0
 70
     0
  0
VERTEX
  8
1
 10
-1.79830672591925
 20
15.2480518341064
 30
0.0
 70
     0
  0
VERTEX
  8
1
 10
-1.82300430089235
 20
15.1535687446594
 30
0.0
 70
     0
  0
VERTEX
  8
1
 10
-1.8450251981616
 20
15.0628887176514
 30
0.0
 70
     0
  0
VERTEX
  8
1
 10
-1.86451002657413
 20
14.9760692834854
 30
0.0
 70
     0
  0
VERTEX
  8
1
 10
-1.88160053044558
 20
14.8931770563126
 30
0.0
 70
     0
  0
VERTEX
  8
1
 10
-1.89643996804953
 20
14.81426653862
 30
0.0
 70
     0
  0
VERTEX
  8
1
 10
-1.90917273312807
 20
14.739384663105
 30
0.0
 70
     0
  0
VERTEX
  8
1
 10
-1.91994435489178
 20
14.6685844182968
 30
0.0
 70
     0
  0
VERTEX
  8
1
 10
-1.92716309577227
 20
14.6153006672859
 30
0.0
 42
-0.000043633321159
 70
     0
  0
VERTEX
  8
1
 10
-2.17604851424694
 20
14.5803206682205
 30
0.0
 70
     0
  0
VERTEX
  8
1
 10
-2.1976750254631
 20
14.6295515537262
 30
0.0
 70
     0
  0
VERTEX
  8
1
 10
-2.22754484862089
 20
14.694641149044
 30
0.0
 70
     0
  0
VERTEX
  8
1
 10
-2.26042442023754
 20
14.7631114125252
 30
0.0
 70
     0
  0
VERTEX
  8
1
 10
-2.29644053429365
 20
14.8348760485649
 30
0.0
 70
     0
  0
VERTEX
  8
1
 10
-2.33571771383286
 20
14.9098472476006
 30
0.0
 70
     0
  0
VERTEX
  8
1
 10
-2.37837764322758
 20
14.9879311442375
 30
0.0
 70
     0
  0
VERTEX
  8
1
 10
-2.42454087138176
 20
15.0690293312073
 30
0.0
 70
     0
  0
VERTEX
  8
1
 10
-2.47432510852814
 20
15.1530434012413
 30
0.0
 70
     0
  0
VERTEX
  8
1
 10
-2.52784446924925
 20
15.2398704051971
 30
0.0
 70
     0
  0
VERTEX
  8
1
 10
-2.5580532297492
 20
15.2874177694321
 30
0.0
 70
     0
  0
VERTEX
  8
1
 10
-2.82485823333263
 20
15.2403684973717
 30
0.0
 70
     0
  0
VERTEX
  8
1
 10
-2.83698314428329
 20
15.1853603482246
 30
0.0
 70
     0
  0
VERTEX
  8
1
 10
-2.85757846087217
 20
15.0854633450508
 30
0.0
 70
     0
  0
VERTEX
  8
1
 10
-2.87562502920628
 20
14.9894890069962
 30
0.0
 70
     0
  0
VERTEX
  8
1
 10
-2.89126686453819
 20
14.8974933505058
 30
0.0
 70
     0
  0
VERTEX
  8
1
 10
-2.90464779287577
 20
14.8095278501511
 30
0.0
 70
     0
  0
VERTEX
  8
1
 10
-2.91591447889805
 20
14.7256439805031
 30
0.0
 70
     0
  0
VERTEX
  8
1
 10
-2.92521320879459
 20
14.6458886742592
 30
0.0
 70
     0
  0
VERTEX
  8
1
 10
-2.93269159346819
 20
14.5703012943268
 30
0.0
 70
     0
  0
VERTEX
  8
1
 10
-2.93849819004536
 20
14.4989242315292
 30
0.0
 70
     0
  0
VERTEX
  8
1
 10
-2.94198237508535
 20
14.44526501894
 30
0.0
 42
-0.000043633232001
 70
     0
  0
VERTEX
  8
1
 10
-3.18782133162022
 20
14.3930107593536
 30
0.0
 70
     0
  0
VERTEX
  8
1
 10
-3.21282964646816
 20
14.4406126260757
 30
0.0
 70
     0
  0
VERTEX
  8
1
 10
-3.24716734886169
 20
14.5034600496292
 30
0.0
 70
     0
  0
VERTEX
  8
1
 10
-3.28474302887917
 20
14.5694701313972
 30
0.0
 70
     0
  0
VERTEX
  8
1
 10
-3.32567704617977
 20
14.6385459780693
 30
0.0
 70
     0
  0
VERTEX
  8
1
 10
-3.37008862495422
 20
14.7105967521667
 30
0.0
 70
     0
  0
VERTEX
  8
1
 10
-3.41809169054031
 20
14.7855134487152
 30
0.0
 70
     0
  0
VERTEX
  8
1
 10
-3.46979941129684
 20
14.8631931185722
 30
0.0
 70
     0
  0
VERTEX
  8
1
 10
-3.52532268464565
 20
14.9435312986374
 30
0.0
 70
     0
  0
VERTEX
  8
1
 10
-3.58476862311363
 20
15.0264129281044
 30
0.0
 70
     0
  0
VERTEX
  8
1
 10
-3.61822066009045
 20
15.0717362880707
 30
0.0
 70
     0
  0
VERTEX
  8
1
 10
-3.8810937255621
 20
15.0061925053597
 30
0.0
 70
     0
  0
VERTEX
  8
1
 10
-3.88935198783875
 20
14.9504712820053
 30
0.0
 70
     0
  0
VERTEX
  8
1
 10
-3.90292840600014
 20
14.8493812799454
 30
0.0
 70
     0
  0
VERTEX
  8
1
 10
-3.91423615813255
 20
14.7523804783821
 30
0.0
 70
     0
  0
VERTEX
  8
1
 10
-3.92342247664928
 20
14.6595188379288
 30
0.0
 70
     0
  0
VERTEX
  8
1
 10
-3.93063459396362
 20
14.5708326935768
 30
0.0
 70
     0
  0
VERTEX
  8
1
 10
-3.93602277040482
 20
14.4863689780235
 30
0.0
 70
     0
  0
VERTEX
  8
1
 10
-3.93973537385464
 20
14.4061609983444
 30
0.0
 70
     0
  0
VERTEX
  8
1
 10
-3.94192266464233
 20
14.3302344918251
 30
0.0
 70
     0
  0
VERTEX
  8
1
 10
-3.94273603856564
 20
14.258625793457
 30
0.0
 70
     0
  0
VERTEX
  8
1
 10
-3.94246844649315
 20
14.2048560619354
 30
0.0
 42
-0.000043633380748
 70
     0
  0
VERTEX
  8
1
 10
-4.1840639680624
 20
14.1355788588524
 30
0.0
 70
     0
  0
VERTEX
  8
1
 10
-4.21233183443546
 20
14.1813200712204
 30
0.0
 70
     0
  0
VERTEX
  8
1
 10
-4.25096955597401
 20
14.2416195034981
 30
0.0
 70
     0
  0
VERTEX
  8
1
 10
-4.29305872321129
 20
14.3048484444618
 30
0.0
 70
     0
  0
VERTEX
  8
1
 10
-4.33871174752712
 20
14.3709024310112
 30
0.0
 70
     0
  0
VERTEX
  8
1
 10
-4.38804066181183
 20
14.4396770000458
 30
0.0
 70
     0
  0
VERTEX
  8
1
 10
-4.4411525785923
 20
14.5110631465912
 30
0.0
 70
     0
  0
VERTEX
  8
1
 10
-4.49815347492695
 20
14.5849458098412
 30
0.0
 70
     0
  0
VERTEX
  8
1
 10
-4.55914554297924
 20
14.6612159848213
 30
0.0
 70
     0
  0
VERTEX
  8
1
 10
-4.62422794699669
 20
14.7397495269775
 30
0.0
 70
     0
  0
VERTEX
  8
1
 10
-4.6607605099678
 20
14.7826308727264
 30
0.0
 70
     0
  0
VERTEX
  8
1
 10
-4.91842063963413
 20
14.6989074826241
 30
0.0
 70
     0
  0
VERTEX
  8
1
 10
-4.92277213335037
 20
14.6427456974983
 30
0.0
 70
     0
  0
VERTEX
  8
1
 10
-4.92926398515701
 20
14.5409562468529
 30
0.0
 70
     0
  0
VERTEX
  8
1
 10
-4.93377747237682
 20
14.4434028506279
 30
0.0
 70
     0
  0
VERTEX
  8
1
 10
-4.93646399080753
 20
14.3501263856888
 30
0.0
 70
     0
  0
VERTEX
  8
1
 10
-4.93747228682041
 20
14.2611525893211
 30
0.0
 70
     0
  0
VERTEX
  8
1
 10
-4.93695489168167
 20
14.1765193104744
 30
0.0
 70
     0
  0
VERTEX
  8
1
 10
-4.93506357967853
 20
14.0962462306023
 30
0.0
 70
     0
  0
VERTEX
  8
1
 10
-4.93194936811924
 20
14.0203530311584
 30
0.0
 70
     0
  0
VERTEX
  8
1
 10
-4.92776516675949
 20
13.9488609075546
 30
0.0
 70
     0
  0
VERTEX
  8
1
 10
-4.92374787926674
 20
13.8952410578728
 30
0.0
 42
-0.000043633286825
 70
     0
  0
VERTEX
  8
1
 10
-5.1599219173193
 20
13.8092800378799
 30
0.0
 70
     0
  0
VERTEX
  8
1
 10
-5.19131156504154
 20
13.8529380440712
 30
0.0
 70
     0
  0
VERTEX
  8
1
 10
-5.23406157493591
 20
13.9103957772255
 30
0.0
 70
     0
  0
VERTEX
  8
1
 10
-5.28045833110809
 20
13.9705332159996
 30
0.0
 70
     0
  0
VERTEX
  8
1
 10
-5.33060818910599
 20
14.0332428693771
 30
0.0
 70
     0
  0
VERTEX
  8
1
 10
-5.38461485505104
 20
14.0984081625938
 30
0.0
 70
     0
  0
VERTEX
  8
1
 10
-5.44257711470127
 20
14.1659170627594
 30
0.0
 70
     0
  0
VERTEX
  8
1
 10
-5.50459261834621
 20
14.2356439113617
 30
0.0
 70
     0
  0
VERTEX
  8
1
 10
-5.57075636684895
 20
14.3074721336365
 30
0.0
 70
     0
  0
VERTEX
  8
1
 10
-5.64115881919861
 20
14.3812730431557
 30
0.0
 70
     0
  0
VERTEX
  8
1
 10
-5.6805932611227
 20
14.4215019345284
 30
0.0
 70
     0
  0
VERTEX
  8
1
 10
-5.93178576231003
 20
14.3200107336044
 30
0.0
 70
     0
  0
VERTEX
  8
1
 10
-5.93220891356468
 20
14.2636824131012
 30
0.0
 70
     0
  0
VERTEX
  8
1
 10
-5.93158440589905
 20
14.1616870641708
 30
0.0
 70
     0
  0
VERTEX
  8
1
 10
-5.92928205430508
 20
14.064057970047
 30
0.0
 70
     0
  0
VERTEX
  8
1
 10
-5.92545476853847
 20
13.9708193540573
 30
0.0
 70
     0
  0
VERTEX
  8
1
 10
-5.92025470137596
 20
13.8819939255714
 30
0.0
 70
     0
  0
VERTEX
  8
1
 10
-5.91383514106274
 20
13.7976028800011
 30
0.0
 70
     0
  0
VERTEX
  8
1
 10
-5.90634824037552
 20
13.717656815052
 30
0.0
 70
     0
  0
VERTEX
  8
1
 10
-5.897947666049
 20
13.6421663284302
 30
0.0
 70
     0
  0
VERTEX
  8
1
 10
-5.88878708481789
 20
13.5711389899254
 30
0.0
 70
     0
  0
VERTEX
  8
1
 10
-5.88103864789009
 20
13.5179294228554
 30
0.0
 42
-0.000043633275203
 70
     0
  0
VERTEX
  8
1
 10
-6.1106413513422
 20
13.4157039523125
 30
0.0
 70
     0
  0
VERTEX
  8
1
 10
-6.14500062763691
 20
13.4570667982101
 30
0.0
 70
     0
  0
VERTEX
  8
1
 10
-6.19165437817573
 20
13.5114012360573
 30
0.0
 70
     0
  0
VERTEX
  8
1
 10
-6.24213352203369
 20
13.5681564927101
 30
0.0
 70
     0
  0
VERTEX
  8
1
 10
-6.29653570950031
 20
13.6272129654884
 30
0.0
 70
     0
  0
VERTEX
  8
1
 10
-6.35495594143867
 20
13.688455593586
 30
0.0
 70
     0
  0
VERTEX
  8
1
 10
-6.4174861907959
 20
13.7517541766167
 30
0.0
 70
     0
  0
VERTEX
  8
1
 10
-6.48421464562416
 20
13.8169860839844
 30
0.0
 70
     0
  0
VERTEX
  8
1
 10
-6.55522835850716
 20
13.884025657177
 30
0.0
 70
     0
  0
VERTEX
  8
1
 10
-6.63060681223869
 20
13.9527351260185
 30
0.0
 70
     0
  0
VERTEX
  8
1
 10
-6.67275161743164
 20
13.9901147484779
 30
0.0
 70
     0
  0
VERTEX
  8
1
 10
-6.91625283360481
 20
13.8713477730751
 30
0.0
 70
     0
  0
VERTEX
  8
1
 10
-6.91274499297142
 20
13.8151269435883
 30
0.0
 70
     0
  0
VERTEX
  8
1
 10
-6.90500715374947
 20
13.7134253025055
 30
0.0
 70
     0
  0
VERTEX
  8
1
 10
-6.89589993953705
 20
13.6161928653717
 30
0.0
 70
     0
  0
VERTEX
  8
1
 10
-6.88557853102684
 20
13.5234493136406
 30
0.0
 70
     0
  0
VERTEX
  8
1
 10
-6.87419508099556
 20
13.4352022171021
 30
0.0
 70
     0
  0
VERTEX
  8
1
 10
-6.86190401315689
 20
13.3514636874199
 30
0.0
 70
     0
  0
VERTEX
  8
1
 10
-6.84885899424553
 20
13.2722352385521
 30
0.0
 70
     0
  0
VERTEX
  8
1
 10
-6.83521217703819
 20
13.1975153565407
 30
0.0
 70
     0
  0
VERTEX
  8
1
 10
-6.82111949920654
 20
13.1272994995117
 30
0.0
 70
     0
  0
VERTEX
  8
1
 10
-6.80967851877212
 20
13.0747606158257
 30
0.0
 42
-0.000043633146945
 70
     0
  0
VERTEX
  8
1
 10
-7.03159069418907
 20
12.9567687869072
 30
0.0
 70
     0
  0
VERTEX
  8
1
 10
-7.06875230669975
 20
12.9956336021423
 30
0.0
 70
     0
  0
VERTEX
  8
1
 10
-7.11908232569694
 20
13.0465828299522
 30
0.0
 70
     0
  0
VERTEX
  8
1
 10
-7.17339708209038
 20
13.099675822258
 30
0.0
 70
     0
  0
VERTEX
  8
1
 10
-7.2317866563797
 20
13.1547944903374
 30
0.0
 70
     0
  0
VERTEX
  8
1
 10
-7.29433658719063
 20
13.2118116617203
 30
0.0
 70
     0
  0
VERTEX
  8
1
 10
-7.36113014221191
 20
13.2705941081047
 30
0.0
 70
     0
  0
VERTEX
  8
1
 10
-7.43224680423737
 20
13.3310131430626
 30
0.0
 70
     0
  0
VERTEX
  8
1
 10
-7.50776378512382
 20
13.392934024334
 30
0.0
 70
     0
  0
VERTEX
  8
1
 10
-7.58775224089622
 20
13.4562204957008
 30
0.0
 70
     0
  0
VERTEX
  8
1
 10
-7.63240113258362
 20
13.4905691742897
 30
0.0
 70
     0
  0
VERTEX
  8
1
 10
-7.86702449917793
 20
13.3551047563553
 30
0.0
 70
     0
  0
VERTEX
  8
1
 10
-7.85960383415222
 20
13.2992669582367
 30
0.0
 70
     0
  0
VERTEX
  8
1
 10
-7.84479051232338
 20
13.1983525753021
 30
0.0
 70
     0
  0
VERTEX
  8
1
 10
-7.82892271876335
 20
13.1019921779633
 30
0.0
 70
     0
  0
VERTEX
  8
1
 10
-7.8121563911438
 20
13.010194849968
 30
0.0
 70
     0
  0
VERTEX
  8
1
 10
-7.79464443922043
 20
12.9229560494423
 30
0.0
 70
     0
  0
VERTEX
  8
1
 10
-7.77654204368591
 20
12.8402803182602
 30
0.0
 70
     0
  0
VERTEX
  8
1
 10
-7.75800211429596
 20
12.7621540307999
 30
0.0
 70
     0
  0
VERTEX
  8
1
 10
-7.73917680382729
 20
12.6885681033134
 30
0.0
 70
     0
  0
VERTEX
  8
1
 10
-7.72022053599358
 20
12.6195066392422
 30
0.0
 70
     0
  0
VERTEX
  8
1
 10
-7.70514227151871
 20
12.5678942978382
 30
0.0
 42
-0.000043633314974
 70
     0
  0
VERTEX
  8
1
 10
-7.9182833313942
 20
12.4347083866596
 30
0.0
 70
     0
  0
VERTEX
  8
1
 10
-7.9580640912056
 20
12.470887440443
 30
0.0
 70
     0
  0
VERTEX
  8
1
 10
-8.01182625293732
 20
12.5182008981705
 30
0.0
 70
     0
  0
VERTEX
  8
1
 10
-8.06971319317818
 20
12.567377281189
 30
0.0
 70
     0
  0
VERTEX
  8
1
 10
-8.13180439472198
 20
12.6182894170284
 30
0.0
 70
     0
  0
VERTEX
  8
1
 10
-8.19817934036255
 20
12.6708033204079
 30
0.0
 70
     0
  0
VERTEX
  8
1
 10
-8.26891070008278
 20
12.7247850060463
 30
0.0
 70
     0
  0
VERTEX
  8
1
 10
-8.34406887292862
 20
12.7800944328308
 30
0.0
 70
     0
  0
VERTEX
  8
1
 10
-8.42372123003006
 20
12.8365968585014
 30
0.0
 70
     0
  0
VERTEX
  8
1
 10
-8.50792908668518
 20
12.8941484570503
 30
0.0
 70
     0
  0
VERTEX
  8
1
 10
-8.55486556887627
 20
12.9252981424332
 30
0.0
 70
     0
  0
VERTEX
  8
1
 10
-8.77946729063988
 20
12.7737993955612
 30
0.0
 70
     0
  0
VERTEX
  8
1
 10
-8.7681701362133
 20
12.7186141133308
 30
0.0
 70
     0
  0
VERTEX
  8
1
 10
-8.74635248780251
 20
12.6189775109291
 30
0.0
 70
     0
  0
VERTEX
  8
1
 10
-8.7238020837307
 20
12.5239599943161
 30
0.0
 70
     0
  0
VERTEX
  8
1
 10
-8.70067334771156
 20
12.4335555076599
 30
0.0
 70
     0
  0
VERTEX
  8
1
 10
-8.67711918950081
 20
12.3477519392967
 30
0.0
 70
     0
  0
VERTEX
  8
1
 10
-8.65329327583313
 20
12.2665386915207
 30
0.0
 70
     0
  0
VERTEX
  8
1
 10
-8.62934927344322
 20
12.1898975968361
 30
0.0
 70
     0
  0
VERTEX
  8
1
 10
-8.60543630719185
 20
12.1178029179573
 30
0.0
 70
     0
  0
VERTEX
  8
1
 10
-8.58170804381371
 20
12.0502334594727
 30
0.0
 70
     0
  0
VERTEX
  8
1
 10
-8.56306667923927
 20
11.9997974634171
 30
0.0
 42
-0.000043633167128
 70
     0
  0
VERTEX
  8
1
 10
-8.76639729142189
 20
11.8520684719086
 30
0.0
 70
     0
  0
VERTEX
  8
1
 10
-8.80860643982887
 20
11.8853831171989
 30
0.0
 70
     0
  0
VERTEX
  8
1
 10
-8.86553731560707
 20
11.9288314402103
 30
0.0
 70
     0
  0
VERTEX
  8
1
 10
-8.92671408653259
 20
11.9738512516022
 30
0.0
 70
     0
  0
VERTEX
  8
1
 10
-8.9922056376934
 20
12.0203070521355
 30
0.0
 70
     0
  0
VERTEX
  8
1
 10
-9.06208161115646
 20
12.0680633425713
 30
0.0
 70
     0
  0
VERTEX
  8
1
 10
-9.1364063501358
 20
12.1169785678387
 30
0.0
 70
     0
  0
VERTEX
  8
1
 10
-9.21523889899254
 20
12.1669119298458
 30
0.0
 70
     0
  0
VERTEX
  8
1
 10
-9.29863905906677
 20
12.2177203595638
 30
0.0
 70
     0
  0
VERTEX
  8
1
 10
-9.38665603399277
 20
12.2692577600479
 30
0.0
 70
     0
  0
VERTEX
  8
1
 10
-9.43565225601196
 20
12.297057813406
 30
0.0
 70
     0
  0
VERTEX
  8
1
 10
-9.64913849830627
 20
12.1302597641945
 30
0.0
 70
     0
  0
VERTEX
  8
1
 10
-9.63401859998703
 20
12.0759972393513
 30
0.0
 70
     0
  0
VERTEX
  8
1
 10
-9.60530487298965
 20
11.9781251549721
 30
0.0
 70
     0
  0
VERTEX
  8
1
 10
-9.57618086338043
 20
11.884912276268
 30
0.0
 70
     0
  0
VERTEX
  8
1
 10
-9.54680250883102
 20
11.7963411927223
 30
0.0
 70
     0
  0
VERTEX
  8
1
 10
-9.51731969118118
 20
11.7123891949654
 30
0.0
 70
     0
  0
VERTEX
  8
1
 10
-9.48788759112358
 20
11.6330358445644
 30
0.0
 70
     0
  0
VERTEX
  8
1
 10
-9.45865457653999
 20
11.558251619339
 30
0.0
 70
     0
  0
VERTEX
  8
1
 10
-9.42977128624916
 20
11.4880009412766
 30
0.0
 70
     0
  0
VERTEX
  8
1
 10
-9.40138760209084
 20
11.4222512602806
 30
0.0
 70
     0
  0
VERTEX
  8
1
 10
-9.37927397489548
 20
11.3732383847237
 30
0.0
 42
-0.000043633069363
 70
     0
  0
VERTEX
  8
1
 10
-9.57180401086807
 20
11.2116861999035
 30
0.0
 70
     0
  0
VERTEX
  8
1
 10
-9.61623413562775
 20
11.2419752001762
 30
0.0
 70
     0
  0
VERTEX
  8
1
 10
-9.67605818510055
 20
11.2813456773758
 30
0.0
 70
     0
  0
VERTEX
  8
1
 10
-9.74022426605224
 20
11.3219871222973
 30
0.0
 70
     0
  0
VERTEX
  8
1
 10
-9.80879747867584
 20
11.3637625217438
 30
0.0
 70
     0
  0
VERTEX
  8
1
 10
-9.88183535337448
 20
11.4065280497074
 30
0.0
 70
     0
  0
VERTEX
  8
1
 10
-9.95939163565636
 20
11.4501398801804
 30
0.0
 70
     0
  0
VERTEX
  8
1
 10
-10.0415147721767
 20
11.4944511592388
 30
0.0
 70
     0
  0
VERTEX
  8
1
 10
-10.1282562375069
 20
11.5393195748329
 30
0.0
 70
     0
  0
VERTEX
  8
1
 10
-10.2196538805962
 20
11.584590703249
 30
0.0
 70
     0
  0
VERTEX
  8
1
 10
-10.2704683661461
 20
11.6089063823223
 30
0.0
 70
     0
  0
VERTEX
  8
1
 10
-10.4718005537987
 20
11.4276227831841
 30
0.0
 70
     0
  0
VERTEX
  8
1
 10
-10.4529328525066
 20
11.374546444416
 30
0.0
 70
     0
  0
VERTEX
  8
1
 10
-10.4174608170986
 20
11.2789165318012
 30
0.0
 70
     0
  0
VERTEX
  8
1
 10
-10.3819062709808
 20
11.1879609644413
 30
0.0
 70
     0
  0
VERTEX
  8
1
 10
-10.346420609951
 20
11.1016547620296
 30
0.0
 70
     0
  0
VERTEX
  8
1
 10
-10.3111537158489
 20
11.0199646174908
 30
0.0
 70
     0
  0
VERTEX
  8
1
 10
-10.2762577414513
 20
10.9428587377071
 30
0.0
 70
     0
  0
VERTEX
  8
1
 10
-10.2418795406818
 20
10.8702947318554
 30
0.0
 70
     0
  0
VERTEX
  8
1
 10
-10.2081659674644
 20
10.8022302091122
 30
0.0
 70
     0
  0
VERTEX
  8
1
 10
-10.1752646327019
 20
10.7386197507381
 30
0.0
 70
     0
  0
VERTEX
  8
1
 10
-10.149785476923
 20
10.6912692010403
 30
0.0
 42
-0.000043633135297
 70
     0
  0
VERTEX
  8
1
 10
-10.3305777966976
 20
10.5166803240776
 30
0.0
 70
     0
  0
VERTEX
  8
1
 10
-10.3770124018192
 20
10.5437968254089
 30
0.0
 70
     0
  0
VERTEX
  8
1
 10
-10.4394359171391
 20
10.5788979411125
 30
0.0
 70
     0
  0
VERTEX
  8
1
 10
-10.5062824606895
 20
10.6149657189846
 30
0.0
 70
     0
  0
VERTEX
  8
1
 10
-10.5776027500629
 20
10.6518548190594
 30
0.0
 70
     0
  0
VERTEX
  8
1
 10
-10.6534452319145
 20
10.689421415329
 30
0.0
 70
     0
  0
VERTEX
  8
1
 10
-10.7338538110256
 20
10.7275171399117
 30
0.0
 70
     0
  0
VERTEX
  8
1
 10
-10.8188693642616
 20
10.7659921109676
 30
0.0
 70
     0
  0
VERTEX
  8
1
 10
-10.908528226614
 20
10.8047002315521
 30
0.0
 70
     0
  0
VERTEX
  8
1
 10
-11.0028614342213
 20
10.8434863209724
 30
0.0
 70
     0
  0
VERTEX
  8
1
 10
-11.0552489221096
 20
10.8641972661018
 30
0.0
 70
     0
  0
VERTEX
  8
1
 10
-11.2434444963932
 20
10.6693107545376
 30
0.0
 70
     0
  0
VERTEX
  8
1
 10
-11.220919829607
 20
10.6176802456379
 30
0.0
 70
     0
  0
VERTEX
  8
1
 10
-11.1788651049137
 20
10.5247565329075
 30
0.0
 70
     0
  0
VERTEX
  8
1
 10
-11.1370510995388
 20
10.436503380537
 30
0.0
 70
     0
  0
VERTEX
  8
1
 10
-11.095632237196
 20
10.3528829395771
 30
0.0
 70
     0
  0
VERTEX
  8
1
 10
-11.0547523438931
 20
10.2738520622253
 30
0.0
 70
     0
  0
VERTEX
  8
1
 10
-11.0145620584488
 20
10.1993683576584
 30
0.0
 70
     0
  0
VERTEX
  8
1
 10
-10.97520596385
 20
10.129378837347
 30
0.0
 70
     0
  0
VERTEX
  8
1
 10
-10.9368263721466
 20
10.0638312697411
 30
0.0
 70
     0
  0
VERTEX
  8
1
 10
-10.8995686233044
 20
10.0026726663113
 30
0.0
 70
     0
  0
VERTEX
  8
1
 10
-10.8708488404751
 20
9.95721456408501
 30
0.0
 42
-0.00004363322848
 70
     0
  0
VERTEX
  8
1
 10
-11.03902156353
 20
9.77043832540512
 30
0.0
 70
     0
  0
VERTEX
  8
1
 10
-11.0872350692749
 20
9.794250613451
 30
0.0
 70
     0
  0
VERTEX
  8
1
 10
-11.1519560158253
 20
9.82491204738617
 30
0.0
 70
     0
  0
VERTEX
  8
1
 10
-11.2211544930935
 20
9.85622826814651
 30
0.0
 70
     0
  0
VERTEX
  8
1
 10
-11.2948736488819
 20
9.88805317878723
 30
0.0
 70
     0
  0
VERTEX
  8
1
 10
-11.3731528460979
 20
9.92023765444755
 30
0.0
 70
     0
  0
VERTEX
  8
1
 10
-11.4560238778591
 20
9.95263105630875
 30
0.0
 70
     0
  0
VERTEX
  8
1
 10
-11.543515509367
 20
9.98508274555206
 30
0.0
 70
     0
  0
VERTEX
  8
1
 10
-11.6356565058231
 20
10.0174413263798
 30
0.0
 70
     0
  0
VERTEX
  8
1
 10
-11.7324650347233
 20
10.0495531320572
 30
0.0
 70
     0
  0
VERTEX
  8
1
 10
-11.7861696660519
 20
10.0665586650372
 30
0.0
 70
     0
  0
VERTEX
  8
1
 10
-11.9603126823902
 20
9.85902000665665
 30
0.0
 70
     0
  0
VERTEX
  8
1
 10
-11.9342408120632
 20
9.8090866446495
 30
0.0
 70
     0
  0
VERTEX
  8
1
 10
-11.8858062684536
 20
9.7193233191967
 30
0.0
 70
     0
  0
VERTEX
  8
1
 10
-11.8379387021065
 20
9.63420178890228
 30
0.0
 70
     0
  0
VERTEX
  8
1
 10
-11.7907864809036
 20
9.55367436408996
 30
0.0
 70
     0
  0
VERTEX
  8
1
 10
-11.7444934308529
 20
9.47768729925156
 30
0.0
 70
     0
  0
VERTEX
  8
1
 10
-11.6992064058781
 20
9.40618760585785
 30
0.0
 70
     0
  0
VERTEX
  8
1
 10
-11.6550639331341
 20
9.33911472558975
 30
0.0
 70
     0
  0
VERTEX
  8
1
 10
-11.6122052967548
 20
9.27640431523323
 30
0.0
 70
     0
  0
VERTEX
  8
1
 10
-11.5707720518112
 20
9.21799278855324
 30
0.0
 70
     0
  0
VERTEX
  8
1
 10
-11.5389509260654
 20
9.17464892864227
 30
0.0
 42
-0.000043633070724
 70
     0
  0
VERTEX
  8
1
 10
-11.6936850011349
 20
8.97659748792648
 30
0.0
 70
     0
  0
VERTEX
  8
1
 10
-11.7434412300587
 20
8.99698747396469
 30
0.0
 70
     0
  0
VERTEX
  8
1
 10
-11.8101431906223
 20
9.02306010127067
 30
0.0
 70
     0
  0
VERTEX
  8
1
 10
-11.8813575029373
 20
9.04947336912155
 30
0.0
 70
     0
  0
VERTEX
  8
1
 10
-11.9571182310581
 20
9.07607815265655
 30
0.0
 70
     0
  0
VERTEX
  8
1
 10
-12.0374511122704
 20
9.10272381305695
 30
0.0
 70
     0
  0
VERTEX
  8
1
 10
-12.1223788559437
 20
9.12925744056702
 30
0.0
 70
     0
  0
VERTEX
  8
1
 10
-12.2119219005108
 20
9.15552688241005
 30
0.0
 70
     0
  0
VERTEX
  8
1
 10
-12.3060953855515
 20
9.18137998580933
 30
0.0
 70
     0
  0
VERTEX
  8
1
 10
-12.4049091517925
 20
9.20665929913521
 30
0.0
 70
     0
  0
VERTEX
  8
1
 10
-12.4596690118313
 20
9.21987766623497
 30
0.0
 70
     0
  0
VERTEX
  8
1
 10
-12.6189101397991
 20
9.00069591403008
 30
0.0
 70
     0
  0
VERTEX
  8
1
 10
-12.5894189953804
 20
8.95270344614983
 30
0.0
 70
     0
  0
VERTEX
  8
1
 10
-12.5348408102989
 20
8.86653728485107
 30
0.0
 70
     0
  0
VERTEX
  8
1
 10
-12.4811513185501
 20
8.78496220111847
 30
0.0
 70
     0
  0
VERTEX
  8
1
 10
-12.4284973740578
 20
8.70791990756988
 30
0.0
 70
     0
  0
VERTEX
  8
1
 10
-12.3770167469978
 20
8.63534757494926
 30
0.0
 70
     0
  0
VERTEX
  8
1
 10
-12.3268517494202
 20
8.56718086004257
 30
0.0
 70
     0
  0
VERTEX
  8
1
 10
-12.2781378805637
 20
8.50335087776184
 30
0.0
 70
     0
  0
VERTEX
  8
1
 10
-12.2310098826885
 20
8.44378344416618
 30
0.0
 70
     0
  0
VERTEX
  8
1
 10
-12.1856017410755
 20
8.38840361833572
 30
0.0
 70
     0
  0
VERTEX
  8
1
 10
-12.1508352100849
 20
8.34738519787788
 30
0.0
 42
-0.00004363315357
 70
     0
  0
VERTEX
  8
1
 10
-12.2913774430752
 20
8.13902218937874
 30
0.0
 70
     0
  0
VERTEX
  8
1
 10
-12.3424356758595
 20
8.15589222311974
 30
0.0
 70
     0
  0
VERTEX
  8
1
 10
-12.4107939064503
 20
8.17724811434746
 30
0.0
 70
     0
  0
VERTEX
  8
1
 10
-12.4836773574352
 20
8.19862898588181
 30
0.0
 70
     0
  0
VERTEX
  8
1
 10
-12.561109495163
 20
8.21988344192505
 30
0.0
 70
     0
  0
VERTEX
  8
1
 10
-12.6431054592133
 20
8.24086084365845
 30
0.0
 70
     0
  0
VERTEX
  8
1
 10
-12.7296766042709
 20
8.26140601038933
 30
0.0
 70
     0
  0
VERTEX
  8
1
 10
-12.8208350419998
 20
8.281365275383
 30
0.0
 70
     0
  0
VERTEX
  8
1
 10
-12.9165822863579
 20
8.30058572888374
 30
0.0
 70
     0
  0
VERTEX
  8
1
 10
-13.0169183373451
 20
8.31891143321991
 30
0.0
 70
     0
  0
VERTEX
  8
1
 10
-13.0724669694901
 20
8.32827753424644
 30
0.0
 70
     0
  0
VERTEX
  8
1
 10
-13.216031062603
 20
8.09852229952812
 30
0.0
 70
     0
  0
VERTEX
  8
1
 10
-13.1832644701004
 20
8.05270311832428
 30
0.0
 70
     0
  0
VERTEX
  8
1
 10
-13.1228075861931
 20
7.97055424451828
 30
0.0
 70
     0
  0
VERTEX
  8
1
 10
-13.0635588407516
 20
7.89292302131653
 30
0.0
 70
     0
  0
VERTEX
  8
1
 10
-13.005659031868
 20
7.81974132061005
 30
0.0
 70
     0
  0
VERTEX
  8
1
 10
-12.9492413878441
 20
7.75093647241592
 30
0.0
 70
     0
  0
VERTEX
  8
1
 10
-12.8944436788559
 20
7.68643580675125
 30
0.0
 70
     0
  0
VERTEX
  8
1
 10
-12.8413945913315
 20
7.62615908384323
 30
0.0
 70
     0
  0
VERTEX
  8
1
 10
-12.7902258396149
 20
7.5700237929821
 30
0.0
 70
     0
  0
VERTEX
  8
1
 10
-12.7410661101341
 20
7.5179474234581
 30
0.0
 70
     0
  0
VERTEX
  8
1
 10
-12.7035229802132
 20
7.4794535279274
 30
0.0
 42
-0.000043633134007
 70
     0
  0
VERTEX
  8
1
 10
-12.8291875481606
 20
7.26179406046867
 30
0.0
 70
     0
  0
VERTEX
  8
1
 10
-12.881299495697
 20
7.2750616312027
 30
0.0
 70
     0
  0
VERTEX
  8
1
 10
-12.950979411602
 20
7.29159708023071
 30
0.0
 70
     0
  0
VERTEX
  8
1
 10
-13.0251769781113
 20
7.30784184932709
 30
0.0
 70
     0
  0
VERTEX
  8
1
 10
-13.1039027929306
 20
7.3236437857151
 30
0.0
 70
     0
  0
VERTEX
  8
1
 10
-13.1871629118919
 20
7.33884997963905
 30
0.0
 70
     0
  0
VERTEX
  8
1
 10
-13.2749573349953
 20
7.35330600738525
 30
0.0
 70
     0
  0
VERTEX
  8
1
 10
-13.3672845482826
 20
7.36685820221901
 30
0.0
 70
     0
  0
VERTEX
  8
1
 10
-13.4641400098801
 20
7.37935289740562
 30
0.0
 70
     0
  0
VERTEX
  8
1
 10
-13.5655100941658
 20
7.39063415527344
 30
0.0
 70
     0
  0
VERTEX
  8
1
 10
-13.621576499939
 20
7.39610257148743
 30
0.0
 70
     0
  0
VERTEX
  8
1
 10
-13.7487625956535
 20
7.15689191222191
 30
0.0
 70
     0
  0
VERTEX
  8
1
 10
-13.7128802776337
 20
7.1134708404541
 30
0.0
 70
     0
  0
VERTEX
  8
1
 10
-13.6468414306641
 20
7.03573969602585
 30
0.0
 70
     0
  0
VERTEX
  8
1
 10
-13.5823210835457
 20
6.96243006587028
 30
0.0
 70
     0
  0
VERTEX
  8
1
 10
-13.5194570064545
 20
6.89346549510956
 30
0.0
 70
     0
  0
VERTEX
  8
1
 10
-13.4583778858185
 20
6.82876423001289
 30
0.0
 70
     0
  0
VERTEX
  8
1
 10
-13.3992139220238
 20
6.76824300289154
 30
0.0
 70
     0
  0
VERTEX
  8
1
 10
-13.3420892596245
 20
6.71181324720383
 30
0.0
 70
     0
  0
VERTEX
  8
1
 10
-13.2871295571327
 20
6.65938412547111
 30
0.0
 70
     0
  0
VERTEX
  8
1
 10
-13.2344574451447
 20
6.61086328625679
 30
0.0
 70
     0
  0
VERTEX
  8
1
 10
-13.1943209052086
 20
6.5750824034214
 30
0.0
 42
-0.000043632981799
 70
     0
  0
VERTEX
  8
1
 10
-13.3044961690903
 20
6.34918814003468
 30
0.0
 70
     0
  0
VERTEX
  8
1
 10
-13.3574044585228
 20
6.3587885260582
 30
0.0
 70
     0
  0
VERTEX
  8
1
 10
-13.428069961071
 20
6.37042253613472
 30
0.0
 70
     0
  0
VERTEX
  8
1
 10
-13.503219807148
 20
6.3814524769783
 30
0.0
 70
     0
  0
VERTEX
  8
1
 10
-13.5828555107117
 20
6.39172468185425
 30
0.0
 70
     0
  0
VERTEX
  8
1
 10
-13.6669740438461
 20
6.40108548402786
 30
0.0
 70
     0
  0
VERTEX
  8
1
 10
-13.7555632948875
 20
6.40938273072243
 30
0.0
 70
     0
  0
VERTEX
  8
1
 10
-13.8486096382141
 20
6.41646048426628
 30
0.0
 70
     0
  0
VERTEX
  8
1
 10
-13.946100962162
 20
6.42216886281967
 30
0.0
 70
     0
  0
VERTEX
  8
1
 10
-14.0480115294456
 20
6.42635117173195
 30
0.0
 70
     0
  0
VERTEX
  8
1
 10
-14.1043231964111
 20
6.42789540886879
 30
0.0
 70
     0
  0
VERTEX
  8
1
 10
-14.2145135998726
 20
6.18039620816708
 30
0.0
 70
     0
  0
VERTEX
  8
1
 10
-14.1756881475449
 20
6.13958330750465
 30
0.0
 70
     0
  0
VERTEX
  8
1
 10
-14.1043882966042
 20
6.06664838194847
 30
0.0
 70
     0
  0
VERTEX
  8
1
 10
-14.0349112510681
 20
5.99801801741123
 30
0.0
 70
     0
  0
VERTEX
  8
1
 10
-13.9673902392387
 20
5.93360705375671
 30
0.0
 70
     0
  0
VERTEX
  8
1
 10
-13.9019448637962
 20
5.8733235180378
 30
0.0
 70
     0
  0
VERTEX
  8
1
 10
-13.8387038111687
 20
5.81707695126534
 30
0.0
 70
     0
  0
VERTEX
  8
1
 10
-13.7777836561203
 20
5.7647693246603
 30
0.0
 70
     0
  0
VERTEX
  8
1
 10
-13.7192994594574
 20
5.71630185246468
 30
0.0
 70
     0
  0
VERTEX
  8
1
 10
-13.6633708238602
 20
5.67157309949398
 30
0.0
 70
     0
  0
VERTEX
  8
1
 10
-13.6208361744881
 20
5.63867971301079
 30
0.0
 42
-0.000043633000418
 70
     0
  0
VERTEX
  8
1
 10
-13.7149846792221
 20
5.40564978718758
 30
0.0
 70
     0
  0
VERTEX
  8
1
 10
-13.7684349656105
 20
5.4115360558033
 30
0.0
 70
     0
  0
VERTEX
  8
1
 10
-13.8397393584251
 20
5.41821336746216
 30
0.0
 70
     0
  0
VERTEX
  8
1
 10
-13.9154751062393
 20
5.42397359907627
 30
0.0
 70
     0
  0
VERTEX
  8
1
 10
-13.9956346392632
 20
5.42866535484791
 30
0.0
 70
     0
  0
VERTEX
  8
1
 10
-14.0801997900009
 20
5.43213610351086
 30
0.0
 70
     0
  0
VERTEX
  8
1
 10
-14.1691523909569
 20
5.43423293530941
 30
0.0
 70
     0
  0
VERTEX
  8
1
 10
-14.2624667048454
 20
5.43480369746685
 30
0.0
 70
     0
  0
VERTEX
  8
1
 10
-14.3601185083389
 20
5.43369699418545
 30
0.0
 70
     0
  0
VERTEX
  8
1
 10
-14.4620714664459
 20
5.43076067268848
 30
0.0
 70
     0
  0
VERTEX
  8
1
 10
-14.5183528542519
 20
5.4283727824688
 30
0.0
 70
     0
  0
VERTEX
  8
1
 10
-14.6110101103783
 20
5.17378977239132
 30
0.0
 70
     0
  0
VERTEX
  8
1
 10
-14.5694337964058
 20
5.13578488528728
 30
0.0
 70
     0
  0
VERTEX
  8
1
 10
-14.4932196378708
 20
5.06800082325935
 30
0.0
 70
     0
  0
VERTEX
  8
1
 10
-14.419125020504
 20
5.00438393056393
 30
0.0
 70
     0
  0
VERTEX
  8
1
 10
-14.3472756028175
 20
4.94483996331692
 30
0.0
 70
     0
  0
VERTEX
  8
1
 10
-14.2777849316597
 20
4.88926900029182
 30
0.0
 70
     0
  0
VERTEX
  8
1
 10
-14.2107741236687
 20
4.83757036328316
 30
0.0
 70
     0
  0
VERTEX
  8
1
 10
-14.1463521838188
 20
4.78963996767998
 30
0.0
 70
     0
  0
VERTEX
  8
1
 10
-14.0846311450005
 20
4.7453699439764
 30
0.0
 70
     0
  0
VERTEX
  8
1
 10
-14.02571849823
 20
4.70465204417706
 30
0.0
 70
     0
  0
VERTEX
  8
1
 10
-13.9809901237488
 20
4.67480587661266
 30
0.0
 42
-0.000043633239286
 70
     0
  0
VERTEX
  8
1
 10
-14.058656167984
 20
4.43577537834644
 30
0.0
 70
     0
  0
VERTEX
  8
1
 10
-14.1123865365982
 20
4.43791952133179
 30
0.0
 70
     0
  0
VERTEX
  8
1
 10
-14.1839816093445
 20
4.43960607051849
 30
0.0
 70
     0
  0
VERTEX
  8
1
 10
-14.2599368810654
 20
4.44006934165955
 30
0.0
 70
     0
  0
VERTEX
  8
1
 10
-14.3402281284332
 20
4.43915831744671
 30
0.0
 70
     0
  0
VERTEX
  8
1
 10
-14.4248296141624
 20
4.43672122359276
 30
0.0
 70
     0
  0
VERTEX
  8
1
 10
-14.5137110590935
 20
4.43260779976845
 30
0.0
 70
     0
  0
VERTEX
  8
1
 10
-14.6068376421928
 20
4.42666816413403
 30
0.0
 70
     0
  0
VERTEX
  8
1
 10
-14.7041745424271
 20
4.41875205636024
 30
0.0
 70
     0
  0
VERTEX
  8
1
 10
-14.8056748270988
 20
4.40871186554432
 30
0.0
 70
     0
  0
VERTEX
  8
1
 10
-14.8616534233093
 20
4.40240358114243
 30
0.0
 70
     0
  0
VERTEX
  8
1
 10
-14.9363263726234
 20
4.14197707176209
 30
0.0
 70
     0
  0
VERTEX
  8
1
 10
-14.8921990394592
 20
4.10696490108967
 30
0.0
 70
     0
  0
VERTEX
  8
1
 10
-14.8114414930344
 20
4.04466250240803
 30
0.0
 70
     0
  0
VERTEX
  8
1
 10
-14.7330896258354
 20
3.98636944293976
 30
0.0
 70
     0
  0
VERTEX
  8
1
 10
-14.6572615265846
 20
3.93198239505291
 30
0.0
 70
     0
  0
VERTEX
  8
1
 10
-14.5840631723404
 20
3.88139386773109
 30
0.0
 70
     0
  0
VERTEX
  8
1
 10
-14.513609623909
 20
3.83449561297894
 30
0.0
 70
     0
  0
VERTEX
  8
1
 10
-14.4460023164749
 20
3.79117597639561
 30
0.0
 70
     0
  0
VERTEX
  8
1
 10
-14.3813441991806
 20
3.75131914019585
 30
0.0
 70
     0
  0
VERTEX
  8
1
 10
-14.3197321653366
 20
3.71480966508389
 30
0.0
 70
     0
  0
VERTEX
  8
1
 10
-14.273032617569
 20
3.68815643489361
 30
0.0
 42
-0.000043633093791
 70
     0
  0
VERTEX
  8
1
 10
-14.3338346838951
 20
3.4442911118269
 30
0.0
 70
     0
  0
VERTEX
  8
1
 10
-14.387583220005
 20
3.44268177449703
 30
0.0
 70
     0
  0
VERTEX
  8
1
 10
-14.4591237902641
 20
3.4393699914217
 30
0.0
 70
     0
  0
VERTEX
  8
1
 10
-14.5349261522293
 20
3.43453403115273
 30
0.0
 70
     0
  0
VERTEX
  8
1
 10
-14.6149554848671
 20
3.42802401185036
 30
0.0
 70
     0
  0
VERTEX
  8
1
 10
-14.6991815090179
 20
3.41969156563282
 30
0.0
 70
     0
  0
VERTEX
  8
1
 10
-14.7875603199005
 20
3.40938832461834
 30
0.0
 70
     0
  0
VERTEX
  8
1
 10
-14.8800464987755
 20
3.39696667790413
 30
0.0
 70
     0
  0
VERTEX
  8
1
 10
-14.9765946269035
 20
3.38228015005589
 30
0.0
 70
     0
  0
VERTEX
  8
1
 10
-15.0771456599236
 20
3.36518377959728
 30
0.0
 70
     0
  0
VERTEX
  8
1
 10
-15.1325489521027
 20
3.35498613715172
 30
0.0
 70
     0
  0
VERTEX
  8
1
 10
-15.188872730732
 20
3.08998520374298
 30
0.0
 70
     0
  0
VERTEX
  8
1
 10
-15.1424108743668
 20
3.05813663750887
 30
0.0
 70
     0
  0
VERTEX
  8
1
 10
-15.0575035691261
 20
3.00161926150322
 30
0.0
 70
     0
  0
VERTEX
  8
1
 10
-14.9752774834633
 20
2.9489337131381
 30
0.0
 70
     0
  0
VERTEX
  8
1
 10
-14.8958385944366
 20
2.89996871650219
 30
0.0
 70
     0
  0
VERTEX
  8
1
 10
-14.8192913651466
 20
2.85460940003395
 30
0.0
 70
     0
  0
VERTEX
  8
1
 10
-14.7457372307777
 20
2.81274013519287
 30
0.0
 70
     0
  0
VERTEX
  8
1
 10
-14.6752730846405
 20
2.77424188703299
 30
0.0
 70
     0
  0
VERTEX
  8
1
 10
-14.6079897642136
 20
2.73899259269237
 30
0.0
 70
     0
  0
VERTEX
  8
1
 10
-14.5439841628075
 20
2.70687000006437
 30
0.0
 70
     0
  0
VERTEX
  8
1
 10
-14.495537507534
 20
2.68353896141052
 30
0.0
 42
-0.000043633143454
 70
     0
  0
VERTEX
  8
1
 10
-14.5391818881035
 20
2.43602632433176
 30
0.0
 70
     0
  0
VERTEX
  8
1
 10
-14.592688190937
 20
2.43067145496607
 30
0.0
 70
     0
  0
VERTEX
  8
1
 10
-14.6638230204582
 20
2.42237742543221
 30
0.0
 70
     0
  0
VERTEX
  8
1
 10
-14.7391015529633
 20
2.41226551085711
 30
0.0
 70
     0
  0
VERTEX
  8
1
 10
-14.8184829115868
 20
2.40018885731697
 30
0.0
 70
     0
  0
VERTEX
  8
1
 10
-14.9019231915474
 20
2.38600155711174
 30
0.0
 70
     0
  0
VERTEX
  8
1
 10
-14.989367890358
 20
2.36955845952034
 30
0.0
 70
     0
  0
VERTEX
  8
1
 10
-15.0807609915733
 20
2.35071536004543
 30
0.0
 70
     0
  0
VERTEX
  8
1
 10
-15.1760495066643
 20
2.32933032512665
 30
0.0
 70
     0
  0
VERTEX
  8
1
 10
-15.2751637935638
 20
2.30526104271412
 30
0.0
 70
     0
  0
VERTEX
  8
1
 10
-15.3297192692757
 20
2.29122400283813
 30
0.0
 70
     0
  0
VERTEX
  8
1
 10
-15.3674213647842
 20
2.02293929457664
 30
0.0
 70
     0
  0
VERTEX
  8
1
 10
-15.3188520789146
 20
1.99440894573927
 30
0.0
 70
     0
  0
VERTEX
  8
1
 10
-15.230209839344
 20
1.94395232200623
 30
0.0
 70
     0
  0
VERTEX
  8
1
 10
-15.1445077061653
 20
1.89713090062141
 30
0.0
 70
     0
  0
VERTEX
  8
1
 10
-15.061847114563
 20
1.85382640361786
 30
0.0
 70
     0
  0
VERTEX
  8
1
 10
-14.9823219299316
 20
1.81391733586788
 30
0.0
 70
     0
  0
VERTEX
  8
1
 10
-14.9060260176659
 20
1.77728106677532
 30
0.0
 70
     0
  0
VERTEX
  8
1
 10
-14.8330487012863
 20
1.74379174858332
 30
0.0
 70
     0
  0
VERTEX
  8
1
 10
-14.7634702205658
 20
1.71332183033228
 30
0.0
 70
     0
  0
VERTEX
  8
1
 10
-14.697378385067
 20
1.6857420578599
 30
0.0
 70
     0
  0
VERTEX
  8
1
 10
-14.6474238276482
 20
1.66584732532501
 30
0.0
 42
-0.000043633094084
 70
     0
  0
VERTEX
  8
1
 10
-14.6736940264702
 20
1.41589314714074
 30
0.0
 70
     0
  0
VERTEX
  8
1
 10
-14.7266961812973
 20
1.40681942924857
 30
0.0
 70
     0
  0
VERTEX
  8
1
 10
-14.7970800876617
 20
1.39358336776495
 30
0.0
 70
     0
  0
VERTEX
  8
1
 10
-14.8714699268341
 20
1.37824498638511
 30
0.0
 70
     0
  0
VERTEX
  8
1
 10
-14.9498157382011
 20
1.36066026985645
 30
0.0
 70
     0
  0
VERTEX
  8
1
 10
-15.0320630192757
 20
1.34068718999624
 30
0.0
 70
     0
  0
VERTEX
  8
1
 10
-15.1181481838226
 20
1.31818428635597
 30
0.0
 70
     0
  0
VERTEX
  8
1
 10
-15.2080031037331
 20
1.29301189631224
 30
0.0
 70
     0
  0
VERTEX
  8
1
 10
-15.3015672206879
 20
1.26503177657723
 30
0.0
 70
     0
  0
VERTEX
  8
1
 10
-15.3987633228302
 20
1.23410729244351
 30
0.0
 70
     0
  0
VERTEX
  8
1
 10
-15.4522060394287
 20
1.21629879400134
 30
0.0
 70
     0
  0
VERTEX
  8
1
 10
-15.4711017489433
 20
0.94603780284524
 30
0.0
 70
     0
  0
VERTEX
  8
1
 10
-15.4206596970558
 20
0.920965050160885
 30
0.0
 70
     0
  0
VERTEX
  8
1
 10
-15.3287124872208
 20
0.87681472375989
 30
0.0
 70
     0
  0
VERTEX
  8
1
 10
-15.2399536728859
 20
0.836085563898087
 30
0.0
 70
     0
  0
VERTEX
  8
1
 10
-15.1544740915298
 20
0.798652574419975
 30
0.0
 70
     0
  0
VERTEX
  8
1
 10
-15.0723585247993
 20
0.764388062432408
 30
0.0
 70
     0
  0
VERTEX
  8
1
 10
-14.9936932682991
 20
0.733163104951382
 30
0.0
 70
     0
  0
VERTEX
  8
1
 10
-14.9185570478439
 20
0.704846271499991
 30
0.0
 70
     0
  0
VERTEX
  8
1
 10
-14.8470240473747
 20
0.679303813353181
 30
0.0
 70
     0
  0
VERTEX
  8
1
 10
-14.7791699647903
 20
0.656401603296399
 30
0.0
 70
     0
  0
VERTEX
  8
1
 10
-14.7279482245445
 20
0.640040022879839
 30
0.0
 42
-0.000043633095991
 70
     0
  0
VERTEX
  8
1
 10
-14.736718583107
 20
0.388862188160419
 30
0.0
 70
     0
  0
VERTEX
  8
1
 10
-14.7889592170715
 20
0.376125236041844
 30
0.0
 70
     0
  0
VERTEX
  8
1
 10
-14.8582470178604
 20
0.358011935278773
 30
0.0
 70
     0
  0
VERTEX
  8
1
 10
-14.9313863277435
 20
0.33752172049135
 30
0.0
 70
     0
  0
VERTEX
  8
1
 10
-15.0083150744438
 20
0.314514810778201
 30
0.0
 70
     0
  0
VERTEX
  8
1
 10
-15.0889681577683
 20
0.288853152096271
 30
0.0
 70
     0
  0
VERTEX
  8
1
 10
-15.1732729077339
 20
0.260400275327265
 30
0.0
 70
     0
  0
VERTEX
  8
1
 10
-15.2611551403999
 20
0.229021130688488
 30
0.0
 70
     0
  0
VERTEX
  8
1
 10
-15.3525391578674
 20
0.194582643639296
 30
0.0
 70
     0
  0
VERTEX
  8
1
 10
-15.4473401784897
 20
0.156953620258719
 30
0.0
 70
     0
  0
VERTEX
  8
1
 10
-15.4994112491608
 20
0.135460526589304
 30
0.0
 70
     0
  0
VERTEX
  8
1
 10
-15.4994082212448
 20
-0.1354601835832
 30
0.0
 70
     0
  0
VERTEX
  8
1
 10
-15.4473401784897
 20
-0.156953253597021
 30
0.0
 70
     0
  0
VERTEX
  8
1
 10
-15.3525376439095
 20
-0.194582324288785
 30
0.0
 70
     0
  0
VERTEX
  8
1
 10
-15.261153626442
 20
-0.229020799510181
 30
0.0
 70
     0
  0
VERTEX
  8
1
 10
-15.1732713937759
 20
-0.260399944148958
 30
0.0
 70
     0
  0
VERTEX
  8
1
 10
-15.0889651298523
 20
-0.288852891884744
 30
0.0
 70
     0
  0
VERTEX
  8
1
 10
-15.0083135604858
 20
-0.314514503255486
 30
0.0
 70
     0
  0
VERTEX
  8
1
 10
-14.9313848137856
 20
-0.337521247379482
 30
0.0
 70
     0
  0
VERTEX
  8
1
 10
-14.8582439899445
 20
-0.358011604100466
 30
0.0
 70
     0
  0
VERTEX
  8
1
 10
-14.7889577031136
 20
-0.376124786585569
 30
0.0
 70
     0
  0
VERTEX
  8
1
 10
-14.736720097065
 20
-0.388873661123216
 30
0.0
 42
-0.000043633081128
 70
     0
  0
VERTEX
  8
1
 10
-14.7279482245445
 20
-0.640051377564669
 30
0.0
 70
     0
  0
VERTEX
  8
1
 10
-14.7791714787483
 20
-0.656425116956234
 30
0.0
 70
     0
  0
VERTEX
  8
1
 10
-14.8470270752907
 20
-0.679327610880136
 30
0.0
 70
     0
  0
VERTEX
  8
1
 10
-14.9185585618019
 20
-0.7048698797822
 30
0.0
 70
     0
  0
VERTEX
  8
1
 10
-14.9936947822571
 20
-0.733187044411898
 30
0.0
 70
     0
  0
VERTEX
  8
1
 10
-15.0723615527153
 20
-0.764412333071232
 30
0.0
 70
     0
  0
VERTEX
  8
1
 10
-15.1544771194458
 20
-0.798676797747612
 30
0.0
 70
     0
  0
VERTEX
  8
1
 10
-15.2399551868439
 20
-0.836109881848097
 30
0.0
 70
     0
  0
VERTEX
  8
1
 10
-15.3287140011787
 20
-0.876839230954647
 30
0.0
 70
     0
  0
VERTEX
  8
1
 10
-15.4206596970558
 20
-0.920989651978016
 30
0.0
 70
     0
  0
VERTEX
  8
1
 10
-15.4711047768593
 20
-0.946062688529491
 30
0.0
 70
     0
  0
VERTEX
  8
1
 10
-15.4522030115128
 20
-1.21632320657372
 30
0.0
 70
     0
  0
VERTEX
  8
1
 10
-15.3987633228302
 20
-1.23413189426064
 30
0.0
 70
     0
  0
VERTEX
  8
1
 10
-15.3015657067299
 20
-1.26505609452724
 30
0.0
 70
     0
  0
VERTEX
  8
1
 10
-15.2080015897751
 20
-1.2930360250175
 30
0.0
 70
     0
  0
VERTEX
  8
1
 10
-15.1181451559067
 20
-1.31820832043886
 30
0.0
 70
     0
  0
VERTEX
  8
1
 10
-15.0320599913597
 20
-1.34071103483438
 30
0.0
 70
     0
  0
VERTEX
  8
1
 10
-14.9498142242432
 20
-1.36068402007222
 30
0.0
 70
     0
  0
VERTEX
  8
1
 10
-14.8714684128761
 20
-1.37826845273376
 30
0.0
 70
     0
  0
VERTEX
  8
1
 10
-14.7970770597458
 20
-1.3936068341136
 30
0.0
 70
     0
  0
VERTEX
  8
1
 10
-14.7266946673393
 20
-1.40684270635247
 30
0.0
 70
     0
  0
VERTEX
  8
1
 10
-14.6736955404282
 20
-1.41591642424464
 30
0.0
 42
-0.00004363314361
 70
     0
  0
VERTEX
  8
1
 10
-14.6474223136902
 20
-1.66587060242891
 30
0.0
 70
     0
  0
VERTEX
  8
1
 10
-14.6973814129829
 20
-1.68576590269804
 30
0.0
 70
     0
  0
VERTEX
  8
1
 10
-14.7634732484818
 20
-1.71334586441517
 30
0.0
 70
     0
  0
VERTEX
  8
1
 10
-14.8330487012863
 20
-1.74381578266621
 30
0.0
 70
     0
  0
VERTEX
  8
1
 10
-14.9060275316238
 20
-1.77730529010296
 30
0.0
 70
     0
  0
VERTEX
  8
1
 10
-14.9823234438896
 20
-1.81394193768501
 30
0.0
 70
     0
  0
VERTEX
  8
1
 10
-15.061847114563
 20
-1.85385081619024
 30
0.0
 70
     0
  0
VERTEX
  8
1
 10
-15.1445077061653
 20
-1.89715550243855
 30
0.0
 70
     0
  0
VERTEX
  8
1
 10
-15.230209839344
 20
-1.9439771130681
 30
0.0
 70
     0
  0
VERTEX
  8
1
 10
-15.3188520789146
 20
-1.9944335475564
 30
0.0
 70
     0
  0
VERTEX
  8
1
 10
-15.3674243927002
 20
-2.02296446412802
 30
0.0
 70
     0
  0
VERTEX
  8
1
 10
-15.3297162413597
 20
-2.29124822616577
 30
0.0
 70
     0
  0
VERTEX
  8
1
 10
-15.2751637935638
 20
-2.30528564453125
 30
0.0
 70
     0
  0
VERTEX
  8
1
 10
-15.1760464787483
 20
-2.32935454845428
 30
0.0
 70
     0
  0
VERTEX
  8
1
 10
-15.0807579636574
 20
-2.35073958337307
 30
0.0
 70
     0
  0
VERTEX
  8
1
 10
-14.989364862442
 20
-2.36958249360323
 30
0.0
 70
     0
  0
VERTEX
  8
1
 10
-14.9019186496735
 20
-2.38602540194988
 30
0.0
 70
     0
  0
VERTEX
  8
1
 10
-14.8184813976288
 20
-2.40021251291037
 30
0.0
 70
     0
  0
VERTEX
  8
1
 10
-14.7390985250473
 20
-2.41228897720575
 30
0.0
 70
     0
  0
VERTEX
  8
1
 10
-14.6638169646263
 20
-2.42240070253611
 30
0.0
 70
     0
  0
VERTEX
  8
1
 10
-14.5926851630211
 20
-2.43069492131472
 30
0.0
 70
     0
  0
VERTEX
  8
1
 10
-14.5391803741455
 20
-2.43604941219091
 30
0.0
 42
-0.000043633053762
 70
     0
  0
VERTEX
  8
1
 10
-14.495537507534
 20
-2.68356186002493
 30
0.0
 70
     0
  0
VERTEX
  8
1
 10
-14.5439856767654
 20
-2.70689365565777
 30
0.0
 70
     0
  0
VERTEX
  8
1
 10
-14.6079943060875
 20
-2.73901681602001
 30
0.0
 70
     0
  0
VERTEX
  8
1
 10
-14.6752745985985
 20
-2.77426573187113
 30
0.0
 70
     0
  0
VERTEX
  8
1
 10
-14.7457387447357
 20
-2.81276435852051
 30
0.0
 70
     0
  0
VERTEX
  8
1
 10
-14.8192943930626
 20
-2.85463400185108
 30
0.0
 70
     0
  0
VERTEX
  8
1
 10
-14.8958401083946
 20
-2.89999293982983
 30
0.0
 70
     0
  0
VERTEX
  8
1
 10
-14.9752774834633
 20
-2.94895812571049
 30
0.0
 70
     0
  0
VERTEX
  8
1
 10
-15.0575050830841
 20
-3.0016440525651
 30
0.0
 70
     0
  0
VERTEX
  8
1
 10
-15.1424108743668
 20
-3.05816105008125
 30
0.0
 70
     0
  0
VERTEX
  8
1
 10
-15.1888742446899
 20
-3.09001075178385
 30
0.0
 70
     0
  0
VERTEX
  8
1
 10
-15.1325444102287
 20
-3.35501036047935
 30
0.0
 70
     0
  0
VERTEX
  8
1
 10
-15.0771456599236
 20
-3.36520838141441
 30
0.0
 70
     0
  0
VERTEX
  8
1
 10
-14.9765900850296
 20
-3.38230437338352
 30
0.0
 70
     0
  0
VERTEX
  8
1
 10
-14.8800434708595
 20
-3.39699052274227
 30
0.0
 70
     0
  0
VERTEX
  8
1
 10
-14.7875588059425
 20
-3.40941216945648
 30
0.0
 70
     0
  0
VERTEX
  8
1
 10
-14.699178481102
 20
-3.41971541047096
 30
0.0
 70
     0
  0
VERTEX
  8
1
 10
-14.6149539709091
 20
-3.42804747819901
 30
0.0
 70
     0
  0
VERTEX
  8
1
 10
-14.5349216103554
 20
-3.43455711901188
 30
0.0
 70
     0
  0
VERTEX
  8
1
 10
-14.4591192483902
 20
-3.43939307928085
 30
0.0
 70
     0
  0
VERTEX
  8
1
 10
-14.3875817060471
 20
-3.44270486235619
 30
0.0
 70
     0
  0
VERTEX
  8
1
 10
-14.3338346838951
 20
-3.44431419968605
 30
0.0
 42
-0.000043633145719
 70
     0
  0
VERTEX
  8
1
 10
-14.273031103611
 20
-3.68817952275276
 30
0.0
 70
     0
  0
VERTEX
  8
1
 10
-14.3197336792946
 20
-3.71483350992203
 30
0.0
 70
     0
  0
VERTEX
  8
1
 10
-14.3813441991806
 20
-3.75134336352348
 30
0.0
 70
     0
  0
VERTEX
  8
1
 10
-14.4460023164749
 20
-3.79119982123375
 30
0.0
 70
     0
  0
VERTEX
  8
1
 10
-14.513609623909
 20
-3.83451983630657
 30
0.0
 70
     0
  0
VERTEX
  8
1
 10
-14.5840662002563
 20
-3.88141846954823
 30
0.0
 70
     0
  0
VERTEX
  8
1
 10
-14.6572615265846
 20
-3.93200699687004
 30
0.0
 70
     0
  0
VERTEX
  8
1
 10
-14.7330896258354
 20
-3.98639366626739
 30
0.0
 70
     0
  0
VERTEX
  8
1
 10
-14.8114414930344
 20
-4.04468710422516
 30
0.0
 70
     0
  0
VERTEX
  8
1
 10
-14.8921975255013
 20
-4.1069891244173
 30
0.0
 70
     0
  0
VERTEX
  8
1
 10
-14.9363278865814
 20
-4.1420024305582
 30
0.0
 70
     0
  0
VERTEX
  8
1
 10
-14.8616488814354
 20
-4.40242742598057
 30
0.0
 70
     0
  0
VERTEX
  8
1
 10
-14.8056733131409
 20
-4.40873608887196
 30
0.0
 70
     0
  0
VERTEX
  8
1
 10
-14.7041715145111
 20
-4.41877590119839
 30
0.0
 70
     0
  0
VERTEX
  8
1
 10
-14.6068346142769
 20
-4.42669163048267
 30
0.0
 70
     0
  0
VERTEX
  8
1
 10
-14.5137080311775
 20
-4.4326312661171
 30
0.0
 70
     0
  0
VERTEX
  8
1
 10
-14.4248235583305
 20
-4.43674431145191
 30
0.0
 70
     0
  0
VERTEX
  8
1
 10
-14.3402220726013
 20
-4.43918140530586
 30
0.0
 70
     0
  0
VERTEX
  8
1
 10
-14.2599338531494
 20
-4.4400924295187
 30
0.0
 70
     0
  0
VERTEX
  8
1
 10
-14.1839770674706
 20
-4.43962877988815
 30
0.0
 70
     0
  0
VERTEX
  8
1
 10
-14.1123819947243
 20
-4.43794223070145
 30
0.0
 70
     0
  0
VERTEX
  8
1
 10
-14.058654654026
 20
-4.4357984662056
 30
0.0
 42
-0.000043633181605
 70
     0
  0
VERTEX
  8
1
 10
-13.9809870958328
 20
-4.67482820749283
 30
0.0
 70
     0
  0
VERTEX
  8
1
 10
-14.02571849823
 20
-4.7046755105257
 30
0.0
 70
     0
  0
VERTEX
  8
1
 10
-14.0846326589584
 20
-4.74539378881454
 30
0.0
 70
     0
  0
VERTEX
  8
1
 10
-14.1463521838188
 20
-4.78966343402863
 30
0.0
 70
     0
  0
VERTEX
  8
1
 10
-14.2107726097107
 20
-4.8375942081213
 30
0.0
 70
     0
  0
VERTEX
  8
1
 10
-14.2777849316597
 20
-4.88929322361946
 30
0.0
 70
     0
  0
VERTEX
  8
1
 10
-14.3472740888596
 20
-4.94486418664455
 30
0.0
 70
     0
  0
VERTEX
  8
1
 10
-14.419123506546
 20
-5.00440853238106
 30
0.0
 70
     0
  0
VERTEX
  8
1
 10
-14.4932181239128
 20
-5.06802542507648
 30
0.0
 70
     0
  0
VERTEX
  8
1
 10
-14.5694322824478
 20
-5.13580873012543
 30
0.0
 70
     0
  0
VERTEX
  8
1
 10
-14.6110116243362
 20
-5.17381513118744
 30
0.0
 70
     0
  0
VERTEX
  8
1
 10
-14.5183483123779
 20
-5.42839587032795
 30
0.0
 70
     0
  0
VERTEX
  8
1
 10
-14.4620699524879
 20
-5.43078451752663
 30
0.0
 70
     0
  0
VERTEX
  8
1
 10
-14.360113966465
 20
-5.4337200820446
 30
0.0
 70
     0
  0
VERTEX
  8
1
 10
-14.2624621629715
 20
-5.43482640683651
 30
0.0
 70
     0
  0
VERTEX
  8
1
 10
-14.1691478490829
 20
-5.43425564467907
 30
0.0
 70
     0
  0
VERTEX
  8
1
 10
-14.080193734169
 20
-5.43215805590153
 30
0.0
 70
     0
  0
VERTEX
  8
1
 10
-13.9956300973892
 20
-5.42868768572807
 30
0.0
 70
     0
  0
VERTEX
  8
1
 10
-13.9154705643654
 20
-5.42399592995644
 30
0.0
 70
     0
  0
VERTEX
  8
1
 10
-13.8397333025932
 20
-5.41823531985283
 30
0.0
 70
     0
  0
VERTEX
  8
1
 10
-13.7684304237366
 20
-5.41155838668346
 30
0.0
 70
     0
  0
VERTEX
  8
1
 10
-13.7149831652641
 20
-5.40567211806774
 30
0.0
 42
-0.000043633123498
 70
     0
  0
VERTEX
  8
1
 10
-13.6208316326141
 20
-5.63870166540146
 30
0.0
 70
     0
  0
VERTEX
  8
1
 10
-13.6633693099022
 20
-5.67159618735313
 30
0.0
 70
     0
  0
VERTEX
  8
1
 10
-13.7193009734154
 20
-5.71632531881332
 30
0.0
 70
     0
  0
VERTEX
  8
1
 10
-13.7777821421623
 20
-5.76479203402996
 30
0.0
 70
     0
  0
VERTEX
  8
1
 10
-13.8387022972107
 20
-5.81709966063499
 30
0.0
 70
     0
  0
VERTEX
  8
1
 10
-13.9019448637962
 20
-5.87334774136543
 30
0.0
 70
     0
  0
VERTEX
  8
1
 10
-13.9673872113228
 20
-5.93363052010536
 30
0.0
 70
     0
  0
VERTEX
  8
1
 10
-14.0349097371101
 20
-5.99804148375988
 30
0.0
 70
     0
  0
VERTEX
  8
1
 10
-14.1043852686882
 20
-6.06667184829712
 30
0.0
 70
     0
  0
VERTEX
  8
1
 10
-14.1756866335869
 20
-6.1396067738533
 30
0.0
 70
     0
  0
VERTEX
  8
1
 10
-14.2145120859146
 20
-6.18042080998421
 30
0.0
 70
     0
  0
VERTEX
  8
1
 10
-14.1043156266212
 20
-6.42791811823845
 30
0.0
 70
     0
  0
VERTEX
  8
1
 10
-14.0480085015297
 20
-6.4263746380806
 30
0.0
 70
     0
  0
VERTEX
  8
1
 10
-13.9460949063301
 20
-6.42219081521034
 30
0.0
 70
     0
  0
VERTEX
  8
1
 10
-13.8486050963402
 20
-6.41648319363594
 30
0.0
 70
     0
  0
VERTEX
  8
1
 10
-13.7555572390556
 20
-6.4094046831131
 30
0.0
 70
     0
  0
VERTEX
  8
1
 10
-13.6669679880142
 20
-6.40110667943954
 30
0.0
 70
     0
  0
VERTEX
  8
1
 10
-13.5828494548798
 20
-6.39174663424492
 30
0.0
 70
     0
  0
VERTEX
  8
1
 10
-13.5032137513161
 20
-6.38147442936897
 30
0.0
 70
     0
  0
VERTEX
  8
1
 10
-13.4280623912811
 20
-6.37044448852539
 30
0.0
 70
     0
  0
VERTEX
  8
1
 10
-13.3573984026909
 20
-6.35880972146988
 30
0.0
 70
     0
  0
VERTEX
  8
1
 10
-13.3044931411743
 20
-6.34920971393585
 30
0.0
 42
-0.000043633253085
 70
     0
  0
VERTEX
  8
1
 10
-13.1943148493767
 20
-6.57510435581207
 30
0.0
 70
     0
  0
VERTEX
  8
1
 10
-13.2344559311867
 20
-6.61088599562645
 30
0.0
 70
     0
  0
VERTEX
  8
1
 10
-13.2871295571327
 20
-6.65940759181976
 30
0.0
 70
     0
  0
VERTEX
  8
1
 10
-13.3420877456665
 20
-6.71183671355247
 30
0.0
 70
     0
  0
VERTEX
  8
1
 10
-13.3992108941078
 20
-6.7682657122612
 30
0.0
 70
     0
  0
VERTEX
  8
1
 10
-13.4583763718605
 20
-6.82878769636154
 30
0.0
 70
     0
  0
VERTEX
  8
1
 10
-13.5194554924965
 20
-6.89348896145821
 30
0.0
 70
     0
  0
VERTEX
  8
1
 10
-13.5823180556297
 20
-6.96245353221893
 30
0.0
 70
     0
  0
VERTEX
  8
1
 10
-13.6468384027481
 20
-7.03576240539551
 30
0.0
 70
     0
  0
VERTEX
  8
1
 10
-13.7128757357597
 20
-7.11349354982376
 30
0.0
 70
     0
  0
VERTEX
  8
1
 10
-13.7487610816956
 20
-7.15691689252853
 30
0.0
 70
     0
  0
VERTEX
  8
1
 10
-13.6215689301491
 20
-7.3961245238781
 30
0.0
 70
     0
  0
VERTEX
  8
1
 10
-13.5655055522919
 20
-7.3906568646431
 30
0.0
 70
     0
  0
VERTEX
  8
1
 10
-13.4641339540482
 20
-7.37937409281731
 30
0.0
 70
     0
  0
VERTEX
  8
1
 10
-13.3672784924507
 20
-7.36687939763069
 30
0.0
 70
     0
  0
VERTEX
  8
1
 10
-13.2749512791634
 20
-7.35332720279694
 30
0.0
 70
     0
  0
VERTEX
  8
1
 10
-13.1871553421021
 20
-7.33887041807175
 30
0.0
 70
     0
  0
VERTEX
  8
1
 10
-13.1038982510567
 20
-7.32366498112679
 30
0.0
 70
     0
  0
VERTEX
  8
1
 10
-13.0251709222794
 20
-7.30786304473877
 30
0.0
 70
     0
  0
VERTEX
  8
1
 10
-12.9509718418121
 20
-7.29161751866341
 30
0.0
 70
     0
  0
VERTEX
  8
1
 10
-12.8812919259071
 20
-7.27508282661438
 30
0.0
 70
     0
  0
VERTEX
  8
1
 10
-12.8291845202446
 20
-7.26181449890137
 30
0.0
 42
-0.000043633132647
 70
     0
  0
VERTEX
  8
1
 10
-12.7035184383392
 20
-7.4794732093811
 30
0.0
 70
     0
  0
VERTEX
  8
1
 10
-12.7410630822182
 20
-7.51796786189079
 30
0.0
 70
     0
  0
VERTEX
  8
1
 10
-12.7902243256569
 20
-7.57004650235176
 30
0.0
 70
     0
  0
VERTEX
  8
1
 10
-12.8413915634155
 20
-7.62618027925491
 30
0.0
 70
     0
  0
VERTEX
  8
1
 10
-12.894439136982
 20
-7.68645775914192
 30
0.0
 70
     0
  0
VERTEX
  8
1
 10
-12.9492383599281
 20
-7.75095993876457
 30
0.0
 70
     0
  0
VERTEX
  8
1
 10
-13.005656003952
 20
-7.81976402997971
 30
0.0
 70
     0
  0
VERTEX
  8
1
 10
-13.0635542988777
 20
-7.8929449737072
 30
0.0
 70
     0
  0
VERTEX
  8
1
 10
-13.1228030443192
 20
-7.97057619690895
 30
0.0
 70
     0
  0
VERTEX
  8
1
 10
-13.1832584142685
 20
-8.05272431373596
 30
0.0
 70
     0
  0
VERTEX
  8
1
 10
-13.216028034687
 20
-8.09854500889778
 30
0.0
 70
     0
  0
VERTEX
  8
1
 10
-13.0724578857422
 20
-8.32829721570015
 30
0.0
 70
     0
  0
VERTEX
  8
1
 10
-13.0169122815132
 20
-8.31893262863159
 30
0.0
 70
     0
  0
VERTEX
  8
1
 10
-12.916574716568
 20
-8.30060616731644
 30
0.0
 70
     0
  0
VERTEX
  8
1
 10
-12.8208274722099
 20
-8.28138571381569
 30
0.0
 70
     0
  0
VERTEX
  8
1
 10
-12.729670548439
 20
-8.26142644882202
 30
0.0
 70
     0
  0
VERTEX
  8
1
 10
-12.6430978894234
 20
-8.24087976813316
 30
0.0
 70
     0
  0
VERTEX
  8
1
 10
-12.5611011683941
 20
-8.21990388035774
 30
0.0
 70
     0
  0
VERTEX
  8
1
 10
-12.4836705446243
 20
-8.19864791035652
 30
0.0
 70
     0
  0
VERTEX
  8
1
 10
-12.4107848227024
 20
-8.17726703882217
 30
0.0
 70
     0
  0
VERTEX
  8
1
 10
-12.3424281060696
 20
-8.15591114759445
 30
0.0
 70
     0
  0
VERTEX
  8
1
 10
-12.2913721442223
 20
-8.13904187083244
 30
0.0
 42
-0.000043633100321
 70
     0
  0
VERTEX
  8
1
 10
-12.150829154253
 20
-8.3474041223526
 30
0.0
 70
     0
  0
VERTEX
  8
1
 10
-12.1855987131596
 20
-8.38842329978943
 30
0.0
 70
     0
  0
VERTEX
  8
1
 10
-12.2310076117516
 20
-8.44380312561989
 30
0.0
 70
     0
  0
VERTEX
  8
1
 10
-12.2781340956688
 20
-8.50337055921555
 30
0.0
 70
     0
  0
VERTEX
  8
1
 10
-12.3268479645252
 20
-8.56720129847526
 30
0.0
 70
     0
  0
VERTEX
  8
1
 10
-12.3770137190819
 20
-8.63536801338196
 30
0.0
 70
     0
  0
VERTEX
  8
1
 10
-12.4284935891628
 20
-8.70794034600258
 30
0.0
 70
     0
  0
VERTEX
  8
1
 10
-12.4811475336552
 20
-8.78498263955116
 30
0.0
 70
     0
  0
VERTEX
  8
1
 10
-12.534836268425
 20
-8.86655772328377
 30
0.0
 70
     0
  0
VERTEX
  8
1
 10
-12.5894144535065
 20
-8.95272237062454
 30
0.0
 70
     0
  0
VERTEX
  8
1
 10
-12.6189071118832
 20
-9.00071786642074
 30
0.0
 70
     0
  0
VERTEX
  8
1
 10
-12.4596614420414
 20
-9.2198958337307
 30
0.0
 70
     0
  0
VERTEX
  8
1
 10
-12.4049038529396
 20
-9.20667822360992
 30
0.0
 70
     0
  0
VERTEX
  8
1
 10
-12.3060885727406
 20
-9.18139815330505
 30
0.0
 70
     0
  0
VERTEX
  8
1
 10
-12.2119150876999
 20
-9.15554504990578
 30
0.0
 70
     0
  0
VERTEX
  8
1
 10
-12.1223728001118
 20
-9.12927560806274
 30
0.0
 70
     0
  0
VERTEX
  8
1
 10
-12.0374435424805
 20
-9.1027404665947
 30
0.0
 70
     0
  0
VERTEX
  8
1
 10
-11.9571114182472
 20
-9.07609556317329
 30
0.0
 70
     0
  0
VERTEX
  8
1
 10
-11.8813514471054
 20
-9.04949077963829
 30
0.0
 70
     0
  0
VERTEX
  8
1
 10
-11.8101356208324
 20
-9.02307675480843
 30
0.0
 70
     0
  0
VERTEX
  8
1
 10
-11.7434351742268
 20
-8.99700564146042
 30
0.0
 70
     0
  0
VERTEX
  8
1
 10
-11.6936804592609
 20
-8.97661489844322
 30
0.0
 42
-0.000043633296425
 70
     0
  0
VERTEX
  8
1
 10
-11.5389441132545
 20
-9.17466633915901
 30
0.0
 70
     0
  0
VERTEX
  8
1
 10
-11.5707675099373
 20
-9.21801171302795
 30
0.0
 70
     0
  0
VERTEX
  8
1
 10
-11.6122022688389
 20
-9.27642475366592
 30
0.0
 70
     0
  0
VERTEX
  8
1
 10
-11.6550593912601
 20
-9.33913440704346
 30
0.0
 70
     0
  0
VERTEX
  8
1
 10
-11.6992011070251
 20
-9.40620653033256
 30
0.0
 70
     0
  0
VERTEX
  8
1
 10
-11.7444904029369
 20
-9.47770773768425
 30
0.0
 70
     0
  0
VERTEX
  8
1
 10
-11.7907819390297
 20
-9.55369404554367
 30
0.0
 70
     0
  0
VERTEX
  8
1
 10
-11.8379334032536
 20
-9.63422147035599
 30
0.0
 70
     0
  0
VERTEX
  8
1
 10
-11.8858017265797
 20
-9.7193430006504
 30
0.0
 70
     0
  0
VERTEX
  8
1
 10
-11.9342355132103
 20
-9.80910481214523
 30
0.0
 70
     0
  0
VERTEX
  8
1
 10
-11.9603088974953
 20
-9.85904044508934
 30
0.0
 70
     0
  0
VERTEX
  8
1
 10
-11.786161339283
 20
-10.0665760755539
 30
0.0
 70
     0
  0
VERTEX
  8
1
 10
-11.7324589788914
 20
-10.0495712995529
 30
0.0
 70
     0
  0
VERTEX
  8
1
 10
-11.6356489360332
 20
-10.0174594938755
 30
0.0
 70
     0
  0
VERTEX
  8
1
 10
-11.5435079395771
 20
-9.98510091304779
 30
0.0
 70
     0
  0
VERTEX
  8
1
 10
-11.4560155510902
 20
-9.95264922380447
 30
0.0
 70
     0
  0
VERTEX
  8
1
 10
-11.3731445193291
 20
-9.9202543079853
 30
0.0
 70
     0
  0
VERTEX
  8
1
 10
-11.294866836071
 20
-9.88806983232498
 30
0.0
 70
     0
  0
VERTEX
  8
1
 10
-11.2211476802826
 20
-9.85624567866325
 30
0.0
 70
     0
  0
VERTEX
  8
1
 10
-11.1519469320774
 20
-9.82492794394493
 30
0.0
 70
     0
  0
VERTEX
  8
1
 10
-11.087227499485
 20
-9.79426802396774
 30
0.0
 70
     0
  0
VERTEX
  8
1
 10
-11.039017021656
 20
-9.77045573592186
 30
0.0
 42
-0.000043633283027
 70
     0
  0
VERTEX
  8
1
 10
-10.8708427846432
 20
-9.95723121762276
 30
0.0
 70
     0
  0
VERTEX
  8
1
 10
-10.8995640814304
 20
-10.002690076828
 30
0.0
 70
     0
  0
VERTEX
  8
1
 10
-10.9368233442307
 20
-10.0638509511948
 30
0.0
 70
     0
  0
VERTEX
  8
1
 10
-10.9752021789551
 20
-10.1293970048428
 30
0.0
 70
     0
  0
VERTEX
  8
1
 10
-11.0145575165749
 20
-10.1993857681751
 30
0.0
 70
     0
  0
VERTEX
  8
1
 10
-11.0547485589981
 20
-10.273871743679
 30
0.0
 70
     0
  0
VERTEX
  8
1
 10
-11.095626938343
 20
-10.3529018640518
 30
0.0
 70
     0
  0
VERTEX
  8
1
 10
-11.1370465576649
 20
-10.4365223050117
 30
0.0
 70
     0
  0
VERTEX
  8
1
 10
-11.1788598060608
 20
-10.5247754573822
 30
0.0
 70
     0
  0
VERTEX
  8
1
 10
-11.2209145307541
 20
-10.6176976561546
 30
0.0
 70
     0
  0
VERTEX
  8
1
 10
-11.2434407114983
 20
-10.6693304359913
 30
0.0
 70
     0
  0
VERTEX
  8
1
 10
-11.0552405953407
 20
-10.8642124056816
 30
0.0
 70
     0
  0
VERTEX
  8
1
 10
-11.0028553783894
 20
-10.8435037314892
 30
0.0
 70
     0
  0
VERTEX
  8
1
 10
-10.9085206568241
 20
-10.8047168850899
 30
0.0
 70
     0
  0
VERTEX
  8
1
 10
-10.8188617944717
 20
-10.7660095214844
 30
0.0
 70
     0
  0
VERTEX
  8
1
 10
-10.7338469982147
 20
-10.7275337934494
 30
0.0
 70
     0
  0
VERTEX
  8
1
 10
-10.6534361481667
 20
-10.6894365549088
 30
0.0
 70
     0
  0
VERTEX
  8
1
 10
-10.5775944232941
 20
-10.6518707156181
 30
0.0
 70
     0
  0
VERTEX
  8
1
 10
-10.5062748908997
 20
-10.6149816155434
 30
0.0
 70
     0
  0
VERTEX
  8
1
 10
-10.4394275903702
 20
-10.5789130806923
 30
0.0
 70
     0
  0
VERTEX
  8
1
 10
-10.3770048320293
 20
-10.5438119649887
 30
0.0
 70
     0
  0
VERTEX
  8
1
 10
-10.3305724978447
 20
-10.5166962206364
 30
0.0
 42
-0.000043633210968
 70
     0
  0
VERTEX
  8
1
 10
-10.1497786641121
 20
-10.69128434062
 30
0.0
 70
     0
  0
VERTEX
  8
1
 10
-10.1752608478069
 20
-10.7386379182339
 30
0.0
 70
     0
  0
VERTEX
  8
1
 10
-10.2081621825695
 20
-10.8022483766079
 30
0.0
 70
     0
  0
VERTEX
  8
1
 10
-10.2418749988079
 20
-10.8703121423721
 30
0.0
 70
     0
  0
VERTEX
  8
1
 10
-10.2762524425983
 20
-10.9428761482239
 30
0.0
 70
     0
  0
VERTEX
  8
1
 10
-10.311149930954
 20
-11.0199835419655
 30
0.0
 70
     0
  0
VERTEX
  8
1
 10
-10.3464160680771
 20
-11.1016729295254
 30
0.0
 70
     0
  0
VERTEX
  8
1
 10
-10.3819017291069
 20
-11.187979131937
 30
0.0
 70
     0
  0
VERTEX
  8
1
 10
-10.4174562752247
 20
-11.278933942318
 30
0.0
 70
     0
  0
VERTEX
  8
1
 10
-10.4529267966747
 20
-11.3745638549328
 30
0.0
 70
     0
  0
VERTEX
  8
1
 10
-10.4717967689037
 20
-11.4276409506798
 30
0.0
 70
     0
  0
VERTEX
  8
1
 10
-10.2704600393772
 20
-11.6089200079441
 30
0.0
 70
     0
  0
VERTEX
  8
1
 10
-10.2196478247643
 20
-11.5846081137657
 30
0.0
 70
     0
  0
VERTEX
  8
1
 10
-10.128248667717
 20
-11.5393347144127
 30
0.0
 70
     0
  0
VERTEX
  8
1
 10
-10.0415072023869
 20
-11.4944670557976
 30
0.0
 70
     0
  0
VERTEX
  8
1
 10
-9.95938406586647
 20
-11.4501550197601
 30
0.0
 70
     0
  0
VERTEX
  8
1
 10
-9.88182702660561
 20
-11.4065424323082
 30
0.0
 70
     0
  0
VERTEX
  8
1
 10
-9.80879066586494
 20
-11.3637776613235
 30
0.0
 70
     0
  0
VERTEX
  8
1
 10
-9.74021745324135
 20
-11.322003018856
 30
0.0
 70
     0
  0
VERTEX
  8
1
 10
-9.67604985833168
 20
-11.2813593029976
 30
0.0
 70
     0
  0
VERTEX
  8
1
 10
-9.61622656583786
 20
-11.241989582777
 30
0.0
 70
     0
  0
VERTEX
  8
1
 10
-9.57179871201515
 20
-11.2117005825043
 30
0.0
 42
-0.000043633246862
 70
     0
  0
VERTEX
  8
1
 10
-9.37926716208458
 20
-11.3732527673244
 30
0.0
 70
     0
  0
VERTEX
  8
1
 10
-9.4013830602169
 20
-11.4222671568394
 30
0.0
 70
     0
  0
VERTEX
  8
1
 10
-9.42976750135422
 20
-11.4880183517933
 30
0.0
 70
     0
  0
VERTEX
  8
1
 10
-9.45865003466606
 20
-11.5582675158978
 30
0.0
 70
     0
  0
VERTEX
  8
1
 10
-9.48788304924965
 20
-11.6330524981022
 30
0.0
 70
     0
  0
VERTEX
  8
1
 10
-9.51731590628624
 20
-11.7124066054821
 30
0.0
 70
     0
  0
VERTEX
  8
1
 10
-9.54679796695709
 20
-11.7963563323021
 30
0.0
 70
     0
  0
VERTEX
  8
1
 10
-9.5761763215065
 20
-11.8849281728268
 30
0.0
 70
     0
  0
VERTEX
  8
1
 10
-9.60530033111572
 20
-11.9781418085098
 30
0.0
 70
     0
  0
VERTEX
  8
1
 10
-9.63401330113411
 20
-12.076012378931
 30
0.0
 70
     0
  0
VERTEX
  8
1
 10
-9.64913471341133
 20
-12.1302779316902
 30
0.0
 70
     0
  0
VERTEX
  8
1
 10
-9.43564392924309
 20
-12.2970706820488
 30
0.0
 70
     0
  0
VERTEX
  8
1
 10
-9.38665073513985
 20
-12.2692728996277
 30
0.0
 70
     0
  0
VERTEX
  8
1
 10
-9.29863224625587
 20
-12.2177347421646
 30
0.0
 70
     0
  0
VERTEX
  8
1
 10
-9.21523208618164
 20
-12.1669255554676
 30
0.0
 70
     0
  0
VERTEX
  8
1
 10
-9.13639953732491
 20
-12.1169921934605
 30
0.0
 70
     0
  0
VERTEX
  8
1
 10
-9.06207328438759
 20
-12.0680754542351
 30
0.0
 70
     0
  0
VERTEX
  8
1
 10
-8.99219806790352
 20
-12.0203199207783
 30
0.0
 70
     0
  0
VERTEX
  8
1
 10
-8.92670651674271
 20
-11.973864120245
 30
0.0
 70
     0
  0
VERTEX
  8
1
 10
-8.86552974581718
 20
-11.9288435518742
 30
0.0
 70
     0
  0
VERTEX
  8
1
 10
-8.80859962701797
 20
-11.8853967428207
 30
0.0
 70
     0
  0
VERTEX
  8
1
 10
-8.76639274954796
 20
-11.8520820975304
 30
0.0
 42
-0.000043633280739
 70
     0
  0
VERTEX
  8
1
 10
-8.56306062340736
 20
-11.9998103320599
 30
0.0
 70
     0
  0
VERTEX
  8
1
 10
-8.58170350193977
 20
-12.0502485990524
 30
0.0
 70
     0
  0
VERTEX
  8
1
 10
-8.6054325222969
 20
-12.1178188145161
 30
0.0
 70
     0
  0
VERTEX
  8
1
 10
-8.6293439745903
 20
-12.1899127364159
 30
0.0
 70
     0
  0
VERTEX
  8
1
 10
-8.6532887339592
 20
-12.2665538311005
 30
0.0
 70
     0
  0
VERTEX
  8
1
 10
-8.67711464762688
 20
-12.3477685928345
 30
0.0
 70
     0
  0
VERTEX
  8
1
 10
-8.70066880583763
 20
-12.4335706472397
 30
0.0
 70
     0
  0
VERTEX
  8
1
 10
-8.72379678487778
 20
-12.5239751338959
 30
0.0
 70
     0
  0
VERTEX
  8
1
 10
-8.74634794592857
 20
-12.6189934074879
 30
0.0
 70
     0
  0
VERTEX
  8
1
 10
-8.7681633234024
 20
-12.7186292529106
 30
0.0
 70
     0
  0
VERTEX
  8
1
 10
-8.77946274876595
 20
-12.7738175630569
 30
0.0
 70
     0
  0
VERTEX
  8
1
 10
-8.55485724210739
 20
-12.925311768055
 30
0.0
 70
     0
  0
VERTEX
  8
1
 10
-8.50792227387428
 20
-12.8941635966301
 30
0.0
 70
     0
  0
VERTEX
  8
1
 10
-8.42371366024017
 20
-12.8366104841232
 30
0.0
 70
     0
  0
VERTEX
  8
1
 10
-8.34406130313873
 20
-12.7801080584526
 30
0.0
 70
     0
  0
VERTEX
  8
1
 10
-8.26890388727188
 20
-12.7247971177101
 30
0.0
 70
     0
  0
VERTEX
  8
1
 10
-8.19817177057266
 20
-12.6708146750927
 30
0.0
 70
     0
  0
VERTEX
  8
1
 10
-8.13179758191109
 20
-12.6183015286922
 30
0.0
 70
     0
  0
VERTEX
  8
1
 10
-8.06970562338829
 20
-12.5673901498318
 30
0.0
 70
     0
  0
VERTEX
  8
1
 10
-8.01181868314743
 20
-12.5182114958763
 30
0.0
 70
     0
  0
VERTEX
  8
1
 10
-7.9580572783947
 20
-12.4708995521069
 30
0.0
 70
     0
  0
VERTEX
  8
1
 10
-7.91827727556229
 20
-12.4347220122814
 30
0.0
 42
-0.000043633263833
 70
     0
  0
VERTEX
  8
1
 10
-7.70513545870781
 20
-12.567906409502
 30
0.0
 70
     0
  0
VERTEX
  8
1
 10
-7.72021599411964
 20
-12.6195225358009
 30
0.0
 70
     0
  0
VERTEX
  8
1
 10
-7.73917301893234
 20
-12.6885832428932
 30
0.0
 70
     0
  0
VERTEX
  8
1
 10
-7.75799757242203
 20
-12.7621706843376
 30
0.0
 70
     0
  0
VERTEX
  8
1
 10
-7.77653750181198
 20
-12.84029545784
 30
0.0
 70
     0
  0
VERTEX
  8
1
 10
-7.7946398973465
 20
-12.922974216938
 30
0.0
 70
     0
  0
VERTEX
  8
1
 10
-7.81215184926987
 20
-13.0102099895477
 30
0.0
 70
     0
  0
VERTEX
  8
1
 10
-7.82891741991043
 20
-13.102007317543
 30
0.0
 70
     0
  0
VERTEX
  8
1
 10
-7.84478445649147
 20
-13.1983677148819
 30
0.0
 70
     0
  0
VERTEX
  8
1
 10
-7.85959777832031
 20
-13.2992820978165
 30
0.0
 70
     0
  0
VERTEX
  8
1
 10
-7.86701920032501
 20
-13.355122923851
 30
0.0
 70
     0
  0
VERTEX
  8
1
 10
-7.63239280581474
 20
-13.4905812859535
 30
0.0
 70
     0
  0
VERTEX
  8
1
 10
-7.58774542808533
 20
-13.4562356352806
 30
0.0
 70
     0
  0
VERTEX
  8
1
 10
-7.50775621533394
 20
-13.3929476499557
 30
0.0
 70
     0
  0
VERTEX
  8
1
 10
-7.43223923444748
 20
-13.3310267686844
 30
0.0
 70
     0
  0
VERTEX
  8
1
 10
-7.36112332940102
 20
-13.2706077337265
 30
0.0
 70
     0
  0
VERTEX
  8
1
 10
-7.29432901740074
 20
-13.2118237733841
 30
0.0
 70
     0
  0
VERTEX
  8
1
 10
-7.2317798435688
 20
-13.1548081159592
 30
0.0
 70
     0
  0
VERTEX
  8
1
 10
-7.17339102625847
 20
-13.0996894478798
 30
0.0
 70
     0
  0
VERTEX
  8
1
 10
-7.11907475590706
 20
-13.0465919137001
 30
0.0
 70
     0
  0
VERTEX
  8
1
 10
-7.06874549388886
 20
-12.9956457138062
 30
0.0
 70
     0
  0
VERTEX
  8
1
 10
-7.03158539533615
 20
-12.956782412529
 30
0.0
 42
-0.000043633236119
 70
     0
  0
VERTEX
  8
1
 10
-6.80967246294022
 20
-13.0747742414474
 30
0.0
 70
     0
  0
VERTEX
  8
1
 10
-6.82111495733261
 20
-13.1273146390915
 30
0.0
 70
     0
  0
VERTEX
  8
1
 10
-6.83520839214325
 20
-13.1975304961205
 30
0.0
 70
     0
  0
VERTEX
  8
1
 10
-6.84885369539261
 20
-13.2722503781319
 30
0.0
 70
     0
  0
VERTEX
  8
1
 10
-6.86189871430397
 20
-13.3514788269997
 30
0.0
 70
     0
  0
VERTEX
  8
1
 10
-6.87418978214264
 20
-13.4352188706398
 30
0.0
 70
     0
  0
VERTEX
  8
1
 10
-6.88557323217392
 20
-13.5234644532204
 30
0.0
 70
     0
  0
VERTEX
  8
1
 10
-6.89589539766312
 20
-13.6162080049515
 30
0.0
 70
     0
  0
VERTEX
  8
1
 10
-6.90500261187553
 20
-13.7134404420853
 30
0.0
 70
     0
  0
VERTEX
  8
1
 10
-6.91273893713951
 20
-13.815142083168
 30
0.0
 70
     0
  0
VERTEX
  8
1
 10
-6.91624753475189
 20
-13.8713659405708
 30
0.0
 70
     0
  0
VERTEX
  8
1
 10
-6.67274329066277
 20
-13.9901253461838
 30
0.0
 70
     0
  0
VERTEX
  8
1
 10
-6.63060075640678
 20
-13.9527502655983
 30
0.0
 70
     0
  0
VERTEX
  8
1
 10
-6.55522154569626
 20
-13.8840362548828
 30
0.0
 70
     0
  0
VERTEX
  8
1
 10
-6.48420783281326
 20
-13.8169981956482
 30
0.0
 70
     0
  0
VERTEX
  8
1
 10
-6.417479377985
 20
-13.7517662882805
 30
0.0
 70
     0
  0
VERTEX
  8
1
 10
-6.35494837164879
 20
-13.6884661912918
 30
0.0
 70
     0
  0
VERTEX
  8
1
 10
-6.29652813971043
 20
-13.6272250771523
 30
0.0
 70
     0
  0
VERTEX
  8
1
 10
-6.2421263307333
 20
-13.5681686043739
 30
0.0
 70
     0
  0
VERTEX
  8
1
 10
-6.19164718687534
 20
-13.5114133477211
 30
0.0
 70
     0
  0
VERTEX
  8
1
 10
-6.14499381482601
 20
-13.457077395916
 30
0.0
 70
     0
  0
VERTEX
  8
1
 10
-6.11063605248928
 20
-13.4157160639763
 30
0.0
 42
-0.000043633373453
 70
     0
  0
VERTEX
  8
1
 10
-5.88103259205818
 20
-13.5179415345192
 30
0.0
 70
     0
  0
VERTEX
  8
1
 10
-5.88878178596497
 20
-13.5711541295052
 30
0.0
 70
     0
  0
VERTEX
  8
1
 10
-5.89794312417507
 20
-13.6421814680099
 30
0.0
 70
     0
  0
VERTEX
  8
1
 10
-5.90634332001209
 20
-13.7176704406738
 30
0.0
 70
     0
  0
VERTEX
  8
1
 10
-5.91382984220982
 20
-13.7976165056229
 30
0.0
 70
     0
  0
VERTEX
  8
1
 10
-5.92024978101253
 20
-13.8820090651512
 30
0.0
 70
     0
  0
VERTEX
  8
1
 10
-5.92544984817505
 20
-13.9708329796791
 30
0.0
 70
     0
  0
VERTEX
  8
1
 10
-5.92927675545216
 20
-14.0640715956688
 30
0.0
 70
     0
  0
VERTEX
  8
1
 10
-5.93157872855663
 20
-14.1617022037506
 30
0.0
 70
     0
  0
VERTEX
  8
1
 10
-5.93220285773277
 20
-14.263696038723
 30
0.0
 70
     0
  0
VERTEX
  8
1
 10
-5.9317808419466
 20
-14.3200273871422
 30
0.0
 70
     0
  0
VERTEX
  8
1
 10
-5.68058569133282
 20
-14.4215125322342
 30
0.0
 70
     0
  0
VERTEX
  8
1
 10
-5.6411527633667
 20
-14.3812866687775
 30
0.0
 70
     0
  0
VERTEX
  8
1
 10
-5.57074993252754
 20
-14.3074842453003
 30
0.0
 70
     0
  0
VERTEX
  8
1
 10
-5.50458580553532
 20
-14.2356545090675
 30
0.0
 70
     0
  0
VERTEX
  8
1
 10
-5.44257030189037
 20
-14.1659276604652
 30
0.0
 70
     0
  0
VERTEX
  8
1
 10
-5.38460728526115
 20
-14.0984187602997
 30
0.0
 70
     0
  0
VERTEX
  8
1
 10
-5.33060175478458
 20
-14.033251953125
 30
0.0
 70
     0
  0
VERTEX
  8
1
 10
-5.28045227527618
 20
-13.9705438137054
 30
0.0
 70
     0
  0
VERTEX
  8
1
 10
-5.23405476212502
 20
-13.9104048609734
 30
0.0
 70
     0
  0
VERTEX
  8
1
 10
-5.19130513072014
 20
-13.852950155735
 30
0.0
 70
     0
  0
VERTEX
  8
1
 10
-5.15991623997688
 20
-13.8092906355858
 30
0.0
 42
-0.000043633389363
 70
     0
  0
VERTEX
  8
1
 10
-4.92374144494534
 20
-13.8952516555786
 30
0.0
 70
     0
  0
VERTEX
  8
1
 10
-4.92775986790657
 20
-13.9488745331764
 30
0.0
 70
     0
  0
VERTEX
  8
1
 10
-4.93194406926632
 20
-14.0203681707382
 30
0.0
 70
     0
  0
VERTEX
  8
1
 10
-4.93505790233612
 20
-14.0962598562241
 30
0.0
 70
     0
  0
VERTEX
  8
1
 10
-4.93694959282875
 20
-14.1765329360962
 30
0.0
 70
     0
  0
VERTEX
  8
1
 10
-4.93746698796749
 20
-14.2611677289009
 30
0.0
 70
     0
  0
VERTEX
  8
1
 10
-4.93645793497562
 20
-14.3501384973526
 30
0.0
 70
     0
  0
VERTEX
  8
1
 10
-4.93377141654491
 20
-14.4434164762497
 30
0.0
 70
     0
  0
VERTEX
  8
1
 10
-4.9292579293251
 20
-14.5409698724747
 30
0.0
 70
     0
  0
VERTEX
  8
1
 10
-4.92276569902897
 20
-14.6427578091621
 30
0.0
 70
     0
  0
VERTEX
  8
1
 10
-4.91841496229172
 20
-14.6989226222038
 30
0.0
 70
     0
  0
VERTEX
  8
1
 10
-4.66075256168842
 20
-14.7826399564743
 30
0.0
 70
     0
  0
VERTEX
  8
1
 10
-4.62422151267528
 20
-14.7397601246834
 30
0.0
 70
     0
  0
VERTEX
  8
1
 10
-4.55913873016834
 20
-14.6612265825272
 30
0.0
 70
     0
  0
VERTEX
  8
1
 10
-4.49814628362656
 20
-14.584956407547
 30
0.0
 70
     0
  0
VERTEX
  8
1
 10
-4.4411457657814
 20
-14.511073744297
 30
0.0
 70
     0
  0
VERTEX
  8
1
 10
-4.38803309202194
 20
-14.4396860837936
 30
0.0
 70
     0
  0
VERTEX
  8
1
 10
-4.33870455622673
 20
-14.370913028717
 30
0.0
 70
     0
  0
VERTEX
  8
1
 10
-4.2930515319109
 20
-14.3048590421677
 30
0.0
 70
     0
  0
VERTEX
  8
1
 10
-4.25096236467361
 20
-14.2416285872459
 30
0.0
 70
     0
  0
VERTEX
  8
1
 10
-4.21232502162457
 20
-14.1813306689262
 30
0.0
 70
     0
  0
VERTEX
  8
1
 10
-4.184057533741
 20
-14.1355894565582
 30
0.0
 42
-0.00004363328515
 70
     0
  0
VERTEX
  8
1
 10
-3.94246201217175
 20
-14.2048651456833
 30
0.0
 70
     0
  0
VERTEX
  8
1
 10
-3.94272998273373
 20
-14.2586379051209
 30
0.0
 70
     0
  0
VERTEX
  8
1
 10
-3.94191698729992
 20
-14.3302481174469
 30
0.0
 70
     0
  0
VERTEX
  8
1
 10
-3.93972969651222
 20
-14.4061731100082
 30
0.0
 70
     0
  0
VERTEX
  8
1
 10
-3.93601671457291
 20
-14.4863826036453
 30
0.0
 70
     0
  0
VERTEX
  8
1
 10
-3.9306292951107
 20
-14.5708478331566
 30
0.0
 70
     0
  0
VERTEX
  8
1
 10
-3.92341642081738
 20
-14.6595309495926
 30
0.0
 70
     0
  0
VERTEX
  8
1
 10
-3.91423010230064
 20
-14.7523925900459
 30
0.0
 70
     0
  0
VERTEX
  8
1
 10
-3.90292197167873
 20
-14.8493933916092
 30
0.0
 70
     0
  0
VERTEX
  8
1
 10
-3.88934517502785
 20
-14.9504818797112
 30
0.0
 70
     0
  0
VERTEX
  8
1
 10
-3.88108766973019
 20
-15.0062076449394
 30
0.0
 70
     0
  0
VERTEX
  8
1
 10
-3.61821309030056
 20
-15.0717453718185
 30
0.0
 70
     0
  0
VERTEX
  8
1
 10
-3.58476181030273
 20
-15.0264235258102
 30
0.0
 70
     0
  0
VERTEX
  8
1
 10
-3.52531549334526
 20
-14.9435403823853
 30
0.0
 70
     0
  0
VERTEX
  8
1
 10
-3.46979221999645
 20
-14.8632037162781
 30
0.0
 70
     0
  0
VERTEX
  8
1
 10
-3.41808412075043
 20
-14.7855225324631
 30
0.0
 70
     0
  0
VERTEX
  8
1
 10
-3.37008105516434
 20
-14.7106028079987
 30
0.0
 70
     0
  0
VERTEX
  8
1
 10
-3.32567023336887
 20
-14.6385565757751
 30
0.0
 70
     0
  0
VERTEX
  8
1
 10
-3.28473621606827
 20
-14.5694777011871
 30
0.0
 70
     0
  0
VERTEX
  8
1
 10
-3.24715977907181
 20
-14.5034676194191
 30
0.0
 70
     0
  0
VERTEX
  8
1
 10
-3.21282245516777
 20
-14.4406217098236
 30
0.0
 70
     0
  0
VERTEX
  8
1
 10
-3.18781489729881
 20
-14.3930198431015
 30
0.0
 42
-0.000043633247205
 70
     0
  0
VERTEX
  8
1
 10
-2.9419757515192
 20
-14.4452741026878
 30
0.0
 70
     0
  0
VERTEX
  8
1
 10
-2.9384919449687
 20
-14.4989348292351
 30
0.0
 70
     0
  0
VERTEX
  8
1
 10
-2.93268534839153
 20
-14.5703134059906
 30
0.0
 70
     0
  0
VERTEX
  8
1
 10
-2.92520696371794
 20
-14.645900785923
 30
0.0
 70
     0
  0
VERTEX
  8
1
 10
-2.91590804457664
 20
-14.7256545782089
 30
0.0
 70
     0
  0
VERTEX
  8
1
 10
-2.90464154779911
 20
-14.8095399618149
 30
0.0
 70
     0
  0
VERTEX
  8
1
 10
-2.89126024097204
 20
-14.8975039482117
 30
0.0
 70
     0
  0
VERTEX
  8
1
 10
-2.87561840564013
 20
-14.989499604702
 30
0.0
 70
     0
  0
VERTEX
  8
1
 10
-2.85757164806128
 20
-15.0854754567146
 30
0.0
 70
     0
  0
VERTEX
  8
1
 10
-2.8369763314724
 20
-15.1853694319725
 30
0.0
 70
     0
  0
VERTEX
  8
1
 10
-2.82485160976648
 20
-15.2403821229935
 30
0.0
 70
     0
  0
VERTEX
  8
1
 10
-2.55804584920406
 20
-15.287423825264
 30
0.0
 70
     0
  0
VERTEX
  8
1
 10
-2.52783765643835
 20
-15.239879488945
 30
0.0
 70
     0
  0
VERTEX
  8
1
 10
-2.474317727983
 20
-15.1530524849892
 30
0.0
 70
     0
  0
VERTEX
  8
1
 10
-2.42453368008137
 20
-15.0690369009972
 30
0.0
 70
     0
  0
VERTEX
  8
1
 10
-2.37837064117193
 20
-14.9879387140274
 30
0.0
 70
     0
  0
VERTEX
  8
1
 10
-2.33571014404297
 20
-14.9098533034325
 30
0.0
 70
     0
  0
VERTEX
  8
1
 10
-2.29643334299326
 20
-14.8348836183548
 30
0.0
 70
     0
  0
VERTEX
  8
1
 10
-2.26041760742664
 20
-14.7631174683571
 30
0.0
 70
     0
  0
VERTEX
  8
1
 10
-2.2275376573205
 20
-14.6946487188339
 30
0.0
 70
     0
  0
VERTEX
  8
1
 10
-2.19766802340746
 20
-14.6295591235161
 30
0.0
 70
     0
  0
VERTEX
  8
1
 10
-2.17604189068079
 20
-14.5803282380104
 30
0.0
 42
-0.000043633300179
 70
     0
  0
VERTEX
  8
1
 10
-1.92715628296137
 20
-14.6153067231178
 30
0.0
 70
     0
  0
VERTEX
  8
1
 10
-1.91993773132563
 20
-14.6685935020447
 30
0.0
 70
     0
  0
VERTEX
  8
1
 10
-1.90916629880667
 20
-14.7393937468529
 30
0.0
 70
     0
  0
VERTEX
  8
1
 10
-1.89643334448338
 20
-14.8142741084099
 30
0.0
 70
     0
  0
VERTEX
  8
1
 10
-1.88159371763468
 20
-14.8931876540184
 30
0.0
 70
     0
  0
VERTEX
  8
1
 10
-1.86450302451849
 20
-14.9760798811913
 30
0.0
 70
     0
  0
VERTEX
  8
1
 10
-1.8450183853507
 20
-15.0628978013992
 30
0.0
 70
     0
  0
VERTEX
  8
1
 10
-1.82299729883671
 20
-15.1535778284073
 30
0.0
 70
     0
  0
VERTEX
  8
1
 10
-1.7982997238636
 20
-15.2480609178543
 30
0.0
 70
     0
  0
VERTEX
  8
1
 10
-1.77078618705273
 20
-15.3462759137154
 30
0.0
 70
     0
  0
VERTEX
  8
1
 10
-1.75485367178917
 20
-15.400307559967
 30
0.0
 70
     0
  0
VERTEX
  8
1
 10
-1.48541589528322
 20
-15.4286231160164
 30
0.0
 70
     0
  0
VERTEX
  8
1
 10
-1.45859802216291
 20
-15.3790879249573
 30
0.0
 70
     0
  0
VERTEX
  8
1
 10
-1.41126535609365
 20
-15.2887379407883
 30
0.0
 70
     0
  0
VERTEX
  8
1
 10
-1.36746314540505
 20
-15.2014552354813
 30
0.0
 70
     0
  0
VERTEX
  8
1
 10
-1.32706961110234
 20
-15.1173336744308
 30
0.0
 70
     0
  0
VERTEX
  8
1
 10
-1.28996004089713
 20
-15.0364640951157
 30
0.0
 70
     0
  0
VERTEX
  8
1
 10
-1.25600849241018
 20
-14.9589358210564
 30
0.0
 70
     0
  0
VERTEX
  8
1
 10
-1.22508646845818
 20
-14.8848336338997
 30
0.0
 70
     0
  0
VERTEX
  8
1
 10
-1.19706301167607
 20
-14.8142362594604
 30
0.0
 70
     0
  0
VERTEX
  8
1
 10
-1.1718065969646
 20
-14.7472224235535
 30
0.0
 70
     0
  0
VERTEX
  8
1
 10
-1.15366720408201
 20
-14.6966032385826
 30
0.0
 42
-0.000043633301109
 70
     0
  0
VERTEX
  8
1
 10
-0.902947909384966
 20
-14.7141348719597
 30
0.0
 70
     0
  0
VERTEX
  8
1
 10
-0.892030001431704
 20
-14.766787302494
 30
0.0
 70
     0
  0
VERTEX
  8
1
 10
-0.876345869898796
 20
-14.8366655468941
 30
0.0
 70
     0
  0
VERTEX
  8
1
 10
-0.858420607447624
 20
-14.9104740262032
 30
0.0
 70
     0
  0
VERTEX
  8
1
 10
-0.838112469762564
 20
-14.9881597518921
 30
0.0
 70
     0
  0
VERTEX
  8
1
 10
-0.815281226485968
 20
-15.0696591377258
 30
0.0
 70
     0
  0
VERTEX
  8
1
 10
-0.789787735417485
 20
-15.1549055695534
 30
0.0
 70
     0
  0
VERTEX
  8
1
 10
-0.76149469949305
 20
-15.2438278913498
 30
0.0
 70
     0
  0
VERTEX
  8
1
 10
-0.730266430228949
 20
-15.3363579750061
 30
0.0
 70
     0
  0
VERTEX
  8
1
 10
-0.695968800410628
 20
-15.4324155807495
 30
0.0
 70
     0
  0
VERTEX
  8
1
 10
-0.67630598731339
 20
-15.4852042675018
 30
0.0
 70
     0
  0
VERTEX
  8
1
 10
-0.405549553409219
 20
-15.4946559071541
 30
0.0
 70
     0
  0
VERTEX
  8
1
 10
-0.382252342253923
 20
-15.4433690667152
 30
0.0
 70
     0
  0
VERTEX
  8
1
 10
-0.341337485983968
 20
-15.3499381780624
 30
0.0
 70
     0
  0
VERTEX
  8
1
 10
-0.303730627894402
 20
-15.2598122596741
 30
0.0
 70
     0
  0
VERTEX
  8
1
 10
-0.269303436391056
 20
-15.1730791211128
 30
0.0
 70
     0
  0
VERTEX
  8
1
 10
-0.237925450876355
 20
-15.0898174881935
 30
0.0
 70
     0
  0
VERTEX
  8
1
 10
-0.209464696794748
 20
-15.0101091146469
 30
0.0
 70
     0
  0
VERTEX
  8
1
 10
-0.183787141554058
 20
-14.9340312123299
 30
0.0
 70
     0
  0
VERTEX
  8
1
 10
-0.160756576247513
 20
-14.8616503953934
 30
0.0
 70
     0
  0
VERTEX
  8
1
 10
-0.140236318856478
 20
-14.7930393338203
 30
0.0
 70
     0
  0
VERTEX
  8
1
 10
-0.125672090426087
 20
-14.7412786245346
 30
0.0
 42
-0.000043633296855
 70
     0
  0
VERTEX
  8
1
 10
0.125659363716841
 20
-14.7412771105766
 30
0.0
 70
     0
  0
VERTEX
  8
1
 10
0.140223544836044
 20
-14.7930393338203
 30
0.0
 70
     0
  0
VERTEX
  8
1
 10
0.160743920505047
 20
-14.8616534233093
 30
0.0
 70
     0
  0
VERTEX
  8
1
 10
0.183774225600064
 20
-14.9340327262878
 30
0.0
 70
     0
  0
VERTEX
  8
1
 10
0.209451899118721
 20
-15.0101121425629
 30
0.0
 70
     0
  0
VERTEX
  8
1
 10
0.237912724167109
 20
-15.0898190021515
 30
0.0
 70
     0
  0
VERTEX
  8
1
 10
0.269290473125875
 20
-15.1730791211128
 30
0.0
 70
     0
  0
VERTEX
  8
1
 10
0.303717570006847
 20
-15.259813773632
 30
0.0
 70
     0
  0
VERTEX
  8
1
 10
0.341324428096414
 20
-15.3499396920204
 30
0.0
 70
     0
  0
VERTEX
  8
1
 10
0.382239047810435
 20
-15.4433690667152
 30
0.0
 70
     0
  0
VERTEX
  8
1
 10
0.405536353588104
 20
-15.4946574211121
 30
0.0
 70
     0
  0
VERTEX
  8
1
 10
0.676292503625154
 20
-15.4851997256279
 30
0.0
 70
     0
  0
VERTEX
  8
1
 10
0.695955411344767
 20
-15.4324125528336
 30
0.0
 70
     0
  0
VERTEX
  8
1
 10
0.73025313578546
 20
-15.3363564610481
 30
0.0
 70
     0
  0
VERTEX
  8
1
 10
0.761481546983123
 20
-15.2438263773918
 30
0.0
 70
     0
  0
VERTEX
  8
1
 10
0.789774630218744
 20
-15.1549025416374
 30
0.0
 70
     0
  0
VERTEX
  8
1
 10
0.81526807397604
 20
-15.0696545958519
 30
0.0
 70
     0
  0
VERTEX
  8
1
 10
0.838099506497383
 20
-14.9881567239761
 30
0.0
 70
     0
  0
VERTEX
  8
1
 10
0.858407454937696
 20
-14.9104725122452
 30
0.0
 70
     0
  0
VERTEX
  8
1
 10
0.876332906633615
 20
-14.8366594910622
 30
0.0
 70
     0
  0
VERTEX
  8
1
 10
0.892017038166523
 20
-14.7667842745781
 30
0.0
 70
     0
  0
VERTEX
  8
1
 10
0.902935135364532
 20
-14.7141333580017
 30
0.0
 42
-0.000043633291406
 70
     0
  0
VERTEX
  8
1
 10
1.15365433543921
 20
-14.6966017246246
 30
0.0
 70
     0
  0
VERTEX
  8
1
 10
1.17179372832179
 20
-14.7472224235535
 30
0.0
 70
     0
  0
VERTEX
  8
1
 10
1.19705033227801
 20
-14.8142362594604
 30
0.0
 70
     0
  0
VERTEX
  8
1
 10
1.225073505193
 20
-14.8848321199417
 30
0.0
 70
     0
  0
VERTEX
  8
1
 10
1.25599562376738
 20
-14.9589358210564
 30
0.0
 70
     0
  0
VERTEX
  8
1
 10
1.28994717225432
 20
-15.0364640951157
 30
0.0
 70
     0
  0
VERTEX
  8
1
 10
1.32705645859241
 20
-15.1173336744308
 30
0.0
 70
     0
  0
VERTEX
  8
1
 10
1.36744989827275
 20
-15.2014537215233
 30
0.0
 70
     0
  0
VERTEX
  8
1
 10
1.4112519197166
 20
-15.2887364268303
 30
0.0
 70
     0
  0
VERTEX
  8
1
 10
1.45858439654112
 20
-15.3790848970413
 30
0.0
 70
     0
  0
VERTEX
  8
1
 10
1.48540264815092
 20
-15.4286231160164
 30
0.0
 70
     0
  0
VERTEX
  8
1
 10
1.75483947843313
 20
-15.4003015041351
 30
0.0
 70
     0
  0
VERTEX
  8
1
 10
1.77077237218618
 20
-15.3462728857994
 30
0.0
 70
     0
  0
VERTEX
  8
1
 10
1.79828590899706
 20
-15.2480563759804
 30
0.0
 70
     0
  0
VERTEX
  8
1
 10
1.82298348397017
 20
-15.1535732865334
 30
0.0
 70
     0
  0
VERTEX
  8
1
 10
1.84500475972891
 20
-15.0628932595253
 30
0.0
 70
     0
  0
VERTEX
  8
1
 10
1.86448958814144
 20
-14.9760738253593
 30
0.0
 70
     0
  0
VERTEX
  8
1
 10
1.88158028125763
 20
-14.8931815981865
 30
0.0
 70
     0
  0
VERTEX
  8
1
 10
1.89641971886158
 20
-14.8142695665359
 30
0.0
 70
     0
  0
VERTEX
  8
1
 10
1.90915267318487
 20
-14.739387691021
 30
0.0
 70
     0
  0
VERTEX
  8
1
 10
1.91992429494858
 20
-14.6685874462128
 30
0.0
 70
     0
  0
VERTEX
  8
1
 10
1.92714303582907
 20
-14.6153036952019
 30
0.0
 42
-0.000043633284159
 70
     0
  0
VERTEX
  8
1
 10
2.17602845430374
 20
-14.5803252100945
 30
0.0
 70
     0
  0
VERTEX
  8
1
 10
2.19765458703041
 20
-14.6295576095581
 30
0.0
 70
     0
  0
VERTEX
  8
1
 10
2.2275244101882
 20
-14.6946472048759
 30
0.0
 70
     0
  0
VERTEX
  8
1
 10
2.26040398180485
 20
-14.7631174683571
 30
0.0
 70
     0
  0
VERTEX
  8
1
 10
2.29641971737146
 20
-14.8348805904388
 30
0.0
 70
     0
  0
VERTEX
  8
1
 10
2.33569689691067
 20
-14.9098533034325
 30
0.0
 70
     0
  0
VERTEX
  8
1
 10
2.37835701555014
 20
-14.9879356861114
 30
0.0
 70
     0
  0
VERTEX
  8
1
 10
2.42451986521482
 20
-15.0690338730812
 30
0.0
 70
     0
  0
VERTEX
  8
1
 10
2.47430391311645
 20
-15.1530494570732
 30
0.0
 70
     0
  0
VERTEX
  8
1
 10
2.52782327383757
 20
-15.2398749470711
 30
0.0
 70
     0
  0
VERTEX
  8
1
 10
2.55803184509277
 20
-15.287423825264
 30
0.0
 70
     0
  0
VERTEX
  8
1
 10
2.8248368486762
 20
-15.2403745532036
 30
0.0
 70
     0
  0
VERTEX
  8
1
 10
2.83696194887161
 20
-15.1853648900986
 30
0.0
 70
     0
  0
VERTEX
  8
1
 10
2.85755726546049
 20
-15.0854694008827
 30
0.0
 70
     0
  0
VERTEX
  8
1
 10
2.87560383379459
 20
-14.9894935488701
 30
0.0
 70
     0
  0
VERTEX
  8
1
 10
2.89124585837126
 20
-14.8974978923798
 30
0.0
 70
     0
  0
VERTEX
  8
1
 10
2.90462697595358
 20
-14.809530878067
 30
0.0
 70
     0
  0
VERTEX
  8
1
 10
2.91589385122061
 20
-14.725648522377
 30
0.0
 70
     0
  0
VERTEX
  8
1
 10
2.92519258111715
 20
-14.6458947300911
 30
0.0
 70
     0
  0
VERTEX
  8
1
 10
2.93267096579075
 20
-14.5703073501587
 30
0.0
 70
     0
  0
VERTEX
  8
1
 10
2.93847775161266
 20
-14.4989272594452
 30
0.0
 70
     0
  0
VERTEX
  8
1
 10
2.94196174740791
 20
-14.4452695608139
 30
0.0
 42
-0.000043633325844
 70
     0
  0
VERTEX
  8
1
 10
3.18780089318752
 20
-14.3930137872696
 30
0.0
 70
     0
  0
VERTEX
  8
1
 10
3.21280845105648
 20
-14.4406171679497
 30
0.0
 70
     0
  0
VERTEX
  8
1
 10
3.24714577496052
 20
-14.5034661054611
 30
0.0
 70
     0
  0
VERTEX
  8
1
 10
3.28472145497799
 20
-14.5694761872292
 30
0.0
 70
     0
  0
VERTEX
  8
1
 10
3.32565585076809
 20
-14.6385520339012
 30
0.0
 70
     0
  0
VERTEX
  8
1
 10
3.37006705105305
 20
-14.7106028079987
 30
0.0
 70
     0
  0
VERTEX
  8
1
 10
3.41806973814964
 20
-14.7855179905891
 30
0.0
 70
     0
  0
VERTEX
  8
1
 10
3.46977745890617
 20
-14.8631991744041
 30
0.0
 70
     0
  0
VERTEX
  8
1
 10
3.52530073225498
 20
-14.9435373544693
 30
0.0
 70
     0
  0
VERTEX
  8
1
 10
3.58474629223347
 20
-15.0264189839363
 30
0.0
 70
     0
  0
VERTEX
  8
1
 10
3.61819832921028
 20
-15.0717423439026
 30
0.0
 70
     0
  0
VERTEX
  8
1
 10
3.88107139468193
 20
-15.0061985611916
 30
0.0
 70
     0
  0
VERTEX
  8
1
 10
3.88932965695858
 20
-14.9504773378372
 30
0.0
 70
     0
  0
VERTEX
  8
1
 10
3.90290645360947
 20
-14.8493873357773
 30
0.0
 70
     0
  0
VERTEX
  8
1
 10
3.91421382725239
 20
-14.752386534214
 30
0.0
 70
     0
  0
VERTEX
  8
1
 10
3.92340052425861
 20
-14.6595233798027
 30
0.0
 70
     0
  0
VERTEX
  8
1
 10
3.93061302006245
 20
-14.5708387494087
 30
0.0
 70
     0
  0
VERTEX
  8
1
 10
3.93600119650364
 20
-14.4863750338554
 30
0.0
 70
     0
  0
VERTEX
  8
1
 10
3.93971379995346
 20
-14.4061655402184
 30
0.0
 70
     0
  0
VERTEX
  8
1
 10
3.94190109074116
 20
-14.330240547657
 30
0.0
 70
     0
  0
VERTEX
  8
1
 10
3.94271446466446
 20
-14.258630335331
 30
0.0
 70
     0
  0
VERTEX
  8
1
 10
3.94244725108147
 20
-14.2048590898514
 30
0.0
 42
-0.000043633311521
 70
     0
  0
VERTEX
  8
1
 10
4.18404277265072
 20
-14.1355834007263
 30
0.0
 70
     0
  0
VERTEX
  8
1
 10
4.21230988204479
 20
-14.1813261270523
 30
0.0
 70
     0
  0
VERTEX
  8
1
 10
4.25094760358334
 20
-14.24162555933
 30
0.0
 70
     0
  0
VERTEX
  8
1
 10
4.29303639233112
 20
-14.3048529863358
 30
0.0
 70
     0
  0
VERTEX
  8
1
 10
4.33868979513645
 20
-14.3709069728851
 30
0.0
 70
     0
  0
VERTEX
  8
1
 10
4.38801833093166
 20
-14.4396830558777
 30
0.0
 70
     0
  0
VERTEX
  8
1
 10
4.44113062620163
 20
-14.5110676884651
 30
0.0
 70
     0
  0
VERTEX
  8
1
 10
4.49813076555729
 20
-14.584953379631
 30
0.0
 70
     0
  0
VERTEX
  8
1
 10
4.55912283360958
 20
-14.6612220406532
 30
0.0
 70
     0
  0
VERTEX
  8
1
 10
4.62420561611652
 20
-14.7397555828094
 30
0.0
 70
     0
  0
VERTEX
  8
1
 10
4.66073742210865
 20
-14.7826354146004
 30
0.0
 70
     0
  0
VERTEX
  8
1
 10
4.91839793026447
 20
-14.698912024498
 30
0.0
 70
     0
  0
VERTEX
  8
1
 10
4.92274904549122
 20
-14.6427517533302
 30
0.0
 70
     0
  0
VERTEX
  8
1
 10
4.92924127578735
 20
-14.5409623026848
 30
0.0
 70
     0
  0
VERTEX
  8
1
 10
4.93375514149666
 20
-14.4434073925018
 30
0.0
 70
     0
  0
VERTEX
  8
1
 10
4.93644128143787
 20
-14.3501309275627
 30
0.0
 70
     0
  0
VERTEX
  8
1
 10
4.93744957745075
 20
-14.261158645153
 30
0.0
 70
     0
  0
VERTEX
  8
1
 10
4.93693256080151
 20
-14.1765238523483
 30
0.0
 70
     0
  0
VERTEX
  8
1
 10
4.93504124879837
 20
-14.0962522864342
 30
0.0
 70
     0
  0
VERTEX
  8
1
 10
4.93192741572857
 20
-14.0203590869904
 30
0.0
 70
     0
  0
VERTEX
  8
1
 10
4.92774321436882
 20
-13.9488669633865
 30
0.0
 70
     0
  0
VERTEX
  8
1
 10
4.92372592687607
 20
-13.8952455997467
 30
0.0
 42
-0.000043633208912
 70
     0
  0
VERTEX
  8
1
 10
5.15989996492863
 20
-13.8092860937119
 30
0.0
 70
     0
  0
VERTEX
  8
1
 10
5.19128923416138
 20
-13.8529456138611
 30
0.0
 70
     0
  0
VERTEX
  8
1
 10
5.23403924405575
 20
-13.9104018330574
 30
0.0
 70
     0
  0
VERTEX
  8
1
 10
5.28043600022793
 20
-13.9705392718315
 30
0.0
 70
     0
  0
VERTEX
  8
1
 10
5.33058547973633
 20
-14.033248925209
 30
0.0
 70
     0
  0
VERTEX
  8
1
 10
5.38459176719189
 20
-14.0984157323837
 30
0.0
 70
     0
  0
VERTEX
  8
1
 10
5.44255364835262
 20
-14.1659231185913
 30
0.0
 70
     0
  0
VERTEX
  8
1
 10
5.50456915199757
 20
-14.2356514811516
 30
0.0
 70
     0
  0
VERTEX
  8
1
 10
5.5707329005003
 20
-14.3074797034264
 30
0.0
 70
     0
  0
VERTEX
  8
1
 10
5.64113497436047
 20
-14.3812806129456
 30
0.0
 70
     0
  0
VERTEX
  8
1
 10
5.68056941628456
 20
-14.4215079903603
 30
0.0
 70
     0
  0
VERTEX
  8
1
 10
5.93176191747189
 20
-14.3200167894363
 30
0.0
 70
     0
  0
VERTEX
  8
1
 10
5.93218506872654
 20
-14.2636899828911
 30
0.0
 70
     0
  0
VERTEX
  8
1
 10
5.93156056106091
 20
-14.1616946339607
 30
0.0
 70
     0
  0
VERTEX
  8
1
 10
5.92925858795643
 20
-14.0640640258789
 30
0.0
 70
     0
  0
VERTEX
  8
1
 10
5.92543168067932
 20
-13.9708254098892
 30
0.0
 70
     0
  0
VERTEX
  8
1
 10
5.92023123502731
 20
-13.8819999814034
 30
0.0
 70
     0
  0
VERTEX
  8
1
 10
5.91381205320358
 20
-13.797607421875
 30
0.0
 70
     0
  0
VERTEX
  8
1
 10
5.90632515251636
 20
-13.7176628708839
 30
0.0
 70
     0
  0
VERTEX
  8
1
 10
5.89792457818985
 20
-13.6421723842621
 30
0.0
 70
     0
  0
VERTEX
  8
1
 10
5.88876399695873
 20
-13.5711465597153
 30
0.0
 70
     0
  0
VERTEX
  8
1
 10
5.88101593852043
 20
-13.5179354786873
 30
0.0
 42
-0.00004363323031
 70
     0
  0
VERTEX
  8
1
 10
6.11061826348305
 20
-13.4157100081444
 30
0.0
 70
     0
  0
VERTEX
  8
1
 10
6.14497678279877
 20
-13.457074368
 30
0.0
 70
     0
  0
VERTEX
  8
1
 10
6.19163091182709
 20
-13.5114088058472
 30
0.0
 70
     0
  0
VERTEX
  8
1
 10
6.24210929870605
 20
-13.5681640625
 30
0.0
 70
     0
  0
VERTEX
  8
1
 10
6.29651110768318
 20
-13.6272205352783
 30
0.0
 70
     0
  0
VERTEX
  8
1
 10
6.35493096113205
 20
-13.6884631633759
 30
0.0
 70
     0
  0
VERTEX
  8
1
 10
6.41746121048927
 20
-13.7517617464066
 30
0.0
 70
     0
  0
VERTEX
  8
1
 10
6.48418966531754
 20
-13.8169936537743
 30
0.0
 70
     0
  0
VERTEX
  8
1
 10
6.55520337820053
 20
-13.8840332269669
 30
0.0
 70
     0
  0
VERTEX
  8
1
 10
6.63058107495308
 20
-13.9527426958084
 30
0.0
 70
     0
  0
VERTEX
  8
1
 10
6.67272588014603
 20
-13.9901223182678
 30
0.0
 70
     0
  0
VERTEX
  8
1
 10
6.9162270963192
 20
-13.871356856823
 30
0.0
 70
     0
  0
VERTEX
  8
1
 10
6.91271925568581
 20
-13.8151345133781
 30
0.0
 70
     0
  0
VERTEX
  8
1
 10
6.90498217344284
 20
-13.7134313583374
 30
0.0
 70
     0
  0
VERTEX
  8
1
 10
6.89587495923042
 20
-13.6162004351616
 30
0.0
 70
     0
  0
VERTEX
  8
1
 10
6.88555355072021
 20
-13.5234568834305
 30
0.0
 70
     0
  0
VERTEX
  8
1
 10
6.87417010068893
 20
-13.4352097868919
 30
0.0
 70
     0
  0
VERTEX
  8
1
 10
6.86187903285026
 20
-13.3514712572098
 30
0.0
 70
     0
  0
VERTEX
  8
1
 10
6.8488340139389
 20
-13.272242808342
 30
0.0
 70
     0
  0
VERTEX
  8
1
 10
6.83518795371056
 20
-13.1975214123726
 30
0.0
 70
     0
  0
VERTEX
  8
1
 10
6.82109527587891
 20
-13.1273070693016
 30
0.0
 70
     0
  0
VERTEX
  8
1
 10
6.80965429544449
 20
-13.0747681856155
 30
0.0
 42
-0.000043633285113
 70
     0
  0
VERTEX
  8
1
 10
7.03156647086143
 20
-12.9567748427391
 30
0.0
 70
     0
  0
VERTEX
  8
1
 10
7.06872656941414
 20
-12.9956426858902
 30
0.0
 70
     0
  0
VERTEX
  8
1
 10
7.11905583143234
 20
-13.0465903997421
 30
0.0
 70
     0
  0
VERTEX
  8
1
 10
7.17337058782578
 20
-13.0996864199638
 30
0.0
 70
     0
  0
VERTEX
  8
1
 10
7.2317601621151
 20
-13.1548035740852
 30
0.0
 70
     0
  0
VERTEX
  8
1
 10
7.29431009292603
 20
-13.2118207454681
 30
0.0
 70
     0
  0
VERTEX
  8
1
 10
7.36110364794731
 20
-13.2706031918526
 30
0.0
 70
     0
  0
VERTEX
  8
1
 10
7.43221955299377
 20
-13.3310222268105
 30
0.0
 70
     0
  0
VERTEX
  8
1
 10
7.50773653388023
 20
-13.3929446220398
 30
0.0
 70
     0
  0
VERTEX
  8
1
 10
7.58772498965263
 20
-13.4562295794487
 30
0.0
 70
     0
  0
VERTEX
  8
1
 10
7.63237388134003
 20
-13.4905782580376
 30
0.0
 70
     0
  0
VERTEX
  8
1
 10
7.86699724793434
 20
-13.3551138401031
 30
0.0
 70
     0
  0
VERTEX
  8
1
 10
7.85957658290863
 20
-13.2992760419846
 30
0.0
 70
     0
  0
VERTEX
  8
1
 10
7.84476326107979
 20
-13.198360145092
 30
0.0
 70
     0
  0
VERTEX
  8
1
 10
7.82889546751976
 20
-13.1019997477531
 30
0.0
 70
     0
  0
VERTEX
  8
1
 10
7.8121298968792
 20
-13.0102024197578
 30
0.0
 70
     0
  0
VERTEX
  8
1
 10
7.79461794495583
 20
-12.9229651331902
 30
0.0
 70
     0
  0
VERTEX
  8
1
 10
7.77651554942131
 20
-12.8402878880501
 30
0.0
 70
     0
  0
VERTEX
  8
1
 10
7.75797562003136
 20
-12.7621616005898
 30
0.0
 70
     0
  0
VERTEX
  8
1
 10
7.73915030956268
 20
-12.6885741591454
 30
0.0
 70
     0
  0
VERTEX
  8
1
 10
7.72019479870796
 20
-12.619514966011
 30
0.0
 70
     0
  0
VERTEX
  8
1
 10
7.70511653423309
 20
-12.5679018676281
 30
0.0
 42
-0.000043633340268
 70
     0
  0
VERTEX
  8
1
 10
7.91825759410858
 20
-12.4347159564495
 30
0.0
 70
     0
  0
VERTEX
  8
1
 10
7.95803759694099
 20
-12.4708957672119
 30
0.0
 70
     0
  0
VERTEX
  8
1
 10
8.01179975867271
 20
-12.5182084679604
 30
0.0
 70
     0
  0
VERTEX
  8
1
 10
8.06968594193459
 20
-12.5673856079578
 30
0.0
 70
     0
  0
VERTEX
  8
1
 10
8.13177714347839
 20
-12.6182969868183
 30
0.0
 70
     0
  0
VERTEX
  8
1
 10
8.19815208911896
 20
-12.6708108901978
 30
0.0
 70
     0
  0
VERTEX
  8
1
 10
8.26888344883919
 20
-12.7247925758362
 30
0.0
 70
     0
  0
VERTEX
  8
1
 10
8.34404086470604
 20
-12.7801035165787
 30
0.0
 70
     0
  0
VERTEX
  8
1
 10
8.42369322180748
 20
-12.8366059422493
 30
0.0
 70
     0
  0
VERTEX
  8
1
 10
8.50790032148361
 20
-12.8941590547562
 30
0.0
 70
     0
  0
VERTEX
  8
1
 10
8.5548368036747
 20
-12.925307226181
 30
0.0
 70
     0
  0
VERTEX
  8
1
 10
8.7794392824173
 20
-12.7738084793091
 30
0.0
 70
     0
  0
VERTEX
  8
1
 10
8.76814137101173
 20
-12.7186231970787
 30
0.0
 70
     0
  0
VERTEX
  8
1
 10
8.74632447957993
 20
-12.618985837698
 30
0.0
 70
     0
  0
VERTEX
  8
1
 10
8.72377483248711
 20
-12.523967564106
 30
0.0
 70
     0
  0
VERTEX
  8
1
 10
8.70064609646797
 20
-12.4335623204708
 30
0.0
 70
     0
  0
VERTEX
  8
1
 10
8.67709118127823
 20
-12.3477595090866
 30
0.0
 70
     0
  0
VERTEX
  8
1
 10
8.65326602458954
 20
-12.2665462613106
 30
0.0
 70
     0
  0
VERTEX
  8
1
 10
8.62932126522064
 20
-12.189905166626
 30
0.0
 70
     0
  0
VERTEX
  8
1
 10
8.60540905594826
 20
-12.1178104877472
 30
0.0
 70
     0
  0
VERTEX
  8
1
 10
8.58168079257011
 20
-12.0502402722836
 30
0.0
 70
     0
  0
VERTEX
  8
1
 10
8.56304018497467
 20
-11.9998050332069
 30
0.0
 42
-0.000043633275772
 70
     0
  0
VERTEX
  8
1
 10
8.76637079715729
 20
-11.8520752847195
 30
0.0
 70
     0
  0
VERTEX
  8
1
 10
8.80857843160629
 20
-11.8853929579258
 30
0.0
 70
     0
  0
VERTEX
  8
1
 10
8.8655085504055
 20
-11.9288405239582
 30
0.0
 70
     0
  0
VERTEX
  8
1
 10
8.92668456435204
 20
-11.973859578371
 30
0.0
 70
     0
  0
VERTEX
  8
1
 10
8.99217611551285
 20
-12.0203153789043
 30
0.0
 70
     0
  0
VERTEX
  8
1
 10
9.0620528459549
 20
-12.0680716693401
 30
0.0
 70
     0
  0
VERTEX
  8
1
 10
9.13637682795525
 20
-12.1169876515865
 30
0.0
 70
     0
  0
VERTEX
  8
1
 10
9.21520937681198
 20
-12.1669210135937
 30
0.0
 70
     0
  0
VERTEX
  8
1
 10
9.29860953688621
 20
-12.2177294433117
 30
0.0
 70
     0
  0
VERTEX
  8
1
 10
9.38662651181221
 20
-12.2692668437958
 30
0.0
 70
     0
  0
VERTEX
  8
1
 10
9.43562197685242
 20
-12.2970668971539
 30
0.0
 70
     0
  0
VERTEX
  8
1
 10
9.64910821914673
 20
-12.1302688479424
 30
0.0
 70
     0
  0
VERTEX
  8
1
 10
9.63398907780647
 20
-12.0760063230991
 30
0.0
 70
     0
  0
VERTEX
  8
1
 10
9.6052753508091
 20
-11.9781342387199
 30
0.0
 70
     0
  0
VERTEX
  8
1
 10
9.57615134119987
 20
-11.8849198460579
 30
0.0
 70
     0
  0
VERTEX
  8
1
 10
9.54677298665047
 20
-11.7963487625122
 30
0.0
 70
     0
  0
VERTEX
  8
1
 10
9.51729016900063
 20
-11.7123975217342
 30
0.0
 70
     0
  0
VERTEX
  8
1
 10
9.48785806894302
 20
-11.6330449283123
 30
0.0
 70
     0
  0
VERTEX
  8
1
 10
9.45862581133842
 20
-11.5582599461079
 30
0.0
 70
     0
  0
VERTEX
  8
1
 10
9.42974252104759
 20
-11.4880092680454
 30
0.0
 70
     0
  0
VERTEX
  8
1
 10
9.40135883688927
 20
-11.4222595870495
 30
0.0
 70
     0
  0
VERTEX
  8
1
 10
9.37924445271492
 20
-11.3732467114925
 30
0.0
 42
-0.000043633288613
 70
     0
  0
VERTEX
  8
1
 10
9.5717752456665
 20
-11.2116937696934
 30
0.0
 70
     0
  0
VERTEX
  8
1
 10
9.6162038564682
 20
-11.2419842839241
 30
0.0
 70
     0
  0
VERTEX
  8
1
 10
9.67602714896202
 20
-11.2813555181026
 30
0.0
 70
     0
  0
VERTEX
  8
1
 10
9.7401939868927
 20
-11.3219977200031
 30
0.0
 70
     0
  0
VERTEX
  8
1
 10
9.80876644253731
 20
-11.3637723624706
 30
0.0
 70
     0
  0
VERTEX
  8
1
 10
9.88180431723595
 20
-11.4065378904343
 30
0.0
 70
     0
  0
VERTEX
  8
1
 10
9.95935984253883
 20
-11.4501489639282
 30
0.0
 70
     0
  0
VERTEX
  8
1
 10
10.0414829790592
 20
-11.4944617569447
 30
0.0
 70
     0
  0
VERTEX
  8
1
 10
10.1282244443893
 20
-11.5393294155598
 30
0.0
 70
     0
  0
VERTEX
  8
1
 10
10.2196220874786
 20
-11.5846013009548
 30
0.0
 70
     0
  0
VERTEX
  8
1
 10
10.2704365730286
 20
-11.6089162230492
 30
0.0
 70
     0
  0
VERTEX
  8
1
 10
10.4717680037022
 20
-11.4276326239109
 30
0.0
 70
     0
  0
VERTEX
  8
1
 10
10.4529010593891
 20
-11.3745562851429
 30
0.0
 70
     0
  0
VERTEX
  8
1
 10
10.4174297809601
 20
-11.2789263725281
 30
0.0
 70
     0
  0
VERTEX
  8
1
 10
10.3818744778633
 20
-11.1879708051682
 30
0.0
 70
     0
  0
VERTEX
  8
1
 10
10.3463895738125
 20
-11.1016646027565
 30
0.0
 70
     0
  0
VERTEX
  8
1
 10
10.3111219227314
 20
-11.0199744582176
 30
0.0
 70
     0
  0
VERTEX
  8
1
 10
10.2762267053127
 20
-10.942867821455
 30
0.0
 70
     0
  0
VERTEX
  8
1
 10
10.2418485045433
 20
-10.8703045725822
 30
0.0
 70
     0
  0
VERTEX
  8
1
 10
10.2081349313259
 20
-10.80223929286
 30
0.0
 70
     0
  0
VERTEX
  8
1
 10
10.1752343535423
 20
-10.738629591465
 30
0.0
 70
     0
  0
VERTEX
  8
1
 10
10.1497551977634
 20
-10.6912790417671
 30
0.0
 42
-0.000043633363696
 70
     0
  0
VERTEX
  8
1
 10
10.3305475175381
 20
-10.5166886508465
 30
0.0
 70
     0
  0
VERTEX
  8
1
 10
10.3769798517227
 20
-10.5438081800938
 30
0.0
 70
     0
  0
VERTEX
  8
1
 10
10.4394033670425
 20
-10.5789092957973
 30
0.0
 70
     0
  0
VERTEX
  8
1
 10
10.506249910593
 20
-10.6149770736694
 30
0.0
 70
     0
  0
VERTEX
  8
1
 10
10.5775694429874
 20
-10.6518661737442
 30
0.0
 70
     0
  0
VERTEX
  8
1
 10
10.653412681818
 20
-10.6894327700138
 30
0.0
 70
     0
  0
VERTEX
  8
1
 10
10.7338205039501
 20
-10.7275284945965
 30
0.0
 70
     0
  0
VERTEX
  8
1
 10
10.8188360571861
 20
-10.7660042226315
 30
0.0
 70
     0
  0
VERTEX
  8
1
 10
10.9084949195385
 20
-10.804711586237
 30
0.0
 70
     0
  0
VERTEX
  8
1
 10
11.0028281271458
 20
-10.8434976756573
 30
0.0
 70
     0
  0
VERTEX
  8
1
 10
11.0552156150341
 20
-10.8642086207867
 30
0.0
 70
     0
  0
VERTEX
  8
1
 10
11.2434111893177
 20
-10.6693221092224
 30
0.0
 70
     0
  0
VERTEX
  8
1
 10
11.2208865225315
 20
-10.6176916003227
 30
0.0
 70
     0
  0
VERTEX
  8
1
 10
11.1788310408592
 20
-10.5247686445713
 30
0.0
 70
     0
  0
VERTEX
  8
1
 10
11.1370177924633
 20
-10.4365147352219
 30
0.0
 70
     0
  0
VERTEX
  8
1
 10
11.0955989301205
 20
-10.3528942942619
 30
0.0
 70
     0
  0
VERTEX
  8
1
 10
11.0547190368176
 20
-10.2738634169102
 30
0.0
 70
     0
  0
VERTEX
  8
1
 10
11.0145295083523
 20
-10.1993789553642
 30
0.0
 70
     0
  0
VERTEX
  8
1
 10
10.9751734137535
 20
-10.1293894350529
 30
0.0
 70
     0
  0
VERTEX
  8
1
 10
10.9367938220501
 20
-10.0638426244259
 30
0.0
 70
     0
  0
VERTEX
  8
1
 10
10.8995360732079
 20
-10.0026825070381
 30
0.0
 70
     0
  0
VERTEX
  8
1
 10
10.8708162903786
 20
-9.95722440481186
 30
0.0
 42
-0.000043633171187
 70
     0
  0
VERTEX
  8
1
 10
11.0389897704124
 20
-9.77044968008995
 30
0.0
 70
     0
  0
VERTEX
  8
1
 10
11.0872002482414
 20
-9.79426272511482
 30
0.0
 70
     0
  0
VERTEX
  8
1
 10
11.1519211947918
 20
-9.82492415904999
 30
0.0
 70
     0
  0
VERTEX
  8
1
 10
11.22111967206
 20
-9.85624113678932
 30
0.0
 70
     0
  0
VERTEX
  8
1
 10
11.2948388278484
 20
-9.88806529045105
 30
0.0
 70
     0
  0
VERTEX
  8
1
 10
11.3731172680855
 20
-9.92024976611137
 30
0.0
 70
     0
  0
VERTEX
  8
1
 10
11.4559875428677
 20
-9.95264468193054
 30
0.0
 70
     0
  0
VERTEX
  8
1
 10
11.5434791743755
 20
-9.98509561419487
 30
0.0
 70
     0
  0
VERTEX
  8
1
 10
11.6356201708317
 20
-10.0174549520016
 30
0.0
 70
     0
  0
VERTEX
  8
1
 10
11.7324286997318
 20
-10.0495660007
 30
0.0
 70
     0
  0
VERTEX
  8
1
 10
11.7861333310604
 20
-10.06657153368
 30
0.0
 70
     0
  0
VERTEX
  8
1
 10
11.9602755904198
 20
-9.85903211832046
 30
0.0
 70
     0
  0
VERTEX
  8
1
 10
11.9342044770718
 20
-9.80909875631332
 30
0.0
 70
     0
  0
VERTEX
  8
1
 10
11.8857699334621
 20
-9.71933618783951
 30
0.0
 70
     0
  0
VERTEX
  8
1
 10
11.837901610136
 20
-9.6342139005661
 30
0.0
 70
     0
  0
VERTEX
  8
1
 10
11.7907509028912
 20
-9.55368647575378
 30
0.0
 70
     0
  0
VERTEX
  8
1
 10
11.7444578528404
 20
-9.47769941091537
 30
0.0
 70
     0
  0
VERTEX
  8
1
 10
11.6991700708866
 20
-9.40619971752167
 30
0.0
 70
     0
  0
VERTEX
  8
1
 10
11.6550283551216
 20
-9.33912683725357
 30
0.0
 70
     0
  0
VERTEX
  8
1
 10
11.6121704757214
 20
-9.27641642689705
 30
0.0
 70
     0
  0
VERTEX
  8
1
 10
11.5707372307777
 20
-9.21800490021706
 30
0.0
 70
     0
  0
VERTEX
  8
1
 10
11.538916105032
 20
-9.1746602833271
 30
0.0
 42
-0.000043633131702
 70
     0
  0
VERTEX
  8
1
 10
11.6936501801014
 20
-8.97660884261131
 30
0.0
 70
     0
  0
VERTEX
  8
1
 10
11.7434048950672
 20
-8.99700109958649
 30
0.0
 70
     0
  0
VERTEX
  8
1
 10
11.8101060986519
 20
-9.02307296991348
 30
0.0
 70
     0
  0
VERTEX
  8
1
 10
11.8813204109669
 20
-9.04948623776436
 30
0.0
 70
     0
  0
VERTEX
  8
1
 10
11.9570803821087
 20
-9.07609102129936
 30
0.0
 70
     0
  0
VERTEX
  8
1
 10
12.0374140202999
 20
-9.10273668169975
 30
0.0
 70
     0
  0
VERTEX
  8
1
 10
12.1223417639732
 20
-9.12927106618881
 30
0.0
 70
     0
  0
VERTEX
  8
1
 10
12.2118840515614
 20
-9.15554050803184
 30
0.0
 70
     0
  0
VERTEX
  8
1
 10
12.306057536602
 20
-9.18139285445213
 30
0.0
 70
     0
  0
VERTEX
  8
1
 10
12.4048713028431
 20
-9.206672924757
 30
0.0
 70
     0
  0
VERTEX
  8
1
 10
12.4596304059029
 20
-9.21989053487778
 30
0.0
 70
     0
  0
VERTEX
  8
1
 10
12.6188715338707
 20
-9.00070953965187
 30
0.0
 70
     0
  0
VERTEX
  8
1
 10
12.589381146431
 20
-8.95271631479263
 30
0.0
 70
     0
  0
VERTEX
  8
1
 10
12.5348022043705
 20
-8.86655091047287
 30
0.0
 70
     0
  0
VERTEX
  8
1
 10
12.4811134696007
 20
-8.78497582674026
 30
0.0
 70
     0
  0
VERTEX
  8
1
 10
12.4284595251083
 20
-8.70793277621269
 30
0.0
 70
     0
  0
VERTEX
  8
1
 10
12.3769788980484
 20
-8.63536044359207
 30
0.0
 70
     0
  0
VERTEX
  8
1
 10
12.3268146574497
 20
-8.56719448566437
 30
0.0
 70
     0
  0
VERTEX
  8
1
 10
12.2781007885933
 20
-8.50336374640465
 30
0.0
 70
     0
  0
VERTEX
  8
1
 10
12.2309727907181
 20
-8.44379555583
 30
0.0
 70
     0
  0
VERTEX
  8
1
 10
12.1855654060841
 20
-8.38841648697853
 30
0.0
 70
     0
  0
VERTEX
  8
1
 10
12.1507981181145
 20
-8.34739806652069
 30
0.0
 42
-0.000043633295861
 70
     0
  0
VERTEX
  8
1
 10
12.2913411080837
 20
-8.13903505802154
 30
0.0
 70
     0
  0
VERTEX
  8
1
 10
12.342397069931
 20
-8.15590584874153
 30
0.0
 70
     0
  0
VERTEX
  8
1
 10
12.4107553005218
 20
-8.17726173996925
 30
0.0
 70
     0
  0
VERTEX
  8
1
 10
12.4836387515068
 20
-8.1986426115036
 30
0.0
 70
     0
  0
VERTEX
  8
1
 10
12.5610693752766
 20
-8.21989782452583
 30
0.0
 70
     0
  0
VERTEX
  8
1
 10
12.6430653393269
 20
-8.24087522625923
 30
0.0
 70
     0
  0
VERTEX
  8
1
 10
12.7296357274055
 20
-8.26142039299011
 30
0.0
 70
     0
  0
VERTEX
  8
1
 10
12.8207941651344
 20
-8.28137890100479
 30
0.0
 70
     0
  0
VERTEX
  8
1
 10
12.9165414094925
 20
-8.30060011148453
 30
0.0
 70
     0
  0
VERTEX
  8
1
 10
13.0168759465218
 20
-8.31892581582069
 30
0.0
 70
     0
  0
VERTEX
  8
1
 10
13.0724245786667
 20
-8.32829191684723
 30
0.0
 70
     0
  0
VERTEX
  8
1
 10
13.2159886717796
 20
-8.09853668212891
 30
0.0
 70
     0
  0
VERTEX
  8
1
 10
13.183222079277
 20
-8.05271750092506
 30
0.0
 70
     0
  0
VERTEX
  8
1
 10
13.1227667093277
 20
-7.97056862711906
 30
0.0
 70
     0
  0
VERTEX
  8
1
 10
13.0635179638863
 20
-7.89293664693832
 30
0.0
 70
     0
  0
VERTEX
  8
1
 10
13.0056166410446
 20
-7.81975570321083
 30
0.0
 70
     0
  0
VERTEX
  8
1
 10
12.9492005109787
 20
-7.75095085501671
 30
0.0
 70
     0
  0
VERTEX
  8
1
 10
12.8944028019905
 20
-7.68644943237305
 30
0.0
 70
     0
  0
VERTEX
  8
1
 10
12.8413552284241
 20
-7.62617270946503
 30
0.0
 70
     0
  0
VERTEX
  8
1
 10
12.7901864767075
 20
-7.5700374186039
 30
0.0
 70
     0
  0
VERTEX
  8
1
 10
12.7410267472267
 20
-7.51796029210091
 30
0.0
 70
     0
  0
VERTEX
  8
1
 10
12.7034836173058
 20
-7.47946715354919
 30
0.0
 42
-0.000043633099452
 70
     0
  0
VERTEX
  8
1
 10
12.8291481852531
 20
-7.26180844306946
 30
0.0
 70
     0
  0
VERTEX
  8
1
 10
12.8812571048737
 20
-7.27507677078247
 30
0.0
 70
     0
  0
VERTEX
  8
1
 10
12.9509370207787
 20
-7.2916114628315
 30
0.0
 70
     0
  0
VERTEX
  8
1
 10
13.0251345872879
 20
-7.30785698890686
 30
0.0
 70
     0
  0
VERTEX
  8
1
 10
13.1038604021072
 20
-7.32365892529488
 30
0.0
 70
     0
  0
VERTEX
  8
1
 10
13.1871205210686
 20
-7.33886511921883
 30
0.0
 70
     0
  0
VERTEX
  8
1
 10
13.2749134302139
 20
-7.35332114696503
 30
0.0
 70
     0
  0
VERTEX
  8
1
 10
13.3672421574593
 20
-7.36687334179878
 30
0.0
 70
     0
  0
VERTEX
  8
1
 10
13.4640961050987
 20
-7.3793680369854
 30
0.0
 70
     0
  0
VERTEX
  8
1
 10
13.5654661893845
 20
-7.3906500518322
 30
0.0
 70
     0
  0
VERTEX
  8
1
 10
13.6215325951576
 20
-7.39611846804619
 30
0.0
 70
     0
  0
VERTEX
  8
1
 10
13.7487202048302
 20
-7.15690780878067
 30
0.0
 70
     0
  0
VERTEX
  8
1
 10
13.7128363728523
 20
-7.11348673701286
 30
0.0
 70
     0
  0
VERTEX
  8
1
 10
13.6467975258827
 20
-7.03575483560562
 30
0.0
 70
     0
  0
VERTEX
  8
1
 10
13.5822786927223
 20
-6.96244520545006
 30
0.0
 70
     0
  0
VERTEX
  8
1
 10
13.5194146156311
 20
-6.89348063468933
 30
0.0
 70
     0
  0
VERTEX
  8
1
 10
13.4583354949951
 20
-6.82877936959267
 30
0.0
 70
     0
  0
VERTEX
  8
1
 10
13.3991715312004
 20
-6.76825814247131
 30
0.0
 70
     0
  0
VERTEX
  8
1
 10
13.3420468688011
 20
-6.7118283867836
 30
0.0
 70
     0
  0
VERTEX
  8
1
 10
13.2870871663094
 20
-6.6593985080719
 30
0.0
 70
     0
  0
VERTEX
  8
1
 10
13.2344150543213
 20
-6.61087842583656
 30
0.0
 70
     0
  0
VERTEX
  8
1
 10
13.1942785143852
 20
-6.57509754300117
 30
0.0
 42
-0.000043633421839
 70
     0
  0
VERTEX
  8
1
 10
13.3044552922249
 20
-6.34920176565647
 30
0.0
 70
     0
  0
VERTEX
  8
1
 10
13.3573605537415
 20
-6.35880366563797
 30
0.0
 70
     0
  0
VERTEX
  8
1
 10
13.4280260562897
 20
-6.37043843269348
 30
0.0
 70
     0
  0
VERTEX
  8
1
 10
13.5031759023666
 20
-6.38146761655807
 30
0.0
 70
     0
  0
VERTEX
  8
1
 10
13.5828116059303
 20
-6.39173906445503
 30
0.0
 70
     0
  0
VERTEX
  8
1
 10
13.6669286251068
 20
-6.40110062360764
 30
0.0
 70
     0
  0
VERTEX
  8
1
 10
13.7555178761482
 20
-6.4093978703022
 30
0.0
 70
     0
  0
VERTEX
  8
1
 10
13.8485642194748
 20
-6.41647562384605
 30
0.0
 70
     0
  0
VERTEX
  8
1
 10
13.9460555434227
 20
-6.42218400239944
 30
0.0
 70
     0
  0
VERTEX
  8
1
 10
14.0479661107063
 20
-6.42636706829071
 30
0.0
 70
     0
  0
VERTEX
  8
1
 10
14.1042762637138
 20
-6.42791130542755
 30
0.0
 70
     0
  0
VERTEX
  8
1
 10
14.2144681811333
 20
-6.18041134774685
 30
0.0
 70
     0
  0
VERTEX
  8
1
 10
14.1756427288055
 20
-6.13959844708443
 30
0.0
 70
     0
  0
VERTEX
  8
1
 10
14.1043428778648
 20
-6.06666314303875
 30
0.0
 70
     0
  0
VERTEX
  8
1
 10
14.0348673462868
 20
-5.998033156991
 30
0.0
 70
     0
  0
VERTEX
  8
1
 10
13.9673448204994
 20
-5.93362181484699
 30
0.0
 70
     0
  0
VERTEX
  8
1
 10
13.9019009590149
 20
-5.87333827912807
 30
0.0
 70
     0
  0
VERTEX
  8
1
 10
13.8386583924294
 20
-5.81709171235561
 30
0.0
 70
     0
  0
VERTEX
  8
1
 10
13.777739751339
 20
-5.76478408575058
 30
0.0
 70
     0
  0
VERTEX
  8
1
 10
13.7192555546761
 20
-5.71631585657597
 30
0.0
 70
     0
  0
VERTEX
  8
1
 10
13.6633284330368
 20
-5.67158748209476
 30
0.0
 70
     0
  0
VERTEX
  8
1
 10
13.6207922697067
 20
-5.63869409561157
 30
0.0
 42
-0.000043633201655
 70
     0
  0
VERTEX
  8
1
 10
13.7149422883987
 20
-5.40566416978836
 30
0.0
 70
     0
  0
VERTEX
  8
1
 10
13.7683895468712
 20
-5.41155157387257
 30
0.0
 70
     0
  0
VERTEX
  8
1
 10
13.8396939396858
 20
-5.41822812855244
 30
0.0
 70
     0
  0
VERTEX
  8
1
 10
13.9154296875
 20
-5.42398873865604
 30
0.0
 70
     0
  0
VERTEX
  8
1
 10
13.9955892205238
 20
-5.42868049442768
 30
0.0
 70
     0
  0
VERTEX
  8
1
 10
14.0801543712616
 20
-5.43215124309063
 30
0.0
 70
     0
  0
VERTEX
  8
1
 10
14.1691069722176
 20
-5.43424807488918
 30
0.0
 70
     0
  0
VERTEX
  8
1
 10
14.2624212861061
 20
-5.43481883704662
 30
0.0
 70
     0
  0
VERTEX
  8
1
 10
14.3600715756416
 20
-5.43371251225472
 30
0.0
 70
     0
  0
VERTEX
  8
1
 10
14.4620260477066
 20
-5.43077619075775
 30
0.0
 70
     0
  0
VERTEX
  8
1
 10
14.5183074355125
 20
-5.42838867902756
 30
0.0
 70
     0
  0
VERTEX
  8
1
 10
14.6109662055969
 20
-5.17380529046059
 30
0.0
 70
     0
  0
VERTEX
  8
1
 10
14.5693883776665
 20
-5.13580040335655
 30
0.0
 70
     0
  0
VERTEX
  8
1
 10
14.4931727051735
 20
-5.06801596283913
 30
0.0
 70
     0
  0
VERTEX
  8
1
 10
14.4190796017647
 20
-5.00439944863319
 30
0.0
 70
     0
  0
VERTEX
  8
1
 10
14.3472301840782
 20
-4.94485548138618
 30
0.0
 70
     0
  0
VERTEX
  8
1
 10
14.2777395129204
 20
-4.8892837613821
 30
0.0
 70
     0
  0
VERTEX
  8
1
 10
14.2107287049294
 20
-4.83758550286293
 30
0.0
 70
     0
  0
VERTEX
  8
1
 10
14.1463067650795
 20
-4.78965472877026
 30
0.0
 70
     0
  0
VERTEX
  8
1
 10
14.0845857262611
 20
-4.74538470506668
 30
0.0
 70
     0
  0
VERTEX
  8
1
 10
14.0256730794907
 20
-4.70466680526733
 30
0.0
 70
     0
  0
VERTEX
  8
1
 10
13.9809477329254
 20
-4.67482025921345
 30
0.0
 42
-0.000043633284504
 70
     0
  0
VERTEX
  8
1
 10
14.0586137771606
 20
-4.43579013943672
 30
0.0
 70
     0
  0
VERTEX
  8
1
 10
14.1123396039009
 20
-4.43793503940105
 30
0.0
 70
     0
  0
VERTEX
  8
1
 10
14.1839361906052
 20
-4.43962158858776
 30
0.0
 70
     0
  0
VERTEX
  8
1
 10
14.259891462326
 20
-4.44008485972881
 30
0.0
 70
     0
  0
VERTEX
  8
1
 10
14.3401811957359
 20
-4.43917383551598
 30
0.0
 70
     0
  0
VERTEX
  8
1
 10
14.4247826814651
 20
-4.43673712015152
 30
0.0
 70
     0
  0
VERTEX
  8
1
 10
14.5136641263962
 20
-4.43262369632721
 30
0.0
 70
     0
  0
VERTEX
  8
1
 10
14.6067907094955
 20
-4.42668406069279
 30
0.0
 70
     0
  0
VERTEX
  8
1
 10
14.7041276097298
 20
-4.41876795291901
 30
0.0
 70
     0
  0
VERTEX
  8
1
 10
14.8056278944016
 20
-4.40872776210308
 30
0.0
 70
     0
  0
VERTEX
  8
1
 10
14.8616049766541
 20
-4.40241985619068
 30
0.0
 70
     0
  0
VERTEX
  8
1
 10
14.9362794399261
 20
-4.14199296832085
 30
0.0
 70
     0
  0
VERTEX
  8
1
 10
14.8921521067619
 20
-4.10698079764843
 30
0.0
 70
     0
  0
VERTEX
  8
1
 10
14.8113945603371
 20
-4.04467839896679
 30
0.0
 70
     0
  0
VERTEX
  8
1
 10
14.7330426931381
 20
-3.98638496100903
 30
0.0
 70
     0
  0
VERTEX
  8
1
 10
14.6572145938873
 20
-3.93199791312218
 30
0.0
 70
     0
  0
VERTEX
  8
1
 10
14.5840162396431
 20
-3.88140938580036
 30
0.0
 70
     0
  0
VERTEX
  8
1
 10
14.5135626912117
 20
-3.8345111310482
 30
0.0
 70
     0
  0
VERTEX
  8
1
 10
14.4459568977356
 20
-3.79119149446487
 30
0.0
 70
     0
  0
VERTEX
  8
1
 10
14.3812972664833
 20
-3.75133465826511
 30
0.0
 70
     0
  0
VERTEX
  8
1
 10
14.3196867465973
 20
-3.71482518315315
 30
0.0
 70
     0
  0
VERTEX
  8
1
 10
14.2729887127876
 20
-3.68817157447338
 30
0.0
 42
-0.000043633273728
 70
     0
  0
VERTEX
  8
1
 10
14.3337907791138
 20
-3.44430587291717
 30
0.0
 70
     0
  0
VERTEX
  8
1
 10
14.3875378012657
 20
-3.4426972925663
 30
0.0
 70
     0
  0
VERTEX
  8
1
 10
14.4590783715248
 20
-3.43938550949097
 30
0.0
 70
     0
  0
VERTEX
  8
1
 10
14.534879219532
 20
-3.43454954922199
 30
0.0
 70
     0
  0
VERTEX
  8
1
 10
14.6149085521698
 20
-3.42803990840912
 30
0.0
 70
     0
  0
VERTEX
  8
1
 10
14.6991345763206
 20
-3.41970784068108
 30
0.0
 70
     0
  0
VERTEX
  8
1
 10
14.7875133872032
 20
-3.4094042211771
 30
0.0
 70
     0
  0
VERTEX
  8
1
 10
14.8799980521202
 20
-3.39698257446289
 30
0.0
 70
     0
  0
VERTEX
  8
1
 10
14.9765446662903
 20
-3.38229642510414
 30
0.0
 70
     0
  0
VERTEX
  8
1
 10
15.0770987272263
 20
-3.36520005464554
 30
0.0
 70
     0
  0
VERTEX
  8
1
 10
15.1325005054474
 20
-3.35500279068947
 30
0.0
 70
     0
  0
VERTEX
  8
1
 10
15.1888242840767
 20
-3.09000166803598
 30
0.0
 70
     0
  0
VERTEX
  8
1
 10
15.1423639416695
 20
-3.05815272331238
 30
0.0
 70
     0
  0
VERTEX
  8
1
 10
15.0574566364288
 20
-3.00163515806198
 30
0.0
 70
     0
  0
VERTEX
  8
1
 10
14.975229036808
 20
-2.94894960969686
 30
0.0
 70
     0
  0
VERTEX
  8
1
 10
14.8957916617393
 20
-2.89998423457146
 30
0.0
 70
     0
  0
VERTEX
  8
1
 10
14.8192444324493
 20
-2.85462491810322
 30
0.0
 70
     0
  0
VERTEX
  8
1
 10
14.7456902980804
 20
-2.81275584250689
 30
0.0
 70
     0
  0
VERTEX
  8
1
 10
14.6752261519432
 20
-2.77425740510225
 30
0.0
 70
     0
  0
VERTEX
  8
1
 10
14.6079443454742
 20
-2.73900811076164
 30
0.0
 70
     0
  0
VERTEX
  8
1
 10
14.5439387440681
 20
-2.70688513964415
 30
0.0
 70
     0
  0
VERTEX
  8
1
 10
14.4954936027527
 20
-2.6835541009903
 30
0.0
 42
-0.000043633218642
 70
     0
  0
VERTEX
  8
1
 10
14.5391364693642
 20
-2.43604146391153
 30
0.0
 70
     0
  0
VERTEX
  8
1
 10
14.5926397442818
 20
-2.43068716228008
 30
0.0
 70
     0
  0
VERTEX
  8
1
 10
14.6637745738029
 20
-2.42239313274622
 30
0.0
 70
     0
  0
VERTEX
  8
1
 10
14.739053106308
 20
-2.41228121817112
 30
0.0
 70
     0
  0
VERTEX
  8
1
 10
14.8184344649315
 20
-2.40020475387573
 30
0.0
 70
     0
  0
VERTEX
  8
1
 10
14.9018732309341
 20
-2.38601764291525
 30
0.0
 70
     0
  0
VERTEX
  8
1
 10
14.9893179297447
 20
-2.36957454532385
 30
0.0
 70
     0
  0
VERTEX
  8
1
 10
15.0807110309601
 20
-2.35073144584894
 30
0.0
 70
     0
  0
VERTEX
  8
1
 10
15.175999546051
 20
-2.32934641093016
 30
0.0
 70
     0
  0
VERTEX
  8
1
 10
15.2751138329506
 20
-2.30527731776237
 30
0.0
 70
     0
  0
VERTEX
  8
1
 10
15.3296693086624
 20
-2.29124027788639
 30
0.0
 70
     0
  0
VERTEX
  8
1
 10
15.367371404171
 20
-2.02295575886965
 30
0.0
 70
     0
  0
VERTEX
  8
1
 10
15.3188021183014
 20
-1.99442522078753
 30
0.0
 70
     0
  0
VERTEX
  8
1
 10
15.2301598787308
 20
-1.94396840780973
 30
0.0
 70
     0
  0
VERTEX
  8
1
 10
15.1444577455521
 20
-1.89714698642492
 30
0.0
 70
     0
  0
VERTEX
  8
1
 10
15.0617971539497
 20
-1.85384248942137
 30
0.0
 70
     0
  0
VERTEX
  8
1
 10
14.9822719693184
 20
-1.81393323242664
 30
0.0
 70
     0
  0
VERTEX
  8
1
 10
14.9059775710106
 20
-1.77729677408934
 30
0.0
 70
     0
  0
VERTEX
  8
1
 10
14.833000254631
 20
-1.74380745589733
 30
0.0
 70
     0
  0
VERTEX
  8
1
 10
14.7634217739105
 20
-1.71333734840155
 30
0.0
 70
     0
  0
VERTEX
  8
1
 10
14.6973314523697
 20
-1.68575757592916
 30
0.0
 70
     0
  0
VERTEX
  8
1
 10
14.6473753809929
 20
-1.66586284339428
 30
0.0
 42
-0.000043633268904
 70
     0
  0
VERTEX
  8
1
 10
14.6736470937729
 20
-1.41590857058763
 30
0.0
 70
     0
  0
VERTEX
  8
1
 10
14.7266462206841
 20
-1.40683504194021
 30
0.0
 70
     0
  0
VERTEX
  8
1
 10
14.7970301270485
 20
-1.39359907507896
 30
0.0
 70
     0
  0
VERTEX
  8
1
 10
14.8714199662209
 20
-1.37826069369912
 30
0.0
 70
     0
  0
VERTEX
  8
1
 10
14.9497657775879
 20
-1.36067616641521
 30
0.0
 70
     0
  0
VERTEX
  8
1
 10
15.0320115447044
 20
-1.340703086555
 30
0.0
 70
     0
  0
VERTEX
  8
1
 10
15.1180951952934
 20
-1.31820027753711
 30
0.0
 70
     0
  0
VERTEX
  8
1
 10
15.2079531431198
 20
-1.29302798211575
 30
0.0
 70
     0
  0
VERTEX
  8
1
 10
15.3015157461166
 20
-1.26504795700312
 30
0.0
 70
     0
  0
VERTEX
  8
1
 10
15.398711848259
 20
-1.23412356749177
 30
0.0
 70
     0
  0
VERTEX
  8
1
 10
15.4521545648575
 20
-1.21631516367197
 30
0.0
 70
     0
  0
VERTEX
  8
1
 10
15.4710502743721
 20
-0.946054172515869
 30
0.0
 70
     0
  0
VERTEX
  8
1
 10
15.4206082224846
 20
-0.920981325209141
 30
0.0
 70
     0
  0
VERTEX
  8
1
 10
15.3286610126495
 20
-0.876830904185772
 30
0.0
 70
     0
  0
VERTEX
  8
1
 10
15.2399037122726
 20
-0.836101649701595
 30
0.0
 70
     0
  0
VERTEX
  8
1
 10
15.1544241309166
 20
-0.79866856560111
 30
0.0
 70
     0
  0
VERTEX
  8
1
 10
15.0723085641861
 20
-0.764404006302357
 30
0.0
 70
     0
  0
VERTEX
  8
1
 10
14.9936433076859
 20
-0.733178954198956
 30
0.0
 70
     0
  0
VERTEX
  8
1
 10
14.9185070872307
 20
-0.704861931502819
 30
0.0
 70
     0
  0
VERTEX
  8
1
 10
14.8469740867615
 20
-0.679319473356009
 30
0.0
 70
     0
  0
VERTEX
  8
1
 10
14.7791200041771
 20
-0.656417263299227
 30
0.0
 70
     0
  0
VERTEX
  8
1
 10
14.7278982639313
 20
-0.640055493637919
 30
0.0
 42
-0.000043633226493
 70
     0
  0
SEQEND
  0
TEXT
  8
NOTES
 10
-15.5
 20
-17.0499992370605
 30
0.0
 11
-15.5
 21
-17.0499992370605
 31
0.0
 40
0.619998931884766
  1
Diametral Pitch: 75.3806450467117
 41
1.0
  7
ARIAL
  0
TEXT
  8
NOTES
 10
-15.5
 20
-18.2900009155273
 30
0.0
 11
-15.5
 21
-18.2900009155273
 31
0.0
 40
0.620000839233398
  1
Number Of Teeth: 90
 41
1.0
  7
ARIAL
  0
TEXT
  8
NOTES
 10
-15.5
 20
-19.5300006866455
 30
0.0
 11
-15.5
 21
-19.5300006866455
 31
0.0
 40
0.620000839233398
  1
Pressure Angle: 20
 41
1.0
  7
ARIAL
  0
ENDSEC
  0
EOF
