  0
SECTION
  2
HEADER
  9
$MEASUREMENT
 70
     1
  0
ENDSEC
  0
SECTION
  2
TABLES
  0
TABLE
  2
LTYPE
 70
     1
  0
LTYPE
  2
Continuous
  3
_
 70
     0
 72
    65
 73
     0
 40
0.0
  0
ENDTAB
  0
TABLE
  2
LAYER
 70
     2
  0
LAYER
  2
1
 70
     0
 62
     7
  6
Continuous
  0
LAYER
  2
NOTES
 70
     0
 62
     1
  6
Continuous
  0
ENDTAB
  0
TABLE
  2
STYLE
 70
     1
  0
STYLE
  2
ARIAL
  3
Arial.ttf
 70
     0
 40
0.0
 41
1.0
 50
0.0
 71
     0
 42
1.0
  0
ENDTAB
  0
ENDSEC
  0
SECTION
  2
ENTITIES
  0
POLYLINE
  8
1
 66
     1
 10
0.0
 20
0.0
 70
     1
  0
VERTEX
  8
1
 10
5.01121642291546
 20
-0.513905844092369
 30
0.0
 70
     0
  0
VERTEX
  8
1
 10
5.46852143406868
 20
-0.560801165550947
 30
0.0
 70
     0
  0
VERTEX
  8
1
 10
5.52207542657852
 20
-0.56128889657557
 30
0.0
 70
     0
  0
VERTEX
  8
1
 10
5.57907140254974
 20
-0.557303922623396
 30
0.0
 70
     0
  0
VERTEX
  8
1
 10
5.63205236196518
 20
-0.550859098136425
 30
0.0
 70
     0
  0
VERTEX
  8
1
 10
5.69502733647823
 20
-0.540401102229953
 30
0.0
 70
     0
  0
VERTEX
  8
1
 10
5.75242299735546
 20
-0.528552772477269
 30
0.0
 70
     0
  0
VERTEX
  8
1
 10
5.8158790320158
 20
-0.513128615915775
 30
0.0
 70
     0
  0
VERTEX
  8
1
 10
5.86733619272709
 20
-0.498951440304518
 30
0.0
 70
     0
  0
VERTEX
  8
1
 10
5.92200975716114
 20
-0.482337218150496
 30
0.0
 70
     0
  0
VERTEX
  8
1
 10
5.97980472445488
 20
-0.463108627125621
 30
0.0
 70
     0
  0
VERTEX
  8
1
 10
6.04061928093433
 20
-0.441091609373689
 30
0.0
 70
     0
  0
VERTEX
  8
1
 10
6.10434517860413
 20
-0.416115844622254
 30
0.0
 70
     0
  0
VERTEX
  8
1
 10
6.17086546421051
 20
-0.388014726527035
 30
0.0
 70
     0
  0
VERTEX
  8
1
 10
6.24005864262581
 20
-0.356625788472593
 30
0.0
 70
     0
  0
VERTEX
  8
1
 10
6.28760903477669
 20
-0.333795041963458
 30
0.0
 70
     0
  0
VERTEX
  8
1
 10
6.3362509906292
 20
-0.309386940486729
 30
0.0
 70
     0
  0
VERTEX
  8
1
 10
6.38594211935997
 20
-0.283356680348516
 30
0.0
 70
     0
  0
VERTEX
  8
1
 10
6.43664154410362
 20
-0.255660427734256
 30
0.0
 70
     0
  0
VERTEX
  8
1
 10
6.49622033238411
 20
-0.221612222492695
 30
0.0
 70
     0
  0
VERTEX
  8
1
 10
6.49621957540512
 20
0.221611749380827
 30
0.0
 70
     0
  0
VERTEX
  8
1
 10
6.43664078712463
 20
0.255660001933575
 30
0.0
 70
     0
  0
VERTEX
  8
1
 10
6.38594136238098
 20
0.283356349170208
 30
0.0
 70
     0
  0
VERTEX
  8
1
 10
6.3362506121397
 20
0.309386585652828
 30
0.0
 70
     0
  0
VERTEX
  8
1
 10
6.28760865628719
 20
0.333794758096337
 30
0.0
 70
     0
  0
VERTEX
  8
1
 10
6.24005826413631
 20
0.356625480949879
 30
0.0
 70
     0
  0
VERTEX
  8
1
 10
6.17086470723152
 20
0.388014371693134
 30
0.0
 70
     0
  0
VERTEX
  8
1
 10
6.10434442162514
 20
0.416115371510386
 30
0.0
 70
     0
  0
VERTEX
  8
1
 10
6.04061852395535
 20
0.441091278195381
 30
0.0
 70
     0
  0
VERTEX
  8
1
 10
5.97980434596538
 20
0.46310820132494
 30
0.0
 70
     0
  0
VERTEX
  8
1
 10
5.92200862169266
 20
0.482336981594563
 30
0.0
 70
     0
  0
VERTEX
  8
1
 10
5.8673354357481
 20
0.498951156437397
 30
0.0
 70
     0
  0
VERTEX
  8
1
 10
5.81587865352631
 20
0.513128190115094
 30
0.0
 70
     0
  0
VERTEX
  8
1
 10
5.75242261886597
 20
0.528552441298962
 30
0.0
 70
     0
  0
VERTEX
  8
1
 10
5.69502582252026
 20
0.540400723740458
 30
0.0
 70
     0
  0
VERTEX
  8
1
 10
5.63205160498619
 20
0.550858719646931
 30
0.0
 70
     0
  0
VERTEX
  8
1
 10
5.57907064557075
 20
0.557303544133902
 30
0.0
 70
     0
  0
VERTEX
  8
1
 10
5.52207429111004
 20
0.561288612708449
 30
0.0
 70
     0
  0
VERTEX
  8
1
 10
5.46852067708969
 20
0.56080083437264
 30
0.0
 70
     0
  0
VERTEX
  8
1
 10
5.01121717989445
 20
0.513903998956084
 30
0.0
 42
-0.000043633224839
 70
     0
  0
VERTEX
  8
1
 10
4.8847695171833
 20
1.23102496862411
 30
0.0
 70
     0
  0
VERTEX
  8
1
 10
5.33053438365459
 20
1.34336348921061
 30
0.0
 70
     0
  0
VERTEX
  8
1
 10
5.38102526068687
 20
1.36122175902128
 30
0.0
 70
     0
  0
VERTEX
  8
1
 10
5.43322085440159
 20
1.3844601623714
 30
0.0
 70
     0
  0
VERTEX
  8
1
 10
5.4808026611805
 20
1.40863684117794
 30
0.0
 70
     0
  0
VERTEX
  8
1
 10
5.53640276789665
 20
1.44000292792916
 30
0.0
 70
     0
  0
VERTEX
  8
1
 10
5.58628503382206
 20
1.47076721638441
 30
0.0
 70
     0
  0
VERTEX
  8
1
 10
5.64063877463341
 20
1.50696434304118
 30
0.0
 70
     0
  0
VERTEX
  8
1
 10
5.68414349257946
 20
1.53788589388132
 30
0.0
 70
     0
  0
VERTEX
  8
1
 10
5.72983739376068
 20
1.57219766974449
 30
0.0
 70
     0
  0
VERTEX
  8
1
 10
5.77757021784782
 20
1.61003356128931
 30
0.0
 70
     0
  0
VERTEX
  8
1
 10
5.82718716263771
 20
1.65152263343334
 30
0.0
 70
     0
  0
VERTEX
  8
1
 10
5.87852737009525
 20
1.69678770601749
 30
0.0
 70
     0
  0
VERTEX
  8
1
 10
5.93142506182194
 20
1.74594535380602
 30
0.0
 70
     0
  0
VERTEX
  8
1
 10
5.98570991754532
 20
1.79910685271025
 30
0.0
 70
     0
  0
VERTEX
  8
1
 10
6.02258425652981
 20
1.83682389855385
 30
0.0
 70
     0
  0
VERTEX
  8
1
 10
6.05994419753551
 20
1.87639648914337
 30
0.0
 70
     0
  0
VERTEX
  8
1
 10
6.09773599505424
 20
1.9178522542119
 30
0.0
 70
     0
  0
VERTEX
  8
1
 10
6.13590514659882
 20
1.96121863424778
 30
0.0
 70
     0
  0
VERTEX
  8
1
 10
6.18024556934833
 20
2.01359060406685
 30
0.0
 70
     0
  0
VERTEX
  8
1
 10
6.02865333557129
 20
2.43008460700512
 30
0.0
 70
     0
  0
VERTEX
  8
1
 10
5.96102256178856
 20
2.44170234203339
 30
0.0
 70
     0
  0
VERTEX
  8
1
 10
5.90390811860561
 20
2.45038810819387
 30
0.0
 70
     0
  0
VERTEX
  8
1
 10
5.84831103980541
 20
2.45785324573517
 30
0.0
 70
     0
  0
VERTEX
  8
1
 10
5.7942547917366
 20
2.46415301412344
 30
0.0
 70
     0
  0
VERTEX
  8
1
 10
5.74176321923733
 20
2.4693436190486
 30
0.0
 70
     0
  0
VERTEX
  8
1
 10
5.66600665450096
 20
2.47517387121916
 30
0.0
 70
     0
  0
VERTEX
  8
1
 10
5.59388737380505
 20
2.47882913351059
 30
0.0
 70
     0
  0
VERTEX
  8
1
 10
5.52546215057373
 20
2.48050300329924
 30
0.0
 70
     0
  0
VERTEX
  8
1
 10
5.4607851088047
 20
2.48039267361164
 30
0.0
 70
     0
  0
VERTEX
  8
1
 10
5.39989826083183
 20
2.47869439125061
 30
0.0
 70
     0
  0
VERTEX
  8
1
 10
5.34284021258354
 20
2.47560743093491
 30
0.0
 70
     0
  0
VERTEX
  8
1
 10
5.28963783681393
 20
2.47133012115955
 30
0.0
 70
     0
  0
VERTEX
  8
1
 10
5.22473332285881
 20
2.46412103176117
 30
0.0
 70
     0
  0
VERTEX
  8
1
 10
5.16674532592297
 20
2.45562375336885
 30
0.0
 70
     0
  0
VERTEX
  8
1
 10
5.10399214625359
 20
2.44391272068024
 30
0.0
 70
     0
  0
VERTEX
  8
1
 10
5.05200207233429
 20
2.43184836804867
 30
0.0
 70
     0
  0
VERTEX
  8
1
 10
4.99708021879196
 20
2.41609923094511
 30
0.0
 70
     0
  0
VERTEX
  8
1
 10
4.94692316949368
 20
2.39732444882393
 30
0.0
 70
     0
  0
VERTEX
  8
1
 10
4.53323793709278
 20
2.196848782897
 30
0.0
 42
-0.000043633226359
 70
     0
  0
VERTEX
  8
1
 10
4.16914618313313
 20
2.8274743527174
 30
0.0
 70
     0
  0
VERTEX
  8
1
 10
4.54960571527481
 20
3.08549840003252
 30
0.0
 70
     0
  0
VERTEX
  8
1
 10
4.59094395935535
 20
3.11954863965511
 30
0.0
 70
     0
  0
VERTEX
  8
1
 10
4.63204375505447
 20
3.15923761576414
 30
0.0
 70
     0
  0
VERTEX
  8
1
 10
4.66848699450493
 20
3.19822979271412
 30
0.0
 70
     0
  0
VERTEX
  8
1
 10
4.71000653505325
 20
3.24672073125839
 30
0.0
 70
     0
  0
VERTEX
  8
1
 10
4.74635818004608
 20
3.29269017279148
 30
0.0
 70
     0
  0
VERTEX
  8
1
 10
4.78505381047726
 20
3.34529491364956
 30
0.0
 70
     0
  0
VERTEX
  8
1
 10
4.81535908579826
 20
3.38923110961914
 30
0.0
 70
     0
  0
VERTEX
  8
1
 10
4.84656213819981
 20
3.43710170388222
 30
0.0
 70
     0
  0
VERTEX
  8
1
 10
4.87847561538219
 20
3.48898163735867
 30
0.0
 70
     0
  0
VERTEX
  8
1
 10
4.91091027259827
 20
3.54493828117847
 30
0.0
 70
     0
  0
VERTEX
  8
1
 10
4.94367308020592
 20
3.60503332912922
 30
0.0
 70
     0
  0
VERTEX
  8
1
 10
4.97656760215759
 20
3.66931863427162
 30
0.0
 70
     0
  0
VERTEX
  8
1
 10
5.00939626693726
 20
3.7378399938345
 30
0.0
 70
     0
  0
VERTEX
  8
1
 10
5.03114654421806
 20
3.78589453399181
 30
0.0
 70
     0
  0
VERTEX
  8
1
 10
5.05271893143654
 20
3.835858553648
 30
0.0
 70
     0
  0
VERTEX
  8
1
 10
5.07405287027359
 20
3.88773962259293
 30
0.0
 70
     0
  0
VERTEX
  8
1
 10
5.09508818089962
 20
3.94154531061649
 30
0.0
 70
     0
  0
VERTEX
  8
1
 10
5.11884218156338
 20
4.00592410266399
 30
0.0
 70
     0
  0
VERTEX
  8
1
 10
4.83394291996956
 20
4.34545302391052
 30
0.0
 70
     0
  0
VERTEX
  8
1
 10
4.76641698777676
 20
4.3332387894392
 30
0.0
 70
     0
  0
VERTEX
  8
1
 10
4.70977603495121
 20
4.32186669409275
 30
0.0
 70
     0
  0
VERTEX
  8
1
 10
4.65497870445251
 20
4.30986630618572
 30
0.0
 70
     0
  0
VERTEX
  8
1
 10
4.60202764570713
 20
4.29729742705822
 30
0.0
 70
     0
  0
VERTEX
  8
1
 10
4.55092702209949
 20
4.28422212898731
 30
0.0
 70
     0
  0
VERTEX
  8
1
 10
4.47774494290352
 20
4.26379088759422
 30
0.0
 70
     0
  0
VERTEX
  8
1
 10
4.40872473418713
 20
4.24255876243114
 30
0.0
 70
     0
  0
VERTEX
  8
1
 10
4.34385352730751
 20
4.22072938084602
 30
0.0
 70
     0
  0
VERTEX
  8
1
 10
4.28311466872692
 20
4.19850447773933
 30
0.0
 70
     0
  0
VERTEX
  8
1
 10
4.22648090720177
 20
4.17608427405357
 30
0.0
 70
     0
  0
VERTEX
  8
1
 10
4.17391931414604
 20
4.15366823375225
 30
0.0
 70
     0
  0
VERTEX
  8
1
 10
4.12538825571537
 20
4.13145279288292
 30
0.0
 70
     0
  0
VERTEX
  8
1
 10
4.06686356067657
 20
4.10247980058193
 30
0.0
 70
     0
  0
VERTEX
  8
1
 10
4.01527960598469
 20
4.07466195821762
 30
0.0
 70
     0
  0
VERTEX
  8
1
 10
3.96031611859798
 20
4.04219437241554
 30
0.0
 70
     0
  0
VERTEX
  8
1
 10
3.91558774411678
 20
4.01307604014873
 30
0.0
 70
     0
  0
VERTEX
  8
1
 10
3.869364336133
 20
3.9794919103384
 30
0.0
 70
     0
  0
VERTEX
  8
1
 10
3.82865324914455
 20
3.94469472169876
 30
0.0
 70
     0
  0
VERTEX
  8
1
 10
3.5084833085537
 20
3.61482068896294
 30
0.0
 42
-0.000043633242729
 70
     0
  0
VERTEX
  8
1
 10
2.95066227465868
 20
4.08288842737675
 30
0.0
 70
     0
  0
VERTEX
  8
1
 10
3.21992783844471
 20
4.45547689199448
 30
0.0
 70
     0
  0
VERTEX
  8
1
 10
3.2471272289753
 20
4.50161211192608
 30
0.0
 70
     0
  0
VERTEX
  8
1
 10
3.27217414975166
 20
4.55296480953693
 30
0.0
 70
     0
  0
VERTEX
  8
1
 10
3.29308304488659
 20
4.602069658041
 30
0.0
 70
     0
  0
VERTEX
  8
1
 10
3.31551384627819
 20
4.66183693408966
 30
0.0
 70
     0
  0
VERTEX
  8
1
 10
3.33395082652569
 20
4.71746694147587
 30
0.0
 70
     0
  0
VERTEX
  8
1
 10
3.35232081413269
 20
4.78013344705105
 30
0.0
 70
     0
  0
VERTEX
  8
1
 10
3.36577157378197
 20
4.83178515136242
 30
0.0
 70
     0
  0
VERTEX
  8
1
 10
3.37872007787228
 20
4.88744127452373
 30
0.0
 70
     0
  0
VERTEX
  8
1
 10
3.39096534848213
 20
4.94710711538792
 30
0.0
 70
     0
  0
VERTEX
  8
1
 10
3.40230527222157
 20
5.01078305244446
 30
0.0
 70
     0
  0
VERTEX
  8
1
 10
3.4125384926796
 20
5.07845886647701
 30
0.0
 70
     0
  0
VERTEX
  8
1
 10
3.42146251797676
 20
5.15011752545834
 30
0.0
 70
     0
  0
VERTEX
  8
1
 10
3.42887523472309
 20
5.22573518455028
 30
0.0
 70
     0
  0
VERTEX
  8
1
 10
3.43287851810455
 20
5.27833046317101
 30
0.0
 70
     0
  0
VERTEX
  8
1
 10
3.43606161475182
 20
5.33265960216522
 30
0.0
 70
     0
  0
VERTEX
  8
1
 10
3.43836396634579
 20
5.38870859742165
 30
0.0
 70
     0
  0
VERTEX
  8
1
 10
3.43972804248333
 20
5.44646382331848
 30
0.0
 70
     0
  0
VERTEX
  8
1
 10
3.44003045558929
 20
5.51508472561836
 30
0.0
 70
     0
  0
VERTEX
  8
1
 10
3.05618722736835
 20
5.73669600188732
 30
0.0
 70
     0
  0
VERTEX
  8
1
 10
2.99691104143858
 20
5.70212325751781
 30
0.0
 70
     0
  0
VERTEX
  8
1
 10
2.94757569283247
 20
5.67206437885761
 30
0.0
 70
     0
  0
VERTEX
  8
1
 10
2.9001878619194
 20
5.6420459985733
 30
0.0
 70
     0
  0
VERTEX
  8
1
 10
2.85472881346941
 20
5.61212489008904
 30
0.0
 70
     0
  0
VERTEX
  8
1
 10
2.81118151545525
 20
5.58236047625542
 30
0.0
 70
     0
  0
VERTEX
  8
1
 10
2.74940124303102
 20
5.53813132941723
 30
0.0
 70
     0
  0
VERTEX
  8
1
 10
2.69180498272181
 20
5.49457400143146
 30
0.0
 70
     0
  0
VERTEX
  8
1
 10
2.6383121162653
 20
5.45187357366085
 30
0.0
 70
     0
  0
VERTEX
  8
1
 10
2.58883786201477
 20
5.41021512746811
 30
0.0
 70
     0
  0
VERTEX
  8
1
 10
2.5432874083519
 20
5.36977730989456
 30
0.0
 70
     0
  0
VERTEX
  8
1
 10
2.5015625372529
 20
5.33073574006557
 30
0.0
 70
     0
  0
VERTEX
  8
1
 10
2.46355651468039
 20
5.29326187372208
 30
0.0
 70
     0
  0
VERTEX
  8
1
 10
2.4184706568718
 20
5.24601919353008
 30
0.0
 70
     0
  0
VERTEX
  8
1
 10
2.37951140850782
 20
5.2022362858057
 30
0.0
 70
     0
  0
VERTEX
  8
1
 10
2.33896742463112
 20
5.15292780995369
 30
0.0
 70
     0
  0
VERTEX
  8
1
 10
2.30689554959536
 20
5.11026750206947
 30
0.0
 70
     0
  0
VERTEX
  8
1
 10
2.27494611591101
 20
5.06289954185486
 30
0.0
 70
     0
  0
VERTEX
  8
1
 10
2.2485917031765
 20
5.01627720594406
 30
0.0
 70
     0
  0
VERTEX
  8
1
 10
2.06055376976728
 20
4.59679200053215
 30
0.0
 42
-0.000043633224038
 70
     0
  0
VERTEX
  8
1
 10
1.3762851677835
 20
4.84584565758705
 30
0.0
 70
     0
  0
VERTEX
  8
1
 10
1.50187952592969
 20
5.28805877864361
 30
0.0
 70
     0
  0
VERTEX
  8
1
 10
1.51165941059589
 20
5.34071423709393
 30
0.0
 70
     0
  0
VERTEX
  8
1
 10
1.51763216406107
 20
5.39753648638725
 30
0.0
 70
     0
  0
VERTEX
  8
1
 10
1.52048531249166
 20
5.45083159208298
 30
0.0
 70
     0
  0
VERTEX
  8
1
 10
1.52112174257636
 20
5.51466611623764
 30
0.0
 70
     0
  0
VERTEX
  8
1
 10
1.51941995918751
 20
5.5732468277216
 30
0.0
 70
     0
  0
VERTEX
  8
1
 10
1.51524919420481
 20
5.63841741979122
 30
0.0
 70
     0
  0
VERTEX
  8
1
 10
1.51022285372019
 20
5.69155431687832
 30
0.0
 70
     0
  0
VERTEX
  8
1
 10
1.50335497260094
 20
5.74828270077705
 30
0.0
 70
     0
  0
VERTEX
  8
1
 10
1.49445441365242
 20
5.80853860676289
 30
0.0
 70
     0
  0
VERTEX
  8
1
 10
1.4833322159946
 20
5.87225239276886
 30
0.0
 70
     0
  0
VERTEX
  8
1
 10
1.46980178430676
 20
5.93934722542763
 30
0.0
 70
     0
  0
VERTEX
  8
1
 10
1.45367879420519
 20
6.00973643064499
 30
0.0
 70
     0
  0
VERTEX
  8
1
 10
1.43478194922209
 20
6.08332917094231
 30
0.0
 70
     0
  0
VERTEX
  8
1
 10
1.42055519148707
 20
6.13412170410156
 30
0.0
 70
     0
  0
VERTEX
  8
1
 10
1.40496445223689
 20
6.18626279532909
 30
0.0
 70
     0
  0
VERTEX
  8
1
 10
1.38795835152268
 20
6.23971951603889
 30
0.0
 70
     0
  0
VERTEX
  8
1
 10
1.36948673948646
 20
6.29445780217648
 30
0.0
 70
     0
  0
VERTEX
  8
1
 10
1.34630160853267
 20
6.35904287099838
 30
0.0
 70
     0
  0
VERTEX
  8
1
 10
0.909811059385538
 20
6.43600719571114
 30
0.0
 70
     0
  0
VERTEX
  8
1
 10
0.865934380888939
 20
6.3832465171814
 30
0.0
 70
     0
  0
VERTEX
  8
1
 10
0.829854869842529
 20
6.33812716305256
 30
0.0
 70
     0
  0
VERTEX
  8
1
 10
0.795591446012259
 20
6.29371142089367
 30
0.0
 70
     0
  0
VERTEX
  8
1
 10
0.763107537850737
 20
6.25004698038101
 30
0.0
 70
     0
  0
VERTEX
  8
1
 10
0.732366621121764
 20
6.20718380212784
 30
0.0
 70
     0
  0
VERTEX
  8
1
 10
0.689439288899302
 20
6.14449193775654
 30
0.0
 70
     0
  0
VERTEX
  8
1
 10
0.650214057043195
 20
6.08386170566082
 30
0.0
 70
     0
  0
VERTEX
  8
1
 10
0.614551736041904
 20
6.02544109523296
 30
0.0
 70
     0
  0
VERTEX
  8
1
 10
0.58230902031064
 20
5.96937393248081
 30
0.0
 70
     0
  0
VERTEX
  8
1
 10
0.553336264565587
 20
5.91579533815384
 30
0.0
 70
     0
  0
VERTEX
  8
1
 10
0.527480559051037
 20
5.86483816206455
 30
0.0
 70
     0
  0
VERTEX
  8
1
 10
0.504583553224802
 20
5.81662465631962
 30
0.0
 70
     0
  0
VERTEX
  8
1
 10
0.478374669700861
 20
5.75681082606316
 30
0.0
 70
     0
  0
VERTEX
  8
1
 10
0.456739500537515
 20
5.70234353840351
 30
0.0
 70
     0
  0
VERTEX
  8
1
 10
0.435505057126284
 20
5.64214213490486
 30
0.0
 70
     0
  0
VERTEX
  8
1
 10
0.419958128035068
 20
5.59108503758907
 30
0.0
 70
     0
  0
VERTEX
  8
1
 10
0.406136306747794
 20
5.53564692437649
 30
0.0
 70
     0
  0
VERTEX
  8
1
 10
0.397317170351744
 20
5.48282228112221
 30
0.0
 70
     0
  0
VERTEX
  8
1
 10
0.364091612026095
 20
5.0243227571249
 30
0.0
 42
-0.0000436332346
 70
     0
  0
VERTEX
  8
1
 10
-0.364092037826776
 20
5.0243227571249
 30
0.0
 70
     0
  0
VERTEX
  8
1
 10
-0.397317927330732
 20
5.4828226596117
 30
0.0
 70
     0
  0
VERTEX
  8
1
 10
-0.40613711103797
 20
5.53564768135548
 30
0.0
 70
     0
  0
VERTEX
  8
1
 10
-0.41995883770287
 20
5.59108541607857
 30
0.0
 70
     0
  0
VERTEX
  8
1
 10
-0.435505814105272
 20
5.64214251339436
 30
0.0
 70
     0
  0
VERTEX
  8
1
 10
-0.456740399450064
 20
5.70234467387199
 30
0.0
 70
     0
  0
VERTEX
  8
1
 10
-0.47837542667985
 20
5.75681120455265
 30
0.0
 70
     0
  0
VERTEX
  8
1
 10
-0.504584215581417
 20
5.81662465631962
 30
0.0
 70
     0
  0
VERTEX
  8
1
 10
-0.527481457963586
 20
5.86483854055405
 30
0.0
 70
     0
  0
VERTEX
  8
1
 10
-0.553337210789323
 20
5.91579609513283
 30
0.0
 70
     0
  0
VERTEX
  8
1
 10
-0.582309729978442
 20
5.96937393248081
 30
0.0
 70
     0
  0
VERTEX
  8
1
 10
-0.614552587643266
 20
6.02544147372246
 30
0.0
 70
     0
  0
VERTEX
  8
1
 10
-0.650214814022183
 20
6.08386208415031
 30
0.0
 70
     0
  0
VERTEX
  8
1
 10
-0.689440093189478
 20
6.14449231624603
 30
0.0
 70
     0
  0
VERTEX
  8
1
 10
-0.73236742541194
 20
6.20718380212784
 30
0.0
 70
     0
  0
VERTEX
  8
1
 10
-0.763108342140913
 20
6.25004698038101
 30
0.0
 70
     0
  0
VERTEX
  8
1
 10
-0.795592297613621
 20
6.29371142089367
 30
0.0
 70
     0
  0
VERTEX
  8
1
 10
-0.829855816066265
 20
6.33812754154205
 30
0.0
 70
     0
  0
VERTEX
  8
1
 10
-0.865935232490301
 20
6.38324727416039
 30
0.0
 70
     0
  0
VERTEX
  8
1
 10
-0.9098119109869
 20
6.43600870966911
 30
0.0
 70
     0
  0
VERTEX
  8
1
 10
-1.34630208164454
 20
6.35904287099838
 30
0.0
 70
     0
  0
VERTEX
  8
1
 10
-1.3694873072207
 20
6.29445704519749
 30
0.0
 70
     0
  0
VERTEX
  8
1
 10
-1.38795910850167
 20
6.23971838057041
 30
0.0
 70
     0
  0
VERTEX
  8
1
 10
-1.40496511459351
 20
6.1862620383501
 30
0.0
 70
     0
  0
VERTEX
  8
1
 10
-1.42055594846606
 20
6.13412094712257
 30
0.0
 70
     0
  0
VERTEX
  8
1
 10
-1.43478280082345
 20
6.08332841396332
 30
0.0
 70
     0
  0
VERTEX
  8
1
 10
-1.4536794565618
 20
6.00973529517651
 30
0.0
 70
     0
  0
VERTEX
  8
1
 10
-1.46980244666338
 20
5.93934608995914
 30
0.0
 70
     0
  0
VERTEX
  8
1
 10
-1.48333297297359
 20
5.87225125730038
 30
0.0
 70
     0
  0
VERTEX
  8
1
 10
-1.49445507600903
 20
5.8085378497839
 30
0.0
 70
     0
  0
VERTEX
  8
1
 10
-1.50335563495755
 20
5.74828118681908
 30
0.0
 70
     0
  0
VERTEX
  8
1
 10
-1.51022342145443
 20
5.69155355989933
 30
0.0
 70
     0
  0
VERTEX
  8
1
 10
-1.51524966731668
 20
5.63841666281223
 30
0.0
 70
     0
  0
VERTEX
  8
1
 10
-1.51942062154412
 20
5.5732464492321
 30
0.0
 70
     0
  0
VERTEX
  8
1
 10
-1.52112212106586
 20
5.51466422379017
 30
0.0
 70
     0
  0
VERTEX
  8
1
 10
-1.52048578560352
 20
5.45083083510399
 30
0.0
 70
     0
  0
VERTEX
  8
1
 10
-1.51763263717294
 20
5.39753535091877
 30
0.0
 70
     0
  0
VERTEX
  8
1
 10
-1.51165988370776
 20
5.34071310162544
 30
0.0
 70
     0
  0
VERTEX
  8
1
 10
-1.50187999904156
 20
5.28805764317512
 30
0.0
 70
     0
  0
VERTEX
  8
1
 10
-1.37628573551774
 20
4.84584527909756
 30
0.0
 42
-0.000043633224717
 70
     0
  0
VERTEX
  8
1
 10
-2.06055452674627
 20
4.59679237902164
 30
0.0
 70
     0
  0
VERTEX
  8
1
 10
-2.24859321713448
 20
5.01627682745457
 30
0.0
 70
     0
  0
VERTEX
  8
1
 10
-2.27494781911373
 20
5.06289992034435
 30
0.0
 70
     0
  0
VERTEX
  8
1
 10
-2.30689687430859
 20
5.11026712357998
 30
0.0
 70
     0
  0
VERTEX
  8
1
 10
-2.33896874934435
 20
5.15292780995369
 30
0.0
 70
     0
  0
VERTEX
  8
1
 10
-2.37951311171055
 20
5.2022366642952
 30
0.0
 70
     0
  0
VERTEX
  8
1
 10
-2.41847179234028
 20
5.24601843655109
 30
0.0
 70
     0
  0
VERTEX
  8
1
 10
-2.46355765014887
 20
5.29326111674309
 30
0.0
 70
     0
  0
VERTEX
  8
1
 10
-2.50156386196613
 20
5.33073536157608
 30
0.0
 70
     0
  0
VERTEX
  8
1
 10
-2.54328911155462
 20
5.36977693140507
 30
0.0
 70
     0
  0
VERTEX
  8
1
 10
-2.58883899748325
 20
5.41021474897861
 30
0.0
 70
     0
  0
VERTEX
  8
1
 10
-2.63831363022327
 20
5.45187319517136
 30
0.0
 70
     0
  0
VERTEX
  8
1
 10
-2.69180611819029
 20
5.49457362294197
 30
0.0
 70
     0
  0
VERTEX
  8
1
 10
-2.74940256774426
 20
5.53813132941723
 30
0.0
 70
     0
  0
VERTEX
  8
1
 10
-2.81118284016848
 20
5.58236009776592
 30
0.0
 70
     0
  0
VERTEX
  8
1
 10
-2.85472994893789
 20
5.61212413311005
 30
0.0
 70
     0
  0
VERTEX
  8
1
 10
-2.90018899738789
 20
5.64204524159431
 30
0.0
 70
     0
  0
VERTEX
  8
1
 10
-2.94757777452469
 20
5.67206400036812
 30
0.0
 70
     0
  0
VERTEX
  8
1
 10
-2.9969131231308
 20
5.70212287902832
 30
0.0
 70
     0
  0
VERTEX
  8
1
 10
-3.05618911981583
 20
5.73669562339783
 30
0.0
 70
     0
  0
VERTEX
  8
1
 10
-3.44003196954727
 20
5.51508283317089
 30
0.0
 70
     0
  0
VERTEX
  8
1
 10
-3.43972955644131
 20
5.44646193087101
 30
0.0
 70
     0
  0
VERTEX
  8
1
 10
-3.43836548030376
 20
5.38870670497417
 30
0.0
 70
     0
  0
VERTEX
  8
1
 10
-3.4360623717308
 20
5.33265808820724
 30
0.0
 70
     0
  0
VERTEX
  8
1
 10
-3.43287965357304
 20
5.27832894921303
 30
0.0
 70
     0
  0
VERTEX
  8
1
 10
-3.42887637019157
 20
5.2257340490818
 30
0.0
 70
     0
  0
VERTEX
  8
1
 10
-3.42146327495575
 20
5.15011601150036
 30
0.0
 70
     0
  0
VERTEX
  8
1
 10
-3.41253924965858
 20
5.07845735251903
 30
0.0
 70
     0
  0
VERTEX
  8
1
 10
-3.40230602920055
 20
5.01078115999699
 30
0.0
 70
     0
  0
VERTEX
  8
1
 10
-3.39096610546112
 20
4.94710635840893
 30
0.0
 70
     0
  0
VERTEX
  8
1
 10
-3.37872083485127
 20
4.88743938207626
 30
0.0
 70
     0
  0
VERTEX
  8
1
 10
-3.36577270925045
 20
4.83178401589394
 30
0.0
 70
     0
  0
VERTEX
  8
1
 10
-3.35232194960117
 20
4.78013269007206
 30
0.0
 70
     0
  0
VERTEX
  8
1
 10
-3.33395158350468
 20
4.71746580600739
 30
0.0
 70
     0
  0
VERTEX
  8
1
 10
-3.31551422476768
 20
4.6618342846632
 30
0.0
 70
     0
  0
VERTEX
  8
1
 10
-3.29308418035507
 20
4.60206852257252
 30
0.0
 70
     0
  0
VERTEX
  8
1
 10
-3.27217490673065
 20
4.55296291708946
 30
0.0
 70
     0
  0
VERTEX
  8
1
 10
-3.24712798595428
 20
4.5016105979681
 30
0.0
 70
     0
  0
VERTEX
  8
1
 10
-3.2199285954237
 20
4.4554753780365
 30
0.0
 70
     0
  0
VERTEX
  8
1
 10
-2.95066303163767
 20
4.08288767039776
 30
0.0
 42
-0.000043633227295
 70
     0
  0
VERTEX
  8
1
 10
-3.50848406553268
 20
3.61482031047344
 30
0.0
 70
     0
  0
VERTEX
  8
1
 10
-3.82865476310253
 20
3.94469472169876
 30
0.0
 70
     0
  0
VERTEX
  8
1
 10
-3.86936622858047
 20
3.9794919103384
 30
0.0
 70
     0
  0
VERTEX
  8
1
 10
-3.91558925807476
 20
4.01307528316975
 30
0.0
 70
     0
  0
VERTEX
  8
1
 10
-3.96031763255596
 20
4.04219399392605
 30
0.0
 70
     0
  0
VERTEX
  8
1
 10
-4.01528149843216
 20
4.07466233670711
 30
0.0
 70
     0
  0
VERTEX
  8
1
 10
-4.06686507463455
 20
4.10247904360294
 30
0.0
 70
     0
  0
VERTEX
  8
1
 10
-4.12538976967335
 20
4.13145241439342
 30
0.0
 70
     0
  0
VERTEX
  8
1
 10
-4.17392120659351
 20
4.15366785526276
 30
0.0
 70
     0
  0
VERTEX
  8
1
 10
-4.22648317813873
 20
4.17608389556408
 30
0.0
 70
     0
  0
VERTEX
  8
1
 10
-4.2831161826849
 20
4.19850409924984
 30
0.0
 70
     0
  0
VERTEX
  8
1
 10
-4.34385541975498
 20
4.22072862386703
 30
0.0
 70
     0
  0
VERTEX
  8
1
 10
-4.4087262481451
 20
4.24255876243114
 30
0.0
 70
     0
  0
VERTEX
  8
1
 10
-4.47774683535099
 20
4.26379013061523
 30
0.0
 70
     0
  0
VERTEX
  8
1
 10
-4.55092815756798
 20
4.28422137200832
 30
0.0
 70
     0
  0
VERTEX
  8
1
 10
-4.60202915966511
 20
4.29729667007923
 30
0.0
 70
     0
  0
VERTEX
  8
1
 10
-4.65498059689999
 20
4.30986592769623
 30
0.0
 70
     0
  0
VERTEX
  8
1
 10
-4.70977830588818
 20
4.32186631560326
 30
0.0
 70
     0
  0
VERTEX
  8
1
 10
-4.76641888022423
 20
4.3332387894392
 30
0.0
 70
     0
  0
VERTEX
  8
1
 10
-4.83394443392754
 20
4.34545264542103
 30
0.0
 70
     0
  0
VERTEX
  8
1
 10
-5.11884293854237
 20
4.00592296719551
 30
0.0
 70
     0
  0
VERTEX
  8
1
 10
-5.09508855938911
 20
3.94154379665852
 30
0.0
 70
     0
  0
VERTEX
  8
1
 10
-5.07405362725258
 20
3.88773848712444
 30
0.0
 70
     0
  0
VERTEX
  8
1
 10
-5.05272006690502
 20
3.83585741817951
 30
0.0
 70
     0
  0
VERTEX
  8
1
 10
-5.03114730119705
 20
3.78589339852333
 30
0.0
 70
     0
  0
VERTEX
  8
1
 10
-5.00939740240574
 20
3.73783923685551
 30
0.0
 70
     0
  0
VERTEX
  8
1
 10
-4.97656798064709
 20
3.66931712031364
 30
0.0
 70
     0
  0
VERTEX
  8
1
 10
-4.94367345869541
 20
3.60503219366074
 30
0.0
 70
     0
  0
VERTEX
  8
1
 10
-4.91091102957725
 20
3.54493714570999
 30
0.0
 70
     0
  0
VERTEX
  8
1
 10
-4.87847675085068
 20
3.48898088037968
 30
0.0
 70
     0
  0
VERTEX
  8
1
 10
-4.84656289517879
 20
3.43710018992424
 30
0.0
 70
     0
  0
VERTEX
  8
1
 10
-4.81536022126675
 20
3.38922997415066
 30
0.0
 70
     0
  0
VERTEX
  8
1
 10
-4.78505494594574
 20
3.34529377818108
 30
0.0
 70
     0
  0
VERTEX
  8
1
 10
-4.74635931551456
 20
3.29268941581249
 30
0.0
 70
     0
  0
VERTEX
  8
1
 10
-4.71000653505325
 20
3.24671921730041
 30
0.0
 70
     0
  0
VERTEX
  8
1
 10
-4.66848775148392
 20
3.19822865724564
 30
0.0
 70
     0
  0
VERTEX
  8
1
 10
-4.63204489052296
 20
3.15923648029566
 30
0.0
 70
     0
  0
VERTEX
  8
1
 10
-4.59094433784485
 20
3.11954712569714
 30
0.0
 70
     0
  0
VERTEX
  8
1
 10
-4.5496064722538
 20
3.08549726456404
 30
0.0
 70
     0
  0
VERTEX
  8
1
 10
-4.16914694011211
 20
2.82747321724892
 30
0.0
 42
-0.000043633203321
 70
     0
  0
VERTEX
  8
1
 10
-4.53323907256126
 20
2.19684821516275
 30
0.0
 70
     0
  0
VERTEX
  8
1
 10
-4.94692468345165
 20
2.39732388108969
 30
0.0
 70
     0
  0
VERTEX
  8
1
 10
-4.99708211123943
 20
2.41609866321087
 30
0.0
 70
     0
  0
VERTEX
  8
1
 10
-5.05200396478176
 20
2.43184780031443
 30
0.0
 70
     0
  0
VERTEX
  8
1
 10
-5.10399366021156
 20
2.443912152946
 30
0.0
 70
     0
  0
VERTEX
  8
1
 10
-5.16674797534943
 20
2.45562356412411
 30
0.0
 70
     0
  0
VERTEX
  8
1
 10
-5.22473445832729
 20
2.46412027478218
 30
0.0
 70
     0
  0
VERTEX
  8
1
 10
-5.28963897228241
 20
2.47132955342531
 30
0.0
 70
     0
  0
VERTEX
  8
1
 10
-5.34284210503101
 20
2.47560686320066
 30
0.0
 70
     0
  0
VERTEX
  8
1
 10
-5.3999005317688
 20
2.47869382351637
 30
0.0
 70
     0
  0
VERTEX
  8
1
 10
-5.46078662276268
 20
2.48039191663265
 30
0.0
 70
     0
  0
VERTEX
  8
1
 10
-5.52546366453171
 20
2.48050243556499
 30
0.0
 70
     0
  0
VERTEX
  8
1
 10
-5.59388850927353
 20
2.4788283765316
 30
0.0
 70
     0
  0
VERTEX
  8
1
 10
-5.66600854694843
 20
2.47517349272966
 30
0.0
 70
     0
  0
VERTEX
  8
1
 10
-5.74176435470581
 20
2.46934286206961
 30
0.0
 70
     0
  0
VERTEX
  8
1
 10
-5.79425592720509
 20
2.46415225714445
 30
0.0
 70
     0
  0
VERTEX
  8
1
 10
-5.84831255376339
 20
2.45785248875618
 30
0.0
 70
     0
  0
VERTEX
  8
1
 10
-5.90391001105309
 20
2.45038735121489
 30
0.0
 70
     0
  0
VERTEX
  8
1
 10
-5.96102407574654
 20
2.44170177429914
 30
0.0
 70
     0
  0
VERTEX
  8
1
 10
-6.02865522801876
 20
2.43008403927088
 30
0.0
 70
     0
  0
VERTEX
  8
1
 10
-6.18024594783783
 20
2.01358965784311
 30
0.0
 70
     0
  0
VERTEX
  8
1
 10
-6.13590514659882
 20
1.9612174987793
 30
0.0
 70
     0
  0
VERTEX
  8
1
 10
-6.09773637354374
 20
1.91785130798817
 30
0.0
 70
     0
  0
VERTEX
  8
1
 10
-6.0599449545145
 20
1.87639554291964
 30
0.0
 70
     0
  0
VERTEX
  8
1
 10
-6.0225846350193
 20
1.83682295233011
 30
0.0
 70
     0
  0
VERTEX
  8
1
 10
-5.98571029603481
 20
1.79910590648651
 30
0.0
 70
     0
  0
VERTEX
  8
1
 10
-5.93142544031143
 20
1.74594440758228
 30
0.0
 70
     0
  0
VERTEX
  8
1
 10
-5.87852774858475
 20
1.69678694903851
 30
0.0
 70
     0
  0
VERTEX
  8
1
 10
-5.82718716263771
 20
1.65152168720961
 30
0.0
 70
     0
  0
VERTEX
  8
1
 10
-5.77757097482681
 20
1.61003299355507
 30
0.0
 70
     0
  0
VERTEX
  8
1
 10
-5.72983739376068
 20
1.57219643965364
 30
0.0
 70
     0
  0
VERTEX
  8
1
 10
-5.68414387106895
 20
1.53788494765759
 30
0.0
 70
     0
  0
VERTEX
  8
1
 10
-5.6406391531229
 20
1.50696377530694
 30
0.0
 70
     0
  0
VERTEX
  8
1
 10
-5.58628541231155
 20
1.47076636478305
 30
0.0
 70
     0
  0
VERTEX
  8
1
 10
-5.53640238940716
 20
1.44000188708305
 30
0.0
 70
     0
  0
VERTEX
  8
1
 10
-5.4808026611805
 20
1.40863608419895
 30
0.0
 70
     0
  0
VERTEX
  8
1
 10
-5.43322123289108
 20
1.38445931077003
 30
0.0
 70
     0
  0
VERTEX
  8
1
 10
-5.38102526068687
 20
1.36122071817517
 30
0.0
 70
     0
  0
VERTEX
  8
1
 10
-5.33053438365459
 20
1.34336282685399
 30
0.0
 70
     0
  0
VERTEX
  8
1
 10
-4.8847698956728
 20
1.23102440088987
 30
0.0
 42
-0.00004363320416
 70
     0
  0
VERTEX
  8
1
 10
-5.01121793687344
 20
0.51390376240015
 30
0.0
 70
     0
  0
VERTEX
  8
1
 10
-5.46852219104767
 20
0.560801023617387
 30
0.0
 70
     0
  0
VERTEX
  8
1
 10
-5.52207618355751
 20
0.56128875464201
 30
0.0
 70
     0
  0
VERTEX
  8
1
 10
-5.57907215952873
 20
0.557303780689836
 30
0.0
 70
     0
  0
VERTEX
  8
1
 10
-5.63205311894417
 20
0.550858956202865
 30
0.0
 70
     0
  0
VERTEX
  8
1
 10
-5.69502809345722
 20
0.540400960296392
 30
0.0
 70
     0
  0
VERTEX
  8
1
 10
-5.75242375433445
 20
0.528552630543709
 30
0.0
 70
     0
  0
VERTEX
  8
1
 10
-5.81587978899479
 20
0.513128473982215
 30
0.0
 70
     0
  0
VERTEX
  8
1
 10
-5.86733694970608
 20
0.498951298370957
 30
0.0
 70
     0
  0
VERTEX
  8
1
 10
-5.92201051414013
 20
0.482337076216936
 30
0.0
 70
     0
  0
VERTEX
  8
1
 10
-5.97980548143387
 20
0.46310848519206
 30
0.0
 70
     0
  0
VERTEX
  8
1
 10
-6.04062003791332
 20
0.441091467440128
 30
0.0
 70
     0
  0
VERTEX
  8
1
 10
-6.10434593558311
 20
0.416115702688694
 30
0.0
 70
     0
  0
VERTEX
  8
1
 10
-6.1708662211895
 20
0.388014631904662
 30
0.0
 70
     0
  0
VERTEX
  8
1
 10
-6.2400593996048
 20
0.356625693850219
 30
0.0
 70
     0
  0
VERTEX
  8
1
 10
-6.28760979175568
 20
0.333794947341084
 30
0.0
 70
     0
  0
VERTEX
  8
1
 10
-6.33625174760818
 20
0.309386845864356
 30
0.0
 70
     0
  0
VERTEX
  8
1
 10
-6.38594363331795
 20
0.283356609381735
 30
0.0
 70
     0
  0
VERTEX
  8
1
 10
-6.4366430580616
 20
0.255660356767476
 30
0.0
 70
     0
  0
VERTEX
  8
1
 10
-6.49622184634209
 20
0.221612151525915
 30
0.0
 70
     0
  0
VERTEX
  8
1
 10
-6.4962210893631
 20
-0.22161170206964
 30
0.0
 70
     0
  0
VERTEX
  8
1
 10
-6.43664230108261
 20
-0.255659954622388
 30
0.0
 70
     0
  0
VERTEX
  8
1
 10
-6.38594287633896
 20
-0.283356301859021
 30
0.0
 70
     0
  0
VERTEX
  8
1
 10
-6.33625136911869
 20
-0.309386514686048
 30
0.0
 70
     0
  0
VERTEX
  8
1
 10
-6.28760941326618
 20
-0.333794687129557
 30
0.0
 70
     0
  0
VERTEX
  8
1
 10
-6.2400590211153
 20
-0.356625409983099
 30
0.0
 70
     0
  0
VERTEX
  8
1
 10
-6.17086546421051
 20
-0.388014300726354
 30
0.0
 70
     0
  0
VERTEX
  8
1
 10
-6.10434517860413
 20
-0.416115276888013
 30
0.0
 70
     0
  0
VERTEX
  8
1
 10
-6.04061928093433
 20
-0.441091183573008
 30
0.0
 70
     0
  0
VERTEX
  8
1
 10
-5.97980510294437
 20
-0.463108106702566
 30
0.0
 70
     0
  0
VERTEX
  8
1
 10
-5.92200937867165
 20
-0.482336886972189
 30
0.0
 70
     0
  0
VERTEX
  8
1
 10
-5.86733619272709
 20
-0.498951061815023
 30
0.0
 70
     0
  0
VERTEX
  8
1
 10
-5.81587941050529
 20
-0.513128095492721
 30
0.0
 70
     0
  0
VERTEX
  8
1
 10
-5.75242337584496
 20
-0.528552346676588
 30
0.0
 70
     0
  0
VERTEX
  8
1
 10
-5.69502657949924
 20
-0.540400629118085
 30
0.0
 70
     0
  0
VERTEX
  8
1
 10
-5.63205236196518
 20
-0.550858625024557
 30
0.0
 70
     0
  0
VERTEX
  8
1
 10
-5.57907140254974
 20
-0.557303449511528
 30
0.0
 70
     0
  0
VERTEX
  8
1
 10
-5.52207504808903
 20
-0.561288518086076
 30
0.0
 70
     0
  0
VERTEX
  8
1
 10
-5.46852143406868
 20
-0.560800739750266
 30
0.0
 70
     0
  0
VERTEX
  8
1
 10
-5.01121793687344
 20
-0.513903904333711
 30
0.0
 42
-0.00004363320596
 70
     0
  0
VERTEX
  8
1
 10
-4.88477027416229
 20
-1.23102468475699
 30
0.0
 70
     0
  0
VERTEX
  8
1
 10
-5.33053551912308
 20
-1.34336424618959
 30
0.0
 70
     0
  0
VERTEX
  8
1
 10
-5.38102639615536
 20
-1.36122251600027
 30
0.0
 70
     0
  0
VERTEX
  8
1
 10
-5.43322236835957
 20
-1.38446091935039
 30
0.0
 70
     0
  0
VERTEX
  8
1
 10
-5.48080417513847
 20
-1.4086376927793
 30
0.0
 70
     0
  0
VERTEX
  8
1
 10
-5.53640428185463
 20
-1.44000368490815
 30
0.0
 70
     0
  0
VERTEX
  8
1
 10
-5.58628616929054
 20
-1.47076778411865
 30
0.0
 70
     0
  0
VERTEX
  8
1
 10
-5.64064028859138
 20
-1.50696510002017
 30
0.0
 70
     0
  0
VERTEX
  8
1
 10
-5.68414538502693
 20
-1.53788665086031
 30
0.0
 70
     0
  0
VERTEX
  8
1
 10
-5.72983890771866
 20
-1.57219842672348
 30
0.0
 70
     0
  0
VERTEX
  8
1
 10
-5.7775717318058
 20
-1.6100343182683
 30
0.0
 70
     0
  0
VERTEX
  8
1
 10
-5.82718867659569
 20
-1.65152357965708
 30
0.0
 70
     0
  0
VERTEX
  8
1
 10
-5.87852926254272
 20
-1.69678846299648
 30
0.0
 70
     0
  0
VERTEX
  8
1
 10
-5.93142657577991
 20
-1.74594611078501
 30
0.0
 70
     0
  0
VERTEX
  8
1
 10
-5.9857114315033
 20
-1.79910779893398
 30
0.0
 70
     0
  0
VERTEX
  8
1
 10
-6.02258577048779
 20
-1.83682465553284
 30
0.0
 70
     0
  0
VERTEX
  8
1
 10
-6.05994571149349
 20
-1.87639724612236
 30
0.0
 70
     0
  0
VERTEX
  8
1
 10
-6.09773750901222
 20
-1.91785301119089
 30
0.0
 70
     0
  0
VERTEX
  8
1
 10
-6.13590666055679
 20
-1.96121939122677
 30
0.0
 70
     0
  0
VERTEX
  8
1
 10
-6.18024708330631
 20
-2.01359136104584
 30
0.0
 70
     0
  0
VERTEX
  8
1
 10
-6.02865484952927
 20
-2.43008536398411
 30
0.0
 70
     0
  0
VERTEX
  8
1
 10
-5.96102407574654
 20
-2.44170309901237
 30
0.0
 70
     0
  0
VERTEX
  8
1
 10
-5.90390963256359
 20
-2.45038886517286
 30
0.0
 70
     0
  0
VERTEX
  8
1
 10
-5.84831255376339
 20
-2.45785400271416
 30
0.0
 70
     0
  0
VERTEX
  8
1
 10
-5.79425592720509
 20
-2.46415358185768
 30
0.0
 70
     0
  0
VERTEX
  8
1
 10
-5.7417647331953
 20
-2.46934437602758
 30
0.0
 70
     0
  0
VERTEX
  8
1
 10
-5.66600816845894
 20
-2.47517462819815
 30
0.0
 70
     0
  0
VERTEX
  8
1
 10
-5.59388850927353
 20
-2.47882970124483
 30
0.0
 70
     0
  0
VERTEX
  8
1
 10
-5.52546366453171
 20
-2.48050376027822
 30
0.0
 70
     0
  0
VERTEX
  8
1
 10
-5.46078662276268
 20
-2.48039343059063
 30
0.0
 70
     0
  0
VERTEX
  8
1
 10
-5.39989977478981
 20
-2.4786951482296
 30
0.0
 70
     0
  0
VERTEX
  8
1
 10
-5.34284172654152
 20
-2.47560799866915
 30
0.0
 70
     0
  0
VERTEX
  8
1
 10
-5.2896393507719
 20
-2.47133068889379
 30
0.0
 70
     0
  0
VERTEX
  8
1
 10
-5.22473483681679
 20
-2.46412159949541
 30
0.0
 70
     0
  0
VERTEX
  8
1
 10
-5.16674683988094
 20
-2.45562451034784
 30
0.0
 70
     0
  0
VERTEX
  8
1
 10
-5.10399366021156
 20
-2.44391328841448
 30
0.0
 70
     0
  0
VERTEX
  8
1
 10
-5.05200358629227
 20
-2.43184874653816
 30
0.0
 70
     0
  0
VERTEX
  8
1
 10
-4.99708135426044
 20
-2.4160996094346
 30
0.0
 70
     0
  0
VERTEX
  8
1
 10
-4.94692468345165
 20
-2.39732501655817
 30
0.0
 70
     0
  0
VERTEX
  8
1
 10
-4.53323945105076
 20
-2.19684916138649
 30
0.0
 42
-0.000043633234976
 70
     0
  0
VERTEX
  8
1
 10
-4.16914731860161
 20
-2.82747492045164
 30
0.0
 70
     0
  0
VERTEX
  8
1
 10
-4.54960798621178
 20
-3.08549934625626
 30
0.0
 70
     0
  0
VERTEX
  8
1
 10
-4.59094623029232
 20
-3.1195497751236
 30
0.0
 70
     0
  0
VERTEX
  8
1
 10
-4.63204602599144
 20
-3.15923856198788
 30
0.0
 70
     0
  0
VERTEX
  8
1
 10
-4.66848926544189
 20
-3.1982309281826
 30
0.0
 70
     0
  0
VERTEX
  8
1
 10
-4.71000842750072
 20
-3.24672186672688
 30
0.0
 70
     0
  0
VERTEX
  8
1
 10
-4.74636007249355
 20
-3.29269130825996
 30
0.0
 70
     0
  0
VERTEX
  8
1
 10
-4.78505570292473
 20
-3.34529567062855
 30
0.0
 70
     0
  0
VERTEX
  8
1
 10
-4.81536135673523
 20
-3.38923224508762
 30
0.0
 70
     0
  0
VERTEX
  8
1
 10
-4.84656440913677
 20
-3.4371028393507
 30
0.0
 70
     0
  0
VERTEX
  8
1
 10
-4.87847826480865
 20
-3.48898277282715
 30
0.0
 70
     0
  0
VERTEX
  8
1
 10
-4.91091254353523
 20
-3.54493979513645
 30
0.0
 70
     0
  0
VERTEX
  8
1
 10
-4.94367535114288
 20
-3.6050344645977
 30
0.0
 70
     0
  0
VERTEX
  8
1
 10
-4.97656987309456
 20
-3.6693197697401
 30
0.0
 70
     0
  0
VERTEX
  8
1
 10
-5.00939815938473
 20
-3.73784112930298
 30
0.0
 70
     0
  0
VERTEX
  8
1
 10
-5.03114881515503
 20
-3.7858956694603
 30
0.0
 70
     0
  0
VERTEX
  8
1
 10
-5.0527212023735
 20
-3.83585968911648
 30
0.0
 70
     0
  0
VERTEX
  8
1
 10
-5.07405514121056
 20
-3.88774075806141
 30
0.0
 70
     0
  0
VERTEX
  8
1
 10
-5.09509045183659
 20
-3.94154644608498
 30
0.0
 70
     0
  0
VERTEX
  8
1
 10
-5.11884445250034
 20
-4.00592523813248
 30
0.0
 70
     0
  0
VERTEX
  8
1
 10
-4.83394519090652
 20
-4.34545415937901
 30
0.0
 70
     0
  0
VERTEX
  8
1
 10
-4.76641925871372
 20
-4.33323992490768
 30
0.0
 70
     0
  0
VERTEX
  8
1
 10
-4.70977830588818
 20
-4.32186782956123
 30
0.0
 70
     0
  0
VERTEX
  8
1
 10
-4.65498097538948
 20
-4.30986744165421
 30
0.0
 70
     0
  0
VERTEX
  8
1
 10
-4.6020299166441
 20
-4.2972985625267
 30
0.0
 70
     0
  0
VERTEX
  8
1
 10
-4.55092891454697
 20
-4.28422326445579
 30
0.0
 70
     0
  0
VERTEX
  8
1
 10
-4.47774721384048
 20
-4.26379202306271
 30
0.0
 70
     0
  0
VERTEX
  8
1
 10
-4.4087266266346
 20
-4.24255989789963
 30
0.0
 70
     0
  0
VERTEX
  8
1
 10
-4.34385541975498
 20
-4.22073051631451
 30
0.0
 70
     0
  0
VERTEX
  8
1
 10
-4.28311693966389
 20
-4.19850561320782
 30
0.0
 70
     0
  0
VERTEX
  8
1
 10
-4.22648279964924
 20
-4.17608540952206
 30
0.0
 70
     0
  0
VERTEX
  8
1
 10
-4.17392158508301
 20
-4.15366936922073
 30
0.0
 70
     0
  0
VERTEX
  8
1
 10
-4.12539014816284
 20
-4.1314539283514
 30
0.0
 70
     0
  0
VERTEX
  8
1
 10
-4.06686545312405
 20
-4.10248093605041
 30
0.0
 70
     0
  0
VERTEX
  8
1
 10
-4.01528111994266
 20
-4.0746630936861
 30
0.0
 70
     0
  0
VERTEX
  8
1
 10
-3.96031801104546
 20
-4.04219550788403
 30
0.0
 70
     0
  0
VERTEX
  8
1
 10
-3.91558925807476
 20
-4.01307679712772
 30
0.0
 70
     0
  0
VERTEX
  8
1
 10
-3.86936660706997
 20
-3.97949304580688
 30
0.0
 70
     0
  0
VERTEX
  8
1
 10
-3.82865552008152
 20
-3.94469585716724
 30
0.0
 70
     0
  0
VERTEX
  8
1
 10
-3.50848520100117
 20
-3.61482182443142
 30
0.0
 42
-0.000043633223081
 70
     0
  0
VERTEX
  8
1
 10
-2.9506639778614
 20
-4.08288918435574
 30
0.0
 70
     0
  0
VERTEX
  8
1
 10
-3.21993010938168
 20
-4.45547764897346
 30
0.0
 70
     0
  0
VERTEX
  8
1
 10
-3.24712949991226
 20
-4.50161324739456
 30
0.0
 70
     0
  0
VERTEX
  8
1
 10
-3.27217679917812
 20
-4.55296556651592
 30
0.0
 70
     0
  0
VERTEX
  8
1
 10
-3.29308569431305
 20
-4.60207079350948
 30
0.0
 70
     0
  0
VERTEX
  8
1
 10
-3.31551649570465
 20
-4.66183769106865
 30
0.0
 70
     0
  0
VERTEX
  8
1
 10
-3.33395347595215
 20
-4.71746807694435
 30
0.0
 70
     0
  0
VERTEX
  8
1
 10
-3.35232346355915
 20
-4.78013458251953
 30
0.0
 70
     0
  0
VERTEX
  8
1
 10
-3.36577460169792
 20
-4.8317862868309
 30
0.0
 70
     0
  0
VERTEX
  8
1
 10
-3.37872272729874
 20
-4.88744203150272
 30
0.0
 70
     0
  0
VERTEX
  8
1
 10
-3.39096799790859
 20
-4.9471082508564
 30
0.0
 70
     0
  0
VERTEX
  8
1
 10
-3.40230792164803
 20
-5.01078418791294
 30
0.0
 70
     0
  0
VERTEX
  8
1
 10
-3.41254114210606
 20
-5.0784600019455
 30
0.0
 70
     0
  0
VERTEX
  8
1
 10
-3.42146516740322
 20
-5.15011866092682
 30
0.0
 70
     0
  0
VERTEX
  8
1
 10
-3.42887788414955
 20
-5.22573632001877
 30
0.0
 70
     0
  0
VERTEX
  8
1
 10
-3.43288116753101
 20
-5.27833159863949
 30
0.0
 70
     0
  0
VERTEX
  8
1
 10
-3.43606426417828
 20
-5.33266073763371
 30
0.0
 70
     0
  0
VERTEX
  8
1
 10
-3.43836737275124
 20
-5.38870973289013
 30
0.0
 70
     0
  0
VERTEX
  8
1
 10
-3.43973144888878
 20
-5.44646495878696
 30
0.0
 70
     0
  0
VERTEX
  8
1
 10
-3.44003424048424
 20
-5.51508586108685
 30
0.0
 70
     0
  0
VERTEX
  8
1
 10
-3.05619044452906
 20
-5.7366971373558
 30
0.0
 70
     0
  0
VERTEX
  8
1
 10
-2.99691425859928
 20
-5.7021243929863
 30
0.0
 70
     0
  0
VERTEX
  8
1
 10
-2.94757890999317
 20
-5.6720655143261
 30
0.0
 70
     0
  0
VERTEX
  8
1
 10
-2.90019032210112
 20
-5.64204713404179
 30
0.0
 70
     0
  0
VERTEX
  8
1
 10
-2.85473127365112
 20
-5.61212602555752
 30
0.0
 70
     0
  0
VERTEX
  8
1
 10
-2.81118397563696
 20
-5.5823616117239
 30
0.0
 70
     0
  0
VERTEX
  8
1
 10
-2.74940370321274
 20
-5.53813246488571
 30
0.0
 70
     0
  0
VERTEX
  8
1
 10
-2.69180725365877
 20
-5.49457513689995
 30
0.0
 70
     0
  0
VERTEX
  8
1
 10
-2.63831457644701
 20
-5.45187470912933
 30
0.0
 70
     0
  0
VERTEX
  8
1
 10
-2.58884032219648
 20
-5.41021626293659
 30
0.0
 70
     0
  0
VERTEX
  8
1
 10
-2.54328986853361
 20
-5.36977806687355
 30
0.0
 70
     0
  0
VERTEX
  8
1
 10
-2.50156499743462
 20
-5.33073687553406
 30
0.0
 70
     0
  0
VERTEX
  8
1
 10
-2.4635589748621
 20
-5.29326263070107
 30
0.0
 70
     0
  0
VERTEX
  8
1
 10
-2.41847311705351
 20
-5.24602032899857
 30
0.0
 70
     0
  0
VERTEX
  8
1
 10
-2.37951367944479
 20
-5.20223742127418
 30
0.0
 70
     0
  0
VERTEX
  8
1
 10
-2.33896969556808
 20
-5.15292894542217
 30
0.0
 70
     0
  0
VERTEX
  8
1
 10
-2.30689782053232
 20
-5.11026863753796
 30
0.0
 70
     0
  0
VERTEX
  8
1
 10
-2.27494838684797
 20
-5.06290105581284
 30
0.0
 70
     0
  0
VERTEX
  8
1
 10
-2.24859397411346
 20
-5.01627796292305
 30
0.0
 70
     0
  0
VERTEX
  8
1
 10
-2.06055604070425
 20
-4.59679351449013
 30
0.0
 42
-0.000043633213102
 70
     0
  0
VERTEX
  8
1
 10
-1.37628724947572
 20
-4.84584679305553
 30
0.0
 70
     0
  0
VERTEX
  8
1
 10
-1.50188170224428
 20
-5.28806029260159
 30
0.0
 70
     0
  0
VERTEX
  8
1
 10
-1.51166158691049
 20
-5.3407161295414
 30
0.0
 70
     0
  0
VERTEX
  8
1
 10
-1.51763443499804
 20
-5.39753837883472
 30
0.0
 70
     0
  0
VERTEX
  8
1
 10
-1.52048758342862
 20
-5.45083310604095
 30
0.0
 70
     0
  0
VERTEX
  8
1
 10
-1.52112391889095
 20
-5.51466763019562
 30
0.0
 70
     0
  0
VERTEX
  8
1
 10
-1.51942232474685
 20
-5.57324872016907
 30
0.0
 70
     0
  0
VERTEX
  8
1
 10
-1.51525155976415
 20
-5.63841931223869
 30
0.0
 70
     0
  0
VERTEX
  8
1
 10
-1.51022521927953
 20
-5.69155620932579
 30
0.0
 70
     0
  0
VERTEX
  8
1
 10
-1.50335733816028
 20
-5.74828459322453
 30
0.0
 70
     0
  0
VERTEX
  8
1
 10
-1.49445687383413
 20
-5.80854049921036
 30
0.0
 70
     0
  0
VERTEX
  8
1
 10
-1.48333467617631
 20
-5.87225428521633
 30
0.0
 70
     0
  0
VERTEX
  8
1
 10
-1.46980424448848
 20
-5.9393491178751
 30
0.0
 70
     0
  0
VERTEX
  8
1
 10
-1.4536812543869
 20
-6.00973832309246
 30
0.0
 70
     0
  0
VERTEX
  8
1
 10
-1.4347844094038
 20
-6.08333068490028
 30
0.0
 70
     0
  0
VERTEX
  8
1
 10
-1.42055755704641
 20
-6.13412359654903
 30
0.0
 70
     0
  0
VERTEX
  8
1
 10
-1.4049669124186
 20
-6.18626468777657
 30
0.0
 70
     0
  0
VERTEX
  8
1
 10
-1.38796090632677
 20
-6.23972140848637
 30
0.0
 70
     0
  0
VERTEX
  8
1
 10
-1.36948929429054
 20
-6.29445969462395
 30
0.0
 70
     0
  0
VERTEX
  8
1
 10
-1.34630406871438
 20
-6.35904589891434
 30
0.0
 70
     0
  0
VERTEX
  8
1
 10
-0.909813614189625
 20
-6.43601022362709
 30
0.0
 70
     0
  0
VERTEX
  8
1
 10
-0.865936746448278
 20
-6.38324878811836
 30
0.0
 70
     0
  0
VERTEX
  8
1
 10
-0.829857330024242
 20
-6.33812905550003
 30
0.0
 70
     0
  0
VERTEX
  8
1
 10
-0.795593811571598
 20
-6.29371331334114
 30
0.0
 70
     0
  0
VERTEX
  8
1
 10
-0.763109903410077
 20
-6.25004887282848
 30
0.0
 70
     0
  0
VERTEX
  8
1
 10
-0.73236889205873
 20
-6.20718531608582
 30
0.0
 70
     0
  0
VERTEX
  8
1
 10
-0.689441559836268
 20
-6.14449383020401
 30
0.0
 70
     0
  0
VERTEX
  8
1
 10
-0.650216327980161
 20
-6.08386359810829
 30
0.0
 70
     0
  0
VERTEX
  8
1
 10
-0.614553959667683
 20
-6.02544298768044
 30
0.0
 70
     0
  0
VERTEX
  8
1
 10
-0.582311196625233
 20
-5.96937582492828
 30
0.0
 70
     0
  0
VERTEX
  8
1
 10
-0.553338440880179
 20
-5.91579723060131
 30
0.0
 70
     0
  0
VERTEX
  8
1
 10
-0.527482735365629
 20
-5.86483967602253
 30
0.0
 70
     0
  0
VERTEX
  8
1
 10
-0.504585682228208
 20
-5.81662654876709
 30
0.0
 70
     0
  0
VERTEX
  8
1
 10
-0.478376704081893
 20
-5.75681271851063
 30
0.0
 70
     0
  0
VERTEX
  8
1
 10
-0.456741582229733
 20
-5.70234543085098
 30
0.0
 70
     0
  0
VERTEX
  8
1
 10
-0.435507138818502
 20
-5.64214364886284
 30
0.0
 70
     0
  0
VERTEX
  8
1
 10
-0.419960209727287
 20
-5.59108693003654
 30
0.0
 70
     0
  0
VERTEX
  8
1
 10
-0.406138246506453
 20
-5.53564881682396
 30
0.0
 70
     0
  0
VERTEX
  8
1
 10
-0.397319157421589
 20
-5.48282379508018
 30
0.0
 70
     0
  0
VERTEX
  8
1
 10
-0.36409345716238
 20
-5.02432427108288
 30
0.0
 42
-0.000043633221239
 70
     0
  0
VERTEX
  8
1
 10
0.364090240001678
 20
-5.02432464957237
 30
0.0
 70
     0
  0
VERTEX
  8
1
 10
0.397315798327327
 20
-5.48282493054867
 30
0.0
 70
     0
  0
VERTEX
  8
1
 10
0.406134982034564
 20
-5.53565033078194
 30
0.0
 70
     0
  0
VERTEX
  8
1
 10
0.419956614077091
 20
-5.59108806550503
 30
0.0
 70
     0
  0
VERTEX
  8
1
 10
0.435503590479493
 20
-5.64214516282082
 30
0.0
 70
     0
  0
VERTEX
  8
1
 10
0.456738175824285
 20
-5.70234694480896
 30
0.0
 70
     0
  0
VERTEX
  8
1
 10
0.47837320305407
 20
-5.75681385397911
 30
0.0
 70
     0
  0
VERTEX
  8
1
 10
0.504581991955638
 20
-5.81662730574608
 30
0.0
 70
     0
  0
VERTEX
  8
1
 10
0.527479234337807
 20
-5.86484081149101
 30
0.0
 70
     0
  0
VERTEX
  8
1
 10
0.553334987163544
 20
-5.91579874455929
 30
0.0
 70
     0
  0
VERTEX
  8
1
 10
0.582307411730289
 20
-5.96937658190727
 30
0.0
 70
     0
  0
VERTEX
  8
1
 10
0.614550269395113
 20
-6.02544412314892
 30
0.0
 70
     0
  0
VERTEX
  8
1
 10
0.650212495774031
 20
-6.08386473357677
 30
0.0
 70
     0
  0
VERTEX
  8
1
 10
0.689437822252512
 20
-6.14449496567249
 30
0.0
 70
     0
  0
VERTEX
  8
1
 10
0.732365154474974
 20
-6.2071860730648
 30
0.0
 70
     0
  0
VERTEX
  8
1
 10
0.763106071203947
 20
-6.25004962980747
 30
0.0
 70
     0
  0
VERTEX
  8
1
 10
0.795589932054281
 20
-6.29371407032013
 30
0.0
 70
     0
  0
VERTEX
  8
1
 10
0.829853355884552
 20
-6.33813019096851
 30
0.0
 70
     0
  0
VERTEX
  8
1
 10
0.865932772308588
 20
-6.38325030207634
 30
0.0
 70
     0
  0
VERTEX
  8
1
 10
0.909809450805187
 20
-6.43601173758507
 30
0.0
 70
     0
  0
VERTEX
  8
1
 10
1.3462997160852
 20
-6.35904589891434
 30
0.0
 70
     0
  0
VERTEX
  8
1
 10
1.36948503628373
 20
-6.29445969462395
 30
0.0
 70
     0
  0
VERTEX
  8
1
 10
1.38795674294233
 20
-6.23972102999687
 30
0.0
 70
     0
  0
VERTEX
  8
1
 10
1.40496284365654
 20
-6.18626468777657
 30
0.0
 70
     0
  0
VERTEX
  8
1
 10
1.42055358290672
 20
-6.13412359654903
 30
0.0
 70
     0
  0
VERTEX
  8
1
 10
1.43478043526411
 20
-6.08333068490028
 30
0.0
 70
     0
  0
VERTEX
  8
1
 10
1.45367718562484
 20
-6.00973794460297
 30
0.0
 70
     0
  0
VERTEX
  8
1
 10
1.46980008110404
 20
-5.9393487393856
 30
0.0
 70
     0
  0
VERTEX
  8
1
 10
1.48333079665899
 20
-5.87225390672684
 30
0.0
 70
     0
  0
VERTEX
  8
1
 10
1.49445299431682
 20
-5.80854049921036
 30
0.0
 70
     0
  0
VERTEX
  8
1
 10
1.50335355326533
 20
-5.74828383624554
 30
0.0
 70
     0
  0
VERTEX
  8
1
 10
1.51022133976221
 20
-5.6915558308363
 30
0.0
 70
     0
  0
VERTEX
  8
1
 10
1.51524758562446
 20
-5.63841931223869
 30
0.0
 70
     0
  0
VERTEX
  8
1
 10
1.5194185398519
 20
-5.57324909865856
 30
0.0
 70
     0
  0
VERTEX
  8
1
 10
1.52112003937364
 20
-5.51466687321663
 30
0.0
 70
     0
  0
VERTEX
  8
1
 10
1.52048379853368
 20
-5.45083310604095
 30
0.0
 70
     0
  0
VERTEX
  8
1
 10
1.51763065010309
 20
-5.39753800034523
 30
0.0
 70
     0
  0
VERTEX
  8
1
 10
1.51165789663792
 20
-5.34071537256241
 30
0.0
 70
     0
  0
VERTEX
  8
1
 10
1.50187801197171
 20
-5.28805991411209
 30
0.0
 70
     0
  0
VERTEX
  8
1
 10
1.37628393769264
 20
-4.84584755003452
 30
0.0
 42
-0.000043633227917
 70
     0
  0
VERTEX
  8
1
 10
2.06055282354355
 20
-4.59679389297962
 30
0.0
 70
     0
  0
VERTEX
  8
1
 10
2.24859094619751
 20
-5.01628023386002
 30
0.0
 70
     0
  0
VERTEX
  8
1
 10
2.27494554817677
 20
-5.06290294826031
 30
0.0
 70
     0
  0
VERTEX
  8
1
 10
2.30689460337162
 20
-5.11027052998543
 30
0.0
 70
     0
  0
VERTEX
  8
1
 10
2.33896647840738
 20
-5.15293083786964
 30
0.0
 70
     0
  0
VERTEX
  8
1
 10
2.37951065152884
 20
-5.20223969221115
 30
0.0
 70
     0
  0
VERTEX
  8
1
 10
2.41846952140331
 20
-5.24602184295654
 30
0.0
 70
     0
  0
VERTEX
  8
1
 10
2.46355518996716
 20
-5.29326414465904
 30
0.0
 70
     0
  0
VERTEX
  8
1
 10
2.50156159102917
 20
-5.33073914647102
 30
0.0
 70
     0
  0
VERTEX
  8
1
 10
2.54328665137291
 20
-5.36978071630001
 30
0.0
 70
     0
  0
VERTEX
  8
1
 10
2.58883672654629
 20
-5.41021815538406
 30
0.0
 70
     0
  0
VERTEX
  8
1
 10
2.63831117004156
 20
-5.45187622308731
 30
0.0
 70
     0
  0
VERTEX
  8
1
 10
2.69180384725332
 20
-5.49457665085793
 30
0.0
 70
     0
  0
VERTEX
  8
1
 10
2.74940029680729
 20
-5.53813473582268
 30
0.0
 70
     0
  0
VERTEX
  8
1
 10
2.81118037998676
 20
-5.58236350417137
 30
0.0
 70
     0
  0
VERTEX
  8
1
 10
2.85472767800093
 20
-5.61212753951549
 30
0.0
 70
     0
  0
VERTEX
  8
1
 10
2.90018672645092
 20
-5.64204864799976
 30
0.0
 70
     0
  0
VERTEX
  8
1
 10
2.94757493585348
 20
-5.67206740677357
 30
0.0
 70
     0
  0
VERTEX
  8
1
 10
2.99691028445959
 20
-5.70212628543377
 30
0.0
 70
     0
  0
VERTEX
  8
1
 10
3.05618628114462
 20
-5.73669902980328
 30
0.0
 70
     0
  0
VERTEX
  8
1
 10
3.44002932012081
 20
-5.51508623957634
 30
0.0
 70
     0
  0
VERTEX
  8
1
 10
3.43972652852535
 20
-5.44646533727646
 30
0.0
 70
     0
  0
VERTEX
  8
1
 10
3.43836245238781
 20
-5.38871011137962
 30
0.0
 70
     0
  0
VERTEX
  8
1
 10
3.43606010079384
 20
-5.33266149461269
 30
0.0
 70
     0
  0
VERTEX
  8
1
 10
3.43287738263607
 20
-5.27833235561848
 30
0.0
 70
     0
  0
VERTEX
  8
1
 10
3.42887409925461
 20
-5.22573745548725
 30
0.0
 70
     0
  0
VERTEX
  8
1
 10
3.42146100401878
 20
-5.15011941790581
 30
0.0
 70
     0
  0
VERTEX
  8
1
 10
3.41253697872162
 20
-5.07846075892448
 30
0.0
 70
     0
  0
VERTEX
  8
1
 10
3.40230375826359
 20
-5.01078456640244
 30
0.0
 70
     0
  0
VERTEX
  8
1
 10
3.39096383452415
 20
-4.94710938632488
 30
0.0
 70
     0
  0
VERTEX
  8
1
 10
3.3787185639143
 20
-4.88744240999222
 30
0.0
 70
     0
  0
VERTEX
  8
1
 10
3.36577043831348
 20
-4.83178704380989
 30
0.0
 70
     0
  0
VERTEX
  8
1
 10
3.35231967866421
 20
-4.78013533949852
 30
0.0
 70
     0
  0
VERTEX
  8
1
 10
3.33394931256771
 20
-4.71746883392334
 30
0.0
 70
     0
  0
VERTEX
  8
1
 10
3.31551195383072
 20
-4.66183769106865
 30
0.0
 70
     0
  0
VERTEX
  8
1
 10
3.29308190941811
 20
-4.60207155048847
 30
0.0
 70
     0
  0
VERTEX
  8
1
 10
3.27217263579369
 20
-4.55296632349491
 30
0.0
 70
     0
  0
VERTEX
  8
1
 10
3.24712571501732
 20
-4.50161324739456
 30
0.0
 70
     0
  0
VERTEX
  8
1
 10
3.21992632448673
 20
-4.45547840595245
 30
0.0
 70
     0
  0
VERTEX
  8
1
 10
2.95066094994545
 20
-4.08288994133472
 30
0.0
 42
-0.000043633214754
 70
     0
  0
VERTEX
  8
1
 10
3.50848217308521
 20
-3.6148229598999
 30
0.0
 70
     0
  0
VERTEX
  8
1
 10
3.82865249216557
 20
-3.94469812810421
 30
0.0
 70
     0
  0
VERTEX
  8
1
 10
3.86936395764351
 20
-3.97949531674385
 30
0.0
 70
     0
  0
VERTEX
  8
1
 10
3.91558698713779
 20
-4.01307906806469
 30
0.0
 70
     0
  0
VERTEX
  8
1
 10
3.960315361619
 20
-4.04219777882099
 30
0.0
 70
     0
  0
VERTEX
  8
1
 10
4.01527922749519
 20
-4.07466574311256
 30
0.0
 70
     0
  0
VERTEX
  8
1
 10
4.06686280369759
 20
-4.10248282849789
 30
0.0
 70
     0
  0
VERTEX
  8
1
 10
4.12538712024689
 20
-4.13145582079887
 30
0.0
 70
     0
  0
VERTEX
  8
1
 10
4.17391855716705
 20
-4.1536716401577
 30
0.0
 70
     0
  0
VERTEX
  8
1
 10
4.22648015022278
 20
-4.17608805894852
 30
0.0
 70
     0
  0
VERTEX
  8
1
 10
4.28311353325844
 20
-4.19850788414478
 30
0.0
 70
     0
  0
VERTEX
  8
1
 10
4.34385277032852
 20
-4.22073278725147
 30
0.0
 70
     0
  0
VERTEX
  8
1
 10
4.40872359871864
 20
-4.24256216883659
 30
0.0
 70
     0
  0
VERTEX
  8
1
 10
4.47774418592453
 20
-4.26379429399967
 30
0.0
 70
     0
  0
VERTEX
  8
1
 10
4.55092588663101
 20
-4.28422515690327
 30
0.0
 70
     0
  0
VERTEX
  8
1
 10
4.60202651023865
 20
-4.29730083346367
 30
0.0
 70
     0
  0
VERTEX
  8
1
 10
4.65497756898403
 20
-4.30986971259117
 30
0.0
 70
     0
  0
VERTEX
  8
1
 10
4.70977565646172
 20
-4.3218701004982
 30
0.0
 70
     0
  0
VERTEX
  8
1
 10
4.76641623079777
 20
-4.33324257433414
 30
0.0
 70
     0
  0
VERTEX
  8
1
 10
4.83394178450108
 20
-4.34545643031597
 30
0.0
 70
     0
  0
VERTEX
  8
1
 10
5.11884028911591
 20
-4.00592675209045
 30
0.0
 70
     0
  0
VERTEX
  8
1
 10
5.09508590996265
 20
-3.94154758155346
 30
0.0
 70
     0
  0
VERTEX
  8
1
 10
5.07405097782612
 20
-3.88774227201939
 30
0.0
 70
     0
  0
VERTEX
  8
1
 10
5.05271741747856
 20
-3.83586120307446
 30
0.0
 70
     0
  0
VERTEX
  8
1
 10
5.03114465177059
 20
-3.78589680492878
 30
0.0
 70
     0
  0
VERTEX
  8
1
 10
5.00939475297928
 20
-3.73784302175045
 30
0.0
 70
     0
  0
VERTEX
  8
1
 10
4.97656533122063
 20
-3.66932052671909
 30
0.0
 70
     0
  0
VERTEX
  8
1
 10
4.94367118775845
 20
-3.60503560006618
 30
0.0
 70
     0
  0
VERTEX
  8
1
 10
4.91090875864029
 20
-3.54494093060493
 30
0.0
 70
     0
  0
VERTEX
  8
1
 10
4.87847447991371
 20
-3.48898428678513
 30
0.0
 70
     0
  0
VERTEX
  8
1
 10
4.84656024575233
 20
-3.43710397481918
 30
0.0
 70
     0
  0
VERTEX
  8
1
 10
4.81535757184029
 20
-3.38923300206661
 30
0.0
 70
     0
  0
VERTEX
  8
1
 10
4.78505229651928
 20
-3.34529718458652
 30
0.0
 70
     0
  0
VERTEX
  8
1
 10
4.7463566660881
 20
-3.29269282221794
 30
0.0
 70
     0
  0
VERTEX
  8
1
 10
4.71000426411629
 20
-3.24672262370586
 30
0.0
 70
     0
  0
VERTEX
  8
1
 10
4.66848548054695
 20
-3.19823206365108
 30
0.0
 70
     0
  0
VERTEX
  8
1
 10
4.6320422410965
 20
-3.15923969745636
 30
0.0
 70
     0
  0
VERTEX
  8
1
 10
4.59094206690788
 20
-3.11955015361309
 30
0.0
 70
     0
  0
VERTEX
  8
1
 10
4.54960420131683
 20
-3.08550029247999
 30
0.0
 70
     0
  0
VERTEX
  8
1
 10
4.16914466917515
 20
-2.82747643440962
 30
0.0
 42
-0.000043633249001
 70
     0
  0
VERTEX
  8
1
 10
4.5332368016243
 20
-2.19685067534447
 30
0.0
 70
     0
  0
VERTEX
  8
1
 10
4.94692241251469
 20
-2.39732671976089
 30
0.0
 70
     0
  0
VERTEX
  8
1
 10
4.99707984030247
 20
-2.41610169112682
 30
0.0
 70
     0
  0
VERTEX
  8
1
 10
5.0520013153553
 20
-2.43185082823038
 30
0.0
 70
     0
  0
VERTEX
  8
1
 10
5.1039913892746
 20
-2.44391518086195
 30
0.0
 70
     0
  0
VERTEX
  8
1
 10
5.16674532592297
 20
-2.45562659204006
 30
0.0
 70
     0
  0
VERTEX
  8
1
 10
5.22473218739033
 20
-2.46412330269814
 30
0.0
 70
     0
  0
VERTEX
  8
1
 10
5.28963670134544
 20
-2.47133258134127
 30
0.0
 70
     0
  0
VERTEX
  8
1
 10
5.34283945560455
 20
-2.47560970187187
 30
0.0
 70
     0
  0
VERTEX
  8
1
 10
5.39989826083183
 20
-2.47869685143232
 30
0.0
 70
     0
  0
VERTEX
  8
1
 10
5.46078397333622
 20
-2.48039513379335
 30
0.0
 70
     0
  0
VERTEX
  8
1
 10
5.52546139359474
 20
-2.4805056527257
 30
0.0
 70
     0
  0
VERTEX
  8
1
 10
5.59388661682606
 20
-2.47883178293705
 30
0.0
 70
     0
  0
VERTEX
  8
1
 10
5.66600627601147
 20
-2.47517652064562
 30
0.0
 70
     0
  0
VERTEX
  8
1
 10
5.74176208376884
 20
-2.46934607923031
 30
0.0
 70
     0
  0
VERTEX
  8
1
 10
5.79425365626812
 20
-2.46415547430515
 30
0.0
 70
     0
  0
VERTEX
  8
1
 10
5.84830990433693
 20
-2.45785589516163
 30
0.0
 70
     0
  0
VERTEX
  8
1
 10
5.90390736162662
 20
-2.45039075762033
 30
0.0
 70
     0
  0
VERTEX
  8
1
 10
5.96102180480957
 20
-2.44170499145985
 30
0.0
 70
     0
  0
VERTEX
  8
1
 10
6.02865295708179
 20
-2.43008725643158
 30
0.0
 70
     0
  0
VERTEX
  8
1
 10
6.18024367690086
 20
-2.01359287500381
 30
0.0
 70
     0
  0
VERTEX
  8
1
 10
6.13590325415134
 20
-1.96122090518475
 30
0.0
 70
     0
  0
VERTEX
  8
1
 10
6.09773410260677
 20
-1.91785452514887
 30
0.0
 70
     0
  0
VERTEX
  8
1
 10
6.05994268357754
 20
-1.87639876008034
 30
0.0
 70
     0
  0
VERTEX
  8
1
 10
6.02258274257183
 20
-1.83682598024607
 30
0.0
 70
     0
  0
VERTEX
  8
1
 10
5.98570840358734
 20
-1.79910912364721
 30
0.0
 70
     0
  0
VERTEX
  8
1
 10
5.93142316937447
 20
-1.74594762474298
 30
0.0
 70
     0
  0
VERTEX
  8
1
 10
5.87852585613728
 20
-1.69678978770971
 30
0.0
 70
     0
  0
VERTEX
  8
1
 10
5.82718564867973
 20
-1.65152471512556
 30
0.0
 70
     0
  0
VERTEX
  8
1
 10
5.77756908237934
 20
-1.61003583222628
 30
0.0
 70
     0
  0
VERTEX
  8
1
 10
5.72983550131321
 20
-1.57219927832484
 30
0.0
 70
     0
  0
VERTEX
  8
1
 10
5.68414197862148
 20
-1.53788778632879
 30
0.0
 70
     0
  0
VERTEX
  8
1
 10
5.64063726067543
 20
-1.50696651935577
 30
0.0
 70
     0
  0
VERTEX
  8
1
 10
5.58628351986408
 20
-1.47076910883188
 30
0.0
 70
     0
  0
VERTEX
  8
1
 10
5.53640011847019
 20
-1.44000444188714
 30
0.0
 70
     0
  0
VERTEX
  8
1
 10
5.48080114722252
 20
-1.40863882824779
 30
0.0
 70
     0
  0
VERTEX
  8
1
 10
5.43321896195412
 20
-1.38446214944124
 30
0.0
 70
     0
  0
VERTEX
  8
1
 10
5.3810233682394
 20
-1.36122346222401
 30
0.0
 70
     0
  0
VERTEX
  8
1
 10
5.33053249120712
 20
-1.34336538165808
 30
0.0
 70
     0
  0
VERTEX
  8
1
 10
4.88476838171482
 20
-1.23102686107159
 30
0.0
 42
-0.000043633239194
 70
     0
  0
SEQEND
  0
TEXT
  8
NOTES
 10
-6.5
 20
-7.15000057220459
 30
0.0
 11
-6.5
 21
-7.15000057220459
 31
0.0
 40
0.260000228881836
  1
Diametral Pitch: 39.0769230175261
 41
1.0
  7
ARIAL
  0
TEXT
  8
NOTES
 10
-6.5
 20
-7.6700005531311
 30
0.0
 11
-6.5
 21
-7.6700005531311
 31
0.0
 40
0.260000705718994
  1
Number Of Teeth: 18
 41
1.0
  7
ARIAL
  0
TEXT
  8
NOTES
 10
-6.5
 20
-8.19000053405762
 30
0.0
 11
-6.5
 21
-8.19000053405762
 31
0.0
 40
0.260000705718994
  1
Pressure Angle: 20
 41
1.0
  7
ARIAL
  0
ENDSEC
  0
EOF
