  0
SECTION
  2
HEADER
  9
$MEASUREMENT
 70
     1
  0
ENDSEC
  0
SECTION
  2
TABLES
  0
TABLE
  2
LTYPE
 70
     1
  0
LTYPE
  2
Continuous
  3
_
 70
     0
 72
    65
 73
     0
 40
0.0
  0
ENDTAB
  0
TABLE
  2
LAYER
 70
     2
  0
LAYER
  2
1
 70
     0
 62
     7
  6
Continuous
  0
LAYER
  2
NOTES
 70
     0
 62
     1
  6
Continuous
  0
ENDTAB
  0
TABLE
  2
STYLE
 70
     1
  0
STYLE
  2
ARIAL
  3
Arial.ttf
 70
     0
 40
0.0
 41
1.0
 50
0.0
 71
     0
 42
1.0
  0
ENDTAB
  0
ENDSEC
  0
SECTION
  2
ENTITIES
  0
POLYLINE
  8
1
 66
     1
 10
0.0
 20
0.0
 70
     1
  0
VERTEX
  8
1
 10
9.68074539899826
 20
-0.567407321184874
 30
0.0
 70
     0
  0
VERTEX
  8
1
 10
9.77580833435059
 20
-0.572974428534508
 30
0.0
 70
     0
  0
VERTEX
  8
1
 10
9.82948268651962
 20
-0.572369507700205
 30
0.0
 70
     0
  0
VERTEX
  8
1
 10
9.8834144115448
 20
-0.568628896027803
 30
0.0
 70
     0
  0
VERTEX
  8
1
 10
9.93975938558578
 20
-0.562527077645063
 30
0.0
 70
     0
  0
VERTEX
  8
1
 10
10.0076679706573
 20
-0.552772031351924
 30
0.0
 70
     0
  0
VERTEX
  8
1
 10
10.0660681426525
 20
-0.542569184675813
 30
0.0
 70
     0
  0
VERTEX
  8
1
 10
10.1307618379593
 20
-0.5295150347054
 30
0.0
 70
     0
  0
VERTEX
  8
1
 10
10.2016332387924
 20
-0.513273955881596
 30
0.0
 70
     0
  0
VERTEX
  8
1
 10
10.2522509098053
 20
-0.500512330979109
 30
0.0
 70
     0
  0
VERTEX
  8
1
 10
10.3055172502995
 20
-0.486089846864343
 30
0.0
 70
     0
  0
VERTEX
  8
1
 10
10.3613891124725
 20
-0.469910414516926
 30
0.0
 70
     0
  0
VERTEX
  8
1
 10
10.4198210775852
 20
-0.451878985762596
 30
0.0
 70
     0
  0
VERTEX
  8
1
 10
10.4807639420033
 20
-0.431901553273201
 30
0.0
 70
     0
  0
VERTEX
  8
1
 10
10.5441662311554
 20
-0.409885197877884
 30
0.0
 70
     0
  0
VERTEX
  8
1
 10
10.6099757134914
 20
-0.385738325119019
 30
0.0
 70
     0
  0
VERTEX
  8
1
 10
10.6781356155872
 20
-0.359370546974242
 30
0.0
 70
     0
  0
VERTEX
  8
1
 10
10.7485876500607
 20
-0.330692705512047
 30
0.0
 70
     0
  0
VERTEX
  8
1
 10
10.8212720155716
 20
-0.299617251381278
 30
0.0
 70
     0
  0
VERTEX
  8
1
 10
10.896124368906
 20
-0.266057794354856
 30
0.0
 70
     0
  0
VERTEX
  8
1
 10
10.9978403925896
 20
-0.21790851354599
 30
0.0
 70
     0
  0
VERTEX
  8
1
 10
10.9978396356106
 20
0.217907993122935
 30
0.0
 70
     0
  0
VERTEX
  8
1
 10
10.896124368906
 20
0.266057439520955
 30
0.0
 70
     0
  0
VERTEX
  8
1
 10
10.8212712585926
 20
0.299616872891784
 30
0.0
 70
     0
  0
VERTEX
  8
1
 10
10.7485876500607
 20
0.330692421644926
 30
0.0
 70
     0
  0
VERTEX
  8
1
 10
10.6781348586082
 20
0.359370192140341
 30
0.0
 70
     0
  0
VERTEX
  8
1
 10
10.6099749565125
 20
0.385737946629524
 30
0.0
 70
     0
  0
VERTEX
  8
1
 10
10.5441654741764
 20
0.409884866699576
 30
0.0
 70
     0
  0
VERTEX
  8
1
 10
10.4807631850243
 20
0.431901222094893
 30
0.0
 70
     0
  0
VERTEX
  8
1
 10
10.4198203206062
 20
0.451878654584289
 30
0.0
 70
     0
  0
VERTEX
  8
1
 10
10.3613883554935
 20
0.469910083338618
 30
0.0
 70
     0
  0
VERTEX
  8
1
 10
10.3055164933205
 20
0.486089468374848
 30
0.0
 70
     0
  0
VERTEX
  8
1
 10
10.2522501528263
 20
0.500511999800801
 30
0.0
 70
     0
  0
VERTEX
  8
1
 10
10.2016324818134
 20
0.513273624703288
 30
0.0
 70
     0
  0
VERTEX
  8
1
 10
10.1307610809803
 20
0.529514656215906
 30
0.0
 70
     0
  0
VERTEX
  8
1
 10
10.0660681426525
 20
0.542568853497505
 30
0.0
 70
     0
  0
VERTEX
  8
1
 10
10.0076672136784
 20
0.552771700173616
 30
0.0
 70
     0
  0
VERTEX
  8
1
 10
9.9397586286068
 20
0.562526746466756
 30
0.0
 70
     0
  0
VERTEX
  8
1
 10
9.8834144115448
 20
0.568628564849496
 30
0.0
 70
     0
  0
VERTEX
  8
1
 10
9.82948117256164
 20
0.572369081899524
 30
0.0
 70
     0
  0
VERTEX
  8
1
 10
9.7758075773716
 20
0.572974144667387
 30
0.0
 70
     0
  0
VERTEX
  8
1
 10
9.68075372576713
 20
0.567402873933315
 30
0.0
 42
-0.000043633220818
 70
     0
  0
VERTEX
  8
1
 10
9.63220942020416
 20
1.12226194366813
 30
0.0
 70
     0
  0
VERTEX
  8
1
 10
9.72678713202476
 20
1.13328138142824
 30
0.0
 70
     0
  0
VERTEX
  8
1
 10
9.77954099774361
 20
1.14319761693478
 30
0.0
 70
     0
  0
VERTEX
  8
1
 10
9.83200342655182
 20
1.15624642074108
 30
0.0
 70
     0
  0
VERTEX
  8
1
 10
9.88643248677254
 20
1.17203984111547
 30
0.0
 70
     0
  0
VERTEX
  8
1
 10
9.95161594748497
 20
1.19343888014555
 30
0.0
 70
     0
  0
VERTEX
  8
1
 10
10.007356852293
 20
1.2136277936399
 30
0.0
 70
     0
  0
VERTEX
  8
1
 10
10.0688008368015
 20
1.23771760910749
 30
0.0
 70
     0
  0
VERTEX
  8
1
 10
10.1357760667801
 20
1.26601849868894
 30
0.0
 70
     0
  0
VERTEX
  8
1
 10
10.1834082126617
 20
1.28737590387464
 30
0.0
 70
     0
  0
VERTEX
  8
1
 10
10.2333612561226
 20
1.31082900539041
 30
0.0
 70
     0
  0
VERTEX
  8
1
 10
10.2855738818645
 20
1.33646466657519
 30
0.0
 70
     0
  0
VERTEX
  8
1
 10
10.3399878025055
 20
1.36436870992184
 30
0.0
 70
     0
  0
VERTEX
  8
1
 10
10.3965356469154
 20
1.39462534934282
 30
0.0
 70
     0
  0
VERTEX
  8
1
 10
10.4551515579224
 20
1.42731690630317
 30
0.0
 70
     0
  0
VERTEX
  8
1
 10
10.5157674074173
 20
1.46252447217703
 30
0.0
 70
     0
  0
VERTEX
  8
1
 10
10.5783143103123
 20
1.50032762438059
 30
0.0
 70
     0
  0
VERTEX
  8
1
 10
10.6427158117294
 20
1.54080366939306
 30
0.0
 70
     0
  0
VERTEX
  8
1
 10
10.7088999986649
 20
1.58402858898044
 30
0.0
 70
     0
  0
VERTEX
  8
1
 10
10.7767873883247
 20
1.63007609397173
 30
0.0
 70
     0
  0
VERTEX
  8
1
 10
10.8685968279839
 20
1.69515660554171
 30
0.0
 70
     0
  0
VERTEX
  8
1
 10
10.7929170966148
 20
2.12435176968575
 30
0.0
 70
     0
  0
VERTEX
  8
1
 10
10.6843867480755
 20
2.15410728901625
 30
0.0
 70
     0
  0
VERTEX
  8
1
 10
10.6048433959484
 20
2.17415871620178
 30
0.0
 70
     0
  0
VERTEX
  8
1
 10
10.5278677165508
 20
2.19214094132185
 30
0.0
 70
     0
  0
VERTEX
  8
1
 10
10.4535051286221
 20
2.20814877599478
 30
0.0
 70
     0
  0
VERTEX
  8
1
 10
10.3818018078804
 20
2.2222802489996
 30
0.0
 70
     0
  0
VERTEX
  8
1
 10
10.3127986311913
 20
2.23463263213635
 30
0.0
 70
     0
  0
VERTEX
  8
1
 10
10.246537232399
 20
2.24530471116304
 30
0.0
 70
     0
  0
VERTEX
  8
1
 10
10.1830509185791
 20
2.25439621806145
 30
0.0
 70
     0
  0
VERTEX
  8
1
 10
10.1223760247231
 20
2.26200688481331
 30
0.0
 70
     0
  0
VERTEX
  8
1
 10
10.0645428299904
 20
2.2682385250926
 30
0.0
 70
     0
  0
VERTEX
  8
1
 10
10.0095816135406
 20
2.27319238483906
 30
0.0
 70
     0
  0
VERTEX
  8
1
 10
9.95751659870148
 20
2.2769704669714
 30
0.0
 70
     0
  0
VERTEX
  8
1
 10
9.88490187525749
 20
2.28065790086985
 30
0.0
 70
     0
  0
VERTEX
  8
1
 10
9.81892434358597
 20
2.28228010684252
 30
0.0
 70
     0
  0
VERTEX
  8
1
 10
9.75964002013206
 20
2.28218661993742
 30
0.0
 70
     0
  0
VERTEX
  8
1
 10
9.69106832146645
 20
2.28000122159719
 30
0.0
 70
     0
  0
VERTEX
  8
1
 10
9.6345204770565
 20
2.27622635662556
 30
0.0
 70
     0
  0
VERTEX
  8
1
 10
9.58075755834579
 20
2.27054466158152
 30
0.0
 70
     0
  0
VERTEX
  8
1
 10
9.5277940094471
 20
2.26182028949261
 30
0.0
 70
     0
  0
VERTEX
  8
1
 10
9.43515189290047
 20
2.23982758969069
 30
0.0
 42
-0.000043633237684
 70
     0
  0
VERTEX
  8
1
 10
9.29099508523941
 20
2.77782769650221
 30
0.0
 70
     0
  0
VERTEX
  8
1
 10
9.38222240805626
 20
2.80510297417641
 30
0.0
 70
     0
  0
VERTEX
  8
1
 10
9.43245326280594
 20
2.82402877360582
 30
0.0
 70
     0
  0
VERTEX
  8
1
 10
9.48185295462608
 20
2.84598949104547
 30
0.0
 70
     0
  0
VERTEX
  8
1
 10
9.53271285891533
 20
2.87099458873272
 30
0.0
 70
     0
  0
VERTEX
  8
1
 10
9.59318942427635
 20
2.90338742285967
 30
0.0
 70
     0
  0
VERTEX
  8
1
 10
9.64457769989967
 20
2.93294896632433
 30
0.0
 70
     0
  0
VERTEX
  8
1
 10
9.70090526342392
 20
2.96734268516302
 30
0.0
 70
     0
  0
VERTEX
  8
1
 10
9.76194804906845
 20
3.00684355199337
 30
0.0
 70
     0
  0
VERTEX
  8
1
 10
9.80514808297157
 20
3.03614791184664
 30
0.0
 70
     0
  0
VERTEX
  8
1
 10
9.85027008652687
 20
3.06791850924492
 30
0.0
 70
     0
  0
VERTEX
  8
1
 10
9.89723836183548
 20
3.10223179906607
 30
0.0
 70
     0
  0
VERTEX
  8
1
 10
9.9459794819355
 20
3.13916045129299
 30
0.0
 70
     0
  0
VERTEX
  8
1
 10
9.99641396403313
 20
3.17877656817436
 30
0.0
 70
     0
  0
VERTEX
  8
1
 10
10.0484630823135
 20
3.22114998102188
 30
0.0
 70
     0
  0
VERTEX
  8
1
 10
10.102045083046
 20
3.26634919643402
 30
0.0
 70
     0
  0
VERTEX
  8
1
 10
10.1570759415627
 20
3.31443855762482
 30
0.0
 70
     0
  0
VERTEX
  8
1
 10
10.2134708762169
 20
3.36548316478729
 30
0.0
 70
     0
  0
VERTEX
  8
1
 10
10.271142834425
 20
3.41954433321953
 30
0.0
 70
     0
  0
VERTEX
  8
1
 10
10.3300032496452
 20
3.47668072879314
 30
0.0
 70
     0
  0
VERTEX
  8
1
 10
10.4091166377068
 20
3.55671498179436
 30
0.0
 70
     0
  0
VERTEX
  8
1
 10
10.2600583910942
 20
3.96624818444252
 30
0.0
 70
     0
  0
VERTEX
  8
1
 10
10.1480096042156
 20
3.97670547068119
 30
0.0
 70
     0
  0
VERTEX
  8
1
 10
10.0661922872066
 20
3.98263980746269
 30
0.0
 70
     0
  0
VERTEX
  8
1
 10
9.98726360201836
 20
3.98698183894157
 30
0.0
 70
     0
  0
VERTEX
  8
1
 10
9.91125155687332
 20
3.9898337572813
 30
0.0
 70
     0
  0
VERTEX
  8
1
 10
9.83818340301514
 20
3.99129926860332
 30
0.0
 70
     0
  0
VERTEX
  8
1
 10
9.76808412075043
 20
3.99148207902908
 30
0.0
 70
     0
  0
VERTEX
  8
1
 10
9.70097566246986
 20
3.99048589468002
 30
0.0
 70
     0
  0
VERTEX
  8
1
 10
9.63687543869018
 20
3.98841480016708
 30
0.0
 70
     0
  0
VERTEX
  8
1
 10
9.57580010294914
 20
3.98537363708019
 30
0.0
 70
     0
  0
VERTEX
  8
1
 10
9.51776403784752
 20
3.98146800398827
 30
0.0
 70
     0
  0
VERTEX
  8
1
 10
9.46277708411217
 20
3.97680274248123
 30
0.0
 70
     0
  0
VERTEX
  8
1
 10
9.41084756851196
 20
3.97148231565952
 30
0.0
 70
     0
  0
VERTEX
  8
1
 10
9.33869535923004
 20
3.96250454485416
 30
0.0
 70
     0
  0
VERTEX
  8
1
 10
9.2734392285347
 20
3.95264489352703
 30
0.0
 70
     0
  0
VERTEX
  8
1
 10
9.21507084965706
 20
3.9422583848238
 30
0.0
 70
     0
  0
VERTEX
  8
1
 10
9.14792075753212
 20
3.92819901406765
 30
0.0
 70
     0
  0
VERTEX
  8
1
 10
9.09288762807846
 20
3.91466195881367
 30
0.0
 70
     0
  0
VERTEX
  8
1
 10
9.04092783331871
 20
3.8997305482626
 30
0.0
 70
     0
  0
VERTEX
  8
1
 10
8.99028442502022
 20
3.88194192051887
 30
0.0
 70
     0
  0
VERTEX
  8
1
 10
8.90286849141121
 20
3.84419629871845
 30
0.0
 42
-0.000043633235015
 70
     0
  0
VERTEX
  8
1
 10
8.66747830510139
 20
4.34899000823498
 30
0.0
 70
     0
  0
VERTEX
  8
1
 10
8.75258393883705
 20
4.39169232845306
 30
0.0
 70
     0
  0
VERTEX
  8
1
 10
8.79876419901848
 20
4.41905371248722
 30
0.0
 70
     0
  0
VERTEX
  8
1
 10
8.84360006451607
 20
4.44925906658173
 30
0.0
 70
     0
  0
VERTEX
  8
1
 10
8.88934581875801
 20
4.48271564543247
 30
0.0
 70
     0
  0
VERTEX
  8
1
 10
8.94327905774117
 20
4.52511820197105
 30
0.0
 70
     0
  0
VERTEX
  8
1
 10
8.98875305652618
 20
4.56315412521362
 30
0.0
 70
     0
  0
VERTEX
  8
1
 10
9.03825266957283
 20
4.60680607557297
 30
0.0
 70
     0
  0
VERTEX
  8
1
 10
9.09150841236115
 20
4.65630720257759
 30
0.0
 70
     0
  0
VERTEX
  8
1
 10
9.12896373271942
 20
4.69266793131828
 30
0.0
 70
     0
  0
VERTEX
  8
1
 10
9.16788305044174
 20
4.73179125487804
 30
0.0
 70
     0
  0
VERTEX
  8
1
 10
9.20817931294441
 20
4.77373886704445
 30
0.0
 70
     0
  0
VERTEX
  8
1
 10
9.24976698160171
 20
4.8185705691576
 30
0.0
 70
     0
  0
VERTEX
  8
1
 10
9.292555975914
 20
4.86634313464165
 30
0.0
 70
     0
  0
VERTEX
  8
1
 10
9.33645621538162
 20
4.91711068749428
 30
0.0
 70
     0
  0
VERTEX
  8
1
 10
9.38137534856796
 20
4.97092735171318
 30
0.0
 70
     0
  0
VERTEX
  8
1
 10
9.42721951007843
 20
5.02784233093262
 30
0.0
 70
     0
  0
VERTEX
  8
1
 10
9.47389407753944
 20
5.08790445029735
 30
0.0
 70
     0
  0
VERTEX
  8
1
 10
9.52130291461945
 20
5.15115875005722
 30
0.0
 70
     0
  0
VERTEX
  8
1
 10
9.56934685707092
 20
5.21764799952507
 30
0.0
 70
     0
  0
VERTEX
  8
1
 10
9.63336078524589
 20
5.31020457744598
 30
0.0
 70
     0
  0
VERTEX
  8
1
 10
9.41545227169991
 20
5.68763240873814
 30
0.0
 70
     0
  0
VERTEX
  8
1
 10
9.30328918099403
 20
5.678473341465
 30
0.0
 70
     0
  0
VERTEX
  8
1
 10
9.22168457508087
 20
5.67011023759842
 30
0.0
 70
     0
  0
VERTEX
  8
1
 10
9.1432009935379
 20
5.66068055033684
 30
0.0
 70
     0
  0
VERTEX
  8
1
 10
9.06784827709198
 20
5.65028987824917
 30
0.0
 70
     0
  0
VERTEX
  8
1
 10
8.99563702344894
 20
5.63904495537281
 30
0.0
 70
     0
  0
VERTEX
  8
1
 10
8.92657026052475
 20
5.62705213725567
 30
0.0
 70
     0
  0
VERTEX
  8
1
 10
8.86065404415131
 20
5.61441777944565
 30
0.0
 70
     0
  0
VERTEX
  8
1
 10
8.79788761734963
 20
5.60124710202217
 30
0.0
 70
     0
  0
VERTEX
  8
1
 10
8.73826795220375
 20
5.58764683902264
 30
0.0
 70
     0
  0
VERTEX
  8
1
 10
8.68179277777672
 20
5.57372258901596
 30
0.0
 70
     0
  0
VERTEX
  8
1
 10
8.6284507393837
 20
5.55957995057106
 30
0.0
 70
     0
  0
VERTEX
  8
1
 10
8.5782342672348
 20
5.54532300829887
 30
0.0
 70
     0
  0
VERTEX
  8
1
 10
8.50873678326607
 20
5.52395235598087
 30
0.0
 70
     0
  0
VERTEX
  8
1
 10
8.44618458151817
 20
5.50291098952293
 30
0.0
 70
     0
  0
VERTEX
  8
1
 10
8.39050650596619
 20
5.48254636228085
 30
0.0
 70
     0
  0
VERTEX
  8
1
 10
8.32681807875633
 20
5.45704033374786
 30
0.0
 70
     0
  0
VERTEX
  8
1
 10
8.27497183084488
 20
5.43415269553661
 30
0.0
 70
     0
  0
VERTEX
  8
1
 10
8.22639346122742
 20
5.41042518913746
 30
0.0
 70
     0
  0
VERTEX
  8
1
 10
8.17960837483406
 20
5.38411259949207
 30
0.0
 70
     0
  0
VERTEX
  8
1
 10
8.10007486343384
 20
5.3317606896162
 30
0.0
 42
-0.00004363318764
 70
     0
  0
VERTEX
  8
1
 10
7.78060550689697
 20
5.78801047205925
 30
0.0
 70
     0
  0
VERTEX
  8
1
 10
7.85700209736824
 20
5.84484256207943
 30
0.0
 70
     0
  0
VERTEX
  8
1
 10
7.89772983789444
 20
5.87980704307556
 30
0.0
 70
     0
  0
VERTEX
  8
1
 10
7.9366400718689
 20
5.91733957529068
 30
0.0
 70
     0
  0
VERTEX
  8
1
 10
7.9758803486824
 20
5.95823158025742
 30
0.0
 70
     0
  0
VERTEX
  8
1
 10
8.02163064479828
 20
6.00935491323471
 30
0.0
 70
     0
  0
VERTEX
  8
1
 10
8.0598096370697
 20
6.05471006631851
 30
0.0
 70
     0
  0
VERTEX
  8
1
 10
8.10097642540932
 20
6.1062940210104
 30
0.0
 70
     0
  0
VERTEX
  8
1
 10
8.14482746124268
 20
6.16429034471512
 30
0.0
 70
     0
  0
VERTEX
  8
1
 10
8.17540032863617
 20
6.20660282075405
 30
0.0
 70
     0
  0
VERTEX
  8
1
 10
8.20693380236626
 20
6.25188984572887
 30
0.0
 70
     0
  0
VERTEX
  8
1
 10
8.23933401703835
 20
6.30019835233688
 30
0.0
 70
     0
  0
VERTEX
  8
1
 10
8.27250559329987
 20
6.35156997442245
 30
0.0
 70
     0
  0
VERTEX
  8
1
 10
8.30634936690331
 20
6.40604748129845
 30
0.0
 70
     0
  0
VERTEX
  8
1
 10
8.34076617360115
 20
6.46366720795631
 30
0.0
 70
     0
  0
VERTEX
  8
1
 10
8.37565836310387
 20
6.5244662463665
 30
0.0
 70
     0
  0
VERTEX
  8
1
 10
8.41092222929001
 20
6.58847714662552
 30
0.0
 70
     0
  0
VERTEX
  8
1
 10
8.44645860791206
 20
6.65573170185089
 30
0.0
 70
     0
  0
VERTEX
  8
1
 10
8.4821630358696
 20
6.72625716328621
 30
0.0
 70
     0
  0
VERTEX
  8
1
 10
8.51793105006218
 20
6.8000785112381
 30
0.0
 70
     0
  0
VERTEX
  8
1
 10
8.56490083932877
 20
6.90234485864639
 30
0.0
 70
     0
  0
VERTEX
  8
1
 10
8.28476259708405
 20
7.23619984388351
 30
0.0
 70
     0
  0
VERTEX
  8
1
 10
8.17589387893677
 20
7.20770261287689
 30
0.0
 70
     0
  0
VERTEX
  8
1
 10
8.09698184728622
 20
7.18529603481293
 30
0.0
 70
     0
  0
VERTEX
  8
1
 10
8.02132861018181
 20
7.16238152384758
 30
0.0
 70
     0
  0
VERTEX
  8
1
 10
7.94892432689667
 20
7.13906354308128
 30
0.0
 70
     0
  0
VERTEX
  8
1
 10
7.8797621846199
 20
7.11545034050941
 30
0.0
 70
     0
  0
VERTEX
  8
1
 10
7.81382780075073
 20
7.09164637923241
 30
0.0
 70
     0
  0
VERTEX
  8
1
 10
7.75110679268837
 20
7.06775763630867
 30
0.0
 70
     0
  0
VERTEX
  8
1
 10
7.6915802359581
 20
7.04388857483864
 30
0.0
 70
     0
  0
VERTEX
  8
1
 10
7.6352292060852
 20
7.02014138698578
 30
0.0
 70
     0
  0
VERTEX
  8
1
 10
7.58202872276306
 20
6.9966220498085
 30
0.0
 70
     0
  0
VERTEX
  8
1
 10
7.53195304870605
 20
6.9734312415123
 30
0.0
 70
     0
  0
VERTEX
  8
1
 10
7.48497568964958
 20
6.95067115426064
 30
0.0
 70
     0
  0
VERTEX
  8
1
 10
7.42024490237236
 20
6.91755710840225
 30
0.0
 70
     0
  0
VERTEX
  8
1
 10
7.36229664683342
 20
6.88597367405891
 30
0.0
 70
     0
  0
VERTEX
  8
1
 10
7.31099996566772
 20
6.85625013709068
 30
0.0
 70
     0
  0
VERTEX
  8
1
 10
7.25270955562592
 20
6.82007184028625
 30
0.0
 70
     0
  0
VERTEX
  8
1
 10
7.20562470555305
 20
6.7885292828083
 30
0.0
 70
     0
  0
VERTEX
  8
1
 10
7.16190538406372
 20
6.75672708153725
 30
0.0
 70
     0
  0
VERTEX
  8
1
 10
7.12039946913719
 20
6.72268952131271
 30
0.0
 70
     0
  0
VERTEX
  8
1
 10
7.05116541385651
 20
6.65732211470604
 30
0.0
 42
-0.000043633271767
 70
     0
  0
VERTEX
  8
1
 10
6.65732135772705
 20
7.05116541385651
 30
0.0
 70
     0
  0
VERTEX
  8
1
 10
6.72268876433373
 20
7.12039946913719
 30
0.0
 70
     0
  0
VERTEX
  8
1
 10
6.75672708153725
 20
7.16190538406372
 30
0.0
 70
     0
  0
VERTEX
  8
1
 10
6.78852776885033
 20
7.20562394857407
 30
0.0
 70
     0
  0
VERTEX
  8
1
 10
6.82007108330727
 20
7.25270955562592
 30
0.0
 70
     0
  0
VERTEX
  8
1
 10
6.85624938011169
 20
7.31099996566772
 30
0.0
 70
     0
  0
VERTEX
  8
1
 10
6.88597216010094
 20
7.36229588985443
 30
0.0
 70
     0
  0
VERTEX
  8
1
 10
6.91755710840225
 20
7.42024490237236
 30
0.0
 70
     0
  0
VERTEX
  8
1
 10
6.95067039728165
 20
7.48497568964958
 30
0.0
 70
     0
  0
VERTEX
  8
1
 10
6.9734312415123
 20
7.53195304870605
 30
0.0
 70
     0
  0
VERTEX
  8
1
 10
6.9966220498085
 20
7.58202872276306
 30
0.0
 70
     0
  0
VERTEX
  8
1
 10
7.02014063000679
 20
7.6352292060852
 30
0.0
 70
     0
  0
VERTEX
  8
1
 10
7.04388781785965
 20
7.6915802359581
 30
0.0
 70
     0
  0
VERTEX
  8
1
 10
7.06775687932968
 20
7.75110679268837
 30
0.0
 70
     0
  0
VERTEX
  8
1
 10
7.09164562225342
 20
7.81382780075073
 30
0.0
 70
     0
  0
VERTEX
  8
1
 10
7.11544958353043
 20
7.87976142764091
 30
0.0
 70
     0
  0
VERTEX
  8
1
 10
7.13906354308128
 20
7.94892432689667
 30
0.0
 70
     0
  0
VERTEX
  8
1
 10
7.1623800098896
 20
8.02132709622383
 30
0.0
 70
     0
  0
VERTEX
  8
1
 10
7.18529603481293
 20
8.09698184728622
 30
0.0
 70
     0
  0
VERTEX
  8
1
 10
7.20770261287689
 20
8.17589387893677
 30
0.0
 70
     0
  0
VERTEX
  8
1
 10
7.23619984388351
 20
8.28476259708405
 30
0.0
 70
     0
  0
VERTEX
  8
1
 10
6.9023441016674
 20
8.56489932537079
 30
0.0
 70
     0
  0
VERTEX
  8
1
 10
6.8000785112381
 20
8.51793105006218
 30
0.0
 70
     0
  0
VERTEX
  8
1
 10
6.72625489234924
 20
8.48216152191162
 30
0.0
 70
     0
  0
VERTEX
  8
1
 10
6.65573018789291
 20
8.44645709395409
 30
0.0
 70
     0
  0
VERTEX
  8
1
 10
6.58847563266754
 20
8.41092071533203
 30
0.0
 70
     0
  0
VERTEX
  8
1
 10
6.52446473240852
 20
8.3756560921669
 30
0.0
 70
     0
  0
VERTEX
  8
1
 10
6.46366569399834
 20
8.34076541662216
 30
0.0
 70
     0
  0
VERTEX
  8
1
 10
6.40604596734047
 20
8.30634785294533
 30
0.0
 70
     0
  0
VERTEX
  8
1
 10
6.35156846046448
 20
8.27250483632088
 30
0.0
 70
     0
  0
VERTEX
  8
1
 10
6.30019683837891
 20
8.23933326005936
 30
0.0
 70
     0
  0
VERTEX
  8
1
 10
6.25188871026039
 20
8.20693304538727
 30
0.0
 70
     0
  0
VERTEX
  8
1
 10
6.20660130679607
 20
8.17539881467819
 30
0.0
 70
     0
  0
VERTEX
  8
1
 10
6.16428920924664
 20
8.14482670426369
 30
0.0
 70
     0
  0
VERTEX
  8
1
 10
6.10629288554192
 20
8.10097566843033
 30
0.0
 70
     0
  0
VERTEX
  8
1
 10
6.05470855236053
 20
8.05980888009071
 30
0.0
 70
     0
  0
VERTEX
  8
1
 10
6.00935339927673
 20
8.02162988781929
 30
0.0
 70
     0
  0
VERTEX
  8
1
 10
5.95823044478893
 20
7.97587883472443
 30
0.0
 70
     0
  0
VERTEX
  8
1
 10
5.9173384398222
 20
7.93663931488991
 30
0.0
 70
     0
  0
VERTEX
  8
1
 10
5.87980552911758
 20
7.89772832393646
 30
0.0
 70
     0
  0
VERTEX
  8
1
 10
5.84484142661095
 20
7.85700058341026
 30
0.0
 70
     0
  0
VERTEX
  8
1
 10
5.78800971508026
 20
7.780603992939
 30
0.0
 42
-0.000043633220809
 70
     0
  0
VERTEX
  8
1
 10
5.33175955414772
 20
8.10007334947586
 30
0.0
 70
     0
  0
VERTEX
  8
1
 10
5.3841110855341
 20
8.17960686087608
 30
0.0
 70
     0
  0
VERTEX
  8
1
 10
5.41042405366898
 20
8.22639270424843
 30
0.0
 70
     0
  0
VERTEX
  8
1
 10
5.43415080308914
 20
8.27496955990791
 30
0.0
 70
     0
  0
VERTEX
  8
1
 10
5.45703881978989
 20
8.32681580781937
 30
0.0
 70
     0
  0
VERTEX
  8
1
 10
5.48254484832287
 20
8.39050423502922
 30
0.0
 70
     0
  0
VERTEX
  8
1
 10
5.50290909707546
 20
8.44618231058121
 30
0.0
 70
     0
  0
VERTEX
  8
1
 10
5.5239508420229
 20
8.50873526930809
 30
0.0
 70
     0
  0
VERTEX
  8
1
 10
5.5453211158514
 20
8.57823199629784
 30
0.0
 70
     0
  0
VERTEX
  8
1
 10
5.55957805812359
 20
8.62844922542572
 30
0.0
 70
     0
  0
VERTEX
  8
1
 10
5.57372107505798
 20
8.68178974986076
 30
0.0
 70
     0
  0
VERTEX
  8
1
 10
5.58764532506466
 20
8.73826643824577
 30
0.0
 70
     0
  0
VERTEX
  8
1
 10
5.6012452095747
 20
8.79788534641266
 30
0.0
 70
     0
  0
VERTEX
  8
1
 10
5.61441550850868
 20
8.86065253019333
 30
0.0
 70
     0
  0
VERTEX
  8
1
 10
5.6270502448082
 20
8.92656874656677
 30
0.0
 70
     0
  0
VERTEX
  8
1
 10
5.63904306292534
 20
8.99563475251198
 30
0.0
 70
     0
  0
VERTEX
  8
1
 10
5.6502879858017
 20
9.067846763134
 30
0.0
 70
     0
  0
VERTEX
  8
1
 10
5.66067827939987
 20
9.14319872260094
 30
0.0
 70
     0
  0
VERTEX
  8
1
 10
5.67010834515095
 20
9.22168306112289
 30
0.0
 70
     0
  0
VERTEX
  8
1
 10
5.67847107052803
 20
9.30328691005707
 30
0.0
 70
     0
  0
VERTEX
  8
1
 10
5.68763051629066
 20
9.41545075774193
 30
0.0
 70
     0
  0
VERTEX
  8
1
 10
5.31020192801952
 20
9.63335775732994
 30
0.0
 70
     0
  0
VERTEX
  8
1
 10
5.2176457285881
 20
9.56934458613396
 30
0.0
 70
     0
  0
VERTEX
  8
1
 10
5.15115572214127
 20
9.5212991297245
 30
0.0
 70
     0
  0
VERTEX
  8
1
 10
5.0879018008709
 20
9.47389104962349
 30
0.0
 70
     0
  0
VERTEX
  8
1
 10
5.02783968150616
 20
9.42721648216247
 30
0.0
 70
     0
  0
VERTEX
  8
1
 10
4.97092470228672
 20
9.38137156367302
 30
0.0
 70
     0
  0
VERTEX
  8
1
 10
4.91710803806782
 20
9.33645318746567
 30
0.0
 70
     0
  0
VERTEX
  8
1
 10
4.86634010672569
 20
9.29255294799805
 30
0.0
 70
     0
  0
VERTEX
  8
1
 10
4.81856791973114
 20
9.24976319670677
 30
0.0
 70
     0
  0
VERTEX
  8
1
 10
4.77373659610748
 20
9.20817628502846
 30
0.0
 70
     0
  0
VERTEX
  8
1
 10
4.73178898394108
 20
9.16787850856781
 30
0.0
 70
     0
  0
VERTEX
  8
1
 10
4.69266528189182
 20
9.12896070480347
 30
0.0
 70
     0
  0
VERTEX
  8
1
 10
4.65630455315113
 20
9.09150538444519
 30
0.0
 70
     0
  0
VERTEX
  8
1
 10
4.606803804636
 20
9.03824964165688
 30
0.0
 70
     0
  0
VERTEX
  8
1
 10
4.56315223276615
 20
8.98875078558922
 30
0.0
 70
     0
  0
VERTEX
  8
1
 10
4.52511555254459
 20
8.94327527284622
 30
0.0
 70
     0
  0
VERTEX
  8
1
 10
4.48271337449551
 20
8.88934279084206
 30
0.0
 70
     0
  0
VERTEX
  8
1
 10
4.44925679564476
 20
8.8435977935791
 30
0.0
 70
     0
  0
VERTEX
  8
1
 10
4.41905068457127
 20
8.79876041412354
 30
0.0
 70
     0
  0
VERTEX
  8
1
 10
4.3916900575161
 20
8.75258015394211
 30
0.0
 70
     0
  0
VERTEX
  8
1
 10
4.34898811578751
 20
8.66747603416443
 30
0.0
 42
-0.000043633227229
 70
     0
  0
VERTEX
  8
1
 10
3.84419402778149
 20
8.90286470651627
 30
0.0
 70
     0
  0
VERTEX
  8
1
 10
3.88193964958191
 20
8.99028064012527
 30
0.0
 70
     0
  0
VERTEX
  8
1
 10
3.89972903430462
 20
9.04092480540275
 30
0.0
 70
     0
  0
VERTEX
  8
1
 10
3.9146596878767
 20
9.09288308620453
 30
0.0
 70
     0
  0
VERTEX
  8
1
 10
3.92819674313068
 20
9.14791697263718
 30
0.0
 70
     0
  0
VERTEX
  8
1
 10
3.94225611388683
 20
9.21506706476212
 30
0.0
 70
     0
  0
VERTEX
  8
1
 10
3.95264262259006
 20
9.27343544363976
 30
0.0
 70
     0
  0
VERTEX
  8
1
 10
3.9625022739172
 20
9.3386915743351
 30
0.0
 70
     0
  0
VERTEX
  8
1
 10
3.97148004472256
 20
9.41084378361702
 30
0.0
 70
     0
  0
VERTEX
  8
1
 10
3.97680047154427
 20
9.46277405619621
 30
0.0
 70
     0
  0
VERTEX
  8
1
 10
3.9814657330513
 20
9.51776025295258
 30
0.0
 70
     0
  0
VERTEX
  8
1
 10
3.98537136614323
 20
9.5757963180542
 30
0.0
 70
     0
  0
VERTEX
  8
1
 10
3.98841215074062
 20
9.63687089681625
 30
0.0
 70
     0
  0
VERTEX
  8
1
 10
3.99048362374306
 20
9.70097187757492
 30
0.0
 70
     0
  0
VERTEX
  8
1
 10
3.99147980809212
 20
9.76808033585548
 30
0.0
 70
     0
  0
VERTEX
  8
1
 10
3.99129699766636
 20
9.83817961812019
 30
0.0
 70
     0
  0
VERTEX
  8
1
 10
3.98983186483383
 20
9.91124777197838
 30
0.0
 70
     0
  0
VERTEX
  8
1
 10
3.98697918951511
 20
9.98725906014442
 30
0.0
 70
     0
  0
VERTEX
  8
1
 10
3.98263715803623
 20
10.0661885023117
 30
0.0
 70
     0
  0
VERTEX
  8
1
 10
3.97670282125473
 20
10.1480050623417
 30
0.0
 70
     0
  0
VERTEX
  8
1
 10
3.96624629199505
 20
10.2600546061993
 30
0.0
 70
     0
  0
VERTEX
  8
1
 10
3.5567123323679
 20
10.4091113388538
 30
0.0
 70
     0
  0
VERTEX
  8
1
 10
3.47667807936668
 20
10.3299987077713
 30
0.0
 70
     0
  0
VERTEX
  8
1
 10
3.41954092681408
 20
10.2711375355721
 30
0.0
 70
     0
  0
VERTEX
  8
1
 10
3.36548051536083
 20
10.213466334343
 30
0.0
 70
     0
  0
VERTEX
  8
1
 10
3.31443590819836
 20
10.1570706427097
 30
0.0
 70
     0
  0
VERTEX
  8
1
 10
3.26634654700756
 20
10.102039784193
 30
0.0
 70
     0
  0
VERTEX
  8
1
 10
3.22114733159542
 20
10.0484577834606
 30
0.0
 70
     0
  0
VERTEX
  8
1
 10
3.1787739187479
 20
9.9964086651802
 30
0.0
 70
     0
  0
VERTEX
  8
1
 10
3.13915761262178
 20
9.94597342610359
 30
0.0
 70
     0
  0
VERTEX
  8
1
 10
3.10222914963961
 20
9.89723306298256
 30
0.0
 70
     0
  0
VERTEX
  8
1
 10
3.06791585981846
 20
9.85026478767395
 30
0.0
 70
     0
  0
VERTEX
  8
1
 10
3.03614526242018
 20
9.80514354109764
 30
0.0
 70
     0
  0
VERTEX
  8
1
 10
3.00684071332216
 20
9.76194275021553
 30
0.0
 70
     0
  0
VERTEX
  8
1
 10
2.96734003573656
 20
9.70090072154999
 30
0.0
 70
     0
  0
VERTEX
  8
1
 10
2.93294650614262
 20
9.64457391500473
 30
0.0
 70
     0
  0
VERTEX
  8
1
 10
2.90338496267796
 20
9.59318412542343
 30
0.0
 70
     0
  0
VERTEX
  8
1
 10
2.87099193930626
 20
9.5327083170414
 30
0.0
 70
     0
  0
VERTEX
  8
1
 10
2.84598722010851
 20
9.48184841275215
 30
0.0
 70
     0
  0
VERTEX
  8
1
 10
2.82402631342411
 20
9.43244720697403
 30
0.0
 70
     0
  0
VERTEX
  8
1
 10
2.8051001355052
 20
9.38221710920334
 30
0.0
 70
     0
  0
VERTEX
  8
1
 10
2.77782504707575
 20
9.29099054336548
 30
0.0
 42
-0.000043633257293
 70
     0
  0
VERTEX
  8
1
 10
2.23982494026422
 20
9.43514735102653
 30
0.0
 70
     0
  0
VERTEX
  8
1
 10
2.26181764006615
 20
9.52778946757316
 30
0.0
 70
     0
  0
VERTEX
  8
1
 10
2.27054239064455
 20
9.58075377345085
 30
0.0
 70
     0
  0
VERTEX
  8
1
 10
2.2762237071991
 20
9.63451517820358
 30
0.0
 70
     0
  0
VERTEX
  8
1
 10
2.27999876141548
 20
9.69106377959251
 30
0.0
 70
     0
  0
VERTEX
  8
1
 10
2.28218415975571
 20
9.75963472127914
 30
0.0
 70
     0
  0
VERTEX
  8
1
 10
2.28227726817131
 20
9.81891904473305
 30
0.0
 70
     0
  0
VERTEX
  8
1
 10
2.28065544068813
 20
9.88489733338356
 30
0.0
 70
     0
  0
VERTEX
  8
1
 10
2.27696781754494
 20
9.95751205682754
 30
0.0
 70
     0
  0
VERTEX
  8
1
 10
2.2731897354126
 20
10.0095770716667
 30
0.0
 70
     0
  0
VERTEX
  8
1
 10
2.26823606491089
 20
10.0645382881165
 30
0.0
 70
     0
  0
VERTEX
  8
1
 10
2.2620044246316
 20
10.1223707258701
 30
0.0
 70
     0
  0
VERTEX
  8
1
 10
2.25439337939024
 20
10.1830456197262
 30
0.0
 70
     0
  0
VERTEX
  8
1
 10
2.24530206173658
 20
10.2465319335461
 30
0.0
 70
     0
  0
VERTEX
  8
1
 10
2.23462979346514
 20
10.3127940893173
 30
0.0
 70
     0
  0
VERTEX
  8
1
 10
2.22227759957314
 20
10.3817972660065
 30
0.0
 70
     0
  0
VERTEX
  8
1
 10
2.20814612656832
 20
10.4534998297691
 30
0.0
 70
     0
  0
VERTEX
  8
1
 10
2.1921379134059
 20
10.5278616607189
 30
0.0
 70
     0
  0
VERTEX
  8
1
 10
2.17415606677532
 20
10.6048373401165
 30
0.0
 70
     0
  0
VERTEX
  8
1
 10
2.15410426110029
 20
10.6843806922436
 30
0.0
 70
     0
  0
VERTEX
  8
1
 10
2.12434930950403
 20
10.7929117977619
 30
0.0
 70
     0
  0
VERTEX
  8
1
 10
1.6951537668705
 20
10.868590015173
 30
0.0
 70
     0
  0
VERTEX
  8
1
 10
1.63007325530052
 20
10.7767813324928
 30
0.0
 70
     0
  0
VERTEX
  8
1
 10
1.58402556106448
 20
10.708893185854
 30
0.0
 70
     0
  0
VERTEX
  8
1
 10
1.54080083072186
 20
10.6427097558975
 30
0.0
 70
     0
  0
VERTEX
  8
1
 10
1.50032459646463
 20
10.5783074975014
 30
0.0
 70
     0
  0
VERTEX
  8
1
 10
1.46252172812819
 20
10.5157613515854
 30
0.0
 70
     0
  0
VERTEX
  8
1
 10
1.42731387838721
 20
10.4551455020905
 30
0.0
 70
     0
  0
VERTEX
  8
1
 10
1.39462232142687
 20
10.3965288341045
 30
0.0
 70
     0
  0
VERTEX
  8
1
 10
1.36436577662826
 20
10.3399809896946
 30
0.0
 70
     0
  0
VERTEX
  8
1
 10
1.33646182790399
 20
10.2855678260326
 30
0.0
 70
     0
  0
VERTEX
  8
1
 10
1.3108261667192
 20
10.2333552002907
 30
0.0
 70
     0
  0
VERTEX
  8
1
 10
1.28737325444818
 20
10.1834021568298
 30
0.0
 70
     0
  0
VERTEX
  8
1
 10
1.26601584926248
 20
10.1357700109482
 30
0.0
 70
     0
  0
VERTEX
  8
1
 10
1.23771477043629
 20
10.0687947809696
 30
0.0
 70
     0
  0
VERTEX
  8
1
 10
1.21362514421344
 20
10.0073515534401
 30
0.0
 70
     0
  0
VERTEX
  8
1
 10
1.19343604147434
 20
9.95160913467407
 30
0.0
 70
     0
  0
VERTEX
  8
1
 10
1.17203700244427
 20
9.88642643094063
 30
0.0
 70
     0
  0
VERTEX
  8
1
 10
1.15624396055937
 20
9.8319981276989
 30
0.0
 70
     0
  0
VERTEX
  8
1
 10
1.14319487288594
 20
9.77953418493271
 30
0.0
 70
     0
  0
VERTEX
  8
1
 10
1.13327873200178
 20
9.72678107619286
 30
0.0
 70
     0
  0
VERTEX
  8
1
 10
1.12225938886404
 20
9.63220412135124
 30
0.0
 42
-0.000043633245722
 70
     0
  0
VERTEX
  8
1
 10
0.567400224506855
 20
9.68074691295624
 30
0.0
 70
     0
  0
VERTEX
  8
1
 10
0.572971400618553
 20
9.7758007645607
 30
0.0
 70
     0
  0
VERTEX
  8
1
 10
0.57236647978425
 20
9.82947511672974
 30
0.0
 70
     0
  0
VERTEX
  8
1
 10
0.568625820800662
 20
9.88340684175491
 30
0.0
 70
     0
  0
VERTEX
  8
1
 10
0.562524002417922
 20
9.9397518157959
 30
0.0
 70
     0
  0
VERTEX
  8
1
 10
0.552768908813596
 20
10.0076604008675
 30
0.0
 70
     0
  0
VERTEX
  8
1
 10
0.542566062137484
 20
10.0660605728626
 30
0.0
 70
     0
  0
VERTEX
  8
1
 10
0.529511912167072
 20
10.1307542681694
 30
0.0
 70
     0
  0
VERTEX
  8
1
 10
0.513270786032081
 20
10.2016256690025
 30
0.0
 70
     0
  0
VERTEX
  8
1
 10
0.500509161129594
 20
10.2522433400154
 30
0.0
 70
     0
  0
VERTEX
  8
1
 10
0.486086677014828
 20
10.3055096805096
 30
0.0
 70
     0
  0
VERTEX
  8
1
 10
0.469907197356224
 20
10.3613815426826
 30
0.0
 70
     0
  0
VERTEX
  8
1
 10
0.451875768601894
 20
10.4198127508163
 30
0.0
 70
     0
  0
VERTEX
  8
1
 10
0.431898288801312
 20
10.4807556152344
 30
0.0
 70
     0
  0
VERTEX
  8
1
 10
0.409881933405995
 20
10.5441579043865
 30
0.0
 70
     0
  0
VERTEX
  8
1
 10
0.385735107958317
 20
10.6099673867226
 30
0.0
 70
     0
  0
VERTEX
  8
1
 10
0.359367306157947
 20
10.6781272888184
 30
0.0
 70
     0
  0
VERTEX
  8
1
 10
0.330689441040158
 20
10.7485793232918
 30
0.0
 70
     0
  0
VERTEX
  8
1
 10
0.299613963253796
 20
10.8212636888027
 30
0.0
 70
     0
  0
VERTEX
  8
1
 10
0.266054482571781
 20
10.8961160421371
 30
0.0
 70
     0
  0
VERTEX
  8
1
 10
0.217905178107321
 20
10.9978320658207
 30
0.0
 70
     0
  0
VERTEX
  8
1
 10
-0.217911257594824
 20
10.9978320658207
 30
0.0
 70
     0
  0
VERTEX
  8
1
 10
-0.26606068033725
 20
10.8961167991161
 30
0.0
 70
     0
  0
VERTEX
  8
1
 10
-0.299620090052485
 20
10.8212636888027
 30
0.0
 70
     0
  0
VERTEX
  8
1
 10
-0.330695615150034
 20
10.7485800802708
 30
0.0
 70
     0
  0
VERTEX
  8
1
 10
-0.359373361989856
 20
10.6781272888184
 30
0.0
 70
     0
  0
VERTEX
  8
1
 10
-0.385741092823446
 20
10.6099673867226
 30
0.0
 70
     0
  0
VERTEX
  8
1
 10
-0.409887989237905
 20
10.5441579043865
 30
0.0
 70
     0
  0
VERTEX
  8
1
 10
-0.431904344633222
 20
10.4807556152344
 30
0.0
 70
     0
  0
VERTEX
  8
1
 10
-0.45188172981143
 20
10.4198127508163
 30
0.0
 70
     0
  0
VERTEX
  8
1
 10
-0.46991315856576
 20
10.3613815426826
 30
0.0
 70
     0
  0
VERTEX
  8
1
 10
-0.486092496290803
 20
10.3055096805096
 30
0.0
 70
     0
  0
VERTEX
  8
1
 10
-0.500515027716756
 20
10.2522433400154
 30
0.0
 70
     0
  0
VERTEX
  8
1
 10
-0.513276652619243
 20
10.2016256690025
 30
0.0
 70
     0
  0
VERTEX
  8
1
 10
-0.529517636820674
 20
10.1307542681694
 30
0.0
 70
     0
  0
VERTEX
  8
1
 10
-0.542571834102273
 20
10.0660613298416
 30
0.0
 70
     0
  0
VERTEX
  8
1
 10
-0.552774680778384
 20
10.0076604008675
 30
0.0
 70
     0
  0
VERTEX
  8
1
 10
-0.562529679760337
 20
9.9397518157959
 30
0.0
 70
     0
  0
VERTEX
  8
1
 10
-0.568631498143077
 20
9.8834075987339
 30
0.0
 70
     0
  0
VERTEX
  8
1
 10
-0.572371967881918
 20
9.82947435975075
 30
0.0
 70
     0
  0
VERTEX
  8
1
 10
-0.572977030649781
 20
9.7758007645607
 30
0.0
 70
     0
  0
VERTEX
  8
1
 10
-0.567405712604523
 20
9.68074691295624
 30
0.0
 42
-0.000043633248638
 70
     0
  0
VERTEX
  8
1
 10
-1.12226478233933
 20
9.63220260739326
 30
0.0
 70
     0
  0
VERTEX
  8
1
 10
-1.1332844093442
 20
9.72678031921387
 30
0.0
 70
     0
  0
VERTEX
  8
1
 10
-1.14320064485073
 20
9.77953418493271
 30
0.0
 70
     0
  0
VERTEX
  8
1
 10
-1.15624954327941
 20
9.83199737071991
 30
0.0
 70
     0
  0
VERTEX
  8
1
 10
-1.1720429636538
 20
9.88642643094063
 30
0.0
 70
     0
  0
VERTEX
  8
1
 10
-1.19344209730625
 20
9.95160913467407
 30
0.0
 70
     0
  0
VERTEX
  8
1
 10
-1.2136310108006
 20
10.0073507964611
 30
0.0
 70
     0
  0
VERTEX
  8
1
 10
-1.23772073164582
 20
10.0687940239906
 30
0.0
 70
     0
  0
VERTEX
  8
1
 10
-1.26602181047201
 20
10.1357684969902
 30
0.0
 70
     0
  0
VERTEX
  8
1
 10
-1.28737921565771
 20
10.1834013998508
 30
0.0
 70
     0
  0
VERTEX
  8
1
 10
-1.31083212792873
 20
10.2333544433117
 30
0.0
 70
     0
  0
VERTEX
  8
1
 10
-1.33646778911352
 20
10.2855678260326
 30
0.0
 70
     0
  0
VERTEX
  8
1
 10
-1.36437202170491
 20
10.3399809896946
 30
0.0
 70
     0
  0
VERTEX
  8
1
 10
-1.39462856650352
 20
10.3965288341045
 30
0.0
 70
     0
  0
VERTEX
  8
1
 10
-1.42732012346387
 20
10.4551447451115
 30
0.0
 70
     0
  0
VERTEX
  8
1
 10
-1.46252787858248
 20
10.5157605946064
 30
0.0
 70
     0
  0
VERTEX
  8
1
 10
-1.50033093616366
 20
10.5783067405224
 30
0.0
 70
     0
  0
VERTEX
  8
1
 10
-1.54080707579851
 20
10.6427082419395
 30
0.0
 70
     0
  0
VERTEX
  8
1
 10
-1.58403190076351
 20
10.708891671896
 30
0.0
 70
     0
  0
VERTEX
  8
1
 10
-1.63007950037718
 20
10.7767798185349
 30
0.0
 70
     0
  0
VERTEX
  8
1
 10
-1.6951602011919
 20
10.868590015173
 30
0.0
 70
     0
  0
VERTEX
  8
1
 10
-2.12435536533594
 20
10.7929102838039
 30
0.0
 70
     0
  0
VERTEX
  8
1
 10
-2.15411050617695
 20
10.6843791782856
 30
0.0
 70
     0
  0
VERTEX
  8
1
 10
-2.17416212260723
 20
10.6048358261585
 30
0.0
 70
     0
  0
VERTEX
  8
1
 10
-2.19214415848255
 20
10.5278601467609
 30
0.0
 70
     0
  0
VERTEX
  8
1
 10
-2.20815218240023
 20
10.4534975588322
 30
0.0
 70
     0
  0
VERTEX
  8
1
 10
-2.2222834661603
 20
10.3817949950695
 30
0.0
 70
     0
  0
VERTEX
  8
1
 10
-2.23463603854179
 20
10.3127925753593
 30
0.0
 70
     0
  0
VERTEX
  8
1
 10
-2.24530811756849
 20
10.2465304195881
 30
0.0
 70
     0
  0
VERTEX
  8
1
 10
-2.25439943522215
 20
10.1830441057682
 30
0.0
 70
     0
  0
VERTEX
  8
1
 10
-2.26201029121876
 20
10.1223692119122
 30
0.0
 70
     0
  0
VERTEX
  8
1
 10
-2.2682417422533
 20
10.0645367741585
 30
0.0
 70
     0
  0
VERTEX
  8
1
 10
-2.27319560199976
 20
10.0095748007298
 30
0.0
 70
     0
  0
VERTEX
  8
1
 10
-2.2769736841321
 20
9.95751054286957
 30
0.0
 70
     0
  0
VERTEX
  8
1
 10
-2.28066111803055
 20
9.88489506244659
 30
0.0
 70
     0
  0
VERTEX
  8
1
 10
-2.28228332400322
 20
9.81891828775406
 30
0.0
 70
     0
  0
VERTEX
  8
1
 10
-2.28218983709812
 20
9.75963320732117
 30
0.0
 70
     0
  0
VERTEX
  8
1
 10
-2.2800044387579
 20
9.69106226563454
 30
0.0
 70
     0
  0
VERTEX
  8
1
 10
-2.27622938454151
 20
9.63451442122459
 30
0.0
 70
     0
  0
VERTEX
  8
1
 10
-2.27054787874222
 20
9.5807507455349
 30
0.0
 70
     0
  0
VERTEX
  8
1
 10
-2.26182331740856
 20
9.52778795361519
 30
0.0
 70
     0
  0
VERTEX
  8
1
 10
-2.23983080685139
 20
9.43514583706856
 30
0.0
 42
-0.000043633230796
 70
     0
  0
VERTEX
  8
1
 10
-2.77783053517342
 20
9.2909890294075
 30
0.0
 70
     0
  0
VERTEX
  8
1
 10
-2.80510619133711
 20
9.38221559524536
 30
0.0
 70
     0
  0
VERTEX
  8
1
 10
-2.82403236925602
 20
9.43244644999504
 30
0.0
 70
     0
  0
VERTEX
  8
1
 10
-2.84599308669567
 20
9.48184614181518
 30
0.0
 70
     0
  0
VERTEX
  8
1
 10
-2.87099818438292
 20
9.53270604610443
 30
0.0
 70
     0
  0
VERTEX
  8
1
 10
-2.90339101850986
 20
9.59318261146545
 30
0.0
 70
     0
  0
VERTEX
  8
1
 10
-2.93295256197453
 20
9.64457088708878
 30
0.0
 70
     0
  0
VERTEX
  8
1
 10
-2.96734628081322
 20
9.70089845061302
 30
0.0
 70
     0
  0
VERTEX
  8
1
 10
-3.00684714764357
 20
9.76194123625755
 30
0.0
 70
     0
  0
VERTEX
  8
1
 10
-3.03615150749683
 20
9.80514127016068
 30
0.0
 70
     0
  0
VERTEX
  8
1
 10
-3.06792248338461
 20
9.85026327371597
 30
0.0
 70
     0
  0
VERTEX
  8
1
 10
-3.10223539471626
 20
9.89723079204559
 30
0.0
 70
     0
  0
VERTEX
  8
1
 10
-3.13916442543268
 20
9.94597191214561
 30
0.0
 70
     0
  0
VERTEX
  8
1
 10
-3.17878035306931
 20
9.99640715122223
 30
0.0
 70
     0
  0
VERTEX
  8
1
 10
-3.22115414440632
 20
10.0484562695026
 30
0.0
 70
     0
  0
VERTEX
  8
1
 10
-3.26635298132896
 20
10.1020382702351
 30
0.0
 70
     0
  0
VERTEX
  8
1
 10
-3.31444272100925
 20
10.1570683717728
 30
0.0
 70
     0
  0
VERTEX
  8
1
 10
-3.36548694968224
 20
10.213463306427
 30
0.0
 70
     0
  0
VERTEX
  8
1
 10
-3.41954811811447
 20
10.2711360216141
 30
0.0
 70
     0
  0
VERTEX
  8
1
 10
-3.47668451368809
 20
10.3299956798553
 30
0.0
 70
     0
  0
VERTEX
  8
1
 10
-3.5567187666893
 20
10.4091098248959
 30
0.0
 70
     0
  0
VERTEX
  8
1
 10
-3.96625234782696
 20
10.2600515782833
 30
0.0
 70
     0
  0
VERTEX
  8
1
 10
-3.97670925557613
 20
10.1480020344257
 30
0.0
 70
     0
  0
VERTEX
  8
1
 10
-3.98264359235764
 20
10.0661854743958
 30
0.0
 70
     0
  0
VERTEX
  8
1
 10
-3.98698562383652
 20
9.98725603222847
 30
0.0
 70
     0
  0
VERTEX
  8
1
 10
-3.98983792066574
 20
9.91124398708343
 30
0.0
 70
     0
  0
VERTEX
  8
1
 10
-3.99130305349827
 20
9.83817734718323
 30
0.0
 70
     0
  0
VERTEX
  8
1
 10
-3.99148586392403
 20
9.76807730793953
 30
0.0
 70
     0
  0
VERTEX
  8
1
 10
-3.99048967957497
 20
9.70096884965897
 30
0.0
 70
     0
  0
VERTEX
  8
1
 10
-3.98841858506203
 20
9.63686862587929
 30
0.0
 70
     0
  0
VERTEX
  8
1
 10
-3.98537742197514
 20
9.57579329013824
 30
0.0
 70
     0
  0
VERTEX
  8
1
 10
-3.98147178888321
 20
9.51775798201561
 30
0.0
 70
     0
  0
VERTEX
  8
1
 10
-3.97680652737617
 20
9.46277027130127
 30
0.0
 70
     0
  0
VERTEX
  8
1
 10
-3.97148647904396
 20
9.41084075570106
 30
0.0
 70
     0
  0
VERTEX
  8
1
 10
-3.96250832974911
 20
9.33868854641914
 30
0.0
 70
     0
  0
VERTEX
  8
1
 10
-3.95264867842197
 20
9.2734324157238
 30
0.0
 70
     0
  0
VERTEX
  8
1
 10
-3.94226216971874
 20
9.21506403684616
 30
0.0
 70
     0
  0
VERTEX
  8
1
 10
-3.9282024204731
 20
9.14791470170021
 30
0.0
 70
     0
  0
VERTEX
  8
1
 10
-3.91466574370861
 20
9.09288157224655
 30
0.0
 70
     0
  0
VERTEX
  8
1
 10
-3.89973433315754
 20
9.0409217774868
 30
0.0
 70
     0
  0
VERTEX
  8
1
 10
-3.88194570541382
 20
8.99027761220932
 30
0.0
 70
     0
  0
VERTEX
  8
1
 10
-3.8442000836134
 20
8.90286167860031
 30
0.0
 42
-0.000043633199732
 70
     0
  0
VERTEX
  8
1
 10
-4.34899379312992
 20
8.66747300624847
 30
0.0
 70
     0
  0
VERTEX
  8
1
 10
-4.3916964918375
 20
8.75257712602615
 30
0.0
 70
     0
  0
VERTEX
  8
1
 10
-4.41905787587166
 20
8.79875814318657
 30
0.0
 70
     0
  0
VERTEX
  8
1
 10
-4.44926285147667
 20
8.84359400868416
 30
0.0
 70
     0
  0
VERTEX
  8
1
 10
-4.48271980881691
 20
8.8893397629261
 30
0.0
 70
     0
  0
VERTEX
  8
1
 10
-4.52512236535549
 20
8.94327224493027
 30
0.0
 70
     0
  0
VERTEX
  8
1
 10
-4.56315828859806
 20
8.98874700069427
 30
0.0
 70
     0
  0
VERTEX
  8
1
 10
-4.60681023895741
 20
9.03824661374092
 30
0.0
 70
     0
  0
VERTEX
  8
1
 10
-4.65631136596203
 20
9.09150235652923
 30
0.0
 70
     0
  0
VERTEX
  8
1
 10
-4.69267209470272
 20
9.12895767688751
 30
0.0
 70
     0
  0
VERTEX
  8
1
 10
-4.73179541826248
 20
9.16787548065185
 30
0.0
 70
     0
  0
VERTEX
  8
1
 10
-4.77374303042889
 20
9.2081732571125
 30
0.0
 70
     0
  0
VERTEX
  8
1
 10
-4.81857473254204
 20
9.24976016879082
 30
0.0
 70
     0
  0
VERTEX
  8
1
 10
-4.86634729802608
 20
9.29254992008209
 30
0.0
 70
     0
  0
VERTEX
  8
1
 10
-4.91711485087871
 20
9.33645015954971
 30
0.0
 70
     0
  0
VERTEX
  8
1
 10
-4.97093151509762
 20
9.38136853575706
 30
0.0
 70
     0
  0
VERTEX
  8
1
 10
-5.02784649431705
 20
9.42721345424652
 30
0.0
 70
     0
  0
VERTEX
  8
1
 10
-5.0879082351923
 20
9.47388802170753
 30
0.0
 70
     0
  0
VERTEX
  8
1
 10
-5.15116253495216
 20
9.52129685878754
 30
0.0
 70
     0
  0
VERTEX
  8
1
 10
-5.21765216290951
 20
9.56934080123901
 30
0.0
 70
     0
  0
VERTEX
  8
1
 10
-5.31020874083042
 20
9.633353972435
 30
0.0
 70
     0
  0
VERTEX
  8
1
 10
-5.68763657212257
 20
9.415446215868
 30
0.0
 70
     0
  0
VERTEX
  8
1
 10
-5.67847750484943
 20
9.30328312516212
 30
0.0
 70
     0
  0
VERTEX
  8
1
 10
-5.67011440098286
 20
9.22167927622795
 30
0.0
 70
     0
  0
VERTEX
  8
1
 10
-5.66068471372127
 20
9.14319569468498
 30
0.0
 70
     0
  0
VERTEX
  8
1
 10
-5.65029404163361
 20
9.06784222126007
 30
0.0
 70
     0
  0
VERTEX
  8
1
 10
-5.63904911875725
 20
8.99563021063805
 30
0.0
 70
     0
  0
VERTEX
  8
1
 10
-5.62705630064011
 20
8.92656420469284
 30
0.0
 70
     0
  0
VERTEX
  8
1
 10
-5.61442194283009
 20
8.8606479883194
 30
0.0
 70
     0
  0
VERTEX
  8
1
 10
-5.60125126540661
 20
8.79788156151771
 30
0.0
 70
     0
  0
VERTEX
  8
1
 10
-5.58765100240707
 20
8.73826265335083
 30
0.0
 70
     0
  0
VERTEX
  8
1
 10
-5.5737267524004
 20
8.68178672194481
 30
0.0
 70
     0
  0
VERTEX
  8
1
 10
-5.5595841139555
 20
8.62844468355179
 30
0.0
 70
     0
  0
VERTEX
  8
1
 10
-5.54532717168331
 20
8.57822821140289
 30
0.0
 70
     0
  0
VERTEX
  8
1
 10
-5.52395651936531
 20
8.50873148441315
 30
0.0
 70
     0
  0
VERTEX
  8
1
 10
-5.50291515290737
 20
8.44617852568626
 30
0.0
 70
     0
  0
VERTEX
  8
1
 10
-5.48255090415478
 20
8.39050045013428
 30
0.0
 70
     0
  0
VERTEX
  8
1
 10
-5.4570444971323
 20
8.32681277990341
 30
0.0
 70
     0
  0
VERTEX
  8
1
 10
-5.43415685892105
 20
8.27496577501297
 30
0.0
 70
     0
  0
VERTEX
  8
1
 10
-5.41042973101139
 20
8.2263881623745
 30
0.0
 70
     0
  0
VERTEX
  8
1
 10
-5.38411676287651
 20
8.17960307598114
 30
0.0
 70
     0
  0
VERTEX
  8
1
 10
-5.33176485300064
 20
8.10006956458092
 30
0.0
 42
-0.000043633232689
 70
     0
  0
VERTEX
  8
1
 10
-5.78801463544369
 20
7.78059945106506
 30
0.0
 70
     0
  0
VERTEX
  8
1
 10
-5.84484710395336
 20
7.85699679851532
 30
0.0
 70
     0
  0
VERTEX
  8
1
 10
-5.87981158494949
 20
7.89772529602051
 30
0.0
 70
     0
  0
VERTEX
  8
1
 10
-5.91734373867512
 20
7.93663401603699
 30
0.0
 70
     0
  0
VERTEX
  8
1
 10
-5.95823574364185
 20
7.97587504982948
 30
0.0
 70
     0
  0
VERTEX
  8
1
 10
-6.00935983359814
 20
8.02162610292435
 30
0.0
 70
     0
  0
VERTEX
  8
1
 10
-6.05471422970295
 20
8.05980433821678
 30
0.0
 70
     0
  0
VERTEX
  8
1
 10
-6.10629894137382
 20
8.10097188353538
 30
0.0
 70
     0
  0
VERTEX
  8
1
 10
-6.16429526507854
 20
8.14482291936874
 30
0.0
 70
     0
  0
VERTEX
  8
1
 10
-6.20660774111748
 20
8.17539502978325
 30
0.0
 70
     0
  0
VERTEX
  8
1
 10
-6.2518947660923
 20
8.20692926049233
 30
0.0
 70
     0
  0
VERTEX
  8
1
 10
-6.30020327270031
 20
8.23932947516441
 30
0.0
 70
     0
  0
VERTEX
  8
1
 10
-6.35157527327538
 20
8.27250105142593
 30
0.0
 70
     0
  0
VERTEX
  8
1
 10
-6.40605278015137
 20
8.30634406805038
 30
0.0
 70
     0
  0
VERTEX
  8
1
 10
-6.46367250680923
 20
8.34076163172722
 30
0.0
 70
     0
  0
VERTEX
  8
1
 10
-6.52447154521942
 20
8.37565230727196
 30
0.0
 70
     0
  0
VERTEX
  8
1
 10
-6.58848244547844
 20
8.41091693043709
 30
0.0
 70
     0
  0
VERTEX
  8
1
 10
-6.65573700070381
 20
8.44645255208015
 30
0.0
 70
     0
  0
VERTEX
  8
1
 10
-6.72626246213913
 20
8.48215773701668
 30
0.0
 70
     0
  0
VERTEX
  8
1
 10
-6.80008456707001
 20
8.51792650818825
 30
0.0
 70
     0
  0
VERTEX
  8
1
 10
-6.9023509144783
 20
8.56489554047585
 30
0.0
 70
     0
  0
VERTEX
  8
1
 10
-7.23620514273643
 20
8.28475729823112
 30
0.0
 70
     0
  0
VERTEX
  8
1
 10
-7.2077086687088
 20
8.17588933706284
 30
0.0
 70
     0
  0
VERTEX
  8
1
 10
-7.18530209064484
 20
8.09697730541229
 30
0.0
 70
     0
  0
VERTEX
  8
1
 10
-7.1623868227005
 20
8.02132331132889
 30
0.0
 70
     0
  0
VERTEX
  8
1
 10
-7.1390688419342
 20
7.94891978502273
 30
0.0
 70
     0
  0
VERTEX
  8
1
 10
-7.11545563936233
 20
7.87975688576698
 30
0.0
 70
     0
  0
VERTEX
  8
1
 10
-7.09165167808533
 20
7.8138232588768
 30
0.0
 70
     0
  0
VERTEX
  8
1
 10
-7.06776293516159
 20
7.75110225081444
 30
0.0
 70
     0
  0
VERTEX
  8
1
 10
-7.04389387369156
 20
7.69157645106316
 30
0.0
 70
     0
  0
VERTEX
  8
1
 10
-7.0201466858387
 20
7.63522390723228
 30
0.0
 70
     0
  0
VERTEX
  8
1
 10
-6.99662734866142
 20
7.58202418088913
 30
0.0
 70
     0
  0
VERTEX
  8
1
 10
-6.97343729734421
 20
7.53194926381111
 30
0.0
 70
     0
  0
VERTEX
  8
1
 10
-6.95067645311356
 20
7.48497039079666
 30
0.0
 70
     0
  0
VERTEX
  8
1
 10
-6.91756165027618
 20
7.42024036049843
 30
0.0
 70
     0
  0
VERTEX
  8
1
 10
-6.88597821593285
 20
7.3622913479805
 30
0.0
 70
     0
  0
VERTEX
  8
1
 10
-6.85625467896461
 20
7.31099618077278
 30
0.0
 70
     0
  0
VERTEX
  8
1
 10
-6.82007713913918
 20
7.25270425677299
 30
0.0
 70
     0
  0
VERTEX
  8
1
 10
-6.78853382468224
 20
7.20562016367912
 30
0.0
 70
     0
  0
VERTEX
  8
1
 10
-6.75673162341118
 20
7.16190084218979
 30
0.0
 70
     0
  0
VERTEX
  8
1
 10
-6.72269406318665
 20
7.12039568424225
 30
0.0
 70
     0
  0
VERTEX
  8
1
 10
-6.65732665657997
 20
7.05116162896156
 30
0.0
 42
-0.000043633271775
 70
     0
  0
VERTEX
  8
1
 10
-7.05116995573044
 20
6.65731757283211
 30
0.0
 70
     0
  0
VERTEX
  8
1
 10
-7.1204055249691
 20
6.72268497943878
 30
0.0
 70
     0
  0
VERTEX
  8
1
 10
-7.16191143989563
 20
6.7567232966423
 30
0.0
 70
     0
  0
VERTEX
  8
1
 10
-7.20563000440598
 20
6.78852398395538
 30
0.0
 70
     0
  0
VERTEX
  8
1
 10
-7.25271485447884
 20
6.82006729841232
 30
0.0
 70
     0
  0
VERTEX
  8
1
 10
-7.31100677847862
 20
6.85624559521675
 30
0.0
 70
     0
  0
VERTEX
  8
1
 10
-7.36230194568634
 20
6.88596837520599
 30
0.0
 70
     0
  0
VERTEX
  8
1
 10
-7.42025171518326
 20
6.91755256652832
 30
0.0
 70
     0
  0
VERTEX
  8
1
 10
-7.48498174548149
 20
6.9506666123867
 30
0.0
 70
     0
  0
VERTEX
  8
1
 10
-7.53195986151695
 20
6.97342669963837
 30
0.0
 70
     0
  0
VERTEX
  8
1
 10
-7.58203477859497
 20
6.99661750793457
 30
0.0
 70
     0
  0
VERTEX
  8
1
 10
-7.63523526191711
 20
7.02013684511185
 30
0.0
 70
     0
  0
VERTEX
  8
1
 10
-7.691587048769
 20
7.04388403296471
 30
0.0
 70
     0
  0
VERTEX
  8
1
 10
-7.75111360549927
 20
7.06775309443474
 30
0.0
 70
     0
  0
VERTEX
  8
1
 10
-7.81383385658264
 20
7.09164183735847
 30
0.0
 70
     0
  0
VERTEX
  8
1
 10
-7.87976824045181
 20
7.11544579863548
 30
0.0
 70
     0
  0
VERTEX
  8
1
 10
-7.94893113970756
 20
7.13905900120735
 30
0.0
 70
     0
  0
VERTEX
  8
1
 10
-8.02133390903473
 20
7.16237622499466
 30
0.0
 70
     0
  0
VERTEX
  8
1
 10
-8.09698866009712
 20
7.18529224991798
 30
0.0
 70
     0
  0
VERTEX
  8
1
 10
-8.17589993476868
 20
7.20769807100296
 30
0.0
 70
     0
  0
VERTEX
  8
1
 10
-8.28476940989494
 20
7.23619530200958
 30
0.0
 70
     0
  0
VERTEX
  8
1
 10
-8.56490613818169
 20
6.90234031677246
 30
0.0
 70
     0
  0
VERTEX
  8
1
 10
-8.51793710589409
 20
6.80007472634315
 30
0.0
 70
     0
  0
VERTEX
  8
1
 10
-8.48216833472252
 20
6.72625186443329
 30
0.0
 70
     0
  0
VERTEX
  8
1
 10
-8.44646390676498
 20
6.65572640299797
 30
0.0
 70
     0
  0
VERTEX
  8
1
 10
-8.41092752814293
 20
6.5884718477726
 30
0.0
 70
     0
  0
VERTEX
  8
1
 10
-8.3756629049778
 20
6.52446094751358
 30
0.0
 70
     0
  0
VERTEX
  8
1
 10
-8.34077147245407
 20
6.46366190910339
 30
0.0
 70
     0
  0
VERTEX
  8
1
 10
-8.30635466575623
 20
6.40604218244553
 30
0.0
 70
     0
  0
VERTEX
  8
1
 10
-8.27251089215279
 20
6.35156543254852
 30
0.0
 70
     0
  0
VERTEX
  8
1
 10
-8.23933931589127
 20
6.30019343197346
 30
0.0
 70
     0
  0
VERTEX
  8
1
 10
-8.20693910121918
 20
6.25188530385494
 30
0.0
 70
     0
  0
VERTEX
  8
1
 10
-8.17540562748909
 20
6.20659790039062
 30
0.0
 70
     0
  0
VERTEX
  8
1
 10
-8.1448327600956
 20
6.16428542435169
 30
0.0
 70
     0
  0
VERTEX
  8
1
 10
-8.10098172426224
 20
6.10628910064697
 30
0.0
 70
     0
  0
VERTEX
  8
1
 10
-8.05981493592262
 20
6.05470514595509
 30
0.0
 70
     0
  0
VERTEX
  8
1
 10
-8.0216359436512
 20
6.00934999287128
 30
0.0
 70
     0
  0
VERTEX
  8
1
 10
-7.97588489055634
 20
5.95822703838348
 30
0.0
 70
     0
  0
VERTEX
  8
1
 10
-7.93664537072182
 20
5.91733503341675
 30
0.0
 70
     0
  0
VERTEX
  8
1
 10
-7.89773437976837
 20
5.87980212271214
 30
0.0
 70
     0
  0
VERTEX
  8
1
 10
-7.85700739622116
 20
5.84483839869499
 30
0.0
 70
     0
  0
VERTEX
  8
1
 10
-7.7806100487709
 20
5.78800668716431
 30
0.0
 42
-0.000043633218649
 70
     0
  0
VERTEX
  8
1
 10
-8.10008016228676
 20
5.33175690472126
 30
0.0
 70
     0
  0
VERTEX
  8
1
 10
-8.17961443066597
 20
5.38410843610763
 30
0.0
 70
     0
  0
VERTEX
  8
1
 10
-8.22640027403831
 20
5.41042140424252
 30
0.0
 70
     0
  0
VERTEX
  8
1
 10
-8.2749771296978
 20
5.43414777517319
 30
0.0
 70
     0
  0
VERTEX
  8
1
 10
-8.32682413458824
 20
5.45703617036343
 30
0.0
 70
     0
  0
VERTEX
  8
1
 10
-8.39051180481911
 20
5.48254219889641
 30
0.0
 70
     0
  0
VERTEX
  8
1
 10
-8.44618988037109
 20
5.50290606915951
 30
0.0
 70
     0
  0
VERTEX
  8
1
 10
-8.50874283909798
 20
5.52394781410694
 30
0.0
 70
     0
  0
VERTEX
  8
1
 10
-8.57824032306671
 20
5.54531808793545
 30
0.0
 70
     0
  0
VERTEX
  8
1
 10
-8.6284575521946
 20
5.55957503020763
 30
0.0
 70
     0
  0
VERTEX
  8
1
 10
-8.68179807662964
 20
5.57371804714203
 30
0.0
 70
     0
  0
VERTEX
  8
1
 10
-8.73827476501465
 20
5.5876422971487
 30
0.0
 70
     0
  0
VERTEX
  8
1
 10
-8.79789367318153
 20
5.60124256014824
 30
0.0
 70
     0
  0
VERTEX
  8
1
 10
-8.8606608569622
 20
5.61441323757172
 30
0.0
 70
     0
  0
VERTEX
  8
1
 10
-8.92657707333565
 20
5.62704759538174
 30
0.0
 70
     0
  0
VERTEX
  8
1
 10
-8.99564383625984
 20
5.63904041349888
 30
0.0
 70
     0
  0
VERTEX
  8
1
 10
-9.06785508990288
 20
5.65028533637524
 30
0.0
 70
     0
  0
VERTEX
  8
1
 10
-9.14320704936981
 20
5.66067525148392
 30
0.0
 70
     0
  0
VERTEX
  8
1
 10
-9.22169138789177
 20
5.67010531723499
 30
0.0
 70
     0
  0
VERTEX
  8
1
 10
-9.30329523682594
 20
5.67846804261208
 30
0.0
 70
     0
  0
VERTEX
  8
1
 10
-9.4154590845108
 20
5.6876278668642
 30
0.0
 70
     0
  0
VERTEX
  8
1
 10
-9.63336608409882
 20
5.31019965708256
 30
0.0
 70
     0
  0
VERTEX
  8
1
 10
-9.56935291290283
 20
5.21764345765114
 30
0.0
 70
     0
  0
VERTEX
  8
1
 10
-9.52130821347237
 20
5.1511534512043
 30
0.0
 70
     0
  0
VERTEX
  8
1
 10
-9.47390013337135
 20
5.08789952993393
 30
0.0
 70
     0
  0
VERTEX
  8
1
 10
-9.42722480893135
 20
5.02783778905868
 30
0.0
 70
     0
  0
VERTEX
  8
1
 10
-9.38138064742088
 20
4.97092280983925
 30
0.0
 70
     0
  0
VERTEX
  8
1
 10
-9.33646151423454
 20
4.91710614562035
 30
0.0
 70
     0
  0
VERTEX
  8
1
 10
-9.29256127476692
 20
4.86633821427822
 30
0.0
 70
     0
  0
VERTEX
  8
1
 10
-9.24977152347565
 20
4.81856602728367
 30
0.0
 70
     0
  0
VERTEX
  8
1
 10
-9.20818461179733
 20
4.77373432517052
 30
0.0
 70
     0
  0
VERTEX
  8
1
 10
-9.16788683533668
 20
4.73178671300411
 30
0.0
 70
     0
  0
VERTEX
  8
1
 10
-9.12896903157234
 20
4.69266301095486
 30
0.0
 70
     0
  0
VERTEX
  8
1
 10
-9.09151295423508
 20
4.65630228221416
 30
0.0
 70
     0
  0
VERTEX
  8
1
 10
-9.03825796842575
 20
4.60680153369904
 30
0.0
 70
     0
  0
VERTEX
  8
1
 10
-8.9887583553791
 20
4.56314996182919
 30
0.0
 70
     0
  0
VERTEX
  8
1
 10
-8.94328284263611
 20
4.52511366009712
 30
0.0
 70
     0
  0
VERTEX
  8
1
 10
-8.88935036063194
 20
4.48271148204803
 30
0.0
 70
     0
  0
VERTEX
  8
1
 10
-8.84360536336899
 20
4.44925490319729
 30
0.0
 70
     0
  0
VERTEX
  8
1
 10
-8.79876874089241
 20
4.41904917061329
 30
0.0
 70
     0
  0
VERTEX
  8
1
 10
-8.75258848071098
 20
4.39168816506863
 30
0.0
 70
     0
  0
VERTEX
  8
1
 10
-8.66748360395431
 20
4.34898622334003
 30
0.0
 42
-0.000043633174984
 70
     0
  0
VERTEX
  8
1
 10
-8.90287227630615
 20
3.84419251382351
 30
0.0
 70
     0
  0
VERTEX
  8
1
 10
-8.99028972387314
 20
3.88193813562393
 30
0.0
 70
     0
  0
VERTEX
  8
1
 10
-9.04093388915062
 20
3.89972714185715
 30
0.0
 70
     0
  0
VERTEX
  8
1
 10
-9.09289292693138
 20
3.91465779542923
 30
0.0
 70
     0
  0
VERTEX
  8
1
 10
-9.14792681336403
 20
3.92819522917271
 30
0.0
 70
     0
  0
VERTEX
  8
1
 10
-9.21507690548897
 20
3.94225459992886
 30
0.0
 70
     0
  0
VERTEX
  8
1
 10
-9.27344452738762
 20
3.95264110863209
 30
0.0
 70
     0
  0
VERTEX
  8
1
 10
-9.33870141506195
 20
3.96250075995922
 30
0.0
 70
     0
  0
VERTEX
  8
1
 10
-9.41085362434387
 20
3.97147853076458
 30
0.0
 70
     0
  0
VERTEX
  8
1
 10
-9.46278313994408
 20
3.97679895758629
 30
0.0
 70
     0
  0
VERTEX
  8
1
 10
-9.51776933670044
 20
3.98146421909332
 30
0.0
 70
     0
  0
VERTEX
  8
1
 10
-9.57580540180206
 20
3.98536985218525
 30
0.0
 70
     0
  0
VERTEX
  8
1
 10
-9.63688073754311
 20
3.98841063678265
 30
0.0
 70
     0
  0
VERTEX
  8
1
 10
-9.70098171830177
 20
3.99048173129559
 30
0.0
 70
     0
  0
VERTEX
  8
1
 10
-9.76809017658234
 20
3.99147829413414
 30
0.0
 70
     0
  0
VERTEX
  8
1
 10
-9.83818945884705
 20
3.99129548370838
 30
0.0
 70
     0
  0
VERTEX
  8
1
 10
-9.91125761270523
 20
3.98982997238636
 30
0.0
 70
     0
  0
VERTEX
  8
1
 10
-9.98726890087128
 20
3.98697767555714
 30
0.0
 70
     0
  0
VERTEX
  8
1
 10
-10.0661983430386
 20
3.98263564407825
 30
0.0
 70
     0
  0
VERTEX
  8
1
 10
-10.1480149030685
 20
3.97670092880726
 30
0.0
 70
     0
  0
VERTEX
  8
1
 10
-10.2600644469261
 20
3.96624439954758
 30
0.0
 70
     0
  0
VERTEX
  8
1
 10
-10.4091211795807
 20
3.55671119689941
 30
0.0
 70
     0
  0
VERTEX
  8
1
 10
-10.3300085484982
 20
3.4766769438982
 30
0.0
 70
     0
  0
VERTEX
  8
1
 10
-10.2711473762989
 20
3.41954016983509
 30
0.0
 70
     0
  0
VERTEX
  8
1
 10
-10.2134761750698
 20
3.36547975838184
 30
0.0
 70
     0
  0
VERTEX
  8
1
 10
-10.1570804834366
 20
3.31443477272987
 30
0.0
 70
     0
  0
VERTEX
  8
1
 10
-10.1020496249199
 20
3.26634541153908
 30
0.0
 70
     0
  0
VERTEX
  8
1
 10
-10.0484676241875
 20
3.22114657461643
 30
0.0
 70
     0
  0
VERTEX
  8
1
 10
-9.99641850590706
 20
3.17877316176891
 30
0.0
 70
     0
  0
VERTEX
  8
1
 10
-9.94598326683044
 20
3.1391568556428
 30
0.0
 70
     0
  0
VERTEX
  8
1
 10
-9.89724214673042
 20
3.10222782492638
 30
0.0
 70
     0
  0
VERTEX
  8
1
 10
-9.85027387142181
 20
3.06791510283947
 30
0.0
 70
     0
  0
VERTEX
  8
1
 10
-9.8051526248455
 20
3.03614412695169
 30
0.0
 70
     0
  0
VERTEX
  8
1
 10
-9.76195259094238
 20
3.00683995634317
 30
0.0
 70
     0
  0
VERTEX
  8
1
 10
-9.70090980529785
 20
2.96733927875757
 30
0.0
 70
     0
  0
VERTEX
  8
1
 10
-9.64458299875259
 20
2.93294574916363
 30
0.0
 70
     0
  0
VERTEX
  8
1
 10
-9.59319396615028
 20
2.90338420569897
 30
0.0
 70
     0
  0
VERTEX
  8
1
 10
-9.53271740078926
 20
2.87099118232727
 30
0.0
 70
     0
  0
VERTEX
  8
1
 10
-9.481858253479
 20
2.84598646312952
 30
0.0
 70
     0
  0
VERTEX
  8
1
 10
-9.43245629072189
 20
2.82402555644512
 30
0.0
 70
     0
  0
VERTEX
  8
1
 10
-9.3822261929512
 20
2.80509937852621
 30
0.0
 70
     0
  0
VERTEX
  8
1
 10
-9.29099962711334
 20
2.77782447934151
 30
0.0
 42
-0.000043633193627
 70
     0
  0
VERTEX
  8
1
 10
-9.4351564347744
 20
2.23982475101948
 30
0.0
 70
     0
  0
VERTEX
  8
1
 10
-9.52779930830002
 20
2.26181726157665
 30
0.0
 70
     0
  0
VERTEX
  8
1
 10
-9.5807636141777
 20
2.2705422013998
 30
0.0
 70
     0
  0
VERTEX
  8
1
 10
-9.63452577590942
 20
2.27622351795435
 30
0.0
 70
     0
  0
VERTEX
  8
1
 10
-9.69107437729835
 20
2.27999857217073
 30
0.0
 70
     0
  0
VERTEX
  8
1
 10
-9.75964531898499
 20
2.28218397051096
 30
0.0
 70
     0
  0
VERTEX
  8
1
 10
-9.81892964243889
 20
2.28227707892656
 30
0.0
 70
     0
  0
VERTEX
  8
1
 10
-9.8849079310894
 20
2.28065525144339
 30
0.0
 70
     0
  0
VERTEX
  8
1
 10
-9.95752265453338
 20
2.27696743905544
 30
0.0
 70
     0
  0
VERTEX
  8
1
 10
-10.0095876693726
 20
2.2731893569231
 30
0.0
 70
     0
  0
VERTEX
  8
1
 10
-10.0645488858223
 20
2.26823568642139
 30
0.0
 70
     0
  0
VERTEX
  8
1
 10
-10.122381323576
 20
2.2620040461421
 30
0.0
 70
     0
  0
VERTEX
  8
1
 10
-10.183056974411
 20
2.25439319014549
 30
0.0
 70
     0
  0
VERTEX
  8
1
 10
-10.2465432882309
 20
2.24530187249184
 30
0.0
 70
     0
  0
VERTEX
  8
1
 10
-10.3128046870232
 20
2.23462979346514
 30
0.0
 70
     0
  0
VERTEX
  8
1
 10
-10.3818078637123
 20
2.22227722108364
 30
0.0
 70
     0
  0
VERTEX
  8
1
 10
-10.453511184454
 20
2.20814612656832
 30
0.0
 70
     0
  0
VERTEX
  8
1
 10
-10.5278730154037
 20
2.19213772416115
 30
0.0
 70
     0
  0
VERTEX
  8
1
 10
-10.6048486948013
 20
2.17415587753057
 30
0.0
 70
     0
  0
VERTEX
  8
1
 10
-10.6843920469284
 20
2.15410426110029
 30
0.0
 70
     0
  0
VERTEX
  8
1
 10
-10.7929231524467
 20
2.12434930950403
 30
0.0
 70
     0
  0
VERTEX
  8
1
 10
-10.8686013698578
 20
1.69515414535999
 30
0.0
 70
     0
  0
VERTEX
  8
1
 10
-10.7767926871777
 20
1.63007363379002
 30
0.0
 70
     0
  0
VERTEX
  8
1
 10
-10.7089037835598
 20
1.58402593955398
 30
0.0
 70
     0
  0
VERTEX
  8
1
 10
-10.6427211105824
 20
1.5408010199666
 30
0.0
 70
     0
  0
VERTEX
  8
1
 10
-10.5783188521862
 20
1.5003250695765
 30
0.0
 70
     0
  0
VERTEX
  8
1
 10
-10.5157719492912
 20
1.46252220124006
 30
0.0
 70
     0
  0
VERTEX
  8
1
 10
-10.4551560997963
 20
1.42731435149908
 30
0.0
 70
     0
  0
VERTEX
  8
1
 10
-10.3965401887894
 20
1.39462288916111
 30
0.0
 70
     0
  0
VERTEX
  8
1
 10
-10.3399923443794
 20
1.3643663443625
 30
0.0
 70
     0
  0
VERTEX
  8
1
 10
-10.2855784237385
 20
1.33646230101585
 30
0.0
 70
     0
  0
VERTEX
  8
1
 10
-10.2333657979965
 20
1.31082673445344
 30
0.0
 70
     0
  0
VERTEX
  8
1
 10
-10.1834127545357
 20
1.28737363293767
 30
0.0
 70
     0
  0
VERTEX
  8
1
 10
-10.135779851675
 20
1.26601622775197
 30
0.0
 70
     0
  0
VERTEX
  8
1
 10
-10.0688053786755
 20
1.23771533817053
 30
0.0
 70
     0
  0
VERTEX
  8
1
 10
-10.0073621511459
 20
1.21362571194768
 30
0.0
 70
     0
  0
VERTEX
  8
1
 10
-9.95161973237991
 20
1.19343670383096
 30
0.0
 70
     0
  0
VERTEX
  8
1
 10
-9.88643702864647
 20
1.17203757017851
 30
0.0
 70
     0
  0
VERTEX
  8
1
 10
-9.83200872540474
 20
1.15624452829361
 30
0.0
 70
     0
  0
VERTEX
  8
1
 10
-9.77954402565956
 20
1.14319534599781
 30
0.0
 70
     0
  0
VERTEX
  8
1
 10
-9.7267916738987
 20
1.13327911049128
 30
0.0
 70
     0
  0
VERTEX
  8
1
 10
-9.63221396207809
 20
1.12226005122066
 30
0.0
 42
-0.000043633173769
 70
     0
  0
VERTEX
  8
1
 10
-9.68075675368309
 20
0.567401265352964
 30
0.0
 70
     0
  0
VERTEX
  8
1
 10
-9.77581211924553
 20
0.572973908111453
 30
0.0
 70
     0
  0
VERTEX
  8
1
 10
-9.82948647141457
 20
0.57236898727715
 30
0.0
 70
     0
  0
VERTEX
  8
1
 10
-9.88341819643974
 20
0.568628375604749
 30
0.0
 70
     0
  0
VERTEX
  8
1
 10
-9.93976317048073
 20
0.562526604533195
 30
0.0
 70
     0
  0
VERTEX
  8
1
 10
-10.0076717555523
 20
0.552771558240056
 30
0.0
 70
     0
  0
VERTEX
  8
1
 10
-10.0660719275475
 20
0.542568711563945
 30
0.0
 70
     0
  0
VERTEX
  8
1
 10
-10.1307656228542
 20
0.529514561593533
 30
0.0
 70
     0
  0
VERTEX
  8
1
 10
-10.2016370236874
 20
0.513273482769728
 30
0.0
 70
     0
  0
VERTEX
  8
1
 10
-10.2522546947002
 20
0.500511905178428
 30
0.0
 70
     0
  0
VERTEX
  8
1
 10
-10.3055210351944
 20
0.486089421063662
 30
0.0
 70
     0
  0
VERTEX
  8
1
 10
-10.3613928973675
 20
0.469909988716245
 30
0.0
 70
     0
  0
VERTEX
  8
1
 10
-10.4198248624802
 20
0.451878607273102
 30
0.0
 70
     0
  0
VERTEX
  8
1
 10
-10.4807677268982
 20
0.431901174783707
 30
0.0
 70
     0
  0
VERTEX
  8
1
 10
-10.5441700160503
 20
0.40988481938839
 30
0.0
 70
     0
  0
VERTEX
  8
1
 10
-10.6099802553654
 20
0.385737993940711
 30
0.0
 70
     0
  0
VERTEX
  8
1
 10
-10.6781401574612
 20
0.359370239451528
 30
0.0
 70
     0
  0
VERTEX
  8
1
 10
-10.7485921919346
 20
0.330692421644926
 30
0.0
 70
     0
  0
VERTEX
  8
1
 10
-10.8212765574455
 20
0.299616991169751
 30
0.0
 70
     0
  0
VERTEX
  8
1
 10
-10.89612891078
 20
0.266057557798922
 30
0.0
 70
     0
  0
VERTEX
  8
1
 10
-10.9978449344635
 20
0.217908324301243
 30
0.0
 70
     0
  0
VERTEX
  8
1
 10
-10.9978441774845
 20
-0.217907827533782
 30
0.0
 70
     0
  0
VERTEX
  8
1
 10
-10.89612891078
 20
-0.266057226620615
 30
0.0
 70
     0
  0
VERTEX
  8
1
 10
-10.8212758004665
 20
-0.29961663633585
 30
0.0
 70
     0
  0
VERTEX
  8
1
 10
-10.7485921919346
 20
-0.330692161433399
 30
0.0
 70
     0
  0
VERTEX
  8
1
 10
-10.6781394004822
 20
-0.35936990827322
 30
0.0
 70
     0
  0
VERTEX
  8
1
 10
-10.6099794983864
 20
-0.38573763910681
 30
0.0
 70
     0
  0
VERTEX
  8
1
 10
-10.5441692590713
 20
-0.409884535521269
 30
0.0
 70
     0
  0
VERTEX
  8
1
 10
-10.4807669699192
 20
-0.431900890916586
 30
0.0
 70
     0
  0
VERTEX
  8
1
 10
-10.4198241055012
 20
-0.451878323405981
 30
0.0
 70
     0
  0
VERTEX
  8
1
 10
-10.3613921403885
 20
-0.469909704849124
 30
0.0
 70
     0
  0
VERTEX
  8
1
 10
-10.3055202782154
 20
-0.486089089885354
 30
0.0
 70
     0
  0
VERTEX
  8
1
 10
-10.2522539377213
 20
-0.500511621311307
 30
0.0
 70
     0
  0
VERTEX
  8
1
 10
-10.2016362667084
 20
-0.513273198902607
 30
0.0
 70
     0
  0
VERTEX
  8
1
 10
-10.1307648658752
 20
-0.529514230415225
 30
0.0
 70
     0
  0
VERTEX
  8
1
 10
-10.0660719275475
 20
-0.542568427696824
 30
0.0
 70
     0
  0
VERTEX
  8
1
 10
-10.0076709985733
 20
-0.552771274372935
 30
0.0
 70
     0
  0
VERTEX
  8
1
 10
-9.93976241350174
 20
-0.562526320666075
 30
0.0
 70
     0
  0
VERTEX
  8
1
 10
-9.88341819643974
 20
-0.568628091737628
 30
0.0
 70
     0
  0
VERTEX
  8
1
 10
-9.82948495745659
 20
-0.572368608787656
 30
0.0
 70
     0
  0
VERTEX
  8
1
 10
-9.77581136226654
 20
-0.572973671555519
 30
0.0
 70
     0
  0
VERTEX
  8
1
 10
-9.68075751066208
 20
-0.567402400821447
 30
0.0
 42
-0.000043633175754
 70
     0
  0
VERTEX
  8
1
 10
-9.63221320509911
 20
-1.12226109206676
 30
0.0
 70
     0
  0
VERTEX
  8
1
 10
-9.7267916738987
 20
-1.13328232765198
 30
0.0
 70
     0
  0
VERTEX
  8
1
 10
-9.77954553961754
 20
-1.14319837391377
 30
0.0
 70
     0
  0
VERTEX
  8
1
 10
-9.83200872540474
 20
-1.15624727234244
 30
0.0
 70
     0
  0
VERTEX
  8
1
 10
-9.88643778562546
 20
-1.17204078733921
 30
0.0
 70
     0
  0
VERTEX
  8
1
 10
-9.9516204893589
 20
-1.19343963712454
 30
0.0
 70
     0
  0
VERTEX
  8
1
 10
-10.0073621511459
 20
-1.21362873986363
 30
0.0
 70
     0
  0
VERTEX
  8
1
 10
-10.0688061356544
 20
-1.23771846070886
 30
0.0
 70
     0
  0
VERTEX
  8
1
 10
-10.135781365633
 20
-1.2660193502903
 30
0.0
 70
     0
  0
VERTEX
  8
1
 10
-10.1834135115147
 20
-1.287376755476
 30
0.0
 70
     0
  0
VERTEX
  8
1
 10
-10.2333665549755
 20
-1.31082985699177
 30
0.0
 70
     0
  0
VERTEX
  8
1
 10
-10.2855791807175
 20
-1.33646551817656
 30
0.0
 70
     0
  0
VERTEX
  8
1
 10
-10.3399931013584
 20
-1.36436946690083
 30
0.0
 70
     0
  0
VERTEX
  8
1
 10
-10.3965409457684
 20
-1.39462601169944
 30
0.0
 70
     0
  0
VERTEX
  8
1
 10
-10.4551568567753
 20
-1.42731756865978
 30
0.0
 70
     0
  0
VERTEX
  8
1
 10
-10.5157734632492
 20
-1.46252532377839
 30
0.0
 70
     0
  0
VERTEX
  8
1
 10
-10.5783196091652
 20
-1.50032838135958
 30
0.0
 70
     0
  0
VERTEX
  8
1
 10
-10.6427211105824
 20
-1.5408042371273
 30
0.0
 70
     0
  0
VERTEX
  8
1
 10
-10.7089052975178
 20
-1.58402925133705
 30
0.0
 70
     0
  0
VERTEX
  8
1
 10
-10.7767926871777
 20
-1.63007685095072
 30
0.0
 70
     0
  0
VERTEX
  8
1
 10
-10.8686021268368
 20
-1.69515736252069
 30
0.0
 70
     0
  0
VERTEX
  8
1
 10
-10.7929223954678
 20
-2.12435233741999
 30
0.0
 70
     0
  0
VERTEX
  8
1
 10
-10.6843920469284
 20
-2.15410747826099
 30
0.0
 70
     0
  0
VERTEX
  8
1
 10
-10.6048479378223
 20
-2.17415909469128
 30
0.0
 70
     0
  0
VERTEX
  8
1
 10
-10.5278730154037
 20
-2.19214094132185
 30
0.0
 70
     0
  0
VERTEX
  8
1
 10
-10.453510427475
 20
-2.20814915448427
 30
0.0
 70
     0
  0
VERTEX
  8
1
 10
-10.3818071067333
 20
-2.2222802489996
 30
0.0
 70
     0
  0
VERTEX
  8
1
 10
-10.3128039300442
 20
-2.23463282138109
 30
0.0
 70
     0
  0
VERTEX
  8
1
 10
-10.2465425312519
 20
-2.24530508965254
 30
0.0
 70
     0
  0
VERTEX
  8
1
 10
-10.183056217432
 20
-2.25439621806145
 30
0.0
 70
     0
  0
VERTEX
  8
1
 10
-10.122380566597
 20
-2.26200707405806
 30
0.0
 70
     0
  0
VERTEX
  8
1
 10
-10.0645481288433
 20
-2.26823871433735
 30
0.0
 70
     0
  0
VERTEX
  8
1
 10
-10.0095869123936
 20
-2.27319238483906
 30
0.0
 70
     0
  0
VERTEX
  8
1
 10
-9.9575218975544
 20
-2.2769704669714
 30
0.0
 70
     0
  0
VERTEX
  8
1
 10
-9.88490717411041
 20
-2.28065809011459
 30
0.0
 70
     0
  0
VERTEX
  8
1
 10
-9.81892964243889
 20
-2.28228029608727
 30
0.0
 70
     0
  0
VERTEX
  8
1
 10
-9.759644562006
 20
-2.28218680918217
 30
0.0
 70
     0
  0
VERTEX
  8
1
 10
-9.69107362031937
 20
-2.28000141084194
 30
0.0
 70
     0
  0
VERTEX
  8
1
 10
-9.63452577590942
 20
-2.27622635662556
 30
0.0
 70
     0
  0
VERTEX
  8
1
 10
-9.58076210021973
 20
-2.27054485082626
 30
0.0
 70
     0
  0
VERTEX
  8
1
 10
-9.52779930830002
 20
-2.26182028949261
 30
0.0
 70
     0
  0
VERTEX
  8
1
 10
-9.4351564347744
 20
-2.23982777893543
 30
0.0
 42
-0.000043633175332
 70
     0
  0
VERTEX
  8
1
 10
-9.29099887013435
 20
-2.77782712876797
 30
0.0
 70
     0
  0
VERTEX
  8
1
 10
-9.38222770690918
 20
-2.80510278493166
 30
0.0
 70
     0
  0
VERTEX
  8
1
 10
-9.43245856165886
 20
-2.82402896285057
 30
0.0
 70
     0
  0
VERTEX
  8
1
 10
-9.481858253479
 20
-2.84598968029022
 30
0.0
 70
     0
  0
VERTEX
  8
1
 10
-9.53271815776825
 20
-2.87099477797747
 30
0.0
 70
     0
  0
VERTEX
  8
1
 10
-9.59319548010826
 20
-2.90338742285967
 30
0.0
 70
     0
  0
VERTEX
  8
1
 10
-9.64458451271057
 20
-2.93294915556908
 30
0.0
 70
     0
  0
VERTEX
  8
1
 10
-9.70091131925583
 20
-2.96734249591827
 30
0.0
 70
     0
  0
VERTEX
  8
1
 10
-9.76195334792137
 20
-3.00684374123812
 30
0.0
 70
     0
  0
VERTEX
  8
1
 10
-9.80515413880348
 20
-3.03614772260189
 30
0.0
 70
     0
  0
VERTEX
  8
1
 10
-9.85027538537979
 20
-3.06791869848967
 30
0.0
 70
     0
  0
VERTEX
  8
1
 10
-9.89724441766739
 20
-3.10223160982132
 30
0.0
 70
     0
  0
VERTEX
  8
1
 10
-9.94598553776741
 20
-3.13916045129299
 30
0.0
 70
     0
  0
VERTEX
  8
1
 10
-9.99642001986503
 20
-3.17877694666386
 30
0.0
 70
     0
  0
VERTEX
  8
1
 10
-10.0484691381454
 20
-3.22115035951138
 30
0.0
 70
     0
  0
VERTEX
  8
1
 10
-10.1020511388779
 20
-3.26634919643402
 30
0.0
 70
     0
  0
VERTEX
  8
1
 10
-10.1570812404156
 20
-3.31443893611431
 30
0.0
 70
     0
  0
VERTEX
  8
1
 10
-10.2134769320488
 20
-3.36548316478729
 30
0.0
 70
     0
  0
VERTEX
  8
1
 10
-10.2711488902569
 20
-3.41954395473003
 30
0.0
 70
     0
  0
VERTEX
  8
1
 10
-10.3300093054771
 20
-3.47668072879314
 30
0.0
 70
     0
  0
VERTEX
  8
1
 10
-10.4091234505177
 20
-3.55671498179436
 30
0.0
 70
     0
  0
VERTEX
  8
1
 10
-10.2600644469261
 20
-3.96624780595303
 30
0.0
 70
     0
  0
VERTEX
  8
1
 10
-10.1480156600475
 20
-3.9767050921917
 30
0.0
 70
     0
  0
VERTEX
  8
1
 10
-10.0661983430386
 20
-3.9826390504837
 30
0.0
 70
     0
  0
VERTEX
  8
1
 10
-9.98726965785026
 20
-3.98698146045208
 30
0.0
 70
     0
  0
VERTEX
  8
1
 10
-9.91125761270523
 20
-3.98983337879181
 30
0.0
 70
     0
  0
VERTEX
  8
1
 10
-9.83818945884705
 20
-3.99129889011383
 30
0.0
 70
     0
  0
VERTEX
  8
1
 10
-9.76809017658234
 20
-3.99148132205009
 30
0.0
 70
     0
  0
VERTEX
  8
1
 10
-9.70098171830177
 20
-3.99048513770103
 30
0.0
 70
     0
  0
VERTEX
  8
1
 10
-9.63688073754311
 20
-3.9884140431881
 30
0.0
 70
     0
  0
VERTEX
  8
1
 10
-9.57580540180206
 20
-3.9853732585907
 30
0.0
 70
     0
  0
VERTEX
  8
1
 10
-9.51776933670044
 20
-3.98146724700928
 30
0.0
 70
     0
  0
VERTEX
  8
1
 10
-9.46278313994408
 20
-3.97680198550224
 30
0.0
 70
     0
  0
VERTEX
  8
1
 10
-9.41085362434387
 20
-3.97148193717003
 30
0.0
 70
     0
  0
VERTEX
  8
1
 10
-9.33870141506195
 20
-3.96250416636467
 30
0.0
 70
     0
  0
VERTEX
  8
1
 10
-9.27344528436661
 20
-3.95264451503754
 30
0.0
 70
     0
  0
VERTEX
  8
1
 10
-9.21507614850998
 20
-3.94225762784481
 30
0.0
 70
     0
  0
VERTEX
  8
1
 10
-9.14792605638504
 20
-3.92819825708866
 30
0.0
 70
     0
  0
VERTEX
  8
1
 10
-9.09289292693138
 20
-3.91466158032417
 30
0.0
 70
     0
  0
VERTEX
  8
1
 10
-9.04093313217163
 20
-3.8997301697731
 30
0.0
 70
     0
  0
VERTEX
  8
1
 10
-8.99028972387314
 20
-3.88194154202938
 30
0.0
 70
     0
  0
VERTEX
  8
1
 10
-8.90287379026413
 20
-3.84419592022896
 30
0.0
 42
-0.000043633188272
 70
     0
  0
VERTEX
  8
1
 10
-8.66748360395431
 20
-4.34898925125599
 30
0.0
 70
     0
  0
VERTEX
  8
1
 10
-8.75258999466896
 20
-4.39169194996357
 30
0.0
 70
     0
  0
VERTEX
  8
1
 10
-8.79877025485039
 20
-4.41905295550823
 30
0.0
 70
     0
  0
VERTEX
  8
1
 10
-8.84360687732696
 20
-4.44925830960274
 30
0.0
 70
     0
  0
VERTEX
  8
1
 10
-8.88935187458992
 20
-4.48271526694298
 30
0.0
 70
     0
  0
VERTEX
  8
1
 10
-8.94328511357307
 20
-4.52511782348156
 30
0.0
 70
     0
  0
VERTEX
  8
1
 10
-8.98875986933708
 20
-4.56315374672413
 30
0.0
 70
     0
  0
VERTEX
  8
1
 10
-9.03825872540474
 20
-4.60680569708347
 30
0.0
 70
     0
  0
VERTEX
  8
1
 10
-9.09151522517204
 20
-4.6563064455986
 30
0.0
 70
     0
  0
VERTEX
  8
1
 10
-9.12896978855133
 20
-4.69266717433929
 30
0.0
 70
     0
  0
VERTEX
  8
1
 10
-9.16788910627365
 20
-4.73179087638855
 30
0.0
 70
     0
  0
VERTEX
  8
1
 10
-9.20818612575531
 20
-4.77373848855495
 30
0.0
 70
     0
  0
VERTEX
  8
1
 10
-9.24977379441261
 20
-4.81857019066811
 30
0.0
 70
     0
  0
VERTEX
  8
1
 10
-9.2925627887249
 20
-4.86634237766266
 30
0.0
 70
     0
  0
VERTEX
  8
1
 10
-9.33646302819252
 20
-4.91711030900478
 30
0.0
 70
     0
  0
VERTEX
  8
1
 10
-9.38138216137886
 20
-4.97092697322369
 30
0.0
 70
     0
  0
VERTEX
  8
1
 10
-9.42722632288933
 20
-5.02784195244312
 30
0.0
 70
     0
  0
VERTEX
  8
1
 10
-9.47390089035034
 20
-5.08790369331837
 30
0.0
 70
     0
  0
VERTEX
  8
1
 10
-9.52130972743034
 20
-5.15115799307823
 30
0.0
 70
     0
  0
VERTEX
  8
1
 10
-9.56935366988182
 20
-5.21764762103558
 30
0.0
 70
     0
  0
VERTEX
  8
1
 10
-9.63336835503578
 20
-5.310203820467
 30
0.0
 70
     0
  0
VERTEX
  8
1
 10
-9.4154590845108
 20
-5.68763127326965
 30
0.0
 70
     0
  0
VERTEX
  8
1
 10
-9.30329599380493
 20
-5.67847258448601
 30
0.0
 70
     0
  0
VERTEX
  8
1
 10
-9.22169138789177
 20
-5.67010910212994
 30
0.0
 70
     0
  0
VERTEX
  8
1
 10
-9.1432078063488
 20
-5.66067941486835
 30
0.0
 70
     0
  0
VERTEX
  8
1
 10
-9.06785508990288
 20
-5.65028874278068
 30
0.0
 70
     0
  0
VERTEX
  8
1
 10
-8.99564307928085
 20
-5.63904381990433
 30
0.0
 70
     0
  0
VERTEX
  8
1
 10
-8.92657707333565
 20
-5.62705100178719
 30
0.0
 70
     0
  0
VERTEX
  8
1
 10
-8.8606608569622
 20
-5.61441664397717
 30
0.0
 70
     0
  0
VERTEX
  8
1
 10
-8.79789367318153
 20
-5.60124634504318
 30
0.0
 70
     0
  0
VERTEX
  8
1
 10
-8.73827476501465
 20
-5.58764570355415
 30
0.0
 70
     0
  0
VERTEX
  8
1
 10
-8.68179807662964
 20
-5.57372183203697
 30
0.0
 70
     0
  0
VERTEX
  8
1
 10
-8.6284575521946
 20
-5.55957881510258
 30
0.0
 70
     0
  0
VERTEX
  8
1
 10
-8.57824032306671
 20
-5.54532187283039
 30
0.0
 70
     0
  0
VERTEX
  8
1
 10
-8.50874283909798
 20
-5.52395122051239
 30
0.0
 70
     0
  0
VERTEX
  8
1
 10
-8.44619063735008
 20
-5.50290985405445
 30
0.0
 70
     0
  0
VERTEX
  8
1
 10
-8.39051180481911
 20
-5.48254560530186
 30
0.0
 70
     0
  0
VERTEX
  8
1
 10
-8.32682413458824
 20
-5.45703919827938
 30
0.0
 70
     0
  0
VERTEX
  8
1
 10
-8.27497788667679
 20
-5.43415156006813
 30
0.0
 70
     0
  0
VERTEX
  8
1
 10
-8.22640027403831
 20
-5.41042443215847
 30
0.0
 70
     0
  0
VERTEX
  8
1
 10
-8.17961443066597
 20
-5.38411146402359
 30
0.0
 70
     0
  0
VERTEX
  8
1
 10
-8.10008091926575
 20
-5.33175955414772
 30
0.0
 42
-0.000043633207385
 70
     0
  0
VERTEX
  8
1
 10
-7.78061080574989
 20
-5.78800933659077
 30
0.0
 70
     0
  0
VERTEX
  8
1
 10
-7.85700815320015
 20
-5.84484218358994
 30
0.0
 70
     0
  0
VERTEX
  8
1
 10
-7.89773589372635
 20
-5.87980666458607
 30
0.0
 70
     0
  0
VERTEX
  8
1
 10
-7.93664612770081
 20
-5.91733881831169
 30
0.0
 70
     0
  0
VERTEX
  8
1
 10
-7.9758871614933
 20
-5.95823082327843
 30
0.0
 70
     0
  0
VERTEX
  8
1
 10
-8.02163745760918
 20
-6.00935453474522
 30
0.0
 70
     0
  0
VERTEX
  8
1
 10
-8.05981569290161
 20
-6.05470893085003
 30
0.0
 70
     0
  0
VERTEX
  8
1
 10
-8.1009839951992
 20
-6.1062936425209
 30
0.0
 70
     0
  0
VERTEX
  8
1
 10
-8.14483427405357
 20
-6.16429034471512
 30
0.0
 70
     0
  0
VERTEX
  8
1
 10
-8.17540714144707
 20
-6.20660244226456
 30
0.0
 70
     0
  0
VERTEX
  8
1
 10
-8.20694061517715
 20
-6.25188984572887
 30
0.0
 70
     0
  0
VERTEX
  8
1
 10
-8.23934082984924
 20
-6.3001972168684
 30
0.0
 70
     0
  0
VERTEX
  8
1
 10
-8.27251240611076
 20
-6.35156997442245
 30
0.0
 70
     0
  0
VERTEX
  8
1
 10
-8.30635542273521
 20
-6.40604672431946
 30
0.0
 70
     0
  0
VERTEX
  8
1
 10
-8.34077298641205
 20
-6.46366645097732
 30
0.0
 70
     0
  0
VERTEX
  8
1
 10
-8.37566517591476
 20
-6.52446548938751
 30
0.0
 70
     0
  0
VERTEX
  8
1
 10
-8.4109297990799
 20
-6.58847638964653
 30
0.0
 70
     0
  0
VERTEX
  8
1
 10
-8.44646542072296
 20
-6.6557309448719
 30
0.0
 70
     0
  0
VERTEX
  8
1
 10
-8.48216909170151
 20
-6.72625640630722
 30
0.0
 70
     0
  0
VERTEX
  8
1
 10
-8.51793786287308
 20
-6.80007926821709
 30
0.0
 70
     0
  0
VERTEX
  8
1
 10
-8.56490689516068
 20
-6.90234561562538
 30
0.0
 70
     0
  0
VERTEX
  8
1
 10
-8.28476940989494
 20
-7.23619908690453
 30
0.0
 70
     0
  0
VERTEX
  8
1
 10
-8.17590069174767
 20
-7.20770261287689
 30
0.0
 70
     0
  0
VERTEX
  8
1
 10
-8.09698866009712
 20
-7.18529603481293
 30
0.0
 70
     0
  0
VERTEX
  8
1
 10
-8.02133466601372
 20
-7.16238076686859
 30
0.0
 70
     0
  0
VERTEX
  8
1
 10
-7.94893113970756
 20
-7.13906354308128
 30
0.0
 70
     0
  0
VERTEX
  8
1
 10
-7.8797689974308
 20
-7.11545034050941
 30
0.0
 70
     0
  0
VERTEX
  8
1
 10
-7.81383385658264
 20
-7.09164637923241
 30
0.0
 70
     0
  0
VERTEX
  8
1
 10
-7.75111360549927
 20
-7.06775763630867
 30
0.0
 70
     0
  0
VERTEX
  8
1
 10
-7.691587048769
 20
-7.04388706088066
 30
0.0
 70
     0
  0
VERTEX
  8
1
 10
-7.63523526191711
 20
-7.02014138698578
 30
0.0
 70
     0
  0
VERTEX
  8
1
 10
-7.58203477859497
 20
-6.99662129282951
 30
0.0
 70
     0
  0
VERTEX
  8
1
 10
-7.53195986151695
 20
-6.97343048453331
 30
0.0
 70
     0
  0
VERTEX
  8
1
 10
-7.48498174548149
 20
-6.95067039728165
 30
0.0
 70
     0
  0
VERTEX
  8
1
 10
-7.42025171518326
 20
-6.91755635142326
 30
0.0
 70
     0
  0
VERTEX
  8
1
 10
-7.36230270266533
 20
-6.88597291707993
 30
0.0
 70
     0
  0
VERTEX
  8
1
 10
-7.31100677847862
 20
-6.85624938011169
 30
0.0
 70
     0
  0
VERTEX
  8
1
 10
-7.25271561145782
 20
-6.82007184028625
 30
0.0
 70
     0
  0
VERTEX
  8
1
 10
-7.20563076138496
 20
-6.78852776885033
 30
0.0
 70
     0
  0
VERTEX
  8
1
 10
-7.16191143989563
 20
-6.75672556757927
 30
0.0
 70
     0
  0
VERTEX
  8
1
 10
-7.1204055249691
 20
-6.72268876433373
 30
0.0
 70
     0
  0
VERTEX
  8
1
 10
-7.05117146968842
 20
-6.65732135772705
 30
0.0
 42
-0.000043633218641
 70
     0
  0
VERTEX
  8
1
 10
-6.65732741355896
 20
-7.05116389989853
 30
0.0
 70
     0
  0
VERTEX
  8
1
 10
-6.72269633412361
 20
-7.12039946913719
 30
0.0
 70
     0
  0
VERTEX
  8
1
 10
-6.75673389434814
 20
-7.16190538406372
 30
0.0
 70
     0
  0
VERTEX
  8
1
 10
-6.78853533864021
 20
-7.20562394857407
 30
0.0
 70
     0
  0
VERTEX
  8
1
 10
-6.82007865309715
 20
-7.25270879864693
 30
0.0
 70
     0
  0
VERTEX
  8
1
 10
-6.85625770688057
 20
-7.31099996566772
 30
0.0
 70
     0
  0
VERTEX
  8
1
 10
-6.88598048686981
 20
-7.36229588985443
 30
0.0
 70
     0
  0
VERTEX
  8
1
 10
-6.91756467819214
 20
-7.42024490237236
 30
0.0
 70
     0
  0
VERTEX
  8
1
 10
-6.95067796707153
 20
-7.48497493267059
 30
0.0
 70
     0
  0
VERTEX
  8
1
 10
-6.97343881130218
 20
-7.53195304870605
 30
0.0
 70
     0
  0
VERTEX
  8
1
 10
-6.99662961959839
 20
-7.58202796578407
 30
0.0
 70
     0
  0
VERTEX
  8
1
 10
-7.02014895677566
 20
-7.63522844910622
 30
0.0
 70
     0
  0
VERTEX
  8
1
 10
-7.04389538764954
 20
-7.6915802359581
 30
0.0
 70
     0
  0
VERTEX
  8
1
 10
-7.06776520609856
 20
-7.75110603570938
 30
0.0
 70
     0
  0
VERTEX
  8
1
 10
-7.09165394902229
 20
-7.81382704377174
 30
0.0
 70
     0
  0
VERTEX
  8
1
 10
-7.1154579102993
 20
-7.8797621846199
 30
0.0
 70
     0
  0
VERTEX
  8
1
 10
-7.13907111287117
 20
-7.94892432689667
 30
0.0
 70
     0
  0
VERTEX
  8
1
 10
-7.16238909363747
 20
-8.02132633924484
 30
0.0
 70
     0
  0
VERTEX
  8
1
 10
-7.1853043615818
 20
-8.09698109030724
 30
0.0
 70
     0
  0
VERTEX
  8
1
 10
-7.20771018266678
 20
-8.17589312195778
 30
0.0
 70
     0
  0
VERTEX
  8
1
 10
-7.2362074136734
 20
-8.28476184010506
 30
0.0
 70
     0
  0
VERTEX
  8
1
 10
-6.90235242843628
 20
-8.5648985683918
 30
0.0
 70
     0
  0
VERTEX
  8
1
 10
-6.80008608102798
 20
-8.51793029308319
 30
0.0
 70
     0
  0
VERTEX
  8
1
 10
-6.72626321911812
 20
-8.48216076493263
 30
0.0
 70
     0
  0
VERTEX
  8
1
 10
-6.65573851466179
 20
-8.4464563369751
 30
0.0
 70
     0
  0
VERTEX
  8
1
 10
-6.58848320245743
 20
-8.41092071533203
 30
0.0
 70
     0
  0
VERTEX
  8
1
 10
-6.52447230219841
 20
-8.3756560921669
 30
0.0
 70
     0
  0
VERTEX
  8
1
 10
-6.46367326378822
 20
-8.34076390266418
 30
0.0
 70
     0
  0
VERTEX
  8
1
 10
-6.40605353713036
 20
-8.30634785294533
 30
0.0
 70
     0
  0
VERTEX
  8
1
 10
-6.35157603025436
 20
-8.2725033223629
 30
0.0
 70
     0
  0
VERTEX
  8
1
 10
-6.3002040296793
 20
-8.23933250308037
 30
0.0
 70
     0
  0
VERTEX
  8
1
 10
-6.25189590156078
 20
-8.20693153142929
 30
0.0
 70
     0
  0
VERTEX
  8
1
 10
-6.20660849809647
 20
-8.1753980576992
 30
0.0
 70
     0
  0
VERTEX
  8
1
 10
-6.16429602205753
 20
-8.1448259472847
 30
0.0
 70
     0
  0
VERTEX
  8
1
 10
-6.10629969835281
 20
-8.10097491145134
 30
0.0
 70
     0
  0
VERTEX
  8
1
 10
-6.05471574366093
 20
-8.05980888009071
 30
0.0
 70
     0
  0
VERTEX
  8
1
 10
-6.00936059057713
 20
-8.02162837386131
 30
0.0
 70
     0
  0
VERTEX
  8
1
 10
-5.95823650062084
 20
-7.97587807774544
 30
0.0
 70
     0
  0
VERTEX
  8
1
 10
-5.91734563112259
 20
-7.93663855791092
 30
0.0
 70
     0
  0
VERTEX
  8
1
 10
-5.87981196343899
 20
-7.89772756695747
 30
0.0
 70
     0
  0
VERTEX
  8
1
 10
-5.84484748244286
 20
-7.85699982643127
 30
0.0
 70
     0
  0
VERTEX
  8
1
 10
-5.78801614940166
 20
-7.78060323596001
 30
0.0
 42
-0.000043633232111
 70
     0
  0
VERTEX
  8
1
 10
-5.33176560997963
 20
-8.10007259249687
 30
0.0
 70
     0
  0
VERTEX
  8
1
 10
-5.38411865532398
 20
-8.17960761785507
 30
0.0
 70
     0
  0
VERTEX
  8
1
 10
-5.41043200194836
 20
-8.22639270424843
 30
0.0
 70
     0
  0
VERTEX
  8
1
 10
-5.43415837287903
 20
-8.27496955990791
 30
0.0
 70
     0
  0
VERTEX
  8
1
 10
-5.45704638957977
 20
-8.32681656479835
 30
0.0
 70
     0
  0
VERTEX
  8
1
 10
-5.48255279660225
 20
-8.39050499200821
 30
0.0
 70
     0
  0
VERTEX
  8
1
 10
-5.50291666686535
 20
-8.44618231058121
 30
0.0
 70
     0
  0
VERTEX
  8
1
 10
-5.52395841181278
 20
-8.50873526930809
 30
0.0
 70
     0
  0
VERTEX
  8
1
 10
-5.54532906413078
 20
-8.57823275327682
 30
0.0
 70
     0
  0
VERTEX
  8
1
 10
-5.55958600640297
 20
-8.62844922542572
 30
0.0
 70
     0
  0
VERTEX
  8
1
 10
-5.57372902333736
 20
-8.68179126381874
 30
0.0
 70
     0
  0
VERTEX
  8
1
 10
-5.58765289485455
 20
-8.73826643824577
 30
0.0
 70
     0
  0
VERTEX
  8
1
 10
-5.60125315785408
 20
-8.79788534641266
 30
0.0
 70
     0
  0
VERTEX
  8
1
 10
-5.61442383527756
 20
-8.86065253019333
 30
0.0
 70
     0
  0
VERTEX
  8
1
 10
-5.62705819308758
 20
-8.92656874656677
 30
0.0
 70
     0
  0
VERTEX
  8
1
 10
-5.63905138969421
 20
-8.99563550949097
 30
0.0
 70
     0
  0
VERTEX
  8
1
 10
-5.65029631257057
 20
-9.067846763134
 30
0.0
 70
     0
  0
VERTEX
  8
1
 10
-5.66068660616875
 20
-9.14319872260094
 30
0.0
 70
     0
  0
VERTEX
  8
1
 10
-5.67011667191982
 20
-9.22168306112289
 30
0.0
 70
     0
  0
VERTEX
  8
1
 10
-5.67847939729691
 20
-9.30328691005707
 30
0.0
 70
     0
  0
VERTEX
  8
1
 10
-5.68763884305954
 20
-9.41545075774193
 30
0.0
 70
     0
  0
VERTEX
  8
1
 10
-5.3102102547884
 20
-9.63335775732994
 30
0.0
 70
     0
  0
VERTEX
  8
1
 10
-5.21765405535698
 20
-9.56934458613396
 30
0.0
 70
     0
  0
VERTEX
  8
1
 10
-5.15116404891014
 20
-9.5212991297245
 30
0.0
 70
     0
  0
VERTEX
  8
1
 10
-5.08791012763977
 20
-9.47389104962349
 30
0.0
 70
     0
  0
VERTEX
  8
1
 10
-5.02784800827503
 20
-9.42721648216247
 30
0.0
 70
     0
  0
VERTEX
  8
1
 10
-4.97093302905559
 20
-9.38137232065201
 30
0.0
 70
     0
  0
VERTEX
  8
1
 10
-4.9171159863472
 20
-9.33645318746567
 30
0.0
 70
     0
  0
VERTEX
  8
1
 10
-4.86634805500507
 20
-9.29255370497703
 30
0.0
 70
     0
  0
VERTEX
  8
1
 10
-4.81857548952103
 20
-9.24976395368576
 30
0.0
 70
     0
  0
VERTEX
  8
1
 10
-4.77374416589737
 20
-9.20817552804947
 30
0.0
 70
     0
  0
VERTEX
  8
1
 10
-4.73179617524147
 20
-9.1678792655468
 30
0.0
 70
     0
  0
VERTEX
  8
1
 10
-4.69267285168171
 20
-9.12896070480347
 30
0.0
 70
     0
  0
VERTEX
  8
1
 10
-4.65631212294102
 20
-9.09150538444519
 30
0.0
 70
     0
  0
VERTEX
  8
1
 10
-4.60681137442589
 20
-9.03824888467789
 30
0.0
 70
     0
  0
VERTEX
  8
1
 10
-4.56315942406654
 20
-8.98875078558922
 30
0.0
 70
     0
  0
VERTEX
  8
1
 10
-4.52512312233448
 20
-8.94327527284622
 30
0.0
 70
     0
  0
VERTEX
  8
1
 10
-4.4827205657959
 20
-8.88934279084206
 30
0.0
 70
     0
  0
VERTEX
  8
1
 10
-4.44926436543465
 20
-8.8435977935791
 30
0.0
 70
     0
  0
VERTEX
  8
1
 10
-4.41905825436115
 20
-8.79876117110252
 30
0.0
 70
     0
  0
VERTEX
  8
1
 10
-4.39169762730598
 20
-8.75258015394211
 30
0.0
 70
     0
  0
VERTEX
  8
1
 10
-4.3489953070879
 20
-8.66747527718544
 30
0.0
 42
-0.000043633239451
 70
     0
  0
VERTEX
  8
1
 10
-3.84420121908188
 20
-8.90286470651627
 30
0.0
 70
     0
  0
VERTEX
  8
1
 10
-3.8819472193718
 20
-8.99028215408325
 30
0.0
 70
     0
  0
VERTEX
  8
1
 10
-3.89973622560501
 20
-9.04092631936073
 30
0.0
 70
     0
  0
VERTEX
  8
1
 10
-3.91466687917709
 20
-9.09288460016251
 30
0.0
 70
     0
  0
VERTEX
  8
1
 10
-3.92820431292057
 20
-9.14791848659515
 30
0.0
 70
     0
  0
VERTEX
  8
1
 10
-3.94226368367672
 20
-9.21506857872009
 30
0.0
 70
     0
  0
VERTEX
  8
1
 10
-3.95265019237995
 20
-9.27343695759773
 30
0.0
 70
     0
  0
VERTEX
  8
1
 10
-3.96250984370708
 20
-9.33869308829308
 30
0.0
 70
     0
  0
VERTEX
  8
1
 10
-3.97148799300194
 20
-9.410845297575
 30
0.0
 70
     0
  0
VERTEX
  8
1
 10
-3.97680804133415
 20
-9.46277557015419
 30
0.0
 70
     0
  0
VERTEX
  8
1
 10
-3.98147330284119
 20
-9.51776176691055
 30
0.0
 70
     0
  0
VERTEX
  8
1
 10
-3.98537893593311
 20
-9.57579858899116
 30
0.0
 70
     0
  0
VERTEX
  8
1
 10
-3.98842009902
 20
-9.63687316775322
 30
0.0
 70
     0
  0
VERTEX
  8
1
 10
-3.99049119353294
 20
-9.7009733915329
 30
0.0
 70
     0
  0
VERTEX
  8
1
 10
-3.991487377882
 20
-9.76808184981346
 30
0.0
 70
     0
  0
VERTEX
  8
1
 10
-3.99130494594574
 20
-9.83818113207817
 30
0.0
 70
     0
  0
VERTEX
  8
1
 10
-3.98983943462372
 20
-9.91124928593636
 30
0.0
 70
     0
  0
VERTEX
  8
1
 10
-3.98698713779449
 20
-9.9872605741024
 30
0.0
 70
     0
  0
VERTEX
  8
1
 10
-3.98264548480511
 20
-10.0661900162697
 30
0.0
 70
     0
  0
VERTEX
  8
1
 10
-3.97671076953411
 20
-10.1480065762997
 30
0.0
 70
     0
  0
VERTEX
  8
1
 10
-3.96625424027443
 20
-10.2600561201572
 30
0.0
 70
     0
  0
VERTEX
  8
1
 10
-3.55672028064728
 20
-10.4091128528118
 30
0.0
 70
     0
  0
VERTEX
  8
1
 10
-3.47668602764606
 20
-10.3300002217293
 30
0.0
 70
     0
  0
VERTEX
  8
1
 10
-3.41954887509346
 20
-10.27113904953
 30
0.0
 70
     0
  0
VERTEX
  8
1
 10
-3.36548846364021
 20
-10.2134678483009
 30
0.0
 70
     0
  0
VERTEX
  8
1
 10
-3.31444347798824
 20
-10.1570721566677
 30
0.0
 70
     0
  0
VERTEX
  8
1
 10
-3.26635411679745
 20
-10.102040541172
 30
0.0
 70
     0
  0
VERTEX
  8
1
 10
-3.22115490138531
 20
-10.0484592974186
 30
0.0
 70
     0
  0
VERTEX
  8
1
 10
-3.17878148853779
 20
-9.99641017913818
 30
0.0
 70
     0
  0
VERTEX
  8
1
 10
-3.13916499316692
 20
-9.94597494006157
 30
0.0
 70
     0
  0
VERTEX
  8
1
 10
-3.10223634094
 20
-9.89723457694054
 30
0.0
 70
     0
  0
VERTEX
  8
1
 10
-3.0679232403636
 20
-9.85026630163193
 30
0.0
 70
     0
  0
VERTEX
  8
1
 10
-3.03615226447582
 20
-9.80514505505562
 30
0.0
 70
     0
  0
VERTEX
  8
1
 10
-3.0068480938673
 20
-9.76194426417351
 30
0.0
 70
     0
  0
VERTEX
  8
1
 10
-2.96734684854746
 20
-9.70090223550796
 30
0.0
 70
     0
  0
VERTEX
  8
1
 10
-2.93295388668776
 20
-9.64457542896271
 30
0.0
 70
     0
  0
VERTEX
  8
1
 10
-2.9033919647336
 20
-9.59318563938141
 30
0.0
 70
     0
  0
VERTEX
  8
1
 10
-2.87099913060665
 20
-9.53270983099937
 30
0.0
 70
     0
  0
VERTEX
  8
1
 10
-2.84599422216415
 20
-9.48184992671013
 30
0.0
 70
     0
  0
VERTEX
  8
1
 10
-2.82403312623501
 20
-9.43244872093201
 30
0.0
 70
     0
  0
VERTEX
  8
1
 10
-2.80510713756084
 20
-9.38221862316132
 30
0.0
 70
     0
  0
VERTEX
  8
1
 10
-2.77783204913139
 20
-9.29099205732346
 30
0.0
 42
-0.000043633243643
 70
     0
  0
VERTEX
  8
1
 10
-2.23983175307512
 20
-9.43514810800552
 30
0.0
 70
     0
  0
VERTEX
  8
1
 10
-2.2618242636323
 20
-9.52779173851013
 30
0.0
 70
     0
  0
VERTEX
  8
1
 10
-2.2705490142107
 20
-9.58075528740883
 30
0.0
 70
     0
  0
VERTEX
  8
1
 10
-2.27623052000999
 20
-9.63451744914055
 30
0.0
 70
     0
  0
VERTEX
  8
1
 10
-2.28000576347113
 20
-9.69106605052948
 30
0.0
 70
     0
  0
VERTEX
  8
1
 10
-2.2821909725666
 20
-9.75963699221611
 30
0.0
 70
     0
  0
VERTEX
  8
1
 10
-2.28228427022696
 20
-9.81892131567001
 30
0.0
 70
     0
  0
VERTEX
  8
1
 10
-2.28066244274378
 20
-9.88489960432053
 30
0.0
 70
     0
  0
VERTEX
  8
1
 10
-2.27697481960058
 20
-9.95751357078552
 30
0.0
 70
     0
  0
VERTEX
  8
1
 10
-2.27319673746824
 20
-10.0095785856247
 30
0.0
 70
     0
  0
VERTEX
  8
1
 10
-2.26824287772179
 20
-10.0645398020744
 30
0.0
 70
     0
  0
VERTEX
  8
1
 10
-2.26201142668724
 20
-10.1223729968071
 30
0.0
 70
     0
  0
VERTEX
  8
1
 10
-2.25440057069063
 20
-10.1830478906631
 30
0.0
 70
     0
  0
VERTEX
  8
1
 10
-2.24530925303698
 20
-10.246534204483
 30
0.0
 70
     0
  0
VERTEX
  8
1
 10
-2.23463717401028
 20
-10.3127963602543
 30
0.0
 70
     0
  0
VERTEX
  8
1
 10
-2.22228479087353
 20
-10.3817995369434
 30
0.0
 70
     0
  0
VERTEX
  8
1
 10
-2.20815331786871
 20
-10.4535021007061
 30
0.0
 70
     0
  0
VERTEX
  8
1
 10
-2.19214510470629
 20
-10.5278639316559
 30
0.0
 70
     0
  0
VERTEX
  8
1
 10
-2.17416325807571
 20
-10.6048396110535
 30
0.0
 70
     0
  0
VERTEX
  8
1
 10
-2.15411183089018
 20
-10.6843829631805
 30
0.0
 70
     0
  0
VERTEX
  8
1
 10
-2.12435669004917
 20
-10.7929140686989
 30
0.0
 70
     0
  0
VERTEX
  8
1
 10
-1.69516095817089
 20
-10.8685922861099
 30
0.0
 70
     0
  0
VERTEX
  8
1
 10
-1.63008044660091
 20
-10.7767836034298
 30
0.0
 70
     0
  0
VERTEX
  8
1
 10
-1.58403275236487
 20
-10.7088946998119
 30
0.0
 70
     0
  0
VERTEX
  8
1
 10
-1.5408078327775
 20
-10.6427120268345
 30
0.0
 70
     0
  0
VERTEX
  8
1
 10
-1.50033159852028
 20
-10.5783097684383
 30
0.0
 70
     0
  0
VERTEX
  8
1
 10
-1.46252873018384
 20
-10.5157636225224
 30
0.0
 70
     0
  0
VERTEX
  8
1
 10
-1.42732088044286
 20
-10.4551477730274
 30
0.0
 70
     0
  0
VERTEX
  8
1
 10
-1.39462932348251
 20
-10.3965311050415
 30
0.0
 70
     0
  0
VERTEX
  8
1
 10
-1.36437268406153
 20
-10.3399832606316
 30
0.0
 70
     0
  0
VERTEX
  8
1
 10
-1.33646864071488
 20
-10.2855700969696
 30
0.0
 70
     0
  0
VERTEX
  8
1
 10
-1.3108329795301
 20
-10.2333567142487
 30
0.0
 70
     0
  0
VERTEX
  8
1
 10
-1.28737987801433
 20
-10.1834036707878
 30
0.0
 70
     0
  0
VERTEX
  8
1
 10
-1.26602247282863
 20
-10.1357707679272
 30
0.0
 70
     0
  0
VERTEX
  8
1
 10
-1.23772139400244
 20
-10.0687970519066
 30
0.0
 70
     0
  0
VERTEX
  8
1
 10
-1.21363176777959
 20
-10.0073538243771
 30
0.0
 70
     0
  0
VERTEX
  8
1
 10
-1.19344266504049
 20
-9.95161140561104
 30
0.0
 70
     0
  0
VERTEX
  8
1
 10
-1.17204362601042
 20
-9.88642870187759
 30
0.0
 70
     0
  0
VERTEX
  8
1
 10
-1.1562503002584
 20
-9.83200039863586
 30
0.0
 70
     0
  0
VERTEX
  8
1
 10
-1.14320130720735
 20
-9.77953569889069
 30
0.0
 70
     0
  0
VERTEX
  8
1
 10
-1.13328516632318
 20
-9.72678334712982
 30
0.0
 70
     0
  0
VERTEX
  8
1
 10
-1.12226582318544
 20
-9.63220563530922
 30
0.0
 42
-0.000043633250518
 70
     0
  0
VERTEX
  8
1
 10
-0.567406564205885
 20
-9.6807491838932
 30
0.0
 70
     0
  0
VERTEX
  8
1
 10
-0.57297778762877
 20
-9.77580454945564
 30
0.0
 70
     0
  0
VERTEX
  8
1
 10
-0.572372914105654
 20
-9.82947890162468
 30
0.0
 70
     0
  0
VERTEX
  8
1
 10
-0.568632302433252
 20
-9.88341062664986
 30
0.0
 70
     0
  0
VERTEX
  8
1
 10
-0.562530531361699
 20
-9.93975560069084
 30
0.0
 70
     0
  0
VERTEX
  8
1
 10
-0.55277548506856
 20
-10.0076641857624
 30
0.0
 70
     0
  0
VERTEX
  8
1
 10
-0.542572638392448
 20
-10.0660643577576
 30
0.0
 70
     0
  0
VERTEX
  8
1
 10
-0.529518535733223
 20
-10.1307580530643
 30
0.0
 70
     0
  0
VERTEX
  8
1
 10
-0.513277456909418
 20
-10.2016294538975
 30
0.0
 70
     0
  0
VERTEX
  8
1
 10
-0.500515879318118
 20
-10.2522471249104
 30
0.0
 70
     0
  0
VERTEX
  8
1
 10
-0.486093395203352
 20
-10.3055134654045
 30
0.0
 70
     0
  0
VERTEX
  8
1
 10
-0.469914010167122
 20
-10.3613853275776
 30
0.0
 70
     0
  0
VERTEX
  8
1
 10
-0.451882581412792
 20
-10.4198172926903
 30
0.0
 70
     0
  0
VERTEX
  8
1
 10
-0.431905148923397
 20
-10.4807601571083
 30
0.0
 70
     0
  0
VERTEX
  8
1
 10
-0.409888840839267
 20
-10.5441624462605
 30
0.0
 70
     0
  0
VERTEX
  8
1
 10
-0.385741968080401
 20
-10.6099719285965
 30
0.0
 70
     0
  0
VERTEX
  8
1
 10
-0.359374213591218
 20
-10.6781318306923
 30
0.0
 70
     0
  0
VERTEX
  8
1
 10
-0.330696395784616
 20
-10.7485838651657
 30
0.0
 70
     0
  0
VERTEX
  8
1
 10
-0.299620965309441
 20
-10.8212682306767
 30
0.0
 70
     0
  0
VERTEX
  8
1
 10
-0.266061531938612
 20
-10.8961205840111
 30
0.0
 70
     0
  0
VERTEX
  8
1
 10
-0.217912298440933
 20
-10.9978366076946
 30
0.0
 70
     0
  0
VERTEX
  8
1
 10
0.217904208227992
 20
-10.9978350937366
 30
0.0
 70
     0
  0
VERTEX
  8
1
 10
0.266053701937199
 20
-10.8961198270321
 30
0.0
 70
     0
  0
VERTEX
  8
1
 10
0.299613158963621
 20
-10.8212667167187
 30
0.0
 70
     0
  0
VERTEX
  8
1
 10
0.330688731372356
 20
-10.7485831081867
 30
0.0
 70
     0
  0
VERTEX
  8
1
 10
0.359366525523365
 20
-10.6781303167343
 30
0.0
 70
     0
  0
VERTEX
  8
1
 10
0.385734303668141
 20
-10.6099704146385
 30
0.0
 70
     0
  0
VERTEX
  8
1
 10
0.409881223738193
 20
-10.5441609323025
 30
0.0
 70
     0
  0
VERTEX
  8
1
 10
0.431897626444697
 20
-10.4807586431503
 30
0.0
 70
     0
  0
VERTEX
  8
1
 10
0.451875058934093
 20
-10.4198157787323
 30
0.0
 70
     0
  0
VERTEX
  8
1
 10
0.469906487688422
 20
-10.3613838136196
 30
0.0
 70
     0
  0
VERTEX
  8
1
 10
0.486085920035839
 20
-10.3055119514465
 30
0.0
 70
     0
  0
VERTEX
  8
1
 10
0.500508451461792
 20
-10.2522456109524
 30
0.0
 70
     0
  0
VERTEX
  8
1
 10
0.513270123675466
 20
-10.2016279399395
 30
0.0
 70
     0
  0
VERTEX
  8
1
 10
0.529511155188084
 20
-10.1307565391064
 30
0.0
 70
     0
  0
VERTEX
  8
1
 10
0.542565399780869
 20
-10.0660636007786
 30
0.0
 70
     0
  0
VERTEX
  8
1
 10
0.552768246456981
 20
-10.0076626718044
 30
0.0
 70
     0
  0
VERTEX
  8
1
 10
0.56252329275012
 20
-9.93975408673286
 30
0.0
 70
     0
  0
VERTEX
  8
1
 10
0.568625158444047
 20
-9.88340986967087
 30
0.0
 70
     0
  0
VERTEX
  8
1
 10
0.572365675494075
 20
-9.82947663068771
 30
0.0
 70
     0
  0
VERTEX
  8
1
 10
0.572970785573125
 20
-9.77580303549767
 30
0.0
 70
     0
  0
VERTEX
  8
1
 10
0.567399514839053
 20
-9.6807491838932
 30
0.0
 42
-0.000043633244249
 70
     0
  0
VERTEX
  8
1
 10
1.12225863188505
 20
-9.63220487833023
 30
0.0
 70
     0
  0
VERTEX
  8
1
 10
1.13327797502279
 20
-9.72678410410881
 30
0.0
 70
     0
  0
VERTEX
  8
1
 10
1.14319421052933
 20
-9.77953796982765
 30
0.0
 70
     0
  0
VERTEX
  8
1
 10
1.15624320358038
 20
-9.83200115561485
 30
0.0
 70
     0
  0
VERTEX
  8
1
 10
1.17203643471003
 20
-9.88643021583557
 30
0.0
 70
     0
  0
VERTEX
  8
1
 10
1.1934354737401
 20
-9.95161291956902
 30
0.0
 70
     0
  0
VERTEX
  8
1
 10
1.21362438723445
 20
-10.007354581356
 30
0.0
 70
     0
  0
VERTEX
  8
1
 10
1.2377140134573
 20
-10.0687985658646
 30
0.0
 70
     0
  0
VERTEX
  8
1
 10
1.26601509228349
 20
-10.1357730388641
 30
0.0
 70
     0
  0
VERTEX
  8
1
 10
1.28737249746919
 20
-10.1834051847458
 30
0.0
 70
     0
  0
VERTEX
  8
1
 10
1.31082540974021
 20
-10.2333582282066
 30
0.0
 70
     0
  0
VERTEX
  8
1
 10
1.336461070925
 20
-10.2855716109276
 30
0.0
 70
     0
  0
VERTEX
  8
1
 10
1.36436511427164
 20
-10.3399847745895
 30
0.0
 70
     0
  0
VERTEX
  8
1
 10
1.39462175369263
 20
-10.3965326189995
 30
0.0
 70
     0
  0
VERTEX
  8
1
 10
1.42731312140822
 20
-10.4551485300064
 30
0.0
 70
     0
  0
VERTEX
  8
1
 10
1.46252087652683
 20
-10.5157651364803
 30
0.0
 70
     0
  0
VERTEX
  8
1
 10
1.50032383948565
 20
-10.5783112823963
 30
0.0
 70
     0
  0
VERTEX
  8
1
 10
1.54079988449812
 20
-10.6427127838135
 30
0.0
 70
     0
  0
VERTEX
  8
1
 10
1.58402480408549
 20
-10.7088969707489
 30
0.0
 70
     0
  0
VERTEX
  8
1
 10
1.63007230907679
 20
-10.7767843604088
 30
0.0
 70
     0
  0
VERTEX
  8
1
 10
1.69515282064676
 20
-10.8685938000679
 30
0.0
 70
     0
  0
VERTEX
  8
1
 10
2.12434817403555
 20
-10.7929140686989
 30
0.0
 70
     0
  0
VERTEX
  8
1
 10
2.1541035041213
 20
-10.6843837201595
 30
0.0
 70
     0
  0
VERTEX
  8
1
 10
2.17415493130684
 20
-10.6048403680325
 30
0.0
 70
     0
  0
VERTEX
  8
1
 10
2.19213715642691
 20
-10.5278646886349
 30
0.0
 70
     0
  0
VERTEX
  8
1
 10
2.20814518034458
 20
-10.4535021007061
 30
0.0
 70
     0
  0
VERTEX
  8
1
 10
2.22227646410465
 20
-10.3817995369434
 30
0.0
 70
     0
  0
VERTEX
  8
1
 10
2.23462903648615
 20
-10.3127956032753
 30
0.0
 70
     0
  0
VERTEX
  8
1
 10
2.24530111551285
 20
-10.246534204483
 30
0.0
 70
     0
  0
VERTEX
  8
1
 10
2.25439262241125
 20
-10.1830478906631
 30
0.0
 70
     0
  0
VERTEX
  8
1
 10
2.26200328916311
 20
-10.1223729968071
 30
0.0
 70
     0
  0
VERTEX
  8
1
 10
2.26823492944241
 20
-10.0645398020744
 30
0.0
 70
     0
  0
VERTEX
  8
1
 10
2.27318878918886
 20
-10.0095785856247
 30
0.0
 70
     0
  0
VERTEX
  8
1
 10
2.2769668713212
 20
-9.95751357078552
 30
0.0
 70
     0
  0
VERTEX
  8
1
 10
2.2806544944644
 20
-9.88489960432053
 30
0.0
 70
     0
  0
VERTEX
  8
1
 10
2.28227670043707
 20
-9.818922072649
 30
0.0
 70
     0
  0
VERTEX
  8
1
 10
2.28218321353197
 20
-9.75963699221611
 30
0.0
 70
     0
  0
VERTEX
  8
1
 10
2.27999781519175
 20
-9.69106605052948
 30
0.0
 70
     0
  0
VERTEX
  8
1
 10
2.27622313946486
 20
-9.63451820611954
 30
0.0
 70
     0
  0
VERTEX
  8
1
 10
2.27054125517607
 20
-9.58075453042984
 30
0.0
 70
     0
  0
VERTEX
  8
1
 10
2.26181688308716
 20
-9.52779173851013
 30
0.0
 70
     0
  0
VERTEX
  8
1
 10
2.23982437252998
 20
-9.43514886498451
 30
0.0
 42
-0.000043633222321
 70
     0
  0
VERTEX
  8
1
 10
2.77782429009676
 20
-9.29099281430244
 30
0.0
 70
     0
  0
VERTEX
  8
1
 10
2.80509918928146
 20
-9.38222089409828
 30
0.0
 70
     0
  0
VERTEX
  8
1
 10
2.82402536720037
 20
-9.43245174884796
 30
0.0
 70
     0
  0
VERTEX
  8
1
 10
2.84598608464003
 20
-9.48185144066811
 30
0.0
 70
     0
  0
VERTEX
  8
1
 10
2.87099118232727
 20
-9.53271134495735
 30
0.0
 70
     0
  0
VERTEX
  8
1
 10
2.90338382720947
 20
-9.59318791031837
 30
0.0
 70
     0
  0
VERTEX
  8
1
 10
2.93294537067413
 20
-9.64457618594169
 30
0.0
 70
     0
  0
VERTEX
  8
1
 10
2.96733890026808
 20
-9.70090374946594
 30
0.0
 70
     0
  0
VERTEX
  8
1
 10
3.00684014558792
 20
-9.76194653511047
 30
0.0
 70
     0
  0
VERTEX
  8
1
 10
3.03614412695169
 20
-9.80514656901359
 30
0.0
 70
     0
  0
VERTEX
  8
1
 10
3.06791510283947
 20
-9.8502678155899
 30
0.0
 70
     0
  0
VERTEX
  8
1
 10
3.10222801417112
 20
-9.89723609089851
 30
0.0
 70
     0
  0
VERTEX
  8
1
 10
3.13915704488754
 20
-9.94597721099854
 30
0.0
 70
     0
  0
VERTEX
  8
1
 10
3.17877278327942
 20
-9.99641245007515
 30
0.0
 70
     0
  0
VERTEX
  8
1
 10
3.22114619612694
 20
-10.0484615683556
 30
0.0
 70
     0
  0
VERTEX
  8
1
 10
3.26634541153908
 20
-10.102043569088
 30
0.0
 70
     0
  0
VERTEX
  8
1
 10
3.31443477272987
 20
-10.1570736706257
 30
0.0
 70
     0
  0
VERTEX
  8
1
 10
3.36547937989235
 20
-10.2134693622589
 30
0.0
 70
     0
  0
VERTEX
  8
1
 10
3.4195397913456
 20
-10.271141320467
 30
0.0
 70
     0
  0
VERTEX
  8
1
 10
3.47667656540871
 20
-10.3300009787083
 30
0.0
 70
     0
  0
VERTEX
  8
1
 10
3.55671081840992
 20
-10.4091151237488
 30
0.0
 70
     0
  0
VERTEX
  8
1
 10
3.96624439954758
 20
-10.2600568771362
 30
0.0
 70
     0
  0
VERTEX
  8
1
 10
3.97670130729675
 20
-10.1480073332787
 30
0.0
 70
     0
  0
VERTEX
  8
1
 10
3.98263602256775
 20
-10.0661907732487
 30
0.0
 70
     0
  0
VERTEX
  8
1
 10
3.98697805404663
 20
-9.98726208806038
 30
0.0
 70
     0
  0
VERTEX
  8
1
 10
3.98982997238636
 20
-9.91124928593636
 30
0.0
 70
     0
  0
VERTEX
  8
1
 10
3.99129548370838
 20
-9.83818264603615
 30
0.0
 70
     0
  0
VERTEX
  8
1
 10
3.99147829413414
 20
-9.76808260679245
 30
0.0
 70
     0
  0
VERTEX
  8
1
 10
3.99048210978508
 20
-9.70097414851189
 30
0.0
 70
     0
  0
VERTEX
  8
1
 10
3.98841101527214
 20
-9.63687392473221
 30
0.0
 70
     0
  0
VERTEX
  8
1
 10
3.98536985218525
 20
-9.57579858899116
 30
0.0
 70
     0
  0
VERTEX
  8
1
 10
3.98146421909332
 20
-9.51776252388954
 30
0.0
 70
     0
  0
VERTEX
  8
1
 10
3.97679895758629
 20
-9.46277557015419
 30
0.0
 70
     0
  0
VERTEX
  8
1
 10
3.97147890925407
 20
-9.41084605455399
 30
0.0
 70
     0
  0
VERTEX
  8
1
 10
3.96250075995922
 20
-9.33869384527206
 30
0.0
 70
     0
  0
VERTEX
  8
1
 10
3.95264148712158
 20
-9.27343771457672
 30
0.0
 70
     0
  0
VERTEX
  8
1
 10
3.94225459992886
 20
-9.21506933569908
 30
0.0
 70
     0
  0
VERTEX
  8
1
 10
3.9281956076622
 20
-9.14791924357414
 30
0.0
 70
     0
  0
VERTEX
  8
1
 10
3.91465855240822
 20
-9.09288611412048
 30
0.0
 70
     0
  0
VERTEX
  8
1
 10
3.89972752034664
 20
-9.04092631936073
 30
0.0
 70
     0
  0
VERTEX
  8
1
 10
3.88193851411343
 20
-8.99028291106224
 30
0.0
 70
     0
  0
VERTEX
  8
1
 10
3.844192892313
 20
-8.90286697745323
 30
0.0
 42
-0.000043633221441
 70
     0
  0
VERTEX
  8
1
 10
4.34898660182953
 20
-8.66747754812241
 30
0.0
 70
     0
  0
VERTEX
  8
1
 10
4.39168892204761
 20
-8.75258393883705
 30
0.0
 70
     0
  0
VERTEX
  8
1
 10
4.41904992759228
 20
-8.79876495599747
 30
0.0
 70
     0
  0
VERTEX
  8
1
 10
4.44925528168678
 20
-8.84360006451607
 30
0.0
 70
     0
  0
VERTEX
  8
1
 10
4.48271223902702
 20
-8.88934581875801
 30
0.0
 70
     0
  0
VERTEX
  8
1
 10
4.5251147955656
 20
-8.94327830076218
 30
0.0
 70
     0
  0
VERTEX
  8
1
 10
4.56315071880817
 20
-8.98875305652618
 30
0.0
 70
     0
  0
VERTEX
  8
1
 10
4.60680266916752
 20
-9.03825266957283
 30
0.0
 70
     0
  0
VERTEX
  8
1
 10
4.65630341768265
 20
-9.09150841236115
 30
0.0
 70
     0
  0
VERTEX
  8
1
 10
4.69266414642334
 20
-9.12896373271942
 30
0.0
 70
     0
  0
VERTEX
  8
1
 10
4.7317874699831
 20
-9.16788305044174
 30
0.0
 70
     0
  0
VERTEX
  8
1
 10
4.77373508214951
 20
-9.20817931294441
 30
0.0
 70
     0
  0
VERTEX
  8
1
 10
4.81856678426266
 20
-9.2497677385807
 30
0.0
 70
     0
  0
VERTEX
  8
1
 10
4.86633897125721
 20
-9.29255673289299
 30
0.0
 70
     0
  0
VERTEX
  8
1
 10
4.91710690259933
 20
-9.33645621538162
 30
0.0
 70
     0
  0
VERTEX
  8
1
 10
4.97092356681824
 20
-9.38137534856796
 30
0.0
 70
     0
  0
VERTEX
  8
1
 10
5.02783854603767
 20
-9.42722026705742
 30
0.0
 70
     0
  0
VERTEX
  8
1
 10
5.08790028691292
 20
-9.47389483451843
 30
0.0
 70
     0
  0
VERTEX
  8
1
 10
5.15115458667278
 20
-9.52130291461945
 30
0.0
 70
     0
  0
VERTEX
  8
1
 10
5.21764421463013
 20
-9.56934761404991
 30
0.0
 70
     0
  0
VERTEX
  8
1
 10
5.31020079255104
 20
-9.63336078524589
 30
0.0
 70
     0
  0
VERTEX
  8
1
 10
5.68762862384319
 20
-9.41545227169991
 30
0.0
 70
     0
  0
VERTEX
  8
1
 10
5.67846955657005
 20
-9.30328993797302
 30
0.0
 70
     0
  0
VERTEX
  8
1
 10
5.67010645270348
 20
-9.22168608903885
 30
0.0
 70
     0
  0
VERTEX
  8
1
 10
5.66067676544189
 20
-9.14320250749588
 30
0.0
 70
     0
  0
VERTEX
  8
1
 10
5.65028609335423
 20
-9.06784903407097
 30
0.0
 70
     0
  0
VERTEX
  8
1
 10
5.63904117047787
 20
-8.99563702344894
 30
0.0
 70
     0
  0
VERTEX
  8
1
 10
5.62704835236072
 20
-8.92657101750374
 30
0.0
 70
     0
  0
VERTEX
  8
1
 10
5.6144139945507
 20
-8.86065480113029
 30
0.0
 70
     0
  0
VERTEX
  8
1
 10
5.60124331712723
 20
-8.79788837432861
 30
0.0
 70
     0
  0
VERTEX
  8
1
 10
5.58764305412769
 20
-8.73826946616173
 30
0.0
 70
     0
  0
VERTEX
  8
1
 10
5.57371880412102
 20
-8.68179277777672
 30
0.0
 70
     0
  0
VERTEX
  8
1
 10
5.55957616567612
 20
-8.6284507393837
 30
0.0
 70
     0
  0
VERTEX
  8
1
 10
5.54531922340393
 20
-8.5782342672348
 30
0.0
 70
     0
  0
VERTEX
  8
1
 10
5.52394894957542
 20
-8.50873754024506
 30
0.0
 70
     0
  0
VERTEX
  8
1
 10
5.50290758311748
 20
-8.44618458151817
 30
0.0
 70
     0
  0
VERTEX
  8
1
 10
5.48254333436489
 20
-8.39050650596619
 30
0.0
 70
     0
  0
VERTEX
  8
1
 10
5.45703692734241
 20
-8.32681807875633
 30
0.0
 70
     0
  0
VERTEX
  8
1
 10
5.43414928913116
 20
-8.27497183084488
 30
0.0
 70
     0
  0
VERTEX
  8
1
 10
5.4104221612215
 20
-8.2263942182064
 30
0.0
 70
     0
  0
VERTEX
  8
1
 10
5.38410919308662
 20
-8.17960913181305
 30
0.0
 70
     0
  0
VERTEX
  8
1
 10
5.33175728321075
 20
-8.10007562041283
 30
0.0
 42
-0.00004363325504
 70
     0
  0
VERTEX
  8
1
 10
5.78800744414329
 20
-7.78060550689697
 30
0.0
 70
     0
  0
VERTEX
  8
1
 10
5.84483915567398
 20
-7.85700436830521
 30
0.0
 70
     0
  0
VERTEX
  8
1
 10
5.87980363667011
 20
-7.89773210883141
 30
0.0
 70
     0
  0
VERTEX
  8
1
 10
5.91733579039574
 20
-7.93664158582687
 30
0.0
 70
     0
  0
VERTEX
  8
1
 10
5.95822779536247
 20
-7.97588186264038
 30
0.0
 70
     0
  0
VERTEX
  8
1
 10
6.00935112833977
 20
-8.02163291573524
 30
0.0
 70
     0
  0
VERTEX
  8
1
 10
6.05470628142357
 20
-8.05981190800667
 30
0.0
 70
     0
  0
VERTEX
  8
1
 10
6.10629023611546
 20
-8.10097869634628
 30
0.0
 70
     0
  0
VERTEX
  8
1
 10
6.16428731679916
 20
-8.14482973217964
 30
0.0
 70
     0
  0
VERTEX
  8
1
 10
6.2065997928381
 20
-8.17540259957313
 30
0.0
 70
     0
  0
VERTEX
  8
1
 10
6.25188681781292
 20
-8.20693607330322
 30
0.0
 70
     0
  0
VERTEX
  8
1
 10
6.30019456744194
 20
-8.23933628797531
 30
0.0
 70
     0
  0
VERTEX
  8
1
 10
6.35156618952751
 20
-8.27250786423683
 30
0.0
 70
     0
  0
VERTEX
  8
1
 10
6.4060436964035
 20
-8.30635163784027
 30
0.0
 70
     0
  0
VERTEX
  8
1
 10
6.46366342306137
 20
-8.34076844453812
 30
0.0
 70
     0
  0
VERTEX
  8
1
 10
6.52446246147156
 20
-8.37565987706184
 30
0.0
 70
     0
  0
VERTEX
  8
1
 10
6.58847336173057
 20
-8.41092450022697
 30
0.0
 70
     0
  0
VERTEX
  8
1
 10
6.65572715997696
 20
-8.44646087884903
 30
0.0
 70
     0
  0
VERTEX
  8
1
 10
6.72625337839127
 20
-8.48216454982757
 30
0.0
 70
     0
  0
VERTEX
  8
1
 10
6.80007472634315
 20
-8.51793332099914
 30
0.0
 70
     0
  0
VERTEX
  8
1
 10
6.90234107375145
 20
-8.56490235328674
 30
0.0
 70
     0
  0
VERTEX
  8
1
 10
7.23619605898857
 20
-8.28476486802101
 30
0.0
 70
     0
  0
VERTEX
  8
1
 10
7.20769882798195
 20
-8.17589614987373
 30
0.0
 70
     0
  0
VERTEX
  8
1
 10
7.18529300689697
 20
-8.09698411822319
 30
0.0
 70
     0
  0
VERTEX
  8
1
 10
7.16237773895264
 20
-8.02133088111877
 30
0.0
 70
     0
  0
VERTEX
  8
1
 10
7.13905975818634
 20
-7.94892659783363
 30
0.0
 70
     0
  0
VERTEX
  8
1
 10
7.11544655561447
 20
-7.87976445555687
 30
0.0
 70
     0
  0
VERTEX
  8
1
 10
7.09164259433746
 20
-7.8138300716877
 30
0.0
 70
     0
  0
VERTEX
  8
1
 10
7.06775385141373
 20
-7.75110906362534
 30
0.0
 70
     0
  0
VERTEX
  8
1
 10
7.04388478994369
 20
-7.69158326387405
 30
0.0
 70
     0
  0
VERTEX
  8
1
 10
7.02013760209084
 20
-7.63523072004318
 30
0.0
 70
     0
  0
VERTEX
  8
1
 10
6.99661826491356
 20
-7.58203099370003
 30
0.0
 70
     0
  0
VERTEX
  8
1
 10
6.97342821359634
 20
-7.53195607662201
 30
0.0
 70
     0
  0
VERTEX
  8
1
 10
6.95066736936569
 20
-7.48497720360756
 30
0.0
 70
     0
  0
VERTEX
  8
1
 10
6.9175540804863
 20
-7.42024717330933
 30
0.0
 70
     0
  0
VERTEX
  8
1
 10
6.88596988916397
 20
-7.36229891777039
 30
0.0
 70
     0
  0
VERTEX
  8
1
 10
6.85624635219574
 20
-7.31100223660469
 30
0.0
 70
     0
  0
VERTEX
  8
1
 10
6.82006805539131
 20
-7.25271106958389
 30
0.0
 70
     0
  0
VERTEX
  8
1
 10
6.78852549791336
 20
-7.20562697649002
 30
0.0
 70
     0
  0
VERTEX
  8
1
 10
6.7567232966423
 20
-7.1619068980217
 30
0.0
 70
     0
  0
VERTEX
  8
1
 10
6.72268573641777
 20
-7.12040249705315
 30
0.0
 70
     0
  0
VERTEX
  8
1
 10
6.6573183298111
 20
-7.05116768479347
 30
0.0
 42
-0.000043633235445
 70
     0
  0
VERTEX
  8
1
 10
7.05116162896156
 20
-6.657324385643
 30
0.0
 70
     0
  0
VERTEX
  8
1
 10
7.12039644122124
 20
-6.72269254922867
 30
0.0
 70
     0
  0
VERTEX
  8
1
 10
7.16190235614777
 20
-6.7567301094532
 30
0.0
 70
     0
  0
VERTEX
  8
1
 10
7.20562016367912
 20
-6.78853155374527
 30
0.0
 70
     0
  0
VERTEX
  8
1
 10
7.25270501375198
 20
-6.82007486820221
 30
0.0
 70
     0
  0
VERTEX
  8
1
 10
7.31099693775177
 20
-6.85625316500664
 30
0.0
 70
     0
  0
VERTEX
  8
1
 10
7.36229210495949
 20
-6.88597594499588
 30
0.0
 70
     0
  0
VERTEX
  8
1
 10
7.4202418744564
 20
-6.9175608932972
 30
0.0
 70
     0
  0
VERTEX
  8
1
 10
7.48497190475464
 20
-6.95067418217659
 30
0.0
 70
     0
  0
VERTEX
  8
1
 10
7.5319500207901
 20
-6.97343502640724
 30
0.0
 70
     0
  0
VERTEX
  8
1
 10
7.58202493786812
 20
-6.99662507772446
 30
0.0
 70
     0
  0
VERTEX
  8
1
 10
7.63522542119026
 20
-7.02014517188072
 30
0.0
 70
     0
  0
VERTEX
  8
1
 10
7.69157645106316
 20
-7.04389160275459
 30
0.0
 70
     0
  0
VERTEX
  8
1
 10
7.75110300779343
 20
-7.06776142120361
 30
0.0
 70
     0
  0
VERTEX
  8
1
 10
7.81382401585579
 20
-7.09164940714836
 30
0.0
 70
     0
  0
VERTEX
  8
1
 10
7.87975764274597
 20
-7.11545412540436
 30
0.0
 70
     0
  0
VERTEX
  8
1
 10
7.94892054200172
 20
-7.13906732797623
 30
0.0
 70
     0
  0
VERTEX
  8
1
 10
8.02132331132889
 20
-7.16238455176353
 30
0.0
 70
     0
  0
VERTEX
  8
1
 10
8.09697806239128
 20
-7.18529981970787
 30
0.0
 70
     0
  0
VERTEX
  8
1
 10
8.17588933706284
 20
-7.20770564079285
 30
0.0
 70
     0
  0
VERTEX
  8
1
 10
8.28475805521011
 20
-7.23620362877846
 30
0.0
 70
     0
  0
VERTEX
  8
1
 10
8.56489554047585
 20
-6.90234864354134
 30
0.0
 70
     0
  0
VERTEX
  8
1
 10
8.51792650818825
 20
-6.80008229613304
 30
0.0
 70
     0
  0
VERTEX
  8
1
 10
8.48215773701668
 20
-6.72626019120216
 30
0.0
 70
     0
  0
VERTEX
  8
1
 10
8.44645406603813
 20
-6.65573472976685
 30
0.0
 70
     0
  0
VERTEX
  8
1
 10
8.41091693043709
 20
-6.58848017454147
 30
0.0
 70
     0
  0
VERTEX
  8
1
 10
8.37565230727196
 20
-6.52446851730347
 30
0.0
 70
     0
  0
VERTEX
  8
1
 10
8.34076163172722
 20
-6.46366947889328
 30
0.0
 70
     0
  0
VERTEX
  8
1
 10
8.30634406805038
 20
-6.40604975223541
 30
0.0
 70
     0
  0
VERTEX
  8
1
 10
8.27250105142593
 20
-6.35157300233841
 30
0.0
 70
     0
  0
VERTEX
  8
1
 10
8.23932947516441
 20
-6.30020062327385
 30
0.0
 70
     0
  0
VERTEX
  8
1
 10
8.20692926049233
 20
-6.25189249515533
 30
0.0
 70
     0
  0
VERTEX
  8
1
 10
8.17539578676224
 20
-6.20660509169102
 30
0.0
 70
     0
  0
VERTEX
  8
1
 10
8.14482291936874
 20
-6.16429261565208
 30
0.0
 70
     0
  0
VERTEX
  8
1
 10
8.10097188353538
 20
-6.10629629194736
 30
0.0
 70
     0
  0
VERTEX
  8
1
 10
8.05980509519577
 20
-6.05471233725548
 30
0.0
 70
     0
  0
VERTEX
  8
1
 10
8.02162610292435
 20
-6.00935718417168
 30
0.0
 70
     0
  0
VERTEX
  8
1
 10
7.97587504982948
 20
-5.95823385119438
 30
0.0
 70
     0
  0
VERTEX
  8
1
 10
7.93663552999496
 20
-5.91734184622765
 30
0.0
 70
     0
  0
VERTEX
  8
1
 10
7.89772453904152
 20
-5.87980893552303
 30
0.0
 70
     0
  0
VERTEX
  8
1
 10
7.85699755549431
 20
-5.8448444545269
 30
0.0
 70
     0
  0
VERTEX
  8
1
 10
7.78060096502304
 20
-5.78801312148571
 30
0.0
 42
-0.000043633224706
 70
     0
  0
VERTEX
  8
1
 10
8.10007032155991
 20
-5.33176296055317
 30
0.0
 70
     0
  0
VERTEX
  8
1
 10
8.17960383296013
 20
-5.38411600589752
 30
0.0
 70
     0
  0
VERTEX
  8
1
 10
8.22638967633247
 20
-5.4104293525219
 30
0.0
 70
     0
  0
VERTEX
  8
1
 10
8.27496653199196
 20
-5.43415572345257
 30
0.0
 70
     0
  0
VERTEX
  8
1
 10
8.3268135368824
 20
-5.45704374015331
 30
0.0
 70
     0
  0
VERTEX
  8
1
 10
8.39050120711327
 20
-5.48255014717579
 30
0.0
 70
     0
  0
VERTEX
  8
1
 10
8.44617852568626
 20
-5.50291401743889
 30
0.0
 70
     0
  0
VERTEX
  8
1
 10
8.50873224139213
 20
-5.52395576238632
 30
0.0
 70
     0
  0
VERTEX
  8
1
 10
8.57822896838188
 20
-5.54532641470432
 30
0.0
 70
     0
  0
VERTEX
  8
1
 10
8.62844619750977
 20
-5.55958335697651
 30
0.0
 70
     0
  0
VERTEX
  8
1
 10
8.68178672194481
 20
-5.5737263739109
 30
0.0
 70
     0
  0
VERTEX
  8
1
 10
8.73826341032982
 20
-5.58765024542809
 30
0.0
 70
     0
  0
VERTEX
  8
1
 10
8.7978823184967
 20
-5.60125050842762
 30
0.0
 70
     0
  0
VERTEX
  8
1
 10
8.86064950227737
 20
-5.6144211858511
 30
0.0
 70
     0
  0
VERTEX
  8
1
 10
8.92656571865082
 20
-5.62705554366112
 30
0.0
 70
     0
  0
VERTEX
  8
1
 10
8.99563096761703
 20
-5.63904836177826
 30
0.0
 70
     0
  0
VERTEX
  8
1
 10
9.06784373521805
 20
-5.65029328465462
 30
0.0
 70
     0
  0
VERTEX
  8
1
 10
9.14319569468498
 20
-5.66068357825279
 30
0.0
 70
     0
  0
VERTEX
  8
1
 10
9.22168003320694
 20
-5.67011364400387
 30
0.0
 70
     0
  0
VERTEX
  8
1
 10
9.30328388214111
 20
-5.67847636938095
 30
0.0
 70
     0
  0
VERTEX
  8
1
 10
9.415446215868
 20
-5.68763619363308
 30
0.0
 70
     0
  0
VERTEX
  8
1
 10
9.633353972435
 20
-5.31020760536194
 30
0.0
 70
     0
  0
VERTEX
  8
1
 10
9.569341558218
 20
-5.21765140593052
 30
0.0
 70
     0
  0
VERTEX
  8
1
 10
9.52129685878754
 20
-5.15116177797317
 30
0.0
 70
     0
  0
VERTEX
  8
1
 10
9.47388877868652
 20
-5.0879078567028
 30
0.0
 70
     0
  0
VERTEX
  8
1
 10
9.42721345424652
 20
-5.02784573733807
 30
0.0
 70
     0
  0
VERTEX
  8
1
 10
9.38136853575706
 20
-4.97093037962913
 30
0.0
 70
     0
  0
VERTEX
  8
1
 10
9.33645015954971
 20
-4.91711409389973
 30
0.0
 70
     0
  0
VERTEX
  8
1
 10
9.29254992008209
 20
-4.8663461625576
 30
0.0
 70
     0
  0
VERTEX
  8
1
 10
9.24976092576981
 20
-4.81857359707355
 30
0.0
 70
     0
  0
VERTEX
  8
1
 10
9.2081732571125
 20
-4.7737418949604
 30
0.0
 70
     0
  0
VERTEX
  8
1
 10
9.16787623763084
 20
-4.731794282794
 30
0.0
 70
     0
  0
VERTEX
  8
1
 10
9.12895767688751
 20
-4.69267095923424
 30
0.0
 70
     0
  0
VERTEX
  8
1
 10
9.09150235652923
 20
-4.65631023049355
 30
0.0
 70
     0
  0
VERTEX
  8
1
 10
9.03824661374092
 20
-4.60680948197842
 30
0.0
 70
     0
  0
VERTEX
  8
1
 10
8.98874775767326
 20
-4.56315753161907
 30
0.0
 70
     0
  0
VERTEX
  8
1
 10
8.94327224493027
 20
-4.52512122988701
 30
0.0
 70
     0
  0
VERTEX
  8
1
 10
8.8893397629261
 20
-4.48271905183792
 30
0.0
 70
     0
  0
VERTEX
  8
1
 10
8.84359476566315
 20
-4.44926247298717
 30
0.0
 70
     0
  0
VERTEX
  8
1
 10
8.79875738620758
 20
-4.41905636191368
 30
0.0
 70
     0
  0
VERTEX
  8
1
 10
8.75257788300514
 20
-4.39169573485851
 30
0.0
 70
     0
  0
VERTEX
  8
1
 10
8.66747300624847
 20
-4.34899341464043
 30
0.0
 42
-0.00004363320284
 70
     0
  0
VERTEX
  8
1
 10
8.90286167860031
 20
-3.8441997051239
 30
0.0
 70
     0
  0
VERTEX
  8
1
 10
8.99027836918831
 20
-3.88194570541382
 30
0.0
 70
     0
  0
VERTEX
  8
1
 10
9.04092253446579
 20
-3.89973471164703
 30
0.0
 70
     0
  0
VERTEX
  8
1
 10
9.09288081526756
 20
-3.91466536521912
 30
0.0
 70
     0
  0
VERTEX
  8
1
 10
9.14791470170021
 20
-3.9282024204731
 30
0.0
 70
     0
  0
VERTEX
  8
1
 10
9.21506479382515
 20
-3.94226216971874
 30
0.0
 70
     0
  0
VERTEX
  8
1
 10
9.27343165874481
 20
-3.95264867842197
 30
0.0
 70
     0
  0
VERTEX
  8
1
 10
9.33868930339813
 20
-3.96250832974911
 30
0.0
 70
     0
  0
VERTEX
  8
1
 10
9.41084151268005
 20
-3.97148610055447
 30
0.0
 70
     0
  0
VERTEX
  8
1
 10
9.46277102828026
 20
-3.97680652737617
 30
0.0
 70
     0
  0
VERTEX
  8
1
 10
9.51775798201561
 20
-3.9814721673727
 30
0.0
 70
     0
  0
VERTEX
  8
1
 10
9.57579329013824
 20
-3.98537742197514
 30
0.0
 70
     0
  0
VERTEX
  8
1
 10
9.63686862587929
 20
-3.98841858506203
 30
0.0
 70
     0
  0
VERTEX
  8
1
 10
9.70096960663795
 20
-3.99048967957497
 30
0.0
 70
     0
  0
VERTEX
  8
1
 10
9.76807806491852
 20
-3.99148586392403
 30
0.0
 70
     0
  0
VERTEX
  8
1
 10
9.83817734718323
 20
-3.99130343198776
 30
0.0
 70
     0
  0
VERTEX
  8
1
 10
9.91124474406242
 20
-3.98983792066574
 30
0.0
 70
     0
  0
VERTEX
  8
1
 10
9.98725603222847
 20
-3.98698524534702
 30
0.0
 70
     0
  0
VERTEX
  8
1
 10
10.0661862313747
 20
-3.98264359235764
 30
0.0
 70
     0
  0
VERTEX
  8
1
 10
10.1480020344257
 20
-3.97670925557613
 30
0.0
 70
     0
  0
VERTEX
  8
1
 10
10.2600515782833
 20
-3.96625234782696
 30
0.0
 70
     0
  0
VERTEX
  8
1
 10
10.4091090679169
 20
-3.55671914517879
 30
0.0
 70
     0
  0
VERTEX
  8
1
 10
10.3299956798553
 20
-3.47668451368809
 30
0.0
 70
     0
  0
VERTEX
  8
1
 10
10.2711352646351
 20
-3.41954811811447
 30
0.0
 70
     0
  0
VERTEX
  8
1
 10
10.213463306427
 20
-3.36548694968224
 30
0.0
 70
     0
  0
VERTEX
  8
1
 10
10.1570676147938
 20
-3.31444272100925
 30
0.0
 70
     0
  0
VERTEX
  8
1
 10
10.1020375132561
 20
-3.26635298132896
 30
0.0
 70
     0
  0
VERTEX
  8
1
 10
10.0484555125237
 20
-3.22115414440632
 30
0.0
 70
     0
  0
VERTEX
  8
1
 10
9.99640639424324
 20
-3.1787807315588
 30
0.0
 70
     0
  0
VERTEX
  8
1
 10
9.94597191214561
 20
-3.13916423618793
 30
0.0
 70
     0
  0
VERTEX
  8
1
 10
9.89723079204559
 20
-3.10223520547152
 30
0.0
 70
     0
  0
VERTEX
  8
1
 10
9.85026251673698
 20
-3.06792229413986
 30
0.0
 70
     0
  0
VERTEX
  8
1
 10
9.80514051318169
 20
-3.03615131825209
 30
0.0
 70
     0
  0
VERTEX
  8
1
 10
9.76194047927856
 20
-3.00684733688831
 30
0.0
 70
     0
  0
VERTEX
  8
1
 10
9.70089769363403
 20
-2.96734609156847
 30
0.0
 70
     0
  0
VERTEX
  8
1
 10
9.64457088708878
 20
-2.93295312970877
 30
0.0
 70
     0
  0
VERTEX
  8
1
 10
9.59318185448647
 20
-2.90339120775461
 30
0.0
 70
     0
  0
VERTEX
  8
1
 10
9.53270528912544
 20
-2.87099837362766
 30
0.0
 70
     0
  0
VERTEX
  8
1
 10
9.48184614181518
 20
-2.84599346518517
 30
0.0
 70
     0
  0
VERTEX
  8
1
 10
9.43244493603706
 20
-2.82403236925602
 30
0.0
 70
     0
  0
VERTEX
  8
1
 10
9.38221483826637
 20
-2.80510638058186
 30
0.0
 70
     0
  0
VERTEX
  8
1
 10
9.29098827242851
 20
-2.7778312921524
 30
0.0
 42
-0.00004363324566
 70
     0
  0
VERTEX
  8
1
 10
9.43514508008957
 20
-2.23983137458563
 30
0.0
 70
     0
  0
VERTEX
  8
1
 10
9.5277871966362
 20
-2.2618238851428
 30
0.0
 70
     0
  0
VERTEX
  8
1
 10
9.58075150251388
 20
-2.27054863572121
 30
0.0
 70
     0
  0
VERTEX
  8
1
 10
9.63451290726662
 20
-2.2762301415205
 30
0.0
 70
     0
  0
VERTEX
  8
1
 10
9.69106150865555
 20
-2.28000519573689
 30
0.0
 70
     0
  0
VERTEX
  8
1
 10
9.75963169336319
 20
-2.28219059407711
 30
0.0
 70
     0
  0
VERTEX
  8
1
 10
9.81891677379608
 20
-2.28228389173746
 30
0.0
 70
     0
  0
VERTEX
  8
1
 10
9.88489506244659
 20
-2.28066206425428
 30
0.0
 70
     0
  0
VERTEX
  8
1
 10
9.95750902891159
 20
-2.27697444111109
 30
0.0
 70
     0
  0
VERTEX
  8
1
 10
10.0095740437508
 20
-2.27319635897875
 30
0.0
 70
     0
  0
VERTEX
  8
1
 10
10.0645352602005
 20
-2.26824249923229
 30
0.0
 70
     0
  0
VERTEX
  8
1
 10
10.1223684549332
 20
-2.26201104819775
 30
0.0
 70
     0
  0
VERTEX
  8
1
 10
10.1830433487892
 20
-2.25440019220114
 30
0.0
 70
     0
  0
VERTEX
  8
1
 10
10.2465296626091
 20
-2.24530906379223
 30
0.0
 70
     0
  0
VERTEX
  8
1
 10
10.3127910614014
 20
-2.23463679552078
 30
0.0
 70
     0
  0
VERTEX
  8
1
 10
10.3817942380905
 20
-2.22228460162878
 30
0.0
 70
     0
  0
VERTEX
  8
1
 10
10.4534975588322
 20
-2.20815312862396
 30
0.0
 70
     0
  0
VERTEX
  8
1
 10
10.527859389782
 20
-2.19214491546154
 30
0.0
 70
     0
  0
VERTEX
  8
1
 10
10.6048350691795
 20
-2.17416306883097
 30
0.0
 70
     0
  0
VERTEX
  8
1
 10
10.6843776643276
 20
-2.15411164164543
 30
0.0
 70
     0
  0
VERTEX
  8
1
 10
10.792909526825
 20
-2.12435650080442
 30
0.0
 70
     0
  0
VERTEX
  8
1
 10
10.868587744236
 20
-1.69516114741564
 30
0.0
 70
     0
  0
VERTEX
  8
1
 10
10.7767783045769
 20
-1.63008063584566
 30
0.0
 70
     0
  0
VERTEX
  8
1
 10
10.708890914917
 20
-1.58403294160962
 30
0.0
 70
     0
  0
VERTEX
  8
1
 10
10.6427074849606
 20
-1.54080811664462
 30
0.0
 70
     0
  0
VERTEX
  8
1
 10
10.5783052265644
 20
-1.5003318823874
 30
0.0
 70
     0
  0
VERTEX
  8
1
 10
10.5157590806484
 20
-1.46252901405096
 30
0.0
 70
     0
  0
VERTEX
  8
1
 10
10.4551424741745
 20
-1.42732116430998
 30
0.0
 70
     0
  0
VERTEX
  8
1
 10
10.3965265631676
 20
-1.39462960734963
 30
0.0
 70
     0
  0
VERTEX
  8
1
 10
10.3399787187576
 20
-1.36437296792865
 30
0.0
 70
     0
  0
VERTEX
  8
1
 10
10.2855655550957
 20
-1.336468924582
 30
0.0
 70
     0
  0
VERTEX
  8
1
 10
10.2333521723747
 20
-1.31083335801959
 30
0.0
 70
     0
  0
VERTEX
  8
1
 10
10.1833991289139
 20
-1.28738025650382
 30
0.0
 70
     0
  0
VERTEX
  8
1
 10
10.1357669830322
 20
-1.26602285131812
 30
0.0
 70
     0
  0
VERTEX
  8
1
 10
10.0687925100327
 20
-1.23772177249193
 30
0.0
 70
     0
  0
VERTEX
  8
1
 10
10.0073492825031
 20
-1.21363214626908
 30
0.0
 70
     0
  0
VERTEX
  8
1
 10
9.9516068637371
 20
-1.19344304352999
 30
0.0
 70
     0
  0
VERTEX
  8
1
 10
9.88642416000366
 20
-1.17204400449991
 30
0.0
 70
     0
  0
VERTEX
  8
1
 10
9.83199585676193
 20
-1.15625077337027
 30
0.0
 70
     0
  0
VERTEX
  8
1
 10
9.77953191399574
 20
-1.14320168569684
 30
0.0
 70
     0
  0
VERTEX
  8
1
 10
9.72677880525589
 20
-1.13328554481268
 30
0.0
 70
     0
  0
VERTEX
  8
1
 10
9.63220185041428
 20
-1.12226620167494
 30
0.0
 42
-0.000043633236535
 70
     0
  0
SEQEND
  0
TEXT
  8
NOTES
 10
-11.0
 20
-12.1000003814697
 30
0.0
 11
-11.0
 21
-12.1000003814697
 31
0.0
 40
0.439999580383301
  1
Diametral Pitch: 43.8727272060407
 41
1.0
  7
ARIAL
  0
TEXT
  8
NOTES
 10
-11.0
 20
-12.9800004959106
 30
0.0
 11
-11.0
 21
-12.9800004959106
 31
0.0
 40
0.439999580383301
  1
Number Of Teeth: 36
 41
1.0
  7
ARIAL
  0
TEXT
  8
NOTES
 10
-11.0
 20
-13.8600006103516
 30
0.0
 11
-11.0
 21
-13.8600006103516
 31
0.0
 40
0.439999580383301
  1
Pressure Angle: 20
 41
1.0
  7
ARIAL
  0
ENDSEC
  0
EOF
