  0
SECTION
  2
HEADER
  9
$MEASUREMENT
 70
     1
  0
ENDSEC
  0
SECTION
  2
TABLES
  0
TABLE
  2
LTYPE
 70
     1
  0
LTYPE
  2
Continuous
  3
_
 70
     0
 72
    65
 73
     0
 40
0.0
  0
ENDTAB
  0
TABLE
  2
LAYER
 70
     2
  0
LAYER
  2
1
 70
     0
 62
     7
  6
Continuous
  0
LAYER
  2
NOTES
 70
     0
 62
     1
  6
Continuous
  0
ENDTAB
  0
TABLE
  2
STYLE
 70
     1
  0
STYLE
  2
ARIAL
  3
Arial.ttf
 70
     0
 40
0.0
 41
1.0
 50
0.0
 71
     0
 42
1.0
  0
ENDTAB
  0
ENDSEC
  0
SECTION
  2
ENTITIES
  0
POLYLINE
  8
1
 66
     1
 10
0.0
 20
0.0
 70
     1
  0
VERTEX
  8
1
 10
7.70957211256027
 20
-0.79054741114378
 30
0.0
 70
     0
  0
VERTEX
  8
1
 10
8.41311822533607
 20
-0.862687224894762
 30
0.0
 70
     0
  0
VERTEX
  8
1
 10
8.46750186681747
 20
-0.864131540805101
 30
0.0
 70
     0
  0
VERTEX
  8
1
 10
8.52927665114403
 20
-0.861716304719448
 30
0.0
 70
     0
  0
VERTEX
  8
1
 10
8.58319475054741
 20
-0.857305104285479
 30
0.0
 70
     0
  0
VERTEX
  8
1
 10
8.6471609890461
 20
-0.849822556227446
 30
0.0
 70
     0
  0
VERTEX
  8
1
 10
8.70163395404816
 20
-0.841770381480455
 30
0.0
 70
     0
  0
VERTEX
  8
1
 10
8.76158744692802
 20
-0.831298901885748
 30
0.0
 70
     0
  0
VERTEX
  8
1
 10
8.82692911624908
 20
-0.818116491287947
 30
0.0
 70
     0
  0
VERTEX
  8
1
 10
8.89755298495293
 20
-0.801934646070003
 30
0.0
 70
     0
  0
VERTEX
  8
1
 10
8.94751359820366
 20
-0.789339461922645
 30
0.0
 70
     0
  0
VERTEX
  8
1
 10
8.9997337937355
 20
-0.775201270729303
 30
0.0
 70
     0
  0
VERTEX
  8
1
 10
9.05417345166206
 20
-0.759437467157841
 30
0.0
 70
     0
  0
VERTEX
  8
1
 10
9.11079093813896
 20
-0.741966581344604
 30
0.0
 70
     0
  0
VERTEX
  8
1
 10
9.16954386234283
 20
-0.72270790040493
 30
0.0
 70
     0
  0
VERTEX
  8
1
 10
9.23038604855537
 20
-0.701581894233823
 30
0.0
 70
     0
  0
VERTEX
  8
1
 10
9.29326753616333
 20
-0.678509931638837
 30
0.0
 70
     0
  0
VERTEX
  8
1
 10
9.35813987851143
 20
-0.65341480076313
 30
0.0
 70
     0
  0
VERTEX
  8
1
 10
9.42495008707047
 20
-0.626220235973597
 30
0.0
 70
     0
  0
VERTEX
  8
1
 10
9.49364517331123
 20
-0.596851154416799
 30
0.0
 70
     0
  0
VERTEX
  8
1
 10
9.5641676068306
 20
-0.56523384526372
 30
0.0
 70
     0
  0
VERTEX
  8
1
 10
9.63645910024643
 20
-0.531295969709754
 30
0.0
 70
     0
  0
VERTEX
  8
1
 10
9.71046060919762
 20
-0.494966324418783
 30
0.0
 70
     0
  0
VERTEX
  8
1
 10
9.7861093044281
 20
-0.456175361946225
 30
0.0
 70
     0
  0
VERTEX
  8
1
 10
9.86334008574486
 20
-0.414854859560728
 30
0.0
 70
     0
  0
VERTEX
  8
1
 10
9.94208936691284
 20
-0.370938108488917
 30
0.0
 70
     0
  0
VERTEX
  8
1
 10
9.99419450163841
 20
-0.340675791725516
 30
0.0
 70
     0
  0
VERTEX
  8
1
 10
9.99419298768044
 20
0.340675271302462
 30
0.0
 70
     0
  0
VERTEX
  8
1
 10
9.94208785295486
 20
0.370937588065863
 30
0.0
 70
     0
  0
VERTEX
  8
1
 10
9.86333932876587
 20
0.414854291826487
 30
0.0
 70
     0
  0
VERTEX
  8
1
 10
9.78610779047012
 20
0.456174652278423
 30
0.0
 70
     0
  0
VERTEX
  8
1
 10
9.71045985221863
 20
0.494965662062168
 30
0.0
 70
     0
  0
VERTEX
  8
1
 10
9.63645910024643
 20
0.531295260041952
 30
0.0
 70
     0
  0
VERTEX
  8
1
 10
9.56416609287262
 20
0.565233561396599
 30
0.0
 70
     0
  0
VERTEX
  8
1
 10
9.49364365935326
 20
0.596850681304932
 30
0.0
 70
     0
  0
VERTEX
  8
1
 10
9.42494933009148
 20
0.626219573616981
 30
0.0
 70
     0
  0
VERTEX
  8
1
 10
9.35813836455345
 20
0.653414043784141
 30
0.0
 70
     0
  0
VERTEX
  8
1
 10
9.29326677918434
 20
0.678509316593409
 30
0.0
 70
     0
  0
VERTEX
  8
1
 10
9.23038377761841
 20
0.701581373810768
 30
0.0
 70
     0
  0
VERTEX
  8
1
 10
9.16954310536384
 20
0.722707238048315
 30
0.0
 70
     0
  0
VERTEX
  8
1
 10
9.11079018115997
 20
0.741966013610363
 30
0.0
 70
     0
  0
VERTEX
  8
1
 10
9.05417269468308
 20
0.759436804801226
 30
0.0
 70
     0
  0
VERTEX
  8
1
 10
8.99973227977753
 20
0.775200608372688
 30
0.0
 70
     0
  0
VERTEX
  8
1
 10
8.94751284122467
 20
0.789338988810778
 30
0.0
 70
     0
  0
VERTEX
  8
1
 10
8.89755147099495
 20
0.801933983713388
 30
0.0
 70
     0
  0
VERTEX
  8
1
 10
8.8269283592701
 20
0.818116018176079
 30
0.0
 70
     0
  0
VERTEX
  8
1
 10
8.76158668994904
 20
0.831298239529133
 30
0.0
 70
     0
  0
VERTEX
  8
1
 10
8.70163168311119
 20
0.841770002990961
 30
0.0
 70
     0
  0
VERTEX
  8
1
 10
8.64715947508812
 20
0.849821799248457
 30
0.0
 70
     0
  0
VERTEX
  8
1
 10
8.58319323658943
 20
0.857304441928863
 30
0.0
 70
     0
  0
VERTEX
  8
1
 10
8.52927589416504
 20
0.861715642362833
 30
0.0
 70
     0
  0
VERTEX
  8
1
 10
8.46750186681747
 20
0.864131067693233
 30
0.0
 70
     0
  0
VERTEX
  8
1
 10
8.41311746835709
 20
0.862686657160521
 30
0.0
 70
     0
  0
VERTEX
  8
1
 10
7.70957286953926
 20
0.79054490365088
 30
0.0
 42
-0.000043633226908
 70
     0
  0
VERTEX
  8
1
 10
7.51501185894012
 20
1.89395972639322
 30
0.0
 70
     0
  0
VERTEX
  8
1
 10
8.20080075860023
 20
2.06679468303919
 30
0.0
 70
     0
  0
VERTEX
  8
1
 10
8.25239871740341
 20
2.08403771817684
 30
0.0
 70
     0
  0
VERTEX
  8
1
 10
8.30962178707123
 20
2.10743556022644
 30
0.0
 70
     0
  0
VERTEX
  8
1
 10
8.35877924561501
 20
2.13002192080021
 30
0.0
 70
     0
  0
VERTEX
  8
1
 10
8.41632857322693
 20
2.15893075913191
 30
0.0
 70
     0
  0
VERTEX
  8
1
 10
8.46476235985756
 20
2.18512828797102
 30
0.0
 70
     0
  0
VERTEX
  8
1
 10
8.51751925349235
 20
2.21547349393368
 30
0.0
 70
     0
  0
VERTEX
  8
1
 10
8.57441152334213
 20
2.25020917803049
 30
0.0
 70
     0
  0
VERTEX
  8
1
 10
8.63524235486984
 20
2.28956981450319
 30
0.0
 70
     0
  0
VERTEX
  8
1
 10
8.67788146734238
 20
2.31849303543568
 30
0.0
 70
     0
  0
VERTEX
  8
1
 10
8.72211704850197
 20
2.34963912516832
 30
0.0
 70
     0
  0
VERTEX
  8
1
 10
8.76788172721863
 20
2.38307148069143
 30
0.0
 70
     0
  0
VERTEX
  8
1
 10
8.81510964632034
 20
2.41885312050581
 30
0.0
 70
     0
  0
VERTEX
  8
1
 10
8.86373267769813
 20
2.45704517066479
 30
0.0
 70
     0
  0
VERTEX
  8
1
 10
8.91367966532707
 20
2.49770629703999
 30
0.0
 70
     0
  0
VERTEX
  8
1
 10
8.96487869620323
 20
2.5408934623003
 30
0.0
 70
     0
  0
VERTEX
  8
1
 10
9.01725482940674
 20
2.58666268289089
 30
0.0
 70
     0
  0
VERTEX
  8
1
 10
9.07073539495468
 20
2.63506770431995
 30
0.0
 70
     0
  0
VERTEX
  8
1
 10
9.12524242401123
 20
2.6861607581377
 30
0.0
 70
     0
  0
VERTEX
  8
1
 10
9.18069870471954
 20
2.73999123722315
 30
0.0
 70
     0
  0
VERTEX
  8
1
 10
9.23702248334885
 20
2.79660758823156
 30
0.0
 70
     0
  0
VERTEX
  8
1
 10
9.29413579106331
 20
2.85605636537075
 30
0.0
 70
     0
  0
VERTEX
  8
1
 10
9.35195536017418
 20
2.91838147342205
 30
0.0
 70
     0
  0
VERTEX
  8
1
 10
9.41039565205574
 20
2.98362435698509
 30
0.0
 70
     0
  0
VERTEX
  8
1
 10
9.46937566995621
 20
3.0518264606595
 30
0.0
 70
     0
  0
VERTEX
  8
1
 10
9.50798765420914
 20
3.09808487892151
 30
0.0
 70
     0
  0
VERTEX
  8
1
 10
9.27495091557503
 20
3.73834489881992
 30
0.0
 70
     0
  0
VERTEX
  8
1
 10
9.21563782691956
 20
3.74896115064621
 30
0.0
 70
     0
  0
VERTEX
  8
1
 10
9.1266178548336
 20
3.76329568326473
 30
0.0
 70
     0
  0
VERTEX
  8
1
 10
9.03991196751594
 20
3.77570900321007
 30
0.0
 70
     0
  0
VERTEX
  8
1
 10
8.955558770895
 20
3.78628816306591
 30
0.0
 70
     0
  0
VERTEX
  8
1
 10
8.87359459996223
 20
3.79511680901051
 30
0.0
 70
     0
  0
VERTEX
  8
1
 10
8.79405427575111
 20
3.80228275060654
 30
0.0
 70
     0
  0
VERTEX
  8
1
 10
8.71697110533714
 20
3.8078730404377
 30
0.0
 70
     0
  0
VERTEX
  8
1
 10
8.64237461090088
 20
3.81197586655617
 30
0.0
 70
     0
  0
VERTEX
  8
1
 10
8.57029204368591
 20
3.81467941701412
 30
0.0
 70
     0
  0
VERTEX
  8
1
 10
8.50074989795685
 20
3.8160741508007
 30
0.0
 70
     0
  0
VERTEX
  8
1
 10
8.43376785516739
 20
3.8162474989891
 30
0.0
 70
     0
  0
VERTEX
  8
1
 10
8.36937089562416
 20
3.81529067754745
 30
0.0
 70
     0
  0
VERTEX
  8
1
 10
8.30757415890694
 20
3.81329338848591
 30
0.0
 70
     0
  0
VERTEX
  8
1
 10
8.24839581251144
 20
3.81034609079361
 30
0.0
 70
     0
  0
VERTEX
  8
1
 10
8.19184645414352
 20
3.8065396219492
 30
0.0
 70
     0
  0
VERTEX
  8
1
 10
8.13794122338295
 20
3.8019651979208
 30
0.0
 70
     0
  0
VERTEX
  8
1
 10
8.08668541908264
 20
3.79671289920807
 30
0.0
 70
     0
  0
VERTEX
  8
1
 10
8.01478604078293
 20
3.78776427209377
 30
0.0
 70
     0
  0
VERTEX
  8
1
 10
7.94887663722038
 20
3.77780356407166
 30
0.0
 70
     0
  0
VERTEX
  8
1
 10
7.88895645141602
 20
3.76713810861111
 30
0.0
 70
     0
  0
VERTEX
  8
1
 10
7.83501488566399
 20
3.75607372522354
 30
0.0
 70
     0
  0
VERTEX
  8
1
 10
7.77234686613083
 20
3.7412270963192
 30
0.0
 70
     0
  0
VERTEX
  8
1
 10
7.72017284631729
 20
3.72693154811859
 30
0.0
 70
     0
  0
VERTEX
  8
1
 10
7.66129804849625
 20
3.70807330906391
 30
0.0
 70
     0
  0
VERTEX
  8
1
 10
7.61068719029427
 20
3.68811555802822
 30
0.0
 70
     0
  0
VERTEX
  8
1
 10
6.97424575090408
 20
3.37969809472561
 30
0.0
 42
-0.000043633230325
 70
     0
  0
VERTEX
  8
1
 10
6.41402831077576
 20
4.35002517700195
 30
0.0
 70
     0
  0
VERTEX
  8
1
 10
6.99934566020966
 20
4.7469902575016
 30
0.0
 70
     0
  0
VERTEX
  8
1
 10
7.04193481206894
 20
4.78084084391594
 30
0.0
 70
     0
  0
VERTEX
  8
1
 10
7.08770478963852
 20
4.82239899039268
 30
0.0
 70
     0
  0
VERTEX
  8
1
 10
7.12617219090462
 20
4.86043642759323
 30
0.0
 70
     0
  0
VERTEX
  8
1
 10
7.17036386728287
 20
4.90728510022163
 30
0.0
 70
     0
  0
VERTEX
  8
1
 10
7.20691686868668
 20
4.94846778512001
 30
0.0
 70
     0
  0
VERTEX
  8
1
 10
7.24611324071884
 20
4.99502691328525
 30
0.0
 70
     0
  0
VERTEX
  8
1
 10
7.28769409656525
 20
5.04712561368942
 30
0.0
 70
     0
  0
VERTEX
  8
1
 10
7.33139297962189
 20
5.1049183100462
 30
0.0
 70
     0
  0
VERTEX
  8
1
 10
7.36156919002533
 20
5.14668084084988
 30
0.0
 70
     0
  0
VERTEX
  8
1
 10
7.39248421192169
 20
5.19107765853405
 30
0.0
 70
     0
  0
VERTEX
  8
1
 10
7.42405477762222
 20
5.23814661204815
 30
0.0
 70
     0
  0
VERTEX
  8
1
 10
7.45619610548019
 20
5.28792290091515
 30
0.0
 70
     0
  0
VERTEX
  8
1
 10
7.48882492780685
 20
5.34044172465801
 30
0.0
 70
     0
  0
VERTEX
  8
1
 10
7.52185267806053
 20
5.39573374092579
 30
0.0
 70
     0
  0
VERTEX
  8
1
 10
7.55519230365753
 20
5.45382695794105
 30
0.0
 70
     0
  0
VERTEX
  8
1
 10
7.58875675201416
 20
5.51475051939487
 30
0.0
 70
     0
  0
VERTEX
  8
1
 10
7.62245518565178
 20
5.5785275131464
 30
0.0
 70
     0
  0
VERTEX
  8
1
 10
7.65620130896568
 20
5.64518178403377
 30
0.0
 70
     0
  0
VERTEX
  8
1
 10
7.68990125656128
 20
5.7147330135107
 30
0.0
 70
     0
  0
VERTEX
  8
1
 10
7.72346494793892
 20
5.78719899058342
 30
0.0
 70
     0
  0
VERTEX
  8
1
 10
7.75680078864098
 20
5.86259636878967
 30
0.0
 70
     0
  0
VERTEX
  8
1
 10
7.78981718420982
 20
5.94093801677227
 30
0.0
 70
     0
  0
VERTEX
  8
1
 10
7.82241875529289
 20
6.02223415374756
 30
0.0
 70
     0
  0
VERTEX
  8
1
 10
7.85451542139053
 20
6.10649537742138
 30
0.0
 70
     0
  0
VERTEX
  8
1
 10
7.87497807741165
 20
6.16317001581192
 30
0.0
 70
     0
  0
VERTEX
  8
1
 10
7.43701274394989
 20
6.68511459827423
 30
0.0
 70
     0
  0
VERTEX
  8
1
 10
7.37764515280724
 20
6.67480378746986
 30
0.0
 70
     0
  0
VERTEX
  8
1
 10
7.28909223675728
 20
6.65782777667046
 30
0.0
 70
     0
  0
VERTEX
  8
1
 10
7.2033681511879
 20
6.63983741402626
 30
0.0
 70
     0
  0
VERTEX
  8
1
 10
7.12048425078392
 20
6.62092732191086
 30
0.0
 70
     0
  0
VERTEX
  8
1
 10
7.04044432044029
 20
6.60119060873985
 30
0.0
 70
     0
  0
VERTEX
  8
1
 10
6.96324987411499
 20
6.58072038292885
 30
0.0
 70
     0
  0
VERTEX
  8
1
 10
6.88890393972397
 20
6.55960899591446
 30
0.0
 70
     0
  0
VERTEX
  8
1
 10
6.81740273237228
 20
6.53795107007027
 30
0.0
 70
     0
  0
VERTEX
  8
1
 10
6.74874246716499
 20
6.5158381998539
 30
0.0
 70
     0
  0
VERTEX
  8
1
 10
6.6829163312912
 20
6.49336349368095
 30
0.0
 70
     0
  0
VERTEX
  8
1
 10
6.61991524100304
 20
6.47061703205109
 30
0.0
 70
     0
  0
VERTEX
  8
1
 10
6.55972935557365
 20
6.44769343733788
 30
0.0
 70
     0
  0
VERTEX
  8
1
 10
6.5023420214653
 20
6.424680519104
 30
0.0
 70
     0
  0
VERTEX
  8
1
 10
6.44774112701416
 20
6.40167062878609
 30
0.0
 70
     0
  0
VERTEX
  8
1
 10
6.39590396285057
 20
6.37875308990478
 30
0.0
 70
     0
  0
VERTEX
  8
1
 10
6.34681425392628
 20
6.35601722598076
 30
0.0
 70
     0
  0
VERTEX
  8
1
 10
6.30044550597668
 20
6.33355160355568
 30
0.0
 70
     0
  0
VERTEX
  8
1
 10
6.23594370484352
 20
6.30055224001408
 30
0.0
 70
     0
  0
VERTEX
  8
1
 10
6.17741560339928
 20
6.26864973902702
 30
0.0
 70
     0
  0
VERTEX
  8
1
 10
6.12475636005402
 20
6.23813288807869
 30
0.0
 70
     0
  0
VERTEX
  8
1
 10
6.07785242795944
 20
6.20928706824779
 30
0.0
 70
     0
  0
VERTEX
  8
1
 10
6.02404181957245
 20
6.17390246391296
 30
0.0
 70
     0
  0
VERTEX
  8
1
 10
5.9799031317234
 20
6.14262409210205
 30
0.0
 70
     0
  0
VERTEX
  8
1
 10
5.93102878332138
 20
6.1047668159008
 30
0.0
 70
     0
  0
VERTEX
  8
1
 10
5.89029612243175
 20
6.06870244443417
 30
0.0
 70
     0
  0
VERTEX
  8
1
 10
5.39772194623947
 20
5.56120934784412
 30
0.0
 42
-0.000043633224411
 70
     0
  0
VERTEX
  8
1
 10
4.53941829204559
 20
6.28141240477562
 30
0.0
 70
     0
  0
VERTEX
  8
1
 10
4.95366671681404
 20
6.854628688097
 30
0.0
 70
     0
  0
VERTEX
  8
1
 10
4.98210944533348
 20
6.9010042488575
 30
0.0
 70
     0
  0
VERTEX
  8
1
 10
5.01090530455112
 20
6.95570960640907
 30
0.0
 70
     0
  0
VERTEX
  8
1
 10
5.03404388129711
 20
7.0046104490757
 30
0.0
 70
     0
  0
VERTEX
  8
1
 10
5.05954688191414
 20
7.06374867558479
 30
0.0
 70
     0
  0
VERTEX
  8
1
 10
5.07981007397175
 20
7.11494922041893
 30
0.0
 70
     0
  0
VERTEX
  8
1
 10
5.10071821212768
 20
7.17210643291473
 30
0.0
 70
     0
  0
VERTEX
  8
1
 10
5.12197266817093
 20
7.23528465628624
 30
0.0
 70
     0
  0
VERTEX
  8
1
 10
5.14327102899551
 20
7.30453763604164
 30
0.0
 70
     0
  0
VERTEX
  8
1
 10
5.15734326839447
 20
7.35410234928131
 30
0.0
 70
     0
  0
VERTEX
  8
1
 10
5.17120960950851
 20
7.40639521479607
 30
0.0
 70
     0
  0
VERTEX
  8
1
 10
5.18477732241154
 20
7.46142380237579
 30
0.0
 70
     0
  0
VERTEX
  8
1
 10
5.19795594811439
 20
7.51919113993645
 30
0.0
 70
     0
  0
VERTEX
  8
1
 10
5.21065389215946
 20
7.57970176935196
 30
0.0
 70
     0
  0
VERTEX
  8
1
 10
5.22277956008911
 20
7.64295569062233
 30
0.0
 70
     0
  0
VERTEX
  8
1
 10
5.23423908650875
 20
7.70894911885262
 30
0.0
 70
     0
  0
VERTEX
  8
1
 10
5.24494239091873
 20
7.77767751216888
 30
0.0
 70
     0
  0
VERTEX
  8
1
 10
5.25479636490345
 20
7.84913405776024
 30
0.0
 70
     0
  0
VERTEX
  8
1
 10
5.26370941400528
 20
7.9233104288578
 30
0.0
 70
     0
  0
VERTEX
  8
1
 10
5.27158880829811
 20
8.00019299983978
 30
0.0
 70
     0
  0
VERTEX
  8
1
 10
5.27834371030331
 20
8.07976890206337
 30
0.0
 70
     0
  0
VERTEX
  8
1
 10
5.28388214707375
 20
8.16201996803284
 30
0.0
 70
     0
  0
VERTEX
  8
1
 10
5.2881125241518
 20
8.24692954421043
 30
0.0
 70
     0
  0
VERTEX
  8
1
 10
5.29094324707985
 20
8.33447340726852
 30
0.0
 70
     0
  0
VERTEX
  8
1
 10
5.29228461384773
 20
8.42463036179542
 30
0.0
 70
     0
  0
VERTEX
  8
1
 10
5.29212943315506
 20
8.48488588929176
 30
0.0
 70
     0
  0
VERTEX
  8
1
 10
4.70206128358841
 20
8.82556049823761
 30
0.0
 70
     0
  0
VERTEX
  8
1
 10
4.64980096817017
 20
8.79556747674942
 30
0.0
 70
     0
  0
VERTEX
  8
1
 10
4.57239381074905
 20
8.74932741522789
 30
0.0
 70
     0
  0
VERTEX
  8
1
 10
4.49799337387085
 20
8.70310325026512
 30
0.0
 70
     0
  0
VERTEX
  8
1
 10
4.42657543420792
 20
8.65698506236076
 30
0.0
 70
     0
  0
VERTEX
  8
1
 10
4.35811274051666
 20
8.61106444597244
 30
0.0
 70
     0
  0
VERTEX
  8
1
 10
4.29257463514805
 20
8.5654254257679
 30
0.0
 70
     0
  0
VERTEX
  8
1
 10
4.22993273139
 20
8.52015959620476
 30
0.0
 70
     0
  0
VERTEX
  8
1
 10
4.17015145123005
 20
8.47535325288773
 30
0.0
 70
     0
  0
VERTEX
  8
1
 10
4.11319483816624
 20
8.43109042048454
 30
0.0
 70
     0
  0
VERTEX
  8
1
 10
4.05902580022812
 20
8.3874581515789
 30
0.0
 70
     0
  0
VERTEX
  8
1
 10
4.00760346055031
 20
8.34453517198563
 30
0.0
 70
     0
  0
VERTEX
  8
1
 10
3.95888732075691
 20
8.30240853428841
 30
0.0
 70
     0
  0
VERTEX
  8
1
 10
3.91283234059811
 20
8.26115696430206
 30
0.0
 70
     0
  0
VERTEX
  8
1
 10
3.86939347982407
 20
8.2208599448204
 30
0.0
 70
     0
  0
VERTEX
  8
1
 10
3.82852153480053
 20
8.18159468770027
 30
0.0
 70
     0
  0
VERTEX
  8
1
 10
3.79016768038273
 20
8.14344067573547
 30
0.0
 70
     0
  0
VERTEX
  8
1
 10
3.75427930653095
 20
8.10647057890892
 30
0.0
 70
     0
  0
VERTEX
  8
1
 10
3.7049537986517
 20
8.05340029597282
 30
0.0
 70
     0
  0
VERTEX
  8
1
 10
3.66086658537388
 20
8.00340410470963
 30
0.0
 70
     0
  0
VERTEX
  8
1
 10
3.62182047367096
 20
7.95671742558479
 30
0.0
 70
     0
  0
VERTEX
  8
1
 10
3.587611079216
 20
7.9135688662529
 30
0.0
 70
     0
  0
VERTEX
  8
1
 10
3.54914784133434
 20
7.86191337704658
 30
0.0
 70
     0
  0
VERTEX
  8
1
 10
3.51836907565594
 20
7.81742572188377
 30
0.0
 70
     0
  0
VERTEX
  8
1
 10
3.48539015054703
 20
7.76513588428497
 30
0.0
 70
     0
  0
VERTEX
  8
1
 10
3.45944885909557
 20
7.71731449365616
 30
0.0
 70
     0
  0
VERTEX
  8
1
 10
3.17015325278044
 20
7.0719565987587
 30
0.0
 42
-0.000043633227498
 70
     0
  0
VERTEX
  8
1
 10
2.11728764176369
 20
7.4551688849926
 30
0.0
 70
     0
  0
VERTEX
  8
1
 10
2.31050274372101
 20
8.1354976952076
 30
0.0
 70
     0
  0
VERTEX
  8
1
 10
2.32136879861355
 20
8.18880415558815
 30
0.0
 70
     0
  0
VERTEX
  8
1
 10
2.32971733063459
 20
8.25005965232849
 30
0.0
 70
     0
  0
VERTEX
  8
1
 10
2.33473591208458
 20
8.30392476320267
 30
0.0
 70
     0
  0
VERTEX
  8
1
 10
2.33847463130951
 20
8.36821801662445
 30
0.0
 70
     0
  0
VERTEX
  8
1
 10
2.34000391811132
 20
8.42326250076294
 30
0.0
 70
     0
  0
VERTEX
  8
1
 10
2.34010232537985
 20
8.4841236114502
 30
0.0
 70
     0
  0
VERTEX
  8
1
 10
2.33846668303013
 20
8.55076122879982
 30
0.0
 70
     0
  0
VERTEX
  8
1
 10
2.33479438871145
 20
8.62312236428261
 30
0.0
 70
     0
  0
VERTEX
  8
1
 10
2.33106607794762
 20
8.67451063990593
 30
0.0
 70
     0
  0
VERTEX
  8
1
 10
2.32621062546968
 20
8.72839240431786
 30
0.0
 70
     0
  0
VERTEX
  8
1
 10
2.32013965398073
 20
8.78474267721176
 30
0.0
 70
     0
  0
VERTEX
  8
1
 10
2.31276573240757
 20
8.84353345036507
 30
0.0
 70
     0
  0
VERTEX
  8
1
 10
2.3040018081665
 20
8.90473822951317
 30
0.0
 70
     0
  0
VERTEX
  8
1
 10
2.29376196414232
 20
8.96832446455955
 30
0.0
 70
     0
  0
VERTEX
  8
1
 10
2.28195971548557
 20
9.03425733447075
 30
0.0
 70
     0
  0
VERTEX
  8
1
 10
2.26851084828377
 20
9.10250201821327
 30
0.0
 70
     0
  0
VERTEX
  8
1
 10
2.25333095937967
 20
9.17301915287971
 30
0.0
 70
     0
  0
VERTEX
  8
1
 10
2.23633678108454
 20
9.24577088952064
 30
0.0
 70
     0
  0
VERTEX
  8
1
 10
2.21744599193335
 20
9.32071180939674
 30
0.0
 70
     0
  0
VERTEX
  8
1
 10
2.19657683819532
 20
9.39779800772667
 30
0.0
 70
     0
  0
VERTEX
  8
1
 10
2.17364945858717
 20
9.4769840657711
 30
0.0
 70
     0
  0
VERTEX
  8
1
 10
2.14858399182558
 20
9.55822002291679
 30
0.0
 70
     0
  0
VERTEX
  8
1
 10
2.12130227982998
 20
9.64145213365555
 30
0.0
 70
     0
  0
VERTEX
  8
1
 10
2.09172729998827
 20
9.7266311943531
 30
0.0
 70
     0
  0
VERTEX
  8
1
 10
2.07097282856703
 20
9.78320023417473
 30
0.0
 70
     0
  0
VERTEX
  8
1
 10
1.39997264891863
 20
9.90151377916336
 30
0.0
 70
     0
  0
VERTEX
  8
1
 10
1.3611221216619
 20
9.85545463562012
 30
0.0
 70
     0
  0
VERTEX
  8
1
 10
1.30419815331697
 20
9.7855294585228
 30
0.0
 70
     0
  0
VERTEX
  8
1
 10
1.25009459406137
 20
9.71664588451385
 30
0.0
 70
     0
  0
VERTEX
  8
1
 10
1.1987566575408
 20
9.6488833963871
 30
0.0
 70
     0
  0
VERTEX
  8
1
 10
1.15012889504433
 20
9.58231542110443
 30
0.0
 70
     0
  0
VERTEX
  8
1
 10
1.10415264070034
 20
9.51701387166977
 30
0.0
 70
     0
  0
VERTEX
  8
1
 10
1.06076979637146
 20
9.45305368900299
 30
0.0
 70
     0
  0
VERTEX
  8
1
 10
1.01991847902536
 20
9.39050224423409
 30
0.0
 70
     0
  0
VERTEX
  8
1
 10
0.9815354809165
 20
9.32942842245102
 30
0.0
 70
     0
  0
VERTEX
  8
1
 10
0.945556648075581
 20
9.26990035176277
 30
0.0
 70
     0
  0
VERTEX
  8
1
 10
0.911915744841099
 20
9.21197934746742
 30
0.0
 70
     0
  0
VERTEX
  8
1
 10
0.880545873194933
 20
9.15573126673698
 30
0.0
 70
     0
  0
VERTEX
  8
1
 10
0.851377391070127
 20
9.10121515393257
 30
0.0
 70
     0
  0
VERTEX
  8
1
 10
0.824340561777353
 20
9.04849156737328
 30
0.0
 70
     0
  0
VERTEX
  8
1
 10
0.7993627153337
 20
8.99761576652527
 30
0.0
 70
     0
  0
VERTEX
  8
1
 10
0.776371371001005
 20
8.9486445248127
 30
0.0
 70
     0
  0
VERTEX
  8
1
 10
0.755291966348886
 20
8.90162931680679
 30
0.0
 70
     0
  0
VERTEX
  8
1
 10
0.727092228084803
 20
8.83488875031471
 30
0.0
 70
     0
  0
VERTEX
  8
1
 10
0.702763869613409
 20
8.77282934188843
 30
0.0
 70
     0
  0
VERTEX
  8
1
 10
0.682040055841207
 20
8.71560324430466
 30
0.0
 70
     0
  0
VERTEX
  8
1
 10
0.66465158611536
 20
8.66335655450821
 30
0.0
 70
     0
  0
VERTEX
  8
1
 10
0.646175053715706
 20
8.60166200995445
 30
0.0
 70
     0
  0
VERTEX
  8
1
 10
0.632468151301146
 20
8.54932978153229
 30
0.0
 70
     0
  0
VERTEX
  8
1
 10
0.619362479448318
 20
8.48891377449036
 30
0.0
 70
     0
  0
VERTEX
  8
1
 10
0.611341246217489
 20
8.43510543704033
 30
0.0
 70
     0
  0
VERTEX
  8
1
 10
0.560217818617821
 20
7.72972213625908
 30
0.0
 42
-0.000043633236527
 70
     0
  0
VERTEX
  8
1
 10
-0.560218764841557
 20
7.72972213625908
 30
0.0
 70
     0
  0
VERTEX
  8
1
 10
-0.611342192441225
 20
8.43510543704033
 30
0.0
 70
     0
  0
VERTEX
  8
1
 10
-0.619363520294428
 20
8.48891301751137
 30
0.0
 70
     0
  0
VERTEX
  8
1
 10
-0.632469097524881
 20
8.54933053851128
 30
0.0
 70
     0
  0
VERTEX
  8
1
 10
-0.646176094561815
 20
8.60166276693344
 30
0.0
 70
     0
  0
VERTEX
  8
1
 10
-0.66465262696147
 20
8.66335882544517
 30
0.0
 70
     0
  0
VERTEX
  8
1
 10
-0.682041569799185
 20
8.71560475826263
 30
0.0
 70
     0
  0
VERTEX
  8
1
 10
-0.702764815837145
 20
8.77282934188843
 30
0.0
 70
     0
  0
VERTEX
  8
1
 10
-0.727093363553286
 20
8.8348895072937
 30
0.0
 70
     0
  0
VERTEX
  8
1
 10
-0.755293101817369
 20
8.90163007378578
 30
0.0
 70
     0
  0
VERTEX
  8
1
 10
-0.776372459158301
 20
8.94864528179169
 30
0.0
 70
     0
  0
VERTEX
  8
1
 10
-0.799363850802183
 20
8.99761728048325
 30
0.0
 70
     0
  0
VERTEX
  8
1
 10
-0.824341508001089
 20
9.04849232435226
 30
0.0
 70
     0
  0
VERTEX
  8
1
 10
-0.85137852653861
 20
9.10121591091156
 30
0.0
 70
     0
  0
VERTEX
  8
1
 10
-0.880547008663416
 20
9.15573126673698
 30
0.0
 70
     0
  0
VERTEX
  8
1
 10
-0.911917164176702
 20
9.2119808614254
 30
0.0
 70
     0
  0
VERTEX
  8
1
 10
-0.945557878166437
 20
9.26990035176277
 30
0.0
 70
     0
  0
VERTEX
  8
1
 10
-0.981536711007357
 20
9.32942917943001
 30
0.0
 70
     0
  0
VERTEX
  8
1
 10
-1.01991961449385
 20
9.39050224423409
 30
0.0
 70
     0
  0
VERTEX
  8
1
 10
-1.06077131032944
 20
9.45305444598198
 30
0.0
 70
     0
  0
VERTEX
  8
1
 10
-1.10415434390306
 20
9.51701462864876
 30
0.0
 70
     0
  0
VERTEX
  8
1
 10
-1.15013003051281
 20
9.58231542110443
 30
0.0
 70
     0
  0
VERTEX
  8
1
 10
-1.19875779300928
 20
9.6488833963871
 30
0.0
 70
     0
  0
VERTEX
  8
1
 10
-1.25009582415223
 20
9.71664664149284
 30
0.0
 70
     0
  0
VERTEX
  8
1
 10
-1.3041994780302
 20
9.7855294585228
 30
0.0
 70
     0
  0
VERTEX
  8
1
 10
-1.36112382486463
 20
9.85545614957809
 30
0.0
 70
     0
  0
VERTEX
  8
1
 10
-1.39997435212135
 20
9.90151453614235
 30
0.0
 70
     0
  0
VERTEX
  8
1
 10
-2.07097377479076
 20
9.78319796323776
 30
0.0
 70
     0
  0
VERTEX
  8
1
 10
-2.09172843545675
 20
9.72662968039513
 30
0.0
 70
     0
  0
VERTEX
  8
1
 10
-2.12130341529846
 20
9.64145061969757
 30
0.0
 70
     0
  0
VERTEX
  8
1
 10
-2.14858474880457
 20
9.55821775197983
 30
0.0
 70
     0
  0
VERTEX
  8
1
 10
-2.17365040481091
 20
9.47698255181312
 30
0.0
 70
     0
  0
VERTEX
  8
1
 10
-2.19657797366381
 20
9.39779800772667
 30
0.0
 70
     0
  0
VERTEX
  8
1
 10
-2.21744712740183
 20
9.32070953845978
 30
0.0
 70
     0
  0
VERTEX
  8
1
 10
-2.23633772730827
 20
9.24576861858368
 30
0.0
 70
     0
  0
VERTEX
  8
1
 10
-2.25333171635866
 20
9.17301839590073
 30
0.0
 70
     0
  0
VERTEX
  8
1
 10
-2.26851160526276
 20
9.10249974727631
 30
0.0
 70
     0
  0
VERTEX
  8
1
 10
-2.28196066170931
 20
9.03425582051277
 30
0.0
 70
     0
  0
VERTEX
  8
1
 10
-2.29376272112131
 20
8.9683214366436
 30
0.0
 70
     0
  0
VERTEX
  8
1
 10
-2.30400275439024
 20
8.90473671555519
 30
0.0
 70
     0
  0
VERTEX
  8
1
 10
-2.31276667863131
 20
8.84353269338608
 30
0.0
 70
     0
  0
VERTEX
  8
1
 10
-2.32014041095972
 20
8.78474192023277
 30
0.0
 70
     0
  0
VERTEX
  8
1
 10
-2.32621119320393
 20
8.72839089035988
 30
0.0
 70
     0
  0
VERTEX
  8
1
 10
-2.33106702417135
 20
8.67450988292694
 30
0.0
 70
     0
  0
VERTEX
  8
1
 10
-2.33479495644569
 20
8.62312009334564
 30
0.0
 70
     0
  0
VERTEX
  8
1
 10
-2.33846762925386
 20
8.55076047182083
 30
0.0
 70
     0
  0
VERTEX
  8
1
 10
-2.34010308235884
 20
8.48412209749222
 30
0.0
 70
     0
  0
VERTEX
  8
1
 10
-2.34000467509031
 20
8.42325947284698
 30
0.0
 70
     0
  0
VERTEX
  8
1
 10
-2.33847519904375
 20
8.36821725964546
 30
0.0
 70
     0
  0
VERTEX
  8
1
 10
-2.33473647981882
 20
8.3039224922657
 30
0.0
 70
     0
  0
VERTEX
  8
1
 10
-2.32971808761358
 20
8.2500588953495
 30
0.0
 70
     0
  0
VERTEX
  8
1
 10
-2.32136993408203
 20
8.18880339860916
 30
0.0
 70
     0
  0
VERTEX
  8
1
 10
-2.31050368994474
 20
8.13549618124962
 30
0.0
 70
     0
  0
VERTEX
  8
1
 10
-2.11728858798742
 20
7.45516737103462
 30
0.0
 42
-0.000043633233695
 70
     0
  0
VERTEX
  8
1
 10
-3.17015495598316
 20
7.0719565987587
 30
0.0
 70
     0
  0
VERTEX
  8
1
 10
-3.45945113003254
 20
7.71731449365616
 30
0.0
 70
     0
  0
VERTEX
  8
1
 10
-3.4853920429945
 20
7.765134370327
 30
0.0
 70
     0
  0
VERTEX
  8
1
 10
-3.51837096810341
 20
7.8174242079258
 30
0.0
 70
     0
  0
VERTEX
  8
1
 10
-3.5491504907608
 20
7.86191413402557
 30
0.0
 70
     0
  0
VERTEX
  8
1
 10
-3.58761335015297
 20
7.91356810927391
 30
0.0
 70
     0
  0
VERTEX
  8
1
 10
-3.62182350158691
 20
7.95671818256378
 30
0.0
 70
     0
  0
VERTEX
  8
1
 10
-3.66086885631084
 20
8.00340334773064
 30
0.0
 70
     0
  0
VERTEX
  8
1
 10
-3.70495569109917
 20
8.05339953899384
 30
0.0
 70
     0
  0
VERTEX
  8
1
 10
-3.75428157746792
 20
8.10647057890892
 30
0.0
 70
     0
  0
VERTEX
  8
1
 10
-3.7901695728302
 20
8.14343991875649
 30
0.0
 70
     0
  0
VERTEX
  8
1
 10
-3.8285238057375
 20
8.18159544467926
 30
0.0
 70
     0
  0
VERTEX
  8
1
 10
-3.86939537227154
 20
8.22085918784141
 30
0.0
 70
     0
  0
VERTEX
  8
1
 10
-3.91283461153507
 20
8.26115545034409
 30
0.0
 70
     0
  0
VERTEX
  8
1
 10
-3.95888959169388
 20
8.30240853428841
 30
0.0
 70
     0
  0
VERTEX
  8
1
 10
-4.00760610997677
 20
8.34453592896461
 30
0.0
 70
     0
  0
VERTEX
  8
1
 10
-4.05902807116509
 20
8.38745663762093
 30
0.0
 70
     0
  0
VERTEX
  8
1
 10
-4.1131971091032
 20
8.43109042048454
 30
0.0
 70
     0
  0
VERTEX
  8
1
 10
-4.17015334367752
 20
8.47535249590874
 30
0.0
 70
     0
  0
VERTEX
  8
1
 10
-4.22993538081646
 20
8.52015959620476
 30
0.0
 70
     0
  0
VERTEX
  8
1
 10
-4.2925780415535
 20
8.5654254257679
 30
0.0
 70
     0
  0
VERTEX
  8
1
 10
-4.35811463296413
 20
8.61106217503548
 30
0.0
 70
     0
  0
VERTEX
  8
1
 10
-4.42657770514488
 20
8.65698506236076
 30
0.0
 70
     0
  0
VERTEX
  8
1
 10
-4.49799602329731
 20
8.70310325026512
 30
0.0
 70
     0
  0
VERTEX
  8
1
 10
-4.57239608168602
 20
8.74932590126991
 30
0.0
 70
     0
  0
VERTEX
  8
1
 10
-4.64980399608612
 20
8.79556747674942
 30
0.0
 70
     0
  0
VERTEX
  8
1
 10
-4.70206431150436
 20
8.82556049823761
 30
0.0
 70
     0
  0
VERTEX
  8
1
 10
-5.29213094711304
 20
8.4848836183548
 30
0.0
 70
     0
  0
VERTEX
  8
1
 10
-5.29228612780571
 20
8.42462809085846
 30
0.0
 70
     0
  0
VERTEX
  8
1
 10
-5.29094513952732
 20
8.33447189331055
 30
0.0
 70
     0
  0
VERTEX
  8
1
 10
-5.28811365962028
 20
8.24692651629448
 30
0.0
 70
     0
  0
VERTEX
  8
1
 10
-5.28388366103172
 20
8.16201845407486
 30
0.0
 70
     0
  0
VERTEX
  8
1
 10
-5.27834560275078
 20
8.0797666311264
 30
0.0
 70
     0
  0
VERTEX
  8
1
 10
-5.27159070074558
 20
8.00018997192383
 30
0.0
 70
     0
  0
VERTEX
  8
1
 10
-5.26371054947376
 20
7.92330815792084
 30
0.0
 70
     0
  0
VERTEX
  8
1
 10
-5.25479750037193
 20
7.84913254380226
 30
0.0
 70
     0
  0
VERTEX
  8
1
 10
-5.24494314789772
 20
7.77767448425293
 30
0.0
 70
     0
  0
VERTEX
  8
1
 10
-5.23424060046673
 20
7.70894684791565
 30
0.0
 70
     0
  0
VERTEX
  8
1
 10
-5.22277993857861
 20
7.64295266270637
 30
0.0
 70
     0
  0
VERTEX
  8
1
 10
-5.21065540611744
 20
7.57970025539398
 30
0.0
 70
     0
  0
VERTEX
  8
1
 10
-5.19795746207237
 20
7.51918886899948
 30
0.0
 70
     0
  0
VERTEX
  8
1
 10
-5.18477883636951
 20
7.46142153143883
 30
0.0
 70
     0
  0
VERTEX
  8
1
 10
-5.1712103664875
 20
7.4063929438591
 30
0.0
 70
     0
  0
VERTEX
  8
1
 10
-5.15734478235245
 20
7.35410007834435
 30
0.0
 70
     0
  0
VERTEX
  8
1
 10
-5.1432717859745
 20
7.30453536510467
 30
0.0
 70
     0
  0
VERTEX
  8
1
 10
-5.12197418212891
 20
7.23528238534927
 30
0.0
 70
     0
  0
VERTEX
  8
1
 10
-5.10071972608566
 20
7.17210416197777
 30
0.0
 70
     0
  0
VERTEX
  8
1
 10
-5.07981083095074
 20
7.11494543552399
 30
0.0
 70
     0
  0
VERTEX
  8
1
 10
-5.05954801738262
 20
7.06374564766884
 30
0.0
 70
     0
  0
VERTEX
  8
1
 10
-5.03404501676559
 20
7.00460817813873
 30
0.0
 70
     0
  0
VERTEX
  8
1
 10
-5.01090644001961
 20
6.95570884943008
 30
0.0
 70
     0
  0
VERTEX
  8
1
 10
-4.98211133778095
 20
6.90100349187851
 30
0.0
 70
     0
  0
VERTEX
  8
1
 10
-4.95366823077202
 20
6.85462717413902
 30
0.0
 70
     0
  0
VERTEX
  8
1
 10
-4.53941942751408
 20
6.28141089081764
 30
0.0
 42
-0.00004363324895
 70
     0
  0
VERTEX
  8
1
 10
-5.39772421717644
 20
5.56120821237564
 30
0.0
 70
     0
  0
VERTEX
  8
1
 10
-5.89029839336872
 20
6.06870206594467
 30
0.0
 70
     0
  0
VERTEX
  8
1
 10
-5.93103029727936
 20
6.10476530194283
 30
0.0
 70
     0
  0
VERTEX
  8
1
 10
-5.97990540266037
 20
6.14262333512306
 30
0.0
 70
     0
  0
VERTEX
  8
1
 10
-6.0240448474884
 20
6.17390208542347
 30
0.0
 70
     0
  0
VERTEX
  8
1
 10
-6.0778550773859
 20
6.20928706824779
 30
0.0
 70
     0
  0
VERTEX
  8
1
 10
-6.12475938796997
 20
6.23813326656818
 30
0.0
 70
     0
  0
VERTEX
  8
1
 10
-6.17741787433624
 20
6.26864898204803
 30
0.0
 70
     0
  0
VERTEX
  8
1
 10
-6.23594597578049
 20
6.30055110454559
 30
0.0
 70
     0
  0
VERTEX
  8
1
 10
-6.30044853389263
 20
6.33355160355568
 30
0.0
 70
     0
  0
VERTEX
  8
1
 10
-6.34681690335274
 20
6.35601646900177
 30
0.0
 70
     0
  0
VERTEX
  8
1
 10
-6.39590699076652
 20
6.37875308990478
 30
0.0
 70
     0
  0
VERTEX
  8
1
 10
-6.44774339795113
 20
6.4016698718071
 30
0.0
 70
     0
  0
VERTEX
  8
1
 10
-6.50234504938126
 20
6.42467976212501
 30
0.0
 70
     0
  0
VERTEX
  8
1
 10
-6.55973162651062
 20
6.44769268035889
 30
0.0
 70
     0
  0
VERTEX
  8
1
 10
-6.61991902589798
 20
6.47061778903007
 30
0.0
 70
     0
  0
VERTEX
  8
1
 10
-6.68291935920715
 20
6.49336273670196
 30
0.0
 70
     0
  0
VERTEX
  8
1
 10
-6.74874549508095
 20
6.5158381998539
 30
0.0
 70
     0
  0
VERTEX
  8
1
 10
-6.81740500330925
 20
6.53795031309128
 30
0.0
 70
     0
  0
VERTEX
  8
1
 10
-6.88890696763992
 20
6.55960899591446
 30
0.0
 70
     0
  0
VERTEX
  8
1
 10
-6.96325365900993
 20
6.58071962594986
 30
0.0
 70
     0
  0
VERTEX
  8
1
 10
-7.04044659137726
 20
6.60118985176086
 30
0.0
 70
     0
  0
VERTEX
  8
1
 10
-7.12048803567886
 20
6.62092656493187
 30
0.0
 70
     0
  0
VERTEX
  8
1
 10
-7.20337193608284
 20
6.63983665704727
 30
0.0
 70
     0
  0
VERTEX
  8
1
 10
-7.28909450769424
 20
6.65782626271248
 30
0.0
 70
     0
  0
VERTEX
  8
1
 10
-7.37764893770218
 20
6.67480378746986
 30
0.0
 70
     0
  0
VERTEX
  8
1
 10
-7.43701652884483
 20
6.68511384129524
 30
0.0
 70
     0
  0
VERTEX
  8
1
 10
-7.87497883439064
 20
6.16316736638546
 30
0.0
 70
     0
  0
VERTEX
  8
1
 10
-7.85451693534851
 20
6.10649272799492
 30
0.0
 70
     0
  0
VERTEX
  8
1
 10
-7.82242026925087
 20
6.02223263978958
 30
0.0
 70
     0
  0
VERTEX
  8
1
 10
-7.7898186981678
 20
5.9409357458353
 30
0.0
 70
     0
  0
VERTEX
  8
1
 10
-7.75680305957794
 20
5.8625944763422
 30
0.0
 70
     0
  0
VERTEX
  8
1
 10
-7.72346721887588
 20
5.78719785511494
 30
0.0
 70
     0
  0
VERTEX
  8
1
 10
-7.68990277051926
 20
5.71473036408424
 30
0.0
 70
     0
  0
VERTEX
  8
1
 10
-7.65620206594467
 20
5.64517951309681
 30
0.0
 70
     0
  0
VERTEX
  8
1
 10
-7.62245745658874
 20
5.57852599918842
 30
0.0
 70
     0
  0
VERTEX
  8
1
 10
-7.58875750899315
 20
5.51474824845791
 30
0.0
 70
     0
  0
VERTEX
  8
1
 10
-7.5551945745945
 20
5.45382582247257
 30
0.0
 70
     0
  0
VERTEX
  8
1
 10
-7.52185267806053
 20
5.39573109149933
 30
0.0
 70
     0
  0
VERTEX
  8
1
 10
-7.48882568478584
 20
5.34043983221054
 30
0.0
 70
     0
  0
VERTEX
  8
1
 10
-7.45619837641716
 20
5.28792138695717
 30
0.0
 70
     0
  0
VERTEX
  8
1
 10
-7.4240562915802
 20
5.23814509809017
 30
0.0
 70
     0
  0
VERTEX
  8
1
 10
-7.39248572587967
 20
5.19107538759708
 30
0.0
 70
     0
  0
VERTEX
  8
1
 10
-7.3615714609623
 20
5.1466789484024
 30
0.0
 70
     0
  0
VERTEX
  8
1
 10
-7.33139449357986
 20
5.10491603910923
 30
0.0
 70
     0
  0
VERTEX
  8
1
 10
-7.28769561052322
 20
5.04712447822094
 30
0.0
 70
     0
  0
VERTEX
  8
1
 10
-7.24611399769783
 20
4.99502539932728
 30
0.0
 70
     0
  0
VERTEX
  8
1
 10
-7.20691686868668
 20
4.94846513569355
 30
0.0
 70
     0
  0
VERTEX
  8
1
 10
-7.17036462426186
 20
4.90728320777416
 30
0.0
 70
     0
  0
VERTEX
  8
1
 10
-7.12617294788361
 20
4.86043415665626
 30
0.0
 70
     0
  0
VERTEX
  8
1
 10
-7.08770554661751
 20
4.8223978549242
 30
0.0
 70
     0
  0
VERTEX
  8
1
 10
-7.04193632602692
 20
4.78084008693695
 30
0.0
 70
     0
  0
VERTEX
  8
1
 10
-6.99934793114662
 20
4.74698874354362
 30
0.0
 70
     0
  0
VERTEX
  8
1
 10
-6.41402906775475
 20
4.35002290606499
 30
0.0
 42
-0.000043633207595
 70
     0
  0
VERTEX
  8
1
 10
-6.97424802184105
 20
3.37969733774662
 30
0.0
 70
     0
  0
VERTEX
  8
1
 10
-7.61069021821022
 20
3.68811442255974
 30
0.0
 70
     0
  0
VERTEX
  8
1
 10
-7.66129956245422
 20
3.70807217359543
 30
0.0
 70
     0
  0
VERTEX
  8
1
 10
-7.72017511725426
 20
3.7269307911396
 30
0.0
 70
     0
  0
VERTEX
  8
1
 10
-7.77235065102577
 20
3.7412267178297
 30
0.0
 70
     0
  0
VERTEX
  8
1
 10
-7.83501867055893
 20
3.75607296824455
 30
0.0
 70
     0
  0
VERTEX
  8
1
 10
-7.88896023631096
 20
3.76713735163212
 30
0.0
 70
     0
  0
VERTEX
  8
1
 10
-7.94887966513634
 20
3.77780280709267
 30
0.0
 70
     0
  0
VERTEX
  8
1
 10
-8.01478906869888
 20
3.78776351511478
 30
0.0
 70
     0
  0
VERTEX
  8
1
 10
-8.08668769001961
 20
3.79671214222908
 30
0.0
 70
     0
  0
VERTEX
  8
1
 10
-8.13794349431991
 20
3.80196406245232
 30
0.0
 70
     0
  0
VERTEX
  8
1
 10
-8.19185023903847
 20
3.80653886497021
 30
0.0
 70
     0
  0
VERTEX
  8
1
 10
-8.2483988404274
 20
3.81034533381462
 30
0.0
 70
     0
  0
VERTEX
  8
1
 10
-8.3075764298439
 20
3.81329225301743
 30
0.0
 70
     0
  0
VERTEX
  8
1
 10
-8.36937316656113
 20
3.81528954207897
 30
0.0
 70
     0
  0
VERTEX
  8
1
 10
-8.43377164006233
 20
3.81624674201012
 30
0.0
 70
     0
  0
VERTEX
  8
1
 10
-8.50075216889381
 20
3.81607301533222
 30
0.0
 70
     0
  0
VERTEX
  8
1
 10
-8.57029507160187
 20
3.81467903852463
 30
0.0
 70
     0
  0
VERTEX
  8
1
 10
-8.64237763881683
 20
3.81197510957718
 30
0.0
 70
     0
  0
VERTEX
  8
1
 10
-8.71697489023209
 20
3.80787228345871
 30
0.0
 70
     0
  0
VERTEX
  8
1
 10
-8.79405730366707
 20
3.80228161513805
 30
0.0
 70
     0
  0
VERTEX
  8
1
 10
-8.8735968708992
 20
3.79511567354202
 30
0.0
 70
     0
  0
VERTEX
  8
1
 10
-8.95556104183197
 20
3.78628702759743
 30
0.0
 70
     0
  0
VERTEX
  8
1
 10
-9.0399149954319
 20
3.77570862472057
 30
0.0
 70
     0
  0
VERTEX
  8
1
 10
-9.12662088274956
 20
3.76329454779625
 30
0.0
 70
     0
  0
VERTEX
  8
1
 10
-9.21564085483551
 20
3.74896039366722
 30
0.0
 70
     0
  0
VERTEX
  8
1
 10
-9.27495470046997
 20
3.73834376335144
 30
0.0
 70
     0
  0
VERTEX
  8
1
 10
-9.50798841118812
 20
3.09808317571878
 30
0.0
 70
     0
  0
VERTEX
  8
1
 10
-9.46937566995621
 20
3.05182475745678
 30
0.0
 70
     0
  0
VERTEX
  8
1
 10
-9.41039716601372
 20
2.98362322151661
 30
0.0
 70
     0
  0
VERTEX
  8
1
 10
-9.35195536017418
 20
2.91837995946407
 30
0.0
 70
     0
  0
VERTEX
  8
1
 10
-9.2941365480423
 20
2.85605522990227
 30
0.0
 70
     0
  0
VERTEX
  8
1
 10
-9.23702475428581
 20
2.79660702049732
 30
0.0
 70
     0
  0
VERTEX
  8
1
 10
-9.18069870471954
 20
2.73998934477568
 30
0.0
 70
     0
  0
VERTEX
  8
1
 10
-9.12524318099022
 20
2.68615905493498
 30
0.0
 70
     0
  0
VERTEX
  8
1
 10
-9.07073690891266
 20
2.63506656885147
 30
0.0
 70
     0
  0
VERTEX
  8
1
 10
-9.01725558638573
 20
2.58666154742241
 30
0.0
 70
     0
  0
VERTEX
  8
1
 10
-8.96487945318222
 20
2.54089232683182
 30
0.0
 70
     0
  0
VERTEX
  8
1
 10
-8.91367966532707
 20
2.49770440459251
 30
0.0
 70
     0
  0
VERTEX
  8
1
 10
-8.86373343467712
 20
2.4570440351963
 30
0.0
 70
     0
  0
VERTEX
  8
1
 10
-8.81511040329933
 20
2.41885198503733
 30
0.0
 70
     0
  0
VERTEX
  8
1
 10
-8.76788324117661
 20
2.3830705344677
 30
0.0
 70
     0
  0
VERTEX
  8
1
 10
-8.72211780548096
 20
2.34963761121035
 30
0.0
 70
     0
  0
VERTEX
  8
1
 10
-8.67788298130035
 20
2.31849189996719
 30
0.0
 70
     0
  0
VERTEX
  8
1
 10
-8.63524235486984
 20
2.28956867903471
 30
0.0
 70
     0
  0
VERTEX
  8
1
 10
-8.57441303730011
 20
2.25020804256201
 30
0.0
 70
     0
  0
VERTEX
  8
1
 10
-8.51752076745033
 20
2.21547273695469
 30
0.0
 70
     0
  0
VERTEX
  8
1
 10
-8.46476235985756
 20
2.1851265847683
 30
0.0
 70
     0
  0
VERTEX
  8
1
 10
-8.41632933020592
 20
2.15892962366343
 30
0.0
 70
     0
  0
VERTEX
  8
1
 10
-8.35878000259399
 20
2.13002059608698
 30
0.0
 70
     0
  0
VERTEX
  8
1
 10
-8.30962330102921
 20
2.1074346140027
 30
0.0
 70
     0
  0
VERTEX
  8
1
 10
-8.25240023136139
 20
2.08403696119785
 30
0.0
 70
     0
  0
VERTEX
  8
1
 10
-8.20080227255821
 20
2.06679373681545
 30
0.0
 70
     0
  0
VERTEX
  8
1
 10
-7.51501185894012
 20
1.89395859092474
 30
0.0
 42
-0.000043633208723
 70
     0
  0
VERTEX
  8
1
 10
-7.70957438349724
 20
0.790544383227825
 30
0.0
 70
     0
  0
VERTEX
  8
1
 10
-8.41311973929405
 20
0.862686941027641
 30
0.0
 70
     0
  0
VERTEX
  8
1
 10
-8.46750338077545
 20
0.864131256937981
 30
0.0
 70
     0
  0
VERTEX
  8
1
 10
-8.529278165102
 20
0.861716020852327
 30
0.0
 70
     0
  0
VERTEX
  8
1
 10
-8.58319626450539
 20
0.857304820418358
 30
0.0
 70
     0
  0
VERTEX
  8
1
 10
-8.64716250300407
 20
0.849822272360325
 30
0.0
 70
     0
  0
VERTEX
  8
1
 10
-8.70163546800613
 20
0.841770097613335
 30
0.0
 70
     0
  0
VERTEX
  8
1
 10
-8.761588960886
 20
0.831298618018627
 30
0.0
 70
     0
  0
VERTEX
  8
1
 10
-8.82693063020706
 20
0.818116207420826
 30
0.0
 70
     0
  0
VERTEX
  8
1
 10
-8.8975544989109
 20
0.801934362202883
 30
0.0
 70
     0
  0
VERTEX
  8
1
 10
-8.94751511216164
 20
0.789339272677898
 30
0.0
 70
     0
  0
VERTEX
  8
1
 10
-8.99973530769348
 20
0.775201081484556
 30
0.0
 70
     0
  0
VERTEX
  8
1
 10
-9.05417496562004
 20
0.759437277913094
 30
0.0
 70
     0
  0
VERTEX
  8
1
 10
-9.11079245209694
 20
0.741966392099857
 30
0.0
 70
     0
  0
VERTEX
  8
1
 10
-9.16954537630081
 20
0.722707711160183
 30
0.0
 70
     0
  0
VERTEX
  8
1
 10
-9.23038756251335
 20
0.701581704989076
 30
0.0
 70
     0
  0
VERTEX
  8
1
 10
-9.29326905012131
 20
0.67850974239409
 30
0.0
 70
     0
  0
VERTEX
  8
1
 10
-9.35814139246941
 20
0.653414611518383
 30
0.0
 70
     0
  0
VERTEX
  8
1
 10
-9.42495160102844
 20
0.626220046728849
 30
0.0
 70
     0
  0
VERTEX
  8
1
 10
-9.49364668726921
 20
0.596850965172052
 30
0.0
 70
     0
  0
VERTEX
  8
1
 10
-9.56416912078857
 20
0.565233703330159
 30
0.0
 70
     0
  0
VERTEX
  8
1
 10
-9.63646061420441
 20
0.531295827776194
 30
0.0
 70
     0
  0
VERTEX
  8
1
 10
-9.71046212315559
 20
0.494966182485223
 30
0.0
 70
     0
  0
VERTEX
  8
1
 10
-9.78611081838608
 20
0.456175220012665
 30
0.0
 70
     0
  0
VERTEX
  8
1
 10
-9.86334159970284
 20
0.414854717627168
 30
0.0
 70
     0
  0
VERTEX
  8
1
 10
-9.94209088087082
 20
0.370938013866544
 30
0.0
 70
     0
  0
VERTEX
  8
1
 10
-9.99419601559639
 20
0.340675697103143
 30
0.0
 70
     0
  0
VERTEX
  8
1
 10
-9.99419450163841
 20
-0.340675200335681
 30
0.0
 70
     0
  0
VERTEX
  8
1
 10
-9.94208936691284
 20
-0.370937517099082
 30
0.0
 70
     0
  0
VERTEX
  8
1
 10
-9.86334084272385
 20
-0.414854197204113
 30
0.0
 70
     0
  0
VERTEX
  8
1
 10
-9.7861093044281
 20
-0.45617455765605
 30
0.0
 70
     0
  0
VERTEX
  8
1
 10
-9.7104613661766
 20
-0.494965567439795
 30
0.0
 70
     0
  0
VERTEX
  8
1
 10
-9.63646061420441
 20
-0.531295165419579
 30
0.0
 70
     0
  0
VERTEX
  8
1
 10
-9.5641676068306
 20
-0.565233466774225
 30
0.0
 70
     0
  0
VERTEX
  8
1
 10
-9.49364517331123
 20
-0.596850539371371
 30
0.0
 70
     0
  0
VERTEX
  8
1
 10
-9.42495084404945
 20
-0.626219431683421
 30
0.0
 70
     0
  0
VERTEX
  8
1
 10
-9.35813987851143
 20
-0.653413901850581
 30
0.0
 70
     0
  0
VERTEX
  8
1
 10
-9.29326829314232
 20
-0.678509174659848
 30
0.0
 70
     0
  0
VERTEX
  8
1
 10
-9.23038529157638
 20
-0.701581231877208
 30
0.0
 70
     0
  0
VERTEX
  8
1
 10
-9.16954461932182
 20
-0.722707096114755
 30
0.0
 70
     0
  0
VERTEX
  8
1
 10
-9.11079169511795
 20
-0.741965871676803
 30
0.0
 70
     0
  0
VERTEX
  8
1
 10
-9.05417420864105
 20
-0.759436662867665
 30
0.0
 70
     0
  0
VERTEX
  8
1
 10
-8.9997337937355
 20
-0.775200466439128
 30
0.0
 70
     0
  0
VERTEX
  8
1
 10
-8.94751435518265
 20
-0.789338846877217
 30
0.0
 70
     0
  0
VERTEX
  8
1
 10
-8.89755298495293
 20
-0.801933794468641
 30
0.0
 70
     0
  0
VERTEX
  8
1
 10
-8.82692987322807
 20
-0.818115828931332
 30
0.0
 70
     0
  0
VERTEX
  8
1
 10
-8.76158820390701
 20
-0.831298050284386
 30
0.0
 70
     0
  0
VERTEX
  8
1
 10
-8.70163319706917
 20
-0.841769813746214
 30
0.0
 70
     0
  0
VERTEX
  8
1
 10
-8.6471609890461
 20
-0.84982161000371
 30
0.0
 70
     0
  0
VERTEX
  8
1
 10
-8.58319475054741
 20
-0.857304252684116
 30
0.0
 70
     0
  0
VERTEX
  8
1
 10
-8.52927740812302
 20
-0.861715453118086
 30
0.0
 70
     0
  0
VERTEX
  8
1
 10
-8.46750338077545
 20
-0.864130878448486
 30
0.0
 70
     0
  0
VERTEX
  8
1
 10
-8.41311898231506
 20
-0.862686467915773
 30
0.0
 70
     0
  0
VERTEX
  8
1
 10
-7.70957438349724
 20
-0.790544761717319
 30
0.0
 42
-0.000043633212885
 70
     0
  0
VERTEX
  8
1
 10
-7.5150133728981
 20
-1.89395934790373
 30
0.0
 70
     0
  0
VERTEX
  8
1
 10
-8.2008030295372
 20
-2.06679581850767
 30
0.0
 70
     0
  0
VERTEX
  8
1
 10
-8.25240174531937
 20
-2.08403885364532
 30
0.0
 70
     0
  0
VERTEX
  8
1
 10
-8.30962405800819
 20
-2.10743669569492
 30
0.0
 70
     0
  0
VERTEX
  8
1
 10
-8.35878227353096
 20
-2.13002305626869
 30
0.0
 70
     0
  0
VERTEX
  8
1
 10
-8.41633160114288
 20
-2.15893189460039
 30
0.0
 70
     0
  0
VERTEX
  8
1
 10
-8.46476538777351
 20
-2.1851294234395
 30
0.0
 70
     0
  0
VERTEX
  8
1
 10
-8.51752152442932
 20
-2.21547462940216
 30
0.0
 70
     0
  0
VERTEX
  8
1
 10
-8.57441455125809
 20
-2.25021012425423
 30
0.0
 70
     0
  0
VERTEX
  8
1
 10
-8.63524462580681
 20
-2.28957094997168
 30
0.0
 70
     0
  0
VERTEX
  8
1
 10
-8.67788449525833
 20
-2.31849398165941
 30
0.0
 70
     0
  0
VERTEX
  8
1
 10
-8.72212007641792
 20
-2.34964007139206
 30
0.0
 70
     0
  0
VERTEX
  8
1
 10
-8.76788399815559
 20
-2.38307261615992
 30
0.0
 70
     0
  0
VERTEX
  8
1
 10
-8.8151126742363
 20
-2.41885425597429
 30
0.0
 70
     0
  0
VERTEX
  8
1
 10
-8.8637349486351
 20
-2.45704611688852
 30
0.0
 70
     0
  0
VERTEX
  8
1
 10
-8.91368269324303
 20
-2.49770724326372
 30
0.0
 70
     0
  0
VERTEX
  8
1
 10
-8.9648809671402
 20
-2.54089459776878
 30
0.0
 70
     0
  0
VERTEX
  8
1
 10
-9.01725785732269
 20
-2.58666400760412
 30
0.0
 70
     0
  0
VERTEX
  8
1
 10
-9.07073766589165
 20
-2.63506921827793
 30
0.0
 70
     0
  0
VERTEX
  8
1
 10
-9.1252446949482
 20
-2.68616227209568
 30
0.0
 70
     0
  0
VERTEX
  8
1
 10
-9.18070097565651
 20
-2.73999275118113
 30
0.0
 70
     0
  0
VERTEX
  8
1
 10
-9.2370255112648
 20
-2.79660910218954
 30
0.0
 70
     0
  0
VERTEX
  8
1
 10
-9.29413806200027
 20
-2.85605769008398
 30
0.0
 70
     0
  0
VERTEX
  8
1
 10
-9.35195763111114
 20
-2.91838241964579
 30
0.0
 70
     0
  0
VERTEX
  8
1
 10
-9.41039867997169
 20
-2.98362587094307
 30
0.0
 70
     0
  0
VERTEX
  8
1
 10
-9.46937869787216
 20
-3.05182778537273
 30
0.0
 70
     0
  0
VERTEX
  8
1
 10
-9.50799143910408
 20
-3.09808620363474
 30
0.0
 70
     0
  0
VERTEX
  8
1
 10
-9.27495394349098
 20
-3.73834603428841
 30
0.0
 70
     0
  0
VERTEX
  8
1
 10
-9.21564085483551
 20
-3.74896228611469
 30
0.0
 70
     0
  0
VERTEX
  8
1
 10
-9.12662088274956
 20
-3.76329681873322
 30
0.0
 70
     0
  0
VERTEX
  8
1
 10
-9.03991423845291
 20
-3.77571051716805
 30
0.0
 70
     0
  0
VERTEX
  8
1
 10
-8.95556104183197
 20
-3.7862889200449
 30
0.0
 70
     0
  0
VERTEX
  8
1
 10
-8.87359762787819
 20
-3.79511832296848
 30
0.0
 70
     0
  0
VERTEX
  8
1
 10
-8.79405654668808
 20
-3.80228388607502
 30
0.0
 70
     0
  0
VERTEX
  8
1
 10
-8.7169741332531
 20
-3.80787417590618
 30
0.0
 70
     0
  0
VERTEX
  8
1
 10
-8.64237688183784
 20
-3.81197700202465
 30
0.0
 70
     0
  0
VERTEX
  8
1
 10
-8.57029431462288
 20
-3.8146809309721
 30
0.0
 70
     0
  0
VERTEX
  8
1
 10
-8.50075216889381
 20
-3.81607528626919
 30
0.0
 70
     0
  0
VERTEX
  8
1
 10
-8.43377012610435
 20
-3.81624863445759
 30
0.0
 70
     0
  0
VERTEX
  8
1
 10
-8.36937316656113
 20
-3.81529143452644
 30
0.0
 70
     0
  0
VERTEX
  8
1
 10
-8.30757718682289
 20
-3.81329452395439
 30
0.0
 70
     0
  0
VERTEX
  8
1
 10
-8.2483988404274
 20
-3.81034722626209
 30
0.0
 70
     0
  0
VERTEX
  8
1
 10
-8.19184948205948
 20
-3.80654037892818
 30
0.0
 70
     0
  0
VERTEX
  8
1
 10
-8.13794349431991
 20
-3.80196595489979
 30
0.0
 70
     0
  0
VERTEX
  8
1
 10
-8.08668769001961
 20
-3.79671365618706
 30
0.0
 70
     0
  0
VERTEX
  8
1
 10
-8.01478906869888
 20
-3.78776540756226
 30
0.0
 70
     0
  0
VERTEX
  8
1
 10
-7.94887890815735
 20
-3.77780469954014
 30
0.0
 70
     0
  0
VERTEX
  8
1
 10
-7.88895872235298
 20
-3.7671388655901
 30
0.0
 70
     0
  0
VERTEX
  8
1
 10
-7.83501791357994
 20
-3.75607448220253
 30
0.0
 70
     0
  0
VERTEX
  8
1
 10
-7.77234989404678
 20
-3.74122823178768
 30
0.0
 70
     0
  0
VERTEX
  8
1
 10
-7.72017511725426
 20
-3.72693268358707
 30
0.0
 70
     0
  0
VERTEX
  8
1
 10
-7.6613010764122
 20
-3.70807444453239
 30
0.0
 70
     0
  0
VERTEX
  8
1
 10
-7.61068946123123
 20
-3.68811631500721
 30
0.0
 70
     0
  0
VERTEX
  8
1
 10
-6.97424802184105
 20
-3.3796988517046
 30
0.0
 42
-0.000043633206475
 70
     0
  0
VERTEX
  8
1
 10
-6.41403058171272
 20
-4.35002555549145
 30
0.0
 70
     0
  0
VERTEX
  8
1
 10
-6.9993494451046
 20
-4.74699177145958
 30
0.0
 70
     0
  0
VERTEX
  8
1
 10
-7.04193859696388
 20
-4.78084235787392
 30
0.0
 70
     0
  0
VERTEX
  8
1
 10
-7.08770781755447
 20
-4.82240088284016
 30
0.0
 70
     0
  0
VERTEX
  8
1
 10
-7.12617597579956
 20
-4.86043756306171
 30
0.0
 70
     0
  0
VERTEX
  8
1
 10
-7.17036689519882
 20
-4.90728623569012
 30
0.0
 70
     0
  0
VERTEX
  8
1
 10
-7.20692065358162
 20
-4.94846892058849
 30
0.0
 70
     0
  0
VERTEX
  8
1
 10
-7.2461162686348
 20
-4.99502804875374
 30
0.0
 70
     0
  0
VERTEX
  8
1
 10
-7.2876971244812
 20
-5.04712750613689
 30
0.0
 70
     0
  0
VERTEX
  8
1
 10
-7.33139676451683
 20
-5.10491944551468
 30
0.0
 70
     0
  0
VERTEX
  8
1
 10
-7.36157297492027
 20
-5.14668197631836
 30
0.0
 70
     0
  0
VERTEX
  8
1
 10
-7.39248875379562
 20
-5.19107879400253
 30
0.0
 70
     0
  0
VERTEX
  8
1
 10
-7.42405856251717
 20
-5.23814774751663
 30
0.0
 70
     0
  0
VERTEX
  8
1
 10
-7.45619989037514
 20
-5.28792403638363
 30
0.0
 70
     0
  0
VERTEX
  8
1
 10
-7.48882795572281
 20
-5.34044286012649
 30
0.0
 70
     0
  0
VERTEX
  8
1
 10
-7.52185646295547
 20
-5.39573525488377
 30
0.0
 70
     0
  0
VERTEX
  8
1
 10
-7.55519608855247
 20
-5.45382847189903
 30
0.0
 70
     0
  0
VERTEX
  8
1
 10
-7.5887605369091
 20
-5.51475165486336
 30
0.0
 70
     0
  0
VERTEX
  8
1
 10
-7.62245972752571
 20
-5.57852864861488
 30
0.0
 70
     0
  0
VERTEX
  8
1
 10
-7.65620509386063
 20
-5.64518329799175
 30
0.0
 70
     0
  0
VERTEX
  8
1
 10
-7.68990504145622
 20
-5.71473452746868
 30
0.0
 70
     0
  0
VERTEX
  8
1
 10
-7.72346873283386
 20
-5.7872001260519
 30
0.0
 70
     0
  0
VERTEX
  8
1
 10
-7.75680457353592
 20
-5.86259788274765
 30
0.0
 70
     0
  0
VERTEX
  8
1
 10
-7.78982096910477
 20
-5.94093953073025
 30
0.0
 70
     0
  0
VERTEX
  8
1
 10
-7.82242329716682
 20
-6.02223528921604
 30
0.0
 70
     0
  0
VERTEX
  8
1
 10
-7.85451920628548
 20
-6.10649726986885
 30
0.0
 70
     0
  0
VERTEX
  8
1
 10
-7.87498186230659
 20
-6.16317190825939
 30
0.0
 70
     0
  0
VERTEX
  8
1
 10
-7.43701728582382
 20
-6.6851168692112
 30
0.0
 70
     0
  0
VERTEX
  8
1
 10
-7.37764893770218
 20
-6.67480605840683
 30
0.0
 70
     0
  0
VERTEX
  8
1
 10
-7.28909602165222
 20
-6.65782929062843
 30
0.0
 70
     0
  0
VERTEX
  8
1
 10
-7.20337193608284
 20
-6.63983892798424
 30
0.0
 70
     0
  0
VERTEX
  8
1
 10
-7.12048803567886
 20
-6.62092883586883
 30
0.0
 70
     0
  0
VERTEX
  8
1
 10
-7.04044810533524
 20
-6.60119212269783
 30
0.0
 70
     0
  0
VERTEX
  8
1
 10
-6.96325365900993
 20
-6.58072189688682
 30
0.0
 70
     0
  0
VERTEX
  8
1
 10
-6.88890772461891
 20
-6.55961050987244
 30
0.0
 70
     0
  0
VERTEX
  8
1
 10
-6.81740651726723
 20
-6.53795258402824
 30
0.0
 70
     0
  0
VERTEX
  8
1
 10
-6.74874625205994
 20
-6.51583971381187
 30
0.0
 70
     0
  0
VERTEX
  8
1
 10
-6.68292011618614
 20
-6.49336500763893
 30
0.0
 70
     0
  0
VERTEX
  8
1
 10
-6.61991902589798
 20
-6.47061930298805
 30
0.0
 70
     0
  0
VERTEX
  8
1
 10
-6.5597331404686
 20
-6.44769495129585
 30
0.0
 70
     0
  0
VERTEX
  8
1
 10
-6.50234580636024
 20
-6.42468203306198
 30
0.0
 70
     0
  0
VERTEX
  8
1
 10
-6.4477449119091
 20
-6.40167289972305
 30
0.0
 70
     0
  0
VERTEX
  8
1
 10
-6.39590774774551
 20
-6.37875460386276
 30
0.0
 70
     0
  0
VERTEX
  8
1
 10
-6.34681690335274
 20
-6.35601949691772
 30
0.0
 70
     0
  0
VERTEX
  8
1
 10
-6.30044891238213
 20
-6.33355311751366
 30
0.0
 70
     0
  0
VERTEX
  8
1
 10
-6.23594673275948
 20
-6.30055375397205
 30
0.0
 70
     0
  0
VERTEX
  8
1
 10
-6.17741900980473
 20
-6.26865087449551
 30
0.0
 70
     0
  0
VERTEX
  8
1
 10
-6.12475900948048
 20
-6.23813440203667
 30
0.0
 70
     0
  0
VERTEX
  8
1
 10
-6.07785583436489
 20
-6.20928820371628
 30
0.0
 70
     0
  0
VERTEX
  8
1
 10
-6.0240452259779
 20
-6.17390359938145
 30
0.0
 70
     0
  0
VERTEX
  8
1
 10
-5.97990653812885
 20
-6.14262522757053
 30
0.0
 70
     0
  0
VERTEX
  8
1
 10
-5.93103218972683
 20
-6.10476832985878
 30
0.0
 70
     0
  0
VERTEX
  8
1
 10
-5.8902995288372
 20
-6.06870395839214
 30
0.0
 70
     0
  0
VERTEX
  8
1
 10
-5.39772459566593
 20
-5.56121048331261
 30
0.0
 42
-0.00004363321769
 70
     0
  0
VERTEX
  8
1
 10
-4.53942094147205
 20
-6.2814139187336
 30
0.0
 70
     0
  0
VERTEX
  8
1
 10
-4.95367050170898
 20
-6.85463020205498
 30
0.0
 70
     0
  0
VERTEX
  8
1
 10
-4.98211323022842
 20
-6.90100576281548
 30
0.0
 70
     0
  0
VERTEX
  8
1
 10
-5.01090908944607
 20
-6.95571187734604
 30
0.0
 70
     0
  0
VERTEX
  8
1
 10
-5.03404766619205
 20
-7.00461196303368
 30
0.0
 70
     0
  0
VERTEX
  8
1
 10
-5.05955104529858
 20
-7.06374943256378
 30
0.0
 70
     0
  0
VERTEX
  8
1
 10
-5.07981385886669
 20
-7.11495073437691
 30
0.0
 70
     0
  0
VERTEX
  8
1
 10
-5.10072199702263
 20
-7.17210794687271
 30
0.0
 70
     0
  0
VERTEX
  8
1
 10
-5.12197683155537
 20
-7.23528692722321
 30
0.0
 70
     0
  0
VERTEX
  8
1
 10
-5.14327481389046
 20
-7.30453914999962
 30
0.0
 70
     0
  0
VERTEX
  8
1
 10
-5.15734743177891
 20
-7.35410462021828
 30
0.0
 70
     0
  0
VERTEX
  8
1
 10
-5.17121339440346
 20
-7.40639748573303
 30
0.0
 70
     0
  0
VERTEX
  8
1
 10
-5.18478148579597
 20
-7.46142607331276
 30
0.0
 70
     0
  0
VERTEX
  8
1
 10
-5.19795973300934
 20
-7.51919341087341
 30
0.0
 70
     0
  0
VERTEX
  8
1
 10
-5.2106576770544
 20
-7.57970404028892
 30
0.0
 70
     0
  0
VERTEX
  8
1
 10
-5.22278334498405
 20
-7.6429579615593
 30
0.0
 70
     0
  0
VERTEX
  8
1
 10
-5.23424287140369
 20
-7.70895063281059
 30
0.0
 70
     0
  0
VERTEX
  8
1
 10
-5.24494617581367
 20
-7.77767978310585
 30
0.0
 70
     0
  0
VERTEX
  8
1
 10
-5.25480014979839
 20
-7.84913557171822
 30
0.0
 70
     0
  0
VERTEX
  8
1
 10
-5.26371319890022
 20
-7.92331194281578
 30
0.0
 70
     0
  0
VERTEX
  8
1
 10
-5.27159335017204
 20
-8.00019527077675
 30
0.0
 70
     0
  0
VERTEX
  8
1
 10
-5.27834825217724
 20
-8.07977041602135
 30
0.0
 70
     0
  0
VERTEX
  8
1
 10
-5.28388668894768
 20
-8.1620222389698
 30
0.0
 70
     0
  0
VERTEX
  8
1
 10
-5.28811706602573
 20
-8.24693105816841
 30
0.0
 70
     0
  0
VERTEX
  8
1
 10
-5.29094778895378
 20
-8.33447567820549
 30
0.0
 70
     0
  0
VERTEX
  8
1
 10
-5.29228915572166
 20
-8.42463263273239
 30
0.0
 70
     0
  0
VERTEX
  8
1
 10
-5.29213397502899
 20
-8.48488816022873
 30
0.0
 70
     0
  0
VERTEX
  8
1
 10
-4.70206582546234
 20
-8.82556201219559
 30
0.0
 70
     0
  0
VERTEX
  8
1
 10
-4.6498055100441
 20
-8.7955689907074
 30
0.0
 70
     0
  0
VERTEX
  8
1
 10
-4.57239797413349
 20
-8.74932968616486
 30
0.0
 70
     0
  0
VERTEX
  8
1
 10
-4.49799791574478
 20
-8.70310552120209
 30
0.0
 70
     0
  0
VERTEX
  8
1
 10
-4.42657997608185
 20
-8.65698733329773
 30
0.0
 70
     0
  0
VERTEX
  8
1
 10
-4.35811728239059
 20
-8.61106595993042
 30
0.0
 70
     0
  0
VERTEX
  8
1
 10
-4.29257917702198
 20
-8.56542769670486
 30
0.0
 70
     0
  0
VERTEX
  8
1
 10
-4.22993651628494
 20
-8.52016186714172
 30
0.0
 70
     0
  0
VERTEX
  8
1
 10
-4.17015523612499
 20
-8.47535552382469
 30
0.0
 70
     0
  0
VERTEX
  8
1
 10
-4.11319862306118
 20
-8.43109269142151
 30
0.0
 70
     0
  0
VERTEX
  8
1
 10
-4.05902958512306
 20
-8.38746042251587
 30
0.0
 70
     0
  0
VERTEX
  8
1
 10
-4.00760724544525
 20
-8.34453744292259
 30
0.0
 70
     0
  0
VERTEX
  8
1
 10
-3.95889110565186
 20
-8.30241080522537
 30
0.0
 70
     0
  0
VERTEX
  8
1
 10
-3.91283612549305
 20
-8.26115847826004
 30
0.0
 70
     0
  0
VERTEX
  8
1
 10
-3.86939726471901
 20
-8.22086221575737
 30
0.0
 70
     0
  0
VERTEX
  8
1
 10
-3.82852531969547
 20
-8.18159695863724
 30
0.0
 70
     0
  0
VERTEX
  8
1
 10
-3.79017146527767
 20
-8.14344294667244
 30
0.0
 70
     0
  0
VERTEX
  8
1
 10
-3.7542830914259
 20
-8.10647284984589
 30
0.0
 70
     0
  0
VERTEX
  8
1
 10
-3.70495758354664
 20
-8.05340256690979
 30
0.0
 70
     0
  0
VERTEX
  8
1
 10
-3.66087037026882
 20
-8.0034056186676
 30
0.0
 70
     0
  0
VERTEX
  8
1
 10
-3.6218242585659
 20
-7.95671969652176
 30
0.0
 70
     0
  0
VERTEX
  8
1
 10
-3.58761486411095
 20
-7.91357038021088
 30
0.0
 70
     0
  0
VERTEX
  8
1
 10
-3.54915162622929
 20
-7.86191564798355
 30
0.0
 70
     0
  0
VERTEX
  8
1
 10
-3.51837286055088
 20
-7.81742723584175
 30
0.0
 70
     0
  0
VERTEX
  8
1
 10
-3.48539393544197
 20
-7.76513739824295
 30
0.0
 70
     0
  0
VERTEX
  8
1
 10
-3.45945264399052
 20
-7.71731752157211
 30
0.0
 70
     0
  0
VERTEX
  8
1
 10
-3.17015646994114
 20
-7.07195811271667
 30
0.0
 42
-0.000043633228768
 70
     0
  0
VERTEX
  8
1
 10
-2.11729066967964
 20
-7.45517115592957
 30
0.0
 70
     0
  0
VERTEX
  8
1
 10
-2.31050615012646
 20
-8.13550072312355
 30
0.0
 70
     0
  0
VERTEX
  8
1
 10
-2.321372205019
 20
-8.18880718350411
 30
0.0
 70
     0
  0
VERTEX
  8
1
 10
-2.32972073704004
 20
-8.25006268024445
 30
0.0
 70
     0
  0
VERTEX
  8
1
 10
-2.33473931849003
 20
-8.30392779111862
 30
0.0
 70
     0
  0
VERTEX
  8
1
 10
-2.33847803771496
 20
-8.36822104454041
 30
0.0
 70
     0
  0
VERTEX
  8
1
 10
-2.34000732451677
 20
-8.42326477169991
 30
0.0
 70
     0
  0
VERTEX
  8
1
 10
-2.3401057317853
 20
-8.48412663936615
 30
0.0
 70
     0
  0
VERTEX
  8
1
 10
-2.33847027868032
 20
-8.55076501369476
 30
0.0
 70
     0
  0
VERTEX
  8
1
 10
-2.33479798436165
 20
-8.62312539219856
 30
0.0
 70
     0
  0
VERTEX
  8
1
 10
-2.33106967359781
 20
-8.67451366782188
 30
0.0
 70
     0
  0
VERTEX
  8
1
 10
-2.32621422111988
 20
-8.72839543223381
 30
0.0
 70
     0
  0
VERTEX
  8
1
 10
-2.32014324963093
 20
-8.78474570512772
 30
0.0
 70
     0
  0
VERTEX
  8
1
 10
-2.31276932805777
 20
-8.84353723526001
 30
0.0
 70
     0
  0
VERTEX
  8
1
 10
-2.30400559306145
 20
-8.90474125742912
 30
0.0
 70
     0
  0
VERTEX
  8
1
 10
-2.29376574903727
 20
-8.96832749247551
 30
0.0
 70
     0
  0
VERTEX
  8
1
 10
-2.28196350038052
 20
-9.0342603623867
 30
0.0
 70
     0
  0
VERTEX
  8
1
 10
-2.26851463317871
 20
-9.10250504612923
 30
0.0
 70
     0
  0
VERTEX
  8
1
 10
-2.25333474427462
 20
-9.17302218079567
 30
0.0
 70
     0
  0
VERTEX
  8
1
 10
-2.23634056597948
 20
-9.2457739174366
 30
0.0
 70
     0
  0
VERTEX
  8
1
 10
-2.21744977682829
 20
-9.3207148373127
 30
0.0
 70
     0
  0
VERTEX
  8
1
 10
-2.19658062309027
 20
-9.39780179262161
 30
0.0
 70
     0
  0
VERTEX
  8
1
 10
-2.17365324348211
 20
-9.47698709368706
 30
0.0
 70
     0
  0
VERTEX
  8
1
 10
-2.14858777672052
 20
-9.55822305083275
 30
0.0
 70
     0
  0
VERTEX
  8
1
 10
-2.12130606472492
 20
-9.6414551615715
 30
0.0
 70
     0
  0
VERTEX
  8
1
 10
-2.09173146337271
 20
-9.72663497924805
 30
0.0
 70
     0
  0
VERTEX
  8
1
 10
-2.07097680270672
 20
-9.78320326209068
 30
0.0
 70
     0
  0
VERTEX
  8
1
 10
-1.39997652843595
 20
-9.90151680707931
 30
0.0
 70
     0
  0
VERTEX
  8
1
 10
-1.36112600117922
 20
-9.85545842051506
 30
0.0
 70
     0
  0
VERTEX
  8
1
 10
-1.30420203283429
 20
-9.78553248643875
 30
0.0
 70
     0
  0
VERTEX
  8
1
 10
-1.25009818971157
 20
-9.71664891242981
 30
0.0
 70
     0
  0
VERTEX
  8
1
 10
-1.19876025319099
 20
-9.64888642430305
 30
0.0
 70
     0
  0
VERTEX
  8
1
 10
-1.15013249069452
 20
-9.58231920599937
 30
0.0
 70
     0
  0
VERTEX
  8
1
 10
-1.10415623635054
 20
-9.51701689958572
 30
0.0
 70
     0
  0
VERTEX
  8
1
 10
-1.06077348664403
 20
-9.45305671691895
 30
0.0
 70
     0
  0
VERTEX
  8
1
 10
-1.01992207467556
 20
-9.39050527215004
 30
0.0
 70
     0
  0
VERTEX
  8
1
 10
-0.981539076566696
 20
-9.32943145036697
 30
0.0
 70
     0
  0
VERTEX
  8
1
 10
-0.945560243725777
 20
-9.26990337967873
 30
0.0
 70
     0
  0
VERTEX
  8
1
 10
-0.911919151246548
 20
-9.21198237538338
 30
0.0
 70
     0
  0
VERTEX
  8
1
 10
-0.880549468845129
 20
-9.15573429465294
 30
0.0
 70
     0
  0
VERTEX
  8
1
 10
-0.851380797475576
 20
-9.10121893882751
 30
0.0
 70
     0
  0
VERTEX
  8
1
 10
-0.824343873560429
 20
-9.04849535226822
 30
0.0
 70
     0
  0
VERTEX
  8
1
 10
-0.799366027116776
 20
-8.99761879444122
 30
0.0
 70
     0
  0
VERTEX
  8
1
 10
-0.776374635472894
 20
-8.94864755272865
 30
0.0
 70
     0
  0
VERTEX
  8
1
 10
-0.755295230820775
 20
-8.90163234472275
 30
0.0
 70
     0
  0
VERTEX
  8
1
 10
-0.727095445245504
 20
-8.83489253520966
 30
0.0
 70
     0
  0
VERTEX
  8
1
 10
-0.702767086774111
 20
-8.77283236980438
 30
0.0
 70
     0
  0
VERTEX
  8
1
 10
-0.682043273001909
 20
-8.71560627222061
 30
0.0
 70
     0
  0
VERTEX
  8
1
 10
-0.664654803276062
 20
-8.66336033940315
 30
0.0
 70
     0
  0
VERTEX
  8
1
 10
-0.646178176254034
 20
-8.60166503787041
 30
0.0
 70
     0
  0
VERTEX
  8
1
 10
-0.632471273839474
 20
-8.54933280944824
 30
0.0
 70
     0
  0
VERTEX
  8
1
 10
-0.619365601986647
 20
-8.48891680240631
 30
0.0
 70
     0
  0
VERTEX
  8
1
 10
-0.611344274133444
 20
-8.43510846495628
 30
0.0
 70
     0
  0
VERTEX
  8
1
 10
-0.560220609977841
 20
-7.72972440719604
 30
0.0
 42
-0.000043633222581
 70
     0
  0
VERTEX
  8
1
 10
0.560216020792723
 20
-7.72972516417503
 30
0.0
 70
     0
  0
VERTEX
  8
1
 10
0.611339069902897
 20
-8.43510922193527
 30
0.0
 70
     0
  0
VERTEX
  8
1
 10
0.619360303133726
 20
-8.4889175593853
 30
0.0
 70
     0
  0
VERTEX
  8
1
 10
0.63246588036418
 20
-8.54933432340622
 30
0.0
 70
     0
  0
VERTEX
  8
1
 10
0.646172877401114
 20
-8.60166730880737
 30
0.0
 70
     0
  0
VERTEX
  8
1
 10
0.664649220556021
 20
-8.66336261034012
 30
0.0
 70
     0
  0
VERTEX
  8
1
 10
0.682038163393736
 20
-8.71560930013657
 30
0.0
 70
     0
  0
VERTEX
  8
1
 10
0.702761409431696
 20
-8.77283388376236
 30
0.0
 70
     0
  0
VERTEX
  8
1
 10
0.72709005177021
 20
-8.83489329218864
 30
0.0
 70
     0
  0
VERTEX
  8
1
 10
0.755289790034294
 20
-8.90163461565971
 30
0.0
 70
     0
  0
VERTEX
  8
1
 10
0.776369147375226
 20
-8.94864906668663
 30
0.0
 70
     0
  0
VERTEX
  8
1
 10
0.799360444396734
 20
-8.99762106537819
 30
0.0
 70
     0
  0
VERTEX
  8
1
 10
0.824338006973267
 20
-9.0484968662262
 30
0.0
 70
     0
  0
VERTEX
  8
1
 10
0.851375025510788
 20
-9.1012196958065
 30
0.0
 70
     0
  0
VERTEX
  8
1
 10
0.880543318390846
 20
-9.15573580861092
 30
0.0
 70
     0
  0
VERTEX
  8
1
 10
0.911913568526506
 20
-9.21198540329933
 30
0.0
 70
     0
  0
VERTEX
  8
1
 10
0.945554282516241
 20
-9.2699048936367
 30
0.0
 70
     0
  0
VERTEX
  8
1
 10
0.98153311535716
 20
-9.32943372130394
 30
0.0
 70
     0
  0
VERTEX
  8
1
 10
1.01991601884365
 20
-9.39050678610802
 30
0.0
 70
     0
  0
VERTEX
  8
1
 10
1.06076771467924
 20
-9.45305898785591
 30
0.0
 70
     0
  0
VERTEX
  8
1
 10
1.10415074825287
 20
-9.51701917052269
 30
0.0
 70
     0
  0
VERTEX
  8
1
 10
1.15012624561787
 20
-9.58231920599937
 30
0.0
 70
     0
  0
VERTEX
  8
1
 10
1.19875419735908
 20
-9.64888793826103
 30
0.0
 70
     0
  0
VERTEX
  8
1
 10
1.25009213387966
 20
-9.71665118336677
 30
0.0
 70
     0
  0
VERTEX
  8
1
 10
1.30419588238001
 20
-9.78553400039673
 30
0.0
 70
     0
  0
VERTEX
  8
1
 10
1.36112003996968
 20
-9.85545993447304
 30
0.0
 70
     0
  0
VERTEX
  8
1
 10
1.39997037798166
 20
-9.90151907801628
 30
0.0
 70
     0
  0
VERTEX
  8
1
 10
2.07096998989582
 20
-9.78320250511169
 30
0.0
 70
     0
  0
VERTEX
  8
1
 10
2.09172465056181
 20
-9.72663346529007
 30
0.0
 70
     0
  0
VERTEX
  8
1
 10
2.12129963040352
 20
-9.6414551615715
 30
0.0
 70
     0
  0
VERTEX
  8
1
 10
2.14858134239912
 20
-9.55822229385376
 30
0.0
 70
     0
  0
VERTEX
  8
1
 10
2.17364680916071
 20
-9.47698709368706
 30
0.0
 70
     0
  0
VERTEX
  8
1
 10
2.19657437801361
 20
-9.39780179262161
 30
0.0
 70
     0
  0
VERTEX
  8
1
 10
2.21744353175163
 20
-9.32071408033371
 30
0.0
 70
     0
  0
VERTEX
  8
1
 10
2.23633432090282
 20
-9.24577316045761
 30
0.0
 70
     0
  0
VERTEX
  8
1
 10
2.25332830995321
 20
-9.17302218079567
 30
0.0
 70
     0
  0
VERTEX
  8
1
 10
2.26850819885731
 20
-9.10250428915024
 30
0.0
 70
     0
  0
VERTEX
  8
1
 10
2.28195744454861
 20
-9.0342603623867
 30
0.0
 70
     0
  0
VERTEX
  8
1
 10
2.29375931471586
 20
-8.96832597851753
 30
0.0
 70
     0
  0
VERTEX
  8
1
 10
2.30399953722954
 20
-8.90474125742912
 30
0.0
 70
     0
  0
VERTEX
  8
1
 10
2.3127634614706
 20
-8.84353647828102
 30
0.0
 70
     0
  0
VERTEX
  8
1
 10
2.32013719379902
 20
-8.78474646210671
 30
0.0
 70
     0
  0
VERTEX
  8
1
 10
2.32620816528797
 20
-8.72839467525482
 30
0.0
 70
     0
  0
VERTEX
  8
1
 10
2.33106380701065
 20
-8.67451366782188
 30
0.0
 70
     0
  0
VERTEX
  8
1
 10
2.33479192852974
 20
-8.62312463521957
 30
0.0
 70
     0
  0
VERTEX
  8
1
 10
2.33846441209316
 20
-8.55076425671577
 30
0.0
 70
     0
  0
VERTEX
  8
1
 10
2.34010005444288
 20
-8.48412663936615
 30
0.0
 70
     0
  0
VERTEX
  8
1
 10
2.34000164717436
 20
-8.42326401472092
 30
0.0
 70
     0
  0
VERTEX
  8
1
 10
2.3384721711278
 20
-8.36822104454041
 30
0.0
 70
     0
  0
VERTEX
  8
1
 10
2.33473345190287
 20
-8.30392703413963
 30
0.0
 70
     0
  0
VERTEX
  8
1
 10
2.32971505969763
 20
-8.25006268024445
 30
0.0
 70
     0
  0
VERTEX
  8
1
 10
2.32136671692133
 20
-8.18880794048309
 30
0.0
 70
     0
  0
VERTEX
  8
1
 10
2.31050047278404
 20
-8.13549996614456
 30
0.0
 70
     0
  0
VERTEX
  8
1
 10
2.11728574931622
 20
-7.45517115592957
 30
0.0
 42
-0.000043633231192
 70
     0
  0
VERTEX
  8
1
 10
3.1701523065567
 20
-7.07196038365364
 30
0.0
 70
     0
  0
VERTEX
  8
1
 10
3.4594473451376
 20
-7.71731903553009
 30
0.0
 70
     0
  0
VERTEX
  8
1
 10
3.48538825809956
 20
-7.76513891220093
 30
0.0
 70
     0
  0
VERTEX
  8
1
 10
3.51836718320847
 20
-7.81743026375771
 30
0.0
 70
     0
  0
VERTEX
  8
1
 10
3.54914632737637
 20
-7.86191867589951
 30
0.0
 70
     0
  0
VERTEX
  8
1
 10
3.58760956525803
 20
-7.91357416510582
 30
0.0
 70
     0
  0
VERTEX
  8
1
 10
3.62181933820248
 20
-7.95672272443771
 30
0.0
 70
     0
  0
VERTEX
  8
1
 10
3.66086469292641
 20
-8.00340788960457
 30
0.0
 70
     0
  0
VERTEX
  8
1
 10
3.70495190620422
 20
-8.05340483784676
 30
0.0
 70
     0
  0
VERTEX
  8
1
 10
3.75427779257297
 20
-8.10647587776184
 30
0.0
 70
     0
  0
VERTEX
  8
1
 10
3.79016578793526
 20
-8.14344521760941
 30
0.0
 70
     0
  0
VERTEX
  8
1
 10
3.82852002084255
 20
-8.18160074353218
 30
0.0
 70
     0
  0
VERTEX
  8
1
 10
3.86939158737659
 20
-8.22086448669434
 30
0.0
 70
     0
  0
VERTEX
  8
1
 10
3.91283044815063
 20
-8.26116074919701
 30
0.0
 70
     0
  0
VERTEX
  8
1
 10
3.95888542830944
 20
-8.30241383314133
 30
0.0
 70
     0
  0
VERTEX
  8
1
 10
4.00760232508182
 20
-8.34454198479652
 30
0.0
 70
     0
  0
VERTEX
  8
1
 10
4.05902390778065
 20
-8.38746269345283
 30
0.0
 70
     0
  0
VERTEX
  8
1
 10
4.11319332420826
 20
-8.43109571933746
 30
0.0
 70
     0
  0
VERTEX
  8
1
 10
4.17014955878258
 20
-8.47535855174065
 30
0.0
 70
     0
  0
VERTEX
  8
1
 10
4.22993121743202
 20
-8.52016565203667
 30
0.0
 70
     0
  0
VERTEX
  8
1
 10
4.29257387816906
 20
-8.56543072462082
 30
0.0
 70
     0
  0
VERTEX
  8
1
 10
4.35811084806919
 20
-8.61106823086739
 30
0.0
 70
     0
  0
VERTEX
  8
1
 10
4.42657392024994
 20
-8.65699036121368
 30
0.0
 70
     0
  0
VERTEX
  8
1
 10
4.49799223840237
 20
-8.70310930609703
 30
0.0
 70
     0
  0
VERTEX
  8
1
 10
4.57239229679108
 20
-8.74933271408081
 30
0.0
 70
     0
  0
VERTEX
  8
1
 10
4.64979945421219
 20
-8.79557277560234
 30
0.0
 70
     0
  0
VERTEX
  8
1
 10
4.70206014811993
 20
-8.82556655406952
 30
0.0
 70
     0
  0
VERTEX
  8
1
 10
5.2921267837286
 20
-8.48488967418671
 30
0.0
 70
     0
  0
VERTEX
  8
1
 10
5.29228196442127
 20
-8.42463414669037
 30
0.0
 70
     0
  0
VERTEX
  8
1
 10
5.29094135463238
 20
-8.33447719216347
 30
0.0
 70
     0
  0
VERTEX
  8
1
 10
5.28810987472534
 20
-8.24693257212639
 30
0.0
 70
     0
  0
VERTEX
  8
1
 10
5.28387987613678
 20
-8.16202375292778
 30
0.0
 70
     0
  0
VERTEX
  8
1
 10
5.27834181785583
 20
-8.07977268695831
 30
0.0
 70
     0
  0
VERTEX
  8
1
 10
5.27158691585064
 20
-8.00019527077675
 30
0.0
 70
     0
  0
VERTEX
  8
1
 10
5.26370676457882
 20
-7.92331345677376
 30
0.0
 70
     0
  0
VERTEX
  8
1
 10
5.25479409396648
 20
-7.84913784265518
 30
0.0
 70
     0
  0
VERTEX
  8
1
 10
5.24493974149227
 20
-7.77767978310585
 30
0.0
 70
     0
  0
VERTEX
  8
1
 10
5.23423681557178
 20
-7.70895214676857
 30
0.0
 70
     0
  0
VERTEX
  8
1
 10
5.22277653217316
 20
-7.6429579615593
 30
0.0
 70
     0
  0
VERTEX
  8
1
 10
5.2106516212225
 20
-7.5797055542469
 30
0.0
 70
     0
  0
VERTEX
  8
1
 10
5.19795367717743
 20
-7.5191941678524
 30
0.0
 70
     0
  0
VERTEX
  8
1
 10
5.18477505147457
 20
-7.46142683029175
 30
0.0
 70
     0
  0
VERTEX
  8
1
 10
5.17120696008205
 20
-7.40639824271202
 30
0.0
 70
     0
  0
VERTEX
  8
1
 10
5.157341375947
 20
-7.35410537719727
 30
0.0
 70
     0
  0
VERTEX
  8
1
 10
5.14326837956905
 20
-7.3045406639576
 30
0.0
 70
     0
  0
VERTEX
  8
1
 10
5.12197077572346
 20
-7.23528768420219
 30
0.0
 70
     0
  0
VERTEX
  8
1
 10
5.10071594119072
 20
-7.17210946083069
 30
0.0
 70
     0
  0
VERTEX
  8
1
 10
5.07980742454529
 20
-7.11495073437691
 30
0.0
 70
     0
  0
VERTEX
  8
1
 10
5.05954423248768
 20
-7.06375094652176
 30
0.0
 70
     0
  0
VERTEX
  8
1
 10
5.03404123187065
 20
-7.00461347699165
 30
0.0
 70
     0
  0
VERTEX
  8
1
 10
5.01090303361416
 20
-6.95571339130402
 30
0.0
 70
     0
  0
VERTEX
  8
1
 10
4.98210755288601
 20
-6.90100727677345
 30
0.0
 70
     0
  0
VERTEX
  8
1
 10
4.95366482436657
 20
-6.85463171601295
 30
0.0
 70
     0
  0
VERTEX
  8
1
 10
4.53941602110863
 20
-6.28141505420208
 30
0.0
 42
-0.000043633235318
 70
     0
  0
VERTEX
  8
1
 10
5.39772118926048
 20
-5.56121313273907
 30
0.0
 70
     0
  0
VERTEX
  8
1
 10
5.89029498696327
 20
-6.0687069863081
 30
0.0
 70
     0
  0
VERTEX
  8
1
 10
5.93102689087391
 20
-6.10477060079575
 30
0.0
 70
     0
  0
VERTEX
  8
1
 10
5.97990199625492
 20
-6.14262863397598
 30
0.0
 70
     0
  0
VERTEX
  8
1
 10
6.02404030561447
 20
-6.17390738427639
 30
0.0
 70
     0
  0
VERTEX
  8
1
 10
6.07785167098045
 20
-6.20929198861122
 30
0.0
 70
     0
  0
VERTEX
  8
1
 10
6.12475598156452
 20
-6.23813818693161
 30
0.0
 70
     0
  0
VERTEX
  8
1
 10
6.1774137109518
 20
-6.26865390241146
 30
0.0
 70
     0
  0
VERTEX
  8
1
 10
6.23594219088554
 20
-6.30055640339851
 30
0.0
 70
     0
  0
VERTEX
  8
1
 10
6.30044437050819
 20
-6.33355652391911
 30
0.0
 70
     0
  0
VERTEX
  8
1
 10
6.34681236147881
 20
-6.35602252483368
 30
0.0
 70
     0
  0
VERTEX
  8
1
 10
6.39590320587158
 20
-6.37875838875771
 30
0.0
 70
     0
  0
VERTEX
  8
1
 10
6.44773885607719
 20
-6.40167592763901
 30
0.0
 70
     0
  0
VERTEX
  8
1
 10
6.50234050750732
 20
-6.42468506097794
 30
0.0
 70
     0
  0
VERTEX
  8
1
 10
6.55972708463669
 20
-6.44769797921181
 30
0.0
 70
     0
  0
VERTEX
  8
1
 10
6.61991448402405
 20
-6.47062308788299
 30
0.0
 70
     0
  0
VERTEX
  8
1
 10
6.68291557431221
 20
-6.49336879253387
 30
0.0
 70
     0
  0
VERTEX
  8
1
 10
6.74874095320702
 20
-6.51584349870682
 30
0.0
 70
     0
  0
VERTEX
  8
1
 10
6.81740046143532
 20
-6.53795636892319
 30
0.0
 70
     0
  0
VERTEX
  8
1
 10
6.88890242576599
 20
-6.55961429476738
 30
0.0
 70
     0
  0
VERTEX
  8
1
 10
6.963249117136
 20
-6.58072492480278
 30
0.0
 70
     0
  0
VERTEX
  8
1
 10
7.04044204950333
 20
-6.60119515061378
 30
0.0
 70
     0
  0
VERTEX
  8
1
 10
7.12048273682594
 20
-6.62093262076378
 30
0.0
 70
     0
  0
VERTEX
  8
1
 10
7.20336739420891
 20
-6.63984271287918
 30
0.0
 70
     0
  0
VERTEX
  8
1
 10
7.28908996582031
 20
-6.65783307552338
 30
0.0
 70
     0
  0
VERTEX
  8
1
 10
7.37764439582825
 20
-6.67480984330177
 30
0.0
 70
     0
  0
VERTEX
  8
1
 10
7.4370119869709
 20
-6.68511989712715
 30
0.0
 70
     0
  0
VERTEX
  8
1
 10
7.8749750494957
 20
-6.16317380070686
 30
0.0
 70
     0
  0
VERTEX
  8
1
 10
7.85451239347458
 20
-6.10649916231632
 30
0.0
 70
     0
  0
VERTEX
  8
1
 10
7.82241648435593
 20
-6.02223756015301
 30
0.0
 70
     0
  0
VERTEX
  8
1
 10
7.78981415629387
 20
-5.94094104468822
 30
0.0
 70
     0
  0
VERTEX
  8
1
 10
7.75679851770401
 20
-5.86260015368462
 30
0.0
 70
     0
  0
VERTEX
  8
1
 10
7.72346267700195
 20
-5.78720315396786
 30
0.0
 70
     0
  0
VERTEX
  8
1
 10
7.68989822864532
 20
-5.71473566293716
 30
0.0
 70
     0
  0
VERTEX
  8
1
 10
7.65619828104973
 20
-5.64518481194973
 30
0.0
 70
     0
  0
VERTEX
  8
1
 10
7.62245291471481
 20
-5.57853091955185
 30
0.0
 70
     0
  0
VERTEX
  8
1
 10
7.58875296711922
 20
-5.51475354731083
 30
0.0
 70
     0
  0
VERTEX
  8
1
 10
7.55519003272057
 20
-5.453830742836
 30
0.0
 70
     0
  0
VERTEX
  8
1
 10
7.52184889316559
 20
-5.39573601186275
 30
0.0
 70
     0
  0
VERTEX
  8
1
 10
7.4888218998909
 20
-5.34044513106346
 30
0.0
 70
     0
  0
VERTEX
  8
1
 10
7.45619383454323
 20
-5.28792630732059
 30
0.0
 70
     0
  0
VERTEX
  8
1
 10
7.42405250668526
 20
-5.2381500184536
 30
0.0
 70
     0
  0
VERTEX
  8
1
 10
7.39248118400574
 20
-5.19108068645
 30
0.0
 70
     0
  0
VERTEX
  8
1
 10
7.36156691908836
 20
-5.14668386876583
 30
0.0
 70
     0
  0
VERTEX
  8
1
 10
7.33139070868492
 20
-5.10492095947266
 30
0.0
 70
     0
  0
VERTEX
  8
1
 10
7.28769182562828
 20
-5.04712902009487
 30
0.0
 70
     0
  0
VERTEX
  8
1
 10
7.24611021280289
 20
-4.99502994120121
 30
0.0
 70
     0
  0
VERTEX
  8
1
 10
7.20691384077072
 20
-4.94847005605698
 30
0.0
 70
     0
  0
VERTEX
  8
1
 10
7.17036083936691
 20
-4.90728774964809
 30
0.0
 70
     0
  0
VERTEX
  8
1
 10
7.12616991996765
 20
-4.86043907701969
 30
0.0
 70
     0
  0
VERTEX
  8
1
 10
7.08770176172256
 20
-4.82240277528763
 30
0.0
 70
     0
  0
VERTEX
  8
1
 10
7.04193254113197
 20
-4.78084462881088
 30
0.0
 70
     0
  0
VERTEX
  8
1
 10
6.99934338927269
 20
-4.74699328541756
 30
0.0
 70
     0
  0
VERTEX
  8
1
 10
6.4140252828598
 20
-4.35002744793892
 30
0.0
 42
-0.000043633249693
 70
     0
  0
VERTEX
  8
1
 10
6.97424499392509
 20
-3.37970112264156
 30
0.0
 70
     0
  0
VERTEX
  8
1
 10
7.61068643331528
 20
-3.68811896443367
 30
0.0
 70
     0
  0
VERTEX
  8
1
 10
7.66129577755928
 20
-3.70807671546936
 30
0.0
 70
     0
  0
VERTEX
  8
1
 10
7.72017133235931
 20
-3.72693533301353
 30
0.0
 70
     0
  0
VERTEX
  8
1
 10
7.77234610915184
 20
-3.74123125970364
 30
0.0
 70
     0
  0
VERTEX
  8
1
 10
7.835014128685
 20
-3.75607788860798
 30
0.0
 70
     0
  0
VERTEX
  8
1
 10
7.88895569443703
 20
-3.76714189350605
 30
0.0
 70
     0
  0
VERTEX
  8
1
 10
7.94887588024139
 20
-3.7778073489666
 30
0.0
 70
     0
  0
VERTEX
  8
1
 10
8.01478528380394
 20
-3.78776805698872
 30
0.0
 70
     0
  0
VERTEX
  8
1
 10
8.08668466210365
 20
-3.79671706259251
 30
0.0
 70
     0
  0
VERTEX
  8
1
 10
8.13793970942497
 20
-3.80196898281574
 30
0.0
 70
     0
  0
VERTEX
  8
1
 10
8.19184645414352
 20
-3.80654340684414
 30
0.0
 70
     0
  0
VERTEX
  8
1
 10
8.24839429855347
 20
-3.81035025417805
 30
0.0
 70
     0
  0
VERTEX
  8
1
 10
8.30757264494896
 20
-3.81329717338085
 30
0.0
 70
     0
  0
VERTEX
  8
1
 10
8.36936938166618
 20
-3.8152944624424
 30
0.0
 70
     0
  0
VERTEX
  8
1
 10
8.43376785516739
 20
-3.81625166237354
 30
0.0
 70
     0
  0
VERTEX
  8
1
 10
8.50074838399887
 20
-3.81607793569565
 30
0.0
 70
     0
  0
VERTEX
  8
1
 10
8.57029128670692
 20
-3.81468395888805
 30
0.0
 70
     0
  0
VERTEX
  8
1
 10
8.64237385392189
 20
-3.8119800299406
 30
0.0
 70
     0
  0
VERTEX
  8
1
 10
8.71697110533714
 20
-3.80787720382214
 30
0.0
 70
     0
  0
VERTEX
  8
1
 10
8.79405351877213
 20
-3.80228691399097
 30
0.0
 70
     0
  0
VERTEX
  8
1
 10
8.87359308600426
 20
-3.79512097239494
 30
0.0
 70
     0
  0
VERTEX
  8
1
 10
8.95555649995804
 20
-3.78629194796085
 30
0.0
 70
     0
  0
VERTEX
  8
1
 10
9.03991121053696
 20
-3.77571392357349
 30
0.0
 70
     0
  0
VERTEX
  8
1
 10
9.12661709785461
 20
-3.76329984664917
 30
0.0
 70
     0
  0
VERTEX
  8
1
 10
9.21563706994057
 20
-3.74896569252014
 30
0.0
 70
     0
  0
VERTEX
  8
1
 10
9.27495015859604
 20
-3.73834906220436
 30
0.0
 70
     0
  0
VERTEX
  8
1
 10
9.50798462629318
 20
-3.09808809608221
 30
0.0
 70
     0
  0
VERTEX
  8
1
 10
9.46937264204025
 20
-3.05182967782021
 30
0.0
 70
     0
  0
VERTEX
  8
1
 10
9.41039338111877
 20
-2.98362776339054
 30
0.0
 70
     0
  0
VERTEX
  8
1
 10
9.35195233225822
 20
-2.91838469058275
 30
0.0
 70
     0
  0
VERTEX
  8
1
 10
9.29413276314735
 20
-2.8560597717762
 30
0.0
 70
     0
  0
VERTEX
  8
1
 10
9.23702096939087
 20
-2.79661156237125
 30
0.0
 70
     0
  0
VERTEX
  8
1
 10
9.1806949198246
 20
-2.73999445438385
 30
0.0
 70
     0
  0
VERTEX
  8
1
 10
9.12523939609528
 20
-2.68616359680891
 30
0.0
 70
     0
  0
VERTEX
  8
1
 10
9.07073312401772
 20
-2.6350711107254
 30
0.0
 70
     0
  0
VERTEX
  8
1
 10
9.01725180149078
 20
-2.58666627854109
 30
0.0
 70
     0
  0
VERTEX
  8
1
 10
8.96487642526627
 20
-2.54089686870575
 30
0.0
 70
     0
  0
VERTEX
  8
1
 10
8.91367588043213
 20
-2.4977087572217
 30
0.0
 70
     0
  0
VERTEX
  8
1
 10
8.86373040676117
 20
-2.45704819858074
 30
0.0
 70
     0
  0
VERTEX
  8
1
 10
8.81510737538338
 20
-2.41885633766651
 30
0.0
 70
     0
  0
VERTEX
  8
1
 10
8.76787945628166
 20
-2.38307469785213
 30
0.0
 70
     0
  0
VERTEX
  8
1
 10
8.72211402058601
 20
-2.34964196383953
 30
0.0
 70
     0
  0
VERTEX
  8
1
 10
8.67787919640541
 20
-2.31849606335163
 30
0.0
 70
     0
  0
VERTEX
  8
1
 10
8.63523932695389
 20
-2.28957284241915
 30
0.0
 70
     0
  0
VERTEX
  8
1
 10
8.57440925240517
 20
-2.25021220594645
 30
0.0
 70
     0
  0
VERTEX
  8
1
 10
8.51751698255539
 20
-2.21547671109438
 30
0.0
 70
     0
  0
VERTEX
  8
1
 10
8.46475857496262
 20
-2.18513055890799
 30
0.0
 70
     0
  0
VERTEX
  8
1
 10
8.41632554531097
 20
-2.15893378704786
 30
0.0
 70
     0
  0
VERTEX
  8
1
 10
8.35877621769905
 20
-2.13002457022667
 30
0.0
 70
     0
  0
VERTEX
  8
1
 10
8.30961951613426
 20
-2.10743858814239
 30
0.0
 70
     0
  0
VERTEX
  8
1
 10
8.25239720344543
 20
-2.08404093533754
 30
0.0
 70
     0
  0
VERTEX
  8
1
 10
8.20079848766327
 20
-2.06679771095514
 30
0.0
 70
     0
  0
VERTEX
  8
1
 10
7.51500958800316
 20
-1.89396218657494
 30
0.0
 42
-0.000043633242734
 70
     0
  0
SEQEND
  0
TEXT
  8
NOTES
 10
-10.0
 20
-11.0
 30
0.0
 11
-10.0
 21
-11.0
 31
0.0
 40
0.399999618530273
  1
Diametral Pitch: 25.399999961392
 41
1.0
  7
ARIAL
  0
TEXT
  8
NOTES
 10
-10.0
 20
-11.8000001907349
 30
0.0
 11
-10.0
 21
-11.8000001907349
 31
0.0
 40
0.399999618530273
  1
Number Of Teeth: 18
 41
1.0
  7
ARIAL
  0
TEXT
  8
NOTES
 10
-10.0
 20
-12.6000003814697
 30
0.0
 11
-10.0
 21
-12.6000003814697
 31
0.0
 40
0.399999618530273
  1
Pressure Angle: 20
 41
1.0
  7
ARIAL
  0
ENDSEC
  0
EOF
