  0
SECTION
  2
HEADER
  9
$MEASUREMENT
 70
     1
  0
ENDSEC
  0
SECTION
  2
TABLES
  0
TABLE
  2
LTYPE
 70
     1
  0
LTYPE
  2
Continuous
  3
_
 70
     0
 72
    65
 73
     0
 40
0.0
  0
ENDTAB
  0
TABLE
  2
LAYER
 70
     2
  0
LAYER
  2
1
 70
     0
 62
     7
  6
Continuous
  0
LAYER
  2
NOTES
 70
     0
 62
     1
  6
Continuous
  0
ENDTAB
  0
TABLE
  2
STYLE
 70
     1
  0
STYLE
  2
ARIAL
  3
Arial.ttf
 70
     0
 40
0.0
 41
1.0
 50
0.0
 71
     0
 42
1.0
  0
ENDTAB
  0
ENDSEC
  0
SECTION
  2
ENTITIES
  0
POLYLINE
  8
1
 66
     1
 10
0.0
 20
0.0
 70
     1
  0
VERTEX
  8
1
 10
4.46341987252235
 20
-0.457843033969402
 30
0.0
 70
     0
  0
VERTEX
  8
1
 10
4.87073512673378
 20
-0.499622738733888
 30
0.0
 70
     0
  0
VERTEX
  8
1
 10
4.92458207011223
 20
-0.499801149219274
 30
0.0
 70
     0
  0
VERTEX
  8
1
 10
4.97791691720486
 20
-0.495610276982188
 30
0.0
 70
     0
  0
VERTEX
  8
1
 10
5.03777124583721
 20
-0.487518881261349
 30
0.0
 70
     0
  0
VERTEX
  8
1
 10
5.09735798239708
 20
-0.47655536532402
 30
0.0
 70
     0
  0
VERTEX
  8
1
 10
5.15119924843311
 20
-0.464460071176291
 30
0.0
 70
     0
  0
VERTEX
  8
1
 10
5.21035639941692
 20
-0.448984960466623
 30
0.0
 70
     0
  0
VERTEX
  8
1
 10
5.27465381622314
 20
-0.429746102914214
 30
0.0
 70
     0
  0
VERTEX
  8
1
 10
5.32613179385662
 20
-0.412620683386922
 30
0.0
 70
     0
  0
VERTEX
  8
1
 10
5.38029893934727
 20
-0.393011757731438
 30
0.0
 70
     0
  0
VERTEX
  8
1
 10
5.43705911636352
 20
-0.370767575316131
 30
0.0
 70
     0
  0
VERTEX
  8
1
 10
5.49630899727345
 20
-0.34573972094804
 30
0.0
 70
     0
  0
VERTEX
  8
1
 10
5.55793919861317
 20
-0.317783540673554
 30
0.0
 70
     0
  0
VERTEX
  8
1
 10
5.6218354165554
 20
-0.28675821274519
 30
0.0
 70
     0
  0
VERTEX
  8
1
 10
5.68787766993046
 20
-0.25252691321075
 30
0.0
 70
     0
  0
VERTEX
  8
1
 10
5.73303525149822
 20
-0.227859309874475
 30
0.0
 70
     0
  0
VERTEX
  8
1
 10
5.78610250651836
 20
-0.19753432944417
 30
0.0
 70
     0
  0
VERTEX
  8
1
 10
5.78610137104988
 20
0.197534092888236
 30
0.0
 70
     0
  0
VERTEX
  8
1
 10
5.73303487300873
 20
0.227859096974134
 30
0.0
 70
     0
  0
VERTEX
  8
1
 10
5.68787729144096
 20
0.252526629343629
 30
0.0
 70
     0
  0
VERTEX
  8
1
 10
5.62183503806591
 20
0.286757928878069
 30
0.0
 70
     0
  0
VERTEX
  8
1
 10
5.55793844163418
 20
0.317783327773213
 30
0.0
 70
     0
  0
VERTEX
  8
1
 10
5.49630824029446
 20
0.34573936611414
 30
0.0
 70
     0
  0
VERTEX
  8
1
 10
5.43705835938454
 20
0.37076722048223
 30
0.0
 70
     0
  0
VERTEX
  8
1
 10
5.38029818236828
 20
0.393011379241943
 30
0.0
 70
     0
  0
VERTEX
  8
1
 10
5.32613103687763
 20
0.412620352208614
 30
0.0
 70
     0
  0
VERTEX
  8
1
 10
5.27465305924416
 20
0.42974572442472
 30
0.0
 70
     0
  0
VERTEX
  8
1
 10
5.21035564243793
 20
0.448984629288316
 30
0.0
 70
     0
  0
VERTEX
  8
1
 10
5.15119849145412
 20
0.46445978730917
 30
0.0
 70
     0
  0
VERTEX
  8
1
 10
5.09735722541809
 20
0.476555034145713
 30
0.0
 70
     0
  0
VERTEX
  8
1
 10
5.03777048885822
 20
0.487518644705415
 30
0.0
 70
     0
  0
VERTEX
  8
1
 10
4.97791653871536
 20
0.495609993115067
 30
0.0
 70
     0
  0
VERTEX
  8
1
 10
4.92458169162273
 20
0.499800818040967
 30
0.0
 70
     0
  0
VERTEX
  8
1
 10
4.87073436975479
 20
0.49962240755558
 30
0.0
 70
     0
  0
VERTEX
  8
1
 10
4.46342062950134
 20
0.457841709256172
 30
0.0
 42
-0.00004363323576
 70
     0
  0
VERTEX
  8
1
 10
4.35083476603031
 20
1.09634913355112
 30
0.0
 70
     0
  0
VERTEX
  8
1
 10
4.74787440896034
 20
1.19639753252268
 30
0.0
 70
     0
  0
VERTEX
  8
1
 10
4.79853484928608
 20
1.21464659273624
 30
0.0
 70
     0
  0
VERTEX
  8
1
 10
4.84721995294094
 20
1.23682636097074
 30
0.0
 70
     0
  0
VERTEX
  8
1
 10
4.90069711208344
 20
1.26490119770169
 30
0.0
 70
     0
  0
VERTEX
  8
1
 10
4.95294077396393
 20
1.2955832593143
 30
0.0
 70
     0
  0
VERTEX
  8
1
 10
4.99939846694469
 20
1.32536394819617
 30
0.0
 70
     0
  0
VERTEX
  8
1
 10
5.04969480037689
 20
1.36013871133327
 30
0.0
 70
     0
  0
VERTEX
  8
1
 10
5.10353455245495
 20
1.40020835325122
 30
0.0
 70
     0
  0
VERTEX
  8
1
 10
5.14605103433132
 20
1.43390754386783
 30
0.0
 70
     0
  0
VERTEX
  8
1
 10
5.19024498164654
 20
1.47086023017764
 30
0.0
 70
     0
  0
VERTEX
  8
1
 10
5.23597408235073
 20
1.51117598488927
 30
0.0
 70
     0
  0
VERTEX
  8
1
 10
5.28309034705162
 20
1.55495898723602
 30
0.0
 70
     0
  0
VERTEX
  8
1
 10
5.33144237995148
 20
1.60230802297592
 30
0.0
 70
     0
  0
VERTEX
  8
1
 10
5.38087386488914
 20
1.65331610590219
 30
0.0
 70
     0
  0
VERTEX
  8
1
 10
5.43122545778751
 20
1.70807066708803
 30
0.0
 70
     0
  0
VERTEX
  8
1
 10
5.46522289812565
 20
1.74669551998377
 30
0.0
 70
     0
  0
VERTEX
  8
1
 10
5.50471789836883
 20
1.79334170073271
 30
0.0
 70
     0
  0
VERTEX
  8
1
 10
5.36959563493729
 20
2.16458425670862
 30
0.0
 70
     0
  0
VERTEX
  8
1
 10
5.30935789644718
 20
2.17493064552546
 30
0.0
 70
     0
  0
VERTEX
  8
1
 10
5.25848663747311
 20
2.18266583532095
 30
0.0
 70
     0
  0
VERTEX
  8
1
 10
5.18471941351891
 20
2.19224483668804
 30
0.0
 70
     0
  0
VERTEX
  8
1
 10
5.11406488716602
 20
2.19954533129931
 30
0.0
 70
     0
  0
VERTEX
  8
1
 10
5.04659005105495
 20
2.2047365039587
 30
0.0
 70
     0
  0
VERTEX
  8
1
 10
4.98235357105732
 20
2.2079903781414
 30
0.0
 70
     0
  0
VERTEX
  8
1
 10
4.92140843570232
 20
2.20947992354631
 30
0.0
 70
     0
  0
VERTEX
  8
1
 10
4.86380119919777
 20
2.20938000231981
 30
0.0
 70
     0
  0
VERTEX
  8
1
 10
4.80957046747208
 20
2.20786623358726
 30
0.0
 70
     0
  0
VERTEX
  8
1
 10
4.74257063567638
 20
2.20395397692919
 30
0.0
 70
     0
  0
VERTEX
  8
1
 10
4.68168832957745
 20
2.19826281964779
 30
0.0
 70
     0
  0
VERTEX
  8
1
 10
4.62695723474026
 20
2.1912138313055
 30
0.0
 70
     0
  0
VERTEX
  8
1
 10
4.56721418201923
 20
2.18113635927439
 30
0.0
 70
     0
  0
VERTEX
  8
1
 10
4.50820237100124
 20
2.16826847344637
 30
0.0
 70
     0
  0
VERTEX
  8
1
 10
4.45665058791637
 20
2.15396497696638
 30
0.0
 70
     0
  0
VERTEX
  8
1
 10
4.40611164271832
 20
2.13538057506084
 30
0.0
 70
     0
  0
VERTEX
  8
1
 10
4.03765174150467
 20
1.9568099886179
 30
0.0
 42
-0.000043633227144
 70
     0
  0
VERTEX
  8
1
 10
3.71347359716892
 20
2.51830407381058
 30
0.0
 70
     0
  0
VERTEX
  8
1
 10
4.05235000252724
 20
2.74811437875032
 30
0.0
 70
     0
  0
VERTEX
  8
1
 10
4.09371398389339
 20
2.78258985131979
 30
0.0
 70
     0
  0
VERTEX
  8
1
 10
4.13187707960606
 20
2.8200830206275
 30
0.0
 70
     0
  0
VERTEX
  8
1
 10
4.17252685129642
 20
2.86475518941879
 30
0.0
 70
     0
  0
VERTEX
  8
1
 10
4.21112596690655
 20
2.91145549416542
 30
0.0
 70
     0
  0
VERTEX
  8
1
 10
4.24459617137909
 20
2.95532923936844
 30
0.0
 70
     0
  0
VERTEX
  8
1
 10
4.27996563613415
 20
3.00520923435688
 30
0.0
 70
     0
  0
VERTEX
  8
1
 10
4.31685397922993
 20
3.06127658635378
 30
0.0
 70
     0
  0
VERTEX
  8
1
 10
4.34528043270111
 20
3.10748485475779
 30
0.0
 70
     0
  0
VERTEX
  8
1
 10
4.37417053580284
 20
3.15732416212559
 30
0.0
 70
     0
  0
VERTEX
  8
1
 10
4.40335283279419
 20
3.21084901094437
 30
0.0
 70
     0
  0
VERTEX
  8
1
 10
4.43265321850777
 20
3.26810652315617
 30
0.0
 70
     0
  0
VERTEX
  8
1
 10
4.46189493834972
 20
3.32913719713688
 30
0.0
 70
     0
  0
VERTEX
  8
1
 10
4.49089972376823
 20
3.39397585391998
 30
0.0
 70
     0
  0
VERTEX
  8
1
 10
4.519487413764
 20
3.46264936625957
 30
0.0
 70
     0
  0
VERTEX
  8
1
 10
4.538224157691
 20
3.51057257056236
 30
0.0
 70
     0
  0
VERTEX
  8
1
 10
4.55938323438168
 20
3.5679141074419
 30
0.0
 70
     0
  0
VERTEX
  8
1
 10
4.30543760061264
 20
3.87055317163467
 30
0.0
 70
     0
  0
VERTEX
  8
1
 10
4.24529372751713
 20
3.85967311263084
 30
0.0
 70
     0
  0
VERTEX
  8
1
 10
4.19484486281872
 20
3.84954284131527
 30
0.0
 70
     0
  0
VERTEX
  8
1
 10
4.12225019931793
 20
3.83331434726715
 30
0.0
 70
     0
  0
VERTEX
  8
1
 10
4.05335981249809
 20
3.81600942909718
 30
0.0
 70
     0
  0
VERTEX
  8
1
 10
3.98817862272263
 20
3.79780938327312
 30
0.0
 70
     0
  0
VERTEX
  8
1
 10
3.92670322358608
 20
3.77889702022076
 30
0.0
 70
     0
  0
VERTEX
  8
1
 10
3.86892377436161
 20
3.75945212244987
 30
0.0
 70
     0
  0
VERTEX
  8
1
 10
3.81482513546944
 20
3.73965560793877
 30
0.0
 70
     0
  0
VERTEX
  8
1
 10
3.76438270509243
 20
3.71968498826027
 30
0.0
 70
     0
  0
VERTEX
  8
1
 10
3.70276158750057
 20
3.69309345185757
 30
0.0
 70
     0
  0
VERTEX
  8
1
 10
3.64749720096588
 20
3.66692279577255
 30
0.0
 70
     0
  0
VERTEX
  8
1
 10
3.59847789108753
 20
3.64157951772213
 30
0.0
 70
     0
  0
VERTEX
  8
1
 10
3.54578458368778
 20
3.61167657673359
 30
0.0
 70
     0
  0
VERTEX
  8
1
 10
3.49473278522491
 20
3.57940126359463
 30
0.0
 70
     0
  0
VERTEX
  8
1
 10
3.45118189156055
 20
3.54832916855812
 30
0.0
 70
     0
  0
VERTEX
  8
1
 10
3.41004727482796
 20
3.51358004808426
 30
0.0
 70
     0
  0
VERTEX
  8
1
 10
3.12488288134336
 20
3.21975789666176
 30
0.0
 42
-0.000043633217027
 70
     0
  0
VERTEX
  8
1
 10
2.62821269184351
 20
3.6365138143301
 30
0.0
 70
     0
  0
VERTEX
  8
1
 10
2.86805258989334
 20
3.96836810410023
 30
0.0
 70
     0
  0
VERTEX
  8
1
 10
2.895130674541
 20
4.01491171419621
 30
0.0
 70
     0
  0
VERTEX
  8
1
 10
2.91816857308149
 20
4.06319637596607
 30
0.0
 70
     0
  0
VERTEX
  8
1
 10
2.94108838289976
 20
4.11907732188702
 30
0.0
 70
     0
  0
VERTEX
  8
1
 10
2.96138715296984
 20
4.17616299986839
 30
0.0
 70
     0
  0
VERTEX
  8
1
 10
2.9778328999877
 20
4.22883851826191
 30
0.0
 70
     0
  0
VERTEX
  8
1
 10
2.99400973021984
 20
4.28780755996704
 30
0.0
 70
     0
  0
VERTEX
  8
1
 10
3.00949714183807
 20
4.35311024487019
 30
0.0
 70
     0
  0
VERTEX
  8
1
 10
3.02040501981974
 20
4.40625395476818
 30
0.0
 70
     0
  0
VERTEX
  8
1
 10
3.03050671517849
 20
4.46296871304512
 30
0.0
 70
     0
  0
VERTEX
  8
1
 10
3.03962282389402
 20
4.52324657142162
 30
0.0
 70
     0
  0
VERTEX
  8
1
 10
3.04757299572229
 20
4.58707201182842
 30
0.0
 70
     0
  0
VERTEX
  8
1
 10
3.05417725890875
 20
4.65442383885384
 30
0.0
 70
     0
  0
VERTEX
  8
1
 10
3.05925677716732
 20
4.72527177333832
 30
0.0
 70
     0
  0
VERTEX
  8
1
 10
3.06263271421194
 20
4.79958175122738
 30
0.0
 70
     0
  0
VERTEX
  8
1
 10
3.0638488009572
 20
4.8510233938694
 30
0.0
 70
     0
  0
VERTEX
  8
1
 10
3.06412017792463
 20
4.91214339137077
 30
0.0
 70
     0
  0
VERTEX
  8
1
 10
2.72198024690151
 20
5.10967667996883
 30
0.0
 70
     0
  0
VERTEX
  8
1
 10
2.66918474733829
 20
5.07888239622116
 30
0.0
 70
     0
  0
VERTEX
  8
1
 10
2.62524325251579
 20
5.0521080493927
 30
0.0
 70
     0
  0
VERTEX
  8
1
 10
2.56257712543011
 20
5.01202979683876
 30
0.0
 70
     0
  0
VERTEX
  8
1
 10
2.50376004725695
 20
4.9722062677145
 30
0.0
 70
     0
  0
VERTEX
  8
1
 10
2.44873429834843
 20
4.93281118869781
 30
0.0
 70
     0
  0
VERTEX
  8
1
 10
2.39743458926678
 20
4.89401298761368
 30
0.0
 70
     0
  0
VERTEX
  8
1
 10
2.34979052096605
 20
4.85597933530807
 30
0.0
 70
     0
  0
VERTEX
  8
1
 10
2.30572507083416
 20
4.81887411773205
 30
0.0
 70
     0
  0
VERTEX
  8
1
 10
2.26515497118235
 20
4.78285516500473
 30
0.0
 70
     0
  0
VERTEX
  8
1
 10
2.21634496599436
 20
4.73679147958755
 30
0.0
 70
     0
  0
VERTEX
  8
1
 10
2.17336445599794
 20
4.69329773783684
 30
0.0
 70
     0
  0
VERTEX
  8
1
 10
2.13596893697977
 20
4.65271722972393
 30
0.0
 70
     0
  0
VERTEX
  8
1
 10
2.09668097048998
 20
4.60659525692463
 30
0.0
 70
     0
  0
VERTEX
  8
1
 10
2.05974664092064
 20
4.55880603790283
 30
0.0
 70
     0
  0
VERTEX
  8
1
 10
2.02944988161325
 20
4.51471239030361
 30
0.0
 70
     0
  0
VERTEX
  8
1
 10
2.00268064439297
 20
4.46798975467682
 30
0.0
 70
     0
  0
VERTEX
  8
1
 10
1.83520718067884
 20
4.09435552358627
 30
0.0
 42
-0.000043633241371
 70
     0
  0
VERTEX
  8
1
 10
1.22595065459609
 20
4.31610684096813
 30
0.0
 70
     0
  0
VERTEX
  8
1
 10
1.33782609328628
 20
4.70997776985168
 30
0.0
 70
     0
  0
VERTEX
  8
1
 10
1.34735220074654
 20
4.76297538280487
 30
0.0
 70
     0
  0
VERTEX
  8
1
 10
1.35248650535941
 20
4.81622771918774
 30
0.0
 70
     0
  0
VERTEX
  8
1
 10
1.35491158217192
 20
4.87657786905766
 30
0.0
 70
     0
  0
VERTEX
  8
1
 10
1.35446174740791
 20
4.93716306090355
 30
0.0
 70
     0
  0
VERTEX
  8
1
 10
1.35189965739846
 20
4.99228702783585
 30
0.0
 70
     0
  0
VERTEX
  8
1
 10
1.34693217203021
 20
5.05323254168034
 30
0.0
 70
     0
  0
VERTEX
  8
1
 10
1.33915071189404
 20
5.1198940038681
 30
0.0
 70
     0
  0
VERTEX
  8
1
 10
1.33122457414865
 20
5.17356343567371
 30
0.0
 70
     0
  0
VERTEX
  8
1
 10
1.32131959870458
 20
5.23031301498413
 30
0.0
 70
     0
  0
VERTEX
  8
1
 10
1.30926953405142
 20
5.29007347822189
 30
0.0
 70
     0
  0
VERTEX
  8
1
 10
1.29491058886051
 20
5.35276912748814
 30
0.0
 70
     0
  0
VERTEX
  8
1
 10
1.27808114811778
 20
5.41831783056259
 30
0.0
 70
     0
  0
VERTEX
  8
1
 10
1.25862253010273
 20
5.48663064241409
 30
0.0
 70
     0
  0
VERTEX
  8
1
 10
1.23637945950031
 20
5.55761369764805
 30
0.0
 70
     0
  0
VERTEX
  8
1
 10
1.21992812976241
 20
5.60636844336987
 30
0.0
 70
     0
  0
VERTEX
  8
1
 10
1.19927887842059
 20
5.66389544010162
 30
0.0
 70
     0
  0
VERTEX
  8
1
 10
0.810212305933237
 20
5.73249741792679
 30
0.0
 70
     0
  0
VERTEX
  8
1
 10
0.771133076399565
 20
5.68550302684307
 30
0.0
 70
     0
  0
VERTEX
  8
1
 10
0.738998797908425
 20
5.64531501233578
 30
0.0
 70
     0
  0
VERTEX
  8
1
 10
0.693819405883551
 20
5.58622031211853
 30
0.0
 70
     0
  0
VERTEX
  8
1
 10
0.652169806882739
 20
5.52868196070194
 30
0.0
 70
     0
  0
VERTEX
  8
1
 10
0.613936548680067
 20
5.47284227013588
 30
0.0
 70
     0
  0
VERTEX
  8
1
 10
0.579000312462449
 20
5.41883901059628
 30
0.0
 70
     0
  0
VERTEX
  8
1
 10
0.547237757965922
 20
5.36680351793766
 30
0.0
 70
     0
  0
VERTEX
  8
1
 10
0.518520671874285
 20
5.3168644785881
 30
0.0
 70
     0
  0
VERTEX
  8
1
 10
0.492716488242149
 20
5.2691426306963
 30
0.0
 70
     0
  0
VERTEX
  8
1
 10
0.462604715675116
 20
5.20916226506233
 30
0.0
 70
     0
  0
VERTEX
  8
1
 10
0.437092158198357
 20
5.15359130203724
 30
0.0
 70
     0
  0
VERTEX
  8
1
 10
0.415831220522523
 20
5.10266819000244
 30
0.0
 70
     0
  0
VERTEX
  8
1
 10
0.394687046855688
 20
5.04589060246944
 30
0.0
 70
     0
  0
VERTEX
  8
1
 10
0.37632510215044
 20
4.98835111558437
 30
0.0
 70
     0
  0
VERTEX
  8
1
 10
0.362936414778233
 20
4.93655407130718
 30
0.0
 70
     0
  0
VERTEX
  8
1
 10
0.353761640191078
 20
4.88349438607693
 30
0.0
 70
     0
  0
VERTEX
  8
1
 10
0.324178380891681
 20
4.47511330544949
 30
0.0
 42
-0.00004363324287
 70
     0
  0
VERTEX
  8
1
 10
-0.324178901314735
 20
4.47511330544949
 30
0.0
 70
     0
  0
VERTEX
  8
1
 10
-0.353762302547693
 20
4.88349476456642
 30
0.0
 70
     0
  0
VERTEX
  8
1
 10
-0.362937077134848
 20
4.93655444979668
 30
0.0
 70
     0
  0
VERTEX
  8
1
 10
-0.376325717195868
 20
4.98835149407387
 30
0.0
 70
     0
  0
VERTEX
  8
1
 10
-0.394687803834677
 20
5.04589098095894
 30
0.0
 70
     0
  0
VERTEX
  8
1
 10
-0.415831930190325
 20
5.10266856849194
 30
0.0
 70
     0
  0
VERTEX
  8
1
 10
-0.437092915177345
 20
5.15359168052673
 30
0.0
 70
     0
  0
VERTEX
  8
1
 10
-0.462605472654104
 20
5.20916302204132
 30
0.0
 70
     0
  0
VERTEX
  8
1
 10
-0.492717103287578
 20
5.26914300918579
 30
0.0
 70
     0
  0
VERTEX
  8
1
 10
-0.518521428853273
 20
5.3168648570776
 30
0.0
 70
     0
  0
VERTEX
  8
1
 10
-0.547238467633724
 20
5.36680389642715
 30
0.0
 70
     0
  0
VERTEX
  8
1
 10
-0.579001069441438
 20
5.41883938908577
 30
0.0
 70
     0
  0
VERTEX
  8
1
 10
-0.613937352970242
 20
5.47284302711487
 30
0.0
 70
     0
  0
VERTEX
  8
1
 10
-0.652170705795288
 20
5.52868233919144
 30
0.0
 70
     0
  0
VERTEX
  8
1
 10
-0.693820210173726
 20
5.58622031211853
 30
0.0
 70
     0
  0
VERTEX
  8
1
 10
-0.738999602198601
 20
5.64531501233578
 30
0.0
 70
     0
  0
VERTEX
  8
1
 10
-0.771133975312114
 20
5.68550302684307
 30
0.0
 70
     0
  0
VERTEX
  8
1
 10
-0.810213252156973
 20
5.73249817490578
 30
0.0
 70
     0
  0
VERTEX
  8
1
 10
-1.19927944615483
 20
5.66389392614365
 30
0.0
 70
     0
  0
VERTEX
  8
1
 10
-1.2199288867414
 20
5.60636768639088
 30
0.0
 70
     0
  0
VERTEX
  8
1
 10
-1.23638012185693
 20
5.55761294066906
 30
0.0
 70
     0
  0
VERTEX
  8
1
 10
-1.25862319245934
 20
5.4866298854351
 30
0.0
 70
     0
  0
VERTEX
  8
1
 10
-1.2780818104744
 20
5.41831669509411
 30
0.0
 70
     0
  0
VERTEX
  8
1
 10
-1.29491106197238
 20
5.35276837050915
 30
0.0
 70
     0
  0
VERTEX
  8
1
 10
-1.30927010178566
 20
5.29007234275341
 30
0.0
 70
     0
  0
VERTEX
  8
1
 10
-1.32132007181644
 20
5.23031187951565
 30
0.0
 70
     0
  0
VERTEX
  8
1
 10
-1.33122504726052
 20
5.17356230020523
 30
0.0
 70
     0
  0
VERTEX
  8
1
 10
-1.3391511850059
 20
5.11989286839962
 30
0.0
 70
     0
  0
VERTEX
  8
1
 10
-1.34693264514208
 20
5.05323178470135
 30
0.0
 70
     0
  0
VERTEX
  8
1
 10
-1.3519002251327
 20
4.99228589236736
 30
0.0
 70
     0
  0
VERTEX
  8
1
 10
-1.35446231514215
 20
4.93716230392456
 30
0.0
 70
     0
  0
VERTEX
  8
1
 10
-1.35491214990616
 20
4.87657711207867
 30
0.0
 70
     0
  0
VERTEX
  8
1
 10
-1.35248707309365
 20
4.81622734069824
 30
0.0
 70
     0
  0
VERTEX
  8
1
 10
-1.3473526738584
 20
4.76297538280487
 30
0.0
 70
     0
  0
VERTEX
  8
1
 10
-1.33782647177577
 20
4.7099770128727
 30
0.0
 70
     0
  0
VERTEX
  8
1
 10
-1.22595122233033
 20
4.31610608398914
 30
0.0
 42
-0.000043633235536
 70
     0
  0
VERTEX
  8
1
 10
-1.83520793765783
 20
4.09435552358627
 30
0.0
 70
     0
  0
VERTEX
  8
1
 10
-2.0026819691062
 20
4.46798975467682
 30
0.0
 70
     0
  0
VERTEX
  8
1
 10
-2.02945101708174
 20
4.51471163332462
 30
0.0
 70
     0
  0
VERTEX
  8
1
 10
-2.05974777638912
 20
4.55880565941334
 30
0.0
 70
     0
  0
VERTEX
  8
1
 10
-2.09668229520321
 20
4.60659563541412
 30
0.0
 70
     0
  0
VERTEX
  8
1
 10
-2.13597045093775
 20
4.65271685123444
 30
0.0
 70
     0
  0
VERTEX
  8
1
 10
-2.17336596995592
 20
4.69329735934734
 30
0.0
 70
     0
  0
VERTEX
  8
1
 10
-2.21634629070759
 20
4.73679147958755
 30
0.0
 70
     0
  0
VERTEX
  8
1
 10
-2.26515629589558
 20
4.78285516500473
 30
0.0
 70
     0
  0
VERTEX
  8
1
 10
-2.30572639554739
 20
4.81887373924255
 30
0.0
 70
     0
  0
VERTEX
  8
1
 10
-2.34979184567928
 20
4.85597933530807
 30
0.0
 70
     0
  0
VERTEX
  8
1
 10
-2.39743591398001
 20
4.89401298761368
 30
0.0
 70
     0
  0
VERTEX
  8
1
 10
-2.44873562306166
 20
4.93281118869781
 30
0.0
 70
     0
  0
VERTEX
  8
1
 10
-2.50376137197018
 20
4.97220588922501
 30
0.0
 70
     0
  0
VERTEX
  8
1
 10
-2.56257826089859
 20
5.01202941834927
 30
0.0
 70
     0
  0
VERTEX
  8
1
 10
-2.62524457722902
 20
5.0521080493927
 30
0.0
 70
     0
  0
VERTEX
  8
1
 10
-2.66918607205153
 20
5.07888163924217
 30
0.0
 70
     0
  0
VERTEX
  8
1
 10
-2.72198195010424
 20
5.10967667996883
 30
0.0
 70
     0
  0
VERTEX
  8
1
 10
-3.06412074565887
 20
4.9121414989233
 30
0.0
 70
     0
  0
VERTEX
  8
1
 10
-3.06384974718094
 20
4.85102187991142
 30
0.0
 70
     0
  0
VERTEX
  8
1
 10
-3.06263366043568
 20
4.79958099424839
 30
0.0
 70
     0
  0
VERTEX
  8
1
 10
-3.05925772339106
 20
4.72527101635933
 30
0.0
 70
     0
  0
VERTEX
  8
1
 10
-3.05417820513248
 20
4.65442232489586
 30
0.0
 70
     0
  0
VERTEX
  8
1
 10
-3.04757375270128
 20
4.58707087635994
 30
0.0
 70
     0
  0
VERTEX
  8
1
 10
-3.03962339162827
 20
4.52324505746365
 30
0.0
 70
     0
  0
VERTEX
  8
1
 10
-3.03050747215748
 20
4.46296719908714
 30
0.0
 70
     0
  0
VERTEX
  8
1
 10
-3.02040577679873
 20
4.4062524408102
 30
0.0
 70
     0
  0
VERTEX
  8
1
 10
-3.00949770957232
 20
4.35310873091221
 30
0.0
 70
     0
  0
VERTEX
  8
1
 10
-2.99401029795408
 20
4.28780604600906
 30
0.0
 70
     0
  0
VERTEX
  8
1
 10
-2.97783365696669
 20
4.22883662581444
 30
0.0
 70
     0
  0
VERTEX
  8
1
 10
-2.96138790994883
 20
4.17616148591042
 30
0.0
 70
     0
  0
VERTEX
  8
1
 10
-2.9410893291235
 20
4.11907618641853
 30
0.0
 70
     0
  0
VERTEX
  8
1
 10
-2.91816951930523
 20
4.06319524049759
 30
0.0
 70
     0
  0
VERTEX
  8
1
 10
-2.89513143151999
 20
4.01491095721722
 30
0.0
 70
     0
  0
VERTEX
  8
1
 10
-2.86805334687233
 20
3.96836659014225
 30
0.0
 70
     0
  0
VERTEX
  8
1
 10
-2.62821325957775
 20
3.63651305735111
 30
0.0
 42
-0.000043633246416
 70
     0
  0
VERTEX
  8
1
 10
-3.12488401681185
 20
3.21975713968277
 30
0.0
 70
     0
  0
VERTEX
  8
1
 10
-3.41004916727543
 20
3.51357966959476
 30
0.0
 70
     0
  0
VERTEX
  8
1
 10
-3.45118340551853
 20
3.54832841157913
 30
0.0
 70
     0
  0
VERTEX
  8
1
 10
-3.4947339206934
 20
3.57940088510513
 30
0.0
 70
     0
  0
VERTEX
  8
1
 10
-3.54578647613525
 20
3.61167619824409
 30
0.0
 70
     0
  0
VERTEX
  8
1
 10
-3.59847940504551
 20
3.64157913923264
 30
0.0
 70
     0
  0
VERTEX
  8
1
 10
-3.64749909341335
 20
3.66692241728306
 30
0.0
 70
     0
  0
VERTEX
  8
1
 10
-3.70276347994804
 20
3.69309307336807
 30
0.0
 70
     0
  0
VERTEX
  8
1
 10
-3.7643845975399
 20
3.71968498826027
 30
0.0
 70
     0
  0
VERTEX
  8
1
 10
-3.81482702791691
 20
3.73965560793877
 30
0.0
 70
     0
  0
VERTEX
  8
1
 10
-3.86892566680908
 20
3.75945212244987
 30
0.0
 70
     0
  0
VERTEX
  8
1
 10
-3.92670473754406
 20
3.77889664173126
 30
0.0
 70
     0
  0
VERTEX
  8
1
 10
-3.9881805151701
 20
3.79780938327312
 30
0.0
 70
     0
  0
VERTEX
  8
1
 10
-4.05336208343506
 20
3.81600905060768
 30
0.0
 70
     0
  0
VERTEX
  8
1
 10
-4.12225171327591
 20
3.83331359028816
 30
0.0
 70
     0
  0
VERTEX
  8
1
 10
-4.19484675526619
 20
3.84954246282578
 30
0.0
 70
     0
  0
VERTEX
  8
1
 10
-4.2452956199646
 20
3.85967273414135
 30
0.0
 70
     0
  0
VERTEX
  8
1
 10
-4.30543987154961
 20
3.87055279314518
 30
0.0
 70
     0
  0
VERTEX
  8
1
 10
-4.55938399136066
 20
3.56791259348392
 30
0.0
 70
     0
  0
VERTEX
  8
1
 10
-4.53822529315948
 20
3.51057181358337
 30
0.0
 70
     0
  0
VERTEX
  8
1
 10
-4.51948854923248
 20
3.46264860928059
 30
0.0
 70
     0
  0
VERTEX
  8
1
 10
-4.49090085923672
 20
3.3939747184515
 30
0.0
 70
     0
  0
VERTEX
  8
1
 10
-4.46189569532871
 20
3.3291360616684
 30
0.0
 70
     0
  0
VERTEX
  8
1
 10
-4.43265435397625
 20
3.26810538768768
 30
0.0
 70
     0
  0
VERTEX
  8
1
 10
-4.40335358977318
 20
3.21084787547588
 30
0.0
 70
     0
  0
VERTEX
  8
1
 10
-4.37417129278183
 20
3.1573230266571
 30
0.0
 70
     0
  0
VERTEX
  8
1
 10
-4.34528081119061
 20
3.1074840977788
 30
0.0
 70
     0
  0
VERTEX
  8
1
 10
-4.31685435771942
 20
3.06127582937479
 30
0.0
 70
     0
  0
VERTEX
  8
1
 10
-4.27996639311314
 20
3.00520847737789
 30
0.0
 70
     0
  0
VERTEX
  8
1
 10
-4.24459654986858
 20
2.95532810389996
 30
0.0
 70
     0
  0
VERTEX
  8
1
 10
-4.21112672388554
 20
2.91145416945219
 30
0.0
 70
     0
  0
VERTEX
  8
1
 10
-4.17252760827541
 20
2.86475405395031
 30
0.0
 70
     0
  0
VERTEX
  8
1
 10
-4.13187821507454
 20
2.82008226364851
 30
0.0
 70
     0
  0
VERTEX
  8
1
 10
-4.09371511936188
 20
2.7825890943408
 30
0.0
 70
     0
  0
VERTEX
  8
1
 10
-4.05235075950623
 20
2.74811343252659
 30
0.0
 70
     0
  0
VERTEX
  8
1
 10
-3.71347435414791
 20
2.51830312758684
 30
0.0
 42
-0.000043633214553
 70
     0
  0
VERTEX
  8
1
 10
-4.03765287697315
 20
1.95680942088366
 30
0.0
 70
     0
  0
VERTEX
  8
1
 10
-4.40611353516579
 20
2.1353800073266
 30
0.0
 70
     0
  0
VERTEX
  8
1
 10
-4.45665210187435
 20
2.15396440923214
 30
0.0
 70
     0
  0
VERTEX
  8
1
 10
-4.50820388495922
 20
2.16826790571213
 30
0.0
 70
     0
  0
VERTEX
  8
1
 10
-4.56721569597721
 20
2.18113579154015
 30
0.0
 70
     0
  0
VERTEX
  8
1
 10
-4.62695912718773
 20
2.19121326357126
 30
0.0
 70
     0
  0
VERTEX
  8
1
 10
-4.68168984353542
 20
2.19826225191355
 30
0.0
 70
     0
  0
VERTEX
  8
1
 10
-4.74257214963436
 20
2.20395340919495
 30
0.0
 70
     0
  0
VERTEX
  8
1
 10
-4.80957235991955
 20
2.20786566585302
 30
0.0
 70
     0
  0
VERTEX
  8
1
 10
-4.86380271315575
 20
2.20937962383032
 30
0.0
 70
     0
  0
VERTEX
  8
1
 10
-4.9214099496603
 20
2.20947935581207
 30
0.0
 70
     0
  0
VERTEX
  8
1
 10
-4.9823550850153
 20
2.20798999965191
 30
0.0
 70
     0
  0
VERTEX
  8
1
 10
-5.04659194350243
 20
2.20473612546921
 30
0.0
 70
     0
  0
VERTEX
  8
1
 10
-5.11406677961349
 20
2.19954476356506
 30
0.0
 70
     0
  0
VERTEX
  8
1
 10
-5.18472092747688
 20
2.1922442689538
 30
0.0
 70
     0
  0
VERTEX
  8
1
 10
-5.25848815143108
 20
2.18266507834196
 30
0.0
 70
     0
  0
VERTEX
  8
1
 10
-5.30935941040516
 20
2.17492988854647
 30
0.0
 70
     0
  0
VERTEX
  8
1
 10
-5.36959790587425
 20
2.16458387821913
 30
0.0
 70
     0
  0
VERTEX
  8
1
 10
-5.50471789836883
 20
1.79334056526422
 30
0.0
 70
     0
  0
VERTEX
  8
1
 10
-5.46522365510464
 20
1.74669457376003
 30
0.0
 70
     0
  0
VERTEX
  8
1
 10
-5.4312262147665
 20
1.70806991010904
 30
0.0
 70
     0
  0
VERTEX
  8
1
 10
-5.38087462186813
 20
1.65331534892321
 30
0.0
 70
     0
  0
VERTEX
  8
1
 10
-5.33144275844097
 20
1.60230688750744
 30
0.0
 70
     0
  0
VERTEX
  8
1
 10
-5.28309072554111
 20
1.55495832487941
 30
0.0
 70
     0
  0
VERTEX
  8
1
 10
-5.23597408235073
 20
1.51117513328791
 30
0.0
 70
     0
  0
VERTEX
  8
1
 10
-5.19024498164654
 20
1.47085937857628
 30
0.0
 70
     0
  0
VERTEX
  8
1
 10
-5.14605141282082
 20
1.43390659764409
 30
0.0
 70
     0
  0
VERTEX
  8
1
 10
-5.10353493094444
 20
1.4002076908946
 30
0.0
 70
     0
  0
VERTEX
  8
1
 10
-5.04969517886639
 20
1.36013804897666
 30
0.0
 70
     0
  0
VERTEX
  8
1
 10
-4.99939846694469
 20
1.32536319121718
 30
0.0
 70
     0
  0
VERTEX
  8
1
 10
-4.95294115245342
 20
1.29558259695768
 30
0.0
 70
     0
  0
VERTEX
  8
1
 10
-4.90069749057293
 20
1.26490034610033
 30
0.0
 70
     0
  0
VERTEX
  8
1
 10
-4.84722070991993
 20
1.23682560399175
 30
0.0
 70
     0
  0
VERTEX
  8
1
 10
-4.79853560626507
 20
1.214646025002
 30
0.0
 70
     0
  0
VERTEX
  8
1
 10
-4.74787478744984
 20
1.19639677554369
 30
0.0
 70
     0
  0
VERTEX
  8
1
 10
-4.35083514451981
 20
1.09634837657213
 30
0.0
 42
-0.000043633218645
 70
     0
  0
VERTEX
  8
1
 10
-4.46342138648033
 20
0.457841236144304
 30
0.0
 70
     0
  0
VERTEX
  8
1
 10
-4.87073588371277
 20
0.499622596800327
 30
0.0
 70
     0
  0
VERTEX
  8
1
 10
-4.92458282709122
 20
0.499801007285714
 30
0.0
 70
     0
  0
VERTEX
  8
1
 10
-4.97791767418385
 20
0.495610135048628
 30
0.0
 70
     0
  0
VERTEX
  8
1
 10
-5.0377720028162
 20
0.487518739327788
 30
0.0
 70
     0
  0
VERTEX
  8
1
 10
-5.09735873937607
 20
0.47655522339046
 30
0.0
 70
     0
  0
VERTEX
  8
1
 10
-5.1512000054121
 20
0.46445992924273
 30
0.0
 70
     0
  0
VERTEX
  8
1
 10
-5.21035715639591
 20
0.448984818533063
 30
0.0
 70
     0
  0
VERTEX
  8
1
 10
-5.27465457320213
 20
0.429745960980654
 30
0.0
 70
     0
  0
VERTEX
  8
1
 10
-5.32613255083561
 20
0.412620541453361
 30
0.0
 70
     0
  0
VERTEX
  8
1
 10
-5.38029969632626
 20
0.393011663109064
 30
0.0
 70
     0
  0
VERTEX
  8
1
 10
-5.43705987334251
 20
0.370767480693758
 30
0.0
 70
     0
  0
VERTEX
  8
1
 10
-5.49630975425243
 20
0.345739626325667
 30
0.0
 70
     0
  0
VERTEX
  8
1
 10
-5.55793995559215
 20
0.31778344605118
 30
0.0
 70
     0
  0
VERTEX
  8
1
 10
-5.62183617353439
 20
0.286758141778409
 30
0.0
 70
     0
  0
VERTEX
  8
1
 10
-5.68787842690945
 20
0.252526842243969
 30
0.0
 70
     0
  0
VERTEX
  8
1
 10
-5.73303600847721
 20
0.227859238907695
 30
0.0
 70
     0
  0
VERTEX
  8
1
 10
-5.78610326349735
 20
0.197534282132983
 30
0.0
 70
     0
  0
VERTEX
  8
1
 10
-5.78610212802887
 20
-0.197534057404846
 30
0.0
 70
     0
  0
VERTEX
  8
1
 10
-5.73303562998772
 20
-0.227859049662948
 30
0.0
 70
     0
  0
VERTEX
  8
1
 10
-5.68787804841995
 20
-0.252526582032442
 30
0.0
 70
     0
  0
VERTEX
  8
1
 10
-5.6218357950449
 20
-0.286757881566882
 30
0.0
 70
     0
  0
VERTEX
  8
1
 10
-5.55793919861317
 20
-0.317783256806433
 30
0.0
 70
     0
  0
VERTEX
  8
1
 10
-5.49630899727345
 20
-0.345739295147359
 30
0.0
 70
     0
  0
VERTEX
  8
1
 10
-5.43705911636352
 20
-0.37076714951545
 30
0.0
 70
     0
  0
VERTEX
  8
1
 10
-5.38029893934727
 20
-0.393011308275163
 30
0.0
 70
     0
  0
VERTEX
  8
1
 10
-5.32613179385662
 20
-0.412620257586241
 30
0.0
 70
     0
  0
VERTEX
  8
1
 10
-5.27465381622314
 20
-0.429745629802346
 30
0.0
 70
     0
  0
VERTEX
  8
1
 10
-5.21035639941692
 20
-0.448984534665942
 30
0.0
 70
     0
  0
VERTEX
  8
1
 10
-5.15119924843311
 20
-0.464459692686796
 30
0.0
 70
     0
  0
VERTEX
  8
1
 10
-5.09735798239708
 20
-0.476554939523339
 30
0.0
 70
     0
  0
VERTEX
  8
1
 10
-5.03777124583721
 20
-0.487518550083041
 30
0.0
 70
     0
  0
VERTEX
  8
1
 10
-4.97791729569435
 20
-0.495609898492694
 30
0.0
 70
     0
  0
VERTEX
  8
1
 10
-4.92458244860172
 20
-0.499800723418593
 30
0.0
 70
     0
  0
VERTEX
  8
1
 10
-4.87073512673378
 20
-0.499622312933207
 30
0.0
 70
     0
  0
VERTEX
  8
1
 10
-4.46342138648033
 20
-0.457841614633799
 30
0.0
 42
-0.000043633220828
 70
     0
  0
VERTEX
  8
1
 10
-4.3508355230093
 20
-1.09634894430637
 30
0.0
 70
     0
  0
VERTEX
  8
1
 10
-4.74787592291832
 20
-1.19639828950167
 30
0.0
 70
     0
  0
VERTEX
  8
1
 10
-4.79853636324406
 20
-1.21464734971523
 30
0.0
 70
     0
  0
VERTEX
  8
1
 10
-4.84722146689892
 20
-1.23682692870498
 30
0.0
 70
     0
  0
VERTEX
  8
1
 10
-4.90069900453091
 20
-1.26490176543593
 30
0.0
 70
     0
  0
VERTEX
  8
1
 10
-4.95294190943241
 20
-1.29558401629329
 30
0.0
 70
     0
  0
VERTEX
  8
1
 10
-4.99939960241318
 20
-1.32536470517516
 30
0.0
 70
     0
  0
VERTEX
  8
1
 10
-5.04969669282436
 20
-1.36013946831226
 30
0.0
 70
     0
  0
VERTEX
  8
1
 10
-5.10353606641293
 20
-1.40020911023021
 30
0.0
 70
     0
  0
VERTEX
  8
1
 10
-5.1460521697998
 20
-1.43390811160207
 30
0.0
 70
     0
  0
VERTEX
  8
1
 10
-5.19024611711502
 20
-1.47086079791188
 30
0.0
 70
     0
  0
VERTEX
  8
1
 10
-5.23597521781921
 20
-1.51117655262351
 30
0.0
 70
     0
  0
VERTEX
  8
1
 10
-5.28309223949909
 20
-1.55495974421501
 30
0.0
 70
     0
  0
VERTEX
  8
1
 10
-5.33144389390945
 20
-1.60230877995491
 30
0.0
 70
     0
  0
VERTEX
  8
1
 10
-5.38087537884712
 20
-1.65331686288118
 30
0.0
 70
     0
  0
VERTEX
  8
1
 10
-5.43122697174549
 20
-1.70807142406702
 30
0.0
 70
     0
  0
VERTEX
  8
1
 10
-5.46522441208363
 20
-1.74669627696276
 30
0.0
 70
     0
  0
VERTEX
  8
1
 10
-5.50471941232681
 20
-1.7933424577117
 30
0.0
 70
     0
  0
VERTEX
  8
1
 10
-5.36959714889526
 20
-2.16458501368761
 30
0.0
 70
     0
  0
VERTEX
  8
1
 10
-5.30935941040516
 20
-2.1749312132597
 30
0.0
 70
     0
  0
VERTEX
  8
1
 10
-5.25848815143108
 20
-2.18266640305519
 30
0.0
 70
     0
  0
VERTEX
  8
1
 10
-5.18472092747688
 20
-2.19224540442228
 30
0.0
 70
     0
  0
VERTEX
  8
1
 10
-5.114066401124
 20
-2.19954589903355
 30
0.0
 70
     0
  0
VERTEX
  8
1
 10
-5.04659156501293
 20
-2.20473726093769
 30
0.0
 70
     0
  0
VERTEX
  8
1
 10
-4.9823550850153
 20
-2.20799113512039
 30
0.0
 70
     0
  0
VERTEX
  8
1
 10
-4.9214099496603
 20
-2.2094806805253
 30
0.0
 70
     0
  0
VERTEX
  8
1
 10
-4.86380233466625
 20
-2.2093807592988
 30
0.0
 70
     0
  0
VERTEX
  8
1
 10
-4.80957198143005
 20
-2.20786680132151
 30
0.0
 70
     0
  0
VERTEX
  8
1
 10
-4.74257214963436
 20
-2.20395435541868
 30
0.0
 70
     0
  0
VERTEX
  8
1
 10
-4.68168984353542
 20
-2.19826338738203
 30
0.0
 70
     0
  0
VERTEX
  8
1
 10
-4.62695837020874
 20
-2.19121439903975
 30
0.0
 70
     0
  0
VERTEX
  8
1
 10
-4.56721569597721
 20
-2.18113692700863
 30
0.0
 70
     0
  0
VERTEX
  8
1
 10
-4.50820388495922
 20
-2.16826904118061
 30
0.0
 70
     0
  0
VERTEX
  8
1
 10
-4.45665210187435
 20
-2.15396554470062
 30
0.0
 70
     0
  0
VERTEX
  8
1
 10
-4.40611315667629
 20
-2.13538095355034
 30
0.0
 70
     0
  0
VERTEX
  8
1
 10
-4.03765325546265
 20
-1.95681055635214
 30
0.0
 42
-0.000043633217872
 70
     0
  0
VERTEX
  8
1
 10
-3.71347473263741
 20
-2.51830445230007
 30
0.0
 70
     0
  0
VERTEX
  8
1
 10
-4.05235189497471
 20
-2.74811494648457
 30
0.0
 70
     0
  0
VERTEX
  8
1
 10
-4.09371587634087
 20
-2.78259041905403
 30
0.0
 70
     0
  0
VERTEX
  8
1
 10
-4.13187897205353
 20
-2.82008396685123
 30
0.0
 70
     0
  0
VERTEX
  8
1
 10
-4.1725287437439
 20
-2.86475594639778
 30
0.0
 70
     0
  0
VERTEX
  8
1
 10
-4.21112785935402
 20
-2.91145606189966
 30
0.0
 70
     0
  0
VERTEX
  8
1
 10
-4.24459806382656
 20
-2.95533018559217
 30
0.0
 70
     0
  0
VERTEX
  8
1
 10
-4.27996752858162
 20
-3.00521018058062
 30
0.0
 70
     0
  0
VERTEX
  8
1
 10
-4.3168558716774
 20
-3.06127753257751
 30
0.0
 70
     0
  0
VERTEX
  8
1
 10
-4.34528232514858
 20
-3.10748580098152
 30
0.0
 70
     0
  0
VERTEX
  8
1
 10
-4.37417242825031
 20
-3.15732510834932
 30
0.0
 70
     0
  0
VERTEX
  8
1
 10
-4.40335510373116
 20
-3.21085014641285
 30
0.0
 70
     0
  0
VERTEX
  8
1
 10
-4.43265548944473
 20
-3.26810765862465
 30
0.0
 70
     0
  0
VERTEX
  8
1
 10
-4.46189683079719
 20
-3.32913833260536
 30
0.0
 70
     0
  0
VERTEX
  8
1
 10
-4.49090161621571
 20
-3.39397698938847
 30
0.0
 70
     0
  0
VERTEX
  8
1
 10
-4.51948968470097
 20
-3.46265050172806
 30
0.0
 70
     0
  0
VERTEX
  8
1
 10
-4.53822605013847
 20
-3.51057370603085
 30
0.0
 70
     0
  0
VERTEX
  8
1
 10
-4.55938550531864
 20
-3.56791524291038
 30
0.0
 70
     0
  0
VERTEX
  8
1
 10
-4.30543987154961
 20
-3.87055430710316
 30
0.0
 70
     0
  0
VERTEX
  8
1
 10
-4.24529599845409
 20
-3.85967386960983
 30
0.0
 70
     0
  0
VERTEX
  8
1
 10
-4.19484713375568
 20
-3.84954359829426
 30
0.0
 70
     0
  0
VERTEX
  8
1
 10
-4.1222520917654
 20
-3.83331548273563
 30
0.0
 70
     0
  0
VERTEX
  8
1
 10
-4.05336208343506
 20
-3.81601018607616
 30
0.0
 70
     0
  0
VERTEX
  8
1
 10
-3.9881805151701
 20
-3.79781051874161
 30
0.0
 70
     0
  0
VERTEX
  8
1
 10
-3.92670511603355
 20
-3.77889777719975
 30
0.0
 70
     0
  0
VERTEX
  8
1
 10
-3.86892566680908
 20
-3.75945325791836
 30
0.0
 70
     0
  0
VERTEX
  8
1
 10
-3.8148274064064
 20
-3.73965674340725
 30
0.0
 70
     0
  0
VERTEX
  8
1
 10
-3.7643849760294
 20
-3.71968612372875
 30
0.0
 70
     0
  0
VERTEX
  8
1
 10
-3.70276347994804
 20
-3.69309458732605
 30
0.0
 70
     0
  0
VERTEX
  8
1
 10
-3.64749947190285
 20
-3.66692355275154
 30
0.0
 70
     0
  0
VERTEX
  8
1
 10
-3.59847940504551
 20
-3.64158065319061
 30
0.0
 70
     0
  0
VERTEX
  8
1
 10
-3.54578647613525
 20
-3.61167771220207
 30
0.0
 70
     0
  0
VERTEX
  8
1
 10
-3.49473429918289
 20
-3.57940239906311
 30
0.0
 70
     0
  0
VERTEX
  8
1
 10
-3.45118378400803
 20
-3.54832992553711
 30
0.0
 70
     0
  0
VERTEX
  8
1
 10
-3.41004916727543
 20
-3.51358080506325
 30
0.0
 70
     0
  0
VERTEX
  8
1
 10
-3.12488458454609
 20
-3.21975865364075
 30
0.0
 42
-0.000043633227704
 70
     0
  0
VERTEX
  8
1
 10
-2.62821420580149
 20
-3.63651494979858
 30
0.0
 70
     0
  0
VERTEX
  8
1
 10
-2.86805505007505
 20
-3.96836923956871
 30
0.0
 70
     0
  0
VERTEX
  8
1
 10
-2.89513294547796
 20
-4.01491247117519
 30
0.0
 70
     0
  0
VERTEX
  8
1
 10
-2.91817103326321
 20
-4.06319713294506
 30
0.0
 70
     0
  0
VERTEX
  8
1
 10
-2.94109084308147
 20
-4.1190784573555
 30
0.0
 70
     0
  0
VERTEX
  8
1
 10
-2.9613894239068
 20
-4.17616413533688
 30
0.0
 70
     0
  0
VERTEX
  8
1
 10
-2.97783517092466
 20
-4.2288392752409
 30
0.0
 70
     0
  0
VERTEX
  8
1
 10
-2.99401200115681
 20
-4.28780831694603
 30
0.0
 70
     0
  0
VERTEX
  8
1
 10
-3.00949941277504
 20
-4.35311100184917
 30
0.0
 70
     0
  0
VERTEX
  8
1
 10
-3.0204072907567
 20
-4.40625509023666
 30
0.0
 70
     0
  0
VERTEX
  8
1
 10
-3.03050898611546
 20
-4.46296947002411
 30
0.0
 70
     0
  0
VERTEX
  8
1
 10
-3.03962509483099
 20
-4.52324732840061
 30
0.0
 70
     0
  0
VERTEX
  8
1
 10
-3.04757526665926
 20
-4.58707314729691
 30
0.0
 70
     0
  0
VERTEX
  8
1
 10
-3.05417990833521
 20
-4.65442497432232
 30
0.0
 70
     0
  0
VERTEX
  8
1
 10
-3.05925923734903
 20
-4.7252729088068
 30
0.0
 70
     0
  0
VERTEX
  8
1
 10
-3.06263517439365
 20
-4.79958288669586
 30
0.0
 70
     0
  0
VERTEX
  8
1
 10
-3.06385126113892
 20
-4.85102452933788
 30
0.0
 70
     0
  0
VERTEX
  8
1
 10
-3.06412263810635
 20
-4.91214452683926
 30
0.0
 70
     0
  0
VERTEX
  8
1
 10
-2.72198270708323
 20
-5.10967781543732
 30
0.0
 70
     0
  0
VERTEX
  8
1
 10
-2.66918720752001
 20
-5.07888353168964
 30
0.0
 70
     0
  0
VERTEX
  8
1
 10
-2.62524571269751
 20
-5.05210918486118
 30
0.0
 70
     0
  0
VERTEX
  8
1
 10
-2.56257939636707
 20
-5.01203055381775
 30
0.0
 70
     0
  0
VERTEX
  8
1
 10
-2.50376231819391
 20
-4.97220740318298
 30
0.0
 70
     0
  0
VERTEX
  8
1
 10
-2.44873638004065
 20
-4.9328119456768
 30
0.0
 70
     0
  0
VERTEX
  8
1
 10
-2.39743686020374
 20
-4.89401412308216
 30
0.0
 70
     0
  0
VERTEX
  8
1
 10
-2.34979260265827
 20
-4.85598047077656
 30
0.0
 70
     0
  0
VERTEX
  8
1
 10
-2.30572715252638
 20
-4.81887487471104
 30
0.0
 70
     0
  0
VERTEX
  8
1
 10
-2.26515724211931
 20
-4.78285630047321
 30
0.0
 70
     0
  0
VERTEX
  8
1
 10
-2.21634723693132
 20
-4.73679261505604
 30
0.0
 70
     0
  0
VERTEX
  8
1
 10
-2.17336672693491
 20
-4.69329887330532
 30
0.0
 70
     0
  0
VERTEX
  8
1
 10
-2.13597120791674
 20
-4.65271836519241
 30
0.0
 70
     0
  0
VERTEX
  8
1
 10
-2.0966830521822
 20
-4.60659639239311
 30
0.0
 70
     0
  0
VERTEX
  8
1
 10
-2.0597489118576
 20
-4.55880717337131
 30
0.0
 70
     0
  0
VERTEX
  8
1
 10
-2.02945215255022
 20
-4.51471352577209
 30
0.0
 70
     0
  0
VERTEX
  8
1
 10
-2.00268291532993
 20
-4.4679908901453
 30
0.0
 70
     0
  0
VERTEX
  8
1
 10
-1.83520907312632
 20
-4.09435665905476
 30
0.0
 42
-0.000043633233908
 70
     0
  0
VERTEX
  8
1
 10
-1.22595235779881
 20
-4.31610797643661
 30
0.0
 70
     0
  0
VERTEX
  8
1
 10
-1.33782798573375
 20
-4.70997928380966
 30
0.0
 70
     0
  0
VERTEX
  8
1
 10
-1.34735418781638
 20
-4.76297727525234
 30
0.0
 70
     0
  0
VERTEX
  8
1
 10
-1.35248849242926
 20
-4.81622961163521
 30
0.0
 70
     0
  0
VERTEX
  8
1
 10
-1.35491356924176
 20
-4.87657938301563
 30
0.0
 70
     0
  0
VERTEX
  8
1
 10
-1.35446382910013
 20
-4.93716495335102
 30
0.0
 70
     0
  0
VERTEX
  8
1
 10
-1.35190173909068
 20
-4.99228854179382
 30
0.0
 70
     0
  0
VERTEX
  8
1
 10
-1.34693425372243
 20
-5.05323405563831
 30
0.0
 70
     0
  0
VERTEX
  8
1
 10
-1.33915288820863
 20
-5.11989551782608
 30
0.0
 70
     0
  0
VERTEX
  8
1
 10
-1.33122665584087
 20
-5.17356532812119
 30
0.0
 70
     0
  0
VERTEX
  8
1
 10
-1.3213216803968
 20
-5.2303149074316
 30
0.0
 70
     0
  0
VERTEX
  8
1
 10
-1.30927180498838
 20
-5.29007499217987
 30
0.0
 70
     0
  0
VERTEX
  8
1
 10
-1.29491285979748
 20
-5.35277101993561
 30
0.0
 70
     0
  0
VERTEX
  8
1
 10
-1.27808332443237
 20
-5.41831934452057
 30
0.0
 70
     0
  0
VERTEX
  8
1
 10
-1.2586248010397
 20
-5.48663215637207
 30
0.0
 70
     0
  0
VERTEX
  8
1
 10
-1.23638163581491
 20
-5.55761559009552
 30
0.0
 70
     0
  0
VERTEX
  8
1
 10
-1.21993040069938
 20
-5.60637033581734
 30
0.0
 70
     0
  0
VERTEX
  8
1
 10
-1.19928114935756
 20
-5.66389733254909
 30
0.0
 70
     0
  0
VERTEX
  8
1
 10
-0.810214482247829
 20
-5.73249931037426
 30
0.0
 70
     0
  0
VERTEX
  8
1
 10
-0.771135300025344
 20
-5.68550491929054
 30
0.0
 70
     0
  0
VERTEX
  8
1
 10
-0.739000974223018
 20
-5.64531690478325
 30
0.0
 70
     0
  0
VERTEX
  8
1
 10
-0.693821582198143
 20
-5.58622182607651
 30
0.0
 70
     0
  0
VERTEX
  8
1
 10
-0.652171935886145
 20
-5.52868347465992
 30
0.0
 70
     0
  0
VERTEX
  8
1
 10
-0.613938630372286
 20
-5.47284416258335
 30
0.0
 70
     0
  0
VERTEX
  8
1
 10
-0.579002299532294
 20
-5.41884052455425
 30
0.0
 70
     0
  0
VERTEX
  8
1
 10
-0.547239839658141
 20
-5.36680541038513
 30
0.0
 70
     0
  0
VERTEX
  8
1
 10
-0.518522753566503
 20
-5.31686637103558
 30
0.0
 70
     0
  0
VERTEX
  8
1
 10
-0.492718475311995
 20
-5.26914414465427
 30
0.0
 70
     0
  0
VERTEX
  8
1
 10
-0.462606702744961
 20
-5.2091641575098
 30
0.0
 70
     0
  0
VERTEX
  8
1
 10
-0.437094050645828
 20
-5.15359281599522
 30
0.0
 70
     0
  0
VERTEX
  8
1
 10
-0.415833112969995
 20
-5.10267008244991
 30
0.0
 70
     0
  0
VERTEX
  8
1
 10
-0.39468893930316
 20
-5.04589211642742
 30
0.0
 70
     0
  0
VERTEX
  8
1
 10
-0.376326994597912
 20
-4.98835300803184
 30
0.0
 70
     0
  0
VERTEX
  8
1
 10
-0.362938307225704
 20
-4.93655596375465
 30
0.0
 70
     0
  0
VERTEX
  8
1
 10
-0.353763485327363
 20
-4.8834959000349
 30
0.0
 70
     0
  0
VERTEX
  8
1
 10
-0.324180036783218
 20
-4.47511481940746
 30
0.0
 42
-0.000043633237414
 70
     0
  0
VERTEX
  8
1
 10
0.324177434667945
 20
-4.47511481940746
 30
0.0
 70
     0
  0
VERTEX
  8
1
 10
0.353760457411408
 20
-4.88349703550339
 30
0.0
 70
     0
  0
VERTEX
  8
1
 10
0.362935137376189
 20
-4.93655672073364
 30
0.0
 70
     0
  0
VERTEX
  8
1
 10
0.376323824748397
 20
-4.98835376501083
 30
0.0
 70
     0
  0
VERTEX
  8
1
 10
0.394685864076018
 20
-5.0458936303854
 30
0.0
 70
     0
  0
VERTEX
  8
1
 10
0.415829990431666
 20
-5.1026712179184
 30
0.0
 70
     0
  0
VERTEX
  8
1
 10
0.437090880796313
 20
-5.1535939514637
 30
0.0
 70
     0
  0
VERTEX
  8
1
 10
0.462603485584259
 20
-5.20916529297829
 30
0.0
 70
     0
  0
VERTEX
  8
1
 10
0.492715116217732
 20
-5.26914528012276
 30
0.0
 70
     0
  0
VERTEX
  8
1
 10
0.518519441783428
 20
-5.31686750650406
 30
0.0
 70
     0
  0
VERTEX
  8
1
 10
0.547236480563879
 20
-5.36680616736412
 30
0.0
 70
     0
  0
VERTEX
  8
1
 10
0.578998987749219
 20
-5.41884166002274
 30
0.0
 70
     0
  0
VERTEX
  8
1
 10
0.613935271278024
 20
-5.47284529805183
 30
0.0
 70
     0
  0
VERTEX
  8
1
 10
0.652168624103069
 20
-5.5286846101284
 30
0.0
 70
     0
  0
VERTEX
  8
1
 10
0.693818128481507
 20
-5.5862225830555
 30
0.0
 70
     0
  0
VERTEX
  8
1
 10
0.738997425884008
 20
-5.64531728327274
 30
0.0
 70
     0
  0
VERTEX
  8
1
 10
0.771131798997521
 20
-5.68550567626953
 30
0.0
 70
     0
  0
VERTEX
  8
1
 10
0.810211075842381
 20
-5.73250082433224
 30
0.0
 70
     0
  0
VERTEX
  8
1
 10
1.19927736446261
 20
-5.66389657557011
 30
0.0
 70
     0
  0
VERTEX
  8
1
 10
1.21992671042681
 20
-5.60637033581734
 30
0.0
 70
     0
  0
VERTEX
  8
1
 10
1.23637794554234
 20
-5.55761521160603
 30
0.0
 70
     0
  0
VERTEX
  8
1
 10
1.2586212053895
 20
-5.48663215637207
 30
0.0
 70
     0
  0
VERTEX
  8
1
 10
1.27807972878218
 20
-5.41831896603107
 30
0.0
 70
     0
  0
VERTEX
  8
1
 10
1.29490907490253
 20
-5.35277064144611
 30
0.0
 70
     0
  0
VERTEX
  8
1
 10
1.30926811471581
 20
-5.29007461369038
 30
0.0
 70
     0
  0
VERTEX
  8
1
 10
1.32131799012423
 20
-5.23031415045261
 30
0.0
 70
     0
  0
VERTEX
  8
1
 10
1.33122315481305
 20
-5.17356494963169
 30
0.0
 70
     0
  0
VERTEX
  8
1
 10
1.33914929255843
 20
-5.11989513933659
 30
0.0
 70
     0
  0
VERTEX
  8
1
 10
1.34693075269461
 20
-5.05323405563831
 30
0.0
 70
     0
  0
VERTEX
  8
1
 10
1.35189833268523
 20
-4.99228816330433
 30
0.0
 70
     0
  0
VERTEX
  8
1
 10
1.35446032807231
 20
-4.93716457486153
 30
0.0
 70
     0
  0
VERTEX
  8
1
 10
1.35491035208106
 20
-4.87657938301563
 30
0.0
 70
     0
  0
VERTEX
  8
1
 10
1.35248527526855
 20
-4.81622961163521
 30
0.0
 70
     0
  0
VERTEX
  8
1
 10
1.34735087603331
 20
-4.76297727525234
 30
0.0
 70
     0
  0
VERTEX
  8
1
 10
1.33782467395067
 20
-4.70997890532017
 30
0.0
 70
     0
  0
VERTEX
  8
1
 10
1.22594961374998
 20
-4.31610835492611
 30
0.0
 42
-0.000043633234309
 70
     0
  0
VERTEX
  8
1
 10
1.83520642369986
 20
-4.09435741603374
 30
0.0
 70
     0
  0
VERTEX
  8
1
 10
2.00268007665873
 20
-4.46799240410328
 30
0.0
 70
     0
  0
VERTEX
  8
1
 10
2.02944912463427
 20
-4.51471466124058
 30
0.0
 70
     0
  0
VERTEX
  8
1
 10
2.0597456946969
 20
-4.55880868732929
 30
0.0
 70
     0
  0
VERTEX
  8
1
 10
2.09668021351099
 20
-4.60659828484058
 30
0.0
 70
     0
  0
VERTEX
  8
1
 10
2.13596818000078
 20
-4.65271987915039
 30
0.0
 70
     0
  0
VERTEX
  8
1
 10
2.17336369901896
 20
-4.6933003872633
 30
0.0
 70
     0
  0
VERTEX
  8
1
 10
2.21634420901537
 20
-4.73679450750351
 30
0.0
 70
     0
  0
VERTEX
  8
1
 10
2.26515421420336
 20
-4.78285819292068
 30
0.0
 70
     0
  0
VERTEX
  8
1
 10
2.30572431385517
 20
-4.81887676715851
 30
0.0
 70
     0
  0
VERTEX
  8
1
 10
2.34978957474232
 20
-4.85598236322403
 30
0.0
 70
     0
  0
VERTEX
  8
1
 10
2.39743383228779
 20
-4.89401639401913
 30
0.0
 70
     0
  0
VERTEX
  8
1
 10
2.44873354136944
 20
-4.93281421661377
 30
0.0
 70
     0
  0
VERTEX
  8
1
 10
2.50375929027796
 20
-4.97220891714096
 30
0.0
 70
     0
  0
VERTEX
  8
1
 10
2.56257617920637
 20
-5.01203244626522
 30
0.0
 70
     0
  0
VERTEX
  8
1
 10
2.62524230629206
 20
-5.05211107730865
 30
0.0
 70
     0
  0
VERTEX
  8
1
 10
2.66918380111456
 20
-5.07888466715813
 30
0.0
 70
     0
  0
VERTEX
  8
1
 10
2.72197967916727
 20
-5.10967970788479
 30
0.0
 70
     0
  0
VERTEX
  8
1
 10
3.06411847472191
 20
-4.91214490532875
 30
0.0
 70
     0
  0
VERTEX
  8
1
 10
3.06384747624397
 20
-4.85102528631687
 30
0.0
 70
     0
  0
VERTEX
  8
1
 10
3.06263138949871
 20
-4.79958402216434
 30
0.0
 70
     0
  0
VERTEX
  8
1
 10
3.05925564169884
 20
-4.72527404427528
 30
0.0
 70
     0
  0
VERTEX
  8
1
 10
3.05417612344027
 20
-4.65442535281181
 30
0.0
 70
     0
  0
VERTEX
  8
1
 10
3.04757167100906
 20
-4.58707390427589
 30
0.0
 70
     0
  0
VERTEX
  8
1
 10
3.03962149918079
 20
-4.5232480853796
 30
0.0
 70
     0
  0
VERTEX
  8
1
 10
3.03050539046526
 20
-4.4629702270031
 30
0.0
 70
     0
  0
VERTEX
  8
1
 10
3.02040369510651
 20
-4.40625546872616
 30
0.0
 70
     0
  0
VERTEX
  8
1
 10
3.0094956278801
 20
-4.35311175882816
 30
0.0
 70
     0
  0
VERTEX
  8
1
 10
2.99400840550661
 20
-4.28780907392502
 30
0.0
 70
     0
  0
VERTEX
  8
1
 10
2.97783176451921
 20
-4.22883965373039
 30
0.0
 70
     0
  0
VERTEX
  8
1
 10
2.96138582825661
 20
-4.17616413533688
 30
0.0
 70
     0
  0
VERTEX
  8
1
 10
2.94108724743128
 20
-4.11907883584499
 30
0.0
 70
     0
  0
VERTEX
  8
1
 10
2.91816762685776
 20
-4.06319826841354
 30
0.0
 70
     0
  0
VERTEX
  8
1
 10
2.89512972831726
 20
-4.01491322815418
 30
0.0
 70
     0
  0
VERTEX
  8
1
 10
2.86805145442486
 20
-3.96836923956871
 30
0.0
 70
     0
  0
VERTEX
  8
1
 10
2.62821155637503
 20
-3.63651570677757
 30
0.0
 42
-0.000043633240695
 70
     0
  0
VERTEX
  8
1
 10
3.12488231360912
 20
-3.21975978910923
 30
0.0
 70
     0
  0
VERTEX
  8
1
 10
3.41004651784897
 20
-3.51358269751072
 30
0.0
 70
     0
  0
VERTEX
  8
1
 10
3.45118075609207
 20
-3.54833143949509
 30
0.0
 70
     0
  0
VERTEX
  8
1
 10
3.49473202824593
 20
-3.57940429151058
 30
0.0
 70
     0
  0
VERTEX
  8
1
 10
3.54578382670879
 20
-3.61167960464954
 30
0.0
 70
     0
  0
VERTEX
  8
1
 10
3.59847713410854
 20
-3.64158292412758
 30
0.0
 70
     0
  0
VERTEX
  8
1
 10
3.64749644398689
 20
-3.66692544519901
 30
0.0
 70
     0
  0
VERTEX
  8
1
 10
3.70276083052158
 20
-3.69309610128403
 30
0.0
 70
     0
  0
VERTEX
  8
1
 10
3.76438194811344
 20
-3.71968839466572
 30
0.0
 70
     0
  0
VERTEX
  8
1
 10
3.81482437849045
 20
-3.73965901434422
 30
0.0
 70
     0
  0
VERTEX
  8
1
 10
3.86892339587212
 20
-3.75945515036583
 30
0.0
 70
     0
  0
VERTEX
  8
1
 10
3.92670246660709
 20
-3.77890004813671
 30
0.0
 70
     0
  0
VERTEX
  8
1
 10
3.98817824423313
 20
-3.79781278967857
 30
0.0
 70
     0
  0
VERTEX
  8
1
 10
4.0533590555191
 20
-3.81601245701313
 30
0.0
 70
     0
  0
VERTEX
  8
1
 10
4.12224944233894
 20
-3.83331699669361
 30
0.0
 70
     0
  0
VERTEX
  8
1
 10
4.19484410583973
 20
-3.84954586923122
 30
0.0
 70
     0
  0
VERTEX
  8
1
 10
4.24529297053814
 20
-3.8596761405468
 30
0.0
 70
     0
  0
VERTEX
  8
1
 10
4.30543722212315
 20
-3.87055657804012
 30
0.0
 70
     0
  0
VERTEX
  8
1
 10
4.5593813419342
 20
-3.56791599988937
 30
0.0
 70
     0
  0
VERTEX
  8
1
 10
4.53822264373302
 20
-3.51057521998882
 30
0.0
 70
     0
  0
VERTEX
  8
1
 10
4.51948627829552
 20
-3.46265201568604
 30
0.0
 70
     0
  0
VERTEX
  8
1
 10
4.49089820981026
 20
-3.39397812485695
 30
0.0
 70
     0
  0
VERTEX
  8
1
 10
4.46189342439175
 20
-3.32913908958435
 30
0.0
 70
     0
  0
VERTEX
  8
1
 10
4.43265170454979
 20
-3.26810879409313
 30
0.0
 70
     0
  0
VERTEX
  8
1
 10
4.40335131883621
 20
-3.21085128188133
 30
0.0
 70
     0
  0
VERTEX
  8
1
 10
4.37416902184486
 20
-3.15732605457306
 30
0.0
 70
     0
  0
VERTEX
  8
1
 10
4.34527891874313
 20
-3.10748674720526
 30
0.0
 70
     0
  0
VERTEX
  8
1
 10
4.31685246527195
 20
-3.06127847880125
 30
0.0
 70
     0
  0
VERTEX
  8
1
 10
4.27996412217617
 20
-3.00521112680435
 30
0.0
 70
     0
  0
VERTEX
  8
1
 10
4.24459427893162
 20
-2.95533113181591
 30
0.0
 70
     0
  0
VERTEX
  8
1
 10
4.21112445294857
 20
-2.9114570081234
 30
0.0
 70
     0
  0
VERTEX
  8
1
 10
4.17252533733845
 20
-2.86475670337677
 30
0.0
 70
     0
  0
VERTEX
  8
1
 10
4.13187594413757
 20
-2.82008491307497
 30
0.0
 70
     0
  0
VERTEX
  8
1
 10
4.09371284842491
 20
-2.78259155452251
 30
0.0
 70
     0
  0
VERTEX
  8
1
 10
4.05234848856926
 20
-2.7481158927083
 30
0.0
 70
     0
  0
VERTEX
  8
1
 10
3.71347208321095
 20
-2.51830558776855
 30
0.0
 42
-0.000043633264496
 70
     0
  0
VERTEX
  8
1
 10
4.03765136301517
 20
-1.95681150257587
 30
0.0
 70
     0
  0
VERTEX
  8
1
 10
4.40611164271832
 20
-2.13538265675306
 30
0.0
 70
     0
  0
VERTEX
  8
1
 10
4.45664983093739
 20
-2.1539670586586
 30
0.0
 70
     0
  0
VERTEX
  8
1
 10
4.50820161402225
 20
-2.16827074438334
 30
0.0
 70
     0
  0
VERTEX
  8
1
 10
4.56721380352974
 20
-2.18113863021135
 30
0.0
 70
     0
  0
VERTEX
  8
1
 10
4.62695647776127
 20
-2.19121610224247
 30
0.0
 70
     0
  0
VERTEX
  8
1
 10
4.68168757259846
 20
-2.19826509058475
 30
0.0
 70
     0
  0
VERTEX
  8
1
 10
4.7425698786974
 20
-2.20395605862141
 30
0.0
 70
     0
  0
VERTEX
  8
1
 10
4.80956971049309
 20
-2.20786869376898
 30
0.0
 70
     0
  0
VERTEX
  8
1
 10
4.86380082070827
 20
-2.20938246250153
 30
0.0
 70
     0
  0
VERTEX
  8
1
 10
4.92140767872333
 20
-2.20948238372803
 30
0.0
 70
     0
  0
VERTEX
  8
1
 10
4.98235281407833
 20
-2.20799283832312
 30
0.0
 70
     0
  0
VERTEX
  8
1
 10
5.04658929407597
 20
-2.20473896414041
 30
0.0
 70
     0
  0
VERTEX
  8
1
 10
5.11406450867653
 20
-2.19954760223627
 30
0.0
 70
     0
  0
VERTEX
  8
1
 10
5.18471865653992
 20
-2.19224710762501
 30
0.0
 70
     0
  0
VERTEX
  8
1
 10
5.25848588049412
 20
-2.18266810625792
 30
0.0
 70
     0
  0
VERTEX
  8
1
 10
5.3093567609787
 20
-2.17493272721767
 30
0.0
 70
     0
  0
VERTEX
  8
1
 10
5.36959563493729
 20
-2.16458671689034
 30
0.0
 70
     0
  0
VERTEX
  8
1
 10
5.50471600592136
 20
-1.79334340393543
 30
0.0
 70
     0
  0
VERTEX
  8
1
 10
5.46522138416767
 20
-1.74669760167599
 30
0.0
 70
     0
  0
VERTEX
  8
1
 10
5.43122394382954
 20
-1.70807274878025
 30
0.0
 70
     0
  0
VERTEX
  8
1
 10
5.38087235093117
 20
-1.65331799834967
 30
0.0
 70
     0
  0
VERTEX
  8
1
 10
5.3314408659935
 20
-1.60230991542339
 30
0.0
 70
     0
  0
VERTEX
  8
1
 10
5.28308883309364
 20
-1.55496097430587
 30
0.0
 70
     0
  0
VERTEX
  8
1
 10
5.23597218990326
 20
-1.51117778271437
 30
0.0
 70
     0
  0
VERTEX
  8
1
 10
5.19024308919907
 20
-1.47086202800274
 30
0.0
 70
     0
  0
VERTEX
  8
1
 10
5.14604914188385
 20
-1.43390924707055
 30
0.0
 70
     0
  0
VERTEX
  8
1
 10
5.10353303849697
 20
-1.40021015107632
 30
0.0
 70
     0
  0
VERTEX
  8
1
 10
5.04969366490841
 20
-1.360140414536
 30
0.0
 70
     0
  0
VERTEX
  8
1
 10
4.99939695298672
 20
-1.3253656513989
 30
0.0
 70
     0
  0
VERTEX
  8
1
 10
4.95293888151646
 20
-1.29558496251702
 30
0.0
 70
     0
  0
VERTEX
  8
1
 10
4.90069597661495
 20
-1.2649026170373
 30
0.0
 70
     0
  0
VERTEX
  8
1
 10
4.84721881747246
 20
-1.23682806417346
 30
0.0
 70
     0
  0
VERTEX
  8
1
 10
4.7985337138176
 20
-1.21464829593897
 30
0.0
 70
     0
  0
VERTEX
  8
1
 10
4.74787289500236
 20
-1.1963992357254
 30
0.0
 70
     0
  0
VERTEX
  8
1
 10
4.35083325207233
 20
-1.09635045826435
 30
0.0
 42
-0.000043633252054
 70
     0
  0
SEQEND
  0
TEXT
  8
NOTES
 10
-5.78947401046753
 20
-6.36842107772827
 30
0.0
 11
-5.78947401046753
 21
-6.36842107772827
 31
0.0
 40
0.231578826904297
  1
Diametral Pitch: 43.8727272060407
 41
1.0
  7
ARIAL
  0
TEXT
  8
NOTES
 10
-5.78947401046753
 20
-6.83157873153687
 30
0.0
 11
-5.78947401046753
 21
-6.83157873153687
 31
0.0
 40
0.231578826904297
  1
Number Of Teeth: 18
 41
1.0
  7
ARIAL
  0
TEXT
  8
NOTES
 10
-5.78947401046753
 20
-7.29473733901978
 30
0.0
 11
-5.78947401046753
 21
-7.29473733901978
 31
0.0
 40
0.231578826904297
  1
Pressure Angle: 20
 41
1.0
  7
ARIAL
  0
ENDSEC
  0
EOF
