999
DXF generated by OpenJsCad
  0
SECTION
  2
HEADER
  0
ENDSEC
  0
SECTION
  2
TABLES
  0
TABLE
  2
LTYPE
  70
1
  0
LTYPE
  2
CONTINUOUS
  3
Solid Line
  72
65
  73
0
  40
0.0
  0
ENDTAB
  0
TABLE
  2
LAYER
  70
1
  0
LAYER
  2
OpenJsCad
  62
7
  6
continuous
  0
ENDTAB
  0
TABLE
  2
STYLE
  70
0
  0
ENDTAB
  0
TABLE
  2
VIEW
  70
0
  0
ENDTAB
  0
ENDSEC
  0
SECTION
  2
BLOCKS
  0
ENDSEC
  0
SECTION
  2
ENTITIES
  0
LWPOLYLINE
  8
OpenJsCad
  90
1891
  70
1
 10
116.74143877240697
 20
-9.229675838197473
 30
0.0
 10
116.85269574212248
 20
-8.171136480251628
 30
0.0
 10
116.88984172252184
 20
-7.107414777092863
 30
0.0
 10
116.80185000487042
 20
-7.064088762712515
 30
0.0
 10
115.89961872687255
 20
-6.645636748257505
 30
0.0
 10
115.04172428797585
 20
-6.271751818858643
 30
0.0
 10
114.22972302327183
 20
-5.940131327419975
 30
0.0
 10
113.465087829282
 20
-5.648425013978471
 30
0.0
 10
112.74920680639603
 20
-5.394237648168636
 30
0.0
 10
112.06280092223241
 20
-5.168359008631565
 30
0.0
 10
111.94322398558366
 20
-5.108057901030774
 30
0.0
 10
111.88712051837534
 20
-5.046434639203894
 30
0.0
 10
111.96659060163047
 20
-2.7707092066893257
 30
0.0
 10
112.02685602505862
 20
-2.7131496360700873
 30
0.0
 10
112.15034807091531
 20
-2.6613366843259665
 30
0.0
 10
112.85083840226027
 20
-2.483889527885986
 30
0.0
 10
113.58270678924794
 20
-2.280258685504089
 30
0.0
 10
114.36582777413112
 20
-2.042601208814083
 30
0.0
 10
115.19898372066085
 20
-1.7684308731286427
 30
0.0
 10
116.08086926616747
 20
-1.4553003994988165
 30
0.0
 10
117.01009249100115
 20
-1.1008041856036517
 30
0.0
 10
117.10089213523561
 20
-1.0637217031587536
 30
0.0
 10
117.138038115635
 20
1.0658141036401503e-14
 30
0.0
 10
117.10089213523554
 20
1.0637217031587745
 30
0.0
 10
117.01009249100133
 20
1.1008041856035975
 30
0.0
 10
116.08086926609116
 20
1.4553003995279328
 30
0.0
 10
115.19898372066908
 20
1.7684308731280431
 30
0.0
 10
114.36582777413076
 20
2.042601208815231
 30
0.0
 10
113.58270678924848
 20
2.280258685504913
 30
0.0
 10
112.85083840224502
 20
2.4838895278901862
 30
0.0
 10
112.15034807092836
 20
2.6613366843774915
 30
0.0
 10
112.02685602505827
 20
2.7131496360691485
 30
0.0
 10
111.96659060163066
 20
2.7707092066901207
 30
0.0
 10
111.88712051837508
 20
5.0464346392046755
 30
0.0
 10
111.94322398558408
 20
5.108057901029863
 30
0.0
 10
112.0628009222158
 20
5.168359008682056
 30
0.0
 10
112.74920680641094
 20
5.394237648173888
 30
0.0
 10
113.46508782928137
 20
5.648425013979255
 30
0.0
 10
114.2297230232721
 20
5.9401313274211445
 30
0.0
 10
115.04172428796768
 20
6.271751818857471
 30
0.0
 10
115.89961872694663
 20
6.6456367482918735
 30
0.0
 10
116.80185000487022
 20
7.064088762712449
 30
0.0
 10
116.88984172252191
 20
7.107414777092887
 30
0.0
 10
116.85269574212255
 20
8.171136480251654
 30
0.0
 10
116.74143877240681
 20
9.22967583819754
 30
0.0
 10
116.64827356832946
 20
9.260334126579899
 30
0.0
 10
115.69658547865357
 20
9.549147470053153
 30
0.0
 10
114.79500528443654
 20
9.799997947662899
 30
0.0
 10
113.94475370808696
 20
10.015382397282643
 30
0.0
 10
113.14696221903154
 20
10.197833193883316
 30
0.0
 10
112.40267205712487
 20
10.349915443848825
 30
0.0
 10
111.69150999713631
 20
10.478066612576889
 30
0.0
 10
111.56470448287898
 20
10.52113898086699
 30
0.0
 10
111.50057071031718
 20
10.574354435839858
 30
0.0
 10
111.26254763080823
 20
12.838992762802304
 30
0.0
 10
111.31421581134529
 20
12.90437949349618
 30
0.0
 10
111.42929507193664
 20
12.97287497612141
 30
0.0
 10
112.09827240851145
 20
13.246084640638731
 30
0.0
 10
112.79467836688134
 20
13.549590154572186
 30
0.0
 10
113.5371025441753
 20
13.893924140929087
 30
0.0
 10
114.32399313849724
 20
14.281379166416396
 30
0.0
 10
115.15371689547705
 20
14.714197021861953
 30
0.0
 10
116.02456064639651
 20
15.194566180656333
 30
0.0
 10
116.10931575066172
 20
15.243924646985352
 30
0.0
 10
115.99805878094621
 20
16.30246400493126
 30
0.0
 10
115.81323285468761
 20
17.35066392031642
 30
0.0
 10
115.71815598227614
 20
17.374748650537036
 30
0.0
 10
114.74863955654409
 20
17.596472053981227
 30
0.0
 10
113.83175712161182
 20
17.78382041728909
 30
0.0
 10
112.96855225566394
 20
17.939369649453216
 30
0.0
 10
112.15997702237631
 20
18.065724884023734
 30
0.0
 10
111.40689119241951
 20
18.165517612134902
 30
0.0
 10
110.68852211382952
 20
18.243748453491385
 30
0.0
 10
110.55902091490398
 20
18.277870394131238
 30
0.0
 10
110.49133124650119
 20
18.326482473108573
 30
0.0
 10
110.09591479525623
 20
20.569000604230606
 30
0.0
 10
110.14289596693949
 20
20.637832246213875
 30
0.0
 10
110.25291689690054
 20
20.714188400705932
 30
0.0
 10
110.9012064955166
 20
21.033398040226157
 30
0.0
 10
111.57474456955926
 20
21.384743053932084
 30
0.0
 10
112.29134071419293
 20
21.780027152634798
 30
0.0
 10
113.04928698626365
 20
22.22142907023576
 30
0.0
 10
113.84679773050382
 20
22.71107120660744
 30
0.0
 10
114.68201129120158
 20
23.25101719952051
 30
0.0
 10
114.76311686373232
 20
23.306167648311703
 30
0.0
 10
114.57829093747361
 20
24.354367563696847
 30
0.0
 10
114.32079650800553
 20
25.38712131189811
 30
0.0
 10
114.22427117222553
 20
25.404515145572375
 30
0.0
 10
113.24164979700802
 20
25.558068394853482
 30
0.0
 10
112.31393208041881
 20
25.68100190146562
 30
0.0
 10
111.44197937221047
 20
25.775958095950777
 30
0.0
 10
110.62655969194955
 20
25.845602178489493
 30
0.0
 10
109.86834715240622
 20
25.8926192046061
 30
0.0
 10
109.14627087715552
 20
25.92054858579565
 30
0.0
 10
109.0147049103855
 20
25.945553860120388
 30
0.0
 10
108.94378912340203
 20
25.98932572993988
 30
0.0
 10
108.3929057296244
 20
28.198798342303796
 30
0.0
 10
108.43497100490795
 20
28.270739554735655
 30
0.0
 10
108.53939759332722
 20
28.354584381585152
 30
0.0
 10
109.1638410522259
 20
28.718238838831372
 30
0.0
 10
109.81122983214838
 20
29.11571163472008
 30
0.0
 10
110.4985067597371
 20
29.56002006137354
 30
0.0
 10
111.22381607150757
 20
30.053218405315167
 30
0.0
 10
111.9852284108277
 20
30.59729933534322
 30
0.0
 10
112.7807427047914
 20
31.194191599772697
 30
0.0
 10
112.85780360739057
 20
31.254865343583198
 30
0.0
 10
112.60030917792274
 20
32.28761909178451
 30
0.0
 10
112.27140073222289
 20
33.299895200352786
 30
0.0
 10
112.17389719480744
 20
33.31051339647143
 30
0.0
 10
111.18295810267178
 20
33.39514839559407
 30
0.0
 10
110.24892485188698
 20
33.4530681258235
 30
0.0
 10
109.37247236736421
 20
33.486968665595114
 30
0.0
 10
108.5541808828465
 20
33.499562297132506
 30
0.0
 10
107.79453556899402
 20
33.49357455902943
 30
0.0
 10
107.07226998011276
 20
33.471066410914354
 30
0.0
 10
106.93928022166344
 20
33.486833195740985
 30
0.0
 10
106.86548381068505
 20
33.525551604252804
 30
0.0
 10
106.16181732289463
 20
35.69121436938659
 30
0.0
 10
106.19876176398564
 20
35.765914661911566
 30
0.0
 10
106.29708525502129
 20
35.85683967755014
 30
0.0
 10
106.8946403484397
 20
36.26316726456108
 30
0.0
 10
107.5127258211815
 20
36.70483139512481
 30
0.0
 10
108.16733518761889
 20
37.1959995237361
 30
0.0
 10
108.85647390502999
 20
37.73859148126284
 30
0.0
 10
109.57807831504981
 20
38.33446049734699
 30
0.0
 10
110.33001767660407
 20
38.985391034179976
 30
0.0
 10
110.40265847630063
 20
39.05129247662889
 30
0.0
 10
110.07375003060082
 20
40.06356858519717
 30
0.0
 10
109.67502997755452
 20
41.05043534668507
 30
0.0
 10
109.57702326593694
 20
41.05422617446397
 30
0.0
 10
108.58259421253118
 20
41.069530590219905
 30
0.0
 10
107.64679594365992
 20
41.062154364963014
 30
0.0
 10
106.77011367122661
 20
41.034834089999
 30
0.0
 10
105.9529370163103
 20
40.990315915628116
 30
0.0
 10
105.19555984375853
 20
40.93135258496352
 30
0.0
 10
104.47662374659386
 20
40.85851656497892
 30
0.0
 10
104.34285810920028
 20
40.86496804611664
 30
0.0
 10
104.26654060292327
 20
40.89844436112648
 30
0.0
 10
103.41351921351628
 20
43.00974638773005
 30
0.0
 10
103.44516283081141
 20
43.08684182803182
 30
0.0
 10
103.53690420229854
 20
43.184404054923036
 30
0.0
 10
104.10465970188753
 20
43.63142518453867
 30
0.0
 10
104.69043061715523
 20
44.115128906529264
 30
0.0
 10
105.3091832314091
 20
44.650763815347815
 30
0.0
 10
105.9587939399016
 20
45.24010593298374
 30
0.0
 10
106.6370748364709
 20
45.88486002117418
 30
0.0
 10
107.3417758926309
 20
46.58665756226653
 30
0.0
 10
107.40964269075039
 20
46.65746563815061
 30
0.0
 10
107.01092263770427
 20
47.64433239963855
 30
0.0
 10
106.54433350133091
 20
48.600981898383615
 30
0.0
 10
106.44630109435869
 20
48.59792688929091
 30
0.0
 10
105.45322683807133
 20
48.54382616010496
 30
0.0
 10
104.52022266621346
 20
48.47118991558976
 30
0.0
 10
103.6475817137771
 20
48.38278192752351
 30
0.0
 10
102.83550109098267
 20
48.281368835314936
 30
0.0
 10
102.08408192518495
 20
48.16971717550885
 30
0.0
 10
101.37197790413505
 20
48.046908133422626
 30
0.0
 10
101.23808808053653
 20
48.04401287990383
 30
0.0
 10
101.15962129018007
 20
48.072084008169995
 30
0.0
 10
100.16140083362028
 20
50.11873924499708
 30
0.0
 10
100.18758946259689
 20
50.197854231840104
 30
0.0
 10
100.27230175979541
 20
50.30157835662146
 30
0.0
 10
100.8074916178316
 20
50.78711518683272
 30
0.0
 10
101.35809415860747
 20
51.31050194433835
 30
0.0
 10
101.93797552013798
 20
51.887994073930244
 30
0.0
 10
102.54489338163873
 20
52.5212151361187
 30
0.0
 10
103.17654624841
 20
53.21171311930821
 30
0.0
 10
103.83057576646647
 20
53.96095857758416
 30
0.0
 10
103.89333792279034
 20
54.036328317075274
 30
0.0
 10
103.42674878641715
 20
54.99297781582042
 30
0.0
 10
102.89456374208793
 20
55.91474935162695
 30
0.0
 10
102.79698324379345
 20
55.90486338935974
 30
0.0
 10
101.81010194257769
 20
55.78162108854632
 30
0.0
 10
100.88443737027323
 20
55.644078701254706
 30
0.0
 10
100.02008915683653
 20
55.49501371491735
 30
0.0
 10
99.21706094132816
 20
55.33719977926231
 30
0.0
 10
98.47526062092788
 20
55.17340374597811
 30
0.0
 10
97.77345797520287
 20
55.00121999509861
 30
0.0
 10
97.64009626316141
 20
54.98899211230741
 30
0.0
 10
97.55986247104067
 20
55.01152129411469
 30
0.0
 10
96.42130617705166
 20
56.98355864258053
 30
0.0
 10
96.44191222934185
 20
57.06430773570151
 30
0.0
 10
96.51918274245509
 20
57.17368842486338
 30
0.0
 10
97.01919956774721
 20
57.69537546903947
 30
0.0
 10
97.53195125379898
 20
58.25589537438822
 30
0.0
 10
98.07013623890221
 20
58.872431241147396
 30
0.0
 10
98.63140441059716
 20
59.54644625852456
 30
0.0
 10
99.213351898297
 20
60.27932409994766
 30
0.0
 10
99.81352351218075
 20
61.07236722684838
 30
0.0
 10
99.87087525579228
 20
61.15193143615187
 30
0.0
 10
99.33869021146303
 20
62.073702971958404
 30
0.0
 10
98.74350201121877
 20
62.95610576655999
 30
0.0
 10
98.64684882398112
 20
62.93943701453285
 30
0.0
 10
97.67096846433547
 20
62.747653566193236
 30
0.0
 10
96.75715323633324
 20
62.54587512881039
 30
0.0
 10
95.90530877950809
 20
62.33687937383138
 30
0.0
 10
95.11524524403161
 20
62.123433448361006
 30
0.0
 10
94.38667774562424
 20
61.90829103940815
 30
0.0
 10
93.69859558716915
 20
61.687571441661774
 30
0.0
 10
93.56641171154035
 20
61.666070502614
 30
0.0
 10
93.48480180862548
 20
61.68294797805324
 30
0.0
 10
92.21145660902428
 20
63.57075987042463
 30
0.0
 10
92.22637969401259
 20
63.652749668358744
 30
0.0
 10
92.29583196886786
 20
63.76725403017846
 30
0.0
 10
92.7582397297046
 20
64.32254968147993
 30
0.0
 10
93.23064248635943
 20
64.91747193803621
 30
0.0
 10
93.72450911188615
 20
65.57004784119378
 30
0.0
 10
94.23739315166125
 20
66.28157308034673
 30
0.0
 10
94.76680007062677
 20
67.05326027282864
 30
0.0
 10
95.31018980456402
 20
67.88623744195628
 30
0.0
 10
95.36185172353339
 20
67.96960849224223
 30
0.0
 10
94.76666352328905
 20
68.85201128684383
 30
0.0
 10
94.11137186421298
 20
69.69074636252395
 30
0.0
 10
94.01611687264489
 20
69.6673760292212
 30
0.0
 10
93.05599184558642
 20
69.40798578303773
 30
0.0
 10
92.15847797782082
 20
69.14295433982787
 30
0.0
 10
91.3232873781738
 20
68.87504602251731
 30
0.0
 10
90.55003763285714
 20
68.60700799432497
 30
0.0
 10
89.8382524640596
 20
68.34156736189381
 30
0.0
 10
89.1672430599846
 20
68.07338724097414
 30
0.0
 10
89.03688100732347
 20
68.04271799608357
 30
0.0
 10
88.95429258885804
 20
68.05386153979096
 30
0.0
 10
87.55236209346093
 20
69.84825074629043
 30
0.0
 10
87.56152950737736
 20
69.93108180298373
 30
0.0
 10
87.62282517947287
 20
70.05015198372043
 30
0.0
 10
88.04537107172452
 20
70.6363508975523
 30
0.0
 10
88.47512340023775
 20
71.26277710388354
 30
0.0
 10
88.92226559763166
 20
71.94821375923601
 30
0.0
 10
89.3842667860001
 20
72.69378274072189
 30
0.0
 10
89.85855391893787
 20
73.50051970183054
 30
0.0
 10
90.3425144327662
 20
74.36937273214771
 30
0.0
 10
90.38823483541718
 20
74.45614444803951
 30
0.0
 10
89.73294317634122
 20
75.29487952371974
 30
0.0
 10
89.02074057352691
 20
76.08586064749917
 30
0.0
 10
88.92734785037216
 20
76.05590259083536
 30
0.0
 10
87.9876557885213
 20
75.7301692700136
 30
0.0
 10
87.11081587833831
 20
75.4031760275272
 30
0.0
 10
86.29634810051779
 20
75.07766037027696
 30
0.0
 10
85.54367934039337
 20
74.75633609369291
 30
0.0
 10
84.85214424699961
 20
74.44189043786268
 30
0.0
 10
84.20147668767176
 20
74.12755634036147
 30
0.0
 10
84.0735715687949
 20
74.08786820710633
 30
0.0
 10
83.99040699725194
 20
74.09322352885705
 30
0.0
 10
82.4667212705109
 20
75.78544796564194
 30
0.0
 10
82.47008835063636
 20
75.86871673651237
 30
0.0
 10
82.52292879361909
 20
75.99177263821441
 30
0.0
 10
82.90355421617274
 20
76.60601891239297
 30
0.0
 10
83.28856240639841
 20
77.26089718299006
 30
0.0
 10
83.68680174382042
 20
77.97585521205244
 30
0.0
 10
84.09566925743263
 20
78.75183559873776
 30
0.0
 10
84.51252592510616
 20
79.58969198709156
 30
0.0
 10
84.93469941184975
 20
80.49018791397133
 30
0.0
 10
84.97425555297649
 20
80.57993755239153
 30
0.0
 10
84.26205295016223
 20
81.370918676171
 30
0.0
 10
83.49640918310014
 20
82.11029226752366
 30
0.0
 10
83.40533372831818
 20
82.07389244013957
 30
0.0
 10
82.4906527169427
 20
81.68340298467596
 30
0.0
 10
81.63875864024511
 20
81.29604102112116
 30
0.0
 10
80.84898168939463
 20
80.91450390349264
 30
0.0
 10
80.12056084100377
 20
80.54145883809302
 30
0.0
 10
79.45264491247595
 20
80.17954010649093
 30
0.0
 10
78.82548918483943
 20
79.82058343653448
 30
0.0
 10
78.70066414062902
 20
79.77206977151053
 30
0.0
 10
78.6173285854414
 20
79.77161078071536
 30
0.0
 10
76.97931087105678
 20
81.35342610043142
 30
0.0
 10
76.97686121331535
 20
81.43672690839746
 30
0.0
 10
77.02098899385858
 20
81.56316901508127
 30
0.0
 10
77.3578395779159
 20
82.20247010350255
 30
0.0
 10
77.69622790865213
 20
82.88260993725929
 30
0.0
 10
78.04362420408117
 20
83.6236061363813
 30
0.0
 10
78.39736608151006
 20
84.4262174298234
 30
0.0
 10
78.75476140013672
 20
85.2911112933193
 30
0.0
 10
79.1130910730049
 20
86.21886299112346
 30
0.0
 10
79.14629023906387
 20
86.31115330085514
 30
0.0
 10
78.38064647200189
 20
87.05052689220791
 30
0.0
 10
77.565291680163
 20
87.73469079731849
 30
0.0
 10
77.47697720421465
 20
87.69202653551424
 30
0.0
 10
76.59176347725857
 20
87.23868337078396
 30
0.0
 10
75.76896557635597
 20
86.7928398747097
 30
0.0
 10
75.00772716639196
 20
86.35714010718802
 30
0.0
 10
74.30710302288739
 20
85.93419169103306
 30
0.0
 10
73.66606027849065
 20
85.52656311533958
 30
0.0
 10
73.065471822209
 20
85.12473267374165
 30
0.0
 10
72.9443349877331
 20
85.06762983064836
 30
0.0
 10
72.86123445134884
 20
85.06135876346431
 30
0.0
 10
71.11686500697215
 20
86.52505852087741
 30
0.0
 10
71.10861054585011
 20
86.607985532776
 30
0.0
 10
71.14381067784275
 20
86.73719783120774
 30
0.0
 10
71.4352453212183
 20
87.39843912323127
 30
0.0
 10
71.72536519853242
 20
88.10052694724502
 30
0.0
 10
72.0202259721373
 20
88.86395125742918
 30
0.0
 10
72.31711881851405
 20
89.68928321608463
 30
0.0
 10
72.61331159402675
 20
90.57700087875853
 30
0.0
 10
72.90605170687246
 20
91.52748843447264
 30
0.0
 10
72.93273215486388
 20
91.62186978640383
 30
0.0
 10
72.11737736302503
 20
92.30603369151446
 30
0.0
 10
71.25628387299597
 20
92.93165473260916
 30
0.0
 10
71.17116063513068
 20
92.88293389237957
 30
0.0
 10
70.31972686489038
 20
92.36894566071126
 30
0.0
 10
69.5300337284486
 20
91.86679273681438
 30
0.0
 10
68.80104253638501
 20
91.37905300487053
 30
0.0
 10
68.13162846816739
 20
90.90826180012914
 30
0.0
 10
67.52058200371503
 20
90.45690930579032
 30
0.0
 10
66.94948682537633
 20
90.01416277007057
 30
0.0
 10
66.83262836711583
 20
89.9487489482195
 30
0.0
 10
66.75016770699496
 20
89.93669635665552
 30
0.0
 10
64.9079449252158
 20
91.27514955367813
 30
0.0
 10
64.893925875618
 20
91.35729875744312
 30
0.0
 10
64.9200268675553
 20
91.48865173829319
 30
0.0
 10
65.16462572996146
 20
92.16861173281198
 30
0.0
 10
65.40506371897392
 20
92.88922704577774
 30
0.0
 10
65.64595243870498
 20
93.67136014052402
 30
0.0
 10
65.8845498219256
 20
94.51539183005232
 30
0.0
 10
66.11809703289525
 20
95.42160842068473
 30
0.0
 10
66.34382138531484
 20
96.39020115448005
 30
0.0
 10
66.36385313077798
 20
96.48621373215128
 30
0.0
 10
65.50275964074892
 20
97.11183477324595
 30
0.0
 10
64.60012261345629
 20
97.67586498749968
 30
0.0
 10
64.51860532553245
 20
97.62132493188108
 30
0.0
 10
63.7050996117507
 20
97.04919573227352
 30
0.0
 10
62.95235854535078
 20
96.49317981912301
 30
0.0
 10
62.25916614299741
 20
95.95577634170358
 30
0.0
 10
61.62422346811784
 20
95.43943599580149
 30
0.0
 10
61.04615024056249
 20
94.94655852679996
 30
0.0
 10
60.507330658469314
 20
94.4650529135757
 30
0.0
 10
60.39531989908631
 20
94.39164680253155
 30
0.0
 10
60.31390085527601
 20
94.37387140560219
 30
0.0
 10
58.382799860307635
 20
95.5805572327993
 30
0.0
 10
58.363084521634526
 20
95.66152840576751
 30
0.0
 10
58.3799592121074
 20
95.7943821305168
 30
0.0
 10
58.57653063247354
 20
96.48974813078688
 30
0.0
 10
58.76611534347063
 20
97.22538016733589
 30
0.0
 10
58.95185842369937
 20
98.02241157282641
 30
0.0
 10
59.13099792129654
 20
98.88103095567796
 30
0.0
 10
59.300761749187366
 20
99.8013314781319
 30
0.0
 10
59.45837063482559
 20
100.78331050357194
 30
0.0
 10
59.471656085110155
 20
100.88048654335604
 30
0.0
 10
58.56901905781749
 20
101.44451675760978
 30
0.0
 10
57.62923605012545
 20
101.94420824651476
 30
0.0
 10
57.55172185617572
 20
101.88411468917573
 30
0.0
 10
56.78010751691676
 20
101.25663187757921
 30
0.0
 10
56.06798579936896
 20
100.64946182881343
 30
0.0
 10
55.41396935043059
 20
100.06501278164079
 30
0.0
 10
54.81659144577688
 20
99.50563885284089
 30
0.0
 10
54.274307769775476
 20
98.97363765866176
 30
0.0
 10
53.77038885876983
 20
98.45571881487982
 30
0.0
 10
53.66377150342475
 20
98.37467804183683
 30
0.0
 10
53.58379074132226
 20
98.3512664394892
 30
0.0
 10
51.57321966309855
 20
99.42030604480628
 30
0.0
 10
51.54790408649836
 20
99.49970470356224
 30
0.0
 10
51.55547026371109
 20
99.63341192221814
 30
0.0
 10
51.70305656583646
 20
100.34079617498416
 30
0.0
 10
51.84086436116319
 20
101.08786100977984
 30
0.0
 10
51.97055688027356
 20
101.89590766912438
 30
0.0
 10
52.08936574262202
 20
102.76493163797402
 30
0.0
 10
52.19451911512915
 20
103.69483248061238
 30
0.0
 10
52.28324467933796
 20
104.68541369459341
 30
0.0
 10
52.289719109065615
 20
104.78327976459262
 30
0.0
 10
51.349936101373586
 20
105.28297125349768
 30
0.0
 10
50.37758564162897
 20
105.7158895703489
 30
0.0
 10
50.30445218301455
 20
105.65053528106013
 30
0.0
 10
49.57848844577684
 20
104.97075589065835
 30
0.0
 10
48.91045546250683
 20
104.31538977772237
 30
0.0
 10
48.29880126938121
 20
103.68674253780574
 30
0.0
 10
47.7418985000566
 20
103.08706023966106
 30
0.0
 10
47.238046327168455
 20
102.51852717664582
 30
0.0
 10
46.771483129531
 20
101.96671835085208
 30
0.0
 10
46.670778607261944
 20
101.87843773831034
 30
0.0
 10
46.592625785100594
 20
101.84950398951771
 30
0.0
 10
44.51237992381275
 20
102.77568911945718
 30
0.0
 10
44.48158744422998
 20
102.85312844171655
 30
0.0
 10
44.47980824652772
 20
102.98703774614998
 30
0.0
 10
44.5776904047837
 20
103.70299394643848
 30
0.0
 10
44.66304989871362
 20
104.45785195470037
 30
0.0
 10
44.73606000778917
 20
105.27297714579917
 30
0.0
 10
44.79395941005418
 20
106.14817190322466
 30
0.0
 10
44.83399003051672
 20
107.0831426826154
 30
0.0
 10
44.85340001126596
 20
108.0775000730358
 30
0.0
 10
44.85303187766586
 20
108.17557937959452
 30
0.0
 10
43.88068141792129
 20
108.60849769644575
 30
0.0
 10
42.880500699823635
 20
108.97253370672014
 30
0.0
 10
42.812104275403605
 20
108.90223708500986
 30
0.0
 10
42.13532796254136
 20
108.1734729326617
 30
0.0
 10
41.514638303093186
 20
107.47310363338056
 30
0.0
 10
40.948326283525944
 20
106.80332090688141
 30
0.0
 10
40.43461182384292
 20
106.16625183126867
 30
0.0
 10
39.97164587120729
 20
105.56395673535157
 30
0.0
 10
39.544711435938154
 20
104.98094628467767
 30
0.0
 10
39.45041036905485
 20
104.88585592690752
 30
0.0
 10
39.3744662395283
 20
104.85154099398564
 30
0.0
 10
37.234680343906945
 20
105.63035936769423
 30
0.0
 10
37.19856097920687
 20
105.70546207686311
 30
0.0
 10
37.18744507466198
 20
105.8389210744034
 30
0.0
 10
37.23514621701263
 20
106.55996115557424
 30
0.0
 10
37.26764154667162
 20
107.31893474496418
 30
0.0
 10
37.283613547799874
 20
108.13716725982229
 30
0.0
 10
37.28032140991364
 20
109.01426894493973
 30
0.0
 10
37.255034253172575
 20
109.94975457742859
 30
0.0
 10
37.20503408698711
 20
110.94304373503465
 30
0.0
 10
37.19782518356914
 20
111.04085844563019
 30
0.0
 10
36.19764446547156
 20
111.40489445590472
 30
0.0
 10
35.174506268941705
 20
111.69827461275318
 30
0.0
 10
35.111180099220576
 20
111.623378136696
 30
0.0
 10
34.486888396900746
 20
110.84917968809661
 30
0.0
 10
33.91656599890372
 20
110.10721933129552
 30
0.0
 10
33.39835516812871
 20
109.39956423233104
 30
0.0
 10
32.93033178329645
 20
108.72821211574865
 30
0.0
 10
32.51050757449742
 20
108.09508930809451
 30
0.0
 10
32.12528188324993
 20
107.48371760085213
 30
0.0
 10
32.037843697071104
 20
107.38228076851821
 30
0.0
 10
31.96447825234455
 20
107.34275183037091
 30
0.0
 10
29.775577144182613
 20
107.97040912301847
 30
0.0
 10
29.73430686427934
 20
108.04280932624712
 30
0.0
 10
29.713908408461407
 20
108.1751678180735
 30
0.0
 10
29.711196139736078
 20
108.8977789453299
 30
0.0
 10
29.69066899114447
 20
109.65717047281213
 30
0.0
 10
29.649525070341436
 20
110.47452396486561
 30
0.0
 10
29.585057431268805
 20
111.34925942643106
 30
0.0
 10
29.494575693809917
 20
112.28070232005126
 30
0.0
 10
29.375408976473416
 20
113.26808403991218
 30
0.0
 10
29.36139442429037
 20
113.36515761110675
 30
0.0
 10
28.338256227760514
 20
113.65853776795527
 30
0.0
 10
27.297145179246407
 20
113.87983275274406
 30
0.0
 10
27.239197782957596
 20
113.80070131044293
 30
0.0
 10
26.67043217760029
 20
112.98484038261167
 30
0.0
 10
26.15325559444886
 20
112.20490372456739
 30
0.0
 10
25.685670623543245
 20
111.4628238776465
 30
0.0
 10
25.265618476447113
 20
110.76045948012236
 30
0.0
 10
24.89098135282935
 20
110.09959347140878
 30
0.0
 10
24.549341186448522
 20
109.46283904910077
 30
0.0
 10
24.469191871027988
 20
109.35554993225378
 30
0.0
 10
24.398762540173454
 20
109.3109995698943
 30
0.0
 10
22.17141032564234
 20
109.78443789824293
 30
0.0
 10
22.125190195191088
 20
109.85378286901884
 30
0.0
 10
22.0956085673264
 20
109.98439601786377
 30
0.0
 10
22.042496101425694
 20
110.70505770243035
 30
0.0
 10
21.96904648078804
 20
111.46116748881674
 30
0.0
 10
21.8709870871001
 20
112.2736598940124
 30
0.0
 10
21.745658026698372
 20
113.14176750878521
 30
0.0
 10
21.59042252645137
 20
114.06462976738734
 30
0.0
 10
21.402669826232096
 20
115.04129362501527
 30
0.0
 10
21.38191790277353
 20
115.137153124128
 30
0.0
 10
20.34080685425942
 20
115.35844810891686
 30
0.0
 10
19.28679514213733
 20
115.5065797947246
 30
0.0
 10
19.234508833170636
 20
115.42359890661184
 30
0.0
 10
18.72404029363304
 20
114.5700502919791
 30
0.0
 10
18.262529157653915
 20
113.75593710569065
 30
0.0
 10
17.84784807359447
 20
112.98304784923394
 30
0.0
 10
17.47781361607161
 20
112.25309301951138
 30
0.0
 10
17.150188772043002
 20
111.56770348250281
 30
0.0
 10
16.853798567077888
 20
110.90866854866827
 30
0.0
 10
16.781328601823795
 20
110.79604984910087
 30
0.0
 10
16.71417850946168
 20
110.74669510741643
 30
0.0
 10
14.459226624657916
 20
111.06360792752027
 30
0.0
 10
14.408281823488206
 20
111.12955982411637
 30
0.0
 10
14.369661142294197
 20
111.25779129584785
 30
0.0
 10
14.266407237813135
 20
111.97299254643806
 30
0.0
 10
14.14039298429805
 20
112.72213690085324
 30
0.0
 10
13.985895853234354
 20
113.52580983786441
 30
0.0
 10
13.800315962087774
 20
114.38306027280727
 30
0.0
 10
13.581082990805637
 20
115.2928458042332
 30
0.0
 10
13.325659019986219
 20
116.25403359148768
 30
0.0
 10
13.298270826537241
 20
116.34821200067464
 30
0.0
 10
12.244259114415144
 20
116.49634368648238
 30
0.0
 10
11.182481777797602
 20
116.57059039062587
 30
0.0
 10
11.136111289794563
 20
116.48416433124736
 30
0.0
 10
10.686426767489184
 20
115.5970864328652
 30
0.0
 10
10.28282951454591
 20
114.75276299594182
 30
0.0
 10
9.923072601890574
 20
113.95282976871616
 30
0.0
 10
9.604858604622315
 20
113.1988407733508
 30
0.0
 10
9.325842195490225
 20
112.49226685697641
 30
0.0
 10
9.076145935226378
 20
111.81416216356705
 30
0.0
 10
9.011708386524788
 20
111.69676254826312
 30
0.0
 10
8.948164681155173
 20
111.64284387859408
 30
0.0
 10
6.676599024994559
 20
111.80168722304954
 30
0.0
 10
6.62117775105674
 20
111.8639247344551
 30
0.0
 10
6.573706172610043
 20
111.98914979823263
 30
0.0
 10
6.420813872192211
 20
112.69540622624538
 30
0.0
 10
6.242848914575912
 20
113.43393539269836
 30
0.0
 10
6.032666740629006
 20
114.22487344776084
 30
0.0
 10
5.787740145312815
 20
115.06709026492524
 30
0.0
 10
5.505577783994413
 20
115.95936668551718
 30
0.0
 10
5.183726942485556
 20
116.90039559211695
 30
0.0
 10
5.149835911571573
 20
116.99243408363523
 30
0.0
 10
4.088058574954022
 20
117.06668078777876
 30
0.0
 10
3.023688486295568
 20
117.06668078777875
 30
0.0
 10
2.9834597316125757
 20
116.97723061620827
 30
0.0
 10
2.596750044329956
 20
116.06094518842887
 30
0.0
 10
2.2530329596694205
 20
115.19052495978414
 30
0.0
 10
1.9499529179340147
 20
114.3674449560636
 30
0.0
 10
1.685109687528284
 20
113.59309515365014
 30
0.0
 10
1.4560610531913782
 20
112.86877921500596
 30
0.0
 10
1.2542752327094229
 20
112.17490841992522
 30
0.0
 10
1.1981840338203693
 20
112.05329984800953
 30
0.0
 10
1.1385562939884248
 20
111.99507993669465
 30
0.0
 10
-1.138556293989209
 20
111.99507993669444
 30
0.0
 10
-1.1981840338194398
 20
112.05329984800993
 30
0.0
 10
-1.2542752327604576
 20
112.1749084199104
 30
0.0
 10
-1.4560610531961033
 20
112.86877921502105
 30
0.0
 10
-1.6851096875290834
 20
113.59309515364957
 30
0.0
 10
-1.9499529179351702
 20
114.3674449560639
 30
0.0
 10
-2.2530329596685283
 20
115.19052495977596
 30
0.0
 10
-2.596750044361713
 20
116.06094518850409
 30
0.0
 10
-2.983459731612511
 20
116.97723061620809
 30
0.0
 10
-3.0236884862955877
 20
117.06668078777884
 30
0.0
 10
-4.088058574954058
 20
117.06668078777885
 30
0.0
 10
-5.149835911571598
 20
116.99243408363526
 30
0.0
 10
-5.183726942485506
 20
116.90039559211714
 30
0.0
 10
-5.505577784020847
 20
115.9593666854399
 30
0.0
 10
-5.787740145312498
 20
115.06709026493347
 30
0.0
 10
-6.032666740630138
 20
114.22487344776044
 30
0.0
 10
-6.242848914576753
 20
113.43393539269887
 30
0.0
 10
-6.420813872195874
 20
112.69540622622999
 30
0.0
 10
-6.57370617266199
 20
111.98914979824384
 30
0.0
 10
-6.621177751055787
 20
111.86392473445476
 30
0.0
 10
-6.676599024995359
 20
111.8016872230497
 30
0.0
 10
-8.94816468115594
 20
111.64284387859381
 30
0.0
 10
-9.011708386523889
 20
111.69676254826356
 30
0.0
 10
-9.076145935276257
 20
111.8141621635487
 30
0.0
 10
-9.325842195495992
 20
112.49226685699114
 30
0.0
 10
-9.604858604623072
 20
113.19884077335017
 30
0.0
 10
-9.92307260189175
 20
113.95282976871638
 30
0.0
 10
-10.28282951454445
 20
114.75276299593371
 30
0.0
 10
-10.686426767526113
 20
115.59708643293803
 30
0.0
 10
-11.136111289794487
 20
116.48416433124719
 30
0.0
 10
-11.182481777797625
 20
116.5705903906259
 30
0.0
 10
-12.24425911441518
 20
116.49634368648236
 30
0.0
 10
-13.29827082653728
 20
116.34821200067461
 30
0.0
 10
-13.325659019986206
 20
116.25403359148787
 30
0.0
 10
-13.58108299082664
 20
115.29284580415428
 30
0.0
 10
-13.80031596208806
 20
114.38306027281551
 30
0.0
 10
-13.985895853235482
 20
113.52580983786395
 30
0.0
 10
-14.140392984298948
 20
112.72213690085371
 30
0.0
 10
-14.266407237815738
 20
111.97299254642246
 30
0.0
 10
-14.369661142346825
 20
111.25779129585543
 30
0.0
 10
-14.408281823487258
 20
111.12955982411611
 30
0.0
 10
-14.45922662465875
 20
111.06360792752037
 30
0.0
 10
-16.71417850946245
 20
110.7466951074161
 30
0.0
 10
-16.781328601822953
 20
110.79604984910138
 30
0.0
 10
-16.85379856712639
 20
110.90866854864647
 30
0.0
 10
-17.150188772049805
 20
111.5677034825171
 30
0.0
 10
-17.47781361607235
 20
112.2530930195107
 30
0.0
 10
-17.84784807359568
 20
112.98304784923407
 30
0.0
 10
-18.26252915765192
 20
113.75593710568266
 30
0.0
 10
-18.724040293674985
 20
114.57005029204919
 30
0.0
 10
-19.234508833170572
 20
115.42359890661169
 30
0.0
 10
-19.286795142137375
 20
115.50657979472466
 30
0.0
 10
-20.34080685425947
 20
115.35844810891693
 30
0.0
 10
-21.381917902773544
 20
115.13715312412798
 30
0.0
 10
-21.40266982623207
 20
115.04129362501546
 30
0.0
 10
-21.590422526466792
 20
114.06462976730715
 30
0.0
 10
-21.74565802669921
 20
113.14176750879342
 30
0.0
 10
-21.870987087101174
 20
112.27365989401187
 30
0.0
 10
-21.96904648078895
 20
111.46116748881715
 30
0.0
 10
-22.042496101427183
 20
110.70505770241462
 30
0.0
 10
-22.095608567379408
 20
109.98439601786767
 30
0.0
 10
-22.125190195190097
 20
109.85378286901867
 30
0.0
 10
-22.17141032564316
 20
109.78443789824298
 30
0.0
 10
-24.398762540174182
 20
109.31099956989394
 30
0.0
 10
-24.469191871027164
 20
109.35554993225438
 30
0.0
 10
-24.54934118649536
 20
109.46283904907565
 30
0.0
 10
-24.890981352837112
 20
110.09959347142258
 30
0.0
 10
-25.265618476447777
 20
110.76045948012164
 30
0.0
 10
-25.685670623544446
 20
111.46282387764656
 30
0.0
 10
-26.153255594446293
 20
112.20490372455957
 30
0.0
 10
-26.670432177646997
 20
112.98484038267867
 30
0.0
 10
-27.239197782957497
 20
113.80070131044276
 30
0.0
 10
-27.297145179246453
 20
113.87983275274415
 30
0.0
 10
-28.338256227760528
 20
113.65853776795532
 30
0.0
 10
-29.361394424290367
 20
113.3651576111068
 30
0.0
 10
-29.375408976473373
 20
113.2680840399124
 30
0.0
 10
-29.494575693819684
 20
112.28070231997019
 30
0.0
 10
-29.58505743127018
 20
111.34925942643919
 30
0.0
 10
-29.649525070342435
 20
110.474523964865
 30
0.0
 10
-29.690668991145373
 20
109.65717047281247
 30
0.0
 10
-29.711196139736433
 20
108.89777894531409
 30
0.0
 10
-29.713908408514524
 20
108.1751678180737
 30
0.0
 10
-29.73430686427831
 20
108.04280932624701
 30
0.0
 10
-29.7755771441834
 20
107.97040912301847
 30
0.0
 10
-31.964478252345216
 20
107.3427518303705
 30
0.0
 10
-32.037843697070294
 20
107.38228076851885
 30
0.0
 10
-32.125281883294875
 20
107.48371760082382
 30
0.0
 10
-32.51050757450609
 20
108.09508930810773
 30
0.0
 10
-32.93033178329704
 20
108.72821211574788
 30
0.0
 10
-33.39835516812988
 20
109.39956423233103
 30
0.0
 10
-33.91656599890058
 20
110.1072193312879
 30
0.0
 10
-34.486888396951976
 20
110.84917968816019
 30
0.0
 10
-35.111180099220434
 20
111.62337813669588
 30
0.0
 10
-35.1745062689417
 20
111.69827461275322
 30
0.0
 10
-36.197644465471555
 20
111.40489445590471
 30
0.0
 10
-37.19782518356917
 20
111.04085844563026
 30
0.0
 10
-37.20503408698712
 20
110.94304373503486
 30
0.0
 10
-37.25503425317669
 20
109.94975457734705
 30
0.0
 10
-37.280321409915615
 20
109.01426894494776
 30
0.0
 10
-37.28361354780086
 20
108.13716725982161
 30
0.0
 10
-37.26764154667257
 20
107.31893474496447
 30
0.0
 10
-37.2351462170119
 20
106.55996115555845
 30
0.0
 10
-37.187445074715015
 20
105.83892107439989
 30
0.0
 10
-37.19856097920587
 20
105.70546207686309
 30
0.0
 10
-37.23468034390776
 20
105.63035936769417
 30
0.0
 10
-39.37446623952897
 20
104.85154099398517
 30
0.0
 10
-39.45041036905412
 20
104.88585592690823
 30
0.0
 10
-39.54471143598105
 20
104.98094628464628
 30
0.0
 10
-39.9716458712169
 20
105.56395673536414
 30
0.0
 10
-40.43461182384348
 20
106.16625183126786
 30
0.0
 10
-40.94832628352714
 20
106.80332090688132
 30
0.0
 10
-41.51463830308955
 20
107.47310363337317
 30
0.0
 10
-42.13532796259694
 20
108.17347293272155
 30
0.0
 10
-42.812104275403485
 20
108.90223708500972
 30
0.0
 10
-42.88050069982374
 20
108.9725337067203
 30
0.0
 10
-43.880681417921345
 20
108.60849769644578
 30
0.0
 10
-44.85303187766589
 20
108.17557937959447
 30
0.0
 10
-44.853400011266004
 20
108.07750007303598
 30
0.0
 10
-44.83399003051516
 20
107.08314268253375
 30
0.0
 10
-44.79395941005673
 20
106.14817190323252
 30
0.0
 10
-44.73606000779012
 20
105.27297714579842
 30
0.0
 10
-44.66304989871461
 20
104.45785195470059
 30
0.0
 10
-44.5776904047819
 20
103.70299394642278
 30
0.0
 10
-44.479808246580404
 20
102.98703774614278
 30
0.0
 10
-44.48158744422899
 20
102.85312844171656
 30
0.0
 10
-44.512379923813576
 20
102.77568911945706
 30
0.0
 10
-46.59262578510125
 20
101.84950398951719
 30
0.0
 10
-46.670778607261276
 20
101.87843773831105
 30
0.0
 10
-46.771483129571614
 20
101.96671835081776
 30
0.0
 10
-47.23804632717893
 20
102.51852717665768
 30
0.0
 10
-47.74189850005712
 20
103.08706023966019
 30
0.0
 10
-48.298801269382416
 20
103.68674253780554
 30
0.0
 10
-48.9104554625027
 20
104.31538977771524
 30
0.0
 10
-49.578488445836484
 20
104.97075589071416
 30
0.0
 10
-50.30445218301443
 20
105.65053528105997
 30
0.0
 10
-50.37758564162898
 20
105.71588957034879
 30
0.0
 10
-51.34993610137354
 20
105.28297125349756
 30
0.0
 10
-52.28971910906557
 20
104.78327976459256
 30
0.0
 10
-52.28324467933796
 20
104.6854136945936
 30
0.0
 10
-52.194519115121835
 20
103.69483248053105
 30
0.0
 10
-52.089365742625056
 20
102.76493163798169
 30
0.0
 10
-51.97055688027441
 20
101.89590766912357
 30
0.0
 10
-51.840864361164144
 20
101.08786100977999
 30
0.0
 10
-51.70305656583353
 20
100.34079617496862
 30
0.0
 10
-51.555470263763084
 20
99.63341192220727
 30
0.0
 10
-51.54790408649734
 20
99.49970470356234
 30
0.0
 10
-51.573219663099316
 20
99.42030604480611
 30
0.0
 10
-53.58379074132283
 20
98.35126643948864
 30
0.0
 10
-53.66377150342408
 20
98.37467804183761
 30
0.0
 10
-53.7703888588079
 20
98.45571881484275
 30
0.0
 10
-54.2743077697867
 20
98.97363765867289
 30
0.0
 10
-54.81659144577729
 20
99.50563885284
 30
0.0
 10
-55.413969350431735
 20
100.06501278164052
 30
0.0
 10
-56.067985799364294
 20
100.64946182880661
 30
0.0
 10
-56.78010751698009
 20
101.25663187763072
 30
0.0
 10
-57.55172185617554
 20
101.88411468917562
 30
0.0
 10
-57.62923605012547
 20
101.94420824651483
 30
0.0
 10
-58.56901905781753
 20
101.44451675760979
 30
0.0
 10
-59.47165608511007
 20
100.88048654335589
 30
0.0
 10
-59.4583706348256
 20
100.78331050357214
 30
0.0
 10
-59.300761749174406
 20
99.80133147805128
 30
0.0
 10
-59.1309979213001
 20
98.88103095568539
 30
0.0
 10
-58.95185842370016
 20
98.02241157282556
 30
0.0
 10
-58.76611534347159
 20
97.22538016733597
 30
0.0
 10
-58.576530632469535
 20
96.48974813077159
 30
0.0
 10
-58.37995921215852
 20
95.79438213050233
 30
0.0
 10
-58.3630845216335
 20
95.66152840576768
 30
0.0
 10
-58.38279986030839
 20
95.58055723279907
 30
0.0
 10
-60.313900855276536
 20
94.3738714056016
 30
0.0
 10
-60.395319899085706
 20
94.39164680253239
 30
0.0
 10
-60.507330658504706
 20
94.46505291353608
 30
0.0
 10
-61.04615024057448
 20
94.94655852681028
 30
0.0
 10
-61.62422346811819
 20
95.43943599580058
 30
0.0
 10
-62.259166142998524
 20
95.95577634170324
 30
0.0
 10
-62.95235854534565
 20
96.49317981911656
 30
0.0
 10
-63.705099611817474
 20
97.04919573232051
 30
0.0
 10
-64.51860532553226
 20
97.62132493188096
 30
0.0
 10
-64.60012261345622
 20
97.67586498749958
 30
0.0
 10
-65.50275964074886
 20
97.11183477324586
 30
0.0
 10
-66.36385313077795
 20
96.48621373215121
 30
0.0
 10
-66.3438213853149
 20
96.39020115448024
 30
0.0
 10
-66.11809703287672
 20
95.42160842060521
 30
0.0
 10
-65.8845498219297
 20
94.51539183005949
 30
0.0
 10
-65.64595243870573
 20
93.6713601405231
 30
0.0
 10
-65.4050637189749
 20
92.88922704577776
 30
0.0
 10
-65.16462572995641
 20
92.168611732797
 30
0.0
 10
-64.9200268676053
 20
91.4886517382752
 30
0.0
 10
-64.89392587561701
 20
91.35729875744336
 30
0.0
 10
-64.90794492521657
 20
91.27514955367786
 30
0.0
 10
-66.75016770699546
 20
89.93669635665488
 30
0.0
 10
-66.8326283671153
 20
89.94874894822037
 30
0.0
 10
-66.9494868254089
 20
90.01416277002858
 30
0.0
 10
-67.52058200372772
 20
90.45690930579977
 30
0.0
 10
-68.13162846816769
 20
90.9082618001282
 30
0.0
 10
-68.80104253638612
 20
91.3790530048701
 30
0.0
 10
-69.53003372844304
 20
91.86679273680828
 30
0.0
 10
-70.3197268649603
 20
92.36894566075347
 30
0.0
 10
-71.17116063513052
 20
92.88293389237947
 30
0.0
 10
-71.25628387299592
 20
92.93165473260908
 30
0.0
 10
-72.117377363025
 20
92.3060336915144
 30
0.0
 10
-72.93273215486387
 20
91.62186978640378
 30
0.0
 10
-72.90605170687253
 20
91.52748843447283
 30
0.0
 10
-72.61331159400272
 20
90.5770008786805
 30
0.0
 10
-72.31711881851864
 20
89.68928321609148
 30
0.0
 10
-72.02022597213798
 20
88.86395125742821
 30
0.0
 10
-71.72536519853338
 20
88.10052694724494
 30
0.0
 10
-71.43524532121221
 20
87.39843912321668
 30
0.0
 10
-71.14381067789137
 20
86.7371978311863
 30
0.0
 10
-71.10861054584913
 20
86.6079855327763
 30
0.0
 10
-71.11686500697287
 20
86.52505852087707
 30
0.0
 10
-72.86123445134928
 20
85.06135876346363
 30
0.0
 10
-72.94433498773262
 20
85.06762983064927
 30
0.0
 10
-73.06547182223856
 20
85.1247326736975
 30
0.0
 10
-73.66606027850396
 20
85.5265631153481
 30
0.0
 10
-74.30710302288762
 20
85.9341916910321
 30
0.0
 10
-75.00772716639304
 20
86.3571401071875
 30
0.0
 10
-75.76896557635001
 20
86.79283987470399
 30
0.0
 10
-76.59176347733126
 20
87.23868337082116
 30
0.0
 10
-77.47697720421446
 20
87.69202653551416
 30
0.0
 10
-77.56529168016303
 20
87.73469079731854
 30
0.0
 10
-78.38064647200191
 20
87.05052689220791
 30
0.0
 10
-79.14629023906389
 20
86.31115330085514
 30
0.0
 10
-79.113091073005
 20
86.21886299112363
 30
0.0
 10
-78.75476140010731
 20
85.29111129324312
 30
0.0
 10
-78.39736608151512
 20
84.42621742982989
 30
0.0
 10
-78.0436242040818
 20
83.62360613638026
 30
0.0
 10
-77.69622790865311
 20
82.88260993725915
 30
0.0
 10
-77.35783957790882
 20
82.2024701034884
 30
0.0
 10
-77.0209889939056
 20
81.56316901505649
 30
0.0
 10
-76.97686121331442
 20
81.43672690839782
 30
0.0
 10
-76.9793108710575
 20
81.35342610043104
 30
0.0
 10
-78.61732858544183
 20
79.77161078071465
 30
0.0
 10
-78.70066414062863
 20
79.77206977151145
 30
0.0
 10
-78.82548918486584
 20
79.82058343648833
 30
0.0
 10
-79.45264491248986
 20
80.17954010649851
 30
0.0
 10
-80.12056084100394
 20
80.54145883809204
 30
0.0
 10
-80.84898168939569
 20
80.91450390349205
 30
0.0
 10
-81.63875864023878
 20
81.29604102111587
 30
0.0
 10
-82.49065271701781
 20
81.68340298470802
 30
0.0
 10
-83.40533372831801
 20
82.07389244013947
 30
0.0
 10
-83.49640918310023
 20
82.11029226752375
 30
0.0
 10
-84.26205295016221
 20
81.370918676171
 30
0.0
 10
-84.97425555297627
 20
80.57993755239136
 30
0.0
 10
-84.93469941184982
 20
80.49018791397151
 30
0.0
 10
-84.51252592507146
 20
79.58969198701763
 30
0.0
 10
-84.0956692574381
 20
78.75183559874392
 30
0.0
 10
-83.68680174382094
 20
77.9758552120514
 30
0.0
 10
-83.28856240639936
 20
77.26089718298988
 30
0.0
 10
-82.90355421616466
 20
76.60601891237938
 30
0.0
 10
-82.52292879366424
 20
75.99177263818643
 30
0.0
 10
-82.47008835063544
 20
75.86871673651284
 30
0.0
 10
-82.46672127051157
 20
75.78544796564152
 30
0.0
 10
-83.99040699725228
 20
74.09322352885636
 30
0.0
 10
-84.07357156879453
 20
74.0878682071073
 30
0.0
 10
-84.20147668769486
 20
74.12755634031366
 30
0.0
 10
-84.85214424701397
 20
74.44189043786929
 30
0.0
 10
-85.54367934039344
 20
74.75633609369196
 30
0.0
 10
-86.29634810051877
 20
75.07766037027633
 30
0.0
 10
-87.1108158783316
 20
75.4031760275224
 30
0.0
 10
-87.98765578859842
 20
75.73016927004036
 30
0.0
 10
-88.92734785037196
 20
76.05590259083532
 30
0.0
 10
-89.02074057352692
 20
76.08586064749917
 30
0.0
 10
-89.7329431763412
 20
75.29487952371976
 30
0.0
 10
-90.38823483541717
 20
74.45614444803952
 30
0.0
 10
-90.3425144327663
 20
74.36937273214791
 30
0.0
 10
-89.85855391889811
 20
73.50051970175923
 30
0.0
 10
-89.384266786006
 20
72.69378274072767
 30
0.0
 10
-88.92226559763212
 20
71.94821375923495
 30
0.0
 10
-88.47512340023869
 20
71.2627771038833
 30
0.0
 10
-88.04537107171551
 20
70.63635089753932
 30
0.0
 10
-87.62282517951596
 20
70.05015198368937
 30
0.0
 10
-87.56152950737646
 20
69.93108180298425
 30
0.0
 10
-87.55236209346157
 20
69.84825074628998
 30
0.0
 10
-88.95429258885835
 20
68.05386153979023
 30
0.0
 10
-89.0368810073232
 20
68.04271799608458
 30
0.0
 10
-89.16724306000432
 20
68.07338724092483
 30
0.0
 10
-89.83825246407439
 20
68.34156736189941
 30
0.0
 10
-90.55003763285717
 20
68.60700799432401
 30
0.0
 10
-91.32328737817474
 20
68.87504602251661
 30
0.0
 10
-92.15847797781382
 20
69.14295433982356
 30
0.0
 10
-93.05599184566525
 20
69.40798578305905
 30
0.0
 10
-94.01611687264469
 20
69.66737602922117
 30
0.0
 10
-94.11137186421306
 20
69.69074636252405
 30
0.0
 10
-94.76666352328904
 20
68.85201128684383
 30
0.0
 10
-95.36185172353323
 20
67.96960849224216
 30
0.0
 10
-95.31018980456412
 20
67.88623744195645
 30
0.0
 10
-94.76680007058215
 20
67.05326027276024
 30
0.0
 10
-94.23739315166755
 20
66.28157308035206
 30
0.0
 10
-93.72450911188652
 20
65.57004784119266
 30
0.0
 10
-93.23064248636035
 20
64.91747193803587
 30
0.0
 10
-92.75823972969471
 20
64.32254968146758
 30
0.0
 10
-92.29583196890867
 20
63.76725403014443
 30
0.0
 10
-92.22637969401174
 20
63.652749668359284
 30
0.0
 10
-92.2114566090249
 20
63.570759870424084
 30
0.0
 10
-93.48480180862572
 20
61.682947978052454
 30
0.0
 10
-93.56641171154016
 20
61.66607050261498
 30
0.0
 10
-93.69859558718537
 20
61.68757144161116
 30
0.0
 10
-94.3866777456394
 20
61.90829103941265
 30
0.0
 10
-95.11524524403157
 20
62.123433448360004
 30
0.0
 10
-95.90530877950899
 20
62.336879373830584
 30
0.0
 10
-96.75715323632593
 20
62.545875128806536
 30
0.0
 10
-97.6709684644156
 20
62.74765356620897
 30
0.0
 10
-98.64684882398092
 20
62.93943701453278
 30
0.0
 10
-98.74350201121868
 20
62.956105766559936
 30
0.0
 10
-99.338690211463
 20
62.07370297195838
 30
0.0
 10
-99.87087525579231
 20
61.15193143615191
 30
0.0
 10
-99.81352351218086
 20
61.07236722684856
 30
0.0
 10
-99.21335189824771
 20
60.27932409988257
 30
0.0
 10
-98.63140441060378
 20
59.546446258529464
 30
0.0
 10
-98.0701362389025
 20
58.87243124114627
 30
0.0
 10
-97.53195125379985
 20
58.255895374387855
 30
0.0
 10
-97.01919956773646
 20
57.695375469027866
 30
0.0
 10
-96.51918274249343
 20
57.173688424826636
 30
0.0
 10
-96.44191222934103
 20
57.06430773570215
 30
0.0
 10
-96.42130617705223
 20
56.98355864257999
 30
0.0
 10
-97.55986247104086
 20
55.01152129411393
 30
0.0
 10
-97.64009626316127
 20
54.988992112308445
 30
0.0
 10
-97.77345797521552
 20
55.00121999504702
 30
0.0
 10
-98.47526062094329
 20
55.1734037459816
 30
0.0
 10
-99.21706094132804
 20
55.33719977926136
 30
0.0
 10
-100.02008915683736
 20
55.49501371491653
 30
0.0
 10
-100.88443737026567
 20
55.644078701251416
 30
0.0
 10
-101.81010194265869
 20
55.78162108855647
 30
0.0
 10
-102.79698324379325
 20
55.90486338935975
 30
0.0
 10
-102.89456374208784
 20
55.91474935162692
 30
0.0
 10
-103.42674878641706
 20
54.992977815820375
 30
0.0
 10
-103.89333792279034
 20
54.03632831707528
 30
0.0
 10
-103.83057576646658
 20
53.960958577584314
 30
0.0
 10
-103.17654624835627
 20
53.211713119246696
 30
0.0
 10
-102.54489338164568
 20
52.52121513612311
 30
0.0
 10
-101.9379755201382
 20
51.887994073929086
 30
0.0
 10
-101.35809415860832
 20
51.3105019443379
 30
0.0
 10
-100.80749161782008
 20
50.78711518682187
 30
0.0
 10
-100.2723017598311
 20
50.301578356582105
 30
0.0
 10
-100.18758946259611
 20
50.19785423184078
 30
0.0
 10
-100.16140083362079
 20
50.11873924499649
 30
0.0
 10
-101.1596212901802
 20
48.07208400816921
 30
0.0
 10
-101.23808808053644
 20
48.044012879904855
 30
0.0
 10
-101.37197790414407
 20
48.04690813337027
 30
0.0
 10
-102.08408192520055
 20
48.16971717551123
 30
0.0
 10
-102.83550109098246
 20
48.28136883531398
 30
0.0
 10
-103.64758171377787
 20
48.38278192752262
 30
0.0
 10
-104.52022266620567
 20
48.47118991558699
 30
0.0
 10
-105.45322683815284
 20
48.54382616010942
 30
0.0
 10
-106.44630109435847
 20
48.5979268892909
 30
0.0
 10
-106.54433350133091
 20
48.60098189838363
 30
0.0
 10
-107.0109226377041
 20
47.644332399638486
 30
0.0
 10
-107.40964269075018
 20
46.657465638150505
 30
0.0
 10
-107.34177589263105
 20
46.586657562266666
 30
0.0
 10
-106.63707483641303
 20
45.88486002111656
 30
0.0
 10
-105.95879393990886
 20
45.240105932987646
 30
0.0
 10
-105.30918323140924
 20
44.65076381534664
 30
0.0
 10
-104.69043061715607
 20
44.115128906528746
 30
0.0
 10
-104.10465970187529
 20
43.63142518452865
 30
0.0
 10
-103.5369042023314
 20
43.184404054881284
 30
0.0
 10
-103.4451628308107
 20
43.08684182803255
 30
0.0
 10
-103.41351921351676
 20
43.00974638772942
 30
0.0
 10
-104.26654060292336
 20
40.89844436112568
 30
0.0
 10
-104.34285810920028
 20
40.86496804611766
 30
0.0
 10
-104.47662374659922
 20
40.858516564926056
 30
0.0
 10
-105.19555984377428
 20
40.931352584964806
 30
0.0
 10
-105.95293701631006
 20
40.99031591562717
 30
0.0
 10
-106.7701136712273
 20
41.03483408999806
 30
0.0
 10
-107.64679594365198
 20
41.06215436496078
 30
0.0
 10
-108.58259421261282
 20
41.06953059021865
 30
0.0
 10
-109.57702326593673
 20
41.05422617446397
 30
0.0
 10
-109.67502997755453
 20
41.050435346685084
 30
0.0
 10
-110.0737500306007
 20
40.06356858519712
 30
0.0
 10
-110.4026584763004
 20
39.051292476628795
 30
0.0
 10
-110.33001767660421
 20
38.98539103418009
 30
0.0
 10
-109.57807831498806
 20
38.33446049729354
 30
0.0
 10
-108.8564739050375
 20
37.73859148126621
 30
0.0
 10
-108.16733518761895
 20
37.195999523734905
 30
0.0
 10
-107.5127258211823
 20
36.70483139512424
 30
0.0
 10
-106.89464034842678
 20
36.263167264551925
 30
0.0
 10
-106.29708525505116
 20
35.85683967750619
 30
0.0
 10
-106.19876176398499
 20
35.76591466191233
 30
0.0
 10
-106.16181732289509
 20
35.69121436938591
 30
0.0
 10
-106.86548381068508
 20
33.525551604251994
 30
0.0
 10
-106.93928022166351
 20
33.48683319574199
 30
0.0
 10
-107.07226998011443
 20
33.47106641086124
 30
0.0
 10
-107.79453556900984
 20
33.493574559029604
 30
0.0
 10
-108.55418088284618
 20
33.49956229713157
 30
0.0
 10
-109.37247236736485
 20
33.48696866559412
 30
0.0
 10
-110.24892485187891
 20
33.453068125821815
 30
0.0
 10
-111.18295810275315
 20
33.395148395587114
 30
0.0
 10
-112.17389719480722
 20
33.310513396471435
 30
0.0
 10
-112.27140073222286
 20
33.29989520035275
 30
0.0
 10
-112.60030917792271
 20
32.28761909178446
 30
0.0
 10
-112.85780360739052
 20
31.254865343583166
 30
0.0
 10
-112.78074270479156
 20
31.194191599772804
 30
0.0
 10
-111.98522841076239
 20
30.597299335294203
 30
0.0
 10
-111.2238160715153
 20
30.053218405318013
 30
0.0
 10
-110.49850675973708
 20
29.56002006137234
 30
0.0
 10
-109.81122983214912
 20
29.11571163471944
 30
0.0
 10
-109.16384105221239
 20
28.718238838823133
 30
0.0
 10
-108.53939759335395
 20
28.354584381539215
 30
0.0
 10
-108.43497100490734
 20
28.27073955473646
 30
0.0
 10
-108.39290572962481
 20
28.198798342303085
 30
0.0
 10
-108.943789123402
 20
25.98932572993906
 30
0.0
 10
-109.01470491038565
 20
25.94555386012138
 30
0.0
 10
-109.14627087715347
 20
25.920548585742537
 30
0.0
 10
-109.868347152422
 20
25.89261920460516
 30
0.0
 10
-110.62655969194917
 20
25.845602178488576
 30
0.0
 10
-111.44197937221105
 20
25.775958095949726
 30
0.0
 10
-112.31393208041065
 20
25.681001901464498
 30
0.0
 10
-113.24164979708871
 20
25.558068394840866
 30
0.0
 10
-114.22427117222534
 20
25.404515145572393
 30
0.0
 10
-114.32079650800563
 20
25.387121311898106
 30
0.0
 10
-114.57829093747348
 20
24.354367563696798
 30
0.0
 10
-114.7631168637321
 20
23.306167648311625
 30
0.0
 10
-114.68201129120176
 20
23.25101719952059
 30
0.0
 10
-113.84679773043526
 20
22.71107120656308
 30
0.0
 10
-113.04928698627157
 20
22.22142907023804
 30
0.0
 10
-112.29134071419283
 20
21.780027152633586
 30
0.0
 10
-111.57474456955995
 20
21.38474305393138
 30
0.0
 10
-110.90120649550255
 20
21.033398040218863
 30
0.0
 10
-110.252916896924
 20
20.71418840065823
 30
0.0
 10
-110.14289596693895
 20
20.637832246214707
 30
0.0
 10
-110.09591479525658
 20
20.569000604229853
 30
0.0
 10
-110.49133124650112
 20
18.326482473107745
 30
0.0
 10
-110.55902091490421
 20
18.277870394132208
 30
0.0
 10
-110.6885221138238
 20
18.243748453438535
 30
0.0
 10
-111.4068911924352
 20
18.165517612132852
 30
0.0
 10
-112.15997702237588
 20
18.065724884022828
 30
0.0
 10
-112.96855225566443
 20
17.93936964945211
 30
0.0
 10
-113.83175712160359
 20
17.783820417288524
 30
0.0
 10
-114.7486395566237
 20
17.596472053962998
 30
0.0
 10
-115.71815598227596
 20
17.37474865053705
 30
0.0
 10
-115.8132328546876
 20
17.35066392031638
 30
0.0
 10
-115.99805878094634
 20
16.302464004931288
 30
0.0
 10
-116.1093157506617
 20
15.243924646985356
 30
0.0
 10
-116.02456064639668
 20
15.194566180656437
 30
0.0
 10
-115.15371689540552
 20
14.714197021822528
 30
0.0
 10
-114.3239931385053
 20
14.281379166418162
 30
0.0
 10
-113.5371025441751
 20
13.893924140927929
 30
0.0
 10
-112.79467836688198
 20
13.549590154571474
 30
0.0
 10
-112.09827240849691
 20
13.246084640632477
 30
0.0
 10
-111.4292950719567
 20
12.972874976072225
 30
0.0
 10
-111.31421581134481
 20
12.904379493497084
 30
0.0
 10
-111.26254763080851
 20
12.838992762801569
 30
0.0
 10
-111.50057071031704
 20
10.574354435839076
 30
0.0
 10
-111.56470448287926
 20
10.521138980867976
 30
0.0
 10
-111.69150999712689
 20
10.478066612524604
 30
0.0
 10
-112.40267205714036
 20
10.349915443845727
 30
0.0
 10
-113.14696221903102
 20
10.197833193882484
 30
0.0
 10
-113.94475370808738
 20
10.015382397281549
 30
0.0
 10
-114.79500528442829
 20
9.799997947662948
 30
0.0
 10
-115.6965854787317
 20
9.549147470029457
 30
0.0
 10
-116.64827356832926
 20
9.260334126579966
 30
0.0
 10
-116.74143877240701
 20
9.229675838197565
 30
0.0
 10
-116.85269574212256
 20
8.171136480251647
 30
0.0
 10
-116.88984172252177
 20
7.1074147770928775
 30
0.0
 10
-116.80185000487042
 20
7.0640887627125295
 30
0.0
 10
-115.89961872687255
 20
6.64563674825752
 30
0.0
 10
-115.04172428797585
 20
6.271751818858657
 30
0.0
 10
-114.22972302327183
 20
5.940131327419989
 30
0.0
 10
-113.465087829282
 20
5.6484250139784855
 30
0.0
 10
-112.74920680639603
 20
5.39423764816865
 30
0.0
 10
-112.06280092223241
 20
5.168359008631579
 30
0.0
 10
-111.94322398558366
 20
5.108057901030787
 30
0.0
 10
-111.88712051837534
 20
5.046434639203907
 30
0.0
 10
-111.96659060163047
 20
2.7707092066893395
 30
0.0
 10
-112.02685602505862
 20
2.713149636070101
 30
0.0
 10
-112.15034807091531
 20
2.6613366843259803
 30
0.0
 10
-112.85083840226027
 20
2.483889527886
 30
0.0
 10
-113.58270678924794
 20
2.2802586855041027
 30
0.0
 10
-114.36582777413112
 20
2.042601208814097
 30
0.0
 10
-115.19898372066085
 20
1.7684308731286569
 30
0.0
 10
-116.08086926616747
 20
1.4553003994988307
 30
0.0
 10
-117.01009249100115
 20
1.100804185603666
 30
0.0
 10
-117.10089213523555
 20
1.0637217031587656
 30
0.0
 10
-117.13803811563494
 20
-7.993605777301127e-15
 30
0.0
 10
-117.10089213523554
 20
-1.063721703158771
 30
0.0
 10
-117.01009249100133
 20
-1.100804185603594
 30
0.0
 10
-116.08086926609116
 20
-1.4553003995279292
 30
0.0
 10
-115.19898372066908
 20
-1.7684308731280396
 30
0.0
 10
-114.36582777413076
 20
-2.0426012088152286
 30
0.0
 10
-113.58270678924848
 20
-2.2802586855049096
 30
0.0
 10
-112.85083840224502
 20
-2.4838895278901827
 30
0.0
 10
-112.15034807092835
 20
-2.661336684377489
 30
0.0
 10
-112.02685602505827
 20
-2.713149636069146
 30
0.0
 10
-111.96659060163066
 20
-2.770709206690118
 30
0.0
 10
-111.88712051837508
 20
-5.046434639204672
 30
0.0
 10
-111.94322398558408
 20
-5.108057901029861
 30
0.0
 10
-112.0628009222158
 20
-5.168359008682053
 30
0.0
 10
-112.74920680641094
 20
-5.3942376481738865
 30
0.0
 10
-113.46508782928137
 20
-5.648425013979252
 30
0.0
 10
-114.2297230232721
 20
-5.940131327421141
 30
0.0
 10
-115.04172428796768
 20
-6.271751818857467
 30
0.0
 10
-115.89961872694663
 20
-6.64563674829187
 30
0.0
 10
-116.80185000487022
 20
-7.064088762712445
 30
0.0
 10
-116.88984172252191
 20
-7.107414777092885
 30
0.0
 10
-116.85269574212255
 20
-8.171136480251665
 30
0.0
 10
-116.74143877240698
 20
-9.229675838197567
 30
0.0
 10
-116.64827356832944
 20
-9.260334126579908
 30
0.0
 10
-115.69658547865356
 20
-9.549147470053166
 30
0.0
 10
-114.79500528443653
 20
-9.799997947662906
 30
0.0
 10
-113.94475370808695
 20
-10.015382397282652
 30
0.0
 10
-113.14696221903152
 20
-10.197833193883328
 30
0.0
 10
-112.40267205712487
 20
-10.349915443848836
 30
0.0
 10
-111.6915099971363
 20
-10.4780666125769
 30
0.0
 10
-111.56470448287897
 20
-10.521138980866999
 30
0.0
 10
-111.50057071031716
 20
-10.574354435839867
 30
0.0
 10
-111.26254763080821
 20
-12.838992762802315
 30
0.0
 10
-111.31421581134528
 20
-12.904379493496188
 30
0.0
 10
-111.42929507193662
 20
-12.972874976121417
 30
0.0
 10
-112.09827240851143
 20
-13.246084640638742
 30
0.0
 10
-112.79467836688133
 20
-13.549590154572197
 30
0.0
 10
-113.5371025441753
 20
-13.893924140929096
 30
0.0
 10
-114.32399313849724
 20
-14.281379166416407
 30
0.0
 10
-115.15371689547703
 20
-14.714197021861963
 30
0.0
 10
-116.0245606463965
 20
-15.194566180656343
 30
0.0
 10
-116.10931575066182
 20
-15.243924646985377
 30
0.0
 10
-115.9980587809463
 20
-16.302464004931288
 30
0.0
 10
-115.81323285468748
 20
-17.35066392031642
 30
0.0
 10
-115.71815598227613
 20
-17.374748650537057
 30
0.0
 10
-114.74863955654408
 20
-17.596472053981245
 30
0.0
 10
-113.8317571216118
 20
-17.783820417289107
 30
0.0
 10
-112.96855225566392
 20
-17.939369649453234
 30
0.0
 10
-112.15997702237631
 20
-18.06572488402375
 30
0.0
 10
-111.4068911924195
 20
-18.16551761213492
 30
0.0
 10
-110.6885221138295
 20
-18.243748453491406
 30
0.0
 10
-110.55902091490397
 20
-18.277870394131263
 30
0.0
 10
-110.49133124650118
 20
-18.32648247310859
 30
0.0
 10
-110.09591479525623
 20
-20.569000604230624
 30
0.0
 10
-110.14289596693948
 20
-20.637832246213897
 30
0.0
 10
-110.25291689690053
 20
-20.714188400705954
 30
0.0
 10
-110.90120649551659
 20
-21.033398040226174
 30
0.0
 10
-111.57474456955924
 20
-21.384743053932105
 30
0.0
 10
-112.29134071419291
 20
-21.780027152634815
 30
0.0
 10
-113.04928698626364
 20
-22.22142907023578
 30
0.0
 10
-113.84679773050381
 20
-22.711071206607457
 30
0.0
 10
-114.68201129120158
 20
-23.251017199520533
 30
0.0
 10
-114.76311686373214
 20
-23.3061676483117
 30
0.0
 10
-114.57829093747343
 20
-24.354367563696794
 30
0.0
 10
-114.32079650800549
 20
-25.387121311898074
 30
0.0
 10
-114.22427117222553
 20
-25.40451514557236
 30
0.0
 10
-113.24164979700802
 20
-25.558068394853464
 30
0.0
 10
-112.31393208041881
 20
-25.6810019014656
 30
0.0
 10
-111.44197937221047
 20
-25.775958095950756
 30
0.0
 10
-110.62655969194955
 20
-25.845602178489475
 30
0.0
 10
-109.8683471524062
 20
-25.892619204606078
 30
0.0
 10
-109.14627087715552
 20
-25.92054858579563
 30
0.0
 10
-109.0147049103855
 20
-25.945553860120366
 30
0.0
 10
-108.94378912340203
 20
-25.98932572993986
 30
0.0
 10
-108.3929057296244
 20
-28.19879834230378
 30
0.0
 10
-108.43497100490795
 20
-28.270739554735634
 30
0.0
 10
-108.53939759332721
 20
-28.35458438158513
 30
0.0
 10
-109.1638410522259
 20
-28.718238838831354
 30
0.0
 10
-109.81122983214838
 20
-29.11571163472006
 30
0.0
 10
-110.4985067597371
 20
-29.56002006137352
 30
0.0
 10
-111.22381607150757
 20
-30.053218405315146
 30
0.0
 10
-111.9852284108277
 20
-30.5972993353432
 30
0.0
 10
-112.7807427047914
 20
-31.194191599772676
 30
0.0
 10
-112.85780360739061
 20
-31.254865343583194
 30
0.0
 10
-112.60030917792278
 20
-32.287619091784556
 30
0.0
 10
-112.27140073222283
 20
-33.2998952003528
 30
0.0
 10
-112.17389719480742
 20
-33.31051339647147
 30
0.0
 10
-111.18295810267176
 20
-33.395148395594106
 30
0.0
 10
-110.24892485188697
 20
-33.45306812582354
 30
0.0
 10
-109.3724723673642
 20
-33.48696866559516
 30
0.0
 10
-108.55418088284648
 20
-33.49956229713254
 30
0.0
 10
-107.79453556899402
 20
-33.49357455902947
 30
0.0
 10
-107.07226998011276
 20
-33.47106641091439
 30
0.0
 10
-106.93928022166342
 20
-33.48683319574102
 30
0.0
 10
-106.86548381068505
 20
-33.52555160425284
 30
0.0
 10
-106.16181732289462
 20
-35.69121436938663
 30
0.0
 10
-106.19876176398563
 20
-35.7659146619116
 30
0.0
 10
-106.29708525502127
 20
-35.85683967755018
 30
0.0
 10
-106.89464034843968
 20
-36.26316726456112
 30
0.0
 10
-107.51272582118149
 20
-36.704831395124856
 30
0.0
 10
-108.16733518761887
 20
-37.19599952373614
 30
0.0
 10
-108.85647390502997
 20
-37.73859148126287
 30
0.0
 10
-109.57807831504981
 20
-38.33446049734703
 30
0.0
 10
-110.33001767660406
 20
-38.98539103418001
 30
0.0
 10
-110.40265847630057
 20
-39.05129247662891
 30
0.0
 10
-110.07375003060078
 20
-40.06356858519716
 30
0.0
 10
-109.67502997755442
 20
-41.05043534668502
 30
0.0
 10
-109.57702326593694
 20
-41.05422617446397
 30
0.0
 10
-108.58259421253118
 20
-41.069530590219905
 30
0.0
 10
-107.64679594365992
 20
-41.062154364963014
 30
0.0
 10
-106.77011367122661
 20
-41.034834089999
 30
0.0
 10
-105.9529370163103
 20
-40.990315915628116
 30
0.0
 10
-105.19555984375853
 20
-40.93135258496352
 30
0.0
 10
-104.47662374659386
 20
-40.85851656497892
 30
0.0
 10
-104.34285810920028
 20
-40.86496804611664
 30
0.0
 10
-104.26654060292327
 20
-40.89844436112648
 30
0.0
 10
-103.41351921351628
 20
-43.00974638773005
 30
0.0
 10
-103.44516283081141
 20
-43.08684182803182
 30
0.0
 10
-103.53690420229854
 20
-43.184404054923036
 30
0.0
 10
-104.10465970188753
 20
-43.63142518453867
 30
0.0
 10
-104.69043061715523
 20
-44.115128906529264
 30
0.0
 10
-105.3091832314091
 20
-44.650763815347815
 30
0.0
 10
-105.9587939399016
 20
-45.24010593298374
 30
0.0
 10
-106.6370748364709
 20
-45.88486002117418
 30
0.0
 10
-107.3417758926309
 20
-46.58665756226653
 30
0.0
 10
-107.40964269075032
 20
-46.65746563815058
 30
0.0
 10
-107.0109226377042
 20
-47.64433239963854
 30
0.0
 10
-106.544333501331
 20
-48.60098189838368
 30
0.0
 10
-106.44630109435867
 20
-48.59792688929092
 30
0.0
 10
-105.45322683807132
 20
-48.54382616010497
 30
0.0
 10
-104.52022266621344
 20
-48.47118991558977
 30
0.0
 10
-103.64758171377709
 20
-48.38278192752352
 30
0.0
 10
-102.83550109098266
 20
-48.28136883531494
 30
0.0
 10
-102.08408192518493
 20
-48.16971717550886
 30
0.0
 10
-101.37197790413505
 20
-48.04690813342263
 30
0.0
 10
-101.23808808053651
 20
-48.04401287990384
 30
0.0
 10
-101.15962129018006
 20
-48.07208400817
 30
0.0
 10
-100.16140083362026
 20
-50.11873924499709
 30
0.0
 10
-100.18758946259688
 20
-50.19785423184011
 30
0.0
 10
-100.2723017597954
 20
-50.30157835662147
 30
0.0
 10
-100.80749161783159
 20
-50.78711518683273
 30
0.0
 10
-101.35809415860746
 20
-51.310501944338355
 30
0.0
 10
-101.93797552013797
 20
-51.88799407393025
 30
0.0
 10
-102.54489338163872
 20
-52.521215136118705
 30
0.0
 10
-103.17654624840999
 20
-53.211713119308214
 30
0.0
 10
-103.83057576646645
 20
-53.960958577584165
 30
0.0
 10
-103.89333792279037
 20
-54.036328317075316
 30
0.0
 10
-103.42674878641716
 20
-54.99297781582047
 30
0.0
 10
-102.89456374208781
 20
-55.914749351626895
 30
0.0
 10
-102.79698324379343
 20
-55.90486338935977
 30
0.0
 10
-101.81010194257767
 20
-55.781621088546345
 30
0.0
 10
-100.88443737027322
 20
-55.644078701254735
 30
0.0
 10
-100.02008915683653
 20
-55.49501371491737
 30
0.0
 10
-99.21706094132814
 20
-55.337199779262335
 30
0.0
 10
-98.47526062092787
 20
-55.17340374597814
 30
0.0
 10
-97.77345797520286
 20
-55.00121999509863
 30
0.0
 10
-97.6400962631614
 20
-54.988992112307436
 30
0.0
 10
-97.55986247104067
 20
-55.01152129411471
 30
0.0
 10
-96.42130617705166
 20
-56.98355864258056
 30
0.0
 10
-96.44191222934184
 20
-57.06430773570153
 30
0.0
 10
-96.51918274245507
 20
-57.17368842486341
 30
0.0
 10
-97.0191995677472
 20
-57.6953754690395
 30
0.0
 10
-97.53195125379897
 20
-58.255895374388246
 30
0.0
 10
-98.0701362389022
 20
-58.872431241147424
 30
0.0
 10
-98.63140441059716
 20
-59.54644625852458
 30
0.0
 10
-99.21335189829699
 20
-60.27932409994769
 30
0.0
 10
-99.81352351218074
 20
-61.07236722684841
 30
0.0
 10
-99.87087525579233
 20
-61.15193143615191
 30
0.0
 10
-99.33869021146313
 20
-62.07370297195841
 30
0.0
 10
-98.74350201121872
 20
-62.95610576655995
 30
0.0
 10
-98.64684882398112
 20
-62.939437014532835
 30
0.0
 10
-97.67096846433547
 20
-62.74765356619322
 30
0.0
 10
-96.75715323633324
 20
-62.54587512881037
 30
0.0
 10
-95.90530877950809
 20
-62.336879373831366
 30
0.0
 10
-95.11524524403161
 20
-62.12343344836099
 30
0.0
 10
-94.38667774562424
 20
-61.908291039408134
 30
0.0
 10
-93.69859558716915
 20
-61.68757144166176
 30
0.0
 10
-93.56641171154035
 20
-61.666070502614
 30
0.0
 10
-93.48480180862546
 20
-61.68294797805323
 30
0.0
 10
-92.21145660902428
 20
-63.57075987042462
 30
0.0
 10
-92.22637969401259
 20
-63.65274966835873
 30
0.0
 10
-92.29583196886786
 20
-63.76725403017844
 30
0.0
 10
-92.7582397297046
 20
-64.32254968147993
 30
0.0
 10
-93.23064248635943
 20
-64.9174719380362
 30
0.0
 10
-93.72450911188615
 20
-65.57004784119377
 30
0.0
 10
-94.23739315166125
 20
-66.28157308034672
 30
0.0
 10
-94.76680007062677
 20
-67.05326027282862
 30
0.0
 10
-95.31018980456402
 20
-67.88623744195627
 30
0.0
 10
-95.36185172353339
 20
-67.96960849224222
 30
0.0
 10
-94.76666352328903
 20
-68.85201128684389
 30
0.0
 10
-94.11137186421293
 20
-69.69074636252398
 30
0.0
 10
-94.01611687264486
 20
-69.66737602922124
 30
0.0
 10
-93.0559918455864
 20
-69.40798578303777
 30
0.0
 10
-92.15847797782081
 20
-69.14295433982791
 30
0.0
 10
-91.32328737817377
 20
-68.87504602251735
 30
0.0
 10
-90.55003763285713
 20
-68.607007994325
 30
0.0
 10
-89.83825246405956
 20
-68.34156736189385
 30
0.0
 10
-89.16724305998457
 20
-68.07338724097418
 30
0.0
 10
-89.03688100732344
 20
-68.04271799608361
 30
0.0
 10
-88.95429258885802
 20
-68.053861539791
 30
0.0
 10
-87.5523620934609
 20
-69.84825074629047
 30
0.0
 10
-87.56152950737734
 20
-69.93108180298377
 30
0.0
 10
-87.62282517947284
 20
-70.05015198372047
 30
0.0
 10
-88.04537107172449
 20
-70.63635089755233
 30
0.0
 10
-88.47512340023772
 20
-71.26277710388356
 30
0.0
 10
-88.92226559763164
 20
-71.94821375923605
 30
0.0
 10
-89.38426678600007
 20
-72.69378274072193
 30
0.0
 10
-89.85855391893784
 20
-73.50051970183058
 30
0.0
 10
-90.34251443276617
 20
-74.36937273214775
 30
0.0
 10
-90.38823483541704
 20
-74.45614444803951
 30
0.0
 10
-89.7329431763411
 20
-75.29487952371967
 30
0.0
 10
-89.02074057352688
 20
-76.08586064749915
 30
0.0
 10
-88.92734785037214
 20
-76.05590259083539
 30
0.0
 10
-87.98765578852128
 20
-75.73016927001362
 30
0.0
 10
-87.1108158783383
 20
-75.40317602752721
 30
0.0
 10
-86.29634810051778
 20
-75.07766037027697
 30
0.0
 10
-85.54367934039335
 20
-74.75633609369292
 30
0.0
 10
-84.8521442469996
 20
-74.4418904378627
 30
0.0
 10
-84.20147668767176
 20
-74.12755634036148
 30
0.0
 10
-84.07357156879489
 20
-74.08786820710634
 30
0.0
 10
-83.99040699725192
 20
-74.09322352885707
 30
0.0
 10
-82.46672127051092
 20
-75.78544796564195
 30
0.0
 10
-82.47008835063635
 20
-75.86871673651238
 30
0.0
 10
-82.52292879361907
 20
-75.99177263821443
 30
0.0
 10
-82.90355421617272
 20
-76.60601891239298
 30
0.0
 10
-83.2885624063984
 20
-77.26089718299008
 30
0.0
 10
-83.68680174382041
 20
-77.97585521205245
 30
0.0
 10
-84.09566925743263
 20
-78.75183559873777
 30
0.0
 10
-84.51252592510615
 20
-79.58969198709156
 30
0.0
 10
-84.93469941184973
 20
-80.49018791397134
 30
0.0
 10
-84.97425555297652
 20
-80.57993755239156
 30
0.0
 10
-84.26205295016229
 20
-81.37091867617102
 30
0.0
 10
-83.4964091831002
 20
-82.11029226752366
 30
0.0
 10
-83.40533372831818
 20
-82.07389244013956
 30
0.0
 10
-82.49065271694272
 20
-81.68340298467594
 30
0.0
 10
-81.63875864024514
 20
-81.29604102112113
 30
0.0
 10
-80.84898168939466
 20
-80.91450390349262
 30
0.0
 10
-80.12056084100377
 20
-80.54145883809299
 30
0.0
 10
-79.45264491247598
 20
-80.17954010649092
 30
0.0
 10
-78.82548918483944
 20
-79.82058343653445
 30
0.0
 10
-78.70066414062904
 20
-79.77206977151052
 30
0.0
 10
-78.61732858544143
 20
-79.77161078071535
 30
0.0
 10
-76.97931087105681
 20
-81.35342610043139
 30
0.0
 10
-76.97686121331537
 20
-81.43672690839743
 30
0.0
 10
-77.02098899385861
 20
-81.56316901508124
 30
0.0
 10
-77.35783957791593
 20
-82.20247010350252
 30
0.0
 10
-77.69622790865216
 20
-82.88260993725928
 30
0.0
 10
-78.0436242040812
 20
-83.62360613638127
 30
0.0
 10
-78.39736608151009
 20
-84.42621742982337
 30
0.0
 10
-78.75476140013674
 20
-85.29111129331929
 30
0.0
 10
-79.11309107300492
 20
-86.21886299112343
 30
0.0
 10
-79.14629023906393
 20
-86.31115330085515
 30
0.0
 10
-78.38064647200189
 20
-87.05052689220798
 30
0.0
 10
-77.56529168016294
 20
-87.73469079731849
 30
0.0
 10
-77.47697720421462
 20
-87.69202653551426
 30
0.0
 10
-76.59176347725854
 20
-87.23868337078397
 30
0.0
 10
-75.76896557635594
 20
-86.79283987470971
 30
0.0
 10
-75.00772716639194
 20
-86.35714010718803
 30
0.0
 10
-74.30710302288738
 20
-85.93419169103308
 30
0.0
 10
-73.66606027849065
 20
-85.52656311533958
 30
0.0
 10
-73.06547182220898
 20
-85.12473267374166
 30
0.0
 10
-72.94433498773307
 20
-85.06762983064837
 30
0.0
 10
-72.8612344513488
 20
-85.06135876346431
 30
0.0
 10
-71.11686500697212
 20
-86.52505852087742
 30
0.0
 10
-71.10861054585008
 20
-86.60798553277601
 30
0.0
 10
-71.14381067784272
 20
-86.73719783120775
 30
0.0
 10
-71.43524532121828
 20
-87.39843912323128
 30
0.0
 10
-71.72536519853239
 20
-88.10052694724503
 30
0.0
 10
-72.02022597213727
 20
-88.86395125742919
 30
0.0
 10
-72.31711881851403
 20
-89.68928321608465
 30
0.0
 10
-72.61331159402673
 20
-90.57700087875854
 30
0.0
 10
-72.90605170687245
 20
-91.52748843447266
 30
0.0
 10
-72.9327321548638
 20
-91.62186978640378
 30
0.0
 10
-72.11737736302493
 20
-92.3060336915144
 30
0.0
 10
-71.25628387299592
 20
-92.93165473260913
 30
0.0
 10
-71.17116063513066
 20
-92.88293389237958
 30
0.0
 10
-70.31972686489037
 20
-92.36894566071128
 30
0.0
 10
-69.53003372844857
 20
-91.86679273681439
 30
0.0
 10
-68.80104253638498
 20
-91.37905300487054
 30
0.0
 10
-68.13162846816736
 20
-90.90826180012915
 30
0.0
 10
-67.520582003715
 20
-90.45690930579033
 30
0.0
 10
-66.9494868253763
 20
-90.0141627700706
 30
0.0
 10
-66.8326283671158
 20
-89.94874894821952
 30
0.0
 10
-66.75016770699493
 20
-89.93669635665553
 30
0.0
 10
-64.90794492521579
 20
-91.27514955367815
 30
0.0
 10
-64.89392587561798
 20
-91.35729875744313
 30
0.0
 10
-64.92002686755526
 20
-91.4886517382932
 30
0.0
 10
-65.16462572996144
 20
-92.168611732812
 30
0.0
 10
-65.4050637189739
 20
-92.88922704577776
 30
0.0
 10
-65.64595243870495
 20
-93.67136014052403
 30
0.0
 10
-65.88454982192557
 20
-94.51539183005234
 30
0.0
 10
-66.11809703289522
 20
-95.42160842068475
 30
0.0
 10
-66.34382138531483
 20
-96.39020115448007
 30
0.0
 10
-66.36385313077798
 20
-96.48621373215136
 30
0.0
 10
-65.50275964074899
 20
-97.11183477324597
 30
0.0
 10
-64.60012261345628
 20
-97.67586498749962
 30
0.0
 10
-64.51860532553249
 20
-97.62132493188106
 30
0.0
 10
-63.70509961175073
 20
-97.0491957322735
 30
0.0
 10
-62.95235854535082
 20
-96.493179819123
 30
0.0
 10
-62.25916614299744
 20
-95.95577634170357
 30
0.0
 10
-61.624223468117876
 20
-95.43943599580147
 30
0.0
 10
-61.046150240562525
 20
-94.94655852679996
 30
0.0
 10
-60.50733065846935
 20
-94.46505291357569
 30
0.0
 10
-60.395319899086346
 20
-94.39164680253154
 30
0.0
 10
-60.313900855276046
 20
-94.37387140560219
 30
0.0
 10
-58.38279986030767
 20
-95.58055723279928
 30
0.0
 10
-58.363084521634555
 20
-95.6615284057675
 30
0.0
 10
-58.37995921210744
 20
-95.79438213051677
 30
0.0
 10
-58.576530632473585
 20
-96.48974813078686
 30
0.0
 10
-58.766115343470666
 20
-97.22538016733589
 30
0.0
 10
-58.951858423699406
 20
-98.02241157282641
 30
0.0
 10
-59.130997921296576
 20
-98.88103095567793
 30
0.0
 10
-59.3007617491874
 20
-99.80133147813187
 30
0.0
 10
-59.45837063482563
 20
-100.78331050357193
 30
0.0
 10
-59.47165608511019
 20
-100.88048654335603
 30
0.0
 10
-58.56901905781753
 20
-101.44451675760978
 30
0.0
 10
-57.62923605012548
 20
-101.94420824651476
 30
0.0
 10
-57.551721856175746
 20
-101.8841146891757
 30
0.0
 10
-56.78010751691679
 20
-101.25663187757918
 30
0.0
 10
-56.06798579936899
 20
-100.6494618288134
 30
0.0
 10
-55.41396935043063
 20
-100.06501278164076
 30
0.0
 10
-54.816591445776915
 20
-99.50563885284086
 30
0.0
 10
-54.274307769775504
 20
-98.97363765866174
 30
0.0
 10
-53.770388858769856
 20
-98.45571881487979
 30
0.0
 10
-53.663771503424776
 20
-98.37467804183682
 30
0.0
 10
-53.5837907413223
 20
-98.35126643948917
 30
0.0
 10
-51.57321966309858
 20
-99.42030604480625
 30
0.0
 10
-51.5479040864984
 20
-99.49970470356222
 30
0.0
 10
-51.555470263711115
 20
-99.63341192221812
 30
0.0
 10
-51.7030565658365
 20
-100.34079617498415
 30
0.0
 10
-51.84086436116323
 20
-101.08786100977981
 30
0.0
 10
-51.97055688027359
 20
-101.89590766912436
 30
0.0
 10
-52.08936574262206
 20
-102.76493163797399
 30
0.0
 10
-52.194519115129175
 20
-103.69483248061236
 30
0.0
 10
-52.28324467933799
 20
-104.68541369459338
 30
0.0
 10
-52.289719109065636
 20
-104.78327976459259
 30
0.0
 10
-51.34993610137359
 20
-105.28297125349765
 30
0.0
 10
-50.37758564162898
 20
-105.7158895703488
 30
0.0
 10
-50.30445218301458
 20
-105.65053528106012
 30
0.0
 10
-49.578488445776884
 20
-104.97075589065834
 30
0.0
 10
-48.91045546250687
 20
-104.31538977772236
 30
0.0
 10
-48.298801269381244
 20
-103.68674253780573
 30
0.0
 10
-47.74189850005664
 20
-103.08706023966104
 30
0.0
 10
-47.23804632716848
 20
-102.5185271766458
 30
0.0
 10
-46.771483129531035
 20
-101.96671835085205
 30
0.0
 10
-46.67077860726198
 20
-101.87843773831032
 30
0.0
 10
-46.59262578510063
 20
-101.8495039895177
 30
0.0
 10
-44.51237992381279
 20
-102.77568911945717
 30
0.0
 10
-44.481587444230016
 20
-102.85312844171654
 30
0.0
 10
-44.47980824652776
 20
-102.98703774614997
 30
0.0
 10
-44.57769040478374
 20
-103.70299394643847
 30
0.0
 10
-44.66304989871366
 20
-104.45785195470036
 30
0.0
 10
-44.736060007789206
 20
-105.27297714579916
 30
0.0
 10
-44.79395941005422
 20
-106.14817190322465
 30
0.0
 10
-44.833990030516766
 20
-107.08314268261539
 30
0.0
 10
-44.853400011266004
 20
-108.07750007303578
 30
0.0
 10
-44.853031877665885
 20
-108.17557937959447
 30
0.0
 10
-43.880681417921295
 20
-108.60849769644571
 30
0.0
 10
-42.880500699823685
 20
-108.9725337067202
 30
0.0
 10
-42.81210427540362
 20
-108.90223708500986
 30
0.0
 10
-42.135327962541375
 20
-108.1734729326617
 30
0.0
 10
-41.5146383030932
 20
-107.47310363338056
 30
0.0
 10
-40.94832628352596
 20
-106.80332090688141
 30
0.0
 10
-40.434611823842936
 20
-106.16625183126867
 30
0.0
 10
-39.9716458712073
 20
-105.56395673535155
 30
0.0
 10
-39.54471143593817
 20
-104.98094628467767
 30
0.0
 10
-39.450410369054865
 20
-104.88585592690752
 30
0.0
 10
-39.37446623952832
 20
-104.85154099398564
 30
0.0
 10
-37.23468034390696
 20
-105.63035936769423
 30
0.0
 10
-37.19856097920688
 20
-105.70546207686311
 30
0.0
 10
-37.187445074661994
 20
-105.8389210744034
 30
0.0
 10
-37.235146217012634
 20
-106.55996115557424
 30
0.0
 10
-37.267641546671626
 20
-107.31893474496418
 30
0.0
 10
-37.28361354779989
 20
-108.13716725982229
 30
0.0
 10
-37.280321409913654
 20
-109.01426894493973
 30
0.0
 10
-37.25503425317259
 20
-109.94975457742859
 30
0.0
 10
-37.205034086987126
 20
-110.94304373503465
 30
0.0
 10
-37.197825183569165
 20
-111.04085844563023
 30
0.0
 10
-36.19764446547157
 20
-111.40489445590477
 30
0.0
 10
-35.174506268941684
 20
-111.69827461275322
 30
0.0
 10
-35.11118009922056
 20
-111.62337813669602
 30
0.0
 10
-34.48688839690073
 20
-110.84917968809661
 30
0.0
 10
-33.91656599890371
 20
-110.10721933129552
 30
0.0
 10
-33.3983551681287
 20
-109.39956423233104
 30
0.0
 10
-32.930331783296445
 20
-108.72821211574865
 30
0.0
 10
-32.5105075744974
 20
-108.09508930809451
 30
0.0
 10
-32.12528188324992
 20
-107.48371760085213
 30
0.0
 10
-32.03784369707109
 20
-107.38228076851821
 30
0.0
 10
-31.964478252344534
 20
-107.34275183037091
 30
0.0
 10
-29.7755771441826
 20
-107.97040912301847
 30
0.0
 10
-29.734306864279326
 20
-108.04280932624712
 30
0.0
 10
-29.713908408461393
 20
-108.1751678180735
 30
0.0
 10
-29.711196139736064
 20
-108.8977789453299
 30
0.0
 10
-29.690668991144456
 20
-109.65717047281213
 30
0.0
 10
-29.649525070341426
 20
-110.47452396486561
 30
0.0
 10
-29.585057431268794
 20
-111.34925942643106
 30
0.0
 10
-29.494575693809903
 20
-112.28070232005126
 30
0.0
 10
-29.375408976473402
 20
-113.26808403991218
 30
0.0
 10
-29.361394424290378
 20
-113.36515761110688
 30
0.0
 10
-28.338256227760525
 20
-113.65853776795541
 30
0.0
 10
-27.297145179246417
 20
-113.87983275274418
 30
0.0
 10
-27.23919778295759
 20
-113.80070131044293
 30
0.0
 10
-26.67043217760028
 20
-112.98484038261167
 30
0.0
 10
-26.153255594448854
 20
-112.20490372456739
 30
0.0
 10
-25.68567062354324
 20
-111.4628238776465
 30
0.0
 10
-25.265618476447102
 20
-110.76045948012236
 30
0.0
 10
-24.89098135282934
 20
-110.09959347140878
 30
0.0
 10
-24.549341186448512
 20
-109.46283904910077
 30
0.0
 10
-24.46919187102798
 20
-109.35554993225378
 30
0.0
 10
-24.398762540173447
 20
-109.3109995698943
 30
0.0
 10
-22.171410325642334
 20
-109.78443789824293
 30
0.0
 10
-22.125190195191077
 20
-109.85378286901884
 30
0.0
 10
-22.095608567326394
 20
-109.98439601786377
 30
0.0
 10
-22.042496101425687
 20
-110.70505770243035
 30
0.0
 10
-21.969046480788034
 20
-111.46116748881674
 30
0.0
 10
-21.870987087100094
 20
-112.2736598940124
 30
0.0
 10
-21.745658026698365
 20
-113.14176750878521
 30
0.0
 10
-21.59042252645136
 20
-114.06462976738734
 30
0.0
 10
-21.402669826232085
 20
-115.04129362501527
 30
0.0
 10
-21.381917902773537
 20
-115.13715312412805
 30
0.0
 10
-20.340806854259426
 20
-115.35844810891689
 30
0.0
 10
-19.286795142137304
 20
-115.50657979472454
 30
0.0
 10
-19.23450883317063
 20
-115.42359890661187
 30
0.0
 10
-18.72404029363303
 20
-114.57005029197911
 30
0.0
 10
-18.2625291576539
 20
-113.75593710569066
 30
0.0
 10
-17.847848073594456
 20
-112.98304784923394
 30
0.0
 10
-17.4778136160716
 20
-112.2530930195114
 30
0.0
 10
-17.150188772042988
 20
-111.56770348250282
 30
0.0
 10
-16.853798567077877
 20
-110.90866854866829
 30
0.0
 10
-16.781328601823784
 20
-110.79604984910088
 30
0.0
 10
-16.714178509461668
 20
-110.74669510741644
 30
0.0
 10
-14.459226624657905
 20
-111.06360792752027
 30
0.0
 10
-14.408281823488196
 20
-111.12955982411638
 30
0.0
 10
-14.369661142294188
 20
-111.25779129584785
 30
0.0
 10
-14.266407237813125
 20
-111.97299254643808
 30
0.0
 10
-14.140392984298039
 20
-112.72213690085324
 30
0.0
 10
-13.985895853234343
 20
-113.52580983786441
 30
0.0
 10
-13.800315962087764
 20
-114.38306027280728
 30
0.0
 10
-13.581082990805626
 20
-115.29284580423321
 30
0.0
 10
-13.325659019986208
 20
-116.25403359148768
 30
0.0
 10
-13.298270826537228
 20
-116.34821200067464
 30
0.0
 10
-12.244259114415115
 20
-116.49634368648239
 30
0.0
 10
-11.182481777797562
 20
-116.57059039062587
 30
0.0
 10
-11.136111289794526
 20
-116.48416433124736
 30
0.0
 10
-10.686426767489145
 20
-115.59708643286521
 30
0.0
 10
-10.282829514545874
 20
-114.75276299594182
 30
0.0
 10
-9.923072601890539
 20
-113.95282976871616
 30
0.0
 10
-9.60485860462228
 20
-113.19884077335081
 30
0.0
 10
-9.32584219549019
 20
-112.49226685697641
 30
0.0
 10
-9.076145935226343
 20
-111.81416216356705
 30
0.0
 10
-9.011708386524752
 20
-111.69676254826312
 30
0.0
 10
-8.948164681155138
 20
-111.64284387859408
 30
0.0
 10
-6.676599024994523
 20
-111.80168722304954
 30
0.0
 10
-6.621177751056704
 20
-111.8639247344551
 30
0.0
 10
-6.573706172610008
 20
-111.98914979823263
 30
0.0
 10
-6.420813872192175
 20
-112.69540622624538
 30
0.0
 10
-6.242848914575877
 20
-113.43393539269837
 30
0.0
 10
-6.03266674062897
 20
-114.22487344776084
 30
0.0
 10
-5.787740145312778
 20
-115.06709026492524
 30
0.0
 10
-5.505577783994376
 20
-115.95936668551718
 30
0.0
 10
-5.183726942485519
 20
-116.90039559211695
 30
0.0
 10
-5.149835911571538
 20
-116.99243408363523
 30
0.0
 10
-4.088058574953986
 20
-117.06668078777876
 30
0.0
 10
-3.02368848629553
 20
-117.06668078777875
 30
0.0
 10
-2.9834597316125375
 20
-116.97723061620827
 30
0.0
 10
-2.5967500443299185
 20
-116.06094518842887
 30
0.0
 10
-2.253032959669383
 20
-115.19052495978414
 30
0.0
 10
-1.9499529179339774
 20
-114.3674449560636
 30
0.0
 10
-1.6851096875282472
 20
-113.59309515365014
 30
0.0
 10
-1.4560610531913414
 20
-112.86877921500596
 30
0.0
 10
-1.2542752327093865
 20
-112.17490841992522
 30
0.0
 10
-1.198184033820333
 20
-112.05329984800953
 30
0.0
 10
-1.1385562939883884
 20
-111.99507993669465
 30
0.0
 10
1.138556293989246
 20
-111.99507993669444
 30
0.0
 10
1.1981840338194762
 20
-112.05329984800993
 30
0.0
 10
1.254275232760494
 20
-112.1749084199104
 30
0.0
 10
1.4560610531961398
 20
-112.86877921502105
 30
0.0
 10
1.6851096875291207
 20
-113.59309515364957
 30
0.0
 10
1.9499529179352075
 20
-114.3674449560639
 30
0.0
 10
2.2530329596685665
 20
-115.19052495977596
 30
0.0
 10
2.5967500443617513
 20
-116.06094518850409
 30
0.0
 10
2.983459731612549
 20
-116.97723061620809
 30
0.0
 10
3.023688486295626
 20
-117.06668078777884
 30
0.0
 10
4.088058574954095
 20
-117.06668078777885
 30
0.0
 10
5.149835911571637
 20
-116.9924340836353
 30
0.0
 10
5.183726942485543
 20
-116.90039559211714
 30
0.0
 10
5.505577784020883
 20
-115.9593666854399
 30
0.0
 10
5.787740145312536
 20
-115.06709026493347
 30
0.0
 10
6.032666740630174
 20
-114.22487344776046
 30
0.0
 10
6.242848914576789
 20
-113.43393539269887
 30
0.0
 10
6.420813872195909
 20
-112.69540622622999
 30
0.0
 10
6.573706172662026
 20
-111.98914979824386
 30
0.0
 10
6.621177751055822
 20
-111.86392473445476
 30
0.0
 10
6.676599024995395
 20
-111.8016872230497
 30
0.0
 10
8.948164681155978
 20
-111.64284387859381
 30
0.0
 10
9.011708386523924
 20
-111.69676254826356
 30
0.0
 10
9.076145935276292
 20
-111.8141621635487
 30
0.0
 10
9.325842195496028
 20
-112.49226685699114
 30
0.0
 10
9.604858604623109
 20
-113.19884077335017
 30
0.0
 10
9.923072601891786
 20
-113.95282976871638
 30
0.0
 10
10.282829514544485
 20
-114.75276299593371
 30
0.0
 10
10.68642676752615
 20
-115.59708643293803
 30
0.0
 10
11.136111289794524
 20
-116.48416433124719
 30
0.0
 10
11.182481777797662
 20
-116.5705903906259
 30
0.0
 10
12.244259114415108
 20
-116.49634368648236
 30
0.0
 10
13.298270826537202
 20
-116.3482120006745
 30
0.0
 10
13.325659019986142
 20
-116.25403359148787
 30
0.0
 10
13.581082990826577
 20
-115.29284580415428
 30
0.0
 10
13.800315962087994
 20
-114.38306027281553
 30
0.0
 10
13.985895853235416
 20
-113.52580983786395
 30
0.0
 10
14.140392984298888
 20
-112.72213690085371
 30
0.0
 10
14.266407237815677
 20
-111.97299254642246
 30
0.0
 10
14.369661142346764
 20
-111.25779129585544
 30
0.0
 10
14.408281823487194
 20
-111.12955982411611
 30
0.0
 10
14.459226624658687
 20
-111.06360792752038
 30
0.0
 10
16.714178509462386
 20
-110.74669510741612
 30
0.0
 10
16.781328601822892
 20
-110.7960498491014
 30
0.0
 10
16.853798567126326
 20
-110.90866854864649
 30
0.0
 10
17.15018877204974
 20
-111.56770348251712
 30
0.0
 10
17.477813616072286
 20
-112.25309301951071
 30
0.0
 10
17.847848073595618
 20
-112.98304784923408
 30
0.0
 10
18.26252915765185
 20
-113.75593710568268
 30
0.0
 10
18.72404029367492
 20
-114.5700502920492
 30
0.0
 10
19.23450883317051
 20
-115.42359890661169
 30
0.0
 10
19.286795142137297
 20
-115.50657979472456
 30
0.0
 10
20.34080685425952
 20
-115.35844810891682
 30
0.0
 10
21.381917902773605
 20
-115.13715312412796
 30
0.0
 10
21.402669826232135
 20
-115.04129362501547
 30
0.0
 10
21.590422526466856
 20
-114.06462976730714
 30
0.0
 10
21.745658026699275
 20
-113.14176750879341
 30
0.0
 10
21.870987087101234
 20
-112.27365989401186
 30
0.0
 10
21.96904648078901
 20
-111.46116748881714
 30
0.0
 10
22.042496101427247
 20
-110.7050577024146
 30
0.0
 10
22.09560856737947
 20
-109.98439601786767
 30
0.0
 10
22.125190195190157
 20
-109.85378286901866
 30
0.0
 10
22.17141032564322
 20
-109.78443789824297
 30
0.0
 10
24.398762540174243
 20
-109.31099956989392
 30
0.0
 10
24.469191871027224
 20
-109.35554993225436
 30
0.0
 10
24.549341186495422
 20
-109.46283904907564
 30
0.0
 10
24.890981352837173
 20
-110.09959347142257
 30
0.0
 10
25.265618476447838
 20
-110.76045948012163
 30
0.0
 10
25.685670623544507
 20
-111.46282387764654
 30
0.0
 10
26.153255594446353
 20
-112.20490372455956
 30
0.0
 10
26.670432177647058
 20
-112.98484038267866
 30
0.0
 10
27.23919778295756
 20
-113.80070131044276
 30
0.0
 10
27.297145179246506
 20
-113.87983275274414
 30
0.0
 10
28.338256227760514
 20
-113.65853776795532
 30
0.0
 10
29.36139442429034
 20
-113.36515761110675
 30
0.0
 10
29.37540897647336
 20
-113.2680840399124
 30
0.0
 10
29.49457569381967
 20
-112.28070231997019
 30
0.0
 10
29.585057431270165
 20
-111.34925942643919
 30
0.0
 10
29.64952507034242
 20
-110.474523964865
 30
0.0
 10
29.69066899114536
 20
-109.65717047281247
 30
0.0
 10
29.71119613973642
 20
-108.89777894531409
 30
0.0
 10
29.713908408514516
 20
-108.1751678180737
 30
0.0
 10
29.734306864278302
 20
-108.04280932624701
 30
0.0
 10
29.775577144183394
 20
-107.97040912301847
 30
0.0
 10
31.964478252345202
 20
-107.3427518303705
 30
0.0
 10
32.03784369707029
 20
-107.38228076851885
 30
0.0
 10
32.12528188329487
 20
-107.48371760082382
 30
0.0
 10
32.51050757450608
 20
-108.09508930810773
 30
0.0
 10
32.93033178329703
 20
-108.72821211574788
 30
0.0
 10
33.39835516812987
 20
-109.39956423233103
 30
0.0
 10
33.916565998900566
 20
-110.1072193312879
 30
0.0
 10
34.48688839695196
 20
-110.84917968816019
 30
0.0
 10
35.11118009922043
 20
-111.62337813669588
 30
0.0
 10
35.174506268941656
 20
-111.6982746127532
 30
0.0
 10
36.19764446547152
 20
-111.40489445590468
 30
0.0
 10
37.197825183569094
 20
-111.04085844563006
 30
0.0
 10
37.20503408698711
 20
-110.94304373503486
 30
0.0
 10
37.255034253176674
 20
-109.94975457734705
 30
0.0
 10
37.2803214099156
 20
-109.01426894494776
 30
0.0
 10
37.28361354780085
 20
-108.13716725982161
 30
0.0
 10
37.26764154667256
 20
-107.31893474496447
 30
0.0
 10
37.235146217011895
 20
-106.55996115555845
 30
0.0
 10
37.18744507471501
 20
-105.83892107439989
 30
0.0
 10
37.19856097920586
 20
-105.70546207686309
 30
0.0
 10
37.234680343907755
 20
-105.63035936769417
 30
0.0
 10
39.374466239528964
 20
-104.85154099398517
 30
0.0
 10
39.450410369054104
 20
-104.88585592690823
 30
0.0
 10
39.544711435981036
 20
-104.98094628464628
 30
0.0
 10
39.971645871216886
 20
-105.56395673536414
 30
0.0
 10
40.43461182384347
 20
-106.16625183126786
 30
0.0
 10
40.94832628352713
 20
-106.80332090688132
 30
0.0
 10
41.514638303089534
 20
-107.47310363337317
 30
0.0
 10
42.135327962596925
 20
-108.17347293272155
 30
0.0
 10
42.81210427540347
 20
-108.90223708500972
 30
0.0
 10
42.88050069982366
 20
-108.9725337067202
 30
0.0
 10
43.880681417921274
 20
-108.6084976964457
 30
0.0
 10
44.85303187766582
 20
-108.17557937959438
 30
0.0
 10
44.853400011266
 20
-108.07750007303599
 30
0.0
 10
44.833990030515146
 20
-107.08314268253376
 30
0.0
 10
44.793959410056715
 20
-106.14817190323254
 30
0.0
 10
44.736060007790115
 20
-105.27297714579844
 30
0.0
 10
44.663049898714604
 20
-104.4578519547006
 30
0.0
 10
44.57769040478189
 20
-103.70299394642277
 30
0.0
 10
44.47980824658039
 20
-102.98703774614279
 30
0.0
 10
44.481587444228985
 20
-102.85312844171656
 30
0.0
 10
44.51237992381356
 20
-102.77568911945707
 30
0.0
 10
46.592625785101234
 20
-101.8495039895172
 30
0.0
 10
46.67077860726127
 20
-101.87843773831106
 30
0.0
 10
46.7714831295716
 20
-101.96671835081777
 30
0.0
 10
47.23804632717892
 20
-102.51852717665768
 30
0.0
 10
47.741898500057104
 20
-103.0870602396602
 30
0.0
 10
48.2988012693824
 20
-103.68674253780556
 30
0.0
 10
48.91045546250269
 20
-104.31538977771525
 30
0.0
 10
49.57848844583647
 20
-104.97075589071417
 30
0.0
 10
50.30445218301442
 20
-105.65053528105999
 30
0.0
 10
50.37758564162898
 20
-105.71588957034884
 30
0.0
 10
51.349936101373586
 20
-105.2829712534976
 30
0.0
 10
52.28971910906561
 20
-104.78327976459255
 30
0.0
 10
52.283244679338004
 20
-104.68541369459359
 30
0.0
 10
52.19451911512188
 20
-103.69483248053103
 30
0.0
 10
52.0893657426251
 20
-102.76493163798168
 30
0.0
 10
51.97055688027445
 20
-101.89590766912356
 30
0.0
 10
51.840864361164186
 20
-101.08786100977997
 30
0.0
 10
51.70305656583357
 20
-100.34079617496862
 30
0.0
 10
51.55547026376313
 20
-99.63341192220727
 30
0.0
 10
51.547904086497375
 20
-99.49970470356233
 30
0.0
 10
51.57321966309936
 20
-99.4203060448061
 30
0.0
 10
53.583790741322865
 20
-98.35126643948863
 30
0.0
 10
53.66377150342412
 20
-98.3746780418376
 30
0.0
 10
53.77038885880794
 20
-98.45571881484275
 30
0.0
 10
54.27430776978675
 20
-98.97363765867287
 30
0.0
 10
54.816591445777334
 20
-99.50563885283998
 30
0.0
 10
55.41396935043178
 20
-100.0650127816405
 30
0.0
 10
56.06798579936434
 20
-100.6494618288066
 30
0.0
 10
56.78010751698013
 20
-101.25663187763071
 30
0.0
 10
57.55172185617558
 20
-101.8841146891756
 30
0.0
 10
57.629236050125556
 20
-101.94420824651489
 30
0.0
 10
58.569019057817506
 20
-101.44451675760992
 30
0.0
 10
59.47165608511003
 20
-100.88048654335599
 30
0.0
 10
59.458370634825556
 20
-100.78331050357218
 30
0.0
 10
59.30076174917435
 20
-99.80133147805132
 30
0.0
 10
59.13099792130004
 20
-98.88103095568543
 30
0.0
 10
58.95185842370011
 20
-98.02241157282559
 30
0.0
 10
58.76611534347154
 20
-97.22538016733601
 30
0.0
 10
58.57653063246948
 20
-96.48974813077163
 30
0.0
 10
58.37995921215847
 20
-95.79438213050236
 30
0.0
 10
58.36308452163345
 20
-95.66152840576773
 30
0.0
 10
58.38279986030834
 20
-95.58055723279911
 30
0.0
 10
60.313900855276486
 20
-94.37387140560165
 30
0.0
 10
60.395319899085656
 20
-94.39164680253242
 30
0.0
 10
60.50733065850466
 20
-94.46505291353613
 30
0.0
 10
61.04615024057443
 20
-94.94655852681032
 30
0.0
 10
61.62422346811814
 20
-95.43943599580062
 30
0.0
 10
62.259166142998474
 20
-95.95577634170328
 30
0.0
 10
62.95235854534561
 20
-96.49317981911659
 30
0.0
 10
63.70509961181742
 20
-97.04919573232056
 30
0.0
 10
64.5186053255322
 20
-97.621324931881
 30
0.0
 10
64.6001226134562
 20
-97.67586498749972
 30
0.0
 10
65.50275964074893
 20
-97.11183477324596
 30
0.0
 10
66.36385313077795
 20
-96.48621373215119
 30
0.0
 10
66.34382138531493
 20
-96.39020115448021
 30
0.0
 10
66.11809703287675
 20
-95.4216084206052
 30
0.0
 10
65.88454982192972
 20
-94.51539183005946
 30
0.0
 10
65.64595243870576
 20
-93.67136014052308
 30
0.0
 10
65.40506371897493
 20
-92.88922704577773
 30
0.0
 10
65.16462572995644
 20
-92.16861173279699
 30
0.0
 10
64.92002686760532
 20
-91.48865173827518
 30
0.0
 10
64.89392587561704
 20
-91.35729875744333
 30
0.0
 10
64.90794492521658
 20
-91.27514955367784
 30
0.0
 10
66.75016770699548
 20
-89.93669635665485
 30
0.0
 10
66.83262836711532
 20
-89.94874894822036
 30
0.0
 10
66.94948682540891
 20
-90.01416277002855
 30
0.0
 10
67.52058200372774
 20
-90.45690930579974
 30
0.0
 10
68.1316284681677
 20
-90.90826180012817
 30
0.0
 10
68.80104253638615
 20
-91.37905300487007
 30
0.0
 10
69.53003372844307
 20
-91.86679273680825
 30
0.0
 10
70.31972686496033
 20
-92.36894566075345
 30
0.0
 10
71.17116063513055
 20
-92.88293389237944
 30
0.0
 10
71.25628387299595
 20
-92.93165473260906
 30
0.0
 10
72.11737736302496
 20
-92.30603369151444
 30
0.0
 10
72.93273215486374
 20
-91.62186978640379
 30
0.0
 10
72.90605170687247
 20
-91.52748843447287
 30
0.0
 10
72.61331159400267
 20
-90.57700087868054
 30
0.0
 10
72.31711881851858
 20
-89.68928321609152
 30
0.0
 10
72.02022597213794
 20
-88.86395125742825
 30
0.0
 10
71.72536519853332
 20
-88.10052694724497
 30
0.0
 10
71.43524532121215
 20
-87.3984391232167
 30
0.0
 10
71.14381067789131
 20
-86.73719783118632
 30
0.0
 10
71.10861054584909
 20
-86.60798553277634
 30
0.0
 10
71.11686500697283
 20
-86.52505852087711
 30
0.0
 10
72.86123445134923
 20
-85.06135876346367
 30
0.0
 10
72.94433498773257
 20
-85.0676298306493
 30
0.0
 10
73.06547182223851
 20
-85.12473267369752
 30
0.0
 10
73.66606027850392
 20
-85.52656311534814
 30
0.0
 10
74.30710302288757
 20
-85.93419169103214
 30
0.0
 10
75.007727166393
 20
-86.35714010718753
 30
0.0
 10
75.76896557634996
 20
-86.79283987470401
 30
0.0
 10
76.59176347733121
 20
-87.2386833708212
 30
0.0
 10
77.47697720421442
 20
-87.69202653551419
 30
0.0
 10
77.56529168016287
 20
-87.73469079731845
 30
0.0
 10
78.38064647200181
 20
-87.05052689220776
 30
0.0
 10
79.1462902390639
 20
-86.31115330085504
 30
0.0
 10
79.11309107300501
 20
-86.2188629911236
 30
0.0
 10
78.75476140010733
 20
-85.29111129324309
 30
0.0
 10
78.39736608151513
 20
-84.42621742982986
 30
0.0
 10
78.04362420408181
 20
-83.62360613638023
 30
0.0
 10
77.69622790865313
 20
-82.88260993725912
 30
0.0
 10
77.35783957790883
 20
-82.20247010348838
 30
0.0
 10
77.02098899390562
 20
-81.56316901505646
 30
0.0
 10
76.97686121331444
 20
-81.43672690839779
 30
0.0
 10
76.97931087105752
 20
-81.35342610043101
 30
0.0
 10
78.61732858544184
 20
-79.77161078071462
 30
0.0
 10
78.70066414062865
 20
-79.77206977151143
 30
0.0
 10
78.82548918486586
 20
-79.8205834364883
 30
0.0
 10
79.45264491248987
 20
-80.17954010649848
 30
0.0
 10
80.12056084100395
 20
-80.54145883809201
 30
0.0
 10
80.8489816893957
 20
-80.91450390349203
 30
0.0
 10
81.63875864023879
 20
-81.29604102111584
 30
0.0
 10
82.49065271701782
 20
-81.683402984708
 30
0.0
 10
83.40533372831803
 20
-82.07389244013945
 30
0.0
 10
83.49640918310023
 20
-82.11029226752368
 30
0.0
 10
84.26205295016217
 20
-81.37091867617097
 30
0.0
 10
84.97425555297636
 20
-80.57993755239144
 30
0.0
 10
84.9346994118498
 20
-80.49018791397152
 30
0.0
 10
84.51252592507144
 20
-79.58969198701764
 30
0.0
 10
84.09566925743809
 20
-78.75183559874394
 30
0.0
 10
83.68680174382092
 20
-77.97585521205141
 30
0.0
 10
83.28856240639935
 20
-77.2608971829899
 30
0.0
 10
82.90355421616465
 20
-76.6060189123794
 30
0.0
 10
82.52292879366422
 20
-75.99177263818645
 30
0.0
 10
82.47008835063542
 20
-75.86871673651285
 30
0.0
 10
82.46672127051157
 20
-75.78544796564154
 30
0.0
 10
83.99040699725226
 20
-74.09322352885637
 30
0.0
 10
84.07357156879453
 20
-74.08786820710732
 30
0.0
 10
84.20147668769485
 20
-74.12755634031367
 30
0.0
 10
84.85214424701395
 20
-74.4418904378693
 30
0.0
 10
85.54367934039342
 20
-74.75633609369197
 30
0.0
 10
86.29634810051876
 20
-75.07766037027635
 30
0.0
 10
87.11081587833158
 20
-75.40317602752242
 30
0.0
 10
87.9876557885984
 20
-75.73016927004038
 30
0.0
 10
88.92734785037194
 20
-76.05590259083533
 30
0.0
 10
89.02074057352688
 20
-76.08586064749915
 30
0.0
 10
89.73294317634115
 20
-75.29487952371969
 30
0.0
 10
90.3882348354172
 20
-74.45614444803958
 30
0.0
 10
90.3425144327663
 20
-74.36937273214791
 30
0.0
 10
89.85855391889811
 20
-73.50051970175925
 30
0.0
 10
89.384266786006
 20
-72.69378274072768
 30
0.0
 10
88.92226559763212
 20
-71.94821375923496
 30
0.0
 10
88.47512340023869
 20
-71.26277710388331
 30
0.0
 10
88.04537107171551
 20
-70.63635089753933
 30
0.0
 10
87.62282517951596
 20
-70.05015198368939
 30
0.0
 10
87.56152950737646
 20
-69.93108180298427
 30
0.0
 10
87.55236209346157
 20
-69.84825074628999
 30
0.0
 10
88.95429258885835
 20
-68.05386153979025
 30
0.0
 10
89.0368810073232
 20
-68.04271799608458
 30
0.0
 10
89.16724306000432
 20
-68.07338724092484
 30
0.0
 10
89.83825246407439
 20
-68.34156736189942
 30
0.0
 10
90.55003763285717
 20
-68.60700799432401
 30
0.0
 10
91.32328737817474
 20
-68.87504602251663
 30
0.0
 10
92.15847797781382
 20
-69.14295433982358
 30
0.0
 10
93.05599184566525
 20
-69.40798578305906
 30
0.0
 10
94.01611687264469
 20
-69.66737602922119
 30
0.0
 10
94.11137186421306
 20
-69.69074636252408
 30
0.0
 10
94.76666352328904
 20
-68.85201128684385
 30
0.0
 10
95.3618517235333
 20
-67.96960849224222
 30
0.0
 10
95.3101898045641
 20
-67.88623744195647
 30
0.0
 10
94.76680007058214
 20
-67.05326027276026
 30
0.0
 10
94.23739315166753
 20
-66.28157308035208
 30
0.0
 10
93.72450911188652
 20
-65.57004784119266
 30
0.0
 10
93.23064248636034
 20
-64.91747193803589
 30
0.0
 10
92.7582397296947
 20
-64.32254968146759
 30
0.0
 10
92.29583196890866
 20
-63.767254030144436
 30
0.0
 10
92.22637969401173
 20
-63.6527496683593
 30
0.0
 10
92.21145660902488
 20
-63.5707598704241
 30
0.0
 10
93.48480180862572
 20
-61.68294797805247
 30
0.0
 10
93.56641171154014
 20
-61.666070502614986
 30
0.0
 10
93.69859558718535
 20
-61.687571441611176
 30
0.0
 10
94.38667774563939
 20
-61.90829103941267
 30
0.0
 10
95.11524524403156
 20
-62.12343344836002
 30
0.0
 10
95.90530877950897
 20
-62.3368793738306
 30
0.0
 10
96.7571532363259
 20
-62.54587512880654
 30
0.0
 10
97.67096846441558
 20
-62.74765356620898
 30
0.0
 10
98.6468488239809
 20
-62.93943701453279
 30
0.0
 10
98.74350201121872
 20
-62.95610576655999
 30
0.0
 10
99.33869021146313
 20
-62.0737029719583
 30
0.0
 10
99.87087525579228
 20
-61.15193143615172
 30
0.0
 10
99.81352351218092
 20
-61.07236722684844
 30
0.0
 10
99.21335189824778
 20
-60.27932409988245
 30
0.0
 10
98.63140441060386
 20
-59.546446258529336
 30
0.0
 10
98.07013623890256
 20
-58.87243124114616
 30
0.0
 10
97.53195125379993
 20
-58.255895374387734
 30
0.0
 10
97.01919956773655
 20
-57.695375469027745
 30
0.0
 10
96.51918274249348
 20
-57.17368842482652
 30
0.0
 10
96.44191222934109
 20
-57.06430773570204
 30
0.0
 10
96.4213061770523
 20
-56.98355864257988
 30
0.0
 10
97.55986247104093
 20
-55.01152129411381
 30
0.0
 10
97.64009626316133
 20
-54.988992112308324
 30
0.0
 10
97.77345797521559
 20
-55.0012199950469
 30
0.0
 10
98.47526062094336
 20
-55.17340374598149
 30
0.0
 10
99.2170609413281
 20
-55.33719977926125
 30
0.0
 10
100.02008915683743
 20
-55.49501371491641
 30
0.0
 10
100.88443737026573
 20
-55.644078701251296
 30
0.0
 10
101.81010194265876
 20
-55.78162108855635
 30
0.0
 10
102.79698324379332
 20
-55.90486338935962
 30
0.0
 10
102.89456374208794
 20
-55.9147493516268
 30
0.0
 10
103.42674878641714
 20
-54.99297781582037
 30
0.0
 10
103.89333792279031
 20
-54.03632831707523
 30
0.0
 10
103.83057576646661
 20
-53.960958577584286
 30
0.0
 10
103.17654624835632
 20
-53.211713119246674
 30
0.0
 10
102.54489338164571
 20
-52.521215136123075
 30
0.0
 10
101.93797552013822
 20
-51.88799407392906
 30
0.0
 10
101.35809415860835
 20
-51.310501944337865
 30
0.0
 10
100.80749161782012
 20
-50.78711518682184
 30
0.0
 10
100.27230175983112
 20
-50.30157835658208
 30
0.0
 10
100.18758946259614
 20
-50.19785423184075
 30
0.0
 10
100.16140083362082
 20
-50.118739244996455
 30
0.0
 10
101.15962129018023
 20
-48.072084008169185
 30
0.0
 10
101.23808808053647
 20
-48.04401287990482
 30
0.0
 10
101.37197790414409
 20
-48.046908133370245
 30
0.0
 10
102.08408192520058
 20
-48.1697171755112
 30
0.0
 10
102.83550109098249
 20
-48.28136883531395
 30
0.0
 10
103.64758171377788
 20
-48.38278192752259
 30
0.0
 10
104.5202226662057
 20
-48.471189915586955
 30
0.0
 10
105.45322683815287
 20
-48.54382616010938
 30
0.0
 10
106.44630109435849
 20
-48.597926889290875
 30
0.0
 10
106.54433350133097
 20
-48.60098189838361
 30
0.0
 10
107.01092263770417
 20
-47.64433239963847
 30
0.0
 10
107.40964269075027
 20
-46.65746563815049
 30
0.0
 10
107.34177589263106
 20
-46.58665756226664
 30
0.0
 10
106.63707483641305
 20
-45.88486002111653
 30
0.0
 10
105.95879393990887
 20
-45.240105932987625
 30
0.0
 10
105.30918323140925
 20
-44.650763815346615
 30
0.0
 10
104.69043061715608
 20
-44.11512890652872
 30
0.0
 10
104.10465970187532
 20
-43.63142518452862
 30
0.0
 10
103.53690420233141
 20
-43.18440405488125
 30
0.0
 10
103.44516283081072
 20
-43.08684182803252
 30
0.0
 10
103.41351921351676
 20
-43.009746387729386
 30
0.0
 10
104.26654060292337
 20
-40.89844436112565
 30
0.0
 10
104.3428581092003
 20
-40.864968046117625
 30
0.0
 10
104.47662374659923
 20
-40.85851656492602
 30
0.0
 10
105.19555984377429
 20
-40.93135258496478
 30
0.0
 10
105.95293701631007
 20
-40.99031591562714
 30
0.0
 10
106.77011367122732
 20
-41.03483408999802
 30
0.0
 10
107.646795943652
 20
-41.062154364960755
 30
0.0
 10
108.58259421261282
 20
-41.06953059021862
 30
0.0
 10
109.57702326593675
 20
-41.05422617446394
 30
0.0
 10
109.6750299775545
 20
-41.05043534668502
 30
0.0
 10
110.07375003060065
 20
-40.06356858519707
 30
0.0
 10
110.4026584763004
 20
-39.05129247662879
 30
0.0
 10
110.33001767660421
 20
-38.98539103418006
 30
0.0
 10
109.57807831498806
 20
-38.334460497293506
 30
0.0
 10
108.8564739050375
 20
-37.738591481266184
 30
0.0
 10
108.16733518761895
 20
-37.195999523734876
 30
0.0
 10
107.5127258211823
 20
-36.7048313951242
 30
0.0
 10
106.89464034842679
 20
-36.263167264551896
 30
0.0
 10
106.29708525505116
 20
-35.85683967750616
 30
0.0
 10
106.19876176398499
 20
-35.765914661912305
 30
0.0
 10
106.16181732289509
 20
-35.69121436938588
 30
0.0
 10
106.86548381068508
 20
-33.52555160425196
 30
0.0
 10
106.93928022166352
 20
-33.48683319574196
 30
0.0
 10
107.07226998011444
 20
-33.471066410861205
 30
0.0
 10
107.79453556900984
 20
-33.493574559029575
 30
0.0
 10
108.55418088284618
 20
-33.49956229713154
 30
0.0
 10
109.37247236736485
 20
-33.486968665594084
 30
0.0
 10
110.24892485187891
 20
-33.45306812582178
 30
0.0
 10
111.18295810275315
 20
-33.395148395587086
 30
0.0
 10
112.17389719480722
 20
-33.3105133964714
 30
0.0
 10
112.27140073222282
 20
-33.29989520035271
 30
0.0
 10
112.60030917792263
 20
-32.28761909178451
 30
0.0
 10
112.85780360739042
 20
-31.254865343583205
 30
0.0
 10
112.78074270479154
 20
-31.194191599772864
 30
0.0
 10
111.98522841076236
 20
-30.597299335294267
 30
0.0
 10
111.22381607151529
 20
-30.053218405318077
 30
0.0
 10
110.49850675973707
 20
-29.560020061372402
 30
0.0
 10
109.81122983214912
 20
-29.115711634719503
 30
0.0
 10
109.16384105221238
 20
-28.718238838823197
 30
0.0
 10
108.53939759335393
 20
-28.354584381539276
 30
0.0
 10
108.43497100490733
 20
-28.270739554736522
 30
0.0
 10
108.39290572962479
 20
-28.19879834230315
 30
0.0
 10
108.943789123402
 20
-25.98932572993912
 30
0.0
 10
109.01470491038563
 20
-25.94555386012144
 30
0.0
 10
109.14627087715346
 20
-25.9205485857426
 30
0.0
 10
109.86834715242199
 20
-25.892619204605218
 30
0.0
 10
110.62655969194915
 20
-25.845602178488637
 30
0.0
 10
111.44197937221104
 20
-25.77595809594979
 30
0.0
 10
112.31393208041064
 20
-25.681001901464562
 30
0.0
 10
113.2416497970887
 20
-25.55806839484093
 30
0.0
 10
114.22427117222531
 20
-25.404515145572457
 30
0.0
 10
114.32079650800544
 20
-25.387121311898134
 30
0.0
 10
114.57829093747328
 20
-24.354367563696822
 30
0.0
 10
114.76311686373234
 20
-23.306167648311735
 30
0.0
 10
114.68201129120173
 20
-23.251017199520653
 30
0.0
 10
113.84679773043523
 20
-22.71107120656314
 30
0.0
 10
113.04928698627155
 20
-22.221429070238106
 30
0.0
 10
112.29134071419281
 20
-21.78002715263365
 30
0.0
 10
111.57474456955994
 20
-21.384743053931444
 30
0.0
 10
110.90120649550255
 20
-21.033398040218927
 30
0.0
 10
110.25291689692399
 20
-20.714188400658294
 30
0.0
 10
110.14289596693894
 20
-20.637832246214767
 30
0.0
 10
110.09591479525656
 20
-20.569000604229913
 30
0.0
 10
110.4913312465011
 20
-18.326482473107806
 30
0.0
 10
110.55902091490418
 20
-18.277870394132268
 30
0.0
 10
110.68852211382378
 20
-18.243748453438595
 30
0.0
 10
111.40689119243518
 20
-18.165517612132916
 30
0.0
 10
112.15997702237587
 20
-18.065724884022888
 30
0.0
 10
112.96855225566443
 20
-17.939369649452175
 30
0.0
 10
113.83175712160359
 20
-17.783820417288588
 30
0.0
 10
114.74863955662369
 20
-17.596472053963062
 30
0.0
 10
115.71815598227595
 20
-17.374748650537114
 30
0.0
 10
115.8132328546876
 20
-17.350663920316453
 30
0.0
 10
115.99805878094632
 20
-16.30246400493119
 30
0.0
 10
116.10931575066185
 20
-15.243924646985286
 30
0.0
 10
116.0245606463967
 20
-15.19456618065635
 30
0.0
 10
115.15371689540554
 20
-14.714197021822441
 30
0.0
 10
114.32399313850532
 20
-14.281379166418077
 30
0.0
 10
113.53710254417513
 20
-13.893924140927842
 30
0.0
 10
112.794678366882
 20
-13.549590154571389
 30
0.0
 10
112.09827240849694
 20
-13.246084640632391
 30
0.0
 10
111.42929507195673
 20
-12.972874976072141
 30
0.0
 10
111.31421581134482
 20
-12.904379493497
 30
0.0
 10
111.26254763080853
 20
-12.838992762801483
 30
0.0
 10
111.50057071031705
 20
-10.574354435838991
 30
0.0
 10
111.56470448287926
 20
-10.52113898086789
 30
0.0
 10
111.6915099971269
 20
-10.478066612524518
 30
0.0
 10
112.40267205714038
 20
-10.349915443845642
 30
0.0
 10
113.14696221903104
 20
-10.197833193882397
 30
0.0
 10
113.94475370808739
 20
-10.015382397281462
 30
0.0
 10
114.7950052844283
 20
-9.799997947662861
 30
0.0
 10
115.69658547873172
 20
-9.54914747002937
 30
0.0
 10
116.64827356832927
 20
-9.260334126579878
 30
0.0
 10
116.74143877240697
 20
-9.229675838197473
 30
0.0
  0
LWPOLYLINE
  8
OpenJsCad
  90
31
  70
1
 10
3.638454589310789
 20
-17.1175830128416
 30
0.0
 10
1.0715659492539341e-15
 20
-17.5
 30
0.0
 10
-3.6384545893107814
 20
-17.1175830128416
 30
0.0
 10
-7.117891253826502
 20
-15.987045508745517
 30
0.0
 10
-10.286241915118284
 20
-14.157797401561579
 30
0.0
 10
-13.005034445854395
 20
-11.709785611280022
 30
0.0
 10
-15.155444566227676
 20
-8.750000000000004
 30
0.0
 10
-16.64348903516519
 20
-5.407797401561577
 30
0.0
 10
-17.404133168944785
 20
-1.8292481071839284
 30
0.0
 10
-17.40413316894478
 20
1.829248107183948
 30
0.0
 10
-16.643489035165185
 20
5.407797401561582
 30
0.0
 10
-15.155444566227674
 20
8.750000000000005
 30
0.0
 10
-13.005034445854395
 20
11.709785611280022
 30
0.0
 10
-10.286241915118278
 20
14.15779740156158
 30
0.0
 10
-7.117891253826505
 20
15.987045508745515
 30
0.0
 10
-3.6384545893107845
 20
17.1175830128416
 30
0.0
 10
8.84312712163003e-15
 20
17.5
 30
0.0
 10
3.638454589310787
 20
17.1175830128416
 30
0.0
 10
7.1178912538265
 20
15.987045508745517
 30
0.0
 10
10.286241915118282
 20
14.157797401561579
 30
0.0
 10
13.005034445854402
 20
11.709785611280013
 30
0.0
 10
15.155444566227677
 20
8.749999999999998
 30
0.0
 10
16.64348903516519
 20
5.407797401561579
 30
0.0
 10
17.404133168944785
 20
1.8292481071839344
 30
0.0
 10
17.40413316894478
 20
-1.8292481071839344
 30
0.0
 10
16.643489035165185
 20
-5.40779740156158
 30
0.0
 10
15.155444566227676
 20
-8.75
 30
0.0
 10
13.005034445854399
 20
-11.709785611280019
 30
0.0
 10
10.28624191511828
 20
-14.15779740156158
 30
0.0
 10
7.117891253826504
 20
-15.987045508745515
 30
0.0
 10
3.638454589310789
 20
-17.1175830128416
 30
0.0
  0
LWPOLYLINE
  8
OpenJsCad
  90
343
  70
1
 10
112.67172401605139
 20
5.316773310367525
 30
0.0
 10
112.43194732945912
 20
4.4219145335346575
 30
0.0
 10
112.35120398537777
 20
3.499013887584854
 30
0.0
 10
112.98025742283325
 20
2.99176301149529
 30
0.0
 10
114.0195594563003
 20
2.3368981568587386
 30
0.0
 10
114.86268214767404
 20
1.933874875434387
 30
0.0
 10
115.46879229546654
 20
1.726572995815252
 30
0.0
 10
115.80760877460655
 20
1.6532250886522157
 30
0.0
 10
116.24329528478955
 20
1.6109018579969425
 30
0.0
 10
116.88368765608818
 20
1.420272623945205
 30
0.0
 10
117.18803811563497
 20
1.138556293989196
 30
0.0
 10
117.18803811563495
 20
-1.1385562939891645
 30
0.0
 10
116.88368765608826
 20
-1.420272623945403
 30
0.0
 10
116.24329528478957
 20
-1.6109018579971188
 30
0.0
 10
115.80760877460658
 20
-1.6532250886522357
 30
0.0
 10
115.46879229546653
 20
-1.7265729958152112
 30
0.0
 10
114.86268214767398
 20
-1.9338748754343522
 30
0.0
 10
114.01955945630048
 20
-2.3368981568585845
 30
0.0
 10
112.98025742283349
 20
-2.9917630114951126
 30
0.0
 10
112.35120398537777
 20
-3.499013887584869
 30
0.0
 10
112.43194732945912
 20
-4.421914533534662
 30
0.0
 10
112.6717240160514
 20
-5.316773310367541
 30
0.0
 10
113.43633090665055
 20
-5.57828426867806
 30
0.0
 10
114.63693232970905
 20
-5.8381937097470065
 30
0.0
 10
115.56705058168644
 20
-5.928546769561626
 30
0.0
 10
116.20750923352955
 20
-5.916044936495636
 30
0.0
 10
116.55097904049862
 20
-5.8690873628502676
 30
0.0
 10
116.97486583650826
 20
-5.759844627726999
 30
0.0
 10
117.64183686017762
 20
-5.719950421655262
 30
0.0
 10
118.02418540069527
 20
-5.880583190274386
 30
0.0
 10
118.8030037744043
 20
-8.020369085896359
 30
0.0
 10
118.61336055298428
 20
-8.389189830106522
 30
0.0
 10
118.07678760521975
 20
-8.78734980526723
 30
0.0
 10
117.6818516040395
 20
-8.976134195459508
 30
0.0
 10
117.38855472051144
 20
-9.16094074332723
 30
0.0
 10
116.88989890582634
 20
-9.563042669499533
 30
0.0
 10
116.23546481480182
 20
-10.230125616803493
 30
0.0
 10
115.48281733462682
 20
-11.200959518762513
 30
0.0
 10
115.06519047871195
 20
-11.892768370749359
 30
0.0
 10
115.45671501452588
 20
-12.732395447351626
 30
0.0
 10
115.98809112466175
 20
-13.491279179872546
 30
0.0
 10
116.79602859300243
 20
-13.475508139341072
 30
0.0
 10
118.01311915504168
 20
-13.309113252394678
 30
0.0
 10
118.91804697935082
 20
-13.075898178116775
 30
0.0
 10
119.51560536966922
 20
-12.845100537940828
 30
0.0
 10
119.8223009766724
 20
-12.683501259888661
 30
0.0
 10
120.1832610550071
 20
-12.435868845093776
 30
0.0
 10
120.7963641821487
 20
-12.170263028926591
 30
0.0
 10
121.2105939267873
 20
-12.19043755362619
 30
0.0
 10
122.67429368420103
 20
-13.934806998003296
 30
0.0
 10
122.6222314722468
 20
-14.34624693150117
 30
0.0
 10
122.25419656449014
 20
-14.903913678551092
 30
0.0
 10
121.94764618268957
 20
-15.216389044662478
 30
0.0
 10
121.73524482752799
 20
-15.490363836107932
 30
0.0
 10
121.4041885965774
 20
-16.038766382144615
 30
0.0
 10
121.01737751569793
 20
-16.889448946787677
 30
0.0
 10
120.64216498281783
 20
-18.05915499951051
 30
0.0
 10
120.48633667078312
 20
-18.852079469833573
 30
0.0
 10
121.14141876102371
 20
-19.507161560074174
 30
0.0
 10
121.90030249354463
 20
-20.038537670210044
 30
0.0
 10
122.65412135705785
 20
-19.74738685108044
 30
0.0
 10
123.74090197395222
 20
-19.174757315211433
 30
0.0
 10
124.51149171966915
 20
-18.64610328668685
 30
0.0
 10
124.99407548756784
 20
-18.22484744101656
 30
0.0
 10
125.22700487805545
 20
-17.96809771644203
 30
0.0
 10
125.48150112606466
 20
-17.611943745865002
 30
0.0
 10
125.96678707110675
 20
-17.152662300956493
 30
0.0
 10
126.36293579928295
 20
-17.029945236313512
 30
0.0
 10
128.33497314774954
 20
-18.168501530302713
 30
0.0
 10
128.4267714163792
 20
-18.57293492490174
 30
0.0
 10
128.27166499012262
 20
-19.222845603862016
 30
0.0
 10
128.09047472794867
 20
-19.621322805094227
 30
0.0
 10
127.98458763929622
 20
-19.95142043683181
 30
0.0
 10
127.86106125940239
 20
-20.579978162121265
 30
0.0
 10
127.78852831374559
 20
-21.511655472069933
 30
0.0
 10
127.83600689717292
 20
-22.739149862575438
 30
0.0
 10
127.9607723232307
 20
-23.537551557794906
 30
0.0
 10
128.80039939983297
 20
-23.929076093608835
 30
0.0
 10
129.69525817666585
 20
-24.168852780201103
 30
0.0
 10
130.30403675523036
 20
-23.637439268188864
 30
0.0
 10
131.12942564540873
 20
-22.727642656534922
 30
0.0
 10
131.67273281650654
 20
-21.96731315170624
 30
0.0
 10
131.98213523739906
 20
-21.406408772603584
 30
0.0
 10
132.11320368920664
 20
-21.08547640751275
 30
0.0
 10
132.23054010341582
 20
-20.663758306277966
 30
0.0
 10
132.52947621932856
 20
-20.066197353156323
 30
0.0
 10
132.85976254789176
 20
-19.8153901882777
 30
0.0
 10
135.10228067901454
 20
-20.21080663952258
 30
0.0
 10
135.32686720223322
 20
-20.559452859032927
 30
0.0
 10
135.40339738161032
 20
-21.223218650360867
 30
0.0
 10
135.36942145876466
 20
-21.659635455348138
 30
0.0
 10
135.38282018223978
 20
-22.0060412812681
 30
0.0
 10
135.48172275787311
 20
-22.638940847616368
 30
0.0
 10
135.73221649115746
 20
-23.539238869198172
 30
0.0
 10
136.19665957302166
 20
-24.67646765810357
 30
0.0
 10
136.58697018544777
 20
-25.38404755062189
 30
0.0
 10
137.50987083139756
 20
-25.464790894703253
 30
0.0
 10
138.4327714773474
 20
-25.384047550621887
 30
0.0
 10
138.82308208977335
 20
-24.676467658103835
 30
0.0
 10
139.28752517163755
 20
-23.53923886919838
 30
0.0
 10
139.53801890492198
 20
-22.63894084761633
 30
0.0
 10
139.63692148055532
 20
-22.006041281268082
 30
0.0
 10
139.6503202040305
 20
-21.659635455348166
 30
0.0
 10
139.61634428118498
 20
-21.223218650360845
 30
0.0
 10
139.6928744605621
 20
-20.559452859032948
 30
0.0
 10
139.91746098378053
 20
-20.210806639522573
 30
0.0
 10
142.15997911490334
 20
-19.815390188277718
 30
0.0
 10
142.49026544346674
 20
-20.066197353156223
 30
0.0
 10
142.78920155937948
 20
-20.66375830627792
 30
0.0
 10
142.9065379735885
 20
-21.085476407512715
 30
0.0
 10
143.037606425396
 20
-21.406408772603612
 30
0.0
 10
143.34700884628856
 20
-21.967313151706293
 30
0.0
 10
143.89031601738623
 20
-22.727642656534766
 30
0.0
 10
144.71570490756454
 20
-23.63743926818866
 30
0.0
 10
145.32448348612928
 20
-24.168852780201103
 30
0.0
 10
146.21934226296216
 20
-23.929076093608835
 30
0.0
 10
147.05896933956444
 20
-23.537551557794902
 30
0.0
 10
147.18373476562215
 20
-22.73914986257573
 30
0.0
 10
147.23121334904948
 20
-21.511655472070174
 30
0.0
 10
147.15868040339268
 20
-20.579978162121243
 30
0.0
 10
147.03515402349885
 20
-19.951420436831814
 30
0.0
 10
146.92926693484645
 20
-19.62132280509425
 30
0.0
 10
146.74807667267265
 20
-19.222845603861945
 30
0.0
 10
146.59297024641612
 20
-18.572934924901706
 30
0.0
 10
146.68476851504556
 20
-18.168501530302713
 30
0.0
 10
148.65680586351215
 20
-17.029945236313548
 30
0.0
 10
149.05295459168852
 20
-17.152662300956347
 30
0.0
 10
149.53824053673063
 20
-17.6119437458649
 30
0.0
 10
149.79273678473967
 20
-17.968097716441996
 30
0.0
 10
150.02566617522726
 20
-18.224847441016603
 30
0.0
 10
150.50824994312597
 20
-18.646103286686916
 30
0.0
 10
151.27883968884268
 20
-19.174757315211355
 30
0.0
 10
152.365620305737
 20
-19.74738685108033
 30
0.0
 10
153.1194391692505
 20
-20.03853767021004
 30
0.0
 10
153.8783229017714
 20
-19.507161560074177
 30
0.0
 10
154.53340499201204
 20
-18.85207946983357
 30
0.0
 10
154.37757667997735
 20
-18.05915499951081
 30
0.0
 10
154.00236414709724
 20
-16.88944894678792
 30
0.0
 10
153.61555306621767
 20
-16.03876638214462
 30
0.0
 10
153.28449683526708
 20
-15.49036383610795
 30
0.0
 10
153.0720954801056
 20
-15.21638904466249
 30
0.0
 10
152.76554509830513
 20
-14.903913678550971
 30
0.0
 10
152.3975101905485
 20
-14.346246931501067
 30
0.0
 10
152.34544797859405
 20
-13.934806998003317
 30
0.0
 10
153.80914773600782
 20
-12.190437553626229
 30
0.0
 10
154.22337748064652
 20
-12.170263028926406
 30
0.0
 10
154.83648060778813
 20
-12.435868845093633
 30
0.0
 10
155.19744068612272
 20
-12.683501259888631
 30
0.0
 10
155.5041362931259
 20
-12.845100537940876
 30
0.0
 10
156.10169468344432
 20
-13.07589817811684
 30
0.0
 10
157.0066225077532
 20
-13.309113252394686
 30
0.0
 10
158.22371306979238
 20
-13.475508139341061
 30
0.0
 10
159.0316505381334
 20
-13.491279179872539
 30
0.0
 10
159.56302664826924
 20
-12.732395447351628
 30
0.0
 10
159.9545511840832
 20
-11.892768370749348
 30
0.0
 10
159.53692432816848
 20
-11.200959518762765
 30
0.0
 10
158.78427684799343
 20
-10.230125616803704
 30
0.0
 10
158.1298427569687
 20
-9.563042669499552
 30
0.0
 10
157.63118694228365
 20
-9.160940743327261
 30
0.0
 10
157.33789005875565
 20
-8.976134195459505
 30
0.0
 10
156.94295405757546
 20
-8.787349805267072
 30
0.0
 10
156.40638110981098
 20
-8.389189830106359
 30
0.0
 10
156.2167378883908
 20
-8.020369085896387
 30
0.0
 10
156.99555626209985
 20
-5.880583190274423
 30
0.0
 10
157.3779048026175
 20
-5.719950421655055
 30
0.0
 10
158.0448758262869
 20
-5.75984462772683
 30
0.0
 10
158.46876262229648
 20
-5.869087362850242
 30
0.0
 10
158.81223242926558
 20
-5.916044936495685
 30
0.0
 10
159.4526910811087
 20
-5.928546769561677
 30
0.0
 10
160.38280933308585
 20
-5.8381937097470935
 30
0.0
 10
161.58341075614427
 20
-5.57828426867815
 30
0.0
 10
162.34801764674373
 20
-5.316773310367531
 30
0.0
 10
162.587794333336
 20
-4.421914533534661
 30
0.0
 10
162.66853767741736
 20
-3.499013887584857
 30
0.0
 10
162.03948423996187
 20
-2.9917630114952924
 30
0.0
 10
161.00018220649483
 20
-2.3368981568587412
 30
0.0
 10
160.1570595151211
 20
-1.9338748754343897
 30
0.0
 10
159.55094936732857
 20
-1.7265729958152547
 30
0.0
 10
159.2121328881886
 20
-1.6532250886522184
 30
0.0
 10
158.77644637800557
 20
-1.6109018579969452
 30
0.0
 10
158.13605400670693
 20
-1.4202726239452077
 30
0.0
 10
157.83170354716015
 20
-1.1385562939891987
 30
0.0
 10
157.83170354716017
 20
1.1385562939891618
 30
0.0
 10
158.13605400670687
 20
1.4202726239454004
 30
0.0
 10
158.77644637800557
 20
1.6109018579971162
 30
0.0
 10
159.21213288818853
 20
1.653225088652233
 30
0.0
 10
159.5509493673286
 20
1.7265729958152085
 30
0.0
 10
160.15705951512115
 20
1.9338748754343495
 30
0.0
 10
161.00018220649466
 20
2.3368981568585814
 30
0.0
 10
162.03948423996164
 20
2.9917630114951095
 30
0.0
 10
162.66853767741736
 20
3.4990138875848658
 30
0.0
 10
162.587794333336
 20
4.421914533534671
 30
0.0
 10
162.34801764674373
 20
5.31677331036755
 30
0.0
 10
161.58341075614456
 20
5.578284268678068
 30
0.0
 10
160.38280933308607
 20
5.838193709747015
 30
0.0
 10
159.4526910811087
 20
5.928546769561634
 30
0.0
 10
158.81223242926558
 20
5.916044936495643
 30
0.0
 10
158.4687626222965
 20
5.869087362850275
 30
0.0
 10
158.04487582628687
 20
5.759844627727006
 30
0.0
 10
157.3779048026175
 20
5.719950421655268
 30
0.0
 10
156.99555626209985
 20
5.880583190274395
 30
0.0
 10
156.2167378883908
 20
8.020369085896366
 30
0.0
 10
156.40638110981087
 20
8.38918983010653
 30
0.0
 10
156.94295405757538
 20
8.787349805267237
 30
0.0
 10
157.33789005875562
 20
8.976134195459515
 30
0.0
 10
157.63118694228368
 20
9.160940743327235
 30
0.0
 10
158.12984275696877
 20
9.56304266949954
 30
0.0
 10
158.7842768479933
 20
10.230125616803502
 30
0.0
 10
159.5369243281683
 20
11.200959518762522
 30
0.0
 10
159.95455118408316
 20
11.892768370749366
 30
0.0
 10
159.56302664826924
 20
12.732395447351635
 30
0.0
 10
159.03165053813336
 20
13.491279179872553
 30
0.0
 10
158.22371306979267
 20
13.475508139341079
 30
0.0
 10
157.00662250775346
 20
13.309113252394686
 30
0.0
 10
156.1016946834443
 20
13.075898178116784
 30
0.0
 10
155.5041362931259
 20
12.845100537940835
 30
0.0
 10
155.19744068612272
 20
12.68350125988867
 30
0.0
 10
154.83648060778802
 20
12.435868845093784
 30
0.0
 10
154.22337748064643
 20
12.1702630289266
 30
0.0
 10
153.80914773600782
 20
12.190437553626197
 30
0.0
 10
152.3454479785941
 20
13.934806998003301
 30
0.0
 10
152.39751019054833
 20
14.346246931501177
 30
0.0
 10
152.76554509830498
 20
14.903913678551099
 30
0.0
 10
153.07209548010553
 20
15.216389044662485
 30
0.0
 10
153.28449683526713
 20
15.490363836107939
 30
0.0
 10
153.6155530662177
 20
16.038766382144626
 30
0.0
 10
154.00236414709718
 20
16.889448946787688
 30
0.0
 10
154.3775766799773
 20
18.059154999510522
 30
0.0
 10
154.533404992012
 20
18.852079469833583
 30
0.0
 10
153.87832290177144
 20
19.50716156007417
 30
0.0
 10
153.1194391692505
 20
20.038537670210037
 30
0.0
 10
152.36562030573728
 20
19.747386851080435
 30
0.0
 10
151.2788396888429
 20
19.17475731521143
 30
0.0
 10
150.50824994312597
 20
18.64610328668685
 30
0.0
 10
150.0256661752273
 20
18.224847441016554
 30
0.0
 10
149.79273678473967
 20
17.968097716442028
 30
0.0
 10
149.53824053673048
 20
17.611943745865
 30
0.0
 10
149.05295459168838
 20
17.15266230095649
 30
0.0
 10
148.65680586351218
 20
17.029945236313516
 30
0.0
 10
146.6847685150456
 20
18.168501530302706
 30
0.0
 10
146.59297024641592
 20
18.572934924901737
 30
0.0
 10
146.7480766726725
 20
19.222845603862016
 30
0.0
 10
146.92926693484645
 20
19.62132280509423
 30
0.0
 10
147.03515402349893
 20
19.951420436831807
 30
0.0
 10
147.15868040339274
 20
20.579978162121265
 30
0.0
 10
147.23121334904954
 20
21.511655472069933
 30
0.0
 10
147.1837347656222
 20
22.739149862575438
 30
0.0
 10
147.05896933956444
 20
23.537551557794902
 30
0.0
 10
146.21934226296216
 20
23.929076093608835
 30
0.0
 10
145.32448348612928
 20
24.168852780201103
 30
0.0
 10
144.71570490756477
 20
23.637439268188864
 30
0.0
 10
143.8903160173864
 20
22.72764265653492
 30
0.0
 10
143.3470088462886
 20
21.96731315170624
 30
0.0
 10
143.03760642539606
 20
21.406408772603584
 30
0.0
 10
142.90653797358848
 20
21.08547640751275
 30
0.0
 10
142.7892015593793
 20
20.663758306277966
 30
0.0
 10
142.49026544346657
 20
20.066197353156323
 30
0.0
 10
142.15997911490334
 20
19.8153901882777
 30
0.0
 10
139.91746098378056
 20
20.21080663952258
 30
0.0
 10
139.6928744605619
 20
20.559452859032923
 30
0.0
 10
139.6163442811848
 20
21.223218650360863
 30
0.0
 10
139.65032020403046
 20
21.659635455348138
 30
0.0
 10
139.63692148055534
 20
22.0060412812681
 30
0.0
 10
139.538018904922
 20
22.638940847616368
 30
0.0
 10
139.28752517163767
 20
23.539238869198172
 30
0.0
 10
138.82308208977346
 20
24.67646765810357
 30
0.0
 10
138.43277147734736
 20
25.38404755062189
 30
0.0
 10
137.50987083139756
 20
25.464790894703253
 30
0.0
 10
136.58697018544777
 20
25.38404755062189
 30
0.0
 10
136.1966595730218
 20
24.676467658103835
 30
0.0
 10
135.7322164911576
 20
23.53923886919838
 30
0.0
 10
135.48172275787314
 20
22.63894084761633
 30
0.0
 10
135.38282018223984
 20
22.00604128126809
 30
0.0
 10
135.36942145876463
 20
21.659635455348166
 30
0.0
 10
135.40339738161015
 20
21.22321865036085
 30
0.0
 10
135.32686720223302
 20
20.55945285903295
 30
0.0
 10
135.1022806790146
 20
20.210806639522573
 30
0.0
 10
132.85976254789182
 20
19.81539018827772
 30
0.0
 10
132.5294762193284
 20
20.066197353156227
 30
0.0
 10
132.23054010341565
 20
20.66375830627792
 30
0.0
 10
132.11320368920664
 20
21.08547640751272
 30
0.0
 10
131.98213523739912
 20
21.40640877260362
 30
0.0
 10
131.67273281650657
 20
21.967313151706296
 30
0.0
 10
131.12942564540893
 20
22.72764265653477
 30
0.0
 10
130.30403675523058
 20
23.637439268188665
 30
0.0
 10
129.69525817666585
 20
24.168852780201107
 30
0.0
 10
128.80039939983297
 20
23.929076093608835
 30
0.0
 10
127.96077232323069
 20
23.537551557794895
 30
0.0
 10
127.83600689717296
 20
22.739149862575733
 30
0.0
 10
127.78852831374563
 20
21.511655472070167
 30
0.0
 10
127.86106125940243
 20
20.579978162121236
 30
0.0
 10
127.98458763929627
 20
19.95142043683181
 30
0.0
 10
128.09047472794865
 20
19.621322805094245
 30
0.0
 10
128.27166499012247
 20
19.222845603861945
 30
0.0
 10
128.426771416379
 20
18.572934924901702
 30
0.0
 10
128.33497314774957
 20
18.168501530302713
 30
0.0
 10
126.36293579928298
 20
17.029945236313548
 30
0.0
 10
125.96678707110661
 20
17.15266230095634
 30
0.0
 10
125.4815011260645
 20
17.6119437458649
 30
0.0
 10
125.22700487805545
 20
17.968097716441992
 30
0.0
 10
124.99407548756787
 20
18.224847441016596
 30
0.0
 10
124.51149171966915
 20
18.646103286686913
 30
0.0
 10
123.74090197395245
 20
19.17475731521135
 30
0.0
 10
122.65412135705812
 20
19.747386851080325
 30
0.0
 10
121.90030249354461
 20
20.038537670210033
 30
0.0
 10
121.14141876102371
 20
19.50716156007418
 30
0.0
 10
120.48633667078312
 20
18.852079469833573
 30
0.0
 10
120.64216498281777
 20
18.05915499951081
 30
0.0
 10
121.01737751569789
 20
16.88944894678792
 30
0.0
 10
121.40418859657747
 20
16.038766382144622
 30
0.0
 10
121.73524482752805
 20
15.490363836107953
 30
0.0
 10
121.94764618268954
 20
15.21638904466249
 30
0.0
 10
122.25419656449002
 20
14.903913678550971
 30
0.0
 10
122.62223147224663
 20
14.346246931501067
 30
0.0
 10
122.67429368420106
 20
13.934806998003321
 30
0.0
 10
121.21059392678731
 20
12.19043755362623
 30
0.0
 10
120.79636418214861
 20
12.170263028926408
 30
0.0
 10
120.183261055007
 20
12.435868845093637
 30
0.0
 10
119.82230097667241
 20
12.683501259888635
 30
0.0
 10
119.51560536966923
 20
12.84510053794088
 30
0.0
 10
118.9180469793508
 20
13.075898178116844
 30
0.0
 10
118.01311915504192
 20
13.309113252394686
 30
0.0
 10
116.79602859300275
 20
13.475508139341063
 30
0.0
 10
115.98809112466175
 20
13.491279179872542
 30
0.0
 10
115.45671501452588
 20
12.732395447351625
 30
0.0
 10
115.06519047871194
 20
11.89276837074934
 30
0.0
 10
115.48281733462666
 20
11.200959518762758
 30
0.0
 10
116.2354648148017
 20
10.230125616803697
 30
0.0
 10
116.8898989058264
 20
9.563042669499545
 30
0.0
 10
117.38855472051148
 20
9.160940743327256
 30
0.0
 10
117.68185160403947
 20
8.976134195459498
 30
0.0
 10
118.07678760521966
 20
8.787349805267068
 30
0.0
 10
118.61336055298415
 20
8.389189830106355
 30
0.0
 10
118.80300377440432
 20
8.02036908589638
 30
0.0
 10
118.02418540069527
 20
5.880583190274418
 30
0.0
 10
117.64183686017762
 20
5.7199504216550485
 30
0.0
 10
116.97486583650823
 20
5.759844627726824
 30
0.0
 10
116.55097904049865
 20
5.8690873628502365
 30
0.0
 10
116.20750923352955
 20
5.916044936495679
 30
0.0
 10
115.56705058168642
 20
5.928546769561671
 30
0.0
 10
114.63693232970928
 20
5.838193709747087
 30
0.0
 10
113.43633090665084
 20
5.578284268678144
 30
0.0
 10
112.67172401605139
 20
5.316773310367525
 30
0.0
  0
LWPOLYLINE
  8
OpenJsCad
  90
31
  70
1
 10
136.19874775444188
 20
3.2451434909837555
 30
0.0
 10
136.9021022095633
 20
3.446827135542728
 30
0.0
 10
137.6320190698563
 20
3.4978678945668347
 30
0.0
 10
138.3565974659964
 20
3.3960350419659875
 30
0.0
 10
139.04416984515933
 20
3.1457791620470843
 30
0.0
 10
139.66468599503736
 20
2.758037637623528
 30
0.0
 10
140.191026382314
 20
2.2497566339028885
 30
0.0
 10
140.60018740640382
 20
1.6431504697506174
 30
0.0
 10
140.87428676718167
 20
0.9647307453594962
 30
0.0
 10
141.00134500730695
 20
0.24414765810443645
 30
0.0
 10
140.97580907199307
 20
-0.4871058533602288
 30
0.0
 10
140.79879500414825
 20
-1.1970705016398415
 30
0.0
 10
140.47803916794504
 20
-1.854717424816218
 30
0.0
 10
140.02756013258283
 20
-2.4313042966064904
 30
0.0
 10
139.46704599354518
 20
-2.901631503942645
 30
0.0
 10
138.82099390835324
 20
-3.245143490983756
 30
0.0
 10
138.11763945323182
 20
-3.4468271355427285
 30
0.0
 10
137.38772259293881
 20
-3.497867894566835
 30
0.0
 10
136.66314419679873
 20
-3.3960350419659875
 30
0.0
 10
135.9755718176358
 20
-3.1457791620470843
 30
0.0
 10
135.35505566775777
 20
-2.758037637623526
 30
0.0
 10
134.82871528048113
 20
-2.249756633902887
 30
0.0
 10
134.4195542563913
 20
-1.6431504697506178
 30
0.0
 10
134.14545489561345
 20
-0.9647307453594973
 30
0.0
 10
134.01839665548817
 20
-0.24414765810443917
 30
0.0
 10
134.04393259080206
 20
0.4871058533602284
 30
0.0
 10
134.22094665864688
 20
1.1970705016398404
 30
0.0
 10
134.54170249485009
 20
1.8547174248162168
 30
0.0
 10
134.9921815302123
 20
2.43130429660649
 30
0.0
 10
135.55269566924994
 20
2.901631503942645
 30
0.0
 10
136.19874775444188
 20
3.2451434909837555
 30
0.0
  0
ENDSEC
  0
EOF
